<?xml version="1.0" encoding="UTF-8" standalone="no"?>
<!DOCTYPE svg PUBLIC "-//W3C//DTD SVG 20010904//EN"
              "http://www.w3.org/TR/2001/REC-SVG-20010904/DTD/svg10.dtd">

<svg xmlns="http://www.w3.org/2000/svg"
     width="1.25667in" height="1.25667in"
     viewBox="0 0 377 377">
  <path id="Auswahl #7"
        fill="none" stroke="black" stroke-width="1"
        d="M 195.00,0.00
           C 195.00,0.00 205.00,9.00 205.00,9.00
             201.57,12.35 206.52,16.90 210.00,18.00
             210.00,18.00 205.00,11.00 205.00,11.00
             205.00,11.00 214.09,18.11 214.09,18.11
             214.09,18.11 238.00,19.00 238.00,19.00
             234.19,15.27 227.32,8.67 222.00,7.82
             216.69,6.62 211.18,9.72 206.00,7.82
             206.00,7.82 209.00,6.00 209.00,6.00
             215.23,6.29 217.67,6.54 223.00,3.00
             223.00,3.00 225.00,4.00 225.00,4.00
             225.00,4.00 224.00,7.00 224.00,7.00
             230.96,8.89 235.55,15.66 241.00,17.40
             246.31,19.10 252.51,15.41 257.00,13.00
             257.00,13.00 259.00,17.00 259.00,17.00
             255.79,16.98 254.07,16.66 253.00,20.00
             248.85,18.51 248.19,18.68 244.00,20.00
             244.00,20.00 259.00,21.09 259.00,21.09
             261.53,21.45 263.89,22.67 265.00,20.00
             265.00,20.00 282.00,26.00 282.00,26.00
             282.00,26.00 272.00,25.00 272.00,25.00
             281.54,29.91 279.96,32.55 288.00,28.00
             288.00,28.00 289.00,32.00 289.00,32.00
             289.00,32.00 284.00,33.00 284.00,33.00
             286.82,35.82 291.41,41.01 295.00,42.42
             300.36,44.52 306.83,42.68 313.00,48.00
             313.00,48.00 310.00,47.00 310.00,47.00
             310.00,47.00 311.00,49.00 311.00,49.00
             303.82,44.95 302.84,45.43 295.00,44.00
             297.51,46.73 301.31,52.17 305.00,52.73
             308.17,53.21 312.94,50.23 316.00,49.00
             316.00,49.00 316.00,53.00 316.00,53.00
             316.00,53.00 305.00,55.00 305.00,55.00
             307.20,58.51 311.60,65.71 315.17,67.57
             321.08,70.64 341.53,68.04 338.00,79.00
             338.00,79.00 339.00,79.00 339.00,79.00
             339.00,79.00 340.00,81.00 340.00,81.00
             333.22,78.29 329.30,80.93 322.00,81.00
             322.00,81.00 331.39,97.98 331.39,97.98
             331.39,97.98 351.00,101.00 351.00,101.00
             349.17,97.20 346.11,94.02 348.00,90.00
             348.00,90.00 349.00,92.00 349.00,92.00
             349.00,92.00 348.00,94.00 348.00,94.00
             348.00,94.00 349.00,96.00 349.00,96.00
             351.99,97.72 355.89,101.83 357.02,105.17
             357.02,105.17 358.36,111.00 358.36,111.00
             358.36,111.00 366.84,132.89 366.84,132.89
             367.94,134.50 368.59,134.83 370.00,136.00
             370.00,136.00 368.93,141.17 368.93,141.17
             368.93,141.17 372.13,160.00 372.13,160.00
             372.72,164.21 372.31,167.54 376.00,170.00
             376.00,170.00 374.26,176.09 374.26,176.09
             374.26,176.09 374.26,201.91 374.26,201.91
             374.26,201.91 376.00,208.00 376.00,208.00
             371.44,212.57 371.64,220.82 370.40,227.00
             370.40,227.00 368.70,235.00 368.70,235.00
             368.47,238.03 369.31,239.59 368.70,241.72
             368.70,241.72 365.10,248.01 365.10,248.01
             365.10,248.01 358.30,266.00 358.30,266.00
             355.64,272.71 356.69,276.66 349.00,281.00
             349.00,281.00 348.00,283.00 348.00,283.00
             348.00,283.00 349.00,285.00 349.00,285.00
             349.00,285.00 347.00,287.00 347.00,287.00
             347.04,282.35 348.54,280.78 351.00,277.00
             351.00,277.00 330.39,280.93 330.39,280.93
             330.39,280.93 321.00,297.00 321.00,297.00
             321.00,297.00 338.00,299.00 338.00,299.00
             338.00,299.00 337.17,303.78 337.17,303.78
             337.17,303.78 325.00,314.00 325.00,314.00
             325.00,314.00 330.00,308.00 330.00,308.00
             325.82,308.34 316.34,309.27 313.09,311.58
             310.46,313.46 305.93,320.11 304.00,323.00
             309.02,323.45 313.21,323.75 315.00,329.00
             315.00,329.00 309.00,331.00 309.00,331.00
             309.00,331.00 312.00,331.00 312.00,331.00
             312.00,331.00 302.00,336.00 302.00,336.00
             300.97,333.94 299.14,334.57 296.99,334.90
             289.82,336.03 290.22,339.59 283.00,343.00
             283.00,343.00 283.00,345.00 283.00,345.00
             283.00,345.00 287.00,346.00 287.00,346.00
             287.00,346.00 286.00,350.00 286.00,350.00
             279.41,345.05 276.52,349.26 271.00,354.00
             271.00,354.00 280.00,353.00 280.00,353.00
             280.00,353.00 264.00,356.17 264.00,356.17
             264.00,356.17 244.00,359.00 244.00,359.00
             244.00,359.00 251.00,358.00 251.00,358.00
             252.43,361.68 255.79,360.65 259.00,361.00
             259.00,361.00 255.00,365.00 255.00,365.00
             251.38,362.13 244.76,358.80 240.00,360.28
             240.00,360.28 220.00,374.00 220.00,374.00
             220.00,374.00 221.00,372.00 221.00,372.00
             221.00,372.00 218.00,373.00 218.00,373.00
             218.00,373.00 207.00,369.00 207.00,369.00
             207.00,369.00 221.00,369.66 221.00,369.66
             226.80,368.61 232.85,362.96 237.00,359.00
             237.00,359.00 229.00,361.00 229.00,361.00
             227.81,358.38 224.58,359.01 222.00,359.00
             211.03,358.95 213.56,359.90 205.00,366.00
             205.00,366.00 210.00,359.00 210.00,359.00
             204.73,360.66 203.34,363.73 204.00,369.00
             204.00,369.00 195.00,376.00 195.00,376.00
             195.00,376.00 198.00,373.00 198.00,373.00
             198.00,373.00 196.00,371.00 196.00,371.00
             196.00,371.00 198.00,368.00 198.00,368.00
             201.55,364.81 201.91,363.56 203.00,359.00
             203.00,359.00 191.00,360.00 191.00,360.00
             191.00,360.00 190.00,371.00 190.00,371.00
             190.00,371.00 195.00,372.00 195.00,372.00
             195.00,372.00 181.00,371.46 181.00,371.46
             181.00,371.46 174.00,369.00 174.00,369.00
             174.00,369.00 179.00,376.00 179.00,376.00
             175.09,374.23 173.29,372.63 171.00,369.00
             171.00,369.00 157.00,374.00 157.00,374.00
             157.00,374.00 151.00,370.00 151.00,370.00
             151.00,370.00 170.00,369.00 170.00,369.00
             166.64,361.49 165.51,359.01 157.00,359.00
             154.37,359.00 152.06,358.35 151.00,361.00
             143.64,357.75 143.64,358.86 136.00,359.00
             136.00,359.00 146.00,368.00 146.00,368.00
             142.70,366.39 136.05,363.57 135.00,360.00
             129.22,361.13 127.20,360.36 123.00,365.00
             123.00,365.00 120.00,362.00 120.00,362.00
             120.00,362.00 128.00,360.00 128.00,360.00
             128.00,360.00 120.00,356.00 120.00,356.00
             120.00,356.00 118.00,352.00 118.00,352.00
             118.00,352.00 129.00,356.00 129.00,356.00
             129.00,356.00 115.83,343.15 115.83,343.15
             115.83,343.15 107.00,343.15 107.00,343.15
             107.00,343.15 117.00,352.00 117.00,352.00
             117.00,352.00 104.00,344.81 104.00,344.81
             104.00,344.81 96.00,346.00 96.00,346.00
             96.00,346.00 107.00,353.53 107.00,353.53
             107.00,353.53 119.00,356.00 119.00,356.00
             112.56,355.98 105.92,355.80 100.00,353.00
             100.00,353.00 102.00,352.00 102.00,352.00
             95.95,349.28 95.96,347.23 91.00,350.00
             90.49,347.81 89.69,346.87 92.00,346.00
             87.49,340.53 82.81,336.20 76.00,334.00
             76.00,334.00 78.00,336.00 78.00,336.00
             78.00,336.00 78.00,337.00 78.00,337.00
             78.00,337.00 65.00,330.00 65.00,330.00
             65.00,330.00 70.00,331.00 70.00,331.00
             66.37,328.42 66.40,328.34 62.00,329.00
             61.80,322.27 58.78,321.29 55.00,316.00
             60.65,320.05 61.91,323.79 69.00,324.00
             67.08,319.73 61.36,311.35 56.99,309.58
             56.99,309.58 49.00,308.00 49.00,308.00
             49.00,308.00 55.00,315.00 55.00,315.00
             55.00,315.00 40.41,304.49 40.41,304.49
             40.41,304.49 38.00,301.00 38.00,301.00
             38.00,301.00 41.00,300.00 41.00,300.00
             41.00,300.00 28.37,280.13 28.37,280.13
             24.56,275.52 22.04,277.55 20.00,271.00
             20.00,271.00 23.00,271.00 23.00,271.00
             23.00,271.00 15.67,251.00 15.67,251.00
             14.22,246.82 13.92,244.05 9.00,244.00
             9.00,244.00 7.00,240.00 7.00,240.00
             7.00,240.00 12.00,239.00 12.00,239.00
             12.00,239.00 7.61,220.00 7.61,220.00
             6.59,214.35 7.45,212.23 3.00,208.00
             3.00,208.00 2.00,211.00 2.00,211.00
             2.00,211.00 2.00,204.00 2.00,204.00
             2.00,204.00 6.00,205.00 6.00,205.00
             4.89,196.57 4.02,182.14 6.00,174.00
             6.00,174.00 5.00,173.00 5.00,173.00
             5.00,173.00 2.00,174.00 2.00,174.00
             2.00,174.00 2.00,169.00 2.00,169.00
             2.00,169.00 6.00,170.00 6.00,170.00
             6.29,163.76 7.56,157.13 8.80,151.00
             9.86,145.77 11.75,143.30 8.00,139.00
             8.00,139.00 7.00,142.00 7.00,142.00
             7.00,142.00 9.00,133.00 9.00,133.00
             9.00,133.00 13.00,135.00 13.00,135.00
             13.00,135.00 23.00,108.00 23.00,108.00
             23.00,108.00 19.00,108.00 19.00,108.00
             20.66,100.48 23.12,103.49 27.21,98.78
             27.21,98.78 40.00,78.00 40.00,78.00
             40.00,78.00 37.00,77.00 37.00,77.00
             40.65,70.73 41.17,73.32 45.83,70.15
             45.83,70.15 55.00,62.00 55.00,62.00
             55.00,62.00 49.00,70.00 49.00,70.00
             61.85,68.29 57.50,67.55 69.00,55.00
             61.71,52.99 63.47,54.94 55.00,61.00
             58.53,56.02 60.81,55.32 61.00,49.00
             70.09,53.33 69.84,53.12 78.00,45.00
             72.31,45.66 71.66,46.93 67.00,50.00
             67.00,50.00 67.00,49.00 67.00,49.00
             67.00,49.00 69.00,47.00 69.00,47.00
             69.00,47.00 64.00,47.00 64.00,47.00
             64.00,47.00 78.00,40.00 78.00,40.00
             78.00,40.00 75.00,44.00 75.00,44.00
             75.00,44.00 91.00,34.00 91.00,34.00
             91.00,34.00 91.00,32.00 91.00,32.00
             91.00,32.00 88.00,31.00 88.00,31.00
             88.00,31.00 89.00,28.00 89.00,28.00
             94.62,29.70 95.05,28.94 100.00,26.00
             100.00,26.00 98.00,24.00 98.00,24.00
             98.00,24.00 108.00,21.00 108.00,21.00
             108.00,21.00 108.00,24.00 108.00,24.00
             101.72,25.28 99.53,27.69 95.00,32.20
             95.00,32.20 105.00,32.20 105.00,32.20
             105.00,32.20 117.00,26.00 117.00,26.00
             117.00,26.00 106.00,34.00 106.00,34.00
             114.83,36.17 115.25,35.23 121.09,29.00
             123.98,25.92 125.48,24.52 128.00,21.00
             128.00,21.00 118.00,24.00 118.00,24.00
             118.00,24.00 121.00,22.00 121.00,22.00
             121.00,22.00 109.00,22.00 109.00,22.00
             109.00,22.00 127.00,19.00 127.00,19.00
             127.00,19.00 119.00,16.00 119.00,16.00
             119.00,16.00 119.00,14.00 119.00,14.00
             119.00,14.00 120.00,13.00 120.00,13.00
             120.00,13.00 122.00,13.00 122.00,13.00
             126.74,17.98 128.81,16.29 135.00,17.00
             136.05,13.43 142.70,10.61 146.00,9.00
             146.00,9.00 135.00,18.00 135.00,18.00
             142.23,19.76 144.45,19.30 151.00,16.00
             151.00,16.00 151.00,17.00 151.00,17.00
             151.00,17.00 149.00,19.00 149.00,19.00
             161.99,19.00 162.98,20.64 170.00,9.00
             170.00,9.00 167.00,7.00 167.00,7.00
             167.00,7.00 172.00,7.00 172.00,7.00
             172.00,7.00 170.00,7.00 170.00,7.00
             170.00,7.00 170.00,6.00 170.00,6.00
             170.00,6.00 179.00,1.00 179.00,1.00
             179.00,1.00 173.00,8.00 173.00,8.00
             173.00,8.00 180.00,6.00 180.00,6.00
             180.00,6.00 170.00,18.00 170.00,18.00
             170.00,18.00 189.00,18.00 189.00,18.00
             189.00,18.00 190.00,5.00 190.00,5.00
             190.00,5.00 191.00,18.00 191.00,18.00
             191.00,18.00 203.00,18.00 203.00,18.00
             203.00,18.00 195.00,0.00 195.00,0.00 Z
           M 154.00,3.00
           C 154.00,3.00 166.00,9.00 166.00,9.00
             158.22,7.54 154.92,7.07 147.00,9.00
             147.00,9.00 154.00,3.00 154.00,3.00 Z
           M 218.00,4.00
           C 218.00,4.00 219.00,4.00 219.00,4.00
             219.00,4.00 218.00,5.00 218.00,5.00
             218.00,5.00 218.00,4.00 218.00,4.00 Z
           M 176.00,6.00
           C 176.00,6.00 177.00,6.00 177.00,6.00
             177.00,6.00 176.00,7.00 176.00,7.00
             176.00,7.00 176.00,6.00 176.00,6.00 Z
           M 229.00,7.00
           C 229.00,7.00 230.00,7.00 230.00,7.00
             230.00,7.00 229.00,8.00 229.00,8.00
             229.00,8.00 229.00,7.00 229.00,7.00 Z
           M 139.00,8.00
           C 139.00,8.00 140.00,8.00 140.00,8.00
             140.00,8.00 139.00,9.00 139.00,9.00
             139.00,9.00 139.00,8.00 139.00,8.00 Z
           M 176.00,9.00
           C 170.97,9.86 170.42,11.26 169.00,16.00
             169.00,16.00 176.00,9.00 176.00,9.00 Z
           M 132.00,9.00
           C 132.00,9.00 133.00,9.00 133.00,9.00
             133.00,9.00 132.00,10.00 132.00,10.00
             132.00,10.00 132.00,9.00 132.00,9.00 Z
           M 242.00,9.00
           C 242.00,9.00 243.00,9.00 243.00,9.00
             243.00,9.00 242.00,10.00 242.00,10.00
             242.00,10.00 242.00,9.00 242.00,9.00 Z
           M 244.00,9.00
           C 244.00,9.00 245.00,9.00 245.00,9.00
             245.00,9.00 244.00,10.00 244.00,10.00
             244.00,10.00 244.00,9.00 244.00,9.00 Z
           M 128.00,10.00
           C 128.00,10.00 129.00,10.00 129.00,10.00
             129.00,10.00 128.00,11.00 128.00,11.00
             128.00,11.00 128.00,10.00 128.00,10.00 Z
           M 220.00,11.00
           C 220.00,11.00 221.00,11.00 221.00,11.00
             221.00,11.00 220.00,12.00 220.00,12.00
             220.00,12.00 220.00,11.00 220.00,11.00 Z
           M 157.00,12.00
           C 157.00,12.00 158.00,12.00 158.00,12.00
             158.00,12.00 157.00,13.00 157.00,13.00
             157.00,13.00 157.00,12.00 157.00,12.00 Z
           M 222.00,12.00
           C 222.00,12.00 223.00,12.00 223.00,12.00
             223.00,12.00 222.00,13.00 222.00,13.00
             222.00,13.00 222.00,12.00 222.00,12.00 Z
           M 250.00,12.00
           C 250.00,12.00 251.00,12.00 251.00,12.00
             251.00,12.00 250.00,13.00 250.00,13.00
             250.00,13.00 250.00,12.00 250.00,12.00 Z
           M 155.00,13.00
           C 155.00,13.00 156.00,13.00 156.00,13.00
             156.00,13.00 155.00,14.00 155.00,14.00
             155.00,14.00 155.00,13.00 155.00,13.00 Z
           M 227.00,15.00
           C 227.00,15.00 228.00,15.00 228.00,15.00
             228.00,15.00 227.00,16.00 227.00,16.00
             227.00,16.00 227.00,15.00 227.00,15.00 Z
           M 133.00,17.00
           C 133.00,17.00 132.00,17.00 132.00,17.00
             132.00,17.00 133.00,18.00 133.00,18.00
             133.00,18.00 133.00,17.00 133.00,17.00 Z
           M 115.00,17.00
           C 115.00,17.00 116.00,17.00 116.00,17.00
             116.00,17.00 115.00,18.00 115.00,18.00
             115.00,18.00 115.00,17.00 115.00,17.00 Z
           M 260.00,17.00
           C 260.00,17.00 261.00,17.00 261.00,17.00
             261.00,17.00 260.00,18.00 260.00,18.00
             260.00,18.00 260.00,17.00 260.00,17.00 Z
           M 189.00,19.00
           C 183.25,19.00 172.51,17.68 168.00,21.00
             168.00,21.00 189.00,21.00 189.00,21.00
             189.00,21.00 189.00,19.00 189.00,19.00 Z
           M 204.00,19.00
           C 204.00,19.00 191.00,19.00 191.00,19.00
             191.00,19.00 191.00,21.00 191.00,21.00
             191.00,21.00 204.00,21.00 204.00,21.00
             204.00,21.00 204.00,19.00 204.00,19.00 Z
           M 212.00,20.00
           C 212.00,20.00 207.00,19.00 207.00,19.00
             207.00,19.00 207.00,21.00 207.00,21.00
             207.00,21.00 212.00,20.00 212.00,20.00 Z
           M 164.00,20.00
           C 164.00,20.00 156.00,21.00 156.00,21.00
             156.00,21.00 164.00,20.00 164.00,20.00 Z
           M 221.00,20.00
           C 221.00,20.00 214.00,21.00 214.00,21.00
             214.00,21.00 221.00,20.00 221.00,20.00 Z
           M 263.00,19.00
           C 263.00,19.00 264.00,19.00 264.00,19.00
             264.00,19.00 263.00,20.00 263.00,20.00
             263.00,20.00 263.00,19.00 263.00,19.00 Z
           M 109.00,20.00
           C 109.00,20.00 110.00,20.00 110.00,20.00
             110.00,20.00 109.00,21.00 109.00,21.00
             109.00,21.00 109.00,20.00 109.00,20.00 Z
           M 143.00,21.00
           C 140.29,21.00 134.31,20.75 132.00,21.60
             127.14,23.39 120.90,31.67 118.00,36.12
             119.95,36.09 124.46,36.65 126.00,36.12
             129.30,35.33 140.42,24.13 143.00,21.00 Z
           M 163.00,22.00
           C 158.45,21.99 149.33,20.53 146.00,21.43
             140.76,22.85 132.17,32.47 129.00,37.00
             129.00,37.00 149.00,38.00 149.00,38.00
             151.13,38.00 154.59,38.25 156.36,37.01
             159.20,35.02 162.19,25.48 163.00,22.00 Z
           M 252.00,37.00
           C 249.56,31.88 239.63,22.57 234.00,21.30
             229.04,20.18 221.33,21.88 216.00,22.00
             216.00,22.00 225.39,36.98 225.39,36.98
             225.39,36.98 234.00,38.00 234.00,38.00
             234.00,38.00 252.00,37.00 252.00,37.00 Z
           M 247.00,29.00
           C 245.03,24.85 242.13,20.54 237.00,22.00
             237.00,22.00 247.00,29.00 247.00,29.00 Z
           M 262.00,25.00
           C 256.02,21.44 250.84,21.06 244.00,21.00
             245.87,24.49 253.47,34.74 257.17,35.70
             259.91,36.42 270.53,34.46 274.00,34.00
             274.00,34.00 263.00,25.00 263.00,25.00
             269.24,29.16 272.32,32.74 280.00,33.00
             277.79,29.09 272.42,24.56 268.00,23.43
             265.60,22.81 262.91,22.47 262.00,25.00 Z
           M 190.00,23.00
           C 184.76,22.98 170.18,20.40 166.65,23.60
             164.33,25.69 162.08,33.76 161.00,37.00
             161.00,37.00 165.00,37.80 165.00,37.80
             165.00,37.80 173.00,37.02 173.00,37.02
             173.00,37.02 190.00,37.02 190.00,37.02
             190.00,37.02 190.00,23.00 190.00,23.00 Z
           M 208.00,37.00
           C 207.48,33.30 206.45,24.23 202.77,22.80
             200.16,21.44 194.06,22.75 191.00,22.80
             191.00,22.80 192.00,37.00 192.00,37.00
             192.00,37.00 208.00,37.00 208.00,37.00 Z
           M 223.00,38.00
           C 221.41,34.34 216.92,24.99 213.67,23.02
             211.92,21.96 209.96,22.07 208.00,22.00
             208.31,25.48 210.00,35.84 213.30,37.40
             215.06,38.24 220.81,38.00 223.00,38.00 Z
           M 261.00,22.00
           C 261.00,22.00 260.00,22.00 260.00,22.00
             260.00,22.00 261.00,23.00 261.00,23.00
             261.00,23.00 261.00,22.00 261.00,22.00 Z
           M 248.00,29.00
           C 248.00,29.00 247.00,29.00 247.00,29.00
             247.00,29.00 248.00,30.00 248.00,30.00
             248.00,30.00 248.00,29.00 248.00,29.00 Z
           M 94.00,30.00
           C 94.00,30.00 93.00,30.00 93.00,30.00
             93.00,30.00 94.00,31.00 94.00,31.00
             94.00,31.00 94.00,30.00 94.00,30.00 Z
           M 249.00,30.00
           C 249.00,30.00 248.00,30.00 248.00,30.00
             248.00,30.00 249.00,31.00 249.00,31.00
             249.00,31.00 249.00,30.00 249.00,30.00 Z
           M 102.00,35.00
           C 92.71,33.69 90.10,31.79 82.00,43.00
             90.89,41.41 95.58,42.67 102.00,35.00 Z
           M 87.00,33.00
           C 87.00,33.00 88.00,33.00 88.00,33.00
             88.00,33.00 87.00,34.00 87.00,34.00
             87.00,34.00 87.00,33.00 87.00,33.00 Z
           M 290.00,42.00
           C 286.59,37.26 284.24,33.73 278.00,35.00
             282.01,39.11 284.18,41.19 290.00,42.00 Z
           M 283.00,41.00
           C 281.26,38.92 279.62,37.01 277.00,35.97
             273.27,34.51 260.16,36.67 257.00,39.00
             257.00,39.00 283.00,41.00 283.00,41.00 Z
           M 84.00,35.00
           C 84.00,35.00 85.00,35.00 85.00,35.00
             85.00,35.00 84.00,36.00 84.00,36.00
             84.00,36.00 84.00,35.00 84.00,35.00 Z
           M 114.00,37.00
           C 106.45,36.00 103.26,34.24 98.00,41.00
             98.00,41.00 112.46,39.00 112.46,39.00
             112.46,39.00 114.00,37.00 114.00,37.00 Z
           M 125.00,38.00
           C 125.00,38.00 116.00,39.00 116.00,39.00
             116.00,39.00 125.00,38.00 125.00,38.00 Z
           M 298.00,38.00
           C 298.00,38.00 299.00,38.00 299.00,38.00
             299.00,38.00 298.00,39.00 298.00,39.00
             298.00,39.00 298.00,38.00 298.00,38.00 Z
           M 156.00,40.00
           C 156.00,40.00 134.00,40.00 134.00,40.00
             131.40,40.01 128.38,39.81 126.01,41.02
             121.70,43.23 115.20,53.51 113.00,58.00
             113.00,58.00 141.00,60.00 141.00,60.00
             141.00,60.00 147.49,58.98 147.49,58.98
             147.49,58.98 156.00,40.00 156.00,40.00 Z
           M 190.00,61.00
           C 190.00,61.00 188.98,41.60 188.98,41.60
             188.98,41.60 181.00,40.00 181.00,40.00
             181.00,40.00 160.00,40.00 160.00,40.00
             160.00,40.00 156.00,60.00 156.00,60.00
             156.00,60.00 190.00,61.00 190.00,61.00 Z
           M 212.00,60.00
           C 211.36,56.43 209.98,43.72 208.07,41.60
             205.53,38.78 195.37,40.04 192.00,41.00
             192.00,41.00 193.00,61.00 193.00,61.00
             193.00,61.00 212.00,60.00 212.00,60.00 Z
           M 232.00,60.00
           C 231.00,55.60 226.90,42.39 222.79,40.60
             220.83,39.74 214.44,40.00 212.00,40.00
             212.00,40.00 216.74,59.01 216.74,59.01
             216.74,59.01 232.00,60.00 232.00,60.00 Z
           M 265.00,58.00
           C 263.79,53.74 259.45,43.61 255.62,41.40
             251.77,39.18 232.53,40.00 227.00,40.00
             227.92,43.39 233.23,57.28 235.65,59.01
             237.50,60.33 241.79,60.04 244.00,59.83
             250.74,59.19 258.62,59.55 265.00,58.00 Z
           M 111.00,41.00
           C 111.00,41.00 96.00,42.74 96.00,42.74
             91.01,44.64 85.48,51.39 83.00,56.20
             87.34,56.04 97.53,57.80 100.79,56.20
             104.18,54.94 109.64,44.56 111.00,41.00 Z
           M 122.00,41.00
           C 120.09,41.01 116.91,40.87 115.18,41.60
             110.99,43.36 106.23,53.70 105.00,58.00
             106.91,57.94 108.79,58.07 110.49,57.01
             113.42,55.16 120.48,44.37 122.00,41.00 Z
           M 297.00,55.00
           C 291.56,43.50 284.19,42.69 273.00,41.91
             273.00,41.91 260.00,41.00 260.00,41.00
             261.65,44.87 269.19,56.05 273.09,57.31
             275.62,58.13 293.39,55.65 297.00,55.00 Z
           M 93.00,43.00
           C 81.72,43.25 78.27,44.12 72.00,54.18
             72.00,54.18 80.91,54.18 80.91,54.18
             80.91,54.18 93.00,43.00 93.00,43.00 Z
           M 290.00,43.00
           C 290.07,48.18 296.41,52.65 301.00,54.00
             297.62,48.21 295.80,46.35 290.00,43.00 Z
           M 70.00,46.00
           C 70.00,46.00 69.00,46.00 69.00,46.00
             69.00,46.00 70.00,47.00 70.00,47.00
             70.00,47.00 70.00,46.00 70.00,46.00 Z
           M 79.00,57.00
           C 79.00,57.00 70.00,55.00 70.00,55.00
             70.00,55.00 61.00,68.00 61.00,68.00
             71.88,67.97 73.11,66.29 79.00,57.00 Z
           M 317.00,54.00
           C 317.00,54.00 322.00,59.00 322.00,59.00
             322.00,59.00 317.00,54.00 317.00,54.00 Z
           M 153.00,56.00
           C 153.00,56.00 152.00,60.00 152.00,60.00
             152.00,60.00 153.00,56.00 153.00,56.00 Z
           M 302.00,56.00
           C 302.00,56.00 306.00,61.00 306.00,61.00
             306.00,61.00 302.00,56.00 302.00,56.00 Z
           M 100.00,59.00
           C 87.70,58.44 80.41,52.78 74.00,67.00
             74.00,67.00 96.61,64.71 96.61,64.71
             96.61,64.71 100.00,59.00 100.00,59.00 Z
           M 308.00,67.00
           C 308.00,67.00 299.99,58.02 299.99,58.02
             299.99,58.02 274.00,59.00 274.00,59.00
             276.22,67.68 284.71,65.72 292.00,66.04
             292.00,66.04 308.00,67.00 308.00,67.00 Z
           M 109.00,60.00
           C 103.84,59.73 102.80,59.96 101.00,65.00
             105.87,64.60 106.52,64.24 109.00,60.00 Z
           M 147.00,62.00
           C 147.00,62.00 127.00,61.00 127.00,61.00
             115.31,60.94 112.87,57.14 109.00,65.00
             109.00,65.00 118.00,64.04 118.00,64.04
             118.00,64.04 132.00,64.04 132.00,64.04
             137.26,64.00 142.32,64.72 147.00,62.00 Z
           M 268.00,65.00
           C 267.57,63.15 267.51,61.54 265.57,60.64
             263.29,59.43 258.50,60.42 256.00,60.64
             249.89,61.44 241.00,59.32 236.00,63.00
             236.00,63.00 255.00,64.00 255.00,64.00
             255.00,64.00 268.00,65.00 268.00,65.00 Z
           M 271.00,60.00
           C 270.67,63.14 271.40,63.45 274.00,65.00
             274.00,65.00 271.00,60.00 271.00,60.00 Z
           M 177.00,62.00
           C 177.00,62.00 156.00,63.00 156.00,63.00
             156.00,63.00 177.00,62.00 177.00,62.00 Z
           M 212.00,62.00
           C 212.00,62.00 200.00,63.00 200.00,63.00
             200.00,63.00 212.00,62.00 212.00,62.00 Z
           M 233.00,62.00
           C 233.00,62.00 216.00,63.00 216.00,63.00
             216.00,63.00 233.00,62.00 233.00,62.00 Z
           M 309.00,64.00
           C 309.00,64.00 308.00,64.00 308.00,64.00
             308.00,64.00 309.00,65.00 309.00,65.00
             309.00,65.00 309.00,64.00 309.00,64.00 Z
           M 325.00,63.00
           C 325.00,63.00 331.00,69.00 331.00,69.00
             331.00,69.00 325.00,63.00 325.00,63.00 Z
           M 146.00,65.00
           C 146.00,65.00 137.00,65.98 137.00,65.98
             137.00,65.98 118.00,65.98 118.00,65.98
             115.17,66.04 109.93,66.21 107.63,67.95
             104.54,70.31 100.73,80.13 100.00,84.00
             100.00,84.00 113.00,84.00 113.00,84.00
             113.00,84.00 135.00,85.00 135.00,85.00
             136.70,84.96 139.01,85.04 140.44,83.98
             142.88,82.18 145.70,68.37 146.00,65.00 Z
           M 151.00,65.00
           C 147.25,69.39 145.49,79.22 145.00,85.00
             145.00,85.00 148.00,85.00 148.00,85.00
             148.00,85.00 151.00,65.00 151.00,65.00 Z
           M 190.00,65.00
           C 190.00,65.00 155.00,65.00 155.00,65.00
             155.00,65.00 152.00,85.00 152.00,85.00
             152.00,85.00 165.00,86.00 165.00,86.00
             165.00,86.00 183.00,86.00 183.00,86.00
             188.47,85.96 190.72,86.20 190.98,80.00
             190.98,80.00 190.00,65.00 190.00,65.00 Z
           M 215.00,85.00
           C 214.12,81.37 213.45,68.44 211.98,66.60
             209.69,63.73 196.39,65.04 193.00,66.00
             193.00,66.00 194.00,86.00 194.00,86.00
             194.00,86.00 215.00,85.00 215.00,85.00 Z
           M 240.00,85.00
           C 238.93,81.32 236.01,67.91 233.44,66.02
             231.24,64.41 220.23,65.00 217.00,65.00
             217.00,65.00 219.00,85.00 219.00,85.00
             219.00,85.00 240.00,85.00 240.00,85.00 Z
           M 310.00,65.00
           C 310.00,65.00 309.00,65.00 309.00,65.00
             309.00,65.00 310.00,66.00 310.00,66.00
             310.00,66.00 310.00,65.00 310.00,65.00 Z
           M 275.00,84.04
           C 274.65,80.11 272.37,70.42 269.30,67.95
             266.80,65.94 260.16,66.00 257.00,66.00
             257.00,66.00 237.00,66.00 237.00,66.00
             237.00,66.00 243.72,84.01 243.72,84.01
             243.72,84.01 251.00,84.99 251.00,84.99
             251.00,84.99 260.00,84.04 260.00,84.04
             260.00,84.04 275.00,84.04 275.00,84.04 Z
           M 96.00,67.00
           C 96.00,67.00 71.52,69.99 71.52,69.99
             71.52,69.99 64.00,81.00 64.00,81.00
             64.00,81.00 81.00,82.09 81.00,82.09
             83.48,82.40 87.19,83.52 89.35,82.09
             91.90,80.23 95.25,70.20 96.00,67.00 Z
           M 105.00,67.00
           C 103.35,67.14 101.87,67.07 100.39,68.02
             97.56,69.85 94.38,79.55 93.00,83.00
             93.00,83.00 96.59,81.98 96.59,81.98
             96.59,81.98 105.00,67.00 105.00,67.00 Z
           M 274.00,67.00
           C 273.78,70.15 277.18,80.10 279.69,82.01
             280.84,82.88 281.73,82.78 283.00,83.00
             281.62,78.17 278.24,69.72 274.00,67.00 Z
           M 317.00,80.00
           C 317.00,80.00 309.70,70.02 309.70,70.02
             309.70,70.02 301.00,68.83 301.00,68.83
             301.00,68.83 278.00,67.00 278.00,67.00
             278.00,67.00 286.63,82.09 286.63,82.09
             286.63,82.09 296.00,82.09 296.00,82.09
             296.00,82.09 317.00,80.00 317.00,80.00 Z
           M 69.00,69.00
           C 59.43,70.72 58.93,69.85 54.00,79.00
             63.11,81.58 65.91,77.07 69.00,69.00 Z
           M 337.00,76.00
           C 333.42,71.33 320.79,70.47 315.00,70.00
             315.00,70.00 317.63,74.98 317.63,74.98
             323.07,83.46 330.02,76.71 337.00,76.00 Z
           M 57.00,71.00
           C 50.32,71.15 46.80,71.01 43.00,77.00
             51.72,79.51 52.59,79.16 57.00,71.00 Z
           M 44.00,73.00
           C 44.00,73.00 39.00,74.00 39.00,74.00
             39.00,74.00 42.00,77.00 42.00,77.00
             42.00,77.00 44.00,73.00 44.00,73.00 Z
           M 51.00,81.00
           C 51.00,81.00 42.18,79.77 42.18,79.77
             42.18,79.77 37.00,85.00 37.00,85.00
             37.00,85.00 28.00,101.00 28.00,101.00
             28.00,101.00 40.61,98.60 40.61,98.60
             40.61,98.60 51.00,81.00 51.00,81.00 Z
           M 60.00,82.00
           C 60.00,82.00 53.00,81.00 53.00,81.00
             53.00,81.00 44.00,99.00 44.00,99.00
             46.29,98.81 48.74,98.67 50.82,97.57
             54.95,95.38 58.94,86.44 60.00,82.00 Z
           M 327.00,98.00
           C 325.94,94.29 321.70,84.99 318.47,82.96
             316.26,81.64 312.54,82.71 310.00,82.96
             310.00,82.96 288.00,85.00 288.00,85.00
             288.72,88.06 290.04,93.07 292.64,95.05
             295.58,97.29 303.32,96.98 307.00,97.00
             307.00,97.00 327.00,98.00 327.00,98.00 Z
           M 89.00,85.00
           C 89.00,85.00 71.00,83.17 71.00,83.17
             68.66,82.95 64.55,82.68 62.53,83.99
             59.42,86.01 56.02,94.42 55.00,98.00
             55.00,98.00 74.00,97.00 74.00,97.00
             74.00,97.00 84.49,95.02 84.49,95.02
             84.49,95.02 89.00,85.00 89.00,85.00 Z
           M 340.00,82.00
           C 340.00,82.00 343.00,82.00 343.00,82.00
             343.00,82.00 343.00,87.00 343.00,87.00
             343.00,87.00 340.00,82.00 340.00,82.00 Z
           M 96.00,85.00
           C 96.00,85.00 92.00,85.00 92.00,85.00
             92.00,85.00 89.00,96.00 89.00,96.00
             93.48,94.27 94.52,89.25 96.00,85.00 Z
           M 141.00,87.00
           C 141.00,87.00 109.00,86.05 109.00,86.05
             106.67,85.97 101.13,85.13 99.41,86.05
             96.70,87.66 95.52,93.15 95.00,96.00
             95.00,96.00 112.00,95.00 112.00,95.00
             112.00,95.00 133.00,95.00 133.00,95.00
             139.67,94.88 139.72,93.24 141.00,87.00 Z
           M 276.00,85.00
           C 276.00,85.00 258.00,86.00 258.00,86.00
             258.00,86.00 244.00,87.00 244.00,87.00
             244.00,87.00 246.51,93.98 246.51,93.98
             246.51,93.98 253.00,95.04 253.00,95.04
             253.00,95.04 268.00,95.04 268.00,95.04
             268.00,95.04 279.00,96.00 279.00,96.00
             279.00,96.00 276.00,85.00 276.00,85.00 Z
           M 289.00,96.00
           C 287.39,90.04 286.76,85.54 280.00,85.00
             280.00,85.00 283.00,96.00 283.00,96.00
             283.00,96.00 289.00,96.00 289.00,96.00 Z
           M 147.00,87.00
           C 147.00,87.00 144.00,87.00 144.00,87.00
             144.00,87.00 143.00,95.00 143.00,95.00
             147.58,93.40 146.94,91.47 147.00,87.00 Z
           M 191.00,88.00
           C 191.00,88.00 170.00,87.00 170.00,87.00
             170.00,87.00 152.00,87.00 152.00,87.00
             152.00,87.00 151.00,94.00 151.00,94.00
             151.00,94.00 191.00,94.00 191.00,94.00
             191.00,94.00 191.00,88.00 191.00,88.00 Z
           M 215.00,94.00
           C 214.94,92.31 215.09,90.00 213.98,88.60
             211.43,85.39 198.04,87.81 194.00,88.00
             194.00,88.00 194.00,94.00 194.00,94.00
             194.00,94.00 215.00,94.00 215.00,94.00 Z
           M 242.00,95.00
           C 241.67,92.75 241.43,89.50 239.44,88.01
             236.59,85.91 222.54,86.99 219.00,88.01
             219.00,88.01 220.00,94.00 220.00,94.00
             220.00,94.00 242.00,95.00 242.00,95.00 Z
           M 345.00,87.00
           C 345.00,87.00 345.00,90.00 345.00,90.00
             345.00,90.00 344.00,88.00 344.00,88.00
             344.00,88.00 345.00,87.00 345.00,87.00 Z
           M 139.00,97.00
           C 139.00,97.00 122.00,97.00 122.00,97.00
             122.00,97.00 106.00,98.00 106.00,98.00
             103.28,98.00 96.60,97.55 94.51,99.02
             91.89,100.86 90.48,107.92 90.00,111.00
             90.00,111.00 118.00,112.00 118.00,112.00
             118.00,112.00 136.00,113.00 136.00,113.00
             136.00,113.00 139.00,97.00 139.00,97.00 Z
           M 146.00,97.00
           C 146.00,97.00 142.00,97.00 142.00,97.00
             142.00,97.00 140.00,113.00 140.00,113.00
             140.00,113.00 143.98,111.40 143.98,111.40
             143.98,111.40 146.00,97.00 146.00,97.00 Z
           M 191.00,97.00
           C 191.00,97.00 163.00,97.00 163.00,97.00
             163.00,97.00 151.74,97.99 151.74,97.99
             151.74,97.99 149.00,113.00 149.00,113.00
             149.00,113.00 191.00,113.00 191.00,113.00
             191.00,113.00 191.00,97.00 191.00,97.00 Z
           M 216.00,97.00
           C 216.00,97.00 194.00,97.00 194.00,97.00
             194.00,97.00 195.00,113.00 195.00,113.00
             195.00,113.00 217.00,113.00 217.00,113.00
             217.00,113.00 216.00,97.00 216.00,97.00 Z
           M 243.00,97.00
           C 243.00,97.00 220.00,97.00 220.00,97.00
             220.00,97.00 222.17,111.43 222.17,111.43
             222.17,111.43 230.00,113.00 230.00,113.00
             230.00,113.00 245.00,113.00 245.00,113.00
             245.00,113.00 243.00,97.00 243.00,97.00 Z
           M 283.00,112.00
           C 282.74,108.83 281.91,100.96 279.30,98.99
             277.40,97.56 271.48,98.03 269.00,98.00
             269.00,98.00 259.00,97.04 259.00,97.04
             259.00,97.04 246.00,97.04 246.00,97.04
             246.00,97.04 250.00,113.00 250.00,113.00
             250.00,113.00 283.00,112.00 283.00,112.00 Z
           M 90.00,98.00
           C 86.28,101.91 85.73,105.81 85.00,111.00
             88.75,108.13 89.60,102.49 90.00,98.00 Z
           M 294.00,111.00
           C 292.85,103.54 292.36,98.29 284.00,98.00
             284.00,98.00 287.00,111.00 287.00,111.00
             287.00,111.00 294.00,111.00 294.00,111.00 Z
           M 84.00,99.00
           C 84.00,99.00 62.00,99.83 62.00,99.83
             62.00,99.83 53.65,100.99 53.65,100.99
             53.65,100.99 50.00,109.00 50.00,109.00
             50.00,109.00 58.00,110.11 58.00,110.11
             58.00,110.11 70.00,110.11 70.00,110.11
             70.00,110.11 80.28,110.11 80.28,110.11
             80.28,110.11 84.00,99.00 84.00,99.00 Z
           M 331.00,109.00
           C 330.56,106.23 330.14,102.88 327.58,101.17
             325.15,99.56 319.95,100.09 317.00,99.96
             317.00,99.96 309.00,99.04 309.00,99.04
             309.00,99.04 293.00,99.04 293.00,99.04
             293.00,99.04 297.00,111.00 297.00,111.00
             297.00,111.00 331.00,109.00 331.00,109.00 Z
           M 40.00,101.00
           C 40.00,101.00 26.00,104.00 26.00,104.00
             26.00,104.00 26.00,106.00 26.00,106.00
             34.02,108.02 38.48,109.98 40.00,101.00 Z
           M 51.00,101.00
           C 43.39,101.03 42.97,100.84 40.00,108.00
             47.61,109.27 47.97,107.95 51.00,101.00 Z
           M 353.00,106.00
           C 352.54,105.31 352.70,104.90 351.46,103.99
             348.96,102.16 334.63,101.03 331.00,101.00
             335.33,110.88 336.94,108.13 353.00,106.00 Z
           M 37.00,110.00
           C 37.00,110.00 24.00,108.00 24.00,108.00
             24.00,108.00 14.00,134.00 14.00,134.00
             17.63,134.00 26.52,134.37 29.28,132.05
             30.89,130.68 31.70,127.03 32.34,125.00
             32.34,125.00 37.00,110.00 37.00,110.00 Z
           M 365.00,135.00
           C 363.98,128.39 361.30,122.17 358.80,116.00
             357.78,113.48 356.60,109.68 353.79,108.69
             353.79,108.69 336.00,110.00 336.00,110.00
             336.00,110.00 340.65,125.00 340.65,125.00
             340.65,125.00 343.72,132.01 343.72,132.01
             343.72,132.01 350.00,133.28 350.00,133.28
             350.00,133.28 365.00,135.00 365.00,135.00 Z
           M 46.00,111.00
           C 46.00,111.00 39.00,110.00 39.00,110.00
             39.00,110.00 33.00,133.00 33.00,133.00
             33.00,133.00 38.30,132.01 38.30,132.01
             38.30,132.01 41.33,126.00 41.33,126.00
             41.33,126.00 46.00,111.00 46.00,111.00 Z
           M 80.00,113.00
           C 80.00,113.00 67.00,112.01 67.00,112.01
             67.00,112.01 58.00,112.01 58.00,112.01
             55.44,111.74 51.64,110.63 49.42,112.01
             46.30,114.00 42.60,128.09 42.00,132.00
             42.00,132.00 61.00,132.00 61.00,132.00
             61.00,132.00 77.00,131.00 77.00,131.00
             77.00,131.00 80.00,113.00 80.00,113.00 Z
           M 333.00,111.00
           C 333.00,111.00 298.00,113.00 298.00,113.00
             298.00,113.00 303.72,130.02 303.72,130.02
             303.72,130.02 315.00,132.00 315.00,132.00
             315.00,132.00 339.00,132.00 339.00,132.00
             339.00,132.00 333.00,111.00 333.00,111.00 Z
           M 85.00,113.00
           C 82.82,116.73 81.48,121.85 83.00,126.00
             83.00,126.00 85.00,113.00 85.00,113.00 Z
           M 136.00,115.00
           C 136.00,115.00 119.00,114.00 119.00,114.00
             119.00,114.00 89.00,113.00 89.00,113.00
             89.00,113.00 85.00,131.00 85.00,131.00
             85.00,131.00 104.00,131.00 104.00,131.00
             104.00,131.00 119.00,130.00 119.00,130.00
             119.00,130.00 134.00,130.00 134.00,130.00
             134.00,130.00 136.00,115.00 136.00,115.00 Z
           M 300.00,131.00
           C 295.11,114.12 297.68,113.13 288.00,113.00
             288.00,113.00 291.00,131.00 291.00,131.00
             291.00,131.00 300.00,131.00 300.00,131.00 Z
           M 284.00,114.00
           C 284.00,114.00 259.00,114.00 259.00,114.00
             256.73,114.00 252.55,113.63 251.03,115.60
             249.22,117.94 250.69,128.05 253.43,129.43
             254.96,130.20 259.93,129.97 262.00,130.17
             262.00,130.17 287.00,131.00 287.00,131.00
             287.00,131.00 284.00,114.00 284.00,114.00 Z
           M 144.00,115.00
           C 144.00,115.00 139.00,115.00 139.00,115.00
             139.00,115.00 138.00,130.00 138.00,130.00
             138.00,130.00 143.00,130.00 143.00,130.00
             143.00,130.00 144.00,115.00 144.00,115.00 Z
           M 191.00,115.00
           C 191.00,115.00 149.00,115.00 149.00,115.00
             149.00,115.00 148.00,130.00 148.00,130.00
             148.00,130.00 191.00,130.00 191.00,130.00
             191.00,130.00 191.00,115.00 191.00,115.00 Z
           M 217.00,115.00
           C 217.00,115.00 195.00,115.00 195.00,115.00
             195.00,115.00 195.00,130.00 195.00,130.00
             195.00,130.00 218.00,130.00 218.00,130.00
             218.00,130.00 217.00,115.00 217.00,115.00 Z
           M 246.00,115.00
           C 246.00,115.00 222.00,115.00 222.00,115.00
             222.00,115.00 223.00,130.00 223.00,130.00
             223.00,130.00 248.00,130.00 248.00,130.00
             248.00,130.00 246.00,115.00 246.00,115.00 Z
           M 15.00,116.00
           C 15.00,116.00 16.00,116.00 16.00,116.00
             16.00,116.00 15.00,117.00 15.00,117.00
             15.00,117.00 15.00,116.00 15.00,116.00 Z
           M 13.00,121.00
           C 13.00,121.00 14.00,121.00 14.00,121.00
             14.00,121.00 13.00,122.00 13.00,122.00
             13.00,122.00 13.00,121.00 13.00,121.00 Z
           M 12.00,124.00
           C 12.00,124.00 13.00,124.00 13.00,124.00
             13.00,124.00 12.00,125.00 12.00,125.00
             12.00,125.00 12.00,124.00 12.00,124.00 Z
           M 11.00,127.00
           C 11.00,127.00 12.00,127.00 12.00,127.00
             12.00,127.00 11.00,128.00 11.00,128.00
             11.00,128.00 11.00,127.00 11.00,127.00 Z
           M 10.00,130.00
           C 10.00,130.00 11.00,130.00 11.00,130.00
             11.00,130.00 10.00,131.00 10.00,131.00
             10.00,131.00 10.00,130.00 10.00,130.00 Z
           M 191.00,142.00
           C 191.00,139.55 191.48,134.67 189.40,133.02
             187.43,131.46 177.89,132.00 175.00,132.00
             175.00,132.00 163.00,132.96 163.00,132.96
             163.00,132.96 148.00,132.96 148.00,132.96
             148.00,132.96 147.00,142.00 147.00,142.00
             147.00,142.00 191.00,142.00 191.00,142.00 Z
           M 218.00,133.00
           C 218.00,133.00 202.00,132.00 202.00,132.00
             202.00,132.00 196.02,133.60 196.02,133.60
             196.02,133.60 195.00,142.00 195.00,142.00
             195.00,142.00 218.00,142.00 218.00,142.00
             218.00,142.00 218.00,133.00 218.00,133.00 Z
           M 133.00,133.00
           C 133.00,133.00 101.00,133.00 101.00,133.00
             97.94,133.00 88.56,132.63 86.25,133.74
             83.33,135.14 83.26,138.20 83.00,141.00
             83.00,141.00 100.00,142.00 100.00,142.00
             100.00,142.00 133.00,142.00 133.00,142.00
             133.00,142.00 133.00,133.00 133.00,133.00 Z
           M 143.00,133.00
           C 143.00,133.00 137.00,133.00 137.00,133.00
             137.00,133.00 137.00,142.00 137.00,142.00
             137.00,142.00 142.00,142.00 142.00,142.00
             142.00,142.00 143.00,133.00 143.00,133.00 Z
           M 249.00,142.00
           C 249.00,142.00 247.98,134.60 247.98,134.60
             247.98,134.60 240.00,133.00 240.00,133.00
             240.00,133.00 223.00,133.00 223.00,133.00
             223.00,133.00 223.00,142.00 223.00,142.00
             223.00,142.00 249.00,142.00 249.00,142.00 Z
           M 288.00,141.00
           C 288.00,141.00 286.40,134.02 286.40,134.02
             286.40,134.02 280.00,133.00 280.00,133.00
             280.00,133.00 252.00,133.00 252.00,133.00
             252.00,133.00 253.00,142.00 253.00,142.00
             253.00,142.00 288.00,141.00 288.00,141.00 Z
           M 76.00,134.00
           C 76.00,134.00 50.00,134.72 50.00,134.72
             44.43,135.38 41.13,133.56 40.00,140.00
             40.00,140.00 75.00,141.00 75.00,141.00
             75.00,141.00 76.00,134.00 76.00,134.00 Z
           M 302.00,141.00
           C 299.99,133.85 299.86,134.03 292.00,134.00
             292.47,141.88 294.61,140.99 302.00,141.00 Z
           M 340.00,140.00
           C 338.81,133.26 334.59,135.29 329.00,134.91
             329.00,134.91 304.00,134.00 304.00,134.00
             304.00,134.00 305.00,141.00 305.00,141.00
             305.00,141.00 340.00,140.00 340.00,140.00 Z
           M 38.00,135.00
           C 33.83,135.15 32.48,134.79 31.00,139.00
             31.00,139.00 37.00,140.00 37.00,140.00
             37.00,140.00 38.00,135.00 38.00,135.00 Z
           M 364.00,137.00
           C 364.00,137.00 344.00,135.00 344.00,135.00
             344.43,136.23 344.38,137.05 345.59,137.98
             348.58,140.26 360.57,138.40 364.00,137.00 Z
           M 29.00,136.00
           C 23.40,136.00 18.13,135.39 13.00,138.00
             13.00,138.00 29.00,139.00 29.00,139.00
             29.00,139.00 29.00,136.00 29.00,136.00 Z
           M 28.00,141.00
           C 28.00,141.00 12.00,140.00 12.00,140.00
             12.00,140.00 7.00,170.00 7.00,170.00
             7.00,170.00 22.40,168.98 22.40,168.98
             22.40,168.98 24.73,161.00 24.73,161.00
             24.73,161.00 28.00,141.00 28.00,141.00 Z
           M 367.00,140.00
           C 367.00,140.00 346.00,141.00 346.00,141.00
             346.00,141.00 350.00,169.00 350.00,169.00
             350.00,169.00 372.00,170.00 372.00,170.00
             372.00,170.00 367.00,140.00 367.00,140.00 Z
           M 37.00,142.00
           C 37.00,142.00 30.00,142.00 30.00,142.00
             30.00,142.00 26.00,169.00 26.00,169.00
             26.00,169.00 31.98,167.40 31.98,167.40
             31.98,167.40 33.43,160.00 33.43,160.00
             33.43,160.00 37.00,142.00 37.00,142.00 Z
           M 74.00,143.00
           C 74.00,143.00 39.00,142.00 39.00,142.00
             39.00,142.00 35.00,169.00 35.00,169.00
             35.00,169.00 72.00,169.00 72.00,169.00
             72.00,169.00 74.00,143.00 74.00,143.00 Z
           M 341.00,142.00
           C 341.00,142.00 306.00,143.00 306.00,143.00
             306.00,143.00 307.91,161.00 307.91,161.00
             307.91,161.00 309.60,167.98 309.60,167.98
             309.60,167.98 317.00,169.00 317.00,169.00
             317.00,169.00 345.00,169.00 345.00,169.00
             345.00,169.00 341.00,142.00 341.00,142.00 Z
           M 132.00,144.00
           C 132.00,144.00 94.00,144.00 94.00,144.00
             91.14,143.96 84.82,142.56 82.98,144.61
             81.65,146.10 81.27,150.04 81.05,152.00
             80.14,159.98 80.00,160.86 80.00,169.00
             80.00,169.00 112.00,169.00 112.00,169.00
             112.00,169.00 131.00,168.00 131.00,168.00
             131.00,168.00 132.00,144.00 132.00,144.00 Z
           M 305.00,169.00
           C 305.00,163.65 304.97,163.29 304.28,158.00
             304.28,158.00 303.42,151.00 303.42,151.00
             302.79,146.71 302.84,142.40 297.04,143.16
             295.91,143.31 294.79,143.60 293.98,144.60
             293.18,145.97 293.70,148.44 293.98,150.00
             294.12,153.12 294.68,166.46 296.60,167.98
             298.27,169.30 302.86,169.00 305.00,169.00 Z
           M 142.00,144.00
           C 142.00,144.00 137.02,145.60 137.02,145.60
             137.02,145.60 135.91,152.00 135.91,152.00
             135.91,152.00 135.00,168.00 135.00,168.00
             135.00,168.00 141.00,168.00 141.00,168.00
             141.00,168.00 142.00,144.00 142.00,144.00 Z
           M 191.00,145.00
           C 191.00,145.00 156.00,144.00 156.00,144.00
             156.00,144.00 148.02,145.60 148.02,145.60
             148.02,145.60 146.96,153.00 146.96,153.00
             146.96,153.00 146.00,168.00 146.00,168.00
             146.00,168.00 191.00,168.00 191.00,168.00
             191.00,168.00 191.00,145.00 191.00,145.00 Z
           M 218.00,144.04
           C 218.00,144.04 206.00,144.04 206.00,144.04
             206.00,144.04 195.00,145.00 195.00,145.00
             195.00,145.00 195.00,168.00 195.00,168.00
             195.00,168.00 218.96,168.00 218.96,168.00
             218.96,168.00 218.96,154.00 218.96,154.00
             218.96,154.00 218.00,144.04 218.00,144.04 Z
           M 251.00,168.00
           C 251.00,168.00 250.04,152.00 250.04,152.00
             250.04,152.00 248.40,145.02 248.40,145.02
             248.40,145.02 241.00,144.00 241.00,144.00
             241.00,144.00 224.00,144.00 224.00,144.00
             224.00,144.00 224.00,168.00 224.00,168.00
             224.00,168.00 251.00,168.00 251.00,168.00 Z
           M 289.00,144.00
           C 289.00,144.00 253.00,145.00 253.00,145.00
             253.00,145.00 254.83,161.00 254.83,161.00
             255.01,162.78 254.85,165.85 255.99,167.26
             257.70,169.38 262.50,169.00 265.00,169.00
             265.00,169.00 291.00,169.00 291.00,169.00
             291.00,169.00 289.00,144.00 289.00,144.00 Z
           M 5.00,148.00
           C 5.00,148.00 6.00,148.00 6.00,148.00
             6.00,148.00 5.00,149.00 5.00,149.00
             5.00,149.00 5.00,148.00 5.00,148.00 Z
           M 5.00,150.00
           C 5.00,150.00 6.00,150.00 6.00,150.00
             6.00,150.00 5.00,151.00 5.00,151.00
             5.00,151.00 5.00,150.00 5.00,150.00 Z
           M 4.00,153.00
           C 4.00,153.00 5.00,153.00 5.00,153.00
             5.00,153.00 4.00,154.00 4.00,154.00
             4.00,154.00 4.00,153.00 4.00,153.00 Z
           M 4.00,155.00
           C 4.00,155.00 5.00,155.00 5.00,155.00
             5.00,155.00 4.00,156.00 4.00,156.00
             4.00,156.00 4.00,155.00 4.00,155.00 Z
           M 3.00,159.00
           C 3.00,159.00 4.00,159.00 4.00,159.00
             4.00,159.00 3.00,160.00 3.00,160.00
             3.00,160.00 3.00,159.00 3.00,159.00 Z
           M 3.00,162.00
           C 3.00,162.00 4.00,162.00 4.00,162.00
             4.00,162.00 3.00,163.00 3.00,163.00
             3.00,163.00 3.00,162.00 3.00,162.00 Z
           M 71.00,171.00
           C 71.00,171.00 70.00,171.00 70.00,171.00
             70.00,171.00 71.00,172.00 71.00,172.00
             71.00,172.00 71.00,171.00 71.00,171.00 Z
           M 131.00,171.00
           C 131.00,171.00 97.00,171.00 97.00,171.00
             97.00,171.00 80.00,172.00 80.00,172.00
             80.00,172.00 116.00,173.00 116.00,173.00
             120.95,173.00 126.85,174.05 131.00,171.00 Z
           M 141.00,171.00
           C 141.00,171.00 135.00,171.00 135.00,171.00
             135.00,171.00 135.00,173.00 135.00,173.00
             135.00,173.00 141.00,173.00 141.00,173.00
             141.00,173.00 141.00,171.00 141.00,171.00 Z
           M 191.00,171.00
           C 191.00,171.00 161.00,171.00 161.00,171.00
             161.00,171.00 146.00,172.00 146.00,172.00
             146.00,172.00 163.00,173.00 163.00,173.00
             163.00,173.00 191.00,173.00 191.00,173.00
             191.00,173.00 191.00,171.00 191.00,171.00 Z
           M 219.00,171.00
           C 219.00,171.00 195.00,172.00 195.00,172.00
             195.00,172.00 219.00,173.00 219.00,173.00
             219.00,173.00 219.00,171.00 219.00,171.00 Z
           M 251.00,171.00
           C 251.00,171.00 224.00,172.00 224.00,172.00
             224.00,172.00 251.00,173.00 251.00,173.00
             251.00,173.00 251.00,171.00 251.00,171.00 Z
           M 291.00,171.00
           C 291.00,171.00 268.00,171.00 268.00,171.00
             268.00,171.00 255.00,172.00 255.00,172.00
             261.28,173.78 285.06,173.36 291.00,171.00 Z
           M 305.00,171.00
           C 305.00,171.00 296.00,172.00 296.00,172.00
             296.00,172.00 305.00,171.00 305.00,171.00 Z
           M 8.00,173.00
           C 4.03,181.62 6.57,195.67 7.00,205.00
             7.00,205.00 23.00,205.00 23.00,205.00
             23.00,205.00 23.00,174.00 23.00,174.00
             23.00,174.00 8.00,173.00 8.00,173.00 Z
           M 350.00,174.01
           C 350.00,174.01 351.06,192.00 351.06,192.00
             351.06,192.00 351.06,203.40 351.06,203.40
             351.06,203.40 359.00,205.00 359.00,205.00
             359.00,205.00 371.40,203.98 371.40,203.98
             371.40,203.98 373.00,196.00 373.00,196.00
             373.00,196.00 373.00,180.00 373.00,180.00
             373.00,180.00 371.40,174.01 371.40,174.01
             371.40,174.01 365.00,174.01 365.00,174.01
             365.00,174.01 350.00,174.01 350.00,174.01 Z
           M 31.84,174.00
           C 31.84,174.00 26.00,174.00 26.00,174.00
             26.00,184.17 24.16,195.01 27.00,205.00
             27.00,205.00 31.84,204.00 31.84,204.00
             31.84,204.00 31.84,187.00 31.84,187.00
             31.84,187.00 31.84,174.00 31.84,174.00 Z
           M 71.76,204.00
           C 71.76,204.00 71.76,187.00 71.76,187.00
             71.69,184.18 72.80,177.91 70.98,175.60
             69.63,173.90 66.95,174.04 65.00,174.00
             65.00,174.00 42.00,174.00 42.00,174.00
             40.18,174.01 37.08,173.85 35.60,175.02
             33.62,176.59 34.00,180.70 34.00,183.00
             33.99,186.67 33.06,200.97 35.60,202.98
             37.19,204.23 41.01,204.00 43.00,204.00
             43.00,204.00 71.76,204.00 71.76,204.00 Z
           M 296.00,204.00
           C 298.14,204.00 302.73,204.30 304.40,202.98
             306.94,200.97 306.01,186.67 306.00,183.00
             306.00,180.86 306.38,176.46 304.40,175.06
             302.96,174.12 297.96,174.91 296.00,175.06
             296.00,175.06 296.00,204.00 296.00,204.00 Z
           M 345.00,174.00
           C 345.00,174.00 317.00,174.00 317.00,174.00
             317.00,174.00 310.02,175.60 310.02,175.60
             310.02,175.60 309.00,181.00 309.00,181.00
             309.00,181.00 309.00,204.00 309.00,204.00
             309.00,204.00 345.00,204.00 345.00,204.00
             345.00,204.00 345.00,174.00 345.00,174.00 Z
           M 131.00,175.00
           C 131.00,175.00 79.00,175.00 79.00,175.00
             79.00,175.00 79.00,204.00 79.00,204.00
             79.00,204.00 123.00,204.00 123.00,204.00
             130.33,203.95 130.95,203.33 131.00,196.00
             131.00,196.00 131.00,175.00 131.00,175.00 Z
           M 141.00,175.00
           C 141.00,175.00 135.00,175.00 135.00,175.00
             135.00,175.00 135.00,204.00 135.00,204.00
             135.00,204.00 139.98,202.40 139.98,202.40
             139.98,202.40 141.00,196.00 141.00,196.00
             141.00,196.00 141.00,175.00 141.00,175.00 Z
           M 191.00,175.00
           C 191.00,175.00 146.00,175.00 146.00,175.00
             146.00,175.00 146.00,196.00 146.00,196.00
             146.00,196.00 147.60,202.98 147.60,202.98
             147.60,202.98 155.00,204.00 155.00,204.00
             155.00,204.00 170.00,204.00 170.00,204.00
             170.00,204.00 191.00,203.00 191.00,203.00
             191.00,203.00 191.00,175.00 191.00,175.00 Z
           M 219.00,175.00
           C 219.00,175.00 195.00,175.00 195.00,175.00
             195.00,175.00 195.00,203.00 195.00,203.00
             195.00,203.00 212.00,204.00 212.00,204.00
             212.00,204.00 217.40,202.98 217.40,202.98
             217.40,202.98 219.00,195.00 219.00,195.00
             219.00,195.00 219.00,175.00 219.00,175.00 Z
           M 251.00,175.00
           C 251.00,175.00 224.00,175.00 224.00,175.00
             224.00,175.00 224.00,197.00 224.00,197.00
             224.00,197.00 225.60,202.98 225.60,202.98
             225.60,202.98 233.00,204.00 233.00,204.00
             233.00,204.00 251.00,204.00 251.00,204.00
             251.00,204.00 251.96,187.00 251.96,187.00
             251.96,187.00 251.00,175.00 251.00,175.00 Z
           M 291.00,175.00
           C 291.00,175.00 255.00,175.00 255.00,175.00
             255.00,175.00 255.00,197.00 255.00,197.00
             255.00,197.00 256.60,202.98 256.60,202.98
             256.60,202.98 263.00,204.00 263.00,204.00
             263.00,204.00 291.00,204.00 291.00,204.00
             291.00,204.00 291.96,187.00 291.96,187.00
             291.96,187.00 291.00,175.00 291.00,175.00 Z
           M 72.00,206.00
           C 72.00,206.00 53.00,207.00 53.00,207.00
             53.00,207.00 72.00,206.00 72.00,206.00 Z
           M 131.00,206.00
           C 131.00,206.00 97.00,206.00 97.00,206.00
             97.00,206.00 80.00,207.00 80.00,207.00
             80.00,207.00 116.00,208.00 116.00,208.00
             120.95,208.00 126.85,209.05 131.00,206.00 Z
           M 141.00,206.00
           C 141.00,206.00 135.00,206.00 135.00,206.00
             135.00,206.00 135.00,208.00 135.00,208.00
             135.00,208.00 141.00,208.00 141.00,208.00
             141.00,208.00 141.00,206.00 141.00,206.00 Z
           M 191.00,206.00
           C 191.00,206.00 161.00,206.00 161.00,206.00
             161.00,206.00 146.00,207.00 146.00,207.00
             146.00,207.00 163.00,208.00 163.00,208.00
             163.00,208.00 191.00,208.00 191.00,208.00
             191.00,208.00 191.00,206.00 191.00,206.00 Z
           M 219.00,206.00
           C 219.00,206.00 195.00,207.00 195.00,207.00
             200.27,208.50 214.63,209.22 219.00,206.00 Z
           M 251.00,206.00
           C 251.00,206.00 224.00,207.00 224.00,207.00
             224.00,207.00 251.00,208.00 251.00,208.00
             251.00,208.00 251.00,206.00 251.00,206.00 Z
           M 291.00,206.00
           C 291.00,206.00 268.00,206.00 268.00,206.00
             268.00,206.00 255.00,207.08 255.00,207.08
             262.40,209.10 273.32,207.90 281.00,207.08
             284.75,206.81 287.37,207.44 291.00,206.00 Z
           M 305.00,206.00
           C 305.00,206.00 296.00,207.00 296.00,207.00
             296.00,207.00 305.00,206.00 305.00,206.00 Z
           M 324.00,206.00
           C 324.00,206.00 309.00,207.00 309.00,207.00
             309.00,207.00 324.00,206.00 324.00,206.00 Z
           M 24.00,209.00
           C 24.00,209.00 7.00,209.00 7.00,209.00
             7.00,209.00 10.65,230.00 10.65,230.00
             11.23,232.49 11.75,236.19 14.30,237.20
             17.16,238.76 24.64,237.27 28.00,237.20
             28.00,237.20 24.00,209.00 24.00,209.00 Z
           M 37.00,237.00
           C 37.00,237.00 33.75,219.00 33.75,219.00
             33.75,219.00 31.98,210.60 31.98,210.60
             31.98,210.60 27.00,209.00 27.00,209.00
             27.00,209.00 29.00,229.00 29.00,229.00
             29.00,229.00 31.58,235.98 31.58,235.98
             31.58,235.98 37.00,237.00 37.00,237.00 Z
           M 72.00,210.00
           C 72.00,210.00 48.00,210.00 48.00,210.00
             45.13,209.96 37.73,208.34 36.03,210.60
             34.87,212.22 35.74,216.08 36.03,218.00
             36.03,218.00 39.00,236.00 39.00,236.00
             39.00,236.00 58.00,236.00 58.00,236.00
             58.00,236.00 75.00,235.00 75.00,235.00
             75.00,235.00 72.00,210.00 72.00,210.00 Z
           M 344.00,209.00
           C 344.00,209.00 329.00,210.00 329.00,210.00
             329.00,210.00 308.00,210.00 308.00,210.00
             308.00,210.00 305.00,235.00 305.00,235.00
             305.00,235.00 315.00,235.93 315.00,235.93
             315.00,235.93 330.00,235.93 330.00,235.93
             330.00,235.93 339.44,235.93 339.44,235.93
             339.44,235.93 342.08,229.00 342.08,229.00
             342.08,229.00 344.00,209.00 344.00,209.00 Z
           M 372.00,209.00
           C 372.00,209.00 350.00,209.00 350.00,209.00
             350.00,209.00 345.00,237.00 345.00,237.00
             345.00,237.00 366.00,239.00 366.00,239.00
             368.71,231.63 371.64,216.84 372.00,209.00 Z
           M 131.00,210.00
           C 131.00,210.00 80.00,210.00 80.00,210.00
             80.00,214.18 80.69,230.61 83.01,233.40
             85.08,235.90 96.55,235.02 100.00,235.00
             100.00,235.00 114.00,234.00 114.00,234.00
             114.00,234.00 132.00,234.00 132.00,234.00
             132.00,234.00 131.00,210.00 131.00,210.00 Z
           M 141.00,210.00
           C 141.00,210.00 135.00,210.00 135.00,210.00
             135.00,210.00 136.00,234.00 136.00,234.00
             136.00,234.00 142.00,234.00 142.00,234.00
             142.00,234.00 141.00,210.00 141.00,210.00 Z
           M 191.00,234.00
           C 191.00,234.00 191.00,217.00 191.00,217.00
             190.97,215.38 191.04,212.94 189.98,211.60
             188.63,209.90 185.95,210.04 184.00,210.00
             184.00,210.00 159.00,210.00 159.00,210.00
             156.73,210.00 150.06,209.74 148.31,210.60
             145.86,211.80 145.99,214.66 146.17,217.00
             146.17,217.00 147.00,234.00 147.00,234.00
             147.00,234.00 191.00,234.00 191.00,234.00 Z
           M 218.00,234.00
           C 218.00,234.00 219.00,217.00 219.00,217.00
             218.85,208.84 216.83,209.91 203.00,210.00
             201.18,210.01 198.08,209.85 196.60,211.02
             194.62,212.59 195.00,216.70 195.00,219.00
             195.00,219.00 195.00,234.00 195.00,234.00
             195.00,234.00 218.00,234.00 218.00,234.00 Z
           M 251.00,210.00
           C 251.00,210.00 231.00,210.00 231.00,210.00
             231.00,210.00 225.02,211.60 225.02,211.60
             225.02,211.60 224.00,219.00 224.00,219.00
             224.00,219.00 223.00,233.00 223.00,233.00
             223.00,233.00 243.00,234.00 243.00,234.00
             243.00,234.00 248.98,232.40 248.98,232.40
             248.98,232.40 250.04,225.00 250.04,225.00
             250.04,225.00 251.00,210.00 251.00,210.00 Z
           M 291.00,210.00
           C 291.00,210.00 255.00,210.00 255.00,210.00
             255.00,210.00 253.00,234.00 253.00,234.00
             253.00,234.00 289.00,235.00 289.00,235.00
             289.00,235.00 291.00,210.00 291.00,210.00 Z
           M 305.00,210.00
           C 305.00,210.00 295.00,210.00 295.00,210.00
             295.00,210.00 293.00,235.00 293.00,235.00
             293.00,235.00 302.00,235.00 302.00,235.00
             302.00,235.00 305.00,210.00 305.00,210.00 Z
           M 3.00,214.00
           C 3.00,214.00 4.00,214.00 4.00,214.00
             4.00,214.00 3.00,215.00 3.00,215.00
             3.00,215.00 3.00,214.00 3.00,214.00 Z
           M 3.00,217.00
           C 3.00,217.00 4.00,217.00 4.00,217.00
             4.00,217.00 3.00,218.00 3.00,218.00
             3.00,218.00 3.00,217.00 3.00,217.00 Z
           M 4.00,221.00
           C 4.00,221.00 5.00,221.00 5.00,221.00
             5.00,221.00 4.00,222.00 4.00,222.00
             4.00,222.00 4.00,221.00 4.00,221.00 Z
           M 4.00,223.00
           C 4.00,223.00 5.00,223.00 5.00,223.00
             5.00,223.00 4.00,224.00 4.00,224.00
             4.00,224.00 4.00,223.00 4.00,223.00 Z
           M 5.00,226.00
           C 5.00,226.00 6.00,226.00 6.00,226.00
             6.00,226.00 5.00,227.00 5.00,227.00
             5.00,227.00 5.00,226.00 5.00,226.00 Z
           M 5.00,228.00
           C 5.00,228.00 6.00,228.00 6.00,228.00
             6.00,228.00 5.00,229.00 5.00,229.00
             5.00,229.00 5.00,228.00 5.00,228.00 Z
           M 134.00,245.00
           C 134.00,245.00 131.40,237.02 131.40,237.02
             131.40,237.02 117.00,236.00 117.00,236.00
             117.00,236.00 104.00,237.00 104.00,237.00
             104.00,237.00 83.00,237.00 83.00,237.00
             83.00,237.00 84.00,245.00 84.00,245.00
             95.42,245.00 125.10,247.53 134.00,245.00 Z
           M 142.00,236.00
           C 142.00,236.00 137.00,236.00 137.00,236.00
             137.01,242.92 136.09,245.42 143.00,246.00
             143.00,246.00 142.00,236.00 142.00,236.00 Z
           M 191.00,236.00
           C 191.00,236.00 147.00,236.00 147.00,236.00
             147.00,236.00 148.00,246.00 148.00,246.00
             148.00,246.00 191.00,246.00 191.00,246.00
             191.00,246.00 191.00,236.00 191.00,236.00 Z
           M 218.00,236.00
           C 218.00,236.00 195.00,236.00 195.00,236.00
             195.00,236.00 195.00,246.00 195.00,246.00
             195.00,246.00 218.00,246.00 218.00,246.00
             218.00,246.00 218.00,236.00 218.00,236.00 Z
           M 249.00,236.00
           C 249.00,236.00 223.00,236.00 223.00,236.00
             223.00,236.00 223.00,246.00 223.00,246.00
             223.00,246.00 248.00,246.00 248.00,246.00
             248.00,246.00 249.00,236.00 249.00,236.00 Z
           M 288.00,237.00
           C 288.00,237.00 274.00,237.00 274.00,237.00
             274.00,237.00 253.00,236.00 253.00,236.00
             253.00,236.00 252.00,246.00 252.00,246.00
             252.00,246.00 278.00,245.17 278.00,245.17
             278.00,245.17 286.26,244.01 286.26,244.01
             286.26,244.01 288.00,237.00 288.00,237.00 Z
           M 75.00,237.00
           C 75.00,237.00 62.00,238.00 62.00,238.00
             62.00,238.00 40.00,239.00 40.00,239.00
             42.58,245.97 48.56,243.93 55.00,244.00
             55.00,244.00 65.00,244.96 65.00,244.96
             65.00,244.96 76.00,244.96 76.00,244.96
             76.00,244.96 75.00,237.00 75.00,237.00 Z
           M 301.00,237.00
           C 293.20,237.03 292.11,236.86 292.00,245.00
             299.61,244.97 300.79,245.12 301.00,237.00 Z
           M 340.00,239.00
           C 340.00,239.00 328.00,238.00 328.00,238.00
             328.00,238.00 305.00,237.00 305.00,237.00
             305.00,237.00 304.00,245.00 304.00,245.00
             304.00,245.00 320.00,244.02 320.00,244.02
             320.00,244.02 332.00,244.02 332.00,244.02
             336.91,243.90 338.23,243.77 340.00,239.00 Z
           M 29.00,239.00
           C 24.45,239.60 17.54,239.40 14.00,242.00
             14.00,242.00 29.00,243.00 29.00,243.00
             29.00,243.00 29.00,239.00 29.00,239.00 Z
           M 38.00,239.00
           C 38.00,239.00 31.00,239.00 31.00,239.00
             32.84,243.56 34.41,242.95 39.00,243.00
             39.00,243.00 38.00,239.00 38.00,239.00 Z
           M 364.00,241.00
           C 364.00,241.00 346.31,239.61 346.31,239.61
             346.31,239.61 344.00,243.00 344.00,243.00
             344.00,243.00 364.00,241.00 364.00,241.00 Z
           M 15.00,244.00
           C 15.79,249.08 20.74,264.02 23.96,267.83
             26.14,270.15 32.99,270.06 35.36,267.83
             37.74,265.90 34.99,260.50 34.19,258.00
             33.33,255.28 31.55,247.57 29.44,246.02
             28.22,245.13 17.48,244.33 15.00,244.00 Z
           M 365.00,244.00
           C 365.00,244.00 342.00,246.00 342.00,246.00
             342.00,246.00 335.00,268.00 335.00,268.00
             335.00,268.00 354.00,271.00 354.00,271.00
             354.00,271.00 365.00,244.00 365.00,244.00 Z
           M 40.00,246.00
           C 40.00,246.00 33.00,246.00 33.00,246.00
             33.65,250.22 37.17,264.75 40.50,266.99
             42.59,268.38 44.83,267.59 47.00,266.99
             47.00,266.99 40.00,246.00 40.00,246.00 Z
           M 81.00,265.00
           C 81.00,265.00 76.15,248.60 76.15,248.60
             76.15,248.60 70.00,247.00 70.00,247.00
             70.00,247.00 58.00,247.00 58.00,247.00
             58.00,247.00 42.00,246.00 42.00,246.00
             42.86,249.78 46.89,264.04 49.65,266.22
             52.00,267.69 57.27,266.78 60.00,266.22
             60.00,266.22 81.00,265.00 81.00,265.00 Z
           M 338.00,246.00
           C 338.00,246.00 317.00,247.00 317.00,247.00
             314.11,247.00 305.64,246.49 303.56,248.02
             301.28,249.71 298.65,261.79 298.00,265.00
             298.00,265.00 323.00,266.99 323.00,266.99
             325.25,267.04 329.66,267.27 331.49,265.98
             334.59,263.80 337.64,249.96 338.00,246.00 Z
           M 10.00,246.00
           C 10.00,246.00 11.00,246.00 11.00,246.00
             11.00,246.00 10.00,247.00 10.00,247.00
             10.00,247.00 10.00,246.00 10.00,246.00 Z
           M 299.00,247.00
           C 297.22,247.33 293.05,247.88 291.74,248.98
             289.61,250.77 288.25,261.94 288.00,265.00
             289.84,264.98 292.77,265.18 294.28,264.01
             296.72,262.11 298.72,250.31 299.00,247.00 Z
           M 89.00,265.00
           C 89.00,265.00 108.00,264.00 108.00,264.00
             108.00,264.00 127.00,264.00 127.00,264.00
             128.90,264.00 132.89,264.23 134.36,262.98
             136.63,261.05 134.73,250.72 132.44,249.02
             130.74,247.77 127.07,248.00 125.00,248.00
             125.00,248.00 85.00,248.00 85.00,248.00
             85.00,248.00 89.00,265.00 89.00,265.00 Z
           M 248.00,249.00
           C 248.00,249.00 223.00,249.00 223.00,249.00
             223.00,249.00 222.00,263.00 222.00,263.00
             222.00,263.00 239.00,263.96 239.00,263.96
             239.00,263.96 245.02,262.40 245.02,262.40
             245.02,262.40 248.00,249.00 248.00,249.00 Z
           M 287.00,248.00
           C 287.00,248.00 259.00,248.00 259.00,248.00
             259.00,248.00 252.02,249.60 252.02,249.60
             252.02,249.60 249.00,263.99 249.00,263.99
             249.00,263.99 269.00,263.99 269.00,263.99
             272.31,264.04 280.11,265.68 282.44,263.99
             284.88,262.19 286.38,251.30 287.00,248.00 Z
           M 143.00,249.00
           C 143.00,249.00 138.00,249.00 138.00,249.00
             138.00,249.00 140.00,264.00 140.00,264.00
             146.39,261.43 143.31,255.78 143.00,249.00 Z
           M 191.00,249.00
           C 191.00,249.00 148.00,249.00 148.00,249.00
             148.00,249.00 149.00,263.00 149.00,263.00
             149.00,263.00 191.00,263.00 191.00,263.00
             191.00,263.00 191.00,249.00 191.00,249.00 Z
           M 218.00,249.00
           C 218.00,249.00 195.00,249.00 195.00,249.00
             195.00,249.00 195.00,263.00 195.00,263.00
             195.00,263.00 217.00,263.00 217.00,263.00
             217.00,263.00 218.00,249.00 218.00,249.00 Z
           M 11.00,249.00
           C 11.00,249.00 12.00,249.00 12.00,249.00
             12.00,249.00 11.00,250.00 11.00,250.00
             11.00,250.00 11.00,249.00 11.00,249.00 Z
           M 83.00,251.00
           C 81.54,254.98 82.66,262.24 86.00,265.00
             86.00,265.00 83.00,251.00 83.00,251.00 Z
           M 12.00,252.00
           C 12.00,252.00 13.00,252.00 13.00,252.00
             13.00,252.00 12.00,253.00 12.00,253.00
             12.00,253.00 12.00,252.00 12.00,252.00 Z
           M 13.00,255.00
           C 13.00,255.00 14.00,255.00 14.00,255.00
             14.00,255.00 13.00,256.00 13.00,256.00
             13.00,256.00 13.00,255.00 13.00,255.00 Z
           M 15.00,260.00
           C 15.00,260.00 16.00,260.00 16.00,260.00
             16.00,260.00 15.00,261.00 15.00,261.00
             15.00,261.00 15.00,260.00 15.00,260.00 Z
           M 145.79,282.00
           C 145.79,282.00 145.79,275.00 145.79,275.00
             145.79,275.00 145.07,271.00 145.07,271.00
             144.91,269.62 144.38,264.24 141.58,266.17
             140.16,267.14 140.60,269.58 140.75,271.00
             141.24,275.84 140.95,280.24 145.79,282.00 Z
           M 191.00,265.00
           C 182.25,265.00 155.72,264.09 149.00,266.00
             149.00,266.00 151.00,282.00 151.00,282.00
             151.00,282.00 191.00,282.00 191.00,282.00
             191.00,282.00 191.00,265.00 191.00,265.00 Z
           M 217.00,266.00
           C 217.00,266.00 195.00,265.00 195.00,265.00
             195.00,265.00 194.00,282.00 194.00,282.00
             194.00,282.00 209.00,282.00 209.00,282.00
             209.00,282.00 214.98,280.40 214.98,280.40
             214.98,280.40 217.00,266.00 217.00,266.00 Z
           M 245.00,266.00
           C 245.00,266.00 228.00,265.00 228.00,265.00
             228.00,265.00 222.02,266.60 222.02,266.60
             222.02,266.60 220.00,282.00 220.00,282.00
             224.28,282.00 238.67,283.05 241.42,280.40
             243.64,278.26 244.74,269.21 245.00,266.00 Z
           M 138.00,282.00
           C 138.65,278.77 138.22,269.21 135.41,267.02
             133.47,265.52 125.69,266.00 123.00,266.00
             123.00,266.00 108.00,266.00 108.00,266.00
             108.00,266.00 90.00,267.00 90.00,267.00
             90.00,267.00 94.70,279.10 94.70,279.10
             94.70,279.10 104.00,281.00 104.00,281.00
             104.00,281.00 138.00,282.00 138.00,282.00 Z
           M 283.00,267.00
           C 283.00,267.00 273.00,266.04 273.00,266.04
             273.00,266.04 257.00,266.04 257.00,266.04
             255.03,266.00 251.31,265.74 249.73,266.99
             247.56,268.72 246.40,278.06 246.00,281.00
             246.00,281.00 272.00,281.00 272.00,281.00
             272.00,281.00 279.16,279.40 279.16,279.40
             279.16,279.40 283.00,267.00 283.00,267.00 Z
           M 85.00,280.00
           C 85.00,280.00 80.44,268.03 80.44,268.03
             80.44,268.03 70.00,268.03 70.00,268.03
             70.00,268.03 50.00,269.00 50.00,269.00
             50.96,271.74 51.95,275.28 54.39,277.07
             57.61,279.42 64.11,278.96 68.00,279.00
             68.00,279.00 85.00,280.00 85.00,280.00 Z
           M 86.00,267.00
           C 85.15,271.27 86.69,278.26 91.00,280.00
             91.00,280.00 86.00,267.00 86.00,267.00 Z
           M 294.00,267.00
           C 286.14,267.09 285.61,268.59 284.00,280.00
             285.42,279.95 287.28,280.06 288.58,279.43
             291.54,277.99 293.29,270.10 294.00,267.00 Z
           M 331.00,270.00
           C 331.00,270.00 297.00,267.00 297.00,267.00
             297.00,267.00 293.00,280.00 293.00,280.00
             293.00,280.00 319.00,278.58 319.00,278.58
             319.00,278.58 327.35,277.01 327.35,277.01
             327.35,277.01 331.00,270.00 331.00,270.00 Z
           M 51.00,278.00
           C 49.62,270.77 47.98,270.09 41.00,270.00
             42.68,277.00 43.93,277.82 51.00,278.00 Z
           M 353.00,273.00
           C 349.57,271.87 337.32,269.23 334.39,271.04
             331.98,272.52 331.48,275.47 331.00,278.00
             337.98,276.30 347.35,277.80 353.00,273.00 Z
           M 41.00,277.00
           C 38.42,268.51 33.37,271.03 26.00,272.00
             28.90,277.13 35.59,276.88 41.00,277.00 Z
           M 23.00,273.00
           C 23.00,273.00 22.00,274.00 22.00,274.00
             22.00,274.00 26.00,274.00 26.00,274.00
             26.00,274.00 23.00,273.00 23.00,273.00 Z
           M 51.00,298.16
           C 50.11,294.26 44.67,282.01 41.61,280.02
             39.33,278.53 31.87,278.06 29.00,278.00
             30.98,282.56 38.61,296.85 43.09,298.16
             44.85,298.89 48.95,298.16 51.00,298.16 Z
           M 61.00,296.17
           C 59.87,292.43 55.03,282.06 51.67,280.57
             50.07,279.86 46.81,280.01 45.00,280.00
             46.06,283.71 50.76,295.00 54.38,296.17
             55.91,296.91 59.29,296.22 61.00,296.17 Z
           M 326.00,280.00
           C 326.00,280.00 302.00,281.91 302.00,281.91
             302.00,281.91 292.39,283.02 292.39,283.02
             292.39,283.02 287.00,293.00 287.00,293.00
             287.00,293.00 308.00,295.07 308.00,295.07
             311.03,295.47 314.89,296.64 317.67,295.07
             321.43,292.72 325.20,284.22 326.00,280.00 Z
           M 89.00,294.00
           C 89.00,294.00 85.30,283.60 85.30,283.60
             85.30,283.60 76.00,281.96 76.00,281.96
             76.00,281.96 68.00,281.04 68.00,281.04
             68.00,281.04 56.00,281.04 56.00,281.04
             57.10,284.86 60.40,293.06 64.18,294.89
             65.95,295.62 69.95,295.11 72.00,294.89
             72.00,294.89 89.00,294.00 89.00,294.00 Z
           M 91.00,282.00
           C 89.47,286.65 91.24,291.38 96.00,293.00
             96.00,293.00 91.00,282.00 91.00,282.00 Z
           M 288.00,282.00
           C 281.45,283.44 280.95,286.89 280.00,293.00
             286.34,291.91 287.10,287.74 288.00,282.00 Z
           M 140.00,283.96
           C 140.00,283.96 127.00,283.96 127.00,283.96
             127.00,283.96 116.00,283.00 116.00,283.00
             116.00,283.00 95.00,283.00 95.00,283.00
             95.00,283.00 99.65,291.97 99.65,291.97
             99.65,291.97 114.00,291.97 114.00,291.97
             114.00,291.97 129.00,291.97 129.00,291.97
             129.00,291.97 141.00,291.00 141.00,291.00
             141.00,291.00 140.00,283.96 140.00,283.96 Z
           M 279.00,283.21
           C 279.00,283.21 254.00,283.21 254.00,283.21
             254.00,283.21 245.72,284.99 245.72,284.99
             245.72,284.99 243.00,291.00 243.00,291.00
             243.00,291.00 263.00,292.00 263.00,292.00
             263.00,292.00 275.30,292.00 275.30,292.00
             275.30,292.00 279.00,283.21 279.00,283.21 Z
           M 147.00,284.00
           C 147.00,284.00 143.00,284.00 143.00,284.00
             143.00,284.00 144.00,291.00 144.00,291.00
             144.00,291.00 148.00,291.00 148.00,291.00
             148.00,291.00 147.00,284.00 147.00,284.00 Z
           M 152.00,291.00
           C 152.00,291.00 184.00,291.00 184.00,291.00
             186.66,290.95 192.05,290.58 190.34,286.30
             189.38,283.87 186.14,284.04 184.00,284.00
             184.00,284.00 151.00,284.00 151.00,284.00
             151.00,284.00 152.00,291.00 152.00,291.00 Z
           M 215.00,284.00
           C 211.32,284.00 197.04,283.05 195.02,285.60
             193.91,287.00 194.06,289.31 194.00,291.00
             194.00,291.00 215.00,291.00 215.00,291.00
             215.00,291.00 215.00,284.00 215.00,284.00 Z
           M 242.00,284.00
           C 242.00,284.00 220.00,284.00 220.00,284.00
             220.00,284.00 219.00,291.00 219.00,291.00
             219.00,291.00 239.28,290.01 239.28,290.01
             239.28,290.01 242.00,284.00 242.00,284.00 Z
           M 345.00,287.00
           C 345.00,287.00 345.00,290.00 345.00,290.00
             345.00,290.00 344.00,288.00 344.00,288.00
             344.00,288.00 345.00,287.00 345.00,287.00 Z
           M 343.00,290.00
           C 343.00,290.00 343.00,295.00 343.00,295.00
             343.00,295.00 340.00,295.00 340.00,295.00
             340.00,295.00 343.00,290.00 343.00,290.00 Z
           M 189.99,313.00
           C 190.04,308.91 192.15,296.35 189.99,293.60
             188.44,291.65 184.27,291.96 182.00,292.01
             182.00,292.01 170.00,293.00 170.00,293.00
             170.00,293.00 152.00,293.00 152.00,293.00
             152.00,293.00 155.00,313.00 155.00,313.00
             155.00,313.00 189.99,313.00 189.99,313.00 Z
           M 214.00,292.92
           C 214.00,292.92 202.00,292.92 202.00,292.92
             202.00,292.92 195.60,292.92 195.60,292.92
             195.60,292.92 194.00,300.00 194.00,300.00
             194.00,300.00 193.00,313.00 193.00,313.00
             196.28,313.00 209.22,313.66 211.26,312.01
             213.87,309.90 214.00,296.58 214.00,292.92 Z
           M 142.00,293.04
           C 142.00,293.04 130.00,293.04 130.00,293.04
             130.00,293.04 119.00,294.00 119.00,294.00
             119.00,294.00 100.00,295.00 100.00,295.00
             101.62,298.75 105.94,309.05 109.21,310.98
             111.89,312.56 120.55,311.96 124.00,312.00
             124.00,312.00 134.00,312.96 134.00,312.96
             134.00,312.96 147.00,312.96 147.00,312.96
             147.00,312.96 142.00,293.04 142.00,293.04 Z
           M 148.00,293.00
           C 148.00,293.00 145.00,293.00 145.00,293.00
             145.77,298.45 147.65,308.82 151.00,313.00
             151.00,313.00 148.00,293.00 148.00,293.00 Z
           M 239.00,293.00
           C 239.00,293.00 219.00,293.00 219.00,293.00
             219.00,293.00 217.00,313.00 217.00,313.00
             219.78,313.00 230.72,313.35 232.57,312.43
             235.90,310.78 238.68,296.79 239.00,293.00 Z
           M 275.00,295.00
           C 267.25,293.12 260.64,294.56 253.00,293.93
             250.32,293.58 245.88,292.33 243.56,293.93
             241.21,295.73 237.51,309.68 237.00,313.00
             237.00,313.00 261.00,312.00 261.00,312.00
             263.10,312.00 266.61,312.25 268.35,311.01
             271.09,309.05 274.21,298.47 275.00,295.00 Z
           M 97.00,311.00
           C 97.00,311.00 89.59,296.04 89.59,296.04
             89.59,296.04 82.00,296.04 82.00,296.04
             82.00,296.04 65.00,297.00 65.00,297.00
             66.34,300.49 69.18,305.92 72.32,308.07
             75.33,310.12 92.60,310.99 97.00,311.00 Z
           M 105.00,311.00
           C 105.00,311.00 97.31,295.99 97.31,295.99
             97.31,295.99 94.00,295.00 94.00,295.00
             94.82,298.48 97.80,308.01 100.64,310.01
             102.01,310.97 103.44,310.88 105.00,311.00 Z
           M 283.00,295.00
           C 281.66,295.23 280.72,295.16 279.50,296.02
             276.83,297.89 273.78,307.68 273.00,311.00
             278.09,308.04 280.72,300.30 283.00,295.00 Z
           M 316.00,298.00
           C 316.00,298.00 295.00,296.01 295.00,296.01
             292.52,295.84 288.47,294.85 286.39,296.01
             283.53,297.72 278.96,307.69 278.00,311.00
             278.00,311.00 294.00,310.01 294.00,310.01
             297.28,309.92 306.19,309.47 308.83,307.98
             312.22,306.06 314.64,301.49 316.00,298.00 Z
           M 70.00,309.00
           C 66.20,301.21 64.26,296.78 55.00,299.00
             58.85,307.61 60.69,308.57 70.00,309.00 Z
           M 53.00,299.00
           C 53.00,299.00 44.00,301.00 44.00,301.00
             47.43,306.90 50.61,306.86 57.00,307.00
             57.00,307.00 53.00,299.00 53.00,299.00 Z
           M 335.00,302.00
           C 325.26,297.92 318.68,296.36 315.00,308.00
             321.74,307.69 330.26,307.22 335.00,302.00 Z
           M 45.00,305.00
           C 43.01,302.45 43.19,302.52 40.00,303.00
             40.00,303.00 45.00,305.00 45.00,305.00 Z
           M 336.00,303.00
           C 336.00,303.00 335.00,303.00 335.00,303.00
             335.00,303.00 336.00,304.00 336.00,304.00
             336.00,304.00 336.00,303.00 336.00,303.00 Z
           M 335.00,304.00
           C 335.00,304.00 334.00,304.00 334.00,304.00
             334.00,304.00 335.00,305.00 335.00,305.00
             335.00,305.00 335.00,304.00 335.00,304.00 Z
           M 58.00,307.00
           C 58.00,307.00 57.00,307.00 57.00,307.00
             57.00,307.00 58.00,308.00 58.00,308.00
             58.00,308.00 58.00,307.00 58.00,307.00 Z
           M 80.00,321.00
           C 74.30,312.50 72.30,310.47 62.00,310.00
             66.68,319.09 69.32,324.26 80.00,321.00 Z
           M 101.00,319.00
           C 101.00,319.00 97.61,314.02 97.61,314.02
             97.61,314.02 75.00,311.00 75.00,311.00
             81.05,325.18 89.00,319.55 101.00,319.00 Z
           M 307.00,311.00
           C 307.00,311.00 284.00,312.72 284.00,312.72
             284.00,312.72 276.22,314.02 276.22,314.02
             276.22,314.02 273.00,319.00 273.00,319.00
             273.00,319.00 296.00,320.84 296.00,320.84
             301.31,320.15 304.52,315.25 307.00,311.00 Z
           M 310.00,311.00
           C 310.00,311.00 309.00,311.00 309.00,311.00
             309.00,311.00 310.00,312.00 310.00,312.00
             310.00,312.00 310.00,311.00 310.00,311.00 Z
           M 309.00,312.00
           C 309.00,312.00 308.00,312.00 308.00,312.00
             308.00,312.00 309.00,313.00 309.00,313.00
             309.00,313.00 309.00,312.00 309.00,312.00 Z
           M 109.00,318.00
           C 107.37,313.61 106.57,313.38 102.00,313.00
             102.00,313.00 104.00,319.00 104.00,319.00
             104.00,319.00 109.00,318.00 109.00,318.00 Z
           M 273.00,313.00
           C 270.97,315.06 270.48,315.09 271.00,318.00
             271.00,318.00 273.00,313.00 273.00,313.00 Z
           M 148.00,315.00
           C 148.00,315.00 128.00,314.00 128.00,314.00
             128.00,314.00 110.00,314.00 110.00,314.00
             113.83,319.97 117.93,317.75 124.00,317.17
             131.94,316.41 140.46,318.22 148.00,315.00 Z
           M 268.00,314.00
           C 268.00,314.00 250.00,314.00 250.00,314.00
             250.00,314.00 236.00,315.00 236.00,315.00
             236.00,315.00 236.00,317.08 236.00,317.08
             236.00,317.08 253.00,317.08 253.00,317.08
             259.17,317.76 264.10,320.10 268.00,314.00 Z
           M 152.00,315.00
           C 152.00,315.00 151.00,315.00 151.00,315.00
             151.00,315.00 152.00,316.00 152.00,316.00
             152.00,316.00 152.00,315.00 152.00,315.00 Z
           M 217.00,315.00
           C 217.00,315.00 216.00,315.00 216.00,315.00
             216.00,315.00 217.00,316.00 217.00,316.00
             217.00,316.00 217.00,315.00 217.00,315.00 Z
           M 233.00,315.00
           C 233.00,315.00 219.00,316.00 219.00,316.00
             219.00,316.00 233.00,315.00 233.00,315.00 Z
           M 306.00,316.00
           C 306.00,316.00 300.00,322.00 300.00,322.00
             303.93,320.69 304.36,319.73 306.00,316.00 Z
           M 190.00,317.00
           C 190.00,317.00 172.00,317.00 172.00,317.00
             172.00,317.00 156.00,318.00 156.00,318.00
             156.88,321.33 159.31,334.60 160.93,336.40
             162.88,338.56 168.25,338.00 171.00,338.00
             171.00,338.00 190.00,337.00 190.00,337.00
             190.00,337.00 190.00,317.00 190.00,317.00 Z
           M 212.00,318.00
           C 212.00,318.00 193.00,317.00 193.00,317.00
             193.00,317.00 192.00,336.99 192.00,336.99
             195.61,337.17 204.71,339.04 207.42,336.99
             210.01,335.00 211.06,321.81 212.00,318.00 Z
           M 149.00,318.00
           C 149.00,318.00 114.00,320.00 114.00,320.00
             115.70,324.38 122.88,335.65 127.17,337.40
             128.94,338.12 132.05,338.00 134.00,338.00
             134.00,338.00 156.00,338.00 156.00,338.00
             156.00,338.00 149.00,318.00 149.00,318.00 Z
           M 232.00,318.00
           C 228.97,318.00 218.64,317.43 216.59,319.02
             214.39,320.74 212.45,334.67 212.00,338.00
             214.29,338.00 220.82,338.27 222.61,337.43
             226.24,335.73 230.63,322.09 232.00,318.00 Z
           M 265.00,320.00
           C 265.00,320.00 246.00,318.87 246.00,318.87
             246.00,318.87 235.41,318.87 235.41,318.87
             235.41,318.87 226.00,338.00 226.00,338.00
             226.00,338.00 247.00,338.00 247.00,338.00
             249.93,337.96 253.16,337.98 255.62,336.15
             258.92,333.69 263.28,324.00 265.00,320.00 Z
           M 321.00,318.00
           C 321.00,318.00 317.00,323.00 317.00,323.00
             317.00,323.00 321.00,318.00 321.00,318.00 Z
           M 123.00,337.00
           C 121.17,333.53 113.97,322.78 110.83,321.02
             108.96,319.98 107.05,320.07 105.00,320.00
             106.89,324.36 111.68,334.63 116.09,336.40
             117.89,337.12 121.03,336.99 123.00,337.00 Z
           M 296.00,323.00
           C 292.10,322.49 274.83,319.80 272.17,320.69
             268.58,321.89 260.63,333.38 259.00,337.00
             259.00,337.00 272.00,336.17 272.00,336.17
             283.13,335.09 290.50,334.64 296.00,323.00 Z
           M 112.00,337.00
           C 110.62,334.18 104.59,323.47 102.39,321.99
             99.02,319.72 87.84,321.87 84.00,323.00
             86.77,326.87 92.53,333.56 97.00,335.26
             97.00,335.26 112.00,337.00 112.00,337.00 Z
           M 94.00,335.00
           C 94.00,335.00 81.83,323.82 81.83,323.82
             81.83,323.82 73.00,323.82 73.00,323.82
             78.81,333.94 83.09,334.90 94.00,335.00 Z
           M 300.00,324.00
           C 294.13,325.72 290.47,330.16 287.00,335.00
             293.59,333.60 296.90,329.77 300.00,324.00 Z
           M 311.00,326.00
           C 302.19,324.24 301.61,323.04 294.00,334.00
             301.29,333.03 307.43,333.29 311.00,326.00 Z
           M 79.00,333.00
           C 75.48,328.10 73.39,324.96 67.00,326.00
             70.83,331.21 72.52,332.62 79.00,333.00 Z
           M 71.00,331.00
           C 71.00,331.00 70.00,331.00 70.00,331.00
             70.00,331.00 71.00,332.00 71.00,332.00
             71.00,332.00 71.00,331.00 71.00,331.00 Z
           M 84.00,335.00
           C 84.74,337.78 85.81,338.67 88.02,340.56
             94.38,345.98 95.68,344.03 103.00,343.00
             96.68,335.00 92.64,337.11 84.00,335.00 Z
           M 289.00,336.00
           C 283.14,336.68 280.84,338.65 277.00,343.00
             283.24,344.27 285.59,340.74 289.00,336.00 Z
           M 115.00,341.00
           C 111.13,337.18 104.29,337.43 99.00,337.00
             104.52,343.81 107.38,341.62 115.00,341.00 Z
           M 282.00,337.00
           C 276.64,337.02 261.30,337.81 257.00,340.00
             257.00,340.00 276.00,341.93 276.00,341.93
             276.00,341.93 282.00,337.00 282.00,337.00 Z
           M 124.00,339.00
           C 124.00,339.00 117.00,340.00 117.00,340.00
             117.00,340.00 124.00,339.00 124.00,339.00 Z
           M 126.00,339.00
           C 126.00,339.00 125.00,339.00 125.00,339.00
             125.00,339.00 126.00,340.00 126.00,340.00
             126.00,340.00 126.00,339.00 126.00,339.00 Z
           M 298.00,338.00
           C 298.00,338.00 299.00,338.00 299.00,338.00
             299.00,338.00 298.00,339.00 298.00,339.00
             298.00,339.00 298.00,338.00 298.00,338.00 Z
           M 163.00,356.23
           C 162.40,352.16 159.95,343.18 156.61,341.02
             154.82,339.87 152.06,340.01 150.00,340.00
             150.00,340.00 130.00,341.00 130.00,341.00
             133.09,345.51 141.79,355.12 147.00,356.23
             147.00,356.23 163.00,356.23 163.00,356.23 Z
           M 190.00,341.00
           C 190.00,341.00 174.00,341.00 174.00,341.00
             174.00,341.00 162.00,340.00 162.00,340.00
             162.35,343.92 163.99,351.88 167.39,354.23
             169.43,355.64 173.52,355.03 176.00,355.00
             176.00,355.00 190.00,355.00 190.00,355.00
             190.00,355.00 190.00,341.00 190.00,341.00 Z
           M 222.00,340.00
           C 219.91,340.00 215.02,339.79 213.28,340.60
             209.57,342.32 208.18,352.24 208.00,356.00
             209.78,355.86 211.18,355.91 212.82,354.98
             216.60,352.82 220.79,344.14 222.00,340.00 Z
           M 251.00,341.01
           C 245.39,340.98 229.35,338.60 225.21,341.01
             222.33,342.70 216.61,352.71 215.00,356.00
             215.00,356.00 232.00,356.77 232.00,356.77
             237.95,355.79 248.44,346.30 251.00,341.01 Z
           M 144.00,357.00
           C 141.59,353.90 130.21,342.68 127.00,341.82
             124.76,340.91 121.36,341.69 119.00,341.82
             121.81,346.42 128.08,354.59 133.00,356.40
             135.31,357.25 141.29,357.00 144.00,357.00 Z
           M 208.00,341.00
           C 208.00,341.00 192.00,341.00 192.00,341.00
             192.00,341.00 191.00,355.00 191.00,355.00
             191.00,355.00 205.00,355.00 205.00,355.00
             205.00,355.00 208.00,341.00 208.00,341.00 Z
           M 84.00,341.00
           C 84.00,341.00 85.00,341.00 85.00,341.00
             85.00,341.00 84.00,342.00 84.00,342.00
             84.00,342.00 84.00,341.00 84.00,341.00 Z
           M 273.00,345.00
           C 269.86,343.18 268.50,343.24 265.00,342.73
             256.44,341.49 255.74,341.42 249.85,348.00
             246.60,351.63 245.49,352.74 243.00,357.00
             243.00,357.00 255.99,355.30 255.99,355.30
             255.99,355.30 262.00,353.00 262.00,353.00
             262.00,353.00 259.00,355.00 259.00,355.00
             268.30,354.91 273.27,352.63 279.00,345.00
             268.90,345.32 269.95,349.38 263.00,351.00
             263.00,351.00 273.00,345.00 273.00,345.00 Z
           M 87.00,343.00
           C 87.00,343.00 88.00,343.00 88.00,343.00
             88.00,343.00 87.00,344.00 87.00,344.00
             87.00,344.00 87.00,343.00 87.00,343.00 Z
           M 249.00,346.00
           C 249.00,346.00 248.00,346.00 248.00,346.00
             248.00,346.00 249.00,347.00 249.00,347.00
             249.00,347.00 249.00,346.00 249.00,346.00 Z
           M 248.00,347.00
           C 248.00,347.00 247.00,347.00 247.00,347.00
             247.00,347.00 248.00,348.00 248.00,348.00
             248.00,348.00 248.00,347.00 248.00,347.00 Z
           M 247.00,348.00
           C 247.00,348.00 236.00,357.00 236.00,357.00
             241.87,356.05 244.50,353.28 247.00,348.00 Z
           M 189.00,356.00
           C 183.23,356.00 173.66,354.57 169.00,358.00
             169.00,358.00 189.00,359.00 189.00,359.00
             189.00,359.00 189.00,356.00 189.00,356.00 Z
           M 204.00,356.00
           C 204.00,356.00 191.00,356.00 191.00,356.00
             191.00,356.00 191.00,358.00 191.00,358.00
             191.00,358.00 204.00,358.00 204.00,358.00
             204.00,358.00 204.00,356.00 204.00,356.00 Z
           M 109.00,356.00
           C 109.00,356.00 110.00,356.00 110.00,356.00
             110.00,356.00 109.00,357.00 109.00,357.00
             109.00,357.00 109.00,356.00 109.00,356.00 Z
           M 129.00,357.00
           C 129.00,357.00 128.00,358.00 128.00,358.00
             128.00,358.00 132.00,358.00 132.00,358.00
             132.00,358.00 129.00,357.00 129.00,357.00 Z
           M 165.00,357.00
           C 165.00,357.00 155.00,358.00 155.00,358.00
             155.00,358.00 165.00,357.00 165.00,357.00 Z
           M 212.00,357.00
           C 212.00,357.00 207.00,358.00 207.00,358.00
             207.00,358.00 212.00,357.00 212.00,357.00 Z
           M 222.00,357.00
           C 222.00,357.00 213.00,358.00 213.00,358.00
             213.00,358.00 222.00,357.00 222.00,357.00 Z
           M 263.00,357.00
           C 263.00,357.00 264.00,357.00 264.00,357.00
             264.00,357.00 263.00,358.00 263.00,358.00
             263.00,358.00 263.00,357.00 263.00,357.00 Z
           M 189.00,360.00
           C 189.00,360.00 171.00,359.00 171.00,359.00
             172.59,363.66 177.02,369.47 182.09,370.85
             183.68,371.08 187.24,371.00 189.00,370.85
             189.00,370.85 189.00,360.00 189.00,360.00 Z
           M 115.00,359.00
           C 115.00,359.00 116.00,359.00 116.00,359.00
             116.00,359.00 115.00,360.00 115.00,360.00
             115.00,360.00 115.00,359.00 115.00,359.00 Z
           M 169.00,360.00
           C 169.00,360.00 168.00,360.00 168.00,360.00
             168.00,360.00 169.00,361.00 169.00,361.00
             169.00,361.00 169.00,360.00 169.00,360.00 Z
           M 260.00,359.00
           C 260.00,359.00 261.00,359.00 261.00,359.00
             261.00,359.00 260.00,360.00 260.00,360.00
             260.00,360.00 260.00,359.00 260.00,359.00 Z
           M 170.00,361.00
           C 169.39,365.67 171.74,367.27 176.00,368.00
             176.00,368.00 170.00,361.00 170.00,361.00 Z
           M 227.00,361.00
           C 227.00,361.00 228.00,361.00 228.00,361.00
             228.00,361.00 227.00,362.00 227.00,362.00
             227.00,362.00 227.00,361.00 227.00,361.00 Z
           M 155.00,363.00
           C 155.00,363.00 156.00,363.00 156.00,363.00
             156.00,363.00 155.00,364.00 155.00,364.00
             155.00,364.00 155.00,363.00 155.00,363.00 Z
           M 157.00,364.00
           C 157.00,364.00 158.00,364.00 158.00,364.00
             158.00,364.00 157.00,365.00 157.00,365.00
             157.00,365.00 157.00,364.00 157.00,364.00 Z
           M 222.00,364.00
           C 222.00,364.00 223.00,364.00 223.00,364.00
             223.00,364.00 222.00,365.00 222.00,365.00
             222.00,365.00 222.00,364.00 222.00,364.00 Z
           M 250.00,364.00
           C 250.00,364.00 251.00,364.00 251.00,364.00
             251.00,364.00 250.00,365.00 250.00,365.00
             250.00,365.00 250.00,364.00 250.00,364.00 Z
           M 220.00,365.00
           C 220.00,365.00 221.00,365.00 221.00,365.00
             221.00,365.00 220.00,366.00 220.00,366.00
             220.00,366.00 220.00,365.00 220.00,365.00 Z
           M 244.00,367.00
           C 244.00,367.00 245.00,367.00 245.00,367.00
             245.00,367.00 244.00,368.00 244.00,368.00
             244.00,368.00 244.00,367.00 244.00,367.00 Z
           M 139.00,368.00
           C 139.00,368.00 140.00,368.00 140.00,368.00
             140.00,368.00 139.00,369.00 139.00,369.00
             139.00,369.00 139.00,368.00 139.00,368.00 Z
           M 229.00,369.00
           C 229.00,369.00 230.00,369.00 230.00,369.00
             230.00,369.00 229.00,370.00 229.00,370.00
             229.00,370.00 229.00,369.00 229.00,369.00 Z" />
</svg>
