<?xml version="1.0" encoding="UTF-8" standalone="no"?>
<!DOCTYPE svg PUBLIC "-//W3C//DTD SVG 20010904//EN"
              "http://www.w3.org/TR/2001/REC-SVG-20010904/DTD/svg10.dtd">

<svg xmlns="http://www.w3.org/2000/svg"
     width="1.25667in" height="1.25667in"
     viewBox="0 0 377 377">
  <path id="Auswahl"
        fill="none" stroke="black" stroke-width="1"
        d="M 180.00,0.00
           C 180.00,0.00 177.00,6.00 177.00,6.00
             177.00,6.00 172.00,18.00 172.00,18.00
             172.00,18.00 187.00,18.00 187.00,18.00
             187.00,18.00 188.00,14.00 188.00,14.00
             188.00,14.00 188.00,18.00 188.00,18.00
             188.00,18.00 207.00,18.00 207.00,18.00
             207.00,18.00 199.00,8.00 199.00,8.00
             199.00,8.00 202.00,7.00 202.00,7.00
             202.00,7.00 196.00,0.00 196.00,0.00
             196.00,0.00 207.00,7.00 207.00,7.00
             207.00,7.00 204.00,8.00 204.00,8.00
             204.00,8.00 210.00,7.00 210.00,7.00
             210.00,7.00 208.00,7.00 208.00,7.00
             208.00,7.00 208.00,6.00 208.00,6.00
             208.00,6.00 211.00,8.00 211.00,8.00
             211.00,8.00 205.00,9.00 205.00,9.00
             206.69,11.35 209.00,15.59 211.21,17.07
             215.47,19.92 225.25,19.35 230.00,18.00
             230.00,18.00 227.00,16.00 227.00,16.00
             233.97,19.18 233.38,18.99 241.00,19.00
             231.35,9.82 225.41,5.45 212.00,9.00
             212.00,9.00 222.00,3.00 222.00,3.00
             222.00,3.00 225.00,7.00 225.00,7.00
             225.00,7.00 230.00,7.00 230.00,7.00
             231.14,10.25 237.03,13.36 239.99,15.32
             241.79,16.51 243.84,18.48 245.00,16.00
             250.90,17.14 251.97,15.90 257.00,13.00
             257.00,18.35 249.08,18.64 245.00,19.94
             245.00,19.94 252.00,19.94 252.00,19.94
             258.10,20.54 261.55,22.69 268.00,21.00
             268.00,21.00 265.00,19.00 265.00,19.00
             265.00,19.00 274.00,25.00 274.00,25.00
             274.00,25.00 279.00,25.00 279.00,25.00
             279.00,25.00 276.00,27.00 276.00,27.00
             266.06,21.90 257.97,22.48 247.00,21.00
             255.75,30.17 257.96,39.52 272.00,33.00
             272.00,33.00 261.00,25.00 261.00,25.00
             270.00,29.39 271.89,35.76 282.00,31.00
             282.00,31.00 277.00,27.00 277.00,27.00
             282.24,30.08 282.44,30.76 288.00,28.00
             287.96,31.38 287.81,31.15 285.00,33.00
             293.38,39.34 292.47,41.98 303.00,44.00
             303.00,44.00 301.00,42.00 301.00,42.00
             301.00,42.00 301.00,41.00 301.00,41.00
             301.00,41.00 313.00,48.00 313.00,48.00
             313.00,48.00 309.00,47.00 309.00,47.00
             309.00,47.00 314.00,51.00 314.00,51.00
             314.00,51.00 316.00,49.00 316.00,49.00
             316.00,49.00 315.00,54.00 315.00,54.00
             315.00,54.00 307.00,55.00 307.00,55.00
             310.73,59.59 315.13,67.62 321.00,68.94
             323.48,69.50 326.90,70.65 328.00,68.00
             332.86,70.93 337.04,72.10 340.00,77.00
             340.00,77.00 337.00,78.00 337.00,78.00
             339.49,81.22 342.80,84.81 343.00,89.00
             341.18,86.27 338.17,80.70 334.91,79.90
             333.39,79.53 327.29,80.81 325.00,81.00
             325.00,81.00 334.41,97.99 334.41,97.99
             334.41,97.99 350.00,101.00 350.00,101.00
             350.00,101.00 348.00,95.00 348.00,95.00
             350.32,98.64 350.67,99.95 355.00,101.00
             355.00,101.00 358.00,106.00 358.00,106.00
             358.00,106.00 355.00,107.00 355.00,107.00
             355.00,107.00 365.00,135.00 365.00,135.00
             365.00,135.00 367.93,134.00 367.93,134.00
             371.15,140.44 367.11,138.33 367.93,145.01
             367.93,145.01 372.00,170.00 372.00,170.00
             372.00,170.00 376.00,170.00 376.00,170.00
             376.00,170.00 375.00,175.00 375.00,175.00
             375.00,175.00 372.00,173.00 372.00,173.00
             372.00,173.00 373.00,190.00 373.00,190.00
             373.00,190.00 372.00,205.00 372.00,205.00
             372.00,205.00 375.00,202.00 375.00,202.00
             375.76,207.14 375.09,210.25 373.00,215.00
             373.00,215.00 372.00,208.00 372.00,208.00
             372.00,208.00 366.00,239.00 366.00,239.00
             366.00,239.00 369.00,237.00 369.00,237.00
             369.32,241.66 368.96,242.42 366.00,246.00
             366.00,246.00 366.00,245.00 366.00,245.00
             366.00,245.00 364.00,244.00 364.00,244.00
             364.00,244.00 354.00,271.00 354.00,271.00
             354.00,271.00 357.00,270.00 357.00,270.00
             356.06,275.74 351.09,278.23 347.00,282.00
             347.00,282.00 349.00,278.00 349.00,278.00
             349.00,278.00 334.27,280.02 334.27,280.02
             334.27,280.02 324.00,297.00 324.00,297.00
             324.00,297.00 333.96,298.23 333.96,298.23
             333.96,298.23 344.00,288.00 344.00,288.00
             344.00,288.00 336.00,300.00 336.00,300.00
             336.00,300.00 339.00,301.00 339.00,301.00
             333.44,311.10 325.51,306.78 318.09,309.89
             314.59,311.36 308.84,319.72 306.00,323.00
             306.00,323.00 315.00,323.00 315.00,323.00
             315.00,323.00 315.00,329.00 315.00,329.00
             315.00,329.00 311.00,327.00 311.00,327.00
             311.00,327.00 308.00,331.00 308.00,331.00
             308.00,331.00 312.00,331.00 312.00,331.00
             312.00,331.00 301.00,335.76 301.00,335.76
             299.96,334.11 297.86,334.74 295.99,335.76
             293.16,336.71 286.87,342.64 284.00,345.00
             284.00,345.00 287.00,346.00 287.00,346.00
             287.00,346.00 286.00,350.00 286.00,350.00
             281.82,347.41 281.34,347.84 277.00,350.00
             277.00,350.00 280.00,346.00 280.00,346.00
             280.00,346.00 273.00,345.23 273.00,345.23
             273.00,345.23 261.00,351.00 261.00,351.00
             261.00,351.00 271.00,344.00 271.00,344.00
             271.00,344.00 260.17,342.77 260.17,342.77
             260.17,342.77 247.00,356.00 247.00,356.00
             247.00,356.00 257.00,354.00 257.00,354.00
             257.00,354.00 257.00,357.00 257.00,357.00
             257.00,357.00 249.00,360.00 249.00,360.00
             249.00,360.00 258.00,361.00 258.00,361.00
             258.00,361.00 254.00,365.00 254.00,365.00
             245.39,355.46 237.18,363.65 229.00,369.00
             229.00,369.00 232.00,370.00 232.00,370.00
             232.00,370.00 226.00,369.00 226.00,369.00
             226.00,369.00 240.00,359.00 240.00,359.00
             232.89,358.74 233.77,358.21 227.00,361.00
             225.61,357.93 219.92,358.95 217.00,359.00
             204.31,359.24 208.89,370.49 196.00,377.00
             196.00,377.00 202.00,369.00 202.00,369.00
             202.00,369.00 198.00,368.00 198.00,368.00
             202.91,365.67 204.46,363.72 207.00,359.00
             207.00,359.00 188.00,360.00 188.00,360.00
             188.00,360.00 187.00,363.00 187.00,363.00
             184.27,358.92 176.70,359.62 172.00,359.00
             173.36,363.74 174.08,366.38 179.00,368.00
             181.01,373.53 190.22,369.31 197.00,372.00
             197.00,372.00 178.00,371.00 178.00,371.00
             178.00,371.00 180.00,377.00 180.00,377.00
             180.00,377.00 174.78,370.96 174.78,370.96
             172.19,367.50 169.03,361.23 164.91,359.60
             162.85,358.78 157.43,358.99 155.00,359.00
             152.36,359.02 150.07,358.33 149.00,361.00
             143.64,358.42 143.82,358.68 138.00,359.00
             138.00,359.00 152.00,370.00 152.00,370.00
             144.20,367.12 138.66,361.02 135.58,360.33
             131.12,359.34 125.42,362.50 122.00,365.00
             122.07,358.97 128.28,359.45 133.00,358.00
             128.89,357.54 122.81,358.24 120.00,355.00
             114.48,356.58 103.91,356.74 100.00,352.00
             100.00,352.00 104.00,352.00 104.00,352.00
             95.72,347.74 96.76,345.52 91.00,350.00
             91.00,350.00 90.00,346.00 90.00,346.00
             90.00,346.00 94.00,344.00 94.00,344.00
             87.55,340.95 86.68,337.49 82.00,335.56
             76.33,333.23 71.06,335.22 65.00,330.00
             65.00,330.00 81.00,334.00 81.00,334.00
             78.62,330.68 74.68,325.21 70.04,325.70
             70.04,325.70 62.00,329.00 62.00,329.00
             61.91,322.53 54.63,318.08 51.00,313.00
             51.00,313.00 64.00,323.65 64.00,323.65
             64.00,323.65 72.00,323.00 72.00,323.00
             72.00,323.00 61.82,310.93 61.82,310.93
             61.82,310.93 48.00,308.00 48.00,308.00
             48.00,308.00 51.00,312.00 51.00,312.00
             46.19,308.71 40.91,306.11 38.00,301.00
             38.00,301.00 39.00,298.00 39.00,298.00
             44.06,299.79 48.72,297.71 54.00,297.00
             54.00,297.00 43.79,280.17 43.79,280.17
             43.79,280.17 28.00,278.00 28.00,278.00
             28.00,278.00 32.00,288.00 32.00,288.00
             32.00,288.00 26.37,279.26 26.37,279.26
             23.03,275.37 18.66,274.22 20.00,267.00
             20.00,267.00 21.00,271.00 21.00,271.00
             21.00,271.00 41.00,268.00 41.00,268.00
             41.00,268.00 33.28,247.51 33.28,247.51
             30.21,244.18 14.58,244.21 10.00,245.00
             6.03,238.21 9.30,239.19 8.00,231.00
             8.00,231.00 7.00,234.00 7.00,234.00
             7.00,234.00 9.00,227.00 9.00,227.00
             9.00,227.00 12.00,239.00 12.00,239.00
             12.00,239.00 32.00,237.00 32.00,237.00
             30.31,231.46 29.26,223.82 28.42,218.00
             28.04,215.34 28.15,211.67 25.69,210.02
             23.17,208.35 9.74,209.00 6.00,209.00
             6.30,215.59 9.52,222.93 6.00,229.00
             6.00,229.00 6.00,221.00 6.00,221.00
             6.00,221.00 5.00,224.00 5.00,224.00
             5.00,224.00 5.00,215.00 5.00,215.00
             5.00,215.00 4.00,219.00 4.00,219.00
             4.00,219.00 4.00,209.00 4.00,209.00
             4.00,209.00 4.00,211.00 4.00,211.00
             4.00,211.00 3.00,211.00 3.00,211.00
             1.05,205.66 1.00,205.52 5.00,201.00
             5.00,201.00 5.00,205.00 5.00,205.00
             5.00,205.00 27.00,205.00 27.00,205.00
             27.00,205.00 27.00,174.00 27.00,174.00
             27.00,174.00 6.00,173.00 6.00,173.00
             6.00,173.00 5.00,176.00 5.00,176.00
             0.52,172.13 1.03,170.81 4.00,166.00
             4.00,166.00 5.00,170.00 5.00,170.00
             5.00,170.00 5.00,158.00 5.00,158.00
             5.00,158.00 6.00,162.00 6.00,162.00
             6.00,162.00 6.00,153.00 6.00,153.00
             6.00,153.00 7.00,156.00 7.00,156.00
             7.00,156.00 7.00,148.00 7.00,148.00
             7.00,148.00 6.00,170.00 6.00,170.00
             6.00,170.00 28.00,169.00 28.00,169.00
             28.00,169.00 31.00,141.00 31.00,141.00
             31.00,141.00 11.72,141.61 11.72,141.61
             11.72,141.61 8.00,150.00 8.00,150.00
             8.00,150.00 8.00,143.00 8.00,143.00
             8.00,143.00 9.00,146.00 9.00,146.00
             9.00,146.00 7.00,136.00 7.00,136.00
             7.00,136.00 11.00,132.00 11.00,132.00
             11.00,132.00 13.00,132.00 13.00,132.00
             14.70,135.49 20.70,134.02 24.00,133.58
             26.49,133.24 30.63,133.07 32.49,131.40
             34.66,129.45 39.18,113.60 40.00,109.88
             40.00,109.88 23.39,109.88 23.39,109.88
             23.39,109.88 15.00,125.00 15.00,125.00
             15.00,125.00 15.00,120.00 15.00,120.00
             15.00,120.00 15.00,122.00 15.00,122.00
             15.00,122.00 14.00,122.00 14.00,122.00
             14.00,122.00 15.00,118.00 15.00,118.00
             15.00,118.00 17.00,120.00 17.00,120.00
             17.00,120.00 17.00,115.00 17.00,115.00
             17.00,115.00 17.00,117.00 17.00,117.00
             17.00,117.00 16.00,117.00 16.00,117.00
             16.00,117.00 17.00,113.00 17.00,113.00
             17.00,113.00 19.00,115.00 19.00,115.00
             19.00,115.00 21.00,107.00 21.00,107.00
             21.00,107.00 19.00,110.00 19.00,110.00
             19.60,104.36 19.85,104.61 23.00,100.00
             27.28,101.05 26.36,95.21 33.00,89.00
             33.00,89.00 27.00,101.00 27.00,101.00
             27.00,101.00 43.73,97.98 43.73,97.98
             43.73,97.98 53.00,81.00 53.00,81.00
             53.00,81.00 37.00,78.00 37.00,78.00
             38.83,72.95 46.53,68.18 51.00,65.00
             51.00,65.00 47.00,71.00 47.00,71.00
             47.00,71.00 59.96,67.83 59.96,67.83
             59.96,67.83 71.00,55.00 71.00,55.00
             71.00,55.00 63.00,54.48 63.00,54.48
             63.00,54.48 51.00,64.00 51.00,64.00
             51.00,64.00 59.54,54.29 59.54,54.29
             59.54,54.29 63.00,48.00 63.00,48.00
             63.00,48.00 63.00,51.00 63.00,51.00
             63.00,51.00 65.00,49.00 65.00,49.00
             65.00,49.00 66.00,49.00 66.00,49.00
             66.00,49.00 65.00,52.00 65.00,52.00
             73.86,53.14 74.46,51.84 80.00,44.00
             80.00,44.00 64.00,47.00 64.00,47.00
             64.00,47.00 82.00,41.99 82.00,41.99
             82.00,41.99 92.00,33.00 92.00,33.00
             92.00,33.00 88.00,31.00 88.00,31.00
             88.00,31.00 89.00,28.00 89.00,28.00
             94.81,31.54 94.08,31.93 104.00,24.00
             104.00,24.00 98.00,24.00 98.00,24.00
             98.00,24.00 111.00,20.00 111.00,20.00
             112.67,23.62 122.97,20.14 126.00,19.00
             126.00,19.00 119.00,14.00 119.00,14.00
             119.00,14.00 124.00,13.00 124.00,13.00
             124.00,13.00 123.00,16.00 123.00,16.00
             126.60,16.51 131.70,18.26 135.00,17.11
             141.40,14.89 144.94,8.12 153.00,7.00
             153.00,7.00 152.00,4.00 152.00,4.00
             152.00,4.00 155.00,3.00 155.00,3.00
             155.00,3.00 165.00,7.88 165.00,7.88
             165.00,7.88 155.00,7.88 155.00,7.88
             148.59,8.78 141.66,14.73 137.00,19.00
             143.26,18.94 143.39,18.82 149.00,16.00
             149.00,16.00 149.00,17.00 149.00,17.00
             149.00,17.00 147.00,19.00 147.00,19.00
             152.08,19.00 161.64,19.70 165.83,17.07
             169.72,14.62 171.43,10.48 174.00,7.00
             174.00,7.00 169.00,6.00 169.00,6.00
             175.14,5.79 176.10,4.70 180.00,0.00 Z
           M 224.00,6.00
           C 224.00,6.00 223.00,6.00 223.00,6.00
             223.00,6.00 224.00,7.00 224.00,7.00
             224.00,7.00 224.00,6.00 224.00,6.00 Z
           M 166.00,6.00
           C 166.00,6.00 168.00,6.00 168.00,6.00
             168.00,6.00 171.00,9.00 171.00,9.00
             171.00,9.00 166.00,6.00 166.00,6.00 Z
           M 177.00,7.00
           C 177.00,7.00 176.00,7.00 176.00,7.00
             176.00,7.00 177.00,8.00 177.00,8.00
             177.00,8.00 177.00,7.00 177.00,7.00 Z
           M 147.00,7.00
           C 147.00,7.00 148.00,7.00 148.00,7.00
             148.00,7.00 147.00,8.00 147.00,8.00
             147.00,8.00 147.00,7.00 147.00,7.00 Z
           M 138.00,8.00
           C 138.00,8.00 139.00,8.00 139.00,8.00
             139.00,8.00 138.00,9.00 138.00,9.00
             138.00,9.00 138.00,8.00 138.00,8.00 Z
           M 141.00,8.00
           C 141.00,8.00 142.00,8.00 142.00,8.00
             142.00,8.00 141.00,9.00 141.00,9.00
             141.00,9.00 141.00,8.00 141.00,8.00 Z
           M 203.00,9.00
           C 203.00,9.00 202.00,9.00 202.00,9.00
             202.00,9.00 203.00,10.00 203.00,10.00
             203.00,10.00 203.00,9.00 203.00,9.00 Z
           M 131.00,9.00
           C 131.00,9.00 132.00,9.00 132.00,9.00
             132.00,9.00 131.00,10.00 131.00,10.00
             131.00,10.00 131.00,9.00 131.00,9.00 Z
           M 204.00,10.00
           C 204.00,10.00 203.00,10.00 203.00,10.00
             203.00,10.00 204.00,11.00 204.00,11.00
             204.00,11.00 204.00,10.00 204.00,10.00 Z
           M 243.00,9.00
           C 243.00,9.00 244.00,9.00 244.00,9.00
             244.00,9.00 243.00,10.00 243.00,10.00
             243.00,10.00 243.00,9.00 243.00,9.00 Z
           M 247.00,10.00
           C 247.00,10.00 248.00,10.00 248.00,10.00
             248.00,10.00 247.00,11.00 247.00,11.00
             247.00,11.00 247.00,10.00 247.00,10.00 Z
           M 157.00,11.00
           C 157.00,11.00 158.00,11.00 158.00,11.00
             158.00,11.00 157.00,12.00 157.00,12.00
             157.00,12.00 157.00,11.00 157.00,11.00 Z
           M 155.00,12.00
           C 155.00,12.00 156.00,12.00 156.00,12.00
             156.00,12.00 155.00,13.00 155.00,13.00
             155.00,13.00 155.00,12.00 155.00,12.00 Z
           M 220.00,12.00
           C 220.00,12.00 221.00,12.00 221.00,12.00
             221.00,12.00 220.00,13.00 220.00,13.00
             220.00,13.00 220.00,12.00 220.00,12.00 Z
           M 153.00,13.00
           C 153.00,13.00 154.00,14.00 154.00,14.00
             154.00,14.00 150.00,15.00 150.00,15.00
             150.00,15.00 153.00,13.00 153.00,13.00 Z
           M 222.00,13.00
           C 222.00,13.00 223.00,13.00 223.00,13.00
             223.00,13.00 222.00,14.00 222.00,14.00
             222.00,14.00 222.00,13.00 222.00,13.00 Z
           M 170.00,16.00
           C 170.00,16.00 169.00,16.00 169.00,16.00
             169.00,16.00 170.00,17.00 170.00,17.00
             170.00,17.00 170.00,16.00 170.00,16.00 Z
           M 117.00,16.00
           C 117.00,16.00 118.00,16.00 118.00,16.00
             118.00,16.00 117.00,17.00 117.00,17.00
             117.00,17.00 117.00,16.00 117.00,16.00 Z
           M 169.00,17.00
           C 169.00,17.00 168.00,17.00 168.00,17.00
             168.00,17.00 169.00,18.00 169.00,18.00
             169.00,18.00 169.00,17.00 169.00,17.00 Z
           M 259.00,16.00
           C 259.00,16.00 260.00,16.00 260.00,16.00
             260.00,16.00 259.00,17.00 259.00,17.00
             259.00,17.00 259.00,16.00 259.00,16.00 Z
           M 115.00,17.00
           C 115.00,17.00 116.00,18.00 116.00,18.00
             116.00,18.00 112.00,19.00 112.00,19.00
             112.00,19.00 115.00,17.00 115.00,17.00 Z
           M 261.00,17.00
           C 261.00,17.00 262.00,17.00 262.00,17.00
             262.00,17.00 261.00,18.00 261.00,18.00
             261.00,18.00 261.00,17.00 261.00,17.00 Z
           M 133.00,19.00
           C 133.00,19.00 126.00,20.00 126.00,20.00
             126.00,20.00 133.00,19.00 133.00,19.00 Z
           M 187.00,19.00
           C 187.00,19.00 171.00,19.00 171.00,19.00
             171.00,19.00 171.00,21.00 171.00,21.00
             171.00,21.00 187.00,21.00 187.00,21.00
             187.00,21.00 187.00,19.00 187.00,19.00 Z
           M 208.00,20.00
           C 202.80,18.52 192.46,17.72 188.00,21.00
             188.00,21.00 208.00,20.00 208.00,20.00 Z
           M 263.00,18.00
           C 263.00,18.00 264.00,18.00 264.00,18.00
             264.00,18.00 263.00,19.00 263.00,19.00
             263.00,19.00 263.00,18.00 263.00,18.00 Z
           M 126.00,20.00
           C 126.00,20.00 125.00,20.00 125.00,20.00
             125.00,20.00 126.00,21.00 126.00,21.00
             126.00,21.00 126.00,20.00 126.00,20.00 Z
           M 164.00,20.00
           C 164.00,20.00 156.00,21.00 156.00,21.00
             156.00,21.00 164.00,20.00 164.00,20.00 Z
           M 221.00,20.00
           C 221.00,20.00 212.00,21.00 212.00,21.00
             212.00,21.00 221.00,20.00 221.00,20.00 Z
           M 132.00,21.00
           C 132.00,21.00 116.00,24.00 116.00,24.00
             116.00,24.00 119.00,22.00 119.00,22.00
             108.17,23.43 103.94,23.14 96.00,32.00
             106.82,35.03 106.84,27.93 115.00,26.00
             115.00,26.00 104.00,33.00 104.00,33.00
             106.94,34.71 115.51,36.67 118.71,35.41
             121.33,34.39 130.07,23.70 132.00,21.00 Z
           M 141.00,21.00
           C 139.08,21.02 136.82,20.93 135.00,21.60
             130.29,23.34 124.52,31.67 122.00,36.00
             127.23,34.47 137.20,25.31 141.00,21.00 Z
           M 163.00,22.00
           C 157.83,21.98 148.02,20.35 144.00,21.31
             138.22,22.68 129.42,32.23 126.00,37.00
             126.00,37.00 146.00,38.00 146.00,38.00
             146.00,38.00 153.37,37.01 153.37,37.01
             153.37,37.01 163.00,22.00 163.00,22.00 Z
           M 250.00,37.00
           C 246.58,32.23 237.77,22.68 232.00,21.31
             232.00,21.31 213.00,22.00 213.00,22.00
             213.00,22.00 222.39,36.98 222.39,36.98
             222.39,36.98 229.00,38.00 229.00,38.00
             229.00,38.00 250.00,37.00 250.00,37.00 Z
           M 257.00,35.85
           C 251.94,28.45 245.38,17.88 235.00,22.00
             235.00,22.00 252.00,35.85 252.00,35.85
             252.00,35.85 257.00,35.85 257.00,35.85 Z
           M 167.00,22.00
           C 167.00,22.00 164.00,22.00 164.00,22.00
             164.00,22.00 156.00,38.00 156.00,38.00
             157.85,37.94 159.97,38.07 161.57,36.98
             164.30,35.13 166.48,25.34 167.00,22.00 Z
           M 187.00,23.00
           C 183.36,22.83 173.43,20.89 170.72,23.00
             168.71,24.56 166.84,34.09 166.00,37.00
             166.00,37.00 167.00,38.00 167.00,38.00
             167.00,38.00 187.00,37.00 187.00,37.00
             187.00,37.00 187.00,23.00 187.00,23.00 Z
           M 209.00,22.00
           C 209.00,22.00 188.00,23.00 188.00,23.00
             188.00,23.00 188.00,37.00 188.00,37.00
             188.00,37.00 213.00,37.00 213.00,37.00
             213.00,37.00 209.00,22.00 209.00,22.00 Z
           M 215.00,28.00
           C 213.87,32.18 215.37,35.73 219.00,38.00
             219.00,38.00 215.00,28.00 215.00,28.00 Z
           M 293.00,42.00
           C 288.29,35.72 283.65,31.47 276.00,36.00
             284.02,41.48 283.10,41.97 293.00,42.00 Z
           M 100.00,35.00
           C 92.61,33.30 89.36,36.19 85.00,42.00
             92.99,41.92 94.41,40.83 100.00,35.00 Z
           M 118.00,37.00
           C 104.95,36.88 102.94,32.04 95.00,41.00
             95.00,41.00 114.89,39.41 114.89,39.41
             114.89,39.41 118.00,37.00 118.00,37.00 Z
           M 281.00,40.00
           C 271.25,32.99 272.81,36.46 261.00,37.00
             261.80,38.20 261.74,38.70 263.29,39.41
             265.80,40.54 278.42,40.99 281.00,40.00 Z
           M 294.00,36.00
           C 294.00,36.00 295.00,36.00 295.00,36.00
             295.00,36.00 294.00,37.00 294.00,37.00
             294.00,37.00 294.00,36.00 294.00,36.00 Z
           M 80.00,37.00
           C 80.00,37.00 81.00,37.00 81.00,37.00
             81.00,37.00 80.00,38.00 80.00,38.00
             80.00,38.00 80.00,37.00 80.00,37.00 Z
           M 125.00,38.00
           C 125.00,38.00 124.00,38.00 124.00,38.00
             124.00,38.00 125.00,39.00 125.00,39.00
             125.00,39.00 125.00,38.00 125.00,38.00 Z
           M 259.00,38.00
           C 259.00,38.00 254.00,39.00 254.00,39.00
             254.00,39.00 259.00,38.00 259.00,38.00 Z
           M 152.00,40.00
           C 146.97,40.00 127.42,39.43 124.00,40.74
             118.39,42.89 112.10,52.51 110.00,58.00
             110.00,58.00 139.00,59.98 139.00,59.98
             140.54,59.92 142.18,59.89 143.50,58.98
             145.90,57.33 151.06,43.33 152.00,40.00 Z
           M 162.00,40.00
           C 159.92,40.03 157.20,39.86 155.39,41.02
             152.24,43.05 147.92,56.07 147.00,60.00
             147.00,60.00 158.00,60.00 158.00,60.00
             158.00,60.00 162.00,40.00 162.00,40.00 Z
           M 187.00,41.01
           C 183.51,40.01 169.36,38.91 166.58,41.01
             164.42,42.67 163.13,52.11 162.77,55.00
             162.57,56.67 162.17,58.73 163.64,59.98
             165.11,61.23 169.10,61.00 171.00,61.00
             171.00,61.00 186.00,61.00 186.00,61.00
             186.00,61.00 187.00,41.01 187.00,41.01 Z
           M 214.00,40.00
           C 214.00,40.00 195.00,40.00 195.00,40.00
             195.00,40.00 189.02,41.60 189.02,41.60
             189.02,41.60 188.00,61.00 188.00,61.00
             188.00,61.00 218.00,60.00 218.00,60.00
             218.00,60.00 214.00,40.00 214.00,40.00 Z
           M 228.00,60.00
           C 227.12,56.14 223.26,43.11 220.36,40.99
             219.17,40.13 218.30,40.22 217.00,40.00
             221.97,57.20 218.77,59.67 228.00,60.00 Z
           M 266.00,58.00
           C 263.57,53.66 257.14,43.21 252.96,41.02
             250.82,39.90 248.34,40.02 246.00,40.00
             246.00,40.00 223.00,40.00 223.00,40.00
             223.00,40.00 231.65,59.01 231.65,59.01
             231.65,59.01 240.00,60.00 240.00,60.00
             240.00,60.00 266.00,58.00 266.00,58.00 Z
           M 115.00,41.00
           C 111.19,41.03 95.86,42.10 93.00,43.43
             88.69,45.43 83.75,51.15 81.00,55.00
             86.58,56.36 92.31,56.61 98.00,57.08
             100.36,57.40 103.33,58.32 105.47,57.08
             108.19,55.32 113.79,44.27 115.00,41.00 Z
           M 270.00,58.00
           C 268.43,54.35 263.56,43.99 260.47,41.99
             259.00,41.04 257.64,41.13 256.00,41.00
             258.86,45.51 265.64,55.49 270.00,58.00 Z
           M 295.00,55.00
           C 292.27,51.19 287.22,45.37 283.00,43.31
             280.65,42.17 267.33,41.15 264.00,41.00
             264.00,41.00 273.00,58.00 273.00,58.00
             273.00,58.00 295.00,55.00 295.00,55.00 Z
           M 90.00,43.00
           C 81.93,44.10 78.59,46.37 75.00,54.00
             81.68,54.54 86.43,47.98 90.00,43.00 Z
           M 303.00,54.00
           C 298.90,45.17 295.15,43.74 286.00,43.00
             290.52,49.32 294.71,55.20 303.00,54.00 Z
           M 117.00,44.00
           C 117.00,44.00 116.00,44.00 116.00,44.00
             116.00,44.00 117.00,45.00 117.00,45.00
             117.00,45.00 117.00,44.00 117.00,44.00 Z
           M 312.00,52.00
           C 307.57,46.00 305.25,45.16 298.00,45.00
             302.57,51.35 304.25,53.29 312.00,52.00 Z
           M 77.00,56.00
           C 69.70,56.60 67.33,62.08 64.00,68.00
             70.40,66.94 73.90,61.31 77.00,56.00 Z
           M 314.00,68.00
           C 310.15,60.14 308.11,56.12 299.00,56.00
             302.17,62.74 306.28,67.73 314.00,68.00 Z
           M 104.00,59.00
           C 104.00,59.00 87.00,57.87 87.00,57.87
             87.00,57.87 78.17,57.87 78.17,57.87
             78.17,57.87 71.00,67.00 71.00,67.00
             71.00,67.00 84.00,65.96 84.00,65.96
             84.00,65.96 93.00,65.96 93.00,65.96
             93.00,65.96 101.57,63.98 101.57,63.98
             101.57,63.98 104.00,59.00 104.00,59.00 Z
           M 305.00,67.00
           C 303.26,64.01 300.04,58.88 296.71,57.59
             296.71,57.59 275.00,59.00 275.00,59.00
             276.91,67.66 284.89,65.73 292.00,66.04
             292.00,66.04 305.00,67.00 305.00,67.00 Z
           M 319.00,58.00
           C 319.00,58.00 328.00,67.00 328.00,67.00
             328.00,67.00 319.00,58.00 319.00,58.00 Z
           M 143.00,63.00
           C 137.04,59.54 128.73,61.47 122.00,60.83
             118.70,60.52 113.32,59.41 110.11,60.31
             107.25,61.11 106.92,62.51 106.00,65.00
             106.00,65.00 123.00,64.00 123.00,64.00
             123.00,64.00 143.00,63.00 143.00,63.00 Z
           M 270.00,65.00
           C 268.91,62.80 268.39,61.04 265.79,60.29
             262.81,59.44 257.19,60.69 254.00,60.91
             246.69,61.41 238.85,59.84 232.00,63.00
             232.00,63.00 255.00,64.00 255.00,64.00
             255.00,64.00 270.00,65.00 270.00,65.00 Z
           M 271.00,60.00
           C 271.00,60.00 270.00,60.00 270.00,60.00
             270.00,60.00 271.00,61.00 271.00,61.00
             271.00,61.00 271.00,60.00 271.00,60.00 Z
           M 157.00,62.00
           C 157.00,62.00 146.00,63.00 146.00,63.00
             146.00,63.00 157.00,62.00 157.00,62.00 Z
           M 177.00,62.00
           C 177.00,62.00 162.00,63.00 162.00,63.00
             162.00,63.00 177.00,62.00 177.00,62.00 Z
           M 218.00,62.00
           C 218.00,62.00 200.00,63.00 200.00,63.00
             200.00,63.00 218.00,62.00 218.00,62.00 Z
           M 229.00,62.00
           C 229.00,62.00 222.00,63.00 222.00,63.00
             222.00,63.00 229.00,62.00 229.00,62.00 Z
           M 273.00,63.00
           C 273.00,63.00 272.00,63.00 272.00,63.00
             272.00,63.00 273.00,64.00 273.00,64.00
             273.00,64.00 273.00,63.00 273.00,63.00 Z
           M 157.00,65.00
           C 154.33,65.00 148.55,64.61 146.42,66.02
             142.93,68.34 140.60,80.78 140.00,85.00
             140.00,85.00 153.40,83.98 153.40,83.98
             153.40,83.98 155.28,78.00 155.28,78.00
             155.28,78.00 157.00,65.00 157.00,65.00 Z
           M 186.00,65.00
           C 186.00,65.00 161.00,65.00 161.00,65.00
             160.83,68.76 158.14,81.96 160.03,84.40
             161.45,86.25 164.90,85.99 167.00,86.00
             170.46,86.02 183.00,86.90 184.98,84.40
             186.68,82.25 186.00,68.46 186.00,65.00 Z
           M 221.00,85.00
           C 220.92,81.56 219.88,67.95 217.41,66.02
             216.04,64.96 213.65,65.03 212.00,65.00
             212.00,65.00 188.00,65.00 188.00,65.00
             188.00,65.00 188.00,86.00 188.00,86.00
             188.00,86.00 221.00,85.00 221.00,85.00 Z
           M 235.00,85.00
           C 234.31,81.59 231.54,67.76 229.28,65.99
             227.77,64.82 224.84,65.02 223.00,65.00
             223.07,68.27 224.34,82.20 226.60,83.98
             228.29,85.30 232.85,85.00 235.00,85.00 Z
           M 279.00,83.00
           C 278.05,79.68 274.03,69.89 271.37,67.99
             268.94,66.26 260.14,66.00 257.00,66.00
             249.87,65.99 240.77,66.65 234.00,65.00
             234.00,65.00 238.00,84.96 238.00,84.96
             238.00,84.96 253.00,84.96 253.00,84.96
             253.00,84.96 265.00,84.00 265.00,84.00
             265.00,84.00 279.00,83.00 279.00,83.00 Z
           M 142.00,66.00
           C 142.00,66.00 120.00,66.00 120.00,66.00
             116.69,66.01 108.02,66.28 105.39,68.02
             101.79,70.39 99.38,79.84 99.00,84.00
             99.00,84.00 137.00,85.00 137.00,85.00
             137.00,85.00 142.00,66.00 142.00,66.00 Z
           M 101.00,67.00
           C 101.00,67.00 78.00,68.58 78.00,68.58
             75.42,68.92 71.21,68.87 69.09,70.02
             65.26,72.11 62.99,76.97 62.00,81.00
             62.00,81.00 82.00,82.13 82.00,82.13
             82.00,82.13 92.51,82.13 92.51,82.13
             92.51,82.13 101.00,67.00 101.00,67.00 Z
           M 314.00,81.00
           C 312.83,77.32 310.31,72.01 306.82,70.02
             304.91,68.94 301.28,68.88 299.00,68.58
             299.00,68.58 278.00,67.00 278.00,67.00
             278.00,67.00 284.00,83.00 284.00,83.00
             284.00,83.00 314.00,81.00 314.00,81.00 Z
           M 60.00,70.00
           C 60.00,70.00 40.00,74.00 40.00,74.00
             42.41,77.57 50.70,80.31 54.68,77.97
             57.44,76.35 58.91,72.84 60.00,70.00 Z
           M 66.00,70.00
           C 60.34,70.95 58.85,74.99 57.00,80.00
             61.82,78.38 63.61,74.26 66.00,70.00 Z
           M 321.00,80.00
           C 318.99,73.13 317.37,70.26 310.00,70.00
             312.82,75.79 314.16,79.44 321.00,80.00 Z
           M 335.00,77.00
           C 330.32,70.98 326.16,71.06 319.00,71.00
             322.88,81.44 325.99,78.81 335.00,77.00 Z
           M 43.00,73.00
           C 43.00,73.00 42.00,73.00 42.00,73.00
             42.00,73.00 43.00,74.00 43.00,74.00
             43.00,74.00 43.00,73.00 43.00,73.00 Z
           M 334.00,73.00
           C 334.00,73.00 337.00,76.00 337.00,76.00
             337.00,76.00 334.00,73.00 334.00,73.00 Z
           M 35.00,80.00
           C 35.00,80.00 36.00,80.00 36.00,80.00
             36.00,80.00 35.00,81.00 35.00,81.00
             35.00,81.00 35.00,80.00 35.00,80.00 Z
           M 38.00,80.00
           C 37.50,83.65 35.63,85.56 33.00,88.00
             33.00,88.00 38.00,80.00 38.00,80.00 Z
           M 58.00,82.00
           C 58.00,82.00 55.00,82.00 55.00,82.00
             53.13,86.34 48.40,93.56 49.00,98.00
             49.00,98.00 58.00,82.00 58.00,82.00 Z
           M 92.00,85.00
           C 92.00,85.00 69.00,83.07 69.00,83.07
             66.76,82.87 62.18,82.14 60.33,83.07
             57.41,84.64 52.46,94.73 51.00,98.00
             51.00,98.00 74.00,97.00 74.00,97.00
             74.00,97.00 86.59,94.98 86.59,94.98
             86.59,94.98 92.00,85.00 92.00,85.00 Z
           M 316.00,82.00
           C 316.00,82.00 285.00,85.00 285.00,85.00
             285.00,85.00 289.51,94.98 289.51,94.98
             289.51,94.98 299.00,96.92 299.00,96.92
             299.00,96.92 308.00,96.92 308.00,96.92
             308.00,96.92 324.00,98.00 324.00,98.00
             324.00,98.00 316.00,82.00 316.00,82.00 Z
           M 331.00,99.00
           C 329.98,95.41 325.62,84.94 322.61,83.02
             321.12,82.07 319.67,82.14 318.00,82.00
             320.74,88.33 323.84,97.07 331.00,99.00 Z
           M 33.00,83.00
           C 33.00,83.00 34.00,83.00 34.00,83.00
             34.00,83.00 33.00,84.00 33.00,84.00
             33.00,84.00 33.00,83.00 33.00,83.00 Z
           M 136.00,87.00
           C 136.00,87.00 122.00,86.05 122.00,86.05
             122.00,86.05 109.00,86.05 109.00,86.05
             106.45,85.97 100.31,84.91 98.51,86.05
             95.88,87.75 95.26,93.16 95.00,96.00
             95.00,96.00 122.00,95.00 122.00,95.00
             122.00,95.00 133.42,93.98 133.42,93.98
             133.42,93.98 136.00,87.00 136.00,87.00 Z
           M 284.00,96.00
           C 283.65,92.68 282.74,87.94 279.61,86.02
             277.62,84.82 269.09,86.00 266.00,86.02
             266.00,86.02 239.00,87.00 239.00,87.00
             239.38,89.60 239.59,93.11 242.30,94.40
             244.24,95.32 253.32,95.00 256.00,95.00
             256.00,95.00 284.00,96.00 284.00,96.00 Z
           M 31.00,86.00
           C 31.00,86.00 32.00,86.00 32.00,86.00
             32.00,86.00 31.00,87.00 31.00,87.00
             31.00,87.00 31.00,86.00 31.00,86.00 Z
           M 154.00,87.00
           C 154.00,87.00 139.00,87.00 139.00,87.00
             139.00,87.00 138.00,95.00 138.00,95.00
             148.72,95.00 153.42,96.71 154.00,87.00 Z
           M 186.00,88.00
           C 186.00,88.00 166.00,87.00 166.00,87.00
             166.00,87.00 159.60,88.02 159.60,88.02
             159.60,88.02 158.00,94.00 158.00,94.00
             158.00,94.00 186.00,94.00 186.00,94.00
             186.00,94.00 186.00,88.00 186.00,88.00 Z
           M 222.00,94.00
           C 222.00,94.00 220.40,88.02 220.40,88.02
             220.40,88.02 214.00,87.00 214.00,87.00
             214.00,87.00 188.00,88.00 188.00,88.00
             188.00,88.00 188.00,94.00 188.00,94.00
             188.00,94.00 222.00,94.00 222.00,94.00 Z
           M 237.00,95.00
           C 235.74,86.32 234.07,87.01 226.00,87.00
             226.82,95.69 229.31,94.99 237.00,95.00 Z
           M 30.00,88.00
           C 30.00,88.00 31.00,88.00 31.00,88.00
             31.00,88.00 30.00,89.00 30.00,89.00
             30.00,89.00 30.00,88.00 30.00,88.00 Z
           M 344.00,90.00
           C 344.00,90.00 346.00,94.00 346.00,94.00
             346.00,94.00 344.00,90.00 344.00,90.00 Z
           M 28.00,91.00
           C 28.00,91.00 29.00,91.00 29.00,91.00
             29.00,91.00 28.00,92.00 28.00,92.00
             28.00,92.00 28.00,91.00 28.00,91.00 Z
           M 27.00,93.00
           C 27.00,93.00 28.00,93.00 28.00,93.00
             28.00,93.00 27.00,94.00 27.00,94.00
             27.00,94.00 27.00,93.00 27.00,93.00 Z
           M 350.00,94.00
           C 350.00,94.00 351.00,94.00 351.00,94.00
             351.00,94.00 350.00,95.00 350.00,95.00
             350.00,95.00 350.00,94.00 350.00,94.00 Z
           M 134.00,97.04
           C 134.00,97.04 118.00,97.04 118.00,97.04
             118.00,97.04 107.00,98.00 107.00,98.00
             104.21,98.01 96.62,97.50 94.56,99.02
             92.33,100.67 90.16,108.96 92.61,110.98
             93.89,112.03 96.42,111.97 98.00,112.00
             98.00,112.00 118.00,112.00 118.00,112.00
             121.26,112.04 127.96,113.67 130.15,111.40
             131.78,109.70 133.20,100.03 134.00,97.04 Z
           M 153.00,97.00
           C 153.00,97.00 137.00,97.00 137.00,97.00
             137.00,97.00 135.00,113.00 135.00,113.00
             135.00,113.00 150.40,111.98 150.40,111.98
             150.40,111.98 153.00,97.00 153.00,97.00 Z
           M 185.00,97.00
           C 185.00,97.00 164.00,97.00 164.00,97.00
             164.00,97.00 158.02,98.60 158.02,98.60
             158.02,98.60 156.00,113.00 156.00,113.00
             156.00,113.00 185.00,113.00 185.00,113.00
             185.00,113.00 185.00,97.00 185.00,97.00 Z
           M 223.00,97.00
           C 223.00,97.00 188.00,97.00 188.00,97.00
             188.00,97.00 189.00,114.00 189.00,114.00
             189.00,114.00 224.00,113.00 224.00,113.00
             224.00,113.00 223.00,97.00 223.00,97.00 Z
           M 238.00,97.00
           C 238.00,97.00 227.00,97.00 227.00,97.00
             227.00,97.00 229.00,113.00 229.00,113.00
             229.00,113.00 240.00,113.00 240.00,113.00
             240.00,113.00 238.00,97.00 238.00,97.00 Z
           M 289.00,111.00
           C 288.52,107.87 287.28,100.85 284.57,99.02
             282.20,97.42 272.31,98.03 269.00,98.00
             269.00,98.00 258.00,97.02 258.00,97.02
             258.00,97.02 241.00,97.02 241.00,97.02
             241.00,97.02 244.74,112.00 244.74,112.00
             244.74,112.00 260.00,112.00 260.00,112.00
             260.00,112.00 289.00,111.00 289.00,111.00 Z
           M 351.00,96.00
           C 351.00,96.00 352.00,96.00 352.00,96.00
             352.00,96.00 351.00,97.00 351.00,97.00
             351.00,97.00 351.00,96.00 351.00,96.00 Z
           M 329.00,109.00
           C 329.00,109.00 324.61,101.02 324.61,101.02
             324.61,101.02 315.00,99.83 315.00,99.83
             315.00,99.83 290.00,98.00 290.00,98.00
             290.00,98.00 293.00,111.00 293.00,111.00
             293.00,111.00 319.00,109.91 319.00,109.91
             319.00,109.91 329.00,109.00 329.00,109.00 Z
           M 24.00,98.00
           C 24.00,98.00 25.00,98.00 25.00,98.00
             25.00,98.00 24.00,99.00 24.00,99.00
             24.00,99.00 24.00,98.00 24.00,98.00 Z
           M 86.00,99.00
           C 86.00,99.00 61.00,99.91 61.00,99.91
             58.15,100.11 53.61,99.60 51.21,101.02
             48.28,102.76 47.59,105.93 47.00,109.00
             47.00,109.00 70.00,110.22 70.00,110.22
             72.76,110.79 78.99,111.74 81.30,110.22
             83.29,108.52 85.15,101.56 86.00,99.00 Z
           M 44.00,101.00
           C 44.00,101.00 25.54,103.99 25.54,103.99
             25.54,103.99 24.00,106.00 24.00,106.00
             37.83,107.83 40.42,110.83 44.00,101.00 Z
           M 335.00,108.00
           C 333.29,103.29 333.15,101.88 328.00,101.00
             329.72,105.17 329.99,107.95 335.00,108.00 Z
           M 352.00,106.00
           C 348.90,101.32 340.26,101.69 335.00,101.00
             336.78,110.21 340.25,108.14 352.00,106.00 Z
           M 88.00,103.00
           C 88.00,103.00 85.00,111.00 85.00,111.00
             87.84,108.66 87.70,106.51 88.00,103.00 Z
           M 23.00,104.00
           C 23.00,104.00 22.00,104.00 22.00,104.00
             22.00,104.00 23.00,105.00 23.00,105.00
             23.00,105.00 23.00,104.00 23.00,104.00 Z
           M 354.00,108.00
           C 354.00,108.00 338.00,110.00 338.00,110.00
             338.00,110.00 345.00,133.00 345.00,133.00
             345.00,133.00 363.00,134.00 363.00,134.00
             362.30,126.33 357.09,115.29 354.00,108.00 Z
           M 357.00,108.00
           C 357.00,108.00 358.00,108.00 358.00,108.00
             358.00,108.00 357.00,109.00 357.00,109.00
             357.00,109.00 357.00,108.00 357.00,108.00 Z
           M 81.00,113.00
           C 81.00,113.00 67.00,111.97 67.00,111.97
             67.00,111.97 57.00,111.97 57.00,111.97
             54.02,111.55 48.23,110.11 45.70,111.97
             42.70,114.21 38.82,128.92 38.00,133.00
             38.00,133.00 60.00,132.00 60.00,132.00
             60.00,132.00 77.00,131.00 77.00,131.00
             77.00,131.00 81.00,113.00 81.00,113.00 Z
           M 337.00,133.00
           C 336.62,128.84 332.91,114.21 329.58,111.97
             326.92,110.27 322.07,111.70 319.00,111.97
             319.00,111.97 294.00,113.00 294.00,113.00
             294.00,113.00 298.00,131.00 298.00,131.00
             298.00,131.00 316.00,132.00 316.00,132.00
             316.00,132.00 337.00,133.00 337.00,133.00 Z
           M 342.00,133.00
           C 341.79,128.68 339.02,115.60 336.16,112.59
             335.02,111.39 334.38,111.47 333.00,111.00
             333.00,111.00 339.91,131.46 339.91,131.46
             339.91,131.46 342.00,133.00 342.00,133.00 Z
           M 358.00,110.00
           C 358.00,110.00 359.00,110.00 359.00,110.00
             359.00,110.00 358.00,111.00 358.00,111.00
             358.00,111.00 358.00,110.00 358.00,110.00 Z
           M 18.00,111.00
           C 18.00,111.00 19.00,111.00 19.00,111.00
             19.00,111.00 18.00,112.00 18.00,112.00
             18.00,112.00 18.00,111.00 18.00,111.00 Z
           M 86.00,113.00
           C 86.00,113.00 84.00,113.00 84.00,113.00
             84.00,113.00 80.00,131.00 80.00,131.00
             84.51,128.02 85.02,118.21 86.00,113.00 Z
           M 130.00,115.00
           C 130.00,115.00 99.00,114.00 99.00,114.00
             96.75,113.97 92.31,113.35 90.58,114.77
             88.16,116.75 87.15,127.72 87.00,131.00
             87.00,131.00 105.00,131.00 105.00,131.00
             105.00,131.00 116.00,130.09 116.00,130.09
             118.61,129.91 125.41,130.50 127.26,129.01
             129.48,127.22 129.94,117.92 130.00,115.00 Z
           M 293.00,131.00
           C 292.72,127.56 291.30,115.89 288.49,114.02
             286.91,113.03 278.60,114.00 276.00,114.02
             276.00,114.02 258.00,114.02 258.00,114.02
             258.00,114.02 244.00,115.00 244.00,115.00
             244.00,115.00 246.00,130.04 246.00,130.04
             246.00,130.04 261.00,130.04 261.00,130.04
             261.00,130.04 272.00,131.00 272.00,131.00
             272.00,131.00 293.00,131.00 293.00,131.00 Z
           M 359.00,112.00
           C 359.00,112.00 360.00,112.00 360.00,112.00
             360.00,112.00 359.00,113.00 359.00,113.00
             359.00,113.00 359.00,112.00 359.00,112.00 Z
           M 151.00,115.00
           C 151.00,115.00 134.00,115.00 134.00,115.00
             134.00,115.00 132.00,130.00 132.00,130.00
             132.00,130.00 150.00,130.00 150.00,130.00
             150.00,130.00 151.00,115.00 151.00,115.00 Z
           M 185.00,115.00
           C 185.00,115.00 156.00,115.00 156.00,115.00
             156.00,115.00 155.00,130.00 155.00,130.00
             155.00,130.00 185.00,130.00 185.00,130.00
             185.00,130.00 185.00,115.00 185.00,115.00 Z
           M 224.00,115.00
           C 224.00,115.00 195.00,115.00 195.00,115.00
             193.38,115.03 190.94,114.96 189.60,116.02
             187.32,117.82 187.32,127.18 189.60,128.98
             191.08,130.15 194.18,129.99 196.00,130.00
             196.00,130.00 225.00,130.00 225.00,130.00
             225.00,130.00 224.00,115.00 224.00,115.00 Z
           M 241.00,115.00
           C 241.00,115.00 229.00,115.00 229.00,115.00
             229.00,115.00 230.00,130.00 230.00,130.00
             230.00,130.00 242.00,130.00 242.00,130.00
             242.00,130.00 241.00,115.00 241.00,115.00 Z
           M 361.00,117.00
           C 361.00,117.00 362.00,117.00 362.00,117.00
             362.00,117.00 361.00,118.00 361.00,118.00
             361.00,118.00 361.00,117.00 361.00,117.00 Z
           M 12.00,126.00
           C 12.00,126.00 15.00,126.00 15.00,126.00
             15.00,126.00 13.00,131.00 13.00,131.00
             13.00,131.00 12.00,126.00 12.00,126.00 Z
           M 185.00,142.00
           C 185.00,139.86 185.30,135.27 183.98,133.60
             182.28,131.45 176.58,131.99 174.00,132.00
             174.00,132.00 155.00,133.00 155.00,133.00
             155.00,133.00 155.00,142.00 155.00,142.00
             155.00,142.00 185.00,142.00 185.00,142.00 Z
           M 225.00,133.00
           C 225.00,133.00 197.00,132.00 197.00,132.00
             195.01,132.00 191.19,131.77 189.60,133.02
             186.96,135.11 188.24,140.31 189.00,143.00
             189.00,143.00 226.00,142.00 226.00,142.00
             226.00,142.00 225.00,133.00 225.00,133.00 Z
           M 128.00,133.00
           C 128.00,133.00 99.00,133.00 99.00,133.00
             99.00,133.00 87.56,134.02 87.56,134.02
             87.56,134.02 85.00,141.00 85.00,141.00
             85.00,141.00 99.00,142.00 99.00,142.00
             99.00,142.00 127.00,142.00 127.00,142.00
             127.00,142.00 128.00,133.00 128.00,133.00 Z
           M 150.00,133.00
           C 146.54,133.00 134.14,132.08 132.17,134.57
             130.84,136.27 131.02,139.91 131.00,142.00
             131.00,142.00 150.00,142.00 150.00,142.00
             150.00,142.00 150.00,133.00 150.00,133.00 Z
           M 243.00,133.00
           C 243.00,133.00 230.00,133.00 230.00,133.00
             230.00,133.00 231.00,142.00 231.00,142.00
             231.00,142.00 244.00,142.00 244.00,142.00
             244.00,142.00 243.00,133.00 243.00,133.00 Z
           M 294.00,134.00
           C 294.00,134.00 247.00,133.00 247.00,133.00
             247.00,133.00 248.60,140.98 248.60,140.98
             248.60,140.98 261.00,142.00 261.00,142.00
             261.00,142.00 278.00,142.00 278.00,142.00
             278.00,142.00 295.00,141.00 295.00,141.00
             295.00,141.00 294.00,134.00 294.00,134.00 Z
           M 76.00,134.00
           C 76.00,134.00 60.00,134.00 60.00,134.00
             60.00,134.00 37.00,135.00 37.00,135.00
             37.00,135.00 36.00,139.00 36.00,139.00
             36.00,139.00 48.00,140.00 48.00,140.00
             48.00,140.00 60.00,140.96 60.00,140.96
             60.00,140.96 75.00,140.96 75.00,140.96
             75.00,140.96 76.00,134.00 76.00,134.00 Z
           M 82.00,134.00
           C 82.00,134.00 79.00,134.00 79.00,134.00
             79.00,134.00 78.00,141.00 78.00,141.00
             78.00,141.00 81.00,141.00 81.00,141.00
             81.00,141.00 82.00,134.00 82.00,134.00 Z
           M 339.00,140.00
           C 337.44,133.20 334.01,135.40 328.00,134.83
             328.00,134.83 299.00,134.00 299.00,134.00
             299.00,134.00 300.00,141.00 300.00,141.00
             300.00,141.00 339.00,140.00 339.00,140.00 Z
           M 32.00,135.00
           C 32.00,135.00 13.00,138.00 13.00,138.00
             19.13,138.13 28.74,141.68 33.00,136.00
             33.00,136.00 32.00,135.00 32.00,135.00 Z
           M 342.00,135.00
           C 341.13,137.73 341.42,137.95 344.00,139.00
             344.00,139.00 342.00,135.00 342.00,135.00 Z
           M 364.00,137.00
           C 364.00,137.00 346.00,136.00 346.00,136.00
             349.39,141.07 359.07,139.02 364.00,137.00 Z
           M 371.00,170.00
           C 371.00,170.00 367.58,149.00 367.58,149.00
             367.09,146.81 366.32,142.36 364.44,141.04
             362.47,139.65 349.67,141.24 347.00,142.00
             347.00,142.00 350.28,161.00 350.28,161.00
             350.28,161.00 352.57,168.83 352.57,168.83
             352.57,168.83 371.00,170.00 371.00,170.00 Z
           M 74.00,143.00
           C 74.00,143.00 35.00,142.00 35.00,142.00
             35.00,142.00 31.00,169.00 31.00,169.00
             31.00,169.00 71.00,169.00 71.00,169.00
             71.00,169.00 74.00,143.00 74.00,143.00 Z
           M 340.00,142.04
           C 340.00,142.04 327.00,142.04 327.00,142.04
             327.00,142.04 316.00,143.00 316.00,143.00
             316.00,143.00 301.00,143.00 301.00,143.00
             301.00,143.00 304.00,169.00 304.00,169.00
             304.00,169.00 344.00,169.00 344.00,169.00
             344.00,169.00 340.00,142.04 340.00,142.04 Z
           M 345.00,142.00
           C 345.00,142.00 342.00,142.00 342.00,142.00
             342.00,142.00 345.41,160.00 345.41,160.00
             346.07,164.16 345.30,166.53 349.00,169.00
             349.00,169.00 345.00,142.00 345.00,142.00 Z
           M 80.00,143.00
           C 80.00,143.00 78.00,143.00 78.00,143.00
             75.36,150.99 75.00,160.62 75.00,169.00
             75.00,169.00 78.00,169.00 78.00,169.00
             78.00,169.00 80.00,143.00 80.00,143.00 Z
           M 127.00,145.00
           C 127.00,145.00 85.00,143.00 85.00,143.00
             85.00,143.00 83.00,169.00 83.00,169.00
             83.00,169.00 125.00,168.00 125.00,168.00
             125.00,168.00 127.00,145.00 127.00,145.00 Z
           M 295.00,143.00
           C 295.00,143.00 282.00,144.00 282.00,144.00
             282.00,144.00 248.00,144.00 248.00,144.00
             248.00,144.00 249.00,168.00 249.00,168.00
             249.00,168.00 264.00,169.00 264.00,169.00
             264.00,169.00 297.00,169.00 297.00,169.00
             297.00,169.00 295.00,143.00 295.00,143.00 Z
           M 149.00,144.00
           C 149.00,144.00 131.60,145.02 131.60,145.02
             131.60,145.02 130.00,152.00 130.00,152.00
             130.00,152.00 129.00,168.00 129.00,168.00
             129.00,168.00 149.00,168.00 149.00,168.00
             149.00,168.00 149.00,144.00 149.00,144.00 Z
           M 185.00,145.00
           C 185.00,145.00 161.00,144.00 161.00,144.00
             161.00,144.00 155.17,145.57 155.17,145.57
             155.17,145.57 154.00,154.00 154.00,154.00
             154.00,154.00 154.00,168.00 154.00,168.00
             154.00,168.00 185.00,168.00 185.00,168.00
             185.00,168.00 185.00,145.00 185.00,145.00 Z
           M 227.00,168.00
           C 227.00,168.00 226.00,152.00 226.00,152.00
             225.99,150.18 226.15,147.08 224.98,145.60
             223.63,143.90 220.95,144.04 219.00,144.00
             219.00,144.00 191.13,144.85 191.13,144.85
             187.44,145.47 188.02,149.07 188.00,152.00
             188.00,152.00 188.00,168.00 188.00,168.00
             188.00,168.00 227.00,168.00 227.00,168.00 Z
           M 244.00,144.00
           C 244.00,144.00 231.00,144.00 231.00,144.00
             231.00,144.00 232.00,168.00 232.00,168.00
             232.00,168.00 244.96,168.00 244.96,168.00
             244.96,168.00 244.96,156.00 244.96,156.00
             244.96,156.00 244.00,144.00 244.00,144.00 Z
           M 373.00,162.00
           C 373.00,162.00 373.00,168.00 373.00,168.00
             373.00,168.00 373.00,162.00 373.00,162.00 Z
           M 125.00,171.00
           C 125.00,171.00 97.00,171.00 97.00,171.00
             97.00,171.00 83.00,172.00 83.00,172.00
             83.00,172.00 103.00,173.00 103.00,173.00
             103.00,173.00 125.00,173.00 125.00,173.00
             125.00,173.00 125.00,171.00 125.00,171.00 Z
           M 148.00,171.00
           C 148.00,171.00 129.00,171.00 129.00,171.00
             129.00,171.00 129.00,173.00 129.00,173.00
             129.00,173.00 148.00,173.00 148.00,173.00
             148.00,173.00 148.00,171.00 148.00,171.00 Z
           M 185.00,171.00
           C 185.00,171.00 154.00,171.00 154.00,171.00
             154.00,171.00 154.00,173.00 154.00,173.00
             154.00,173.00 185.00,173.00 185.00,173.00
             185.00,173.00 185.00,171.00 185.00,171.00 Z
           M 226.00,171.00
           C 226.00,171.00 197.00,171.00 197.00,171.00
             193.03,171.01 191.31,170.56 188.00,173.00
             188.00,173.00 226.00,173.00 226.00,173.00
             226.00,173.00 226.00,171.00 226.00,171.00 Z
           M 245.00,171.00
           C 245.00,171.00 232.00,171.00 232.00,171.00
             232.00,171.00 232.00,173.00 232.00,173.00
             232.00,173.00 245.00,173.00 245.00,173.00
             245.00,173.00 245.00,171.00 245.00,171.00 Z
           M 297.00,171.00
           C 297.00,171.00 250.00,171.00 250.00,171.00
             250.00,171.00 250.00,173.00 250.00,173.00
             250.00,173.00 284.00,172.17 284.00,172.17
             284.00,172.17 297.00,171.00 297.00,171.00 Z
           M 371.00,173.00
           C 371.00,173.00 352.00,174.00 352.00,174.00
             352.00,174.00 352.00,205.00 352.00,205.00
             352.00,205.00 371.00,205.00 371.00,205.00
             371.00,205.00 372.00,189.00 372.00,189.00
             372.00,189.00 371.00,173.00 371.00,173.00 Z
           M 71.00,204.00
           C 71.00,204.00 69.97,187.00 69.97,187.00
             69.97,187.00 69.97,175.60 69.97,175.60
             69.97,175.60 64.00,174.00 64.00,174.00
             64.00,174.00 31.00,174.00 31.00,174.00
             31.00,174.00 30.00,189.00 30.00,189.00
             30.00,189.00 31.00,204.00 31.00,204.00
             31.00,204.00 71.00,204.00 71.00,204.00 Z
           M 304.00,204.00
           C 304.00,204.00 332.00,204.00 332.00,204.00
             334.54,204.00 341.55,204.44 343.40,202.98
             345.38,201.41 345.00,197.30 345.00,195.00
             345.01,191.33 345.94,177.03 343.40,175.02
             342.06,173.96 339.62,174.03 338.00,174.00
             338.00,174.00 313.00,174.00 313.00,174.00
             311.01,174.00 307.19,173.77 305.60,175.02
             303.62,176.59 304.00,180.70 304.00,183.00
             304.00,183.00 304.00,204.00 304.00,204.00 Z
           M 349.00,174.00
           C 349.00,174.00 347.00,174.00 347.00,174.00
             347.00,174.00 347.00,204.00 347.00,204.00
             347.00,204.00 349.00,204.00 349.00,204.00
             349.00,204.00 349.00,174.00 349.00,174.00 Z
           M 78.00,175.00
           C 78.00,175.00 74.00,175.00 74.00,175.00
             74.00,175.00 74.00,204.00 74.00,204.00
             74.00,204.00 78.00,204.00 78.00,204.00
             78.00,204.00 78.00,175.00 78.00,175.00 Z
           M 125.00,175.00
           C 125.00,175.00 82.00,175.00 82.00,175.00
             82.00,175.00 82.00,204.00 82.00,204.00
             82.00,204.00 118.00,204.00 118.00,204.00
             124.06,203.88 124.88,203.06 125.00,197.00
             125.00,197.00 125.00,175.00 125.00,175.00 Z
           M 129.00,204.00
           C 129.00,204.00 142.00,204.00 142.00,204.00
             151.73,203.82 147.83,200.57 147.95,186.00
             148.03,183.90 148.86,178.02 147.95,176.60
             146.18,174.10 132.38,175.00 129.00,175.00
             129.00,175.00 129.00,204.00 129.00,204.00 Z
           M 185.00,175.00
           C 185.00,175.00 154.00,175.00 154.00,175.00
             154.00,175.00 154.00,197.00 154.00,197.00
             154.00,197.00 155.60,202.98 155.60,202.98
             155.60,202.98 161.00,204.00 161.00,204.00
             161.00,204.00 185.00,203.00 185.00,203.00
             185.00,203.00 185.00,175.00 185.00,175.00 Z
           M 227.00,175.00
           C 227.00,175.00 195.00,175.00 195.00,175.00
             195.00,175.00 189.02,176.60 189.02,176.60
             189.02,176.60 188.00,184.00 188.00,184.00
             188.00,184.00 189.00,204.00 189.00,204.00
             189.00,204.00 218.00,204.00 218.00,204.00
             218.00,204.00 225.98,202.40 225.98,202.40
             225.98,202.40 227.00,196.00 227.00,196.00
             227.00,196.00 227.00,175.00 227.00,175.00 Z
           M 232.00,175.00
           C 232.00,175.00 232.00,195.00 232.00,195.00
             232.00,196.99 231.77,200.81 233.02,202.40
             234.65,204.46 242.31,204.58 244.26,203.01
             246.11,201.52 245.97,198.15 246.00,196.00
             246.00,196.00 246.00,182.00 246.00,182.00
             245.96,180.05 246.10,177.37 244.40,176.02
             242.51,174.52 234.66,175.00 232.00,175.00 Z
           M 298.00,175.00
           C 298.00,175.00 250.00,175.00 250.00,175.00
             250.00,175.00 249.00,203.00 249.00,203.00
             255.36,204.81 282.74,204.15 291.00,204.00
             297.06,203.88 297.88,203.06 298.00,197.00
             298.00,197.00 298.00,175.00 298.00,175.00 Z
           M 374.00,176.00
           C 374.00,176.00 374.00,182.00 374.00,182.00
             374.00,182.00 374.00,176.00 374.00,176.00 Z
           M 2.00,177.00
           C 2.00,177.00 5.00,177.00 5.00,177.00
             5.00,177.00 5.00,200.00 5.00,200.00
             5.00,200.00 2.00,200.00 2.00,200.00
             2.00,200.00 2.00,177.00 2.00,177.00 Z
           M 4.00,181.00
           C 2.49,184.80 2.49,192.20 4.00,196.00
             4.00,196.00 4.00,181.00 4.00,181.00 Z
           M 374.00,195.00
           C 374.00,195.00 374.00,201.00 374.00,201.00
             374.00,201.00 374.00,195.00 374.00,195.00 Z
           M 71.00,206.00
           C 71.00,206.00 53.00,207.00 53.00,207.00
             53.00,207.00 71.00,206.00 71.00,206.00 Z
           M 125.00,206.00
           C 125.00,206.00 97.00,206.00 97.00,206.00
             97.00,206.00 83.00,207.04 83.00,207.04
             83.00,207.04 95.00,207.04 95.00,207.04
             95.00,207.04 106.00,208.00 106.00,208.00
             106.00,208.00 125.00,208.00 125.00,208.00
             125.00,208.00 125.00,206.00 125.00,206.00 Z
           M 149.00,206.00
           C 149.00,206.00 129.00,206.00 129.00,206.00
             129.00,206.00 129.00,208.00 129.00,208.00
             134.77,208.00 144.34,209.43 149.00,206.00 Z
           M 185.00,206.00
           C 185.00,206.00 154.00,206.00 154.00,206.00
             154.00,206.00 154.00,208.00 154.00,208.00
             154.00,208.00 185.00,208.00 185.00,208.00
             185.00,208.00 185.00,206.00 185.00,206.00 Z
           M 227.00,206.00
           C 227.00,206.00 202.00,206.00 202.00,206.00
             202.00,206.00 188.00,207.00 188.00,207.00
             194.37,208.81 210.56,208.01 218.00,208.00
             221.97,207.99 223.69,208.44 227.00,206.00 Z
           M 245.00,206.00
           C 245.00,206.00 232.00,206.00 232.00,206.00
             232.00,206.00 232.00,208.00 232.00,208.00
             232.00,208.00 245.00,208.00 245.00,208.00
             245.00,208.00 245.00,206.00 245.00,206.00 Z
           M 297.00,206.00
           C 297.00,206.00 265.00,206.00 265.00,206.00
             265.00,206.00 249.00,207.00 249.00,207.00
             259.21,209.90 275.27,207.05 286.00,207.00
             289.85,206.98 293.38,207.43 297.00,206.00 Z
           M 324.00,206.00
           C 324.00,206.00 304.00,207.00 304.00,207.00
             304.00,207.00 324.00,206.00 324.00,206.00 Z
           M 71.00,210.00
           C 71.00,210.00 50.00,210.00 50.00,210.00
             50.00,210.00 32.00,209.00 32.00,209.00
             32.00,209.00 34.20,229.00 34.20,229.00
             34.20,229.00 36.73,235.96 36.73,235.96
             36.73,235.96 49.00,235.96 49.00,235.96
             49.00,235.96 62.00,235.96 62.00,235.96
             62.00,235.96 74.00,235.00 74.00,235.00
             74.00,235.00 71.00,210.00 71.00,210.00 Z
           M 344.00,209.00
           C 344.00,209.00 329.00,210.00 329.00,210.00
             329.00,210.00 311.00,210.00 311.00,210.00
             311.00,210.00 304.02,211.60 304.02,211.60
             304.02,211.60 302.83,218.00 302.83,218.00
             302.83,218.00 301.00,235.00 301.00,235.00
             301.00,235.00 318.00,236.00 318.00,236.00
             318.00,236.00 339.00,237.00 339.00,237.00
             341.44,230.34 343.67,216.19 344.00,209.00 Z
           M 348.00,209.00
           C 345.03,213.01 342.79,231.15 342.00,237.00
             343.29,236.15 343.64,236.27 344.49,234.71
             346.98,230.13 348.00,214.57 348.00,209.00 Z
           M 371.00,209.00
           C 371.00,209.00 351.00,209.00 351.00,209.00
             351.00,209.00 347.00,237.00 347.00,237.00
             347.00,237.00 365.00,239.00 365.00,239.00
             365.00,239.00 368.39,224.00 368.39,224.00
             368.39,224.00 371.00,209.00 371.00,209.00 Z
           M 78.00,210.00
           C 78.00,210.00 75.00,210.00 75.00,210.00
             75.00,214.27 75.67,230.49 78.01,233.41
             78.99,234.63 79.73,234.56 81.00,235.00
             81.00,235.00 78.00,210.00 78.00,210.00 Z
           M 125.00,210.00
           C 125.00,210.00 83.00,210.00 83.00,210.00
             83.00,210.00 85.00,235.00 85.00,235.00
             85.00,235.00 127.00,234.00 127.00,234.00
             127.00,234.00 125.00,210.00 125.00,210.00 Z
           M 149.00,234.00
           C 149.00,234.00 149.00,219.00 149.00,219.00
             148.98,209.51 148.47,209.92 137.00,210.00
             125.93,210.08 129.58,214.40 129.96,223.00
             130.07,225.50 129.63,230.47 131.17,232.43
             133.14,234.92 145.54,234.00 149.00,234.00 Z
           M 185.00,234.00
           C 185.00,234.00 185.00,218.00 185.00,218.00
             185.00,218.00 183.98,211.60 183.98,211.60
             183.98,211.60 177.00,210.00 177.00,210.00
             177.00,210.00 161.00,210.00 161.00,210.00
             161.00,210.00 155.02,211.60 155.02,211.60
             155.02,211.60 154.00,219.00 154.00,219.00
             154.00,219.00 155.00,234.00 155.00,234.00
             155.00,234.00 185.00,234.00 185.00,234.00 Z
           M 227.00,211.00
           C 227.00,211.00 196.00,210.00 196.00,210.00
             196.00,210.00 189.02,211.60 189.02,211.60
             189.02,211.60 188.00,219.00 188.00,219.00
             188.00,219.00 188.00,234.00 188.00,234.00
             188.00,234.00 226.00,234.00 226.00,234.00
             226.00,234.00 227.00,211.00 227.00,211.00 Z
           M 245.00,210.00
           C 245.00,210.00 232.00,210.00 232.00,210.00
             232.00,210.00 231.00,234.00 231.00,234.00
             231.00,234.00 244.00,234.00 244.00,234.00
             244.00,234.00 245.00,210.00 245.00,210.00 Z
           M 297.00,210.00
           C 297.00,210.00 256.00,210.00 256.00,210.00
             256.00,210.00 250.02,211.60 250.02,211.60
             250.02,211.60 248.91,219.00 248.91,219.00
             248.91,219.00 248.00,234.00 248.00,234.00
             248.00,234.00 295.00,235.00 295.00,235.00
             295.00,235.00 297.00,210.00 297.00,210.00 Z
           M 127.00,236.04
           C 127.00,236.04 114.00,236.04 114.00,236.04
             114.00,236.04 103.00,237.00 103.00,237.00
             103.00,237.00 85.00,237.00 85.00,237.00
             85.00,237.00 86.00,245.04 86.00,245.04
             86.00,245.04 98.00,245.04 98.00,245.04
             98.00,245.04 109.00,246.00 109.00,246.00
             109.00,246.00 128.00,246.00 128.00,246.00
             128.00,246.00 127.00,236.04 127.00,236.04 Z
           M 150.00,246.00
           C 150.00,243.86 150.30,239.27 148.98,237.60
             146.99,235.08 134.48,236.00 131.00,236.00
             131.00,236.00 132.00,246.00 132.00,246.00
             132.00,246.00 150.00,246.00 150.00,246.00 Z
           M 185.00,236.00
           C 185.00,236.00 155.00,236.00 155.00,236.00
             155.00,236.00 155.00,246.00 155.00,246.00
             155.00,246.00 185.00,246.00 185.00,246.00
             185.00,246.00 185.00,236.00 185.00,236.00 Z
           M 226.00,236.00
           C 226.00,236.00 200.00,236.00 200.00,236.00
             197.59,236.00 191.40,235.60 189.60,237.02
             187.52,238.67 188.00,243.55 188.00,246.00
             188.00,246.00 225.00,246.00 225.00,246.00
             225.00,246.00 226.00,236.00 226.00,236.00 Z
           M 243.00,236.00
           C 243.00,236.00 231.00,236.00 231.00,236.00
             231.00,236.00 230.00,246.00 230.00,246.00
             232.83,246.00 240.17,246.69 241.98,244.40
             243.30,242.73 243.00,238.14 243.00,236.00 Z
           M 294.00,237.00
           C 294.00,237.00 274.00,237.00 274.00,237.00
             274.00,237.00 258.00,236.00 258.00,236.00
             255.72,236.00 250.34,235.65 248.60,237.02
             246.52,238.67 247.00,243.55 247.00,246.00
             247.00,246.00 268.00,246.00 268.00,246.00
             268.00,246.00 283.00,245.00 283.00,245.00
             283.00,245.00 292.40,243.98 292.40,243.98
             292.40,243.98 294.00,237.00 294.00,237.00 Z
           M 75.00,237.00
           C 75.00,237.00 65.00,237.96 65.00,237.96
             65.00,237.96 49.00,237.96 49.00,237.96
             49.00,237.96 37.00,239.00 37.00,239.00
             37.87,243.93 39.20,243.91 44.00,244.00
             44.00,244.00 54.00,244.00 54.00,244.00
             54.00,244.00 76.00,245.00 76.00,245.00
             76.00,245.00 75.00,237.00 75.00,237.00 Z
           M 81.00,237.00
           C 81.00,237.00 78.00,237.00 78.00,237.00
             78.57,240.95 78.49,242.72 82.00,245.00
             82.00,245.00 81.00,237.00 81.00,237.00 Z
           M 339.00,239.00
           C 339.00,239.00 317.00,238.00 317.00,238.00
             317.00,238.00 300.00,237.00 300.00,237.00
             300.00,237.00 299.00,245.00 299.00,245.00
             299.00,245.00 329.00,244.00 329.00,244.00
             334.82,243.99 336.49,244.69 339.00,239.00 Z
           M 33.00,243.00
           C 32.45,241.44 32.44,240.41 30.69,239.61
             27.86,238.33 15.67,240.27 13.00,242.00
             13.00,242.00 33.00,243.00 33.00,243.00 Z
           M 344.00,239.00
           C 344.00,239.00 341.00,239.00 341.00,239.00
             341.00,239.00 340.00,243.00 340.00,243.00
             343.01,241.92 342.81,241.96 344.00,239.00 Z
           M 364.00,241.00
           C 364.00,241.00 346.00,239.00 346.00,239.00
             346.00,239.00 346.00,243.00 346.00,243.00
             346.00,243.00 364.00,241.00 364.00,241.00 Z
           M 363.00,244.00
           C 363.00,244.00 346.28,246.02 346.28,246.02
             346.28,246.02 342.58,253.00 342.58,253.00
             342.58,253.00 338.00,268.00 338.00,268.00
             338.00,268.00 351.79,269.36 351.79,269.36
             351.79,269.36 356.57,263.00 356.57,263.00
             356.57,263.00 363.00,244.00 363.00,244.00 Z
           M 81.00,265.00
           C 80.67,261.38 78.51,250.01 75.57,248.02
             73.42,246.57 66.77,247.00 64.00,247.00
             64.00,247.00 39.00,246.00 39.00,246.00
             39.39,250.35 42.82,263.60 46.41,265.98
             48.71,267.49 55.25,267.04 58.00,266.72
             58.00,266.72 81.00,265.00 81.00,265.00 Z
           M 337.00,246.00
           C 337.00,246.00 319.00,247.00 319.00,247.00
             319.00,247.00 306.00,247.00 306.00,247.00
             303.59,247.02 300.45,246.80 298.58,248.60
             296.56,250.55 294.28,261.89 294.00,265.00
             294.00,265.00 304.00,266.13 304.00,266.13
             304.00,266.13 317.00,266.13 317.00,266.13
             319.94,266.81 326.90,267.77 329.35,266.13
             332.11,264.03 336.14,249.78 337.00,246.00 Z
           M 342.00,246.00
           C 342.00,246.00 339.00,246.00 339.00,246.00
             339.00,246.00 332.00,268.00 332.00,268.00
             333.42,267.53 334.10,267.58 335.30,266.41
             337.97,263.80 341.37,250.07 342.00,246.00 Z
           M 13.00,246.00
           C 13.00,246.00 14.00,251.00 14.00,251.00
             14.00,251.00 12.00,251.00 12.00,251.00
             12.00,251.00 13.00,246.00 13.00,246.00 Z
           M 83.00,248.00
           C 83.00,248.00 80.00,248.00 80.00,248.00
             81.61,253.55 82.21,260.56 86.00,265.00
             86.00,265.00 83.00,248.00 83.00,248.00 Z
           M 130.00,264.00
           C 129.99,260.86 129.87,250.96 127.40,249.02
             125.80,247.76 122.00,248.00 120.00,248.00
             120.00,248.00 87.00,248.00 87.00,248.00
             87.00,248.00 90.00,265.00 90.00,265.00
             90.00,265.00 109.00,264.00 109.00,264.00
             109.00,264.00 130.00,264.00 130.00,264.00 Z
           M 151.00,262.99
           C 151.00,262.99 149.83,250.57 149.83,250.57
             149.83,250.57 133.00,248.00 133.00,248.00
             133.00,248.00 132.00,249.00 132.00,249.00
             132.00,249.00 135.58,262.99 135.58,262.99
             135.58,262.99 151.00,262.99 151.00,262.99 Z
           M 293.00,248.00
           C 293.00,248.00 253.00,248.00 253.00,248.00
             251.30,248.04 248.99,247.96 247.56,249.02
             244.98,250.93 244.27,260.72 244.00,264.00
             244.00,264.00 267.00,264.00 267.00,264.00
             267.00,264.00 284.00,264.98 284.00,264.98
             285.48,264.92 287.19,264.90 288.44,263.98
             290.89,262.17 292.38,251.31 293.00,248.00 Z
           M 185.00,249.00
           C 185.00,249.00 155.00,249.00 155.00,249.00
             155.00,249.00 156.00,263.00 156.00,263.00
             156.00,263.00 185.00,263.00 185.00,263.00
             185.00,263.00 185.00,249.00 185.00,249.00 Z
           M 225.00,249.00
           C 225.00,249.00 188.00,249.00 188.00,249.00
             188.00,249.00 188.00,263.00 188.00,263.00
             188.00,263.00 224.00,263.00 224.00,263.00
             224.00,263.00 225.00,249.00 225.00,249.00 Z
           M 242.00,249.00
           C 242.00,249.00 230.00,249.00 230.00,249.00
             230.00,249.00 229.00,263.19 229.00,263.19
             231.10,263.10 237.10,264.04 238.57,263.19
             241.68,262.01 241.93,252.12 242.00,249.00 Z
           M 15.00,252.00
           C 17.47,255.41 21.56,263.89 21.00,268.00
             21.00,268.00 19.00,262.00 19.00,262.00
             19.00,262.00 17.00,264.00 17.00,264.00
             17.00,264.00 17.00,260.00 17.00,260.00
             17.00,260.00 18.00,262.00 18.00,262.00
             18.00,262.00 17.00,257.00 17.00,257.00
             17.00,257.00 15.00,259.00 15.00,259.00
             15.00,259.00 15.00,255.00 15.00,255.00
             15.00,255.00 16.00,257.00 16.00,257.00
             16.00,257.00 15.00,252.00 15.00,252.00 Z
           M 361.00,259.00
           C 361.00,259.00 362.00,259.00 362.00,259.00
             362.00,259.00 361.00,260.00 361.00,260.00
             361.00,260.00 361.00,259.00 361.00,259.00 Z
           M 153.00,282.00
           C 152.94,279.09 152.43,267.62 150.40,266.01
             147.72,263.90 138.46,265.72 135.00,266.01
             135.14,269.15 136.13,279.10 138.58,280.98
             140.65,282.55 150.04,282.00 153.00,282.00 Z
           M 185.00,265.00
           C 185.00,265.00 156.00,266.00 156.00,266.00
             156.00,266.00 158.00,282.00 158.00,282.00
             158.00,282.00 186.00,281.00 186.00,281.00
             186.00,281.00 185.00,265.00 185.00,265.00 Z
           M 190.31,265.60
           C 189.56,266.24 189.34,265.80 188.60,267.31
             187.28,270.00 187.29,279.92 190.31,281.40
             192.41,282.43 210.34,282.01 214.00,282.00
             215.94,282.00 219.72,282.25 221.26,281.01
             223.23,279.42 224.26,267.63 222.36,266.02
             221.12,264.96 218.55,265.03 217.00,265.00
             211.39,264.90 194.87,264.50 190.31,265.60 Z
           M 240.00,266.00
           C 237.40,265.54 231.95,264.21 229.74,266.00
             227.77,267.58 227.13,279.08 227.00,282.00
             228.95,282.00 234.00,282.21 235.57,281.43
             238.73,279.85 239.55,269.43 240.00,266.00 Z
           M 359.00,264.00
           C 359.00,264.00 360.00,264.00 360.00,264.00
             360.00,264.00 359.00,265.00 359.00,265.00
             359.00,265.00 359.00,264.00 359.00,264.00 Z
           M 18.00,265.00
           C 18.00,265.00 19.00,265.00 19.00,265.00
             19.00,265.00 18.00,266.00 18.00,266.00
             18.00,266.00 18.00,265.00 18.00,265.00 Z
           M 134.00,281.00
           C 134.00,281.00 130.26,266.99 130.26,266.99
             130.26,266.99 123.00,266.00 123.00,266.00
             123.00,266.00 108.00,266.00 108.00,266.00
             108.00,266.00 91.00,267.00 91.00,267.00
             91.42,269.96 92.51,277.13 94.72,279.10
             97.10,281.20 102.94,281.00 106.00,281.00
             106.00,281.00 134.00,281.00 134.00,281.00 Z
           M 289.00,267.00
           C 289.00,267.00 269.00,266.00 269.00,266.00
             269.00,266.00 243.00,266.00 243.00,266.00
             243.00,266.00 241.00,281.00 241.00,281.00
             241.00,281.00 273.00,281.00 273.00,281.00
             273.00,281.00 284.49,278.99 284.49,278.99
             284.49,278.99 289.00,267.00 289.00,267.00 Z
           M 87.00,280.00
           C 87.00,280.00 81.49,268.02 81.49,268.02
             81.49,268.02 70.00,268.02 70.00,268.02
             70.00,268.02 47.00,270.00 47.00,270.00
             47.00,270.00 51.39,276.98 51.39,276.98
             51.39,276.98 67.00,279.00 67.00,279.00
             67.00,279.00 87.00,280.00 87.00,280.00 Z
           M 87.00,267.00
           C 85.95,270.18 86.35,271.15 88.00,274.00
             88.00,274.00 87.00,267.00 87.00,267.00 Z
           M 328.00,269.00
           C 328.00,269.00 307.00,267.99 307.00,267.99
             307.00,267.99 293.70,267.99 293.70,267.99
             293.70,267.99 289.00,280.00 289.00,280.00
             289.00,280.00 313.00,279.00 313.00,279.00
             313.00,279.00 324.50,276.99 324.50,276.99
             324.50,276.99 328.00,269.00 328.00,269.00 Z
           M 358.00,266.00
           C 358.00,266.00 359.00,266.00 359.00,266.00
             359.00,266.00 358.00,267.00 358.00,267.00
             358.00,267.00 358.00,266.00 358.00,266.00 Z
           M 357.00,268.00
           C 357.00,268.00 358.00,268.00 358.00,268.00
             358.00,268.00 357.00,269.00 357.00,269.00
             357.00,269.00 357.00,268.00 357.00,268.00 Z
           M 44.00,277.00
           C 41.69,267.41 40.29,270.76 25.00,272.00
             25.47,273.20 25.37,273.79 26.59,274.69
             29.26,276.65 40.42,277.00 44.00,277.00 Z
           M 45.00,270.00
           C 45.00,270.00 44.00,270.00 44.00,270.00
             44.00,270.00 45.00,271.00 45.00,271.00
             45.00,271.00 45.00,270.00 45.00,270.00 Z
           M 334.00,270.00
           C 334.00,270.00 330.00,270.00 330.00,270.00
             330.00,270.00 327.00,278.00 327.00,278.00
             332.40,277.08 333.02,275.13 334.00,270.00 Z
           M 351.00,272.00
           C 351.00,272.00 337.00,270.00 337.00,270.00
             337.00,270.00 334.00,277.00 334.00,277.00
             339.26,276.98 348.90,277.82 351.00,272.00 Z
           M 24.00,273.00
           C 24.00,273.00 23.00,273.00 23.00,273.00
             23.00,273.00 24.00,274.00 24.00,274.00
             24.00,274.00 24.00,273.00 24.00,273.00 Z
           M 28.00,277.00
           C 28.00,277.00 27.00,277.00 27.00,277.00
             27.00,277.00 28.00,278.00 28.00,278.00
             28.00,278.00 28.00,277.00 28.00,277.00 Z
           M 24.00,278.00
           C 24.00,278.00 25.00,278.00 25.00,278.00
             25.00,278.00 24.00,279.00 24.00,279.00
             24.00,279.00 24.00,278.00 24.00,278.00 Z
           M 49.00,280.00
           C 49.01,284.91 53.77,293.54 58.00,296.00
             58.00,296.00 49.00,280.00 49.00,280.00 Z
           M 92.00,293.00
           C 92.00,293.00 87.30,282.99 87.30,282.99
             87.30,282.99 79.00,282.00 79.00,282.00
             79.00,282.00 52.00,280.00 52.00,280.00
             53.09,283.44 57.70,293.09 60.61,295.09
             62.89,296.50 66.43,295.42 69.00,295.09
             69.00,295.09 92.00,293.00 92.00,293.00 Z
           M 323.00,280.00
           C 323.00,280.00 298.00,282.00 298.00,282.00
             295.61,282.01 291.41,281.70 289.42,283.02
             286.80,284.76 285.67,290.08 285.00,293.00
             285.00,293.00 306.00,294.98 306.00,294.98
             308.50,295.19 312.53,296.13 314.67,294.98
             318.28,292.94 322.20,283.95 323.00,280.00 Z
           M 330.00,280.00
           C 323.00,281.20 320.03,290.28 317.00,296.00
             317.00,296.00 322.00,297.00 322.00,297.00
             322.00,297.00 330.00,280.00 330.00,280.00 Z
           M 351.00,280.00
           C 351.00,280.00 352.00,280.00 352.00,280.00
             352.00,280.00 351.00,281.00 351.00,281.00
             351.00,281.00 351.00,280.00 351.00,280.00 Z
           M 135.00,284.00
           C 135.00,284.00 116.00,283.00 116.00,283.00
             116.00,283.00 95.00,283.00 95.00,283.00
             95.56,285.47 96.61,290.44 98.70,292.09
             101.20,293.88 107.05,292.45 110.00,292.09
             110.00,292.09 136.00,291.00 136.00,291.00
             136.00,291.00 135.00,284.00 135.00,284.00 Z
           M 284.00,283.00
           C 284.00,283.00 262.00,283.00 262.00,283.00
             262.00,283.00 240.00,284.00 240.00,284.00
             240.00,284.00 239.00,291.00 239.00,291.00
             239.00,291.00 248.00,291.96 248.00,291.96
             248.00,291.96 263.00,291.96 263.00,291.96
             267.06,292.05 276.46,294.07 279.51,291.96
             281.84,290.37 283.26,285.63 284.00,283.00 Z
           M 350.00,282.00
           C 350.00,282.00 351.00,282.00 351.00,282.00
             351.00,282.00 350.00,283.00 350.00,283.00
             350.00,283.00 350.00,282.00 350.00,282.00 Z
           M 27.00,283.00
           C 27.00,283.00 28.00,283.00 28.00,283.00
             28.00,283.00 27.00,284.00 27.00,284.00
             27.00,284.00 27.00,283.00 27.00,283.00 Z
           M 154.00,291.00
           C 153.71,282.89 152.48,284.00 138.00,284.00
             138.00,284.00 139.00,291.00 139.00,291.00
             139.00,291.00 154.00,291.00 154.00,291.00 Z
           M 158.00,284.00
           C 158.51,292.57 160.54,291.12 178.00,291.00
             180.31,290.98 184.29,291.34 185.34,288.70
             187.05,284.42 181.66,284.05 179.00,284.00
             179.00,284.00 169.00,284.00 169.00,284.00
             169.00,284.00 158.00,284.00 158.00,284.00 Z
           M 222.00,284.00
           C 222.00,284.00 197.00,284.00 197.00,284.00
             197.00,284.00 189.60,285.02 189.60,285.02
             189.60,285.02 188.00,291.00 188.00,291.00
             188.00,291.00 213.00,291.00 213.00,291.00
             213.00,291.00 220.26,290.01 220.26,290.01
             220.26,290.01 222.00,284.00 222.00,284.00 Z
           M 237.00,284.00
           C 228.40,284.00 226.47,283.10 226.00,291.00
             234.95,290.99 234.95,291.30 237.00,284.00 Z
           M 346.00,283.00
           C 346.00,283.00 344.00,287.00 344.00,287.00
             344.00,287.00 346.00,283.00 346.00,283.00 Z
           M 28.00,285.00
           C 28.00,285.00 29.00,285.00 29.00,285.00
             29.00,285.00 28.00,286.00 28.00,286.00
             28.00,286.00 28.00,285.00 28.00,285.00 Z
           M 30.00,288.00
           C 30.00,288.00 31.00,288.00 31.00,288.00
             31.00,288.00 30.00,289.00 30.00,289.00
             30.00,289.00 30.00,288.00 30.00,288.00 Z
           M 33.00,289.00
           C 33.00,289.00 39.00,297.00 39.00,297.00
             39.00,297.00 33.00,289.00 33.00,289.00 Z
           M 31.00,290.00
           C 31.00,290.00 32.00,290.00 32.00,290.00
             32.00,290.00 31.00,291.00 31.00,291.00
             31.00,291.00 31.00,290.00 31.00,290.00 Z
           M 186.00,313.00
           C 186.00,313.00 184.98,293.60 184.98,293.60
             184.98,293.60 179.00,292.17 179.00,292.17
             179.00,292.17 159.00,293.00 159.00,293.00
             159.00,293.00 161.00,313.00 161.00,313.00
             161.00,313.00 186.00,313.00 186.00,313.00 Z
           M 221.00,293.00
           C 221.00,293.00 198.00,292.17 198.00,292.17
             195.55,291.94 190.70,291.62 188.99,293.74
             187.33,295.79 188.00,309.63 188.00,313.00
             188.00,313.00 212.00,313.00 212.00,313.00
             212.00,313.00 217.98,311.40 217.98,311.40
             217.98,311.40 221.00,293.00 221.00,293.00 Z
           M 137.00,293.00
           C 137.00,293.00 120.00,294.00 120.00,294.00
             120.00,294.00 99.00,295.00 99.00,295.00
             99.88,298.76 103.06,308.99 106.27,310.98
             108.60,312.42 115.09,312.00 118.00,312.00
             118.00,312.00 142.00,313.00 142.00,313.00
             142.00,313.00 137.00,293.00 137.00,293.00 Z
           M 157.00,313.00
           C 156.85,309.67 155.69,295.82 153.40,294.02
             151.46,292.50 142.78,293.00 140.00,293.00
             140.80,296.96 143.44,309.82 146.51,311.98
             148.54,313.40 154.41,313.00 157.00,313.00 Z
           M 235.00,293.00
           C 235.00,293.00 225.00,293.00 225.00,293.00
             225.00,293.00 223.00,313.00 223.00,313.00
             223.00,313.00 230.00,313.00 230.00,313.00
             230.00,313.00 235.00,293.00 235.00,293.00 Z
           M 279.00,295.00
           C 279.00,295.00 269.00,293.92 269.00,293.92
             269.00,293.92 252.00,293.92 252.00,293.92
             248.95,293.35 241.21,292.06 238.72,293.92
             236.54,295.69 233.29,309.81 233.00,313.00
             233.00,313.00 255.00,312.00 255.00,312.00
             258.39,311.99 267.16,312.53 269.79,310.98
             273.06,309.05 277.38,298.75 279.00,295.00 Z
           M 33.00,293.00
           C 33.00,293.00 34.00,293.00 34.00,293.00
             34.00,293.00 33.00,294.00 33.00,294.00
             33.00,294.00 33.00,293.00 33.00,293.00 Z
           M 101.00,311.00
           C 99.90,307.13 96.06,298.12 92.62,295.93
             90.12,294.50 86.74,295.57 84.00,295.93
             84.00,295.93 62.00,298.00 62.00,298.00
             62.00,298.00 69.46,308.01 69.46,308.01
             69.46,308.01 83.00,310.01 83.00,310.01
             83.00,310.01 101.00,311.00 101.00,311.00 Z
           M 313.00,298.00
           C 307.20,296.35 299.06,296.41 293.00,295.91
             290.52,295.60 286.81,294.48 284.65,295.91
             282.10,297.77 278.75,307.80 278.00,311.00
             278.00,311.00 292.00,310.09 292.00,310.09
             303.36,309.31 308.18,310.61 313.00,298.00 Z
           M 35.00,296.00
           C 35.00,296.00 36.00,296.00 36.00,296.00
             36.00,296.00 35.00,297.00 35.00,297.00
             35.00,297.00 35.00,296.00 35.00,296.00 Z
           M 59.00,298.00
           C 58.30,303.30 62.30,307.32 67.00,309.00
             65.07,304.44 62.79,301.21 59.00,298.00 Z
           M 320.00,298.00
           C 313.41,298.52 311.20,303.24 309.00,309.00
             316.04,307.82 318.58,304.98 320.00,298.00 Z
           M 61.00,308.00
           C 55.45,296.63 53.95,298.94 43.00,301.00
             46.27,307.36 54.48,307.47 61.00,308.00 Z
           M 334.00,301.00
           C 325.01,299.31 321.40,297.36 318.00,308.00
             325.09,306.71 329.87,307.50 334.00,301.00 Z
           M 37.00,299.00
           C 37.00,299.00 38.00,299.00 38.00,299.00
             38.00,299.00 37.00,300.00 37.00,300.00
             37.00,300.00 37.00,299.00 37.00,299.00 Z
           M 42.00,302.00
           C 42.00,302.00 44.00,305.00 44.00,305.00
             44.00,305.00 44.00,304.00 44.00,304.00
             44.00,304.00 42.00,302.00 42.00,302.00 Z
           M 337.00,303.00
           C 337.00,303.00 334.00,302.00 334.00,302.00
             334.00,302.00 333.00,305.00 333.00,305.00
             333.00,305.00 337.00,303.00 337.00,303.00 Z
           M 66.00,310.00
           C 66.30,316.17 72.04,321.51 78.00,322.00
             74.67,316.75 71.85,312.52 66.00,310.00 Z
           M 313.00,310.00
           C 304.99,311.16 301.77,314.97 298.00,322.00
             306.72,321.89 309.89,318.00 313.00,310.00 Z
           M 105.00,319.00
           C 105.00,319.00 101.61,313.57 101.61,313.57
             101.61,313.57 93.00,312.72 93.00,312.72
             93.00,312.72 72.00,311.00 72.00,311.00
             73.59,314.53 76.20,318.97 80.04,320.28
             82.73,321.40 86.21,320.46 89.00,320.28
             89.00,320.28 105.00,319.00 105.00,319.00 Z
           M 304.00,311.00
           C 304.00,311.00 284.00,312.72 284.00,312.72
             284.00,312.72 276.65,313.99 276.65,313.99
             276.65,313.99 274.00,319.00 274.00,319.00
             274.00,319.00 295.83,320.39 295.83,320.39
             299.31,319.06 302.32,314.14 304.00,311.00 Z
           M 327.00,310.00
           C 325.93,314.07 322.31,316.63 319.00,319.00
             319.00,319.00 327.00,310.00 327.00,310.00 Z
           M 108.00,313.00
           C 106.60,318.69 112.01,318.08 116.00,317.99
             116.00,317.99 129.00,317.00 129.00,317.00
             134.11,316.98 139.56,317.87 144.00,315.00
             144.00,315.00 126.00,314.00 126.00,314.00
             126.00,314.00 108.00,313.00 108.00,313.00 Z
           M 269.00,314.00
           C 261.24,314.00 238.14,313.56 232.00,316.00
             239.77,317.39 241.46,316.92 249.00,317.00
             256.06,317.09 264.61,320.85 269.00,314.00 Z
           M 158.00,315.00
           C 158.00,315.00 146.00,316.00 146.00,316.00
             146.00,316.00 158.00,315.00 158.00,315.00 Z
           M 218.00,315.00
           C 218.00,315.00 217.00,315.00 217.00,315.00
             217.00,315.00 218.00,316.00 218.00,316.00
             218.00,316.00 218.00,315.00 218.00,315.00 Z
           M 229.00,315.00
           C 229.00,315.00 222.00,316.00 222.00,316.00
             222.00,316.00 229.00,315.00 229.00,315.00 Z
           M 186.00,317.00
           C 186.00,317.00 162.00,318.00 162.00,318.00
             162.65,321.55 164.38,335.14 166.73,337.00
             169.50,339.20 182.84,337.04 187.00,337.00
             187.00,337.00 186.00,317.00 186.00,317.00 Z
           M 217.00,318.00
           C 217.00,318.00 196.00,317.00 196.00,317.00
             194.18,317.01 191.08,316.85 189.60,318.02
             186.73,320.29 188.02,334.56 189.00,338.00
             196.23,336.26 208.79,339.68 212.44,336.98
             215.45,334.76 216.82,321.85 217.00,318.00 Z
           M 145.00,318.00
           C 145.00,318.00 110.00,320.00 110.00,320.00
             112.49,324.42 119.05,334.41 123.29,336.83
             125.39,338.02 127.66,337.96 130.00,338.00
             130.00,338.00 153.00,338.00 153.00,338.00
             153.00,338.00 145.00,318.00 145.00,318.00 Z
           M 162.00,338.00
           C 161.73,334.76 159.44,320.72 157.27,318.99
             155.48,317.57 149.39,318.00 147.00,318.00
             148.29,321.72 152.90,335.09 155.64,337.01
             157.30,338.18 160.04,337.98 162.00,338.00 Z
           M 228.00,318.00
           C 228.00,318.00 221.00,318.00 221.00,318.00
             221.00,318.00 217.00,338.00 217.00,338.00
             223.83,335.76 225.90,324.31 228.00,318.00 Z
           M 265.00,320.00
           C 265.00,320.00 236.00,318.02 236.00,318.02
             236.00,318.02 230.70,319.60 230.70,319.60
             230.70,319.60 223.00,338.00 223.00,338.00
             223.00,338.00 244.00,338.00 244.00,338.00
             246.60,337.99 249.62,338.19 251.99,336.98
             256.67,334.58 262.66,324.79 265.00,320.00 Z
           M 116.00,337.00
           C 114.43,333.73 108.59,322.57 105.79,320.95
             103.69,319.93 101.24,320.62 99.00,320.95
             99.00,320.95 82.00,323.00 82.00,323.00
             84.75,326.85 89.69,332.57 94.00,334.57
             97.14,336.03 111.94,336.99 116.00,337.00 Z
           M 269.00,320.00
           C 269.00,320.00 255.00,337.00 255.00,337.00
             256.72,336.86 258.11,336.93 259.67,335.98
             263.26,333.80 267.83,324.08 269.00,320.00 Z
           M 294.00,323.00
           C 290.40,322.12 276.13,319.80 273.21,321.19
             270.42,322.52 264.21,333.84 263.00,337.00
             263.00,337.00 272.00,336.17 272.00,336.17
             272.00,336.17 279.00,335.66 279.00,335.66
             284.87,334.46 290.65,327.69 294.00,323.00 Z
           M 91.00,335.00
           C 86.91,329.29 82.57,323.26 75.00,324.00
             79.96,331.02 82.17,334.25 91.00,335.00 Z
           M 303.00,323.88
           C 301.25,323.79 298.68,323.31 297.00,323.88
             293.01,324.85 287.40,331.65 285.00,335.00
             295.30,334.53 297.18,332.38 303.00,323.88 Z
           M 311.00,326.00
           C 303.25,324.71 301.57,326.65 297.00,333.00
             304.25,332.84 306.57,332.00 311.00,326.00 Z
           M 117.00,332.00
           C 117.00,332.00 116.00,332.00 116.00,332.00
             116.00,332.00 117.00,333.00 117.00,333.00
             117.00,333.00 117.00,332.00 117.00,332.00 Z
           M 101.00,342.00
           C 94.31,337.11 94.39,336.08 86.00,336.00
             89.85,340.94 94.70,346.04 101.00,342.00 Z
           M 120.00,336.00
           C 120.00,336.00 119.00,336.00 119.00,336.00
             119.00,336.00 120.00,337.00 120.00,337.00
             120.00,337.00 120.00,336.00 120.00,336.00 Z
           M 292.00,336.00
           C 282.55,336.03 282.65,336.45 275.00,342.00
             282.64,346.53 287.20,342.16 292.00,336.00 Z
           M 118.00,341.00
           C 117.18,339.82 117.28,339.43 115.73,338.72
             113.18,337.56 98.66,336.95 96.00,338.00
             106.94,345.16 104.59,341.12 118.00,341.00 Z
           M 279.00,337.00
           C 279.00,337.00 263.11,338.59 263.11,338.59
             263.11,338.59 260.00,341.00 260.00,341.00
             268.79,341.19 272.99,344.71 279.00,337.00 Z
           M 126.00,339.00
           C 126.00,339.00 125.00,339.00 125.00,339.00
             125.00,339.00 126.00,340.00 126.00,340.00
             126.00,340.00 126.00,339.00 126.00,339.00 Z
           M 258.00,339.00
           C 258.00,339.00 253.00,340.00 253.00,340.00
             253.00,340.00 258.00,339.00 258.00,339.00 Z
           M 80.00,339.00
           C 80.00,339.00 81.00,339.00 81.00,339.00
             81.00,339.00 80.00,340.00 80.00,340.00
             80.00,340.00 80.00,339.00 80.00,339.00 Z
           M 163.00,356.00
           C 161.73,352.67 156.47,342.80 153.62,341.02
             151.63,339.78 148.31,340.00 146.00,340.00
             146.00,340.00 127.00,341.00 127.00,341.00
             130.42,345.78 139.24,355.09 145.00,356.57
             145.00,356.57 163.00,356.00 163.00,356.00 Z
           M 167.00,356.00
           C 166.72,352.86 164.68,342.86 162.28,340.99
             160.86,339.89 158.69,340.05 157.00,340.00
             158.15,345.67 161.86,353.12 167.00,356.00 Z
           M 213.00,341.00
           C 213.00,341.00 188.00,341.00 188.00,341.00
             188.00,341.00 188.00,355.00 188.00,355.00
             188.00,355.00 209.00,355.00 209.00,355.00
             209.00,355.00 213.00,341.00 213.00,341.00 Z
           M 219.00,340.00
           C 219.00,340.00 217.00,340.00 217.00,340.00
             215.31,343.32 213.99,345.26 215.00,349.00
             215.00,349.00 219.00,340.00 219.00,340.00 Z
           M 249.00,341.00
           C 249.00,341.00 229.00,340.00 229.00,340.00
             229.00,340.00 221.63,340.99 221.63,340.99
             221.63,340.99 213.00,356.00 213.00,356.00
             213.00,356.00 231.00,356.56 231.00,356.56
             236.69,355.17 245.63,345.71 249.00,341.00 Z
           M 124.00,341.00
           C 123.51,345.85 130.82,353.88 135.00,355.98
             137.25,357.11 139.56,356.97 142.00,357.00
             142.00,357.00 124.00,341.00 124.00,341.00 Z
           M 187.00,341.00
           C 187.00,341.00 167.00,341.00 167.00,341.00
             167.25,343.99 168.34,352.16 170.72,354.01
             172.75,355.58 183.91,355.00 187.00,355.00
             187.00,355.00 187.00,341.00 187.00,341.00 Z
           M 256.00,342.06
           C 256.00,342.06 251.00,342.06 251.00,342.06
             251.00,342.06 234.00,356.79 234.00,356.79
             236.10,357.00 240.06,357.11 241.96,356.79
             246.69,355.22 253.37,346.15 256.00,342.06 Z
           M 294.00,340.00
           C 294.00,340.00 295.00,340.00 295.00,340.00
             295.00,340.00 294.00,341.00 294.00,341.00
             294.00,341.00 294.00,340.00 294.00,340.00 Z
           M 132.00,357.00
           C 130.22,353.23 128.89,352.06 126.16,349.00
             120.65,342.83 120.43,341.49 112.00,342.73
             108.69,343.22 107.85,343.15 105.00,345.00
             105.00,345.00 115.00,352.00 115.00,352.00
             107.90,347.23 105.55,342.98 97.00,346.00
             102.61,351.57 110.79,357.25 119.00,354.00
             119.00,354.00 118.00,354.00 118.00,354.00
             118.00,354.00 116.00,352.00 116.00,352.00
             123.38,356.73 123.88,355.54 132.00,357.00 Z
           M 275.00,350.00
           C 275.00,350.00 274.00,353.00 274.00,353.00
             274.00,353.00 277.00,354.00 277.00,354.00
             277.00,354.00 265.00,358.00 265.00,358.00
             265.00,358.00 258.00,355.00 258.00,355.00
             265.53,354.93 268.79,354.60 275.00,350.00 Z
           M 105.00,353.00
           C 105.00,353.00 104.00,353.00 104.00,353.00
             104.00,353.00 105.00,354.00 105.00,354.00
             105.00,354.00 105.00,353.00 105.00,353.00 Z
           M 111.00,355.00
           C 111.00,355.00 110.00,355.00 110.00,355.00
             110.00,355.00 111.00,356.00 111.00,356.00
             111.00,356.00 111.00,355.00 111.00,355.00 Z
           M 187.00,359.00
           C 187.00,359.00 185.41,356.59 185.41,356.59
             185.41,356.59 171.00,356.00 171.00,356.00
             171.00,356.00 171.00,358.00 171.00,358.00
             171.00,358.00 187.00,359.00 187.00,359.00 Z
           M 208.00,357.00
           C 202.80,355.52 192.46,354.72 188.00,358.00
             188.00,358.00 208.00,357.00 208.00,357.00 Z
           M 165.00,357.00
           C 165.00,357.00 155.00,358.00 155.00,358.00
             155.00,358.00 165.00,357.00 165.00,357.00 Z
           M 168.00,357.00
           C 168.00,357.00 167.00,357.00 167.00,357.00
             167.00,357.00 168.00,358.00 168.00,358.00
             168.00,358.00 168.00,357.00 168.00,357.00 Z
           M 222.00,357.00
           C 222.00,357.00 211.00,358.00 211.00,358.00
             211.00,358.00 222.00,357.00 222.00,357.00 Z
           M 250.00,357.00
           C 250.00,357.00 244.00,359.00 244.00,359.00
             244.00,359.00 250.00,357.00 250.00,357.00 Z
           M 112.00,357.00
           C 112.00,357.00 116.00,360.00 116.00,360.00
             116.00,360.00 112.00,357.00 112.00,357.00 Z
           M 263.00,358.00
           C 263.00,358.00 264.00,358.00 264.00,358.00
             264.00,358.00 263.00,359.00 263.00,359.00
             263.00,359.00 263.00,358.00 263.00,358.00 Z
           M 170.00,360.00
           C 170.00,360.00 169.00,360.00 169.00,360.00
             169.00,360.00 170.00,361.00 170.00,361.00
             170.00,361.00 170.00,360.00 170.00,360.00 Z
           M 261.00,359.00
           C 261.00,359.00 262.00,359.00 262.00,359.00
             262.00,359.00 261.00,360.00 261.00,360.00
             261.00,360.00 261.00,359.00 261.00,359.00 Z
           M 117.00,360.00
           C 117.00,360.00 118.00,360.00 118.00,360.00
             118.00,360.00 117.00,361.00 117.00,361.00
             117.00,361.00 117.00,360.00 117.00,360.00 Z
           M 259.00,360.00
           C 259.00,360.00 260.00,360.00 260.00,360.00
             260.00,360.00 259.00,361.00 259.00,361.00
             259.00,361.00 259.00,360.00 259.00,360.00 Z
           M 150.00,361.00
           C 150.00,361.00 154.00,364.00 154.00,364.00
             154.00,364.00 150.00,361.00 150.00,361.00 Z
           M 222.00,363.00
           C 222.00,363.00 223.00,363.00 223.00,363.00
             223.00,363.00 222.00,364.00 222.00,364.00
             222.00,364.00 222.00,363.00 222.00,363.00 Z
           M 155.00,364.00
           C 155.00,364.00 156.00,364.00 156.00,364.00
             156.00,364.00 155.00,365.00 155.00,365.00
             155.00,365.00 155.00,364.00 155.00,364.00 Z
           M 220.00,364.00
           C 220.00,364.00 221.00,364.00 221.00,364.00
             221.00,364.00 220.00,365.00 220.00,365.00
             220.00,365.00 220.00,364.00 220.00,364.00 Z
           M 157.00,365.00
           C 157.00,365.00 158.00,365.00 158.00,365.00
             158.00,365.00 157.00,366.00 157.00,366.00
             157.00,366.00 157.00,365.00 157.00,365.00 Z
           M 204.00,366.00
           C 204.00,366.00 203.00,366.00 203.00,366.00
             203.00,366.00 204.00,367.00 204.00,367.00
             204.00,367.00 204.00,366.00 204.00,366.00 Z
           M 203.00,367.00
           C 203.00,367.00 202.00,367.00 202.00,367.00
             202.00,367.00 203.00,368.00 203.00,368.00
             203.00,368.00 203.00,367.00 203.00,367.00 Z
           M 132.00,367.00
           C 132.00,367.00 133.00,367.00 133.00,367.00
             133.00,367.00 132.00,368.00 132.00,368.00
             132.00,368.00 132.00,367.00 132.00,367.00 Z
           M 245.00,367.00
           C 245.00,367.00 246.00,367.00 246.00,367.00
             246.00,367.00 245.00,368.00 245.00,368.00
             245.00,368.00 245.00,367.00 245.00,367.00 Z
           M 135.00,368.00
           C 135.00,368.00 136.00,368.00 136.00,368.00
             136.00,368.00 135.00,369.00 135.00,369.00
             135.00,369.00 135.00,368.00 135.00,368.00 Z
           M 177.00,369.00
           C 177.00,369.00 176.00,369.00 176.00,369.00
             176.00,369.00 177.00,370.00 177.00,370.00
             177.00,370.00 177.00,369.00 177.00,369.00 Z
           M 241.00,368.00
           C 241.00,368.00 242.00,368.00 242.00,368.00
             242.00,368.00 241.00,369.00 241.00,369.00
             241.00,369.00 241.00,368.00 241.00,368.00 Z
           M 143.00,369.00
           C 143.00,369.00 144.00,369.00 144.00,369.00
             144.00,369.00 143.00,370.00 143.00,370.00
             143.00,370.00 143.00,369.00 143.00,369.00 Z
           M 147.00,369.00
           C 147.00,369.00 148.00,369.00 148.00,369.00
             148.00,369.00 147.00,370.00 147.00,370.00
             147.00,370.00 147.00,369.00 147.00,369.00 Z
           M 153.00,370.00
           C 153.00,370.00 170.00,370.00 170.00,370.00
             164.09,371.52 161.41,369.65 157.00,374.00
             157.00,374.00 155.00,374.00 155.00,374.00
             155.00,374.00 153.00,370.00 153.00,370.00 Z
           M 178.00,370.00
           C 178.00,370.00 177.00,370.00 177.00,370.00
             177.00,370.00 178.00,371.00 178.00,371.00
             178.00,371.00 178.00,370.00 178.00,370.00 Z
           M 207.00,369.00
           C 207.00,369.00 225.00,371.00 225.00,371.00
             225.00,371.00 222.00,374.00 222.00,374.00
             222.00,374.00 220.00,374.00 220.00,374.00
             220.00,374.00 207.00,369.00 207.00,369.00 Z
           M 171.00,371.00
           C 171.00,371.00 172.00,371.00 172.00,371.00
             172.00,371.00 171.00,372.00 171.00,372.00
             171.00,372.00 171.00,371.00 171.00,371.00 Z" />
</svg>
