<?xml version="1.0" encoding="UTF-8" standalone="no"?>
<!DOCTYPE svg PUBLIC "-//W3C//DTD SVG 20010904//EN"
              "http://www.w3.org/TR/2001/REC-SVG-20010904/DTD/svg10.dtd">

<svg xmlns="http://www.w3.org/2000/svg"
     width="1.25667in" height="1.25667in"
     viewBox="0 0 377 377">
  <path id="Auswahl #9"
        fill="none" stroke="black" stroke-width="1"
        d="M 185.00,0.00
           C 185.00,0.00 187.00,0.00 187.00,0.00
             187.00,0.00 183.00,18.00 183.00,18.00
             183.00,18.00 202.00,18.00 202.00,18.00
             202.00,18.00 196.00,8.00 196.00,8.00
             196.00,8.00 204.32,16.98 204.32,16.98
             204.32,16.98 218.00,19.00 218.00,19.00
             213.85,10.94 213.43,11.32 206.00,8.00
             206.00,8.00 210.00,7.00 210.00,7.00
             210.00,7.00 204.00,2.00 204.00,2.00
             207.99,3.93 218.75,10.30 221.00,3.00
             221.00,3.00 225.00,4.00 225.00,4.00
             220.95,8.26 218.58,7.95 213.00,8.00
             213.00,8.00 219.00,16.00 219.00,16.00
             219.00,16.00 228.00,18.89 228.00,18.89
             228.00,18.89 241.00,18.89 241.00,18.89
             241.00,18.89 240.00,16.00 240.00,16.00
             240.00,16.00 247.00,18.00 247.00,18.00
             247.00,18.00 241.00,12.00 241.00,12.00
             245.27,14.08 252.73,19.49 255.00,12.00
             259.37,15.61 254.25,17.21 251.00,19.00
             251.00,19.00 283.00,26.00 283.00,26.00
             283.00,26.00 256.00,22.00 256.00,22.00
             256.00,22.00 270.28,33.81 270.28,33.81
             270.28,33.81 282.00,32.00 282.00,32.00
             282.00,32.00 280.00,30.00 280.00,30.00
             280.00,30.00 280.00,29.00 280.00,29.00
             281.85,29.74 282.98,30.91 284.00,29.00
             284.00,29.00 288.00,28.00 288.00,28.00
             288.00,28.00 290.00,34.00 290.00,34.00
             290.00,34.00 286.00,32.00 286.00,32.00
             286.00,32.00 289.00,36.00 289.00,36.00
             282.15,32.52 278.27,34.67 271.00,36.00
             271.00,36.00 276.00,39.98 276.00,39.98
             276.00,39.98 297.00,43.00 297.00,43.00
             297.00,43.00 290.00,36.00 290.00,36.00
             290.00,36.00 294.00,38.00 294.00,38.00
             294.00,38.00 291.00,34.00 291.00,34.00
             291.00,34.00 299.00,42.00 299.00,42.00
             299.00,42.00 297.00,40.00 297.00,40.00
             297.00,40.00 297.00,39.00 297.00,39.00
             297.00,39.00 314.00,48.00 314.00,48.00
             314.00,48.00 305.00,46.00 305.00,46.00
             309.56,50.29 310.08,51.50 316.00,49.00
             316.00,49.00 313.00,53.00 313.00,53.00
             315.54,57.75 322.45,66.38 327.00,69.15
             332.78,72.68 335.71,69.91 340.00,77.00
             340.00,77.00 334.00,79.00 334.00,79.00
             335.24,82.25 344.03,97.38 346.39,99.27
             350.70,102.72 353.67,99.57 358.00,106.00
             358.00,106.00 350.00,109.00 350.00,109.00
             353.39,115.55 357.88,126.77 359.00,134.00
             359.00,134.00 370.00,136.00 370.00,136.00
             370.00,136.00 370.00,139.00 370.00,139.00
             370.00,139.00 362.00,140.00 362.00,140.00
             362.00,140.00 365.27,160.00 365.27,160.00
             365.27,160.00 367.60,168.40 367.60,168.40
             367.60,168.40 376.00,170.00 376.00,170.00
             376.00,170.00 376.00,173.00 376.00,173.00
             376.00,173.00 368.60,174.74 368.60,174.74
             368.60,174.74 367.00,183.00 367.00,183.00
             367.00,183.00 367.00,205.00 367.00,205.00
             367.00,205.00 376.00,205.00 376.00,205.00
             376.00,205.00 376.00,208.00 376.00,208.00
             376.00,208.00 366.00,209.00 366.00,209.00
             366.00,209.00 361.00,238.00 361.00,238.00
             361.00,238.00 370.00,240.00 370.00,240.00
             365.83,245.92 363.05,242.40 359.70,245.60
             357.99,247.23 356.80,251.69 355.95,254.00
             355.95,254.00 350.00,270.00 350.00,270.00
             350.00,270.00 357.00,272.00 357.00,272.00
             353.31,278.91 349.89,275.74 345.38,279.56
             343.21,281.40 334.54,295.83 333.00,299.00
             333.00,299.00 339.00,301.00 339.00,301.00
             335.07,308.73 330.68,305.77 325.01,309.58
             321.93,311.66 313.97,321.58 311.00,325.00
             314.07,326.07 313.93,325.93 315.00,329.00
             308.84,327.08 308.82,327.51 304.00,332.00
             304.00,332.00 312.00,331.00 312.00,331.00
             312.00,331.00 297.00,338.00 297.00,338.00
             297.00,338.00 297.00,337.00 297.00,337.00
             297.00,337.00 299.00,335.00 299.00,335.00
             299.00,335.00 291.00,343.00 291.00,343.00
             291.00,343.00 294.00,339.00 294.00,339.00
             294.00,339.00 290.00,341.00 290.00,341.00
             290.00,341.00 296.00,335.00 296.00,335.00
             296.00,335.00 275.00,338.02 275.00,338.02
             275.00,338.02 270.00,342.00 270.00,342.00
             270.00,342.00 285.00,344.00 285.00,344.00
             285.00,344.00 290.00,343.00 290.00,343.00
             290.00,343.00 286.00,350.00 286.00,350.00
             286.00,350.00 280.00,348.00 280.00,348.00
             278.97,345.33 276.72,344.97 274.00,344.45
             265.98,342.91 265.91,348.07 255.00,355.00
             255.00,355.00 257.00,357.00 257.00,357.00
             257.00,357.00 250.00,360.00 250.00,360.00
             250.00,360.00 257.00,364.00 257.00,364.00
             257.00,364.00 254.00,365.00 254.00,365.00
             248.11,358.61 247.23,363.73 241.00,364.00
             241.00,364.00 246.00,360.00 246.00,360.00
             246.00,360.00 240.00,361.00 240.00,361.00
             237.60,355.68 223.30,360.54 219.00,361.00
             219.00,361.00 213.00,369.00 213.00,369.00
             218.18,370.26 220.15,369.20 224.00,373.00
             224.00,373.00 220.00,374.00 220.00,374.00
             217.44,367.40 208.23,373.82 204.00,374.00
             204.00,374.00 209.00,370.00 209.00,370.00
             209.00,370.00 206.00,369.00 206.00,369.00
             212.54,367.98 214.36,364.10 218.00,359.00
             205.92,359.00 205.12,357.48 198.00,368.00
             198.00,368.00 204.00,369.00 204.00,369.00
             204.00,369.00 195.00,368.00 195.00,368.00
             195.00,368.00 201.00,360.00 201.00,360.00
             201.00,360.00 183.00,360.00 183.00,360.00
             183.00,360.00 185.00,370.00 185.00,370.00
             185.00,370.00 195.00,372.00 195.00,372.00
             195.00,372.00 185.00,372.00 185.00,372.00
             185.00,372.00 187.00,377.00 187.00,377.00
             187.00,377.00 181.00,369.00 181.00,369.00
             181.00,369.00 181.00,360.00 181.00,360.00
             181.00,360.00 162.00,359.00 162.00,359.00
             162.00,359.00 167.00,365.00 167.00,365.00
             156.76,357.80 160.01,359.00 147.00,359.00
             147.00,359.00 159.00,368.73 159.00,368.73
             159.00,368.73 170.00,370.00 170.00,370.00
             166.62,370.46 158.21,370.71 157.00,374.00
             157.00,374.00 154.00,370.00 154.00,370.00
             154.00,370.00 157.00,369.00 157.00,369.00
             157.00,369.00 143.00,360.00 143.00,360.00
             143.00,360.00 146.00,361.00 146.00,361.00
             146.00,361.00 142.00,360.00 142.00,360.00
             136.67,358.82 130.35,359.52 126.00,363.00
             126.00,363.00 124.00,362.00 124.00,362.00
             124.00,362.00 122.00,365.00 122.00,365.00
             122.00,365.00 122.00,360.00 122.00,360.00
             122.00,360.00 133.00,358.00 133.00,358.00
             123.50,356.75 114.01,357.85 105.00,354.00
             105.00,354.00 111.00,354.00 111.00,354.00
             107.16,350.85 95.78,340.86 93.00,350.00
             93.00,350.00 89.00,347.00 89.00,347.00
             89.00,347.00 96.00,344.00 96.00,344.00
             96.00,344.00 85.00,336.08 85.00,336.08
             85.00,336.08 71.00,333.00 71.00,333.00
             71.00,333.00 78.00,340.00 78.00,340.00
             78.00,340.00 65.00,331.00 65.00,331.00
             65.00,331.00 65.00,328.00 65.00,328.00
             65.00,328.00 62.00,329.00 62.00,329.00
             62.00,329.00 54.00,317.00 54.00,317.00
             54.00,317.00 64.00,324.08 64.00,324.08
             64.00,324.08 72.00,323.00 72.00,323.00
             67.41,318.31 62.40,310.62 56.00,309.19
             53.64,308.66 50.08,307.54 49.00,310.00
             43.74,306.95 41.11,306.45 38.00,301.00
             39.56,297.13 36.72,294.27 34.68,291.00
             34.68,291.00 28.37,280.14 28.37,280.14
             24.59,275.58 22.09,277.89 20.00,271.00
             20.00,271.00 24.00,271.00 24.00,271.00
             24.00,271.00 16.67,252.00 16.67,252.00
             15.10,247.43 14.46,244.05 9.00,244.00
             9.00,244.00 7.00,240.00 7.00,240.00
             7.00,240.00 13.00,238.00 13.00,238.00
             10.28,230.57 8.07,216.95 8.00,209.00
             8.00,209.00 2.00,209.00 2.00,209.00
             2.00,209.00 1.00,205.00 1.00,205.00
             1.00,205.00 7.00,205.00 7.00,205.00
             7.00,205.00 7.00,173.00 7.00,173.00
             7.00,173.00 1.00,174.00 1.00,174.00
             1.00,174.00 1.00,170.00 1.00,170.00
             1.00,170.00 6.98,167.69 6.98,167.69
             6.98,167.69 8.73,159.00 8.73,159.00
             8.73,159.00 12.00,140.00 12.00,140.00
             12.00,140.00 7.00,140.00 7.00,140.00
             8.29,132.64 11.53,137.05 14.35,131.85
             14.35,131.85 23.00,108.00 23.00,108.00
             23.00,108.00 19.00,107.00 19.00,107.00
             21.64,99.56 23.87,103.15 27.90,97.88
             27.90,97.88 40.00,78.00 40.00,78.00
             33.78,75.21 46.50,68.71 49.00,67.00
             49.00,67.00 47.00,71.00 47.00,71.00
             47.00,71.00 58.00,67.99 58.00,67.99
             58.00,67.99 71.00,55.00 71.00,55.00
             59.48,53.39 63.71,53.10 54.00,60.00
             54.00,60.00 61.00,49.00 61.00,49.00
             61.00,49.00 64.00,50.00 64.00,50.00
             65.69,44.76 73.43,39.90 78.00,37.00
             78.00,37.00 70.00,45.00 70.00,45.00
             70.00,45.00 83.00,42.28 83.00,42.28
             83.00,42.28 95.00,34.00 95.00,34.00
             95.00,34.00 87.00,31.00 87.00,31.00
             87.00,31.00 91.00,28.00 91.00,28.00
             97.44,35.06 101.23,29.23 111.00,24.00
             111.00,24.00 109.00,22.00 109.00,22.00
             109.00,22.00 118.00,19.00 118.00,19.00
             123.17,21.68 127.57,20.59 133.00,19.00
             133.00,19.00 119.00,19.00 119.00,19.00
             119.00,19.00 119.00,18.00 119.00,18.00
             119.00,18.00 121.00,16.00 121.00,16.00
             121.00,16.00 120.00,16.00 120.00,16.00
             120.00,16.00 119.00,14.00 119.00,14.00
             119.00,14.00 120.00,13.00 120.00,13.00
             120.00,13.00 126.00,14.00 126.00,14.00
             128.00,19.25 137.68,18.42 142.00,17.00
             143.17,18.71 144.59,16.96 146.00,16.00
             146.00,16.00 143.00,16.00 143.00,16.00
             143.00,16.00 156.00,7.00 156.00,7.00
             156.00,7.00 152.00,4.00 152.00,4.00
             152.00,4.00 155.00,3.00 155.00,3.00
             158.49,6.26 160.44,5.59 165.00,6.00
             165.00,6.00 165.00,8.00 165.00,8.00
             155.27,8.12 152.60,12.42 146.00,19.00
             160.02,19.00 155.93,19.81 167.00,12.00
             167.00,12.00 162.00,19.00 162.00,19.00
             162.00,19.00 178.69,16.98 178.69,16.98
             178.69,16.98 185.00,0.00 185.00,0.00 Z
           M 164.00,3.00
           C 164.00,3.00 165.00,3.00 165.00,3.00
             165.00,3.00 164.00,4.00 164.00,4.00
             164.00,4.00 164.00,3.00 164.00,3.00 Z
           M 162.00,4.00
           C 162.00,4.00 163.00,4.00 163.00,4.00
             163.00,4.00 162.00,5.00 162.00,5.00
             162.00,5.00 162.00,4.00 162.00,4.00 Z
           M 170.00,6.00
           C 170.00,6.00 177.00,7.00 177.00,7.00
             177.00,7.00 170.00,6.00 170.00,6.00 Z
           M 200.00,6.00
           C 200.00,6.00 201.00,6.00 201.00,6.00
             201.00,6.00 200.00,7.00 200.00,7.00
             200.00,7.00 200.00,6.00 200.00,6.00 Z
           M 227.00,7.00
           C 227.00,7.00 232.00,8.00 232.00,8.00
             232.00,8.00 227.00,7.00 227.00,7.00 Z
           M 167.00,8.00
           C 167.00,8.00 178.00,9.00 178.00,9.00
             178.00,9.00 167.00,8.00 167.00,8.00 Z
           M 199.00,8.00
           C 199.00,8.00 205.00,9.00 205.00,9.00
             205.00,9.00 199.00,8.00 199.00,8.00 Z
           M 233.00,8.00
           C 233.00,8.00 240.00,12.00 240.00,12.00
             240.00,12.00 233.00,8.00 233.00,8.00 Z
           M 244.00,9.00
           C 244.00,9.00 245.00,9.00 245.00,9.00
             245.00,9.00 244.00,10.00 244.00,10.00
             244.00,10.00 244.00,9.00 244.00,9.00 Z
           M 129.00,12.00
           C 129.00,12.00 130.00,12.00 130.00,12.00
             130.00,12.00 129.00,13.00 129.00,13.00
             129.00,13.00 129.00,12.00 129.00,12.00 Z
           M 127.00,13.00
           C 127.00,13.00 128.00,13.00 128.00,13.00
             128.00,13.00 127.00,14.00 127.00,14.00
             127.00,14.00 127.00,13.00 127.00,13.00 Z
           M 147.00,15.00
           C 147.00,15.00 146.00,15.00 146.00,15.00
             146.00,15.00 147.00,16.00 147.00,16.00
             147.00,16.00 147.00,15.00 147.00,15.00 Z
           M 221.00,16.00
           C 221.00,16.00 223.00,19.00 223.00,19.00
             223.00,19.00 223.00,18.00 223.00,18.00
             223.00,18.00 221.00,16.00 221.00,16.00 Z
           M 238.00,15.00
           C 238.00,15.00 239.00,15.00 239.00,15.00
             239.00,15.00 238.00,16.00 238.00,16.00
             238.00,16.00 238.00,15.00 238.00,15.00 Z
           M 180.00,19.00
           C 173.57,19.00 164.96,18.56 159.00,21.00
             159.00,21.00 180.00,21.00 180.00,21.00
             180.00,21.00 180.00,19.00 180.00,19.00 Z
           M 203.00,19.00
           C 203.00,19.00 183.00,19.00 183.00,19.00
             183.00,19.00 183.00,21.00 183.00,21.00
             183.00,21.00 203.00,21.00 203.00,21.00
             203.00,21.00 203.00,19.00 203.00,19.00 Z
           M 219.00,20.00
           C 219.00,20.00 205.00,19.00 205.00,19.00
             205.00,19.00 205.00,21.00 205.00,21.00
             205.00,21.00 219.00,20.00 219.00,20.00 Z
           M 245.00,19.00
           C 245.00,19.00 244.00,19.00 244.00,19.00
             244.00,19.00 245.00,20.00 245.00,20.00
             245.00,20.00 245.00,19.00 245.00,19.00 Z
           M 251.00,19.00
           C 251.00,19.00 246.00,20.00 246.00,20.00
             246.00,20.00 251.00,19.00 251.00,19.00 Z
           M 157.00,20.00
           C 157.00,20.00 156.00,20.00 156.00,20.00
             156.00,20.00 157.00,21.00 157.00,21.00
             157.00,21.00 157.00,20.00 157.00,20.00 Z
           M 134.00,21.00
           C 122.04,21.04 108.05,21.79 102.00,34.00
             102.00,34.00 116.00,35.23 116.00,35.23
             116.00,35.23 134.00,21.00 134.00,21.00 Z
           M 141.00,21.00
           C 132.43,21.50 123.86,29.28 119.00,36.20
             121.87,36.23 127.33,37.42 129.79,36.20
             132.84,35.13 139.62,24.24 141.00,21.00 Z
           M 156.00,22.00
           C 147.18,19.85 144.00,20.32 138.75,28.00
             136.66,31.04 135.27,33.55 134.00,37.00
             143.79,39.38 144.35,37.31 149.90,30.00
             149.90,30.00 156.00,22.00 156.00,22.00 Z
           M 241.00,38.00
           C 238.09,31.18 230.57,22.22 223.00,21.00
             224.19,24.25 229.43,36.10 232.27,37.40
             234.04,38.21 238.89,38.00 241.00,38.00 Z
           M 259.00,27.00
           C 251.86,18.69 237.91,21.00 228.00,21.00
             230.63,24.20 240.73,35.20 244.00,36.40
             247.53,37.70 261.77,35.76 266.00,35.00
             266.00,35.00 255.00,25.00 255.00,25.00
             255.00,25.00 259.00,27.00 259.00,27.00 Z
           M 179.00,22.00
           C 174.76,22.00 160.25,21.32 157.29,23.02
             153.71,25.08 148.13,34.21 146.00,38.00
             146.00,38.00 161.00,38.00 161.00,38.00
             161.00,38.00 177.00,37.00 177.00,37.00
             177.00,37.00 179.00,22.00 179.00,22.00 Z
           M 209.00,37.00
           C 208.46,33.48 206.50,25.08 203.50,22.87
             201.23,21.46 197.54,22.24 195.00,22.87
             195.00,22.87 182.00,22.87 182.00,22.87
             182.00,22.87 181.00,37.00 181.00,37.00
             181.00,37.00 209.00,37.00 209.00,37.00 Z
           M 227.00,38.00
           C 226.38,34.04 223.42,24.35 219.61,22.57
             217.69,21.68 208.65,22.00 206.00,22.00
             206.90,25.17 210.63,36.08 213.41,37.43
             215.28,38.33 224.39,38.00 227.00,38.00 Z
           M 103.00,23.00
           C 103.00,23.00 108.00,24.00 108.00,24.00
             108.00,24.00 103.00,23.00 103.00,23.00 Z
           M 95.00,25.00
           C 95.00,25.00 102.00,25.00 102.00,25.00
             102.00,25.00 95.00,25.00 95.00,25.00 Z
           M 273.00,25.00
           C 273.00,25.00 274.00,25.00 274.00,25.00
             274.00,25.00 273.00,26.00 273.00,26.00
             273.00,26.00 273.00,25.00 273.00,25.00 Z
           M 260.00,27.00
           C 260.00,27.00 259.00,27.00 259.00,27.00
             259.00,27.00 260.00,28.00 260.00,28.00
             260.00,28.00 260.00,27.00 260.00,27.00 Z
           M 281.00,27.00
           C 281.00,27.00 282.00,27.00 282.00,27.00
             282.00,27.00 281.00,28.00 281.00,28.00
             281.00,28.00 281.00,27.00 281.00,27.00 Z
           M 278.00,28.00
           C 278.00,28.00 279.00,28.00 279.00,28.00
             279.00,28.00 278.00,29.00 278.00,29.00
             278.00,29.00 278.00,28.00 278.00,28.00 Z
           M 100.00,32.00
           C 100.00,32.00 99.00,32.00 99.00,32.00
             99.00,32.00 100.00,33.00 100.00,33.00
             100.00,33.00 100.00,32.00 100.00,32.00 Z
           M 98.00,34.00
           C 98.00,34.00 87.00,42.00 87.00,42.00
             92.84,41.05 94.65,38.66 98.00,34.00 Z
           M 115.00,37.00
           C 103.59,36.07 100.64,32.04 94.00,41.00
             99.93,40.98 110.65,41.01 115.00,37.00 Z
           M 271.00,40.00
           C 269.89,38.77 269.60,38.02 267.89,37.31
             264.58,35.93 256.24,37.51 253.00,39.00
             253.00,39.00 271.00,40.00 271.00,40.00 Z
           M 124.00,38.00
           C 124.00,38.00 116.00,39.00 116.00,39.00
             116.00,39.00 124.00,38.00 124.00,38.00 Z
           M 295.00,38.00
           C 295.00,38.00 294.00,38.00 294.00,38.00
             294.00,38.00 295.00,39.00 295.00,39.00
             295.00,39.00 295.00,38.00 295.00,38.00 Z
           M 128.00,40.00
           C 128.00,40.00 114.00,41.60 114.00,41.60
             108.75,43.53 102.76,52.20 100.00,57.00
             102.86,57.81 117.27,59.44 119.37,58.00
             121.88,56.28 127.22,43.28 128.00,40.00 Z
           M 142.00,40.00
           C 139.40,40.00 134.54,39.65 132.39,41.02
             128.71,43.37 124.78,54.68 124.00,59.00
             124.00,59.00 132.00,60.00 132.00,60.00
             132.00,60.00 142.00,40.00 142.00,40.00 Z
           M 176.00,40.00
           C 176.00,40.00 153.00,40.00 153.00,40.00
             150.62,40.00 147.29,39.80 145.21,41.02
             141.74,43.07 136.17,55.89 135.00,60.14
             135.00,60.14 160.00,60.14 160.00,60.14
             162.75,60.79 170.06,61.79 172.26,60.14
             173.92,58.67 173.91,55.94 174.15,54.00
             174.15,54.00 176.00,40.00 176.00,40.00 Z
           M 211.00,40.00
           C 211.00,40.00 188.00,40.00 188.00,40.00
             186.04,40.04 183.38,39.90 182.02,41.60
             180.02,44.11 180.00,57.36 180.00,61.00
             180.00,61.00 216.00,60.00 216.00,60.00
             216.00,60.00 211.00,40.00 211.00,40.00 Z
           M 229.00,40.00
           C 229.00,40.00 213.00,40.00 213.00,40.00
             213.00,40.00 218.00,60.00 218.00,60.00
             218.00,60.00 235.00,60.00 235.00,60.00
             235.00,60.00 229.00,40.00 229.00,40.00 Z
           M 255.00,59.20
           C 253.61,54.59 247.02,42.36 242.82,40.60
             240.77,39.74 234.50,40.00 232.00,40.00
             233.02,43.78 237.04,57.95 240.27,59.20
             242.13,60.22 251.88,59.01 255.00,59.20 Z
           M 282.00,57.00
           C 280.56,52.48 276.12,44.66 271.83,42.43
             268.36,40.63 262.86,41.08 259.00,40.99
             259.00,40.99 246.00,40.00 246.00,40.00
             246.00,40.00 253.94,53.00 253.94,53.00
             253.94,53.00 258.39,58.29 258.39,58.29
             258.39,58.29 266.00,58.29 266.00,58.29
             266.00,58.29 282.00,57.00 282.00,57.00 Z
           M 110.00,41.00
           C 97.17,43.30 88.26,40.16 83.00,56.00
             83.00,56.00 95.91,56.67 95.91,56.67
             99.88,55.71 108.23,44.74 110.00,41.00 Z
           M 308.00,53.00
           C 302.56,42.44 287.56,42.86 277.00,42.00
             279.27,45.17 287.54,54.91 291.17,55.62
             293.60,56.09 304.86,53.59 308.00,53.00 Z
           M 300.00,42.00
           C 300.00,42.00 299.00,42.00 299.00,42.00
             299.00,42.00 300.00,43.00 300.00,43.00
             300.00,43.00 300.00,42.00 300.00,42.00 Z
           M 89.00,43.00
           C 83.14,44.52 77.78,48.59 75.00,54.17
             76.57,54.34 78.08,54.88 79.70,54.17
             82.92,53.26 87.59,46.03 89.00,43.00 Z
           M 82.00,44.00
           C 74.67,44.97 68.92,44.92 64.00,51.00
             73.57,55.06 76.19,52.12 82.00,44.00 Z
           M 279.00,46.00
           C 279.00,46.00 278.00,46.00 278.00,46.00
             278.00,46.00 279.00,47.00 279.00,47.00
             279.00,47.00 279.00,46.00 279.00,46.00 Z
           M 280.00,47.00
           C 280.00,47.00 279.00,47.00 279.00,47.00
             279.00,47.00 280.00,48.00 280.00,48.00
             280.00,48.00 280.00,47.00 280.00,47.00 Z
           M 281.00,48.00
           C 281.00,48.00 280.00,48.00 280.00,48.00
             280.00,48.00 281.00,49.00 281.00,49.00
             281.00,49.00 281.00,48.00 281.00,48.00 Z
           M 282.00,49.00
           C 281.80,52.95 283.72,54.29 287.00,56.00
             287.00,56.00 282.00,49.00 282.00,49.00 Z
           M 323.00,69.00
           C 320.59,65.20 314.35,55.89 310.00,54.90
             310.00,54.90 292.00,57.00 292.00,57.00
             293.14,60.38 295.05,64.11 298.29,65.98
             300.36,67.17 303.59,66.99 306.00,67.28
             306.00,67.28 323.00,69.00 323.00,69.00 Z
           M 78.00,56.00
           C 69.46,56.30 66.32,61.19 62.00,68.00
             71.29,67.91 75.64,65.65 78.00,56.00 Z
           M 96.00,59.00
           C 92.14,58.06 91.75,58.21 88.00,57.84
             79.74,57.00 78.03,59.10 75.00,67.00
             75.00,67.00 83.00,66.17 83.00,66.17
             90.90,65.40 91.15,66.54 96.00,59.00 Z
           M 295.00,66.00
           C 292.76,61.67 291.81,59.54 287.00,58.00
             288.54,63.20 289.46,65.08 295.00,66.00 Z
           M 119.00,61.00
           C 115.69,60.06 100.85,58.51 98.18,60.02
             96.11,61.20 95.18,63.06 94.00,65.00
             98.77,65.00 113.06,65.67 116.59,63.60
             118.02,62.75 118.12,62.21 119.00,61.00 Z
           M 287.00,66.00
           C 287.00,66.00 283.66,60.01 283.66,60.01
             283.66,60.01 259.00,60.01 259.00,60.01
             261.57,66.57 267.96,64.97 274.00,65.00
             274.00,65.00 287.00,66.00 287.00,66.00 Z
           M 131.00,61.00
           C 131.00,61.00 122.00,61.00 122.00,61.00
             122.00,61.00 122.00,64.00 122.00,64.00
             126.15,63.98 128.50,64.73 131.00,61.00 Z
           M 173.00,61.86
           C 173.00,61.86 149.00,61.86 149.00,61.86
             149.00,61.86 135.41,61.86 135.41,61.86
             135.41,61.86 133.00,64.00 133.00,64.00
             133.00,64.00 153.00,63.00 153.00,63.00
             153.00,63.00 173.00,61.86 173.00,61.86 Z
           M 258.00,64.00
           C 257.16,62.88 257.04,62.24 255.59,61.57
             251.90,59.87 242.18,60.66 239.00,63.00
             239.00,63.00 258.00,64.00 258.00,64.00 Z
           M 53.00,61.00
           C 53.00,61.00 49.00,66.00 49.00,66.00
             49.00,66.00 53.00,61.00 53.00,61.00 Z
           M 216.00,62.00
           C 216.00,62.00 200.00,63.00 200.00,63.00
             200.00,63.00 216.00,62.00 216.00,62.00 Z
           M 236.00,62.00
           C 236.00,62.00 219.00,63.00 219.00,63.00
             223.54,63.00 232.44,64.22 236.00,62.00 Z
           M 173.00,65.21
           C 173.00,65.21 142.00,65.21 142.00,65.21
             139.87,65.70 134.13,65.93 132.70,66.99
             129.78,69.16 126.58,81.23 126.00,85.21
             126.00,85.21 158.00,85.21 158.00,85.21
             160.92,85.81 167.92,86.98 169.98,84.40
             171.34,82.69 172.39,68.42 173.00,65.21 Z
           M 217.00,65.00
           C 217.00,65.00 180.00,65.00 180.00,65.00
             180.00,65.00 179.00,86.00 179.00,86.00
             179.00,86.00 211.00,86.00 211.00,86.00
             213.30,85.99 217.43,86.25 219.00,84.26
             220.97,81.77 217.65,68.55 217.00,65.00 Z
           M 240.00,85.00
           C 239.83,81.34 238.26,68.23 235.47,66.17
             233.09,64.42 223.31,65.00 220.00,65.00
             220.45,68.33 222.39,82.26 224.59,83.98
             226.64,85.57 236.97,85.00 240.00,85.00 Z
           M 116.00,66.00
           C 116.00,66.00 93.18,68.02 93.18,68.02
             89.89,69.90 85.72,78.43 84.00,82.00
             84.00,82.00 103.00,83.96 103.00,83.96
             105.02,84.05 108.78,84.20 110.44,82.98
             113.06,81.05 115.69,69.40 116.00,66.00 Z
           M 129.00,66.00
           C 126.79,66.01 123.29,65.77 121.42,67.02
             118.58,68.91 115.82,80.40 115.00,84.00
             115.00,84.00 122.00,85.00 122.00,85.00
             122.00,85.00 129.00,66.00 129.00,66.00 Z
           M 267.00,84.00
           C 265.93,80.22 261.75,69.02 258.61,67.02
             256.07,65.40 244.58,66.00 241.00,66.00
             241.28,69.32 243.35,82.16 245.72,84.00
             248.09,85.85 262.88,84.00 267.00,84.00 Z
           M 295.00,82.00
           C 294.09,78.65 291.89,71.91 289.36,69.58
             285.87,66.37 276.60,67.05 272.00,67.00
             267.47,66.94 266.30,66.57 262.00,66.00
             262.00,66.00 269.00,84.00 269.00,84.00
             269.00,84.00 295.00,82.00 295.00,82.00 Z
           M 89.00,68.00
           C 84.85,68.00 75.78,67.77 72.63,70.59
             70.66,72.37 68.12,78.40 67.00,81.21
             70.38,81.27 77.73,82.75 80.62,81.21
             83.93,79.92 87.92,71.42 89.00,68.00 Z
           M 305.00,82.00
           C 302.87,75.27 299.63,68.62 292.00,68.00
             296.88,79.33 296.53,81.90 305.00,82.00 Z
           M 70.00,69.00
           C 60.57,70.25 58.68,69.91 54.00,79.00
             54.00,79.00 64.00,81.00 64.00,81.00
             64.00,81.00 70.00,69.00 70.00,69.00 Z
           M 329.00,78.00
           C 327.55,75.55 326.46,73.50 323.91,71.98
             320.02,69.68 304.99,69.00 300.00,69.00
             301.49,71.79 304.98,78.40 307.52,80.01
             310.95,82.18 324.95,79.24 329.00,78.00 Z
           M 57.00,71.00
           C 50.37,71.15 45.89,71.10 42.00,77.00
             50.36,78.68 52.97,80.40 57.00,71.00 Z
           M 338.00,74.00
           C 338.00,74.00 328.00,72.00 328.00,72.00
             330.91,76.99 333.51,78.40 338.00,74.00 Z
           M 43.00,73.00
           C 43.00,73.00 40.00,76.00 40.00,76.00
             40.00,76.00 43.00,73.00 43.00,73.00 Z
           M 50.00,81.00
           C 50.00,81.00 41.21,79.69 41.21,79.69
             41.21,79.69 36.40,85.00 36.40,85.00
             36.40,85.00 28.00,101.00 28.00,101.00
             30.55,100.54 36.97,99.89 38.79,98.83
             42.24,96.81 48.53,84.97 50.00,81.00 Z
           M 340.00,100.00
           C 339.12,95.29 333.79,82.27 328.90,81.02
             328.90,81.02 309.00,83.00 309.00,83.00
             310.53,86.55 314.01,95.09 317.21,96.98
             319.37,98.25 322.54,97.92 325.00,98.09
             325.00,98.09 340.00,100.00 340.00,100.00 Z
           M 63.00,81.88
           C 63.00,81.88 53.18,81.88 53.18,81.88
             49.08,83.05 43.73,94.98 42.00,99.00
             44.74,98.94 53.55,98.31 55.61,96.98
             58.58,95.06 62.00,85.52 63.00,81.88 Z
           M 80.00,84.00
           C 80.00,84.00 68.10,83.33 68.10,83.33
             63.20,84.55 60.69,93.60 60.00,98.00
             60.00,98.00 72.79,96.40 72.79,96.40
             76.32,94.87 78.99,87.53 80.00,84.00 Z
           M 313.00,97.00
           C 312.03,93.60 309.07,85.75 305.79,84.10
             304.10,83.39 301.80,83.82 300.00,84.10
             300.00,84.10 304.00,97.00 304.00,97.00
             304.00,97.00 313.00,97.00 313.00,97.00 Z
           M 110.00,86.00
           C 110.00,86.00 83.00,84.00 83.00,84.00
             83.00,84.00 78.00,97.00 78.00,97.00
             78.00,97.00 99.00,96.00 99.00,96.00
             99.00,96.00 107.30,94.18 107.30,94.18
             107.30,94.18 110.00,86.00 110.00,86.00 Z
           M 301.00,97.00
           C 300.29,93.98 298.28,86.69 295.59,84.99
             293.59,83.86 290.27,84.76 288.00,84.99
             288.00,84.99 271.00,86.00 271.00,86.00
             271.42,88.73 272.08,93.27 274.51,94.98
             276.16,96.14 279.04,95.99 281.00,96.00
             281.00,96.00 301.00,97.00 301.00,97.00 Z
           M 336.00,85.00
           C 336.00,85.00 335.00,85.00 335.00,85.00
             335.00,85.00 336.00,86.00 336.00,86.00
             336.00,86.00 336.00,85.00 336.00,85.00 Z
           M 122.00,86.00
           C 122.00,86.00 114.00,86.00 114.00,86.00
             114.00,86.00 112.00,95.00 112.00,95.00
             112.00,95.00 120.00,95.00 120.00,95.00
             120.00,95.00 122.00,86.00 122.00,86.00 Z
           M 271.00,95.00
           C 270.28,92.84 269.10,88.34 267.30,87.00
             264.16,84.64 249.45,86.90 245.00,87.00
             245.00,87.00 247.73,94.01 247.73,94.01
             247.73,94.01 255.00,95.00 255.00,95.00
             255.00,95.00 271.00,95.00 271.00,95.00 Z
           M 170.00,87.00
           C 170.00,87.00 131.00,87.00 131.00,87.00
             124.46,87.11 123.99,88.75 123.00,95.00
             123.00,95.00 143.00,95.00 143.00,95.00
             143.00,95.00 155.00,94.04 155.00,94.04
             155.00,94.04 170.00,94.04 170.00,94.04
             170.00,94.04 170.00,87.00 170.00,87.00 Z
           M 221.00,87.00
           C 221.00,87.00 179.00,88.00 179.00,88.00
             179.00,88.00 179.00,94.00 179.00,94.00
             179.00,94.00 222.00,94.00 222.00,94.00
             222.00,94.00 221.00,87.00 221.00,87.00 Z
           M 241.00,87.00
           C 241.00,87.00 224.00,87.00 224.00,87.00
             224.34,88.77 224.81,92.04 225.98,93.40
             228.14,95.90 238.57,95.00 242.00,95.00
             242.00,95.00 241.00,87.00 241.00,87.00 Z
           M 337.00,87.00
           C 337.00,87.00 336.00,87.00 336.00,87.00
             336.00,87.00 337.00,88.00 337.00,88.00
             337.00,88.00 337.00,87.00 337.00,87.00 Z
           M 340.00,92.00
           C 339.50,95.74 340.90,98.01 344.00,100.00
             344.00,100.00 340.00,92.00 340.00,92.00 Z
           M 119.00,98.00
           C 119.00,98.00 111.00,98.00 111.00,98.00
             111.00,98.00 109.00,112.00 109.00,112.00
             117.05,111.72 115.41,110.39 119.00,98.00 Z
           M 170.00,97.00
           C 170.00,97.00 122.00,97.00 122.00,97.00
             122.00,97.00 119.00,112.00 119.00,112.00
             119.00,112.00 133.00,113.00 133.00,113.00
             133.00,113.00 169.00,113.00 169.00,113.00
             169.00,113.00 170.00,97.00 170.00,97.00 Z
           M 222.00,97.00
           C 222.00,97.00 178.00,97.00 178.00,97.00
             178.00,97.00 178.00,113.00 178.00,113.00
             178.00,113.00 224.00,113.00 224.00,113.00
             224.00,113.00 222.00,97.00 222.00,97.00 Z
           M 243.00,97.00
           C 243.00,97.00 226.00,97.00 226.00,97.00
             226.06,99.95 226.58,110.26 228.74,112.01
             230.39,113.34 235.82,113.04 238.00,113.00
             239.82,112.96 242.73,113.10 243.89,111.40
             245.17,109.53 243.23,99.78 243.00,97.00 Z
           M 276.00,112.00
           C 276.00,112.00 271.91,99.57 271.91,99.57
             271.91,99.57 265.00,97.83 265.00,97.83
             265.00,97.83 247.00,97.00 247.00,97.00
             247.00,97.00 250.00,113.00 250.00,113.00
             250.00,113.00 276.00,112.00 276.00,112.00 Z
           M 107.00,98.00
           C 107.00,98.00 84.00,98.58 84.00,98.58
             84.00,98.58 76.70,99.99 76.70,99.99
             76.70,99.99 72.00,111.00 72.00,111.00
             72.00,111.00 93.00,111.72 93.00,111.72
             95.45,112.01 101.44,112.49 103.42,110.98
             105.68,109.26 106.76,100.86 107.00,98.00 Z
           M 305.00,111.05
           C 304.73,107.99 303.86,101.91 301.30,99.99
             299.75,98.83 296.02,98.96 294.00,98.72
             294.00,98.72 275.00,98.00 275.00,98.00
             275.46,101.00 277.04,109.26 279.51,111.05
             281.73,112.51 285.48,111.41 288.00,111.05
             288.00,111.05 305.00,111.05 305.00,111.05 Z
           M 73.00,99.00
           C 69.65,99.01 60.34,99.09 58.08,101.57
             56.84,102.94 55.63,107.12 55.00,109.00
             65.81,112.07 70.93,110.46 73.00,99.00 Z
           M 319.00,110.00
           C 315.96,101.24 315.74,99.22 306.00,99.00
             307.00,110.06 309.04,110.00 319.00,110.00 Z
           M 55.00,100.00
           C 55.00,100.00 47.00,100.84 47.00,100.84
             40.87,101.54 39.89,101.69 38.00,108.00
             47.97,108.81 53.09,112.08 55.00,100.00 Z
           M 344.00,107.00
           C 344.00,107.00 340.61,102.40 340.61,102.40
             340.61,102.40 318.00,100.00 318.00,100.00
             318.50,102.68 319.23,106.32 321.64,108.01
             324.83,110.25 340.08,108.12 344.00,107.00 Z
           M 38.00,102.00
           C 38.00,102.00 26.00,104.00 26.00,104.00
             26.00,104.00 26.00,106.00 26.00,106.00
             26.00,106.00 36.00,108.00 36.00,108.00
             36.00,108.00 38.00,102.00 38.00,102.00 Z
           M 345.00,102.00
           C 344.51,104.83 344.75,105.26 347.00,107.00
             347.00,107.00 345.00,102.00 345.00,102.00 Z
           M 355.00,105.00
           C 355.00,105.00 347.00,103.00 347.00,103.00
             349.66,106.55 350.92,106.12 355.00,105.00 Z
           M 35.00,110.00
           C 35.00,110.00 25.00,108.00 25.00,108.00
             21.29,114.69 16.68,126.42 16.00,134.00
             16.00,134.00 25.52,132.83 25.52,132.83
             25.52,132.83 28.86,126.00 28.86,126.00
             28.86,126.00 35.00,110.00 35.00,110.00 Z
           M 348.00,109.00
           C 348.00,109.00 349.31,117.00 349.31,117.00
             349.31,117.00 354.93,132.41 354.93,132.41
             354.93,132.41 358.00,134.00 358.00,134.00
             356.53,127.56 351.91,114.06 348.00,109.00 Z
           M 51.00,110.82
           C 51.00,110.82 38.21,110.82 38.21,110.82
             33.58,112.42 29.43,128.21 29.00,133.00
             29.00,133.00 46.00,132.00 46.00,132.00
             46.00,132.00 51.00,110.82 51.00,110.82 Z
           M 353.00,133.00
           C 351.55,128.55 347.80,113.29 344.50,111.01
             342.01,109.31 327.28,111.00 323.00,111.01
             323.33,114.67 326.90,128.94 329.56,130.99
             332.99,133.64 348.18,133.00 353.00,133.00 Z
           M 68.00,112.00
           C 65.55,112.00 57.20,111.70 55.43,112.57
             52.10,114.22 49.54,128.17 49.00,132.00
             49.00,132.00 63.00,132.00 63.00,132.00
             63.00,132.00 68.00,112.00 68.00,112.00 Z
           M 326.00,132.00
           C 325.27,128.39 321.89,114.94 319.30,112.99
             317.47,111.62 312.33,112.00 310.00,112.00
             310.00,112.00 314.00,132.00 314.00,132.00
             314.00,132.00 326.00,132.00 326.00,132.00 Z
           M 104.00,114.00
           C 104.00,114.00 79.00,113.00 79.00,113.00
             76.97,113.00 73.36,112.74 71.70,113.99
             69.66,115.53 67.09,125.29 66.89,128.00
             66.56,129.85 66.75,130.26 66.89,132.00
             66.89,132.00 90.00,131.00 90.00,131.00
             90.00,131.00 100.26,130.01 100.26,130.01
             100.26,130.01 104.00,114.00 104.00,114.00 Z
           M 310.00,132.00
           C 309.84,128.54 308.06,115.96 305.44,114.02
             303.74,112.77 300.08,113.00 298.00,113.00
             298.00,113.00 279.00,114.00 279.00,114.00
             279.00,114.00 283.00,131.00 283.00,131.00
             283.00,131.00 310.00,132.00 310.00,132.00 Z
           M 115.00,114.00
           C 115.00,114.00 108.00,114.00 108.00,114.00
             108.00,114.00 106.00,131.00 106.00,131.00
             107.55,130.87 109.15,130.94 110.49,129.98
             113.06,128.14 114.36,117.41 115.00,114.00 Z
           M 169.00,116.00
           C 162.44,114.14 142.95,115.01 135.00,115.01
             131.58,114.99 121.68,113.47 119.56,115.01
             116.87,117.00 116.15,126.69 116.00,130.00
             116.00,130.00 168.00,130.00 168.00,130.00
             168.00,130.00 169.00,116.00 169.00,116.00 Z
           M 277.00,114.00
           C 277.00,114.00 258.00,114.00 258.00,114.00
             256.21,114.01 253.05,113.86 251.60,115.02
             249.34,116.85 250.61,127.29 252.74,129.01
             254.39,130.34 258.83,129.94 261.00,130.09
             261.00,130.09 280.00,131.00 280.00,131.00
             280.00,131.00 277.00,114.00 277.00,114.00 Z
           M 224.00,115.00
           C 224.00,115.00 178.00,115.00 178.00,115.00
             178.00,115.00 178.00,130.00 178.00,130.00
             178.00,130.00 225.00,130.00 225.00,130.00
             225.00,130.00 224.00,115.00 224.00,115.00 Z
           M 247.00,130.00
           C 247.00,130.00 244.26,115.99 244.26,115.99
             244.26,115.99 228.00,115.00 228.00,115.00
             228.00,115.00 229.00,130.00 229.00,130.00
             229.00,130.00 247.00,130.00 247.00,130.00 Z
           M 226.00,133.00
           C 226.00,133.00 192.00,132.00 192.00,132.00
             189.34,132.00 181.49,131.52 179.60,133.02
             177.52,134.67 178.00,139.55 178.00,142.00
             178.00,142.00 226.00,142.00 226.00,142.00
             226.00,142.00 226.00,133.00 226.00,133.00 Z
           M 101.00,133.00
           C 101.00,133.00 65.00,134.00 65.00,134.00
             65.00,134.00 64.00,140.99 64.00,140.99
             64.00,140.99 85.00,140.99 85.00,140.99
             85.00,140.99 98.42,140.99 98.42,140.99
             98.42,140.99 101.00,133.00 101.00,133.00 Z
           M 111.00,133.00
           C 104.23,133.57 105.02,136.00 105.00,142.00
             111.56,141.48 110.94,138.84 111.00,133.00 Z
           M 168.00,133.00
           C 168.00,133.00 115.00,133.00 115.00,133.00
             115.00,133.00 114.00,142.00 114.00,142.00
             114.00,142.00 167.00,142.00 167.00,142.00
             167.00,142.00 168.00,133.00 168.00,133.00 Z
           M 247.00,133.00
           C 247.00,133.00 230.00,133.00 230.00,133.00
             230.00,133.00 230.00,142.00 230.00,142.00
             230.00,142.00 248.00,142.00 248.00,142.00
             248.00,142.00 247.00,133.00 247.00,133.00 Z
           M 282.00,141.00
           C 282.00,141.00 279.42,134.02 279.42,134.02
             279.42,134.02 273.00,133.00 273.00,133.00
             273.00,133.00 252.00,133.00 252.00,133.00
             252.00,133.00 253.00,142.00 253.00,142.00
             253.00,142.00 282.00,141.00 282.00,141.00 Z
           M 311.00,133.96
           C 311.00,133.96 295.00,133.96 295.00,133.96
             295.00,133.96 284.00,133.00 284.00,133.00
             284.00,133.00 285.00,142.00 285.00,142.00
             285.00,142.00 312.00,141.00 312.00,141.00
             312.00,141.00 311.00,133.96 311.00,133.96 Z
           M 62.00,134.00
           C 62.00,134.00 48.00,135.00 48.00,135.00
             48.00,135.00 47.00,140.00 47.00,140.00
             47.00,140.00 61.00,141.00 61.00,141.00
             61.00,141.00 62.00,134.00 62.00,134.00 Z
           M 328.00,140.00
           C 325.98,132.51 321.71,134.00 315.00,134.00
             315.54,143.13 317.84,140.09 328.00,140.00 Z
           M 45.00,135.00
           C 45.00,135.00 27.00,136.00 27.00,136.00
             27.00,136.00 27.00,139.00 27.00,139.00
             38.21,139.10 43.17,142.97 45.00,135.00 Z
           M 354.00,136.00
           C 354.00,136.00 343.00,135.04 343.00,135.04
             343.00,135.04 330.00,135.04 330.00,135.04
             330.00,135.04 331.60,138.98 331.60,138.98
             331.60,138.98 338.00,139.96 338.00,139.96
             338.00,139.96 354.00,139.00 354.00,139.00
             354.00,139.00 354.00,136.00 354.00,136.00 Z
           M 25.00,136.00
           C 20.73,136.01 18.72,135.59 15.00,138.00
             15.00,138.00 25.00,139.00 25.00,139.00
             25.00,139.00 25.00,136.00 25.00,136.00 Z
           M 24.00,141.06
           C 24.00,141.06 14.58,141.06 14.58,141.06
             14.58,141.06 11.80,149.00 11.80,149.00
             11.80,149.00 9.00,170.00 9.00,170.00
             9.00,170.00 18.26,169.01 18.26,169.01
             18.26,169.01 20.43,161.00 20.43,161.00
             20.43,161.00 24.00,141.06 24.00,141.06 Z
           M 43.00,142.00
           C 43.00,142.00 26.00,141.00 26.00,141.00
             23.84,152.46 22.00,157.94 22.00,170.00
             22.00,170.00 40.00,169.00 40.00,169.00
             40.00,169.00 43.00,142.00 43.00,142.00 Z
           M 355.00,141.00
           C 355.00,141.00 331.00,142.00 331.00,142.00
             331.00,142.00 335.00,169.04 335.00,169.04
             335.00,169.04 349.00,169.04 349.00,169.04
             349.00,169.04 359.00,170.00 359.00,170.00
             359.00,170.00 355.00,141.00 355.00,141.00 Z
           M 360.00,141.00
           C 360.00,141.00 357.00,141.00 357.00,141.00
             357.00,141.00 361.00,170.00 361.00,170.00
             361.00,170.00 365.00,170.00 365.00,170.00
             365.00,170.00 360.00,141.00 360.00,141.00 Z
           M 60.00,143.01
           C 60.00,143.01 47.60,143.01 47.60,143.01
             47.60,143.01 45.42,150.00 45.42,150.00
             45.42,150.00 43.00,169.00 43.00,169.00
             43.00,169.00 57.00,169.00 57.00,169.00
             57.00,169.00 60.00,143.01 60.00,143.01 Z
           M 332.00,169.00
           C 332.00,169.00 330.08,150.00 330.08,150.00
             330.08,150.00 327.44,143.03 327.44,143.03
             327.44,143.03 316.00,143.03 316.00,143.03
             316.00,143.03 319.00,169.00 319.00,169.00
             319.00,169.00 332.00,169.00 332.00,169.00 Z
           M 99.00,144.00
           C 99.00,144.00 81.00,143.00 81.00,143.00
             81.00,143.00 63.00,143.00 63.00,143.00
             63.00,143.00 60.00,169.00 60.00,169.00
             60.00,169.00 89.00,169.00 89.00,169.00
             89.00,169.00 96.98,167.40 96.98,167.40
             96.98,167.40 98.09,160.00 98.09,160.00
             98.09,160.00 99.00,144.00 99.00,144.00 Z
           M 315.00,169.00
           C 315.00,169.00 313.58,151.00 313.58,151.00
             313.58,151.00 311.40,144.02 311.40,144.02
             311.40,144.02 304.00,143.00 304.00,143.00
             304.00,143.00 285.00,144.00 285.00,144.00
             285.00,144.00 288.00,169.00 288.00,169.00
             288.00,169.00 315.00,169.00 315.00,169.00 Z
           M 110.00,144.00
           C 110.00,144.00 104.00,144.00 104.00,144.00
             104.00,144.00 102.00,168.00 102.00,168.00
             102.00,168.00 106.98,167.39 106.98,167.39
             106.98,167.39 108.42,161.00 108.42,161.00
             108.42,161.00 110.00,144.00 110.00,144.00 Z
           M 167.00,168.00
           C 167.00,168.00 167.00,152.00 167.00,152.00
             166.96,145.57 166.84,144.13 160.00,144.00
             160.00,144.00 114.00,144.00 114.00,144.00
             114.00,144.00 112.09,161.00 112.09,161.00
             111.98,162.78 111.86,165.94 113.02,167.40
             115.01,169.91 125.41,168.01 129.00,168.00
             129.00,168.00 167.00,168.00 167.00,168.00 Z
           M 227.00,168.00
           C 227.00,168.00 227.00,152.00 227.00,152.00
             226.98,149.48 227.37,145.92 224.69,144.60
             222.80,143.67 211.77,143.97 209.00,144.00
             209.00,144.00 196.00,145.00 196.00,145.00
             196.00,145.00 177.00,145.00 177.00,145.00
             177.00,145.00 177.00,168.00 177.00,168.00
             177.00,168.00 227.00,168.00 227.00,168.00 Z
           M 248.00,144.00
           C 248.00,144.00 231.00,144.00 231.00,144.00
             231.00,144.00 231.00,160.00 231.00,160.00
             231.00,160.00 232.74,167.01 232.74,167.01
             232.74,167.01 248.96,168.00 248.96,168.00
             248.96,168.00 248.96,155.00 248.96,155.00
             248.96,155.00 248.00,144.00 248.00,144.00 Z
           M 285.00,168.00
           C 285.00,168.00 283.28,152.00 283.28,152.00
             283.28,152.00 281.83,145.57 281.83,145.57
             281.83,145.57 274.00,144.00 274.00,144.00
             274.00,144.00 253.00,144.00 253.00,144.00
             253.00,144.00 254.00,168.00 254.00,168.00
             261.02,169.26 278.36,169.89 285.00,168.00 Z
           M 172.00,145.00
           C 172.00,145.00 172.00,150.00 172.00,150.00
             172.00,150.00 172.00,145.00 172.00,145.00 Z
           M 97.00,171.00
           C 97.00,171.00 70.00,172.00 70.00,172.00
             70.00,172.00 97.00,171.00 97.00,171.00 Z
           M 108.00,171.00
           C 108.00,171.00 103.00,171.00 103.00,171.00
             103.00,171.00 103.00,173.00 103.00,173.00
             103.00,173.00 108.00,171.00 108.00,171.00 Z
           M 167.00,171.00
           C 167.00,171.00 112.00,171.00 112.00,171.00
             112.00,171.00 112.00,173.00 112.00,173.00
             112.00,173.00 151.00,173.00 151.00,173.00
             156.17,173.00 162.67,174.19 167.00,171.00 Z
           M 227.00,171.00
           C 227.00,171.00 194.00,171.00 194.00,171.00
             194.00,171.00 177.00,172.00 177.00,172.00
             177.00,172.00 195.00,173.00 195.00,173.00
             195.00,173.00 227.00,173.00 227.00,173.00
             227.00,173.00 227.00,171.00 227.00,171.00 Z
           M 249.00,171.00
           C 249.00,171.00 232.00,171.00 232.00,171.00
             232.00,171.00 232.00,173.00 232.00,173.00
             232.00,173.00 249.00,173.00 249.00,173.00
             249.00,173.00 249.00,171.00 249.00,171.00 Z
           M 284.00,171.00
           C 284.00,171.00 255.00,171.00 255.00,171.00
             255.00,171.00 255.00,173.00 255.00,173.00
             262.16,173.00 278.32,174.30 284.00,171.00 Z
           M 307.00,171.00
           C 302.28,171.00 291.11,169.54 288.00,173.00
             288.00,173.00 307.00,171.00 307.00,171.00 Z
           M 18.84,174.00
           C 18.84,174.00 8.00,174.00 8.00,174.00
             8.00,174.00 8.00,197.00 8.00,197.00
             8.00,197.00 9.74,204.01 9.74,204.01
             9.74,204.01 18.84,205.00 18.84,205.00
             18.84,205.00 18.84,187.00 18.84,187.00
             18.84,187.00 18.84,174.00 18.84,174.00 Z
           M 40.00,174.00
           C 40.00,174.00 21.00,174.00 21.00,174.00
             21.00,174.00 20.32,190.00 20.32,190.00
             20.32,190.00 21.00,205.00 21.00,205.00
             21.00,205.00 40.00,204.00 40.00,204.00
             40.00,204.00 39.00,190.00 39.00,190.00
             39.00,190.00 40.00,174.00 40.00,174.00 Z
           M 56.00,174.00
           C 56.00,174.00 43.00,174.00 43.00,174.00
             43.00,174.00 43.00,204.00 43.00,204.00
             43.00,204.00 57.00,204.00 57.00,204.00
             57.00,204.00 56.00,174.00 56.00,174.00 Z
           M 97.00,175.00
           C 97.00,175.00 60.00,174.00 60.00,174.00
             58.24,183.84 58.70,194.13 60.00,204.00
             60.00,204.00 97.00,204.00 97.00,204.00
             97.00,204.00 97.00,175.00 97.00,175.00 Z
           M 288.00,204.00
           C 288.00,204.00 309.00,204.00 309.00,204.00
             309.00,204.00 314.98,202.40 314.98,202.40
             314.98,202.40 316.00,197.00 316.00,197.00
             316.00,197.00 316.00,181.00 316.00,181.00
             316.00,181.00 314.98,175.60 314.98,175.60
             314.98,175.60 310.00,174.02 310.00,174.02
             310.00,174.02 298.00,174.96 298.00,174.96
             298.00,174.96 288.00,174.96 288.00,174.96
             288.00,174.96 288.00,204.00 288.00,204.00 Z
           M 333.00,174.00
           C 333.00,174.00 320.64,175.02 320.64,175.02
             320.64,175.02 320.00,185.00 320.00,185.00
             320.00,185.00 319.00,204.00 319.00,204.00
             319.00,204.00 333.00,204.00 333.00,204.00
             333.00,204.00 333.00,174.00 333.00,174.00 Z
           M 359.00,205.00
           C 359.00,205.00 360.00,181.00 360.00,181.00
             360.00,181.00 358.40,175.02 358.40,175.02
             358.40,175.02 351.00,174.00 351.00,174.00
             351.00,174.00 336.00,174.00 336.00,174.00
             336.00,174.00 336.00,204.00 336.00,204.00
             336.00,204.00 359.00,205.00 359.00,205.00 Z
           M 365.00,205.00
           C 366.09,196.72 366.11,190.30 366.00,182.00
             365.93,177.17 366.23,174.90 361.00,174.00
             362.77,181.27 362.34,196.53 361.00,204.00
             361.00,204.00 365.00,205.00 365.00,205.00 Z
           M 108.00,175.00
           C 108.00,175.00 102.00,175.00 102.00,175.00
             102.00,175.00 102.00,197.00 102.00,197.00
             102.04,199.08 101.92,203.37 105.00,203.37
             108.05,203.37 107.99,199.09 107.98,197.00
             107.98,197.00 107.32,187.00 107.32,187.00
             107.32,187.00 108.00,175.00 108.00,175.00 Z
           M 167.00,175.00
           C 167.00,175.00 119.00,175.00 119.00,175.00
             111.92,175.04 111.10,175.69 111.00,183.00
             110.89,191.16 110.92,195.85 112.00,204.00
             112.00,204.00 159.00,204.00 159.00,204.00
             166.33,203.95 166.95,203.33 167.00,196.00
             167.00,196.00 167.00,175.00 167.00,175.00 Z
           M 172.00,175.00
           C 170.36,179.14 170.36,197.86 172.00,202.00
             172.00,202.00 172.00,175.00 172.00,175.00 Z
           M 228.00,175.00
           C 228.00,175.00 177.00,175.00 177.00,175.00
             177.00,175.00 177.00,203.00 177.00,203.00
             177.00,203.00 191.00,203.00 191.00,203.00
             191.00,203.00 203.00,203.95 203.00,203.95
             203.00,203.95 221.00,203.95 221.00,203.95
             227.84,203.87 227.96,202.43 228.00,196.00
             228.00,196.00 228.00,175.00 228.00,175.00 Z
           M 249.00,175.00
           C 249.00,175.00 232.00,175.00 232.00,175.00
             232.00,175.00 232.00,204.00 232.00,204.00
             232.00,204.00 249.00,204.00 249.00,204.00
             249.00,204.00 250.00,190.00 250.00,190.00
             250.00,190.00 249.00,175.00 249.00,175.00 Z
           M 285.00,175.00
           C 285.00,175.00 254.00,175.00 254.00,175.00
             254.00,175.00 255.03,192.00 255.03,192.00
             255.03,192.00 255.03,202.40 255.03,202.40
             255.03,202.40 263.00,204.00 263.00,204.00
             263.00,204.00 285.00,204.00 285.00,204.00
             285.00,204.00 285.00,175.00 285.00,175.00 Z
           M 98.00,206.00
           C 98.00,206.00 73.00,206.00 73.00,206.00
             73.00,206.00 60.00,207.00 60.00,207.00
             60.00,207.00 85.00,207.00 85.00,207.00
             85.00,207.00 98.00,206.00 98.00,206.00 Z
           M 108.00,206.00
           C 108.00,206.00 102.00,207.00 102.00,207.00
             105.26,207.70 105.25,207.92 108.00,206.00 Z
           M 167.00,206.00
           C 167.00,206.00 112.00,206.00 112.00,206.00
             112.00,206.00 112.00,208.00 112.00,208.00
             112.00,208.00 151.00,208.00 151.00,208.00
             156.17,208.00 162.67,209.19 167.00,206.00 Z
           M 228.00,206.00
           C 228.00,206.00 194.00,206.00 194.00,206.00
             194.00,206.00 177.00,207.00 177.00,207.00
             183.67,208.89 205.72,208.00 214.00,208.00
             218.74,208.00 224.04,208.91 228.00,206.00 Z
           M 249.00,206.00
           C 249.00,206.00 232.00,206.00 232.00,206.00
             232.00,206.00 232.00,208.00 232.00,208.00
             232.00,208.00 249.00,208.00 249.00,208.00
             249.00,208.00 249.00,206.00 249.00,206.00 Z
           M 285.00,206.00
           C 285.00,206.00 254.00,207.00 254.00,207.00
             260.43,208.83 278.82,208.53 285.00,206.00 Z
           M 315.00,206.00
           C 315.00,206.00 288.00,207.00 288.00,207.00
             288.00,207.00 315.00,206.00 315.00,206.00 Z
           M 20.00,209.00
           C 20.00,209.00 9.00,209.00 9.00,209.00
             9.32,215.97 10.82,223.16 12.20,230.00
             13.22,235.03 13.52,238.84 19.95,237.85
             24.24,237.19 23.78,234.45 23.19,231.00
             21.81,222.91 20.08,217.52 20.00,209.00 Z
           M 44.00,236.00
           C 44.00,236.00 41.15,218.00 41.15,218.00
             41.15,218.00 38.49,210.02 38.49,210.02
             38.49,210.02 22.00,209.00 22.00,209.00
             22.00,209.00 26.00,237.00 26.00,237.00
             26.00,237.00 44.00,236.00 44.00,236.00 Z
           M 359.00,209.00
           C 359.00,209.00 342.00,209.00 342.00,209.00
             342.00,209.00 336.58,210.02 336.58,210.02
             336.58,210.02 334.05,218.00 334.05,218.00
             334.05,218.00 331.00,236.00 331.00,236.00
             331.00,236.00 340.00,236.96 340.00,236.96
             340.00,236.96 355.00,236.96 355.00,236.96
             355.00,236.96 359.00,209.00 359.00,209.00 Z
           M 365.00,209.00
           C 365.00,209.00 361.00,209.00 361.00,209.00
             361.00,209.00 356.00,237.00 356.00,237.00
             360.70,236.95 360.57,234.02 361.40,230.00
             361.40,230.00 365.00,209.00 365.00,209.00 Z
           M 57.00,210.00
           C 57.00,210.00 44.00,210.00 44.00,210.00
             44.00,210.00 45.58,228.00 45.58,228.00
             45.58,228.00 47.74,235.01 47.74,235.01
             47.74,235.01 60.00,236.00 60.00,236.00
             60.00,236.00 57.00,210.00 57.00,210.00 Z
           M 98.00,210.00
           C 98.00,210.00 60.00,210.00 60.00,210.00
             60.00,210.00 64.00,236.00 64.00,236.00
             64.00,236.00 100.00,234.00 100.00,234.00
             100.00,234.00 98.00,210.00 98.00,210.00 Z
           M 108.00,210.00
           C 108.00,210.00 103.00,210.00 103.00,210.00
             103.00,218.33 102.68,226.92 105.00,235.00
             105.00,235.00 110.00,234.00 110.00,234.00
             110.00,234.00 108.00,210.00 108.00,210.00 Z
           M 167.00,234.00
           C 167.00,234.00 167.00,218.00 167.00,218.00
             166.96,211.57 166.84,210.13 160.00,210.00
             160.00,210.00 112.00,210.00 112.00,210.00
             112.00,210.00 114.00,234.00 114.00,234.00
             114.00,234.00 167.00,234.00 167.00,234.00 Z
           M 227.00,210.00
           C 227.00,210.00 204.00,210.00 204.00,210.00
             204.00,210.00 185.00,210.00 185.00,210.00
             185.00,210.00 178.60,211.02 178.60,211.02
             178.60,211.02 177.00,217.00 177.00,217.00
             177.00,217.00 178.02,232.40 178.02,232.40
             178.02,232.40 186.00,234.00 186.00,234.00
             186.00,234.00 218.00,234.00 218.00,234.00
             218.00,234.00 225.98,232.40 225.98,232.40
             225.98,232.40 227.00,225.00 227.00,225.00
             227.00,225.00 227.00,210.00 227.00,210.00 Z
           M 248.96,210.00
           C 248.96,210.00 232.74,210.99 232.74,210.99
             232.74,210.99 231.00,219.00 231.00,219.00
             231.00,219.00 231.00,234.00 231.00,234.00
             231.00,234.00 248.00,234.00 248.00,234.00
             248.00,234.00 248.96,222.00 248.96,222.00
             248.96,222.00 248.96,210.00 248.96,210.00 Z
           M 284.00,210.00
           C 284.00,210.00 261.00,210.00 261.00,210.00
             261.00,210.00 255.02,211.60 255.02,211.60
             255.02,211.60 253.96,219.00 253.96,219.00
             253.96,219.00 253.00,234.00 253.00,234.00
             253.00,234.00 282.00,235.00 282.00,235.00
             282.00,235.00 284.00,210.00 284.00,210.00 Z
           M 315.00,210.00
           C 315.00,210.00 295.00,210.00 295.00,210.00
             295.00,210.00 288.60,211.02 288.60,211.02
             288.60,211.02 286.91,218.00 286.91,218.00
             286.91,218.00 285.00,235.00 285.00,235.00
             285.00,235.00 305.00,235.00 305.00,235.00
             305.00,235.00 311.40,233.98 311.40,233.98
             311.40,233.98 313.28,228.00 313.28,228.00
             313.28,228.00 315.00,210.00 315.00,210.00 Z
           M 332.00,210.00
           C 332.00,210.00 319.00,210.00 319.00,210.00
             319.00,210.00 316.00,236.00 316.00,236.00
             316.00,236.00 327.42,234.98 327.42,234.98
             327.42,234.98 329.92,228.00 329.92,228.00
             329.92,228.00 332.00,210.00 332.00,210.00 Z
           M 172.00,227.00
           C 172.00,227.00 172.00,233.00 172.00,233.00
             172.00,233.00 172.00,227.00 172.00,227.00 Z
           M 168.00,246.00
           C 167.99,243.50 168.38,238.70 166.26,236.99
             164.39,235.48 155.71,236.00 153.00,236.00
             144.47,236.00 120.77,235.08 114.00,237.00
             114.00,237.00 116.59,244.98 116.59,244.98
             116.59,244.98 131.00,246.00 131.00,246.00
             131.00,246.00 168.00,246.00 168.00,246.00 Z
           M 226.00,236.00
           C 226.00,236.00 178.00,236.00 178.00,236.00
             178.00,236.00 178.00,246.00 178.00,246.00
             178.00,246.00 226.00,246.00 226.00,246.00
             226.00,246.00 226.00,236.00 226.00,236.00 Z
           M 246.94,246.00
           C 247.09,244.04 247.88,239.04 246.94,237.60
             245.21,235.13 233.18,236.00 230.00,236.00
             230.00,236.00 230.00,246.00 230.00,246.00
             230.00,246.00 246.94,246.00 246.94,246.00 Z
           M 282.00,236.96
           C 282.00,236.96 270.00,236.96 270.00,236.96
             270.00,236.96 261.00,236.01 261.00,236.01
             259.09,235.97 255.25,235.77 253.74,236.99
             251.62,238.70 252.01,243.50 252.00,246.00
             252.00,246.00 269.00,246.00 269.00,246.00
             269.00,246.00 279.41,244.02 279.41,244.02
             279.41,244.02 282.00,236.96 282.00,236.96 Z
           M 100.00,237.00
           C 100.00,237.00 64.00,238.00 64.00,238.00
             64.00,238.00 66.58,243.98 66.58,243.98
             66.58,243.98 73.00,245.00 73.00,245.00
             73.00,245.00 101.00,245.00 101.00,245.00
             101.00,245.00 100.00,237.00 100.00,237.00 Z
           M 111.00,237.00
           C 111.00,237.00 105.00,237.00 105.00,237.00
             105.02,243.04 104.49,246.90 112.00,245.00
             112.00,245.00 111.00,237.00 111.00,237.00 Z
           M 312.00,238.00
           C 312.00,238.00 292.00,237.00 292.00,237.00
             292.00,237.00 285.58,238.02 285.58,238.02
             285.58,238.02 283.00,245.00 283.00,245.00
             283.00,245.00 302.00,245.00 302.00,245.00
             302.00,245.00 309.44,243.98 309.44,243.98
             309.44,243.98 312.00,238.00 312.00,238.00 Z
           M 44.00,238.00
           C 44.00,238.00 27.00,240.00 27.00,240.00
             27.00,240.00 29.41,242.43 29.41,242.43
             29.41,242.43 45.00,244.00 45.00,244.00
             45.00,244.00 44.00,238.00 44.00,238.00 Z
           M 62.00,244.00
           C 61.40,236.83 59.12,238.00 48.00,238.00
             48.60,245.17 50.88,244.00 62.00,244.00 Z
           M 327.00,238.00
           C 327.00,238.00 315.00,238.00 315.00,238.00
             315.00,238.00 314.00,244.00 314.00,244.00
             324.07,244.00 326.41,245.11 327.00,238.00 Z
           M 354.00,240.00
           C 354.00,240.00 338.00,239.01 338.00,239.01
             338.00,239.01 331.51,239.01 331.51,239.01
             331.51,239.01 329.00,244.00 329.00,244.00
             329.00,244.00 344.00,243.04 344.00,243.04
             344.00,243.04 351.59,242.43 351.59,242.43
             351.59,242.43 354.00,240.00 354.00,240.00 Z
           M 26.00,243.00
           C 23.27,238.93 19.51,240.00 15.00,240.00
             15.00,240.00 15.00,242.00 15.00,242.00
             15.00,242.00 26.00,243.00 26.00,243.00 Z
           M 359.00,240.00
           C 359.00,240.00 355.00,242.00 355.00,242.00
             355.00,242.00 359.00,240.00 359.00,240.00 Z
           M 361.00,240.00
           C 361.00,242.23 362.42,241.54 364.00,241.00
             364.00,241.00 361.00,240.00 361.00,240.00 Z
           M 35.00,268.97
           C 35.00,268.97 29.59,253.00 29.59,253.00
             29.59,253.00 26.28,245.99 26.28,245.99
             26.28,245.99 16.00,244.00 16.00,244.00
             16.00,244.00 21.60,262.00 21.60,262.00
             21.60,262.00 25.50,268.97 25.50,268.97
             25.50,268.97 35.00,268.97 35.00,268.97 Z
           M 52.00,267.20
           C 52.00,267.20 47.88,253.00 47.88,253.00
             47.88,253.00 45.28,246.99 45.28,246.99
             45.28,246.99 29.00,245.00 29.00,245.00
             29.00,245.00 34.00,261.00 34.00,261.00
             34.00,261.00 38.27,267.20 38.27,267.20
             38.27,267.20 52.00,267.20 52.00,267.20 Z
           M 352.00,245.00
           C 352.00,245.00 336.00,246.00 336.00,246.00
             334.04,246.01 331.17,245.86 329.51,247.02
             326.85,248.88 322.84,263.32 322.00,267.00
             322.00,267.00 342.78,268.23 342.78,268.23
             342.78,268.23 347.19,262.00 347.19,262.00
             347.19,262.00 352.00,245.00 352.00,245.00 Z
           M 357.00,245.00
           C 357.00,245.00 354.00,245.00 354.00,245.00
             354.00,245.00 346.00,269.00 346.00,269.00
             351.59,265.74 356.01,251.39 357.00,245.00 Z
           M 69.00,266.16
           C 69.00,266.16 62.44,248.02 62.44,248.02
             62.44,248.02 50.00,246.00 50.00,246.00
             50.00,246.00 49.00,247.00 49.00,247.00
             50.13,250.89 52.73,264.98 56.28,266.16
             56.28,266.16 69.00,266.16 69.00,266.16 Z
           M 104.00,264.00
           C 103.76,261.08 102.55,250.69 100.41,249.02
             98.46,247.51 90.70,248.01 88.00,248.00
             88.00,248.00 67.00,247.00 67.00,247.00
             67.19,250.86 69.28,262.80 72.51,264.98
             74.52,266.31 81.14,265.04 84.00,264.98
             91.85,264.91 96.02,265.43 104.00,264.00 Z
           M 310.00,247.00
           C 310.00,247.00 291.00,247.99 291.00,247.99
             291.00,247.99 282.93,249.60 282.93,249.60
             282.93,249.60 279.00,265.02 279.00,265.02
             279.00,265.02 296.00,265.02 296.00,265.02
             298.53,265.26 302.39,266.37 304.57,265.02
             307.55,263.04 309.48,250.72 310.00,247.00 Z
           M 325.00,247.00
           C 325.00,247.00 314.58,248.02 314.58,248.02
             314.58,248.02 309.00,266.00 309.00,266.00
             309.00,266.00 319.00,267.00 319.00,267.00
             319.00,267.00 325.00,247.00 325.00,247.00 Z
           M 115.00,264.00
           C 115.00,264.00 111.26,248.99 111.26,248.99
             111.26,248.99 106.00,248.00 106.00,248.00
             106.00,248.00 108.00,264.00 108.00,264.00
             108.00,264.00 115.00,264.00 115.00,264.00 Z
           M 168.00,249.00
           C 168.00,249.00 144.00,249.00 144.00,249.00
             144.00,249.00 132.00,248.04 132.00,248.04
             132.00,248.04 116.00,248.04 116.00,248.04
             116.25,251.13 117.18,261.15 119.58,262.98
             121.65,264.56 132.89,264.03 136.00,264.00
             136.00,264.00 149.00,263.00 149.00,263.00
             149.00,263.00 169.00,263.00 169.00,263.00
             169.00,263.00 168.00,249.00 168.00,249.00 Z
           M 247.00,249.00
           C 247.00,249.00 229.00,249.00 229.00,249.00
             229.00,249.00 228.00,263.00 228.00,263.00
             228.00,263.00 245.00,264.00 245.00,264.00
             245.00,264.00 247.00,249.00 247.00,249.00 Z
           M 280.00,248.00
           C 280.00,248.00 258.00,248.00 258.00,248.00
             258.00,248.00 252.02,249.60 252.02,249.60
             252.02,249.60 250.00,264.00 250.00,264.00
             250.00,264.00 270.00,264.00 270.00,264.00
             270.00,264.00 276.07,262.40 276.07,262.40
             276.07,262.40 280.00,248.00 280.00,248.00 Z
           M 225.00,249.00
           C 225.00,249.00 178.00,249.00 178.00,249.00
             178.00,249.00 178.00,263.00 178.00,263.00
             178.00,263.00 224.00,263.00 224.00,263.00
             224.00,263.00 225.00,249.00 225.00,249.00 Z
           M 169.00,265.00
           C 169.00,265.00 148.00,265.00 148.00,265.00
             148.00,265.00 136.00,265.96 136.00,265.96
             136.00,265.96 119.00,265.96 119.00,265.96
             119.00,265.96 122.00,281.00 122.00,281.00
             122.00,281.00 143.00,282.00 143.00,282.00
             143.00,282.00 170.00,282.00 170.00,282.00
             170.00,282.00 169.00,265.00 169.00,265.00 Z
           M 224.00,265.00
           C 224.00,265.00 178.00,265.00 178.00,265.00
             178.00,265.00 178.00,275.00 178.00,275.00
             178.05,277.35 177.85,280.19 180.31,281.40
             182.16,282.31 190.48,282.00 193.00,282.00
             193.00,282.00 222.00,282.00 222.00,282.00
             222.00,282.00 224.00,265.00 224.00,265.00 Z
           M 245.00,266.01
           C 241.33,265.97 231.00,264.13 228.60,266.01
             226.26,267.87 226.01,278.88 226.00,282.00
             229.47,282.00 239.84,282.83 242.02,280.26
             243.36,278.68 244.51,268.71 245.00,266.01 Z
           M 107.00,281.00
           C 106.93,277.82 106.29,268.93 103.44,267.05
             101.99,266.18 95.23,266.99 93.00,267.05
             84.33,267.04 81.83,266.83 73.00,268.00
             73.55,271.03 75.05,277.15 77.65,279.01
             79.69,280.47 86.33,280.00 89.00,280.00
             89.00,280.00 107.00,281.00 107.00,281.00 Z
           M 116.00,266.00
           C 116.00,266.00 109.00,266.00 109.00,266.00
             110.84,279.67 110.92,280.91 119.00,281.00
             119.00,281.00 116.00,266.00 116.00,266.00 Z
           M 275.00,266.00
           C 275.00,266.00 249.00,266.00 249.00,266.00
             249.00,266.00 247.00,281.00 247.00,281.00
             247.00,281.00 264.00,281.00 264.00,281.00
             265.96,280.99 268.84,281.14 270.49,279.98
             273.48,277.88 274.71,269.50 275.00,266.00 Z
           M 305.00,268.00
           C 305.00,268.00 285.00,267.00 285.00,267.00
             285.00,267.00 278.72,267.99 278.72,267.99
             278.72,267.99 274.00,281.00 274.00,281.00
             274.00,281.00 293.00,280.00 293.00,280.00
             293.00,280.00 300.49,278.98 300.49,278.98
             300.49,278.98 305.00,268.00 305.00,268.00 Z
           M 74.00,279.00
           C 73.15,276.56 71.28,270.46 69.30,269.00
             66.66,267.03 59.19,268.58 56.00,269.00
             58.01,281.79 63.39,279.00 74.00,279.00 Z
           M 318.00,269.00
           C 318.00,269.00 308.00,268.00 308.00,268.00
             308.00,268.00 305.00,279.00 305.00,279.00
             313.82,278.99 315.23,279.25 318.00,269.00 Z
           M 56.00,278.00
           C 56.00,278.00 52.30,270.00 52.30,270.00
             52.30,270.00 39.00,270.00 39.00,270.00
             40.89,279.80 47.75,278.00 56.00,278.00 Z
           M 343.00,271.00
           C 338.69,270.43 324.59,267.96 321.39,270.02
             318.68,271.77 317.69,276.06 317.00,279.00
             317.00,279.00 334.00,277.28 334.00,277.28
             334.00,277.28 340.35,276.01 340.35,276.01
             340.35,276.01 343.00,271.00 343.00,271.00 Z
           M 39.00,277.00
           C 36.55,268.97 33.03,271.07 26.00,272.00
             29.15,276.91 33.53,276.56 39.00,277.00 Z
           M 346.00,271.00
           C 346.00,271.00 343.00,276.00 343.00,276.00
             343.00,276.00 346.00,271.00 346.00,271.00 Z
           M 355.00,273.00
           C 350.58,272.26 348.66,271.28 347.00,276.00
             347.00,276.00 355.00,273.00 355.00,273.00 Z
           M 26.00,275.00
           C 24.37,273.17 24.34,273.24 22.00,274.00
             22.00,274.00 26.00,275.00 26.00,275.00 Z
           M 51.00,298.18
           C 49.75,294.06 43.11,281.32 39.62,279.53
             37.31,278.35 31.67,278.06 29.00,278.00
             30.96,282.54 37.70,296.78 42.10,298.18
             44.11,299.08 48.65,298.19 51.00,298.18 Z
           M 343.00,278.00
           C 340.60,280.44 339.54,281.47 340.00,285.00
             340.00,285.00 343.00,278.00 343.00,278.00 Z
           M 44.00,279.00
           C 43.40,283.43 49.73,294.89 54.09,296.16
             55.64,296.82 61.74,296.05 64.00,296.16
             62.42,292.33 59.00,283.08 55.79,281.17
             53.27,279.68 48.45,280.26 44.00,279.00 Z
           M 340.00,279.00
           C 340.00,279.00 315.63,281.99 315.63,281.99
             315.63,281.99 308.00,295.00 308.00,295.00
             308.00,295.00 323.00,297.02 323.00,297.02
             325.03,297.40 327.59,298.08 329.47,297.02
             332.63,295.11 338.37,282.77 340.00,279.00 Z
           M 81.00,294.21
           C 79.68,290.94 77.25,284.85 74.61,282.93
             71.29,280.53 64.05,281.00 60.00,281.00
             61.18,284.37 64.13,292.91 67.39,294.21
             70.23,295.75 77.66,294.27 81.00,294.21 Z
           M 313.00,281.00
           C 302.69,281.10 303.37,283.07 299.00,294.18
             300.87,294.43 302.88,295.08 304.79,294.18
             308.18,293.08 311.56,284.34 313.00,281.00 Z
           M 111.00,292.00
           C 111.00,292.00 107.49,284.02 107.49,284.02
             107.49,284.02 98.00,282.99 98.00,282.99
             98.00,282.99 89.00,282.04 89.00,282.04
             89.00,282.04 78.00,282.04 78.00,282.04
             78.00,282.04 83.64,293.09 83.64,293.09
             83.64,293.09 92.00,293.09 92.00,293.09
             92.00,293.09 111.00,292.00 111.00,292.00 Z
           M 300.00,282.00
           C 300.00,282.00 281.00,282.91 281.00,282.91
             281.00,282.91 273.70,283.99 273.70,283.99
             273.70,283.99 270.00,293.00 270.00,293.00
             270.00,293.00 292.95,293.84 292.95,293.84
             297.98,293.13 299.24,286.19 300.00,282.00 Z
           M 122.00,292.00
           C 120.99,285.00 120.31,283.26 113.00,283.00
             113.66,290.81 114.33,291.90 122.00,292.00 Z
           M 270.00,283.04
           C 270.00,283.04 257.00,283.04 257.00,283.04
             257.00,283.04 246.00,284.00 246.00,284.00
             246.00,284.00 245.00,291.00 245.00,291.00
             245.00,291.00 268.00,292.00 268.00,292.00
             268.00,292.00 270.00,283.04 270.00,283.04 Z
           M 170.00,284.00
           C 170.00,284.00 124.00,284.00 124.00,284.00
             124.25,286.68 124.39,290.14 127.28,291.19
             128.82,292.06 138.21,291.00 141.00,291.19
             148.52,290.99 164.54,291.83 171.00,290.00
             171.00,290.00 170.00,284.00 170.00,284.00 Z
           M 221.00,284.00
           C 221.00,284.00 179.00,284.00 179.00,284.00
             179.00,284.00 179.00,291.00 179.00,291.00
             179.00,291.00 221.00,291.00 221.00,291.00
             221.00,291.00 221.00,284.00 221.00,284.00 Z
           M 242.00,284.00
           C 242.00,284.00 225.00,284.00 225.00,284.00
             225.00,284.00 224.00,291.00 224.00,291.00
             224.00,291.00 241.00,291.00 241.00,291.00
             241.00,291.00 242.00,284.00 242.00,284.00 Z
           M 337.00,289.00
           C 337.00,289.00 336.00,289.00 336.00,289.00
             336.00,289.00 337.00,290.00 337.00,290.00
             337.00,290.00 337.00,289.00 337.00,289.00 Z
           M 336.00,291.00
           C 336.00,291.00 335.00,291.00 335.00,291.00
             335.00,291.00 336.00,292.00 336.00,292.00
             336.00,292.00 336.00,291.00 336.00,291.00 Z
           M 220.00,293.00
           C 220.00,293.00 208.00,293.00 208.00,293.00
             208.00,293.00 187.00,292.00 187.00,292.00
             184.87,292.02 181.49,291.74 180.01,293.60
             177.78,296.44 179.50,309.24 180.01,313.00
             180.01,313.00 217.00,313.00 217.00,313.00
             217.00,313.00 220.00,293.00 220.00,293.00 Z
           M 171.00,293.00
           C 171.00,293.00 143.00,293.00 143.00,293.00
             143.00,293.00 126.00,294.00 126.00,294.00
             127.19,297.58 130.87,310.13 133.51,311.98
             135.29,313.23 138.85,313.00 141.00,313.00
             141.00,313.00 173.00,313.00 173.00,313.00
             173.00,313.00 171.00,293.00 171.00,293.00 Z
           M 240.00,293.00
           C 236.93,293.00 226.67,292.43 224.58,294.02
             222.18,295.85 220.28,309.59 220.00,313.00
             222.99,313.00 233.27,313.57 235.28,312.01
             237.85,310.00 239.71,296.57 240.00,293.00 Z
           M 266.00,293.96
           C 266.00,293.96 253.00,293.96 253.00,293.96
             250.80,293.63 247.49,292.68 245.56,293.96
             243.36,295.58 240.66,309.70 240.00,313.00
             242.57,312.94 256.98,311.97 258.37,311.01
             261.66,308.71 265.28,298.00 266.00,293.96 Z
           M 117.00,312.00
           C 116.24,308.65 113.03,296.78 110.49,294.87
             108.22,293.44 104.54,294.42 102.00,294.87
             95.40,295.49 92.07,294.28 85.00,296.00
             86.27,299.46 90.33,308.08 93.38,309.98
             95.57,311.35 99.42,310.91 102.00,311.09
             102.00,311.09 117.00,312.00 117.00,312.00 Z
           M 130.00,312.00
           C 123.43,295.57 125.31,294.12 116.00,294.00
             116.33,297.65 118.56,308.91 121.51,310.98
             123.39,312.30 127.69,312.00 130.00,312.00 Z
           M 295.00,296.00
           C 295.00,296.00 277.00,294.91 277.00,294.91
             277.00,294.91 269.39,295.64 269.39,295.64
             269.39,295.64 261.00,312.00 261.00,312.00
             261.00,312.00 279.00,311.00 279.00,311.00
             279.00,311.00 288.37,309.40 288.37,309.40
             288.37,309.40 295.00,296.00 295.00,296.00 Z
           M 90.00,311.00
           C 88.75,306.73 84.54,297.47 79.91,296.33
             79.91,296.33 68.00,297.00 68.00,297.00
             69.24,301.37 71.50,307.42 76.04,309.26
             76.04,309.26 90.00,311.00 90.00,311.00 Z
           M 304.00,296.84
           C 302.46,296.67 300.85,296.12 299.27,296.84
             296.23,297.78 292.87,306.94 292.00,310.00
             298.97,308.86 301.72,303.17 304.00,296.84 Z
           M 328.00,300.00
           C 324.03,299.00 310.47,296.25 307.18,298.04
             304.06,299.73 300.37,306.72 299.00,310.00
             299.00,310.00 323.67,306.07 323.67,306.07
             323.67,306.07 328.00,300.00 328.00,300.00 Z
           M 71.00,309.00
           C 67.59,299.71 65.12,296.54 55.00,299.00
             58.58,307.38 62.35,308.81 71.00,309.00 Z
           M 53.00,299.00
           C 53.00,299.00 43.00,301.00 43.00,301.00
             46.76,307.45 52.14,306.75 59.00,308.00
             59.00,308.00 53.00,299.00 53.00,299.00 Z
           M 337.00,303.00
           C 331.51,300.52 330.24,300.90 327.00,306.00
             327.00,306.00 337.00,303.00 337.00,303.00 Z
           M 42.00,302.00
           C 42.00,302.00 44.00,305.00 44.00,305.00
             44.00,305.00 42.00,302.00 42.00,302.00 Z
           M 322.00,309.00
           C 322.00,309.00 308.00,310.72 308.00,310.72
             299.09,311.78 295.12,310.50 291.00,321.00
             291.00,321.00 309.00,323.10 309.00,323.10
             313.56,322.07 319.68,312.99 322.00,309.00 Z
           M 79.00,322.00
           C 75.91,312.30 72.56,310.78 63.00,310.00
             66.99,316.84 70.68,321.71 79.00,322.00 Z
           M 77.00,311.00
           C 77.00,311.00 78.72,316.95 78.72,316.95
             78.72,316.95 82.32,320.39 82.32,320.39
             82.32,320.39 96.00,319.00 96.00,319.00
             91.62,308.99 87.35,313.52 77.00,311.00 Z
           M 49.00,311.00
           C 49.00,311.00 54.00,316.00 54.00,316.00
             54.00,316.00 49.00,311.00 49.00,311.00 Z
           M 294.00,312.00
           C 288.62,312.92 287.82,315.11 286.00,320.00
             290.87,318.50 292.04,316.57 294.00,312.00 Z
           M 119.00,318.08
           C 119.00,318.08 117.41,315.02 117.41,315.02
             117.41,315.02 111.00,313.83 111.00,313.83
             111.00,313.83 95.00,313.00 95.00,313.00
             99.20,320.56 101.64,318.87 109.00,318.08
             109.00,318.08 119.00,318.08 119.00,318.08 Z
           M 286.00,313.00
           C 281.18,313.00 263.84,312.80 260.41,315.02
             259.06,315.90 258.79,316.76 258.00,318.00
             258.00,318.00 283.00,320.00 283.00,320.00
             283.00,320.00 286.00,313.00 286.00,313.00 Z
           M 132.00,317.00
           C 129.05,313.06 126.64,314.00 122.00,314.00
             124.63,317.93 127.62,317.00 132.00,317.00 Z
           M 257.00,314.00
           C 257.00,314.00 239.00,315.00 239.00,315.00
             239.00,315.00 239.00,317.00 239.00,317.00
             244.25,317.00 253.85,318.70 257.00,314.00 Z
           M 158.00,315.00
           C 158.00,315.00 134.00,316.00 134.00,316.00
             137.81,317.07 154.35,316.45 158.00,315.00 Z
           M 235.00,315.00
           C 235.00,315.00 219.00,316.00 219.00,316.00
             219.00,316.00 235.00,315.00 235.00,315.00 Z
           M 176.00,338.00
           C 176.00,338.00 172.98,318.60 172.98,318.60
             172.98,318.60 169.94,317.16 169.94,317.16
             169.94,317.16 158.00,318.00 158.00,318.00
             158.00,318.00 136.00,318.00 136.00,318.00
             136.81,322.29 141.96,334.69 145.53,337.01
             147.30,338.16 149.96,337.99 152.00,338.00
             152.00,338.00 176.00,338.00 176.00,338.00 Z
           M 215.00,318.00
           C 215.00,318.00 180.00,317.00 180.00,317.00
             180.00,317.00 181.00,337.00 181.00,337.00
             181.00,337.00 201.00,337.91 201.00,337.91
             203.21,338.06 207.66,338.27 209.49,336.98
             212.39,334.92 214.68,321.75 215.00,318.00 Z
           M 234.00,318.00
           C 234.00,318.00 218.00,318.00 218.00,318.00
             218.00,318.00 213.00,338.00 213.00,338.00
             215.75,338.00 224.70,338.33 226.73,337.40
             230.65,335.61 233.62,322.20 234.00,318.00 Z
           M 255.00,318.82
           C 255.00,318.82 240.22,318.82 240.22,318.82
             236.54,320.08 232.72,334.04 232.00,338.00
             234.44,338.00 239.84,338.23 241.91,337.40
             246.38,335.61 252.83,323.50 255.00,318.82 Z
           M 129.00,338.00
           C 128.03,334.93 121.97,321.47 119.61,320.04
             117.43,318.71 103.84,320.19 101.00,321.00
             103.57,325.99 109.66,334.43 115.00,336.40
             115.00,336.40 129.00,338.00 129.00,338.00 Z
           M 143.00,338.00
           C 143.00,338.00 132.61,320.02 132.61,320.02
             132.61,320.02 124.00,319.00 124.00,319.00
             125.08,322.98 129.79,335.75 133.39,337.43
             135.14,338.24 140.83,338.00 143.00,338.00 Z
           M 282.00,321.00
           C 282.00,321.00 266.00,319.77 266.00,319.77
             263.78,319.76 260.20,318.88 258.21,319.77
             255.15,320.80 246.75,334.59 245.00,338.00
             245.00,338.00 259.00,337.01 259.00,337.01
             263.15,336.91 268.23,337.54 271.83,335.15
             275.57,332.65 280.00,325.09 282.00,321.00 Z
           M 111.00,337.00
           C 109.29,333.39 100.63,322.24 96.83,321.31
             94.12,320.64 86.79,322.18 84.00,323.00
             90.32,337.81 97.69,335.24 111.00,337.00 Z
           M 286.00,322.00
           C 286.00,322.00 284.00,322.00 284.00,322.00
             284.00,322.00 281.00,328.00 281.00,328.00
             281.00,328.00 286.00,322.00 286.00,322.00 Z
           M 307.00,325.00
           C 303.48,324.34 292.98,321.95 290.00,322.77
             285.90,323.88 278.54,332.45 276.00,336.00
             286.81,335.12 301.14,335.75 307.00,325.00 Z
           M 90.00,335.00
           C 87.30,329.26 82.96,322.87 76.00,324.00
             76.00,324.00 76.00,326.00 76.00,326.00
             81.22,329.94 83.46,333.61 90.00,335.00 Z
           M 84.00,333.00
           C 75.11,326.64 75.93,322.36 65.00,327.00
             68.95,331.89 77.84,335.05 84.00,333.00 Z
           M 281.00,328.00
           C 281.00,328.00 280.00,328.00 280.00,328.00
             280.00,328.00 281.00,329.00 281.00,329.00
             281.00,329.00 281.00,328.00 281.00,328.00 Z
           M 280.00,329.00
           C 280.00,329.00 279.00,329.00 279.00,329.00
             279.00,329.00 280.00,330.00 280.00,330.00
             280.00,330.00 280.00,329.00 280.00,329.00 Z
           M 279.00,330.00
           C 279.00,330.00 278.00,330.00 278.00,330.00
             278.00,330.00 279.00,331.00 279.00,331.00
             279.00,331.00 279.00,330.00 279.00,330.00 Z
           M 303.00,331.00
           C 303.00,331.00 302.00,331.00 302.00,331.00
             302.00,331.00 303.00,332.00 303.00,332.00
             303.00,332.00 303.00,331.00 303.00,331.00 Z
           M 98.00,343.00
           C 95.05,338.93 93.91,337.44 89.00,336.00
             91.99,339.83 93.52,341.09 98.00,343.00 Z
           M 115.00,341.00
           C 115.00,341.00 112.73,338.72 112.73,338.72
             112.73,338.72 95.00,337.00 95.00,337.00
             101.45,345.70 104.13,341.88 115.00,341.00 Z
           M 270.00,338.00
           C 270.00,338.00 253.00,340.00 253.00,340.00
             259.33,340.51 264.99,342.95 270.00,338.00 Z
           M 295.00,338.00
           C 295.00,338.00 294.00,338.00 294.00,338.00
             294.00,338.00 295.00,339.00 295.00,339.00
             295.00,339.00 295.00,338.00 295.00,338.00 Z
           M 124.00,339.00
           C 124.00,339.00 117.00,340.00 117.00,340.00
             117.00,340.00 124.00,339.00 124.00,339.00 Z
           M 157.00,356.19
           C 157.00,356.19 150.67,348.00 150.67,348.00
             144.97,340.73 143.95,338.17 134.00,341.00
             136.30,345.30 141.42,354.73 146.04,356.19
             148.42,357.25 154.07,356.13 157.00,356.19 Z
           M 177.00,341.00
           C 177.00,341.00 161.00,340.00 161.00,340.00
             161.00,340.00 147.00,340.00 147.00,340.00
             149.10,344.30 154.64,353.64 159.09,355.20
             162.12,356.60 175.33,355.00 180.00,355.20
             180.00,355.20 177.00,341.00 177.00,341.00 Z
           M 227.00,340.00
           C 227.00,340.00 212.50,341.02 212.50,341.02
             212.50,341.02 206.00,354.99 206.00,354.99
             209.39,355.82 216.55,356.93 219.61,354.99
             222.93,352.86 226.10,343.83 227.00,340.00 Z
           M 240.00,340.00
           C 240.00,340.00 230.00,340.00 230.00,340.00
             230.00,340.00 223.00,356.00 223.00,356.00
             230.33,354.82 237.38,346.70 240.00,340.00 Z
           M 142.00,357.00
           C 142.00,357.00 130.62,341.79 130.62,341.79
             130.62,341.79 120.00,341.79 120.00,341.79
             124.73,348.46 133.76,356.41 142.00,357.00 Z
           M 209.00,341.00
           C 209.00,341.00 181.00,341.00 181.00,341.00
             181.00,341.00 182.00,355.00 182.00,355.00
             185.87,355.00 201.04,355.68 203.50,353.98
             206.20,352.12 208.27,344.21 209.00,341.00 Z
           M 265.00,343.00
           C 260.69,341.95 246.91,340.15 243.00,341.60
             240.06,342.69 229.29,354.06 227.00,357.00
             235.83,357.00 243.04,358.33 251.00,354.00
             252.51,357.61 257.67,351.59 259.00,350.00
             259.00,350.00 255.00,352.00 255.00,352.00
             255.00,352.00 265.00,343.00 265.00,343.00 Z
           M 136.00,356.04
           C 136.00,356.04 117.00,342.68 117.00,342.68
             117.00,342.68 103.00,344.00 103.00,344.00
             107.82,353.37 116.48,355.39 126.00,356.04
             130.00,356.38 132.06,357.51 136.00,356.04 Z
           M 288.00,341.00
           C 288.00,341.00 286.00,344.00 286.00,344.00
             286.00,344.00 286.00,343.00 286.00,343.00
             286.00,343.00 288.00,341.00 288.00,341.00 Z
           M 99.00,343.00
           C 99.00,343.00 98.00,343.00 98.00,343.00
             98.00,343.00 99.00,344.00 99.00,344.00
             99.00,344.00 99.00,343.00 99.00,343.00 Z
           M 87.00,346.00
           C 87.00,346.00 88.00,346.00 88.00,346.00
             88.00,346.00 87.00,347.00 87.00,347.00
             87.00,347.00 87.00,346.00 87.00,346.00 Z
           M 260.00,349.00
           C 260.00,349.00 259.00,349.00 259.00,349.00
             259.00,349.00 260.00,350.00 260.00,350.00
             260.00,350.00 260.00,349.00 260.00,349.00 Z
           M 278.00,348.00
           C 278.00,348.00 279.00,348.00 279.00,348.00
             279.00,348.00 278.00,349.00 278.00,349.00
             278.00,349.00 278.00,348.00 278.00,348.00 Z
           M 281.00,349.00
           C 281.00,349.00 282.00,349.00 282.00,349.00
             282.00,349.00 281.00,350.00 281.00,350.00
             281.00,350.00 281.00,349.00 281.00,349.00 Z
           M 95.00,351.00
           C 95.00,351.00 96.00,351.00 96.00,351.00
             96.00,351.00 95.00,352.00 95.00,352.00
             95.00,352.00 95.00,351.00 95.00,351.00 Z
           M 273.00,351.00
           C 273.00,351.00 274.00,351.00 274.00,351.00
             274.00,351.00 273.00,352.00 273.00,352.00
             273.00,352.00 273.00,351.00 273.00,351.00 Z
           M 97.00,352.00
           C 97.00,352.00 104.00,354.00 104.00,354.00
             104.00,354.00 97.00,352.00 97.00,352.00 Z
           M 271.00,352.00
           C 271.00,352.00 272.00,355.00 272.00,355.00
             267.05,355.40 262.76,356.89 258.00,355.00
             263.75,354.95 265.87,354.94 271.00,352.00 Z
           M 273.00,355.00
           C 275.29,352.22 277.65,351.89 281.00,353.00
             281.00,353.00 273.00,355.00 273.00,355.00 Z
           M 112.00,354.00
           C 112.00,354.00 111.00,354.00 111.00,354.00
             111.00,354.00 112.00,355.00 112.00,355.00
             112.00,355.00 112.00,354.00 112.00,354.00 Z
           M 180.00,356.00
           C 180.00,356.00 160.00,358.00 160.00,358.00
             160.00,358.00 180.00,358.00 180.00,358.00
             180.00,358.00 180.00,356.00 180.00,356.00 Z
           M 203.00,356.00
           C 203.00,356.00 183.00,356.00 183.00,356.00
             186.13,360.49 190.32,358.61 195.00,358.08
             195.00,358.08 203.00,358.08 203.00,358.08
             203.00,358.08 203.00,356.00 203.00,356.00 Z
           M 219.00,357.00
           C 214.66,357.00 207.52,355.81 204.00,358.00
             204.00,358.00 219.00,357.00 219.00,357.00 Z
           M 250.00,357.00
           C 250.00,357.00 245.00,359.00 245.00,359.00
             245.00,359.00 250.00,357.00 250.00,357.00 Z
           M 147.00,361.00
           C 147.00,361.00 146.00,361.00 146.00,361.00
             146.00,361.00 147.00,362.00 147.00,362.00
             147.00,362.00 147.00,361.00 147.00,361.00 Z
           M 238.00,361.00
           C 238.00,361.00 239.00,361.00 239.00,361.00
             239.00,361.00 238.00,362.00 238.00,362.00
             238.00,362.00 238.00,361.00 238.00,361.00 Z
           M 127.00,363.00
           C 127.00,363.00 128.00,363.00 128.00,363.00
             128.00,363.00 127.00,364.00 127.00,364.00
             127.00,364.00 127.00,363.00 127.00,363.00 Z
           M 129.00,364.00
           C 129.00,364.00 130.00,364.00 130.00,364.00
             130.00,364.00 129.00,365.00 129.00,365.00
             129.00,365.00 129.00,364.00 129.00,364.00 Z
           M 239.00,365.00
           C 239.00,365.00 240.00,366.00 240.00,366.00
             240.00,366.00 235.00,367.00 235.00,367.00
             235.00,367.00 239.00,365.00 239.00,365.00 Z
           M 171.00,368.00
           C 171.00,368.00 179.00,369.00 179.00,369.00
             179.00,369.00 176.00,371.00 176.00,371.00
             176.00,371.00 171.00,368.00 171.00,368.00 Z
           M 233.00,368.00
           C 233.00,368.00 234.00,369.00 234.00,369.00
             234.00,369.00 229.00,369.00 229.00,369.00
             229.00,369.00 233.00,368.00 233.00,368.00 Z
           M 147.00,369.00
           C 147.00,369.00 148.00,369.00 148.00,369.00
             148.00,369.00 147.00,370.00 147.00,370.00
             147.00,370.00 147.00,369.00 147.00,369.00 Z
           M 149.00,369.00
           C 149.00,369.00 150.00,369.00 150.00,369.00
             150.00,369.00 149.00,370.00 149.00,370.00
             149.00,370.00 149.00,369.00 149.00,369.00 Z
           M 162.00,372.00
           C 162.00,372.00 163.00,372.00 163.00,372.00
             163.00,372.00 162.00,373.00 162.00,373.00
             162.00,373.00 162.00,372.00 162.00,372.00 Z
           M 164.00,373.00
           C 164.00,373.00 165.00,373.00 165.00,373.00
             165.00,373.00 164.00,374.00 164.00,374.00
             164.00,374.00 164.00,373.00 164.00,373.00 Z" />
</svg>
