<?xml version="1.0" encoding="UTF-8" standalone="no"?>
<!DOCTYPE svg PUBLIC "-//W3C//DTD SVG 20010904//EN"
              "http://www.w3.org/TR/2001/REC-SVG-20010904/DTD/svg10.dtd">

<svg xmlns="http://www.w3.org/2000/svg"
     width="1.25667in" height="1.25667in"
     viewBox="0 0 377 377">
  <path id="Auswahl #2"
        fill="none" stroke="black" stroke-width="1"
        d="M 187.00,0.00
           C 187.00,0.00 187.00,18.00 187.00,18.00
             187.00,18.00 200.00,18.00 200.00,18.00
             200.00,18.00 193.00,6.00 193.00,6.00
             193.00,6.00 202.38,16.98 202.38,16.98
             202.38,16.98 221.00,19.00 221.00,19.00
             221.00,19.00 214.00,12.00 214.00,12.00
             214.00,12.00 218.00,14.00 218.00,14.00
             218.00,14.00 207.00,3.00 207.00,3.00
             210.96,4.41 219.08,9.23 221.00,3.00
             221.00,3.00 225.00,4.00 225.00,4.00
             221.78,7.28 220.44,7.36 216.00,8.00
             225.72,18.59 222.87,19.19 234.99,19.00
             237.51,18.96 239.01,19.47 240.00,17.00
             244.42,17.96 244.87,17.87 249.00,16.00
             249.00,16.00 243.00,12.00 243.00,12.00
             246.88,13.86 253.11,18.44 255.00,12.00
             258.55,14.93 256.45,15.92 253.00,17.00
             259.24,23.46 265.53,20.37 274.00,24.00
             274.00,24.00 259.00,22.00 259.00,22.00
             261.33,24.23 269.48,31.82 272.00,32.81
             275.05,34.02 278.94,33.25 280.00,30.00
             284.04,31.16 284.37,29.98 288.00,28.00
             288.00,28.00 289.00,32.00 289.00,32.00
             289.00,32.00 286.00,35.00 286.00,35.00
             286.00,35.00 274.00,35.00 274.00,35.00
             277.34,41.82 282.22,41.22 289.00,41.95
             291.26,42.19 293.95,43.23 295.00,41.00
             295.00,41.00 302.00,44.00 302.00,44.00
             302.00,44.00 296.00,37.00 296.00,37.00
             296.00,37.00 305.00,43.73 305.00,43.73
             305.00,43.73 313.00,48.00 313.00,48.00
             313.00,48.00 308.00,47.00 308.00,47.00
             311.55,49.73 311.61,50.14 315.87,49.00
             315.80,50.48 315.38,52.55 315.87,54.00
             316.50,57.17 326.00,68.17 329.01,69.86
             334.39,72.89 336.07,70.50 340.00,77.00
             340.00,77.00 334.00,79.00 334.00,79.00
             335.43,81.96 343.63,96.93 345.39,98.57
             349.92,102.80 353.51,99.33 358.00,106.00
             358.00,106.00 349.00,109.00 349.00,109.00
             352.21,116.27 355.90,126.17 357.00,134.00
             357.00,134.00 370.00,136.00 370.00,136.00
             370.00,136.00 370.00,139.00 370.00,139.00
             370.00,139.00 359.00,141.00 359.00,141.00
             361.51,147.87 363.93,162.63 364.00,170.00
             364.00,170.00 376.00,170.00 376.00,170.00
             376.00,170.00 376.00,173.00 376.00,173.00
             376.00,173.00 365.00,174.00 365.00,174.00
             365.00,174.00 365.00,205.00 365.00,205.00
             365.00,205.00 376.00,205.00 376.00,205.00
             376.00,205.00 376.00,208.00 376.00,208.00
             376.00,208.00 364.00,209.00 364.00,209.00
             364.00,209.00 359.00,238.00 359.00,238.00
             359.00,238.00 370.00,240.00 370.00,240.00
             365.49,246.39 361.64,242.07 357.56,246.43
             355.88,248.23 354.82,252.57 354.00,255.00
             354.00,255.00 349.00,270.00 349.00,270.00
             349.00,270.00 357.00,272.00 357.00,272.00
             353.07,279.35 348.82,275.75 344.63,279.58
             344.63,279.58 333.00,299.00 333.00,299.00
             333.00,299.00 339.00,301.00 339.00,301.00
             335.43,308.01 332.41,305.60 327.09,308.93
             325.18,310.13 315.16,321.72 314.77,323.58
             314.06,325.05 314.73,327.46 314.77,329.00
             310.60,328.34 310.63,328.42 307.00,331.00
             307.00,331.00 312.00,331.00 312.00,331.00
             299.95,336.13 307.02,332.22 296.00,340.00
             296.00,340.00 301.00,334.00 301.00,334.00
             301.00,334.00 287.00,342.00 287.00,342.00
             287.00,342.00 294.00,335.00 294.00,335.00
             282.59,337.78 277.77,334.42 273.00,343.00
             279.48,343.30 279.68,344.61 286.00,342.00
             286.00,342.00 286.00,343.00 286.00,343.00
             286.00,343.00 284.00,345.00 284.00,345.00
             284.00,345.00 289.00,345.00 289.00,345.00
             289.00,345.00 285.00,350.00 285.00,350.00
             282.31,346.93 281.84,346.79 277.96,345.57
             269.44,342.89 264.87,349.40 259.00,355.00
             259.00,355.00 272.00,355.00 272.00,355.00
             264.46,355.35 258.28,355.57 252.00,360.00
             252.00,360.00 257.00,364.00 257.00,364.00
             257.00,364.00 254.00,365.00 254.00,365.00
             249.01,359.92 248.51,363.78 243.00,364.00
             243.00,364.00 247.00,360.00 247.00,360.00
             247.00,360.00 238.00,361.00 238.00,361.00
             236.79,358.23 233.70,358.64 231.00,358.81
             222.85,359.33 219.97,364.12 215.00,370.00
             215.00,370.00 224.00,370.00 224.00,370.00
             224.00,370.00 220.00,374.00 220.00,374.00
             217.82,368.38 211.12,373.28 207.00,373.00
             207.00,373.00 211.00,370.00 211.00,370.00
             211.00,370.00 207.00,368.00 207.00,368.00
             213.04,369.26 214.42,367.82 218.00,363.00
             218.00,363.00 214.00,365.00 214.00,365.00
             214.00,365.00 220.00,359.00 220.00,359.00
             215.60,359.00 205.56,358.16 202.18,360.60
             198.26,363.44 199.07,366.48 194.00,370.00
             194.00,370.00 199.00,360.00 199.00,360.00
             199.00,360.00 187.00,360.00 187.00,360.00
             187.00,360.00 187.00,371.00 187.00,371.00
             187.00,371.00 195.00,372.00 195.00,372.00
             195.00,372.00 187.00,372.00 187.00,372.00
             187.00,372.00 187.00,377.00 187.00,377.00
             187.00,377.00 186.00,372.00 186.00,372.00
             186.00,372.00 182.00,371.00 182.00,371.00
             182.00,371.00 185.00,370.00 185.00,370.00
             179.68,365.93 181.67,363.64 177.78,360.85
             174.14,358.25 164.61,359.00 160.00,359.00
             160.00,359.00 167.00,366.00 167.00,366.00
             158.75,361.21 160.02,359.10 150.00,359.00
             153.52,362.52 157.90,368.09 163.00,368.85
             165.49,369.23 168.01,369.48 169.00,367.00
             169.00,367.00 172.00,369.00 172.00,369.00
             169.00,369.88 166.09,369.86 165.00,373.00
             162.00,371.94 158.37,370.13 157.00,374.00
             157.00,374.00 153.00,370.00 153.00,370.00
             153.00,370.00 159.00,369.00 159.00,369.00
             152.69,365.61 149.60,360.85 146.00,359.42
             142.01,357.83 130.99,360.33 127.00,362.00
             127.00,362.00 130.00,364.00 130.00,364.00
             125.92,362.77 125.58,362.64 122.00,365.00
             122.00,365.00 123.00,360.00 123.00,360.00
             123.00,360.00 115.00,356.60 115.00,356.60
             115.00,356.60 105.00,354.00 105.00,354.00
             105.00,354.00 113.00,354.00 113.00,354.00
             111.00,352.09 101.85,341.72 100.00,347.00
             100.00,347.00 92.00,348.00 92.00,348.00
             92.00,348.00 96.00,352.00 96.00,352.00
             96.00,352.00 89.00,347.00 89.00,347.00
             89.00,347.00 95.00,343.00 95.00,343.00
             95.00,343.00 101.00,343.00 101.00,343.00
             98.29,340.38 95.78,337.60 92.00,336.36
             89.85,336.01 88.08,336.33 86.00,336.36
             80.28,335.58 69.20,333.70 65.00,330.00
             65.00,330.00 68.00,331.00 68.00,331.00
             68.00,331.00 61.80,329.00 61.80,329.00
             61.98,327.68 62.16,326.89 61.80,325.57
             60.53,322.97 49.46,310.33 46.99,308.51
             42.25,305.01 41.48,307.02 38.00,301.00
             38.00,301.00 42.00,300.00 42.00,300.00
             42.00,300.00 30.04,280.22 30.04,280.22
             30.04,280.22 20.00,272.00 20.00,272.00
             21.70,270.90 23.50,270.15 23.79,267.87
             24.00,266.24 22.79,263.54 22.20,262.00
             20.85,258.49 17.69,247.62 15.49,245.58
             11.87,242.23 9.51,245.40 7.00,239.00
             7.00,239.00 15.00,238.00 15.00,238.00
             12.28,230.57 10.07,216.95 10.00,209.00
             10.00,209.00 1.00,208.00 1.00,208.00
             1.00,208.00 1.00,205.00 1.00,205.00
             1.00,205.00 9.00,205.00 9.00,205.00
             9.00,205.00 9.00,182.00 9.00,182.00
             8.99,180.00 9.12,177.02 7.98,175.31
             6.38,172.91 3.54,173.09 1.00,173.00
             1.00,173.00 1.00,170.00 1.00,170.00
             1.00,170.00 8.40,168.40 8.40,168.40
             8.40,168.40 10.58,160.00 10.58,160.00
             10.58,160.00 14.00,140.00 14.00,140.00
             14.00,140.00 7.00,139.00 7.00,139.00
             9.22,132.65 12.37,136.78 15.92,131.77
             15.92,131.77 25.00,108.00 25.00,108.00
             25.00,108.00 19.00,107.00 19.00,107.00
             21.78,99.47 25.12,103.35 29.04,98.70
             29.04,98.70 41.00,79.00 41.00,79.00
             41.00,79.00 37.00,77.00 37.00,77.00
             40.66,70.70 41.21,73.31 45.83,70.15
             47.99,68.68 59.69,54.85 60.80,52.58
             61.13,51.24 60.97,50.35 60.80,49.00
             60.80,49.00 64.00,51.00 64.00,51.00
             64.00,51.00 67.00,47.00 67.00,47.00
             67.00,47.00 64.00,47.00 64.00,47.00
             64.00,47.00 86.00,40.00 86.00,40.00
             88.60,45.71 97.70,37.23 100.00,35.00
             100.00,35.00 92.00,36.00 92.00,36.00
             92.00,36.00 92.00,35.00 92.00,35.00
             92.00,35.00 94.00,33.00 94.00,33.00
             94.00,33.00 88.00,31.00 88.00,31.00
             88.00,31.00 88.00,29.00 88.00,29.00
             88.00,29.00 89.00,28.00 89.00,28.00
             89.00,28.00 91.00,28.00 91.00,28.00
             93.75,30.94 93.97,31.12 98.00,31.00
             103.27,34.29 109.39,26.44 113.00,23.00
             113.00,23.00 109.00,22.00 109.00,22.00
             109.00,22.00 122.00,18.00 122.00,18.00
             122.00,18.00 119.00,13.00 119.00,13.00
             119.00,13.00 130.00,14.00 130.00,14.00
             130.00,14.00 126.00,17.00 126.00,17.00
             132.35,17.52 133.76,19.03 140.00,17.00
             141.12,19.47 143.76,19.08 146.00,17.97
             148.75,16.62 155.75,9.58 158.00,7.00
             158.00,7.00 151.00,7.00 151.00,7.00
             151.00,7.00 152.00,4.00 152.00,4.00
             152.00,4.00 155.00,3.00 155.00,3.00
             158.89,7.26 160.04,6.03 165.00,4.00
             165.00,4.00 164.00,7.00 164.00,7.00
             164.00,7.00 167.00,7.00 167.00,7.00
             157.78,9.36 155.79,10.92 150.00,19.00
             159.45,18.76 158.97,15.69 167.00,11.00
             167.00,11.00 159.00,19.00 159.00,19.00
             159.00,19.00 177.61,16.98 177.61,16.98
             177.61,16.98 184.00,8.00 184.00,8.00
             184.00,8.00 180.00,18.00 180.00,18.00
             180.00,18.00 184.00,18.00 184.00,18.00
             184.00,18.00 187.00,0.00 187.00,0.00 Z
           M 205.00,2.00
           C 205.00,2.00 206.00,2.00 206.00,2.00
             206.00,2.00 205.00,3.00 205.00,3.00
             205.00,3.00 205.00,2.00 205.00,2.00 Z
           M 166.00,3.00
           C 166.00,3.00 167.00,3.00 167.00,3.00
             167.00,3.00 166.00,4.00 166.00,4.00
             166.00,4.00 166.00,3.00 166.00,3.00 Z
           M 170.00,6.00
           C 170.00,6.00 177.00,7.00 177.00,7.00
             177.00,7.00 170.00,6.00 170.00,6.00 Z
           M 200.00,6.00
           C 200.00,6.00 201.00,6.00 201.00,6.00
             201.00,6.00 200.00,7.00 200.00,7.00
             200.00,7.00 200.00,6.00 200.00,6.00 Z
           M 202.00,6.00
           C 202.00,6.00 207.00,7.00 207.00,7.00
             207.00,7.00 202.00,6.00 202.00,6.00 Z
           M 229.00,7.00
           C 229.00,7.00 230.00,7.00 230.00,7.00
             230.00,7.00 229.00,8.00 229.00,8.00
             229.00,8.00 229.00,7.00 229.00,7.00 Z
           M 140.00,8.00
           C 140.00,8.00 141.00,8.00 141.00,8.00
             141.00,8.00 140.00,9.00 140.00,9.00
             140.00,9.00 140.00,8.00 140.00,8.00 Z
           M 167.00,8.00
           C 167.00,8.00 178.00,9.00 178.00,9.00
             178.00,9.00 167.00,8.00 167.00,8.00 Z
           M 199.00,8.00
           C 199.00,8.00 205.00,9.00 205.00,9.00
             205.00,9.00 199.00,8.00 199.00,8.00 Z
           M 206.00,8.00
           C 206.00,8.00 210.00,10.00 210.00,10.00
             210.00,10.00 206.00,8.00 206.00,8.00 Z
           M 235.00,8.00
           C 235.00,8.00 240.00,11.00 240.00,11.00
             240.00,11.00 235.00,8.00 235.00,8.00 Z
           M 241.00,11.00
           C 241.00,11.00 242.00,11.00 242.00,11.00
             242.00,11.00 241.00,12.00 241.00,12.00
             241.00,12.00 241.00,11.00 241.00,11.00 Z
           M 131.00,12.00
           C 131.00,12.00 132.00,12.00 132.00,12.00
             132.00,12.00 131.00,13.00 131.00,13.00
             131.00,13.00 131.00,12.00 131.00,12.00 Z
           M 219.00,14.00
           C 219.00,14.00 218.00,14.00 218.00,14.00
             218.00,14.00 219.00,15.00 219.00,15.00
             219.00,15.00 219.00,14.00 219.00,14.00 Z
           M 232.00,13.00
           C 232.00,13.00 233.00,13.00 233.00,13.00
             233.00,13.00 232.00,14.00 232.00,14.00
             232.00,14.00 232.00,13.00 232.00,13.00 Z
           M 145.00,14.00
           C 145.00,14.00 146.00,14.00 146.00,14.00
             146.00,14.00 145.00,15.00 145.00,15.00
             145.00,15.00 145.00,14.00 145.00,14.00 Z
           M 220.00,15.00
           C 220.00,15.00 219.00,15.00 219.00,15.00
             219.00,15.00 220.00,16.00 220.00,16.00
             220.00,16.00 220.00,15.00 220.00,15.00 Z
           M 234.00,14.00
           C 234.00,14.00 235.00,14.00 235.00,14.00
             235.00,14.00 234.00,15.00 234.00,15.00
             234.00,15.00 234.00,14.00 234.00,14.00 Z
           M 143.00,15.00
           C 143.00,15.00 144.00,15.00 144.00,15.00
             144.00,15.00 143.00,16.00 143.00,16.00
             143.00,16.00 143.00,15.00 143.00,15.00 Z
           M 236.00,15.00
           C 236.00,15.00 237.00,15.00 237.00,15.00
             237.00,15.00 236.00,16.00 236.00,16.00
             236.00,16.00 236.00,15.00 236.00,15.00 Z
           M 141.00,16.00
           C 141.00,16.00 142.00,16.00 142.00,16.00
             142.00,16.00 141.00,17.00 141.00,17.00
             141.00,17.00 141.00,16.00 141.00,16.00 Z
           M 238.00,16.00
           C 238.00,16.00 239.00,16.00 239.00,16.00
             239.00,16.00 238.00,17.00 238.00,17.00
             238.00,17.00 238.00,16.00 238.00,16.00 Z
           M 133.00,19.00
           C 127.03,18.52 123.84,16.55 119.00,21.00
             119.00,21.00 133.00,19.00 133.00,19.00 Z
           M 254.00,21.00
           C 250.68,17.83 249.01,17.98 245.00,20.00
             245.00,20.00 254.00,21.00 254.00,21.00 Z
           M 178.00,19.00
           C 178.00,19.00 157.00,21.00 157.00,21.00
             157.00,21.00 178.00,21.00 178.00,21.00
             178.00,21.00 178.00,19.00 178.00,19.00 Z
           M 184.00,19.00
           C 184.00,19.00 180.00,19.00 180.00,19.00
             180.00,19.00 180.00,21.00 180.00,21.00
             180.00,21.00 184.00,21.00 184.00,21.00
             184.00,21.00 184.00,19.00 184.00,19.00 Z
           M 201.00,20.00
           C 201.00,20.00 187.00,19.00 187.00,19.00
             187.00,19.00 187.00,21.00 187.00,21.00
             187.00,21.00 201.00,20.00 201.00,20.00 Z
           M 221.00,20.00
           C 221.00,20.00 202.00,20.00 202.00,20.00
             206.57,21.30 216.59,21.75 221.00,20.00 Z
           M 132.00,21.00
           C 118.76,21.29 112.19,22.59 104.00,34.00
             106.85,34.51 110.12,35.28 113.00,34.72
             117.41,33.86 128.83,24.54 132.00,21.00 Z
           M 145.00,21.21
           C 142.42,21.00 137.30,20.84 135.00,21.21
             129.28,22.84 119.52,31.32 116.00,36.20
             120.35,36.04 130.53,37.80 133.79,36.20
             136.94,35.05 143.13,24.32 145.00,21.21 Z
           M 154.00,21.00
           C 152.34,21.02 149.83,20.91 148.32,21.57
             144.19,23.39 139.23,33.71 138.00,38.00
             143.75,36.16 150.74,26.14 154.00,21.00 Z
           M 224.00,21.00
           C 224.00,21.00 204.00,22.00 204.00,22.00
             204.52,25.34 206.80,35.08 209.51,36.98
             211.93,38.68 228.08,38.00 232.00,38.00
             232.00,38.00 224.00,21.00 224.00,21.00 Z
           M 264.00,35.00
           C 260.49,30.79 250.29,22.72 245.00,21.21
             245.00,21.21 227.00,21.21 227.00,21.21
             228.81,24.82 237.23,34.88 241.09,36.40
             244.77,37.86 259.96,36.15 264.00,35.00 Z
           M 269.00,35.00
           C 265.69,28.01 256.33,19.64 248.00,22.00
             253.76,25.84 262.84,33.70 269.00,35.00 Z
           M 177.00,22.00
           C 172.49,22.00 158.35,21.29 155.04,23.02
             150.99,25.14 145.30,33.90 143.00,38.00
             143.00,38.00 161.00,38.00 161.00,38.00
             161.00,38.00 174.00,37.00 174.00,37.00
             174.00,37.00 177.00,22.00 177.00,22.00 Z
           M 184.00,23.16
           C 182.75,22.98 181.51,22.73 180.31,23.16
             177.27,24.81 176.27,33.83 176.00,37.00
             176.00,37.00 183.00,37.00 183.00,37.00
             183.00,37.00 184.00,23.16 184.00,23.16 Z
           M 206.00,37.00
           C 205.41,33.14 203.90,24.14 199.87,22.82
             199.87,22.82 187.00,22.82 187.00,22.82
             187.00,22.82 186.00,37.00 186.00,37.00
             186.00,37.00 206.00,37.00 206.00,37.00 Z
           M 103.00,23.00
           C 103.00,23.00 108.00,24.00 108.00,24.00
             108.00,24.00 103.00,23.00 103.00,23.00 Z
           M 95.00,25.00
           C 95.00,25.00 102.00,25.00 102.00,25.00
             102.00,25.00 95.00,25.00 95.00,25.00 Z
           M 275.00,24.00
           C 275.00,24.00 282.00,26.00 282.00,26.00
             282.00,26.00 275.00,24.00 275.00,24.00 Z
           M 107.00,25.00
           C 107.00,25.00 108.00,25.00 108.00,25.00
             108.00,25.00 107.00,26.00 107.00,26.00
             107.00,26.00 107.00,25.00 107.00,25.00 Z
           M 105.00,26.00
           C 105.00,26.00 106.00,26.00 106.00,26.00
             106.00,26.00 105.00,27.00 105.00,27.00
             105.00,27.00 105.00,26.00 105.00,26.00 Z
           M 273.00,26.00
           C 273.00,26.00 274.00,26.00 274.00,26.00
             274.00,26.00 273.00,27.00 273.00,27.00
             273.00,27.00 273.00,26.00 273.00,26.00 Z
           M 102.00,28.00
           C 102.00,28.00 103.00,28.00 103.00,28.00
             103.00,28.00 102.00,29.00 102.00,29.00
             102.00,29.00 102.00,28.00 102.00,28.00 Z
           M 232.00,29.00
           C 232.00,29.00 231.00,29.00 231.00,29.00
             231.00,29.00 232.00,30.00 232.00,30.00
             232.00,30.00 232.00,29.00 232.00,29.00 Z
           M 233.00,30.00
           C 232.45,34.24 234.45,36.12 238.00,38.00
             238.00,38.00 233.00,30.00 233.00,30.00 Z
           M 278.00,29.00
           C 278.00,29.00 279.00,29.00 279.00,29.00
             279.00,29.00 278.00,30.00 278.00,30.00
             278.00,30.00 278.00,29.00 278.00,29.00 Z
           M 99.00,30.00
           C 99.00,30.00 100.00,30.00 100.00,30.00
             100.00,30.00 99.00,31.00 99.00,31.00
             99.00,31.00 99.00,30.00 99.00,30.00 Z
           M 291.00,33.00
           C 291.00,33.00 294.00,36.00 294.00,36.00
             294.00,36.00 291.00,33.00 291.00,33.00 Z
           M 112.00,37.00
           C 104.46,35.10 101.99,34.30 97.00,41.00
             102.16,40.76 108.19,40.76 112.00,37.00 Z
           M 81.00,35.00
           C 81.00,35.00 82.00,35.00 82.00,35.00
             82.00,35.00 81.00,36.00 81.00,36.00
             81.00,36.00 81.00,35.00 81.00,35.00 Z
           M 274.00,40.00
           C 274.00,40.00 268.00,36.00 268.00,36.00
             268.00,36.00 274.00,40.00 274.00,40.00 Z
           M 287.00,35.00
           C 287.00,35.00 294.00,41.00 294.00,41.00
             294.00,41.00 287.00,35.00 287.00,35.00 Z
           M 90.00,36.00
           C 90.00,36.00 87.00,40.00 87.00,40.00
             87.00,40.00 90.00,36.00 90.00,36.00 Z
           M 124.00,38.00
           C 118.46,37.55 116.27,35.81 112.00,40.00
             112.00,40.00 124.00,38.00 124.00,38.00 Z
           M 269.00,40.00
           C 264.62,35.68 258.26,36.58 253.00,39.00
             253.00,39.00 269.00,40.00 269.00,40.00 Z
           M 77.00,38.00
           C 77.00,38.00 75.00,41.00 75.00,41.00
             75.00,41.00 75.00,40.00 75.00,40.00
             75.00,40.00 77.00,38.00 77.00,38.00 Z
           M 133.00,40.00
           C 129.57,40.00 112.18,40.93 110.00,42.02
             105.26,44.40 99.47,52.31 97.00,57.00
             97.00,57.00 116.00,58.83 116.00,58.83
             116.00,58.83 124.36,58.01 124.36,58.01
             124.36,58.01 133.00,40.00 133.00,40.00 Z
           M 139.00,40.00
           C 139.00,40.00 136.00,40.00 136.00,40.00
             134.45,43.65 132.29,47.00 133.00,51.00
             133.00,51.00 139.00,40.00 139.00,40.00 Z
           M 172.00,40.00
           C 172.00,40.00 149.00,40.00 149.00,40.00
             146.77,40.00 143.43,39.76 141.53,40.99
             138.61,42.89 132.58,55.34 131.00,59.00
             131.00,59.00 154.00,60.00 154.00,60.00
             154.00,60.00 169.00,61.00 169.00,61.00
             169.00,61.00 172.00,40.00 172.00,40.00 Z
           M 182.08,61.00
           C 182.08,61.00 182.08,47.00 182.08,47.00
             182.08,47.00 181.36,41.02 181.36,41.02
             181.36,41.02 175.00,40.00 175.00,40.00
             175.00,40.00 172.00,61.00 172.00,61.00
             172.00,61.00 182.08,61.00 182.08,61.00 Z
           M 211.00,61.00
           C 210.92,57.17 209.37,43.19 206.44,41.02
             204.43,39.53 195.80,39.95 193.00,40.00
             191.05,40.04 188.37,39.90 187.02,41.60
             185.32,43.75 186.00,57.54 186.00,61.00
             186.00,61.00 211.00,61.00 211.00,61.00 Z
           M 234.00,40.00
           C 234.00,40.00 210.00,40.00 210.00,40.00
             210.00,40.00 215.00,61.00 215.00,61.00
             215.00,61.00 240.00,60.00 240.00,60.00
             240.00,60.00 234.00,40.00 234.00,40.00 Z
           M 252.00,58.85
           C 248.78,52.90 244.32,41.23 237.00,40.00
             238.00,43.71 242.09,57.17 245.27,58.85
             246.78,59.41 250.25,59.06 252.00,58.85 Z
           M 285.00,57.00
           C 282.83,52.96 276.02,44.40 271.96,42.43
             268.25,40.63 263.04,41.08 259.00,40.99
             259.00,40.99 243.00,40.00 243.00,40.00
             243.00,40.00 254.53,58.15 254.53,58.15
             254.53,58.15 265.00,58.15 265.00,58.15
             265.00,58.15 285.00,57.00 285.00,57.00 Z
           M 107.00,42.00
           C 98.84,42.00 96.28,40.97 90.67,48.00
             88.45,50.78 87.28,52.71 86.00,56.12
             87.83,56.14 91.39,56.68 93.00,56.12
             96.70,55.21 104.60,45.35 107.00,42.00 Z
           M 276.00,42.00
           C 276.05,45.42 277.41,45.99 280.00,48.00
             280.00,48.00 276.00,42.00 276.00,42.00 Z
           M 280.00,42.00
           C 280.19,44.83 281.00,45.68 282.65,48.00
             283.86,49.71 286.86,53.99 288.51,55.00
             291.71,56.97 303.22,54.00 307.00,53.00
             298.06,40.79 292.36,45.01 280.00,42.00 Z
           M 92.00,43.00
           C 81.80,43.47 78.06,45.54 72.00,54.00
             74.56,54.21 79.77,55.19 81.91,54.67
             86.04,53.67 90.35,46.67 92.00,43.00 Z
           M 79.00,45.00
           C 72.28,45.15 68.22,45.43 65.00,52.00
             72.75,53.29 74.43,51.35 79.00,45.00 Z
           M 309.00,53.00
           C 308.95,47.50 305.97,46.06 301.00,45.00
             301.00,45.00 309.00,53.00 309.00,53.00 Z
           M 308.00,46.00
           C 308.00,46.00 307.00,46.00 307.00,46.00
             307.00,46.00 308.00,47.00 308.00,47.00
             308.00,47.00 308.00,46.00 308.00,46.00 Z
           M 281.00,48.00
           C 281.00,48.00 280.00,48.00 280.00,48.00
             280.00,48.00 281.00,49.00 281.00,49.00
             281.00,49.00 281.00,48.00 281.00,48.00 Z
           M 69.00,55.00
           C 67.10,54.33 65.09,53.44 63.01,53.90
             58.71,54.86 50.82,65.95 49.00,70.00
             59.04,69.15 63.44,62.79 69.00,55.00 Z
           M 131.00,54.00
           C 131.00,54.00 130.00,54.00 130.00,54.00
             130.00,54.00 131.00,55.00 131.00,55.00
             131.00,55.00 131.00,54.00 131.00,54.00 Z
           M 325.00,70.00
           C 322.35,63.79 316.65,55.96 310.00,54.00
             310.00,54.00 325.00,70.00 325.00,70.00 Z
           M 82.00,57.00
           C 79.46,56.66 73.12,55.36 71.00,55.88
             66.71,56.95 61.79,64.15 60.00,68.00
             60.00,68.00 75.62,65.98 75.62,65.98
             75.62,65.98 82.00,57.00 82.00,57.00 Z
           M 321.00,69.00
           C 319.14,65.05 313.21,57.02 309.00,55.64
             306.22,54.72 293.36,57.17 290.00,58.00
             290.00,58.00 296.10,65.83 296.10,65.83
             296.10,65.83 305.00,67.17 305.00,67.17
             305.00,67.17 321.00,69.00 321.00,69.00 Z
           M 92.00,58.00
           C 83.52,58.01 81.78,58.19 79.00,67.00
             86.34,65.21 89.60,66.79 92.00,58.00 Z
           M 292.00,66.00
           C 292.00,66.00 286.54,59.00 286.54,59.00
             286.54,59.00 278.00,59.00 278.00,59.00
             278.00,59.00 256.00,61.00 256.00,61.00
             256.00,61.00 256.00,63.00 256.00,63.00
             256.00,63.00 275.00,65.00 275.00,65.00
             275.00,65.00 292.00,66.00 292.00,66.00 Z
           M 124.00,61.00
           C 124.00,61.00 106.00,59.78 106.00,59.78
             103.01,59.18 97.13,58.28 94.53,59.78
             92.40,61.40 91.73,63.73 91.00,66.00
             91.00,66.00 100.00,65.04 100.00,65.04
             100.00,65.04 115.00,64.42 115.00,64.42
             119.17,63.87 121.49,64.75 124.00,61.00 Z
           M 168.00,61.86
           C 168.00,61.86 142.00,61.86 142.00,61.86
             136.92,61.11 132.45,59.40 129.00,63.96
             129.00,63.96 141.00,63.96 141.00,63.96
             141.00,63.96 153.00,63.00 153.00,63.00
             153.00,63.00 168.00,61.86 168.00,61.86 Z
           M 241.00,61.00
           C 241.00,61.00 233.00,61.91 233.00,61.91
             233.00,61.91 215.00,63.04 215.00,63.04
             215.00,63.04 229.00,63.04 229.00,63.04
             229.00,63.04 241.00,64.00 241.00,64.00
             241.00,64.00 241.00,61.00 241.00,61.00 Z
           M 254.00,64.00
           C 251.50,60.27 249.15,61.02 245.00,61.00
             245.00,61.00 245.00,64.00 245.00,64.00
             245.00,64.00 254.00,64.00 254.00,64.00 Z
           M 177.00,62.00
           C 177.00,62.00 172.00,63.00 172.00,63.00
             172.00,63.00 177.00,62.00 177.00,62.00 Z
           M 212.00,62.00
           C 212.00,62.00 200.00,63.00 200.00,63.00
             200.00,63.00 212.00,62.00 212.00,62.00 Z
           M 168.00,65.00
           C 168.00,65.00 139.00,65.83 139.00,65.83
             136.21,66.10 130.61,65.57 128.50,67.02
             125.17,69.32 122.36,80.96 122.00,84.99
             122.00,84.99 150.00,84.99 150.00,84.99
             153.07,85.00 162.59,86.35 164.41,84.99
             166.90,83.08 167.92,68.50 168.00,65.00 Z
           M 182.00,65.00
           C 182.00,65.00 171.00,65.00 171.00,65.00
             171.00,65.00 169.72,79.00 169.72,79.00
             169.72,79.00 170.61,84.98 170.61,84.98
             170.61,84.98 181.00,86.00 181.00,86.00
             181.00,86.00 182.00,65.00 182.00,65.00 Z
           M 215.00,86.00
           C 214.99,82.18 214.31,68.23 211.42,66.02
             209.77,64.76 206.04,65.00 204.00,65.00
             204.00,65.00 186.00,65.00 186.00,65.00
             186.00,65.00 186.00,86.00 186.00,86.00
             186.00,86.00 215.00,86.00 215.00,86.00 Z
           M 247.00,85.00
           C 247.00,85.00 242.07,67.60 242.07,67.60
             242.07,67.60 235.00,65.21 235.00,65.21
             235.00,65.21 216.00,65.21 216.00,65.21
             216.07,68.24 217.54,82.23 219.74,84.01
             221.18,85.17 224.22,84.99 226.00,85.00
             226.00,85.00 247.00,85.00 247.00,85.00 Z
           M 122.00,66.00
           C 122.00,66.00 99.00,67.00 99.00,67.00
             96.04,67.04 90.99,67.23 88.53,68.95
             85.38,71.16 82.07,78.33 81.00,82.00
             81.00,82.00 109.00,84.00 109.00,84.00
             111.00,84.00 114.66,84.26 116.28,83.01
             118.42,81.34 121.53,69.06 122.00,66.00 Z
           M 262.00,84.19
           C 261.34,79.81 258.22,69.33 254.61,67.02
             252.55,65.71 248.44,66.00 246.00,66.00
             247.03,69.57 249.41,83.08 252.43,84.19
             253.92,85.04 259.88,84.10 262.00,84.19 Z
           M 300.00,82.00
           C 300.00,82.00 293.61,69.60 293.61,69.60
             293.61,69.60 285.00,67.58 285.00,67.58
             285.00,67.58 258.00,66.00 258.00,66.00
             259.45,69.42 263.83,81.27 266.41,83.20
             269.12,84.77 275.85,83.84 279.00,83.20
             279.00,83.20 300.00,82.00 300.00,82.00 Z
           M 60.00,68.00
           C 60.00,68.00 59.00,68.00 59.00,68.00
             59.00,68.00 60.00,69.00 60.00,69.00
             60.00,69.00 60.00,68.00 60.00,68.00 Z
           M 86.00,68.00
           C 76.29,68.10 73.87,71.90 71.00,81.19
             72.98,81.54 74.74,82.19 76.79,81.19
             80.08,80.09 84.43,71.27 86.00,68.00 Z
           M 298.00,68.00
           C 297.68,70.81 298.22,71.51 299.62,74.00
             300.71,75.94 302.41,78.82 304.33,79.98
             308.47,82.49 322.52,79.25 328.00,79.00
             324.42,65.87 309.86,71.37 298.00,68.00 Z
           M 74.00,69.00
           C 74.00,69.00 64.00,69.84 64.00,69.84
             55.88,70.72 55.24,71.65 51.00,79.00
             54.70,79.49 64.68,81.80 67.61,79.97
             70.20,78.36 72.94,71.88 74.00,69.00 Z
           M 55.00,71.00
           C 49.44,71.47 46.70,71.73 44.00,77.00
             44.00,77.00 50.00,79.00 50.00,79.00
             50.00,79.00 55.00,71.00 55.00,71.00 Z
           M 327.00,72.00
           C 327.00,72.00 330.00,77.00 330.00,77.00
             330.00,77.00 327.00,72.00 327.00,72.00 Z
           M 330.00,72.00
           C 330.46,77.46 334.60,77.30 338.00,74.00
             338.00,74.00 330.00,72.00 330.00,72.00 Z
           M 45.00,73.00
           C 45.00,73.00 39.00,74.00 39.00,74.00
             39.00,74.00 42.00,77.00 42.00,77.00
             42.00,77.00 45.00,73.00 45.00,73.00 Z
           M 331.00,77.00
           C 331.00,77.00 330.00,77.00 330.00,77.00
             330.00,77.00 331.00,78.00 331.00,78.00
             331.00,78.00 331.00,77.00 331.00,77.00 Z
           M 48.00,80.00
           C 48.00,80.00 42.00,79.00 42.00,79.00
             38.07,84.90 32.63,93.13 31.00,100.00
             32.92,99.93 34.92,100.04 36.62,98.98
             39.53,97.16 46.86,83.57 48.00,80.00 Z
           M 341.00,100.00
           C 340.04,95.25 333.81,82.26 328.91,81.02
             328.91,81.02 306.00,83.00 306.00,83.00
             307.01,86.55 310.25,94.77 313.39,96.71
             316.07,98.36 320.89,97.90 324.00,98.04
             324.00,98.04 341.00,100.00 341.00,100.00 Z
           M 67.00,83.00
           C 63.84,82.58 52.68,80.62 50.32,81.59
             46.55,83.13 40.71,95.06 39.00,99.00
             42.82,99.00 58.12,98.47 60.50,96.40
             62.43,94.72 65.80,85.84 67.00,83.00 Z
           M 334.00,82.00
           C 334.00,82.00 333.00,82.00 333.00,82.00
             333.00,82.00 334.00,83.00 334.00,83.00
             334.00,83.00 334.00,82.00 334.00,82.00 Z
           M 76.00,83.89
           C 74.56,83.79 72.63,83.33 71.21,83.89
             67.50,84.93 64.94,93.52 64.00,97.00
             65.57,96.98 68.20,97.09 69.61,96.43
             72.58,95.03 75.12,87.11 76.00,83.89 Z
           M 116.00,86.00
           C 116.00,86.00 93.00,85.00 93.00,85.00
             89.85,84.98 81.72,83.57 79.63,85.00
             76.79,86.93 74.62,93.72 74.00,97.00
             74.00,97.00 84.00,96.04 84.00,96.04
             84.00,96.04 99.00,96.04 99.00,96.04
             99.00,96.04 113.28,94.01 113.28,94.01
             113.28,94.01 116.00,86.00 116.00,86.00 Z
           M 306.00,97.00
           C 305.21,94.09 302.95,86.70 300.50,84.98
             297.74,83.12 292.15,84.53 289.00,84.98
             289.00,84.98 278.00,84.98 278.00,84.98
             278.00,84.98 267.00,86.00 267.00,86.00
             267.43,88.79 267.98,92.96 270.51,94.69
             272.61,96.12 276.52,95.99 279.00,96.04
             279.00,96.04 293.00,96.04 293.00,96.04
             293.00,96.04 306.00,97.00 306.00,97.00 Z
           M 336.00,85.00
           C 336.00,85.00 335.00,85.00 335.00,85.00
             335.00,85.00 336.00,86.00 336.00,86.00
             336.00,86.00 336.00,85.00 336.00,85.00 Z
           M 165.00,87.02
           C 165.00,87.02 132.00,87.02 132.00,87.02
             132.00,87.02 121.56,87.02 121.56,87.02
             121.56,87.02 119.00,95.00 119.00,95.00
             119.00,95.00 143.00,95.00 143.00,95.00
             143.00,95.00 165.00,94.00 165.00,94.00
             165.00,94.00 165.00,87.02 165.00,87.02 Z
           M 266.00,95.00
           C 264.36,84.60 261.07,86.00 252.00,86.00
             252.00,86.00 253.00,95.00 253.00,95.00
             253.00,95.00 266.00,95.00 266.00,95.00 Z
           M 181.00,88.00
           C 181.00,88.00 169.00,87.00 169.00,87.00
             169.00,87.00 168.00,94.00 168.00,94.00
             168.00,94.00 181.00,94.00 181.00,94.00
             181.00,94.00 181.00,88.00 181.00,88.00 Z
           M 217.00,94.00
           C 217.00,94.00 214.42,88.02 214.42,88.02
             214.42,88.02 206.00,87.00 206.00,87.00
             206.00,87.00 186.00,88.00 186.00,88.00
             186.00,88.00 186.00,94.00 186.00,94.00
             186.00,94.00 217.00,94.00 217.00,94.00 Z
           M 249.00,95.00
           C 249.00,95.00 246.42,88.02 246.42,88.02
             246.42,88.02 239.00,87.00 239.00,87.00
             239.00,87.00 219.00,88.00 219.00,88.00
             219.00,88.00 220.00,94.00 220.00,94.00
             220.00,94.00 232.00,95.00 232.00,95.00
             232.00,95.00 249.00,95.00 249.00,95.00 Z
           M 164.00,97.00
           C 164.00,97.00 124.00,97.00 124.00,97.00
             116.64,97.13 117.54,98.05 115.00,112.00
             115.00,112.00 132.00,113.00 132.00,113.00
             132.00,113.00 163.00,113.00 163.00,113.00
             163.00,113.00 164.00,97.00 164.00,97.00 Z
           M 181.00,97.00
           C 181.00,97.00 168.00,97.00 168.00,97.00
             168.00,97.00 167.00,113.00 167.00,113.00
             167.00,113.00 180.00,113.00 180.00,113.00
             180.00,113.00 181.00,97.00 181.00,97.00 Z
           M 217.00,97.00
           C 217.00,97.00 185.00,97.00 185.00,97.00
             185.00,97.00 185.00,113.00 185.00,113.00
             185.00,113.00 218.00,113.00 218.00,113.00
             218.00,113.00 217.00,97.00 217.00,97.00 Z
           M 252.00,112.00
           C 252.00,112.00 248.83,98.57 248.83,98.57
             248.83,98.57 241.00,97.00 241.00,97.00
             241.00,97.00 221.00,97.00 221.00,97.00
             221.00,97.00 222.00,113.00 222.00,113.00
             222.00,113.00 252.00,112.00 252.00,112.00 Z
           M 271.00,112.00
           C 270.36,108.80 269.02,100.94 266.49,98.98
             263.86,96.96 257.27,97.01 254.00,97.00
             254.00,97.00 256.00,112.00 256.00,112.00
             256.00,112.00 271.00,112.00 271.00,112.00 Z
           M 113.00,98.00
           C 113.00,98.00 83.00,98.72 83.00,98.72
             83.00,98.72 72.65,99.99 72.65,99.99
             72.65,99.99 68.00,110.00 68.00,110.00
             68.00,110.00 102.00,112.00 102.00,112.00
             104.04,112.00 107.76,112.24 109.42,110.98
             111.68,109.26 112.76,100.86 113.00,98.00 Z
           M 310.00,110.00
           C 310.00,110.00 306.30,99.99 306.30,99.99
             306.30,99.99 296.00,98.91 296.00,98.91
             296.00,98.91 271.00,98.00 271.00,98.00
             271.00,98.00 274.00,112.00 274.00,112.00
             274.00,112.00 292.00,111.00 292.00,111.00
             292.00,111.00 310.00,110.00 310.00,110.00 Z
           M 69.00,99.00
           C 61.67,99.86 60.62,103.15 60.00,110.00
             67.04,109.42 67.85,105.35 69.00,99.00 Z
           M 60.00,100.00
           C 60.00,100.00 38.39,102.17 38.39,102.17
             38.39,102.17 35.00,108.00 35.00,108.00
             35.00,108.00 56.00,110.00 56.00,110.00
             56.00,110.00 60.00,100.00 60.00,100.00 Z
           M 345.00,107.00
           C 345.00,107.00 342.58,102.98 342.58,102.98
             342.58,102.98 332.00,100.97 332.00,100.97
             332.00,100.97 314.00,100.00 314.00,100.00
             314.00,100.00 318.41,109.01 318.41,109.01
             318.41,109.01 326.00,109.01 326.00,109.01
             326.00,109.01 345.00,107.00 345.00,107.00 Z
           M 36.00,102.00
           C 31.34,102.28 29.57,102.27 28.00,107.00
             33.21,106.83 33.66,106.74 36.00,102.00 Z
           M 27.00,103.00
           C 27.00,103.00 22.00,105.00 22.00,105.00
             25.16,105.42 25.16,105.65 27.00,103.00 Z
           M 355.00,105.00
           C 355.00,105.00 347.00,103.00 347.00,103.00
             347.00,103.00 348.00,107.00 348.00,107.00
             348.00,107.00 355.00,105.00 355.00,105.00 Z
           M 314.00,106.00
           C 314.00,106.00 315.00,110.00 315.00,110.00
             315.00,110.00 314.00,106.00 314.00,106.00 Z
           M 32.00,109.00
           C 32.00,109.00 26.65,109.99 26.65,109.99
             26.65,109.99 23.20,116.00 23.20,116.00
             23.20,116.00 18.00,134.00 18.00,134.00
             18.00,134.00 23.30,132.40 23.30,132.40
             23.30,132.40 26.67,125.00 26.67,125.00
             26.67,125.00 32.00,109.00 32.00,109.00 Z
           M 346.00,109.00
           C 346.00,109.00 319.00,112.00 319.00,112.00
             319.56,115.08 323.50,129.46 325.56,130.98
             327.16,132.16 330.94,132.04 333.00,132.28
             333.00,132.28 355.00,134.00 355.00,134.00
             354.27,125.96 349.97,116.00 346.00,109.00 Z
           M 25.00,133.00
           C 31.02,133.00 37.03,133.25 43.00,132.42
             45.19,132.12 48.52,132.11 50.07,130.40
             51.41,128.91 52.34,124.08 52.88,122.00
             53.50,119.66 55.44,114.70 53.94,112.60
             52.46,110.53 47.39,111.06 45.00,110.83
             42.60,110.60 39.39,109.84 37.04,110.16
             30.54,111.06 26.90,127.29 25.00,133.00 Z
           M 64.00,112.00
           C 62.44,112.13 60.87,112.06 59.51,113.02
             56.46,115.19 54.32,128.11 54.00,132.00
             54.00,132.00 58.16,130.40 58.16,130.40
             58.16,130.40 64.00,112.00 64.00,112.00 Z
           M 110.00,113.96
           C 110.00,113.96 96.00,113.96 96.00,113.96
             96.00,113.96 85.00,113.00 85.00,113.00
             85.00,113.00 67.00,112.00 67.00,112.00
             67.00,112.00 62.00,132.00 62.00,132.00
             62.00,132.00 75.00,131.00 75.00,131.00
             75.00,131.00 100.00,131.00 100.00,131.00
             109.27,130.82 106.42,127.49 110.00,113.96 Z
           M 315.00,132.00
           C 314.92,128.37 313.12,115.05 310.28,113.02
             308.79,111.98 301.40,112.99 299.00,113.02
             299.00,113.02 275.00,114.00 275.00,114.00
             275.45,117.20 277.18,128.22 279.56,129.98
             281.26,131.23 284.92,131.00 287.00,131.00
             287.00,131.00 302.00,131.00 302.00,131.00
             302.00,131.00 315.00,132.00 315.00,132.00 Z
           M 316.00,112.00
           C 314.89,115.35 317.35,127.51 319.42,130.41
             320.32,131.67 320.80,131.51 322.00,132.00
             322.00,132.00 316.00,112.00 316.00,112.00 Z
           M 163.00,115.00
           C 163.00,115.00 134.00,115.00 134.00,115.00
             130.08,114.98 118.31,112.93 115.74,115.00
             113.15,117.07 113.01,126.74 113.00,130.00
             113.00,130.00 162.00,130.00 162.00,130.00
             162.00,130.00 163.00,115.00 163.00,115.00 Z
           M 272.00,114.00
           C 272.00,114.00 257.00,114.00 257.00,114.00
             257.02,116.71 257.54,126.52 259.02,128.41
             261.59,131.68 271.42,131.02 275.00,130.00
             275.00,130.00 272.00,114.00 272.00,114.00 Z
           M 180.00,115.00
           C 180.00,115.00 167.00,115.00 167.00,115.00
             167.00,115.00 166.00,130.00 166.00,130.00
             166.00,130.00 180.00,130.00 180.00,130.00
             180.00,130.00 180.00,115.00 180.00,115.00 Z
           M 219.00,115.00
           C 219.00,115.00 193.00,115.00 193.00,115.00
             193.00,115.00 186.02,116.60 186.02,116.60
             186.02,116.60 185.00,130.00 185.00,130.00
             185.00,130.00 220.00,130.00 220.00,130.00
             220.00,130.00 219.00,115.00 219.00,115.00 Z
           M 252.00,115.00
           C 252.00,115.00 223.00,115.00 223.00,115.00
             223.00,115.00 224.00,130.00 224.00,130.00
             224.00,130.00 254.00,130.00 254.00,130.00
             254.00,130.00 252.00,115.00 252.00,115.00 Z
           M 180.00,142.00
           C 180.00,139.86 180.30,135.27 178.98,133.60
             177.20,131.35 168.80,131.35 167.02,133.60
             165.70,135.27 166.00,139.86 166.00,142.00
             166.00,142.00 180.00,142.00 180.00,142.00 Z
           M 220.00,133.00
           C 220.00,133.00 207.00,132.04 207.00,132.04
             207.00,132.04 193.00,132.04 193.00,132.04
             193.00,132.04 186.02,133.60 186.02,133.60
             186.02,133.60 185.00,142.00 185.00,142.00
             185.00,142.00 221.00,142.00 221.00,142.00
             221.00,142.00 220.00,133.00 220.00,133.00 Z
           M 106.00,133.00
           C 106.00,133.00 67.00,134.00 67.00,134.00
             60.92,134.11 60.36,135.03 60.00,141.00
             60.00,141.00 83.00,141.00 83.00,141.00
             83.00,141.00 105.00,142.00 105.00,142.00
             105.00,142.00 106.00,133.00 106.00,133.00 Z
           M 162.00,133.00
           C 162.00,133.00 112.00,133.00 112.00,133.00
             112.00,133.00 111.00,142.00 111.00,142.00
             111.00,142.00 162.00,142.00 162.00,142.00
             162.00,142.00 162.00,133.00 162.00,133.00 Z
           M 254.00,133.00
           C 254.00,133.00 224.00,133.00 224.00,133.00
             224.00,133.00 225.60,140.98 225.60,140.98
             225.60,140.98 231.00,142.00 231.00,142.00
             231.00,142.00 255.00,142.00 255.00,142.00
             255.00,142.00 254.00,133.00 254.00,133.00 Z
           M 276.00,142.00
           C 275.99,140.01 276.24,136.19 274.98,134.60
             273.02,132.12 262.29,133.00 259.00,133.00
             259.00,133.00 260.00,142.00 260.00,142.00
             260.00,142.00 276.00,142.00 276.00,142.00 Z
           M 317.00,140.98
           C 316.86,138.68 317.00,135.79 314.57,134.57
             312.86,133.71 305.32,134.00 303.00,134.00
             303.00,134.00 279.00,133.00 279.00,133.00
             279.00,133.00 281.56,140.98 281.56,140.98
             281.56,140.98 293.00,140.98 293.00,140.98
             293.00,140.98 317.00,140.98 317.00,140.98 Z
           M 58.00,134.00
           C 53.44,134.78 52.98,135.54 52.00,140.00
             52.00,140.00 57.00,140.00 57.00,140.00
             57.00,140.00 58.00,134.00 58.00,134.00 Z
           M 321.00,134.00
           C 319.86,137.58 320.53,138.75 324.00,140.00
             324.00,140.00 321.00,134.00 321.00,134.00 Z
           M 49.00,135.04
           C 49.00,135.04 34.00,135.04 34.00,135.04
             34.00,135.04 24.00,136.00 24.00,136.00
             24.00,136.00 24.00,139.00 24.00,139.00
             24.00,139.00 49.00,140.00 49.00,140.00
             49.00,140.00 49.00,135.04 49.00,135.04 Z
           M 357.00,137.00
           C 348.92,134.70 334.66,135.00 326.00,135.00
             326.27,136.53 326.21,137.89 327.60,139.01
             330.64,141.37 342.96,139.22 347.00,139.01
             351.29,138.85 353.33,139.70 357.00,137.00 Z
           M 23.00,136.00
           C 23.00,136.00 17.00,136.00 17.00,136.00
             17.00,136.00 22.00,139.00 22.00,139.00
             22.00,139.00 23.00,136.00 23.00,136.00 Z
           M 364.00,137.00
           C 364.00,137.00 358.00,138.00 358.00,138.00
             358.00,138.00 364.00,137.00 364.00,137.00 Z
           M 21.00,141.00
           C 21.00,141.00 16.00,140.00 16.00,140.00
             16.00,140.00 11.00,170.00 11.00,170.00
             11.00,170.00 15.98,168.40 15.98,168.40
             15.98,168.40 17.92,160.00 17.92,160.00
             17.92,160.00 21.00,141.00 21.00,141.00 Z
           M 48.00,141.86
           C 48.00,141.86 32.00,141.86 32.00,141.86
             32.00,141.86 23.73,141.86 23.73,141.86
             23.73,141.86 21.20,149.00 21.20,149.00
             21.20,149.00 18.00,169.00 18.00,169.00
             18.00,169.00 45.00,169.00 45.00,169.00
             45.00,169.00 48.00,141.86 48.00,141.86 Z
           M 358.00,141.00
           C 358.00,141.00 328.00,142.00 328.00,142.00
             328.00,142.00 331.00,169.00 331.00,169.00
             331.00,169.00 345.00,169.00 345.00,169.00
             345.00,169.00 362.00,170.00 362.00,170.00
             362.00,170.00 358.00,141.00 358.00,141.00 Z
           M 56.00,143.00
           C 56.00,143.00 52.00,142.00 52.00,142.00
             52.00,142.00 48.00,169.00 48.00,169.00
             48.00,169.00 51.98,167.40 51.98,167.40
             51.98,167.40 53.42,160.00 53.42,160.00
             53.42,160.00 56.00,143.00 56.00,143.00 Z
           M 105.00,143.96
           C 105.00,143.96 91.00,143.96 91.00,143.96
             91.00,143.96 80.00,143.00 80.00,143.00
             80.00,143.00 59.00,143.00 59.00,143.00
             59.00,143.00 56.00,169.00 56.00,169.00
             56.00,169.00 96.00,169.00 96.00,169.00
             96.00,169.00 101.83,167.43 101.83,167.43
             101.83,167.43 103.04,159.00 103.04,159.00
             103.04,159.00 105.00,143.96 105.00,143.96 Z
           M 318.00,143.00
           C 318.00,143.00 297.00,143.00 297.00,143.00
             297.00,143.00 281.00,144.00 281.00,144.00
             281.00,144.00 283.00,169.00 283.00,169.00
             283.00,169.00 321.00,169.00 321.00,169.00
             321.00,169.00 318.00,143.00 318.00,143.00 Z
           M 325.00,143.00
           C 325.00,143.00 321.00,143.00 321.00,143.00
             321.00,143.00 324.00,169.00 324.00,169.00
             324.00,169.00 328.00,169.00 328.00,169.00
             328.00,169.00 325.00,143.00 325.00,143.00 Z
           M 161.00,144.00
           C 161.00,144.00 111.00,144.00 111.00,144.00
             111.00,144.00 110.01,161.00 110.01,161.00
             109.80,162.75 109.11,165.93 110.01,167.40
             112.16,170.40 123.42,168.05 127.00,168.00
             127.00,168.00 161.00,168.00 161.00,168.00
             161.00,168.00 161.00,144.00 161.00,144.00 Z
           M 180.00,145.00
           C 180.00,145.00 169.06,144.16 169.06,144.16
             164.54,144.80 165.03,148.36 165.00,152.00
             165.00,152.00 165.00,168.00 165.00,168.00
             165.00,168.00 180.00,168.00 180.00,168.00
             180.00,168.00 180.00,145.00 180.00,145.00 Z
           M 221.00,168.00
           C 221.00,168.00 221.00,151.00 221.00,151.00
             221.00,151.00 219.40,145.02 219.40,145.02
             219.40,145.02 209.00,144.00 209.00,144.00
             209.00,144.00 199.00,144.96 199.00,144.96
             199.00,144.96 185.00,144.96 185.00,144.96
             185.00,144.96 185.00,168.00 185.00,168.00
             185.00,168.00 221.00,168.00 221.00,168.00 Z
           M 255.00,144.00
           C 255.00,144.00 225.00,144.00 225.00,144.00
             225.00,144.00 226.00,168.00 226.00,168.00
             226.00,168.00 257.00,168.00 257.00,168.00
             257.00,168.00 255.00,144.00 255.00,144.00 Z
           M 277.00,144.00
           C 277.00,144.00 260.00,144.00 260.00,144.00
             260.00,144.00 261.00,162.00 261.00,162.00
             261.00,162.00 262.60,167.98 262.60,167.98
             262.60,167.98 279.00,169.00 279.00,169.00
             279.00,169.00 277.00,144.00 277.00,144.00 Z
           M 102.00,171.00
           C 95.55,171.00 74.73,170.12 70.00,172.00
             70.00,172.00 88.00,172.00 88.00,172.00
             88.00,172.00 102.00,173.00 102.00,173.00
             102.00,173.00 102.00,171.00 102.00,171.00 Z
           M 160.00,171.00
           C 160.00,171.00 110.00,171.00 110.00,171.00
             110.00,171.00 110.00,173.00 110.00,173.00
             110.00,173.00 160.00,173.00 160.00,173.00
             160.00,173.00 160.00,171.00 160.00,171.00 Z
           M 180.00,171.00
           C 180.00,171.00 165.00,171.00 165.00,171.00
             165.00,171.00 165.00,173.00 165.00,173.00
             169.95,173.00 175.85,174.05 180.00,171.00 Z
           M 221.00,171.00
           C 221.00,171.00 185.00,171.00 185.00,171.00
             185.00,171.00 185.00,173.00 185.00,173.00
             185.00,173.00 221.00,173.00 221.00,173.00
             221.00,173.00 221.00,171.00 221.00,171.00 Z
           M 256.00,171.00
           C 256.00,171.00 226.00,171.00 226.00,171.00
             226.00,171.00 226.00,173.00 226.00,173.00
             226.00,173.00 256.00,173.00 256.00,173.00
             256.00,173.00 256.00,171.00 256.00,171.00 Z
           M 279.00,171.00
           C 279.00,171.00 262.00,171.00 262.00,171.00
             262.00,171.00 262.00,173.00 262.00,173.00
             262.00,173.00 279.00,173.00 279.00,173.00
             279.00,173.00 279.00,171.00 279.00,171.00 Z
           M 307.00,171.00
           C 307.00,171.00 283.00,172.00 283.00,172.00
             283.00,172.00 307.00,171.00 307.00,171.00 Z
           M 16.00,174.00
           C 16.00,174.00 11.00,174.00 11.00,174.00
             9.11,184.54 10.15,194.47 11.00,205.00
             11.00,205.00 16.00,205.00 16.00,205.00
             16.00,205.00 16.00,174.00 16.00,174.00 Z
           M 44.00,174.00
           C 44.00,174.00 18.00,174.00 18.00,174.00
             18.00,174.00 17.00,191.00 17.00,191.00
             17.00,191.00 18.00,205.00 18.00,205.00
             18.00,205.00 45.00,204.00 45.00,204.00
             45.00,204.00 44.00,174.00 44.00,174.00 Z
           M 52.00,174.00
           C 52.00,174.00 47.84,174.00 47.84,174.00
             47.84,174.00 47.84,190.00 47.84,190.00
             47.84,190.00 47.84,204.00 47.84,204.00
             47.84,204.00 52.00,204.00 52.00,204.00
             52.00,204.00 52.00,174.00 52.00,174.00 Z
           M 102.00,175.00
           C 102.00,175.00 84.00,175.00 84.00,175.00
             84.00,175.00 72.00,174.04 72.00,174.04
             72.00,174.04 55.00,174.04 55.00,174.04
             55.00,174.04 55.00,204.00 55.00,204.00
             55.00,204.00 102.00,204.00 102.00,204.00
             102.00,204.00 102.00,175.00 102.00,175.00 Z
           M 321.00,174.00
           C 321.00,174.00 283.00,175.00 283.00,175.00
             283.00,175.00 283.96,190.00 283.96,190.00
             283.96,190.00 283.00,204.00 283.00,204.00
             283.00,204.00 321.00,204.00 321.00,204.00
             321.00,204.00 321.00,174.00 321.00,174.00 Z
           M 329.00,204.00
           C 329.00,204.00 329.00,181.00 329.00,181.00
             328.92,176.85 329.14,175.45 325.00,174.00
             325.00,174.00 325.00,204.00 325.00,204.00
             325.00,204.00 329.00,204.00 329.00,204.00 Z
           M 362.00,174.00
           C 362.00,174.00 332.00,174.00 332.00,174.00
             332.00,174.00 332.00,204.00 332.00,204.00
             332.00,204.00 362.00,205.00 362.00,205.00
             362.85,194.47 363.89,184.54 362.00,174.00 Z
           M 161.00,175.00
           C 161.00,175.00 109.00,175.00 109.00,175.00
             109.00,175.00 109.00,195.00 109.00,195.00
             109.00,195.00 110.02,202.40 110.02,202.40
             110.02,202.40 117.00,204.00 117.00,204.00
             117.00,204.00 148.00,204.00 148.00,204.00
             148.00,204.00 159.40,202.98 159.40,202.98
             159.40,202.98 161.00,195.00 161.00,195.00
             161.00,195.00 161.00,175.00 161.00,175.00 Z
           M 180.00,175.00
           C 180.00,175.00 165.00,175.00 165.00,175.00
             165.00,175.00 165.00,197.00 165.00,197.00
             165.04,198.95 164.90,201.63 166.60,202.99
             169.16,205.01 176.92,203.55 180.00,202.99
             180.00,202.99 180.00,175.00 180.00,175.00 Z
           M 222.00,175.00
           C 222.00,175.00 185.00,175.00 185.00,175.00
             185.00,175.00 185.00,203.00 185.00,203.00
             185.00,203.00 214.00,204.00 214.00,204.00
             214.00,204.00 220.98,202.40 220.98,202.40
             220.98,202.40 222.00,196.00 222.00,196.00
             222.00,196.00 222.00,175.00 222.00,175.00 Z
           M 257.00,175.00
           C 257.00,175.00 226.00,175.00 226.00,175.00
             226.00,175.00 226.00,204.00 226.00,204.00
             226.00,204.00 250.00,204.00 250.00,204.00
             250.00,204.00 255.98,202.40 255.98,202.40
             255.98,202.40 257.00,196.00 257.00,196.00
             257.00,196.00 257.00,175.00 257.00,175.00 Z
           M 280.00,175.00
           C 280.00,175.00 262.00,175.00 262.00,175.00
             262.00,175.00 262.00,204.00 262.00,204.00
             262.00,204.00 278.40,202.98 278.40,202.98
             278.40,202.98 280.00,195.00 280.00,195.00
             280.00,195.00 280.00,175.00 280.00,175.00 Z
           M 102.00,208.00
           C 99.80,205.54 98.18,206.02 95.00,206.00
             95.00,206.00 70.00,206.00 70.00,206.00
             65.56,206.00 60.12,205.36 56.00,207.00
             56.00,207.00 102.00,208.00 102.00,208.00 Z
           M 161.00,206.00
           C 161.00,206.00 126.00,206.00 126.00,206.00
             126.00,206.00 109.00,207.00 109.00,207.00
             115.72,208.91 138.60,208.00 147.00,208.00
             151.74,208.00 157.04,208.91 161.00,206.00 Z
           M 180.00,206.00
           C 180.00,206.00 165.00,206.00 165.00,206.00
             165.00,206.00 165.00,208.00 165.00,208.00
             169.95,208.00 175.85,209.05 180.00,206.00 Z
           M 222.00,206.00
           C 222.00,206.00 185.00,206.00 185.00,206.00
             185.00,206.00 185.00,208.00 185.00,208.00
             185.00,208.00 210.00,208.00 210.00,208.00
             214.58,208.00 218.20,208.80 222.00,206.00 Z
           M 257.00,206.00
           C 257.00,206.00 226.00,206.00 226.00,206.00
             226.00,206.00 226.00,208.00 226.00,208.00
             226.00,208.00 248.00,208.00 248.00,208.00
             251.97,207.99 253.69,208.44 257.00,206.00 Z
           M 279.00,206.00
           C 279.00,206.00 262.00,206.00 262.00,206.00
             262.00,206.00 262.00,208.00 262.00,208.00
             267.28,208.00 274.66,209.20 279.00,206.00 Z
           M 320.00,206.00
           C 320.00,206.00 296.00,206.00 296.00,206.00
             296.00,206.00 283.00,207.00 283.00,207.00
             283.00,207.00 307.00,207.00 307.00,207.00
             307.00,207.00 320.00,206.00 320.00,206.00 Z
           M 17.00,209.00
           C 17.00,209.00 11.00,209.00 11.00,209.00
             11.00,209.00 16.00,238.00 16.00,238.00
             16.00,238.00 22.00,238.00 22.00,238.00
             22.00,238.00 17.00,209.00 17.00,209.00 Z
           M 45.00,210.00
           C 45.00,210.00 19.00,209.00 19.00,209.00
             19.00,209.00 23.00,236.96 23.00,236.96
             23.00,236.96 37.00,236.96 37.00,236.96
             37.00,236.96 48.00,236.00 48.00,236.00
             48.00,236.00 45.00,210.00 45.00,210.00 Z
           M 362.00,209.00
           C 362.00,209.00 331.00,210.00 331.00,210.00
             331.00,210.00 327.00,236.00 327.00,236.00
             327.00,236.00 357.00,238.00 357.00,238.00
             357.00,238.00 362.00,209.00 362.00,209.00 Z
           M 53.00,210.00
           C 53.00,210.00 48.00,210.00 48.00,210.00
             48.00,210.00 50.05,226.00 50.05,226.00
             50.05,226.00 52.01,234.40 52.01,234.40
             52.01,234.40 56.00,236.00 56.00,236.00
             56.00,236.00 53.00,210.00 53.00,210.00 Z
           M 105.00,234.00
           C 105.00,234.00 103.09,219.00 103.09,219.00
             103.09,219.00 101.98,211.60 101.98,211.60
             101.98,211.60 94.00,210.00 94.00,210.00
             94.00,210.00 56.00,210.00 56.00,210.00
             56.02,216.00 56.78,221.11 57.75,227.00
             58.09,229.04 58.53,232.87 59.93,234.40
             61.90,236.55 70.69,235.01 74.00,235.00
             81.66,234.99 98.48,235.85 105.00,234.00 Z
           M 161.00,234.00
           C 161.00,234.00 161.00,218.00 161.00,218.00
             160.98,215.48 161.37,211.92 158.69,210.60
             156.77,209.66 146.75,210.00 144.00,210.00
             144.00,210.00 110.04,210.00 110.04,210.00
             110.04,210.00 110.04,224.00 110.04,224.00
             110.04,224.00 111.00,234.00 111.00,234.00
             111.00,234.00 161.00,234.00 161.00,234.00 Z
           M 180.00,234.00
           C 180.00,234.00 180.00,217.00 180.00,217.00
             179.86,209.87 177.82,209.74 171.00,210.02
             163.83,210.32 164.98,213.22 165.00,225.00
             165.00,226.99 164.77,230.81 166.02,232.40
             167.93,234.82 176.92,234.00 180.00,234.00 Z
           M 221.00,210.00
           C 221.00,210.00 193.00,210.00 193.00,210.00
             193.00,210.00 186.02,211.60 186.02,211.60
             186.02,211.60 185.00,219.00 185.00,219.00
             185.00,219.00 185.00,234.00 185.00,234.00
             185.00,234.00 213.00,234.00 213.00,234.00
             213.00,234.00 219.98,232.40 219.98,232.40
             219.98,232.40 221.00,225.00 221.00,225.00
             221.00,225.00 221.00,210.00 221.00,210.00 Z
           M 256.00,210.00
           C 256.00,210.00 232.00,210.00 232.00,210.00
             232.00,210.00 226.17,211.57 226.17,211.57
             226.17,211.57 225.00,220.00 225.00,220.00
             225.00,220.00 225.00,234.00 225.00,234.00
             225.00,234.00 255.00,234.00 255.00,234.00
             255.00,234.00 256.00,210.00 256.00,210.00 Z
           M 279.00,210.00
           C 279.00,210.00 262.60,211.02 262.60,211.02
             262.60,211.02 261.00,218.00 261.00,218.00
             261.00,218.00 260.00,234.19 260.00,234.19
             260.00,234.19 274.69,234.19 274.69,234.19
             276.99,233.35 277.40,230.22 277.71,228.00
             278.53,222.13 279.00,215.92 279.00,210.00 Z
           M 321.00,210.00
           C 321.00,210.00 283.00,210.00 283.00,210.00
             283.00,210.00 280.00,234.00 280.00,234.00
             286.24,235.77 297.15,234.97 304.00,235.00
             307.14,235.02 315.12,236.61 316.99,234.40
             318.13,233.06 318.62,228.81 318.87,227.00
             318.87,227.00 321.00,210.00 321.00,210.00 Z
           M 328.00,210.00
           C 328.00,210.00 324.00,210.00 324.00,210.00
             324.00,210.00 321.00,236.00 321.00,236.00
             321.00,236.00 323.84,234.43 323.84,234.43
             323.84,234.43 325.92,227.00 325.92,227.00
             325.92,227.00 328.00,210.00 328.00,210.00 Z
           M 162.00,246.00
           C 162.00,243.55 162.48,238.67 160.40,237.02
             158.81,235.77 154.99,236.00 153.00,236.00
             144.18,235.98 117.85,235.06 111.00,237.00
             111.00,237.00 113.60,244.98 113.60,244.98
             113.60,244.98 127.00,246.00 127.00,246.00
             127.00,246.00 162.00,246.00 162.00,246.00 Z
           M 180.00,236.00
           C 180.00,236.00 166.00,236.00 166.00,236.00
             166.00,236.00 166.00,246.00 166.00,246.00
             166.00,246.00 180.00,246.00 180.00,246.00
             180.00,246.00 180.00,236.00 180.00,236.00 Z
           M 220.00,236.00
           C 220.00,236.00 185.00,236.00 185.00,236.00
             185.00,236.00 185.00,246.00 185.00,246.00
             185.00,246.00 220.00,246.00 220.00,246.00
             220.00,246.00 220.00,236.00 220.00,236.00 Z
           M 253.97,246.00
           C 253.97,246.00 253.97,237.60 253.97,237.60
             253.97,237.60 246.00,236.00 246.00,236.00
             246.00,236.00 231.00,236.00 231.00,236.00
             231.00,236.00 225.02,237.60 225.02,237.60
             225.02,237.60 224.00,246.00 224.00,246.00
             224.00,246.00 253.97,246.00 253.97,246.00 Z
           M 276.00,237.00
           C 276.00,237.00 260.00,236.00 260.00,236.00
             260.00,236.00 259.00,246.00 259.00,246.00
             272.71,246.00 275.73,247.62 276.00,237.00 Z
           M 106.00,246.00
           C 106.00,246.00 104.26,237.99 104.26,237.99
             104.26,237.99 92.00,237.00 92.00,237.00
             92.00,237.00 76.00,237.00 76.00,237.00
             76.00,237.00 60.00,238.00 60.00,238.00
             60.42,240.51 60.64,243.18 63.28,244.40
             65.27,245.33 74.28,245.00 77.00,245.00
             77.00,245.00 106.00,246.00 106.00,246.00 Z
           M 317.00,238.00
           C 317.00,238.00 302.00,237.00 302.00,237.00
             302.00,237.00 280.00,237.00 280.00,237.00
             280.00,237.00 279.00,245.00 279.00,245.00
             279.00,245.00 304.00,245.00 304.00,245.00
             304.00,245.00 314.49,243.98 314.49,243.98
             314.49,243.98 317.00,238.00 317.00,238.00 Z
           M 49.00,238.00
           C 49.00,238.00 24.00,240.00 24.00,240.00
             27.11,244.15 29.23,242.76 34.00,243.09
             34.00,243.09 50.00,244.00 50.00,244.00
             50.00,244.00 49.00,238.00 49.00,238.00 Z
           M 57.00,238.00
           C 57.00,238.00 52.00,238.00 52.00,238.00
             52.00,238.00 53.00,244.00 53.00,244.00
             53.00,244.00 58.00,244.00 58.00,244.00
             58.00,244.00 57.00,238.00 57.00,238.00 Z
           M 324.00,238.00
           C 320.17,239.34 320.33,240.09 320.00,244.00
             320.00,244.00 324.00,238.00 324.00,238.00 Z
           M 356.00,240.00
           C 356.00,240.00 347.00,238.82 347.00,238.82
             347.00,238.82 337.00,238.82 337.00,238.82
             337.00,238.82 328.27,238.82 328.27,238.82
             328.27,238.82 325.00,243.96 325.00,243.96
             325.00,243.96 336.00,243.96 336.00,243.96
             336.00,243.96 345.00,243.01 345.00,243.01
             349.59,242.90 353.21,244.16 356.00,240.00 Z
           M 23.00,243.00
           C 21.60,239.63 20.44,240.12 17.00,240.00
             17.00,240.00 17.00,242.00 17.00,242.00
             17.00,242.00 23.00,243.00 23.00,243.00 Z
           M 364.00,241.00
           C 364.00,241.00 358.00,240.00 358.00,240.00
             358.00,240.00 358.00,242.00 358.00,242.00
             358.00,242.00 364.00,241.00 364.00,241.00 Z
           M 33.00,269.00
           C 33.00,269.00 27.00,253.00 27.00,253.00
             27.00,253.00 23.49,246.02 23.49,246.02
             23.49,246.02 18.00,245.00 18.00,245.00
             18.00,245.00 27.00,270.00 27.00,270.00
             27.00,270.00 33.00,269.00 33.00,269.00 Z
           M 56.00,267.00
           C 55.27,263.38 52.03,248.82 49.49,247.02
             47.73,245.77 44.13,246.00 42.00,246.00
             42.00,246.00 26.00,245.00 26.00,245.00
             26.00,245.00 34.00,269.00 34.00,269.00
             34.00,269.00 56.00,267.00 56.00,267.00 Z
           M 355.00,245.00
           C 355.00,245.00 332.00,246.00 332.00,246.00
             332.00,246.00 324.81,247.74 324.81,247.74
             324.81,247.74 318.00,266.00 318.00,266.00
             318.00,266.00 338.00,268.07 338.00,268.07
             338.00,268.07 345.51,268.07 345.51,268.07
             345.51,268.07 349.15,262.00 349.15,262.00
             349.15,262.00 355.00,245.00 355.00,245.00 Z
           M 65.00,266.00
           C 65.00,266.00 58.30,247.99 58.30,247.99
             58.30,247.99 54.00,247.00 54.00,247.00
             54.68,250.61 57.05,263.01 59.70,265.01
             61.16,266.10 63.28,265.94 65.00,266.00 Z
           M 107.00,248.00
           C 107.00,248.00 89.00,248.00 89.00,248.00
             89.00,248.00 77.00,247.04 77.00,247.04
             77.00,247.04 62.00,247.04 62.00,247.04
             62.78,250.87 65.33,262.92 68.42,264.96
             71.40,266.96 80.03,265.05 84.00,264.96
             84.00,264.96 98.00,264.96 98.00,264.96
             98.00,264.96 110.00,264.00 110.00,264.00
             110.00,264.00 107.00,248.00 107.00,248.00 Z
           M 315.00,247.00
           C 315.00,247.00 278.00,248.00 278.00,248.00
             277.43,251.01 274.49,261.22 276.06,263.40
             277.28,265.09 280.15,264.96 282.00,265.00
             282.00,265.00 292.00,265.00 292.00,265.00
             292.00,265.00 311.00,266.00 311.00,266.00
             311.00,266.00 315.00,247.00 315.00,247.00 Z
           M 321.00,247.00
           C 321.00,247.00 319.00,247.00 319.00,247.00
             319.00,247.00 314.00,266.00 314.00,266.00
             317.96,262.97 320.55,251.98 321.00,247.00 Z
           M 162.00,249.00
           C 162.00,249.00 113.00,248.00 113.00,248.00
             113.00,248.00 115.00,264.00 115.00,264.00
             115.00,264.00 134.00,264.00 134.00,264.00
             134.00,264.00 146.00,263.04 146.00,263.04
             146.00,263.04 163.00,263.04 163.00,263.04
             163.00,263.04 162.00,249.00 162.00,249.00 Z
           M 254.00,249.00
           C 254.00,249.00 230.00,249.00 230.00,249.00
             230.00,249.00 224.02,250.60 224.02,250.60
             224.02,250.60 222.00,263.00 222.00,263.00
             222.00,263.00 252.00,264.00 252.00,264.00
             252.00,264.00 254.00,249.00 254.00,249.00 Z
           M 274.00,248.00
           C 271.09,248.00 261.59,247.45 259.60,249.02
             257.13,250.96 257.01,260.86 257.00,264.00
             259.88,264.00 268.37,264.51 270.44,262.98
             273.26,260.89 273.93,251.41 274.00,248.00 Z
           M 180.00,249.00
           C 180.00,249.00 166.00,249.00 166.00,249.00
             166.00,249.00 167.00,263.00 167.00,263.00
             167.00,263.00 180.00,263.00 180.00,263.00
             180.00,263.00 180.00,249.00 180.00,249.00 Z
           M 220.00,249.00
           C 220.00,249.00 185.00,249.00 185.00,249.00
             185.00,249.00 185.00,263.00 185.00,263.00
             185.00,263.00 219.00,263.00 219.00,263.00
             219.00,263.00 220.00,249.00 220.00,249.00 Z
           M 163.00,265.00
           C 163.00,265.00 116.00,266.00 116.00,266.00
             116.00,266.00 118.00,281.04 118.00,281.04
             118.00,281.04 132.00,281.04 132.00,281.04
             132.00,281.04 143.00,282.00 143.00,282.00
             143.00,282.00 165.00,282.00 165.00,282.00
             165.00,282.00 163.00,265.00 163.00,265.00 Z
           M 180.00,265.00
           C 180.00,265.00 167.00,265.00 167.00,265.00
             167.00,265.00 168.00,282.00 168.00,282.00
             168.00,282.00 181.00,282.00 181.00,282.00
             181.00,282.00 180.00,265.00 180.00,265.00 Z
           M 218.00,265.00
           C 218.00,265.00 194.00,265.00 194.00,265.00
             194.00,265.00 186.60,266.02 186.60,266.02
             186.60,266.02 185.00,272.00 185.00,272.00
             185.00,272.00 186.02,280.40 186.02,280.40
             186.02,280.40 194.00,282.00 194.00,282.00
             194.00,282.00 217.00,282.00 217.00,282.00
             217.00,282.00 218.00,265.00 218.00,265.00 Z
           M 251.00,266.00
           C 251.00,266.00 222.00,265.00 222.00,265.00
             222.00,265.00 220.00,281.00 220.00,281.00
             229.19,283.61 239.63,281.08 249.00,281.00
             249.00,281.00 251.00,266.00 251.00,266.00 Z
           M 114.00,280.96
           C 114.00,280.96 109.44,267.04 109.44,267.04
             109.44,267.04 94.00,267.04 94.00,267.04
             94.00,267.04 80.00,267.04 80.00,267.04
             80.00,267.04 69.00,268.00 69.00,268.00
             69.50,271.22 70.60,276.75 73.50,278.69
             76.35,280.60 86.23,279.98 90.00,280.00
             90.00,280.00 101.00,280.96 101.00,280.96
             101.00,280.96 114.00,280.96 114.00,280.96 Z
           M 270.00,266.00
           C 270.00,266.00 256.00,266.00 256.00,266.00
             256.00,266.00 254.00,281.00 254.00,281.00
             254.00,281.00 267.00,281.00 267.00,281.00
             267.00,281.00 270.00,266.00 270.00,266.00 Z
           M 310.00,268.00
           C 310.00,268.00 297.00,267.04 297.00,267.04
             297.00,267.04 283.00,267.04 283.00,267.04
             283.00,267.04 274.56,267.77 274.56,267.77
             274.56,267.77 270.00,281.00 270.00,281.00
             270.00,281.00 286.00,280.00 286.00,280.00
             286.00,280.00 307.00,279.00 307.00,279.00
             307.00,279.00 310.00,268.00 310.00,268.00 Z
           M 70.00,279.00
           C 67.88,272.88 67.55,267.04 60.00,269.00
             60.00,269.00 63.00,279.00 63.00,279.00
             63.00,279.00 70.00,279.00 70.00,279.00 Z
           M 60.00,279.00
           C 59.52,276.37 58.57,271.67 56.30,269.99
             53.53,267.93 39.59,270.13 36.00,271.00
             36.00,271.00 38.65,276.01 38.65,276.01
             38.65,276.01 60.00,279.00 60.00,279.00 Z
           M 345.00,271.00
           C 345.00,271.00 325.00,269.01 325.00,269.01
             325.00,269.01 317.50,270.02 317.50,270.02
             317.50,270.02 313.00,279.00 313.00,279.00
             313.00,279.00 334.00,277.28 334.00,277.28
             334.00,277.28 341.61,275.98 341.61,275.98
             341.61,275.98 345.00,271.00 345.00,271.00 Z
           M 36.00,277.00
           C 34.78,271.47 33.43,270.86 28.00,272.00
             30.58,276.05 31.56,275.75 36.00,277.00 Z
           M 28.00,275.00
           C 25.75,272.19 25.11,272.27 22.00,274.00
             22.00,274.00 28.00,275.00 28.00,275.00 Z
           M 355.00,273.00
           C 350.22,272.16 348.04,270.93 346.00,276.00
             346.00,276.00 355.00,273.00 355.00,273.00 Z
           M 311.00,277.00
           C 311.00,277.00 310.00,277.00 310.00,277.00
             310.00,277.00 311.00,278.00 311.00,278.00
             311.00,278.00 311.00,277.00 311.00,277.00 Z
           M 49.00,298.17
           C 47.69,294.56 40.38,281.81 37.67,279.85
             35.56,278.33 33.47,278.23 31.00,278.00
             31.00,278.00 38.68,293.00 38.68,293.00
             38.68,293.00 43.38,298.17 43.38,298.17
             43.38,298.17 49.00,298.17 49.00,298.17 Z
           M 67.00,295.00
           C 66.16,292.04 63.51,284.58 61.35,282.59
             58.66,280.12 44.29,279.35 40.00,279.00
             41.27,283.35 46.97,294.69 51.18,296.40
             53.79,297.46 64.08,295.83 67.00,295.00 Z
           M 341.00,279.00
           C 341.00,279.00 320.00,280.72 320.00,280.72
             320.00,280.72 312.39,282.02 312.39,282.02
             312.39,282.02 305.00,295.00 305.00,295.00
             305.00,295.00 320.00,296.59 320.00,296.59
             322.09,296.92 326.83,298.00 328.68,297.34
             332.47,295.99 339.11,282.93 341.00,279.00 Z
           M 77.00,294.00
           C 74.38,286.83 73.18,281.49 65.00,281.00
             65.60,284.80 67.86,293.72 72.21,294.66
             73.91,295.03 75.42,294.44 77.00,294.00 Z
           M 116.00,292.00
           C 116.00,292.00 113.44,284.02 113.44,284.02
             113.44,284.02 99.00,283.00 99.00,283.00
             99.00,283.00 89.00,282.04 89.00,282.04
             89.00,282.04 74.00,282.04 74.00,282.04
             75.24,284.89 77.81,291.33 80.39,293.02
             83.36,294.87 88.69,293.48 92.00,293.02
             92.00,293.02 104.00,293.02 104.00,293.02
             104.00,293.02 116.00,292.00 116.00,292.00 Z
           M 305.00,282.04
           C 305.00,282.04 288.00,282.04 288.00,282.04
             288.00,282.04 280.00,282.96 280.00,282.96
             280.00,282.96 269.70,283.99 269.70,283.99
             269.70,283.99 266.00,292.00 266.00,292.00
             266.00,292.00 290.00,293.83 290.00,293.83
             290.00,293.83 300.30,293.01 300.30,293.01
             300.30,293.01 305.00,282.04 305.00,282.04 Z
           M 165.00,284.00
           C 165.00,284.00 119.00,283.00 119.00,283.00
             119.33,285.33 119.75,289.47 121.72,291.06
             124.31,293.02 131.85,291.47 135.00,291.06
             135.00,291.06 165.00,291.06 165.00,291.06
             165.00,291.06 165.00,284.00 165.00,284.00 Z
           M 266.00,283.00
           C 253.77,283.00 253.46,282.18 251.00,291.00
             260.33,293.65 263.81,292.55 266.00,283.00 Z
           M 181.00,291.00
           C 180.72,283.13 179.00,284.00 169.00,284.00
             169.00,284.00 169.00,291.00 169.00,291.00
             169.00,291.00 181.00,291.00 181.00,291.00 Z
           M 216.00,284.00
           C 216.00,284.00 186.00,284.00 186.00,284.00
             186.00,284.00 186.00,291.00 186.00,291.00
             186.00,291.00 216.00,291.00 216.00,291.00
             216.00,291.00 216.00,284.00 216.00,284.00 Z
           M 248.00,284.00
           C 248.00,284.00 220.00,284.00 220.00,284.00
             220.00,284.00 219.00,291.00 219.00,291.00
             219.00,291.00 246.00,292.00 246.00,292.00
             246.00,292.00 248.00,284.00 248.00,284.00 Z
           M 336.00,291.00
           C 336.00,291.00 335.00,291.00 335.00,291.00
             335.00,291.00 336.00,292.00 336.00,292.00
             336.00,292.00 336.00,291.00 336.00,291.00 Z
           M 182.00,313.00
           C 182.00,313.00 181.00,299.00 181.00,299.00
             181.00,299.00 179.40,293.06 179.40,293.06
             179.40,293.06 169.00,293.06 169.00,293.06
             169.00,293.06 171.00,313.00 171.00,313.00
             171.00,313.00 182.00,313.00 182.00,313.00 Z
           M 215.00,293.00
           C 215.00,293.00 186.00,292.00 186.00,292.00
             186.00,292.00 186.00,313.00 186.00,313.00
             186.00,313.00 205.00,313.00 205.00,313.00
             206.84,312.99 209.90,313.15 211.41,311.98
             213.88,310.05 214.92,296.44 215.00,293.00 Z
           M 166.00,293.00
           C 166.00,293.00 122.00,294.00 122.00,294.00
             122.84,297.68 126.09,308.87 128.70,311.18
             130.80,313.04 134.35,312.96 137.00,313.00
             137.00,313.00 168.00,313.00 168.00,313.00
             168.00,313.00 166.00,293.00 166.00,293.00 Z
           M 246.00,293.00
           C 246.00,293.00 226.00,293.00 226.00,293.00
             226.00,293.00 219.02,294.60 219.02,294.60
             219.02,294.60 215.00,313.00 215.00,313.00
             215.00,313.00 234.00,313.00 234.00,313.00
             236.00,312.99 238.87,313.13 240.57,311.98
             243.84,309.77 245.81,297.00 246.00,293.00 Z
           M 123.00,311.96
           C 123.00,311.96 116.44,295.02 116.44,295.02
             116.44,295.02 105.00,294.28 105.00,294.28
             105.00,294.28 90.00,295.09 90.00,295.09
             90.00,295.09 81.00,296.00 81.00,296.00
             82.64,299.67 86.78,308.04 90.18,309.98
             92.78,311.46 97.94,310.91 101.00,311.04
             101.00,311.04 109.00,311.96 109.00,311.96
             109.00,311.96 123.00,311.96 123.00,311.96 Z
           M 262.00,294.00
           C 262.00,294.00 250.00,294.00 250.00,294.00
             250.00,294.00 246.00,312.00 246.00,312.00
             247.90,312.00 252.00,312.18 253.61,311.43
             257.32,309.70 261.07,297.99 262.00,294.00 Z
           M 299.00,296.00
           C 299.00,296.00 287.00,294.97 287.00,294.97
             287.00,294.97 276.00,294.97 276.00,294.97
             276.00,294.97 265.70,294.97 265.70,294.97
             265.70,294.97 258.00,312.00 258.00,312.00
             258.00,312.00 281.00,311.00 281.00,311.00
             284.19,310.98 289.82,310.92 292.47,309.05
             295.90,306.63 298.07,299.95 299.00,296.00 Z
           M 334.00,294.00
           C 334.00,294.00 333.00,294.00 333.00,294.00
             333.00,294.00 334.00,295.00 334.00,295.00
             334.00,295.00 334.00,294.00 334.00,294.00 Z
           M 87.00,310.00
           C 87.00,310.00 77.62,296.83 77.62,296.83
             77.62,296.83 72.00,296.83 72.00,296.83
             72.71,299.98 73.26,301.28 74.71,304.00
             78.33,310.77 79.77,309.99 87.00,310.00 Z
           M 75.00,309.00
           C 75.00,309.00 68.37,298.03 68.37,298.03
             68.37,298.03 52.00,299.00 52.00,299.00
             57.69,310.05 63.62,309.00 75.00,309.00 Z
           M 327.00,300.00
           C 322.84,298.73 306.96,295.78 303.53,297.99
             300.80,299.75 297.18,306.92 296.00,310.00
             300.78,309.78 319.63,308.34 322.81,306.15
             325.25,304.47 325.97,302.61 327.00,300.00 Z
           M 332.00,297.00
           C 332.00,297.00 331.00,297.00 331.00,297.00
             331.00,297.00 332.00,298.00 332.00,298.00
             332.00,298.00 332.00,297.00 332.00,297.00 Z
           M 56.00,307.00
           C 52.91,301.77 51.33,299.42 45.00,301.00
             47.44,306.78 50.15,306.73 56.00,307.00 Z
           M 330.00,300.00
           C 330.00,300.00 325.00,307.00 325.00,307.00
             325.00,307.00 330.00,300.00 330.00,300.00 Z
           M 337.00,303.00
           C 331.85,300.77 330.97,301.33 328.00,306.00
             328.00,306.00 337.00,303.00 337.00,303.00 Z
           M 45.00,305.00
           C 43.16,302.35 43.16,302.58 40.00,303.00
             40.00,303.00 45.00,305.00 45.00,305.00 Z
           M 51.00,308.00
           C 50.92,312.40 59.68,323.17 64.00,324.22
             66.20,324.75 68.05,323.79 70.00,323.00
             70.00,323.00 57.96,310.01 57.96,310.01
             57.96,310.01 51.00,308.00 51.00,308.00 Z
           M 320.00,309.00
           C 299.67,312.64 294.42,308.10 290.00,320.00
             293.24,320.95 305.14,323.30 308.00,322.36
             312.58,320.87 318.03,313.25 320.00,309.00 Z
           M 324.00,309.00
           C 319.15,311.41 312.22,319.50 309.00,324.00
             315.92,321.97 320.52,315.00 324.00,309.00 Z
           M 82.00,321.00
           C 78.81,312.67 77.21,311.74 69.00,310.72
             64.72,310.18 64.48,310.04 60.00,310.00
             62.46,313.54 67.80,321.08 72.00,322.12
             74.22,322.66 79.57,321.44 82.00,321.00 Z
           M 93.00,320.00
           C 90.40,312.39 87.30,312.03 80.00,312.00
             83.30,320.90 84.69,320.15 93.00,320.00 Z
           M 291.00,312.00
           C 291.00,312.00 266.00,313.83 266.00,313.83
             261.00,314.31 258.25,312.67 255.00,317.00
             255.00,317.00 277.00,318.99 277.00,318.99
             277.00,318.99 285.70,318.99 285.70,318.99
             285.70,318.99 291.00,312.00 291.00,312.00 Z
           M 124.00,317.00
           C 121.18,312.78 117.62,314.16 113.00,313.96
             113.00,313.96 105.00,313.04 105.00,313.04
             105.00,313.04 92.00,313.04 92.00,313.04
             95.49,321.60 101.43,318.89 109.00,318.17
             115.80,317.52 115.20,318.58 124.00,317.00 Z
           M 158.00,315.00
           C 158.00,315.00 130.00,314.00 130.00,314.00
             133.58,319.35 141.59,316.27 147.00,316.04
             150.98,315.87 154.21,316.50 158.00,315.00 Z
           M 253.00,314.00
           C 249.05,314.05 247.34,313.50 245.00,317.00
             245.00,317.00 253.00,317.00 253.00,317.00
             253.00,317.00 253.00,314.00 253.00,314.00 Z
           M 241.00,315.00
           C 241.00,315.00 219.00,316.00 219.00,316.00
             219.00,316.00 237.89,316.62 237.89,316.62
             237.89,316.62 241.00,315.00 241.00,315.00 Z
           M 169.00,317.00
           C 169.00,317.00 158.00,318.00 158.00,318.00
             158.00,318.00 132.00,319.00 132.00,319.00
             133.17,323.10 138.83,334.86 142.33,336.98
             144.03,338.01 146.08,337.96 148.00,338.00
             154.51,338.12 167.20,338.65 173.00,337.00
             173.00,337.00 169.00,317.00 169.00,317.00 Z
           M 183.00,336.94
           C 183.00,336.94 182.00,324.00 182.00,324.00
             182.00,324.00 180.40,318.02 180.40,318.02
             180.40,318.02 172.00,317.00 172.00,317.00
             172.29,320.57 173.84,335.15 176.56,336.94
             178.12,337.89 181.21,337.21 183.00,336.94 Z
           M 211.00,317.00
           C 211.00,317.00 186.00,317.00 186.00,317.00
             186.00,317.00 186.00,337.21 186.00,337.21
             186.00,337.21 205.57,337.21 205.57,337.21
             209.12,335.68 210.82,320.97 211.00,317.00 Z
           M 240.00,318.00
           C 240.00,318.00 214.00,318.00 214.00,318.00
             214.00,318.00 210.00,338.00 210.00,338.00
             213.97,338.00 230.02,338.69 232.50,336.98
             235.45,334.95 239.13,321.83 240.00,318.00 Z
           M 133.00,338.00
           C 132.31,334.31 127.60,321.95 124.61,319.80
             121.99,318.33 116.95,319.19 114.00,319.80
             114.00,319.80 98.00,321.00 98.00,321.00
             100.22,325.92 106.87,334.51 112.00,336.40
             112.00,336.40 133.00,338.00 133.00,338.00 Z
           M 251.00,319.00
           C 251.00,319.00 243.00,319.00 243.00,319.00
             243.00,319.00 236.00,338.00 236.00,338.00
             243.67,336.70 248.17,325.57 251.00,319.00 Z
           M 284.00,321.00
           C 284.00,321.00 257.02,319.16 257.02,319.16
             257.02,319.16 253.39,320.60 253.39,320.60
             253.39,320.60 242.00,338.00 242.00,338.00
             242.00,338.00 258.00,337.04 258.00,337.04
             261.61,336.88 266.70,337.38 270.00,336.11
             274.52,334.36 281.94,325.36 284.00,321.00 Z
           M 108.00,336.00
           C 105.73,332.83 97.43,322.73 93.99,321.88
             92.48,321.34 87.92,321.91 86.00,321.88
             88.14,325.73 93.24,333.59 97.17,335.26
             99.55,336.27 105.23,336.00 108.00,336.00 Z
           M 131.00,322.00
           C 131.00,322.00 130.00,322.00 130.00,322.00
             130.00,322.00 131.00,323.00 131.00,323.00
             131.00,323.00 131.00,322.00 131.00,322.00 Z
           M 306.00,325.00
           C 302.32,324.02 291.39,321.42 288.17,323.06
             285.11,324.63 279.82,332.84 278.00,336.00
             290.63,333.74 297.14,336.80 306.00,325.00 Z
           M 93.00,335.00
           C 91.21,331.60 86.69,324.26 82.83,323.31
             80.76,322.80 76.28,323.70 74.00,324.00
             74.00,324.00 80.00,332.00 80.00,332.00
             74.42,326.49 73.87,324.69 66.00,326.00
             66.77,327.58 66.95,328.37 68.29,329.70
             70.90,332.28 77.98,334.52 81.00,332.00
             85.74,334.71 87.65,334.88 93.00,335.00 Z
           M 308.00,325.00
           C 308.00,325.00 299.00,333.00 299.00,333.00
             304.29,332.39 307.94,330.90 308.00,325.00 Z
           M 133.00,326.00
           C 132.11,331.04 135.13,336.40 140.00,338.00
             140.00,338.00 133.00,326.00 133.00,326.00 Z
           M 281.00,328.00
           C 281.00,328.00 280.00,328.00 280.00,328.00
             280.00,328.00 281.00,329.00 281.00,329.00
             281.00,329.00 281.00,328.00 281.00,328.00 Z
           M 280.00,329.00
           C 280.00,329.00 273.00,336.00 273.00,336.00
             277.28,334.59 278.17,333.01 280.00,329.00 Z
           M 307.00,331.00
           C 307.00,331.00 306.00,331.00 306.00,331.00
             306.00,331.00 307.00,332.00 307.00,332.00
             307.00,332.00 307.00,331.00 307.00,331.00 Z
           M 75.00,336.00
           C 75.00,336.00 78.00,339.00 78.00,339.00
             78.00,339.00 75.00,336.00 75.00,336.00 Z
           M 113.00,341.00
           C 109.19,337.24 103.16,337.24 98.00,337.00
             103.13,343.86 105.39,342.39 113.00,341.00 Z
           M 87.00,337.00
           C 87.00,337.00 91.00,341.00 91.00,341.00
             91.00,341.00 87.00,337.00 87.00,337.00 Z
           M 124.00,339.00
           C 124.00,339.00 113.00,338.00 113.00,338.00
             116.71,341.61 119.50,341.08 124.00,339.00 Z
           M 268.00,338.00
           C 268.00,338.00 253.00,340.00 253.00,340.00
             259.08,340.49 263.19,342.74 268.00,338.00 Z
           M 273.00,338.00
           C 273.00,338.00 267.00,342.00 267.00,342.00
             267.00,342.00 273.00,338.00 273.00,338.00 Z
           M 142.00,340.00
           C 142.00,340.00 139.00,340.00 139.00,340.00
             139.83,344.35 144.71,354.88 149.18,356.11
             150.64,356.66 152.52,356.21 154.00,356.11
             154.00,356.11 142.00,340.00 142.00,340.00 Z
           M 174.00,341.00
           C 174.00,341.00 161.00,340.00 161.00,340.00
             161.00,340.00 144.00,340.00 144.00,340.00
             146.29,344.67 152.06,353.56 157.00,355.20
             161.23,356.97 171.85,355.05 177.00,355.20
             177.00,355.20 174.00,341.00 174.00,341.00 Z
           M 232.00,340.00
           C 227.25,340.00 211.82,338.84 208.70,341.74
             206.95,343.36 204.12,352.19 203.00,354.99
             207.53,355.37 219.95,357.30 223.61,354.99
             226.81,352.95 230.53,343.67 232.00,340.00 Z
           M 238.00,340.00
           C 233.65,341.43 233.27,342.75 232.00,347.00
             232.00,347.00 238.00,340.00 238.00,340.00 Z
           M 263.00,342.00
           C 263.00,342.00 241.09,340.88 241.09,340.88
             236.80,342.03 228.25,352.74 227.00,356.86
             227.00,356.86 243.00,356.86 243.00,356.86
             248.57,355.60 260.29,346.92 263.00,342.00 Z
           M 146.00,357.00
           C 146.00,357.00 134.62,341.79 134.62,341.79
             134.62,341.79 117.00,341.79 117.00,341.79
             120.45,346.42 130.63,354.95 136.00,356.49
             138.42,357.19 143.31,357.00 146.00,357.00 Z
           M 183.00,341.00
           C 183.00,341.00 176.00,341.00 176.00,341.00
             176.00,341.00 179.73,354.01 179.73,354.01
             179.73,354.01 184.00,355.00 184.00,355.00
             184.00,355.00 183.00,341.00 183.00,341.00 Z
           M 206.00,341.00
           C 206.00,341.00 186.00,341.00 186.00,341.00
             186.00,341.00 187.00,355.00 187.00,355.00
             187.00,355.00 201.30,354.01 201.30,354.01
             201.30,354.01 206.00,341.00 206.00,341.00 Z
           M 81.00,341.00
           C 81.00,341.00 82.00,341.00 82.00,341.00
             82.00,341.00 81.00,342.00 81.00,342.00
             81.00,342.00 81.00,341.00 81.00,341.00 Z
           M 134.00,356.04
           C 134.00,356.04 115.00,343.14 115.00,343.14
             115.00,343.14 105.00,344.00 105.00,344.00
             111.32,352.75 115.64,355.35 126.00,356.04
             129.27,356.32 130.77,357.08 134.00,356.04 Z
           M 293.00,341.00
           C 293.00,341.00 291.00,344.00 291.00,344.00
             291.00,344.00 291.00,343.00 291.00,343.00
             291.00,343.00 293.00,341.00 293.00,341.00 Z
           M 268.00,343.00
           C 262.31,343.90 252.00,351.69 248.00,356.00
             250.14,355.99 252.99,356.12 255.00,355.41
             259.88,353.66 265.82,347.59 268.00,343.00 Z
           M 232.00,347.00
           C 232.00,347.00 231.00,347.00 231.00,347.00
             231.00,347.00 232.00,348.00 232.00,348.00
             232.00,348.00 232.00,347.00 232.00,347.00 Z
           M 278.00,347.00
           C 278.00,347.00 279.00,347.00 279.00,347.00
             279.00,347.00 278.00,348.00 278.00,348.00
             278.00,348.00 278.00,347.00 278.00,347.00 Z
           M 102.00,348.00
           C 102.00,348.00 103.00,348.00 103.00,348.00
             103.00,348.00 102.00,349.00 102.00,349.00
             102.00,349.00 102.00,348.00 102.00,348.00 Z
           M 105.00,350.00
           C 105.00,350.00 106.00,350.00 106.00,350.00
             106.00,350.00 105.00,351.00 105.00,351.00
             105.00,351.00 105.00,350.00 105.00,350.00 Z
           M 273.00,350.00
           C 273.00,350.00 274.00,350.00 274.00,350.00
             274.00,350.00 273.00,351.00 273.00,351.00
             273.00,351.00 273.00,350.00 273.00,350.00 Z
           M 107.00,351.00
           C 107.00,351.00 108.00,351.00 108.00,351.00
             108.00,351.00 107.00,352.00 107.00,352.00
             107.00,352.00 107.00,351.00 107.00,351.00 Z
           M 97.00,352.00
           C 97.00,352.00 104.00,354.00 104.00,354.00
             104.00,354.00 97.00,352.00 97.00,352.00 Z
           M 270.00,352.00
           C 270.00,352.00 271.00,352.00 271.00,352.00
             271.00,352.00 270.00,353.00 270.00,353.00
             270.00,353.00 270.00,352.00 270.00,352.00 Z
           M 178.00,356.00
           C 178.00,356.00 158.00,358.00 158.00,358.00
             158.00,358.00 178.00,358.00 178.00,358.00
             178.00,358.00 178.00,356.00 178.00,356.00 Z
           M 184.00,356.00
           C 184.00,356.00 180.00,356.00 180.00,356.00
             180.00,356.00 180.00,358.00 180.00,358.00
             180.00,358.00 184.00,358.00 184.00,358.00
             184.00,358.00 184.00,356.00 184.00,356.00 Z
           M 201.00,356.00
           C 201.00,356.00 187.00,356.00 187.00,356.00
             189.90,360.27 196.39,358.01 201.00,358.00
             201.00,358.00 201.00,356.00 201.00,356.00 Z
           M 222.00,356.81
           C 222.00,356.81 204.22,356.81 204.22,356.81
             204.22,356.81 202.00,358.00 202.00,358.00
             202.00,358.00 222.00,356.81 222.00,356.81 Z
           M 133.00,358.00
           C 128.51,357.19 124.38,356.26 120.00,358.00
             125.16,360.16 127.81,360.39 133.00,358.00 Z
           M 156.00,357.00
           C 156.00,357.00 155.00,357.00 155.00,357.00
             155.00,357.00 156.00,358.00 156.00,358.00
             156.00,358.00 156.00,357.00 156.00,357.00 Z
           M 253.00,357.00
           C 253.00,357.00 244.00,359.00 244.00,359.00
             248.29,359.24 249.57,359.94 253.00,357.00 Z
           M 184.00,360.00
           C 184.00,360.00 181.00,360.00 181.00,360.00
             181.67,363.67 181.91,365.68 185.00,368.00
             185.00,368.00 184.00,360.00 184.00,360.00 Z
           M 141.00,360.00
           C 141.00,360.00 142.00,360.00 142.00,360.00
             142.00,360.00 141.00,361.00 141.00,361.00
             141.00,361.00 141.00,360.00 141.00,360.00 Z
           M 220.00,361.00
           C 220.00,361.00 219.00,361.00 219.00,361.00
             219.00,361.00 220.00,362.00 220.00,362.00
             220.00,362.00 220.00,361.00 220.00,361.00 Z
           M 143.00,361.00
           C 143.00,361.00 144.00,361.00 144.00,361.00
             144.00,361.00 143.00,362.00 143.00,362.00
             143.00,362.00 143.00,361.00 143.00,361.00 Z
           M 219.00,362.00
           C 219.00,362.00 218.00,362.00 218.00,362.00
             218.00,362.00 219.00,363.00 219.00,363.00
             219.00,363.00 219.00,362.00 219.00,362.00 Z
           M 236.00,361.00
           C 236.00,361.00 237.00,361.00 237.00,361.00
             237.00,361.00 236.00,362.00 236.00,362.00
             236.00,362.00 236.00,361.00 236.00,361.00 Z
           M 145.00,362.00
           C 145.00,362.00 146.00,362.00 146.00,362.00
             146.00,362.00 145.00,363.00 145.00,363.00
             145.00,363.00 145.00,362.00 145.00,362.00 Z
           M 234.00,362.00
           C 234.00,362.00 235.00,362.00 235.00,362.00
             235.00,362.00 234.00,363.00 234.00,363.00
             234.00,363.00 234.00,362.00 234.00,362.00 Z
           M 232.00,363.00
           C 232.00,363.00 233.00,363.00 233.00,363.00
             233.00,363.00 232.00,364.00 232.00,364.00
             232.00,364.00 232.00,363.00 232.00,363.00 Z
           M 131.00,364.00
           C 131.00,364.00 132.00,364.00 132.00,364.00
             132.00,364.00 131.00,365.00 131.00,365.00
             131.00,365.00 131.00,364.00 131.00,364.00 Z
           M 241.00,365.00
           C 241.00,365.00 242.00,365.00 242.00,365.00
             242.00,365.00 241.00,366.00 241.00,366.00
             241.00,366.00 241.00,365.00 241.00,365.00 Z
           M 235.00,368.00
           C 235.00,368.00 240.00,367.00 240.00,367.00
             240.00,367.00 235.00,368.00 235.00,368.00 Z
           M 132.00,367.00
           C 132.00,367.00 133.00,367.00 133.00,367.00
             133.00,367.00 132.00,368.00 132.00,368.00
             132.00,368.00 132.00,367.00 132.00,367.00 Z
           M 209.00,367.00
           C 209.00,367.00 210.00,367.00 210.00,367.00
             210.00,367.00 209.00,368.00 209.00,368.00
             209.00,368.00 209.00,367.00 209.00,367.00 Z
           M 173.00,368.00
           C 173.00,368.00 179.00,369.00 179.00,369.00
             179.00,369.00 174.00,371.00 174.00,371.00
             174.00,371.00 173.00,368.00 173.00,368.00 Z
           M 198.00,368.00
           C 198.00,368.00 204.00,369.00 204.00,369.00
             204.00,369.00 198.00,368.00 198.00,368.00 Z
           M 205.00,369.00
           C 205.00,369.00 206.00,369.00 206.00,369.00
             206.00,369.00 205.00,370.00 205.00,370.00
             205.00,370.00 205.00,369.00 205.00,369.00 Z
           M 228.00,369.00
           C 228.00,369.00 234.00,370.00 234.00,370.00
             234.00,370.00 228.00,369.00 228.00,369.00 Z
           M 203.00,370.00
           C 203.00,370.00 204.00,370.00 204.00,370.00
             204.00,370.00 203.00,371.00 203.00,371.00
             203.00,371.00 203.00,370.00 203.00,370.00 Z
           M 166.00,373.00
           C 166.00,373.00 167.00,373.00 167.00,373.00
             167.00,373.00 166.00,374.00 166.00,374.00
             166.00,374.00 166.00,373.00 166.00,373.00 Z
           M 205.00,374.00
           C 205.00,374.00 206.00,374.00 206.00,374.00
             206.00,374.00 205.00,375.00 205.00,375.00
             205.00,375.00 205.00,374.00 205.00,374.00 Z" />
</svg>
