<?xml version="1.0" encoding="UTF-8" standalone="no"?>
<!DOCTYPE svg PUBLIC "-//W3C//DTD SVG 20010904//EN"
              "http://www.w3.org/TR/2001/REC-SVG-20010904/DTD/svg10.dtd">

<svg xmlns="http://www.w3.org/2000/svg"
     width="1.25667in" height="1.25667in"
     viewBox="0 0 377 377">
  <path id="Auswahl #4"
        fill="none" stroke="black" stroke-width="1"
        d="M 193.00,0.00
           C 193.00,0.00 201.00,7.00 201.00,7.00
             201.00,7.00 199.00,8.00 199.00,8.00
             207.82,8.28 207.97,13.31 215.00,17.22
             219.30,19.97 230.01,19.94 234.00,17.22
             234.00,17.22 229.00,15.00 229.00,15.00
             229.00,15.00 232.00,16.00 232.00,16.00
             232.00,16.00 221.00,8.01 221.00,8.01
             221.00,8.01 210.00,6.00 210.00,6.00
             210.00,6.00 218.00,7.00 218.00,7.00
             218.00,7.00 221.00,6.00 221.00,6.00
             221.00,6.00 222.00,3.00 222.00,3.00
             222.00,3.00 225.00,4.00 225.00,4.00
             225.00,4.00 223.00,7.00 223.00,7.00
             223.00,7.00 227.00,8.00 227.00,8.00
             226.70,10.10 230.40,12.00 232.00,13.32
             239.33,19.35 238.79,19.16 247.99,16.82
             250.58,16.16 252.02,16.58 253.00,14.00
             253.00,14.00 257.00,13.00 257.00,13.00
             257.00,13.00 259.00,18.00 259.00,18.00
             259.00,18.00 253.00,19.00 253.00,19.00
             253.00,19.00 244.00,20.00 244.00,20.00
             244.00,20.00 264.00,21.00 264.00,21.00
             264.00,21.00 260.00,18.00 260.00,18.00
             260.00,18.00 269.00,22.36 269.00,22.36
             269.00,22.36 283.00,26.00 283.00,26.00
             283.00,26.00 270.00,25.00 270.00,25.00
             280.68,30.50 278.40,33.73 288.00,28.00
             287.95,32.50 285.86,32.60 282.00,34.00
             285.31,36.87 289.82,41.19 294.00,42.43
             300.42,44.34 307.72,43.11 313.00,48.00
             313.00,48.00 292.00,44.00 292.00,44.00
             294.88,46.88 299.86,52.94 304.00,53.22
             308.07,53.50 312.06,50.13 316.00,49.00
             316.00,49.00 332.00,69.00 332.00,69.00
             332.00,69.00 315.58,53.59 315.58,53.59
             315.58,53.59 304.00,56.00 304.00,56.00
             306.82,59.75 311.63,66.31 316.01,67.97
             321.47,70.04 331.06,69.24 335.89,72.32
             339.19,74.42 340.72,79.49 342.99,83.00
             342.99,83.00 352.10,97.99 352.10,97.99
             353.67,100.32 356.16,102.72 357.08,105.17
             358.23,108.20 358.45,111.84 358.00,115.00
             358.00,115.00 360.00,114.00 360.00,114.00
             360.00,114.00 359.00,117.00 359.00,117.00
             362.22,117.94 361.41,119.56 360.00,122.00
             358.94,118.93 356.42,110.65 353.61,109.19
             351.50,108.09 342.14,109.86 339.00,110.00
             339.00,110.00 346.00,133.00 346.00,133.00
             346.00,133.00 364.00,135.00 364.00,135.00
             363.02,130.13 360.40,125.49 363.00,121.00
             363.00,121.00 362.00,125.00 362.00,125.00
             362.00,125.00 364.00,124.00 364.00,124.00
             364.00,124.00 364.00,128.00 364.00,128.00
             364.00,128.00 364.00,126.00 364.00,126.00
             364.00,126.00 365.00,126.00 365.00,126.00
             365.00,126.00 366.00,135.00 366.00,135.00
             366.00,135.00 367.00,132.00 367.00,132.00
             367.00,132.00 370.00,136.00 370.00,136.00
             370.00,136.00 368.00,142.00 368.00,142.00
             368.00,142.00 367.00,140.00 367.00,140.00
             367.00,140.00 373.00,170.00 373.00,170.00
             373.00,170.00 374.00,167.00 374.00,167.00
             375.63,171.48 376.28,172.52 374.00,177.00
             374.00,177.00 373.00,173.00 373.00,173.00
             373.00,173.00 372.00,205.00 372.00,205.00
             372.00,205.00 376.00,205.00 376.00,205.00
             376.00,205.00 374.00,210.00 374.00,210.00
             374.00,210.00 372.00,208.00 372.00,208.00
             372.00,208.00 369.00,228.00 369.00,228.00
             367.89,233.42 366.01,235.58 370.00,240.00
             370.00,240.00 367.00,245.00 367.00,245.00
             367.00,245.00 365.00,244.00 365.00,244.00
             365.00,244.00 364.00,251.00 364.00,251.00
             364.00,251.00 363.00,249.00 363.00,249.00
             363.00,249.00 364.00,253.00 364.00,253.00
             364.00,253.00 362.00,252.00 362.00,252.00
             362.00,252.00 362.00,256.00 362.00,256.00
             361.22,250.92 362.24,248.71 364.00,244.00
             364.00,244.00 347.42,246.02 347.42,246.02
             347.42,246.02 343.67,253.00 343.67,253.00
             343.67,253.00 338.00,268.00 338.00,268.00
             338.00,268.00 354.00,271.00 354.00,271.00
             354.00,271.00 361.00,255.00 361.00,255.00
             361.38,257.82 362.02,259.11 359.00,260.00
             359.00,260.00 360.00,263.00 360.00,263.00
             360.00,263.00 358.00,262.00 358.00,262.00
             359.16,270.37 355.51,273.82 351.46,280.04
             351.46,280.04 341.59,295.96 341.59,295.96
             339.28,299.29 338.04,303.85 334.89,305.73
             329.68,308.83 317.75,308.94 314.09,310.56
             310.57,312.11 305.56,318.88 303.00,322.00
             303.00,322.00 313.58,324.70 313.58,324.70
             313.58,324.70 320.00,319.99 320.00,319.99
             320.00,319.99 332.00,308.00 332.00,308.00
             332.00,308.00 315.00,329.00 315.00,329.00
             311.06,327.87 307.07,324.50 303.00,324.78
             298.86,325.06 293.88,331.12 291.00,334.00
             291.00,334.00 312.00,331.00 312.00,331.00
             312.00,331.00 292.00,335.89 292.00,335.89
             292.00,335.89 281.00,344.00 281.00,344.00
             281.00,344.00 287.00,346.00 287.00,346.00
             287.00,346.00 286.00,350.00 286.00,350.00
             278.45,344.05 275.54,348.38 269.00,354.00
             269.00,354.00 272.00,355.00 272.00,355.00
             272.00,355.00 260.00,358.00 260.00,358.00
             260.00,358.00 263.00,356.00 263.00,356.00
             263.00,356.00 244.00,359.00 244.00,359.00
             244.00,359.00 256.00,361.00 256.00,361.00
             256.00,361.00 255.00,365.00 255.00,365.00
             255.00,365.00 248.99,361.26 248.99,361.26
             248.99,361.26 238.00,359.69 238.00,359.69
             238.00,359.69 220.00,374.00 220.00,374.00
             218.32,369.93 212.24,372.05 207.00,369.23
             207.00,369.23 220.00,369.23 220.00,369.23
             224.16,368.44 228.96,363.89 232.00,361.00
             232.00,361.00 229.00,361.00 229.00,361.00
             229.00,361.00 232.00,359.00 232.00,359.00
             227.87,359.00 218.40,358.43 215.00,359.98
             208.53,362.94 206.84,369.24 199.00,369.00
             199.00,369.00 199.00,372.00 199.00,372.00
             199.00,372.00 194.00,376.00 194.00,376.00
             194.00,376.00 195.00,372.00 195.00,372.00
             184.63,372.00 182.81,372.36 173.00,368.00
             173.00,368.00 177.00,368.00 177.00,368.00
             172.68,362.97 171.86,359.57 165.00,359.00
             167.47,365.69 169.61,367.63 175.00,372.00
             175.00,372.00 173.00,373.00 173.00,373.00
             173.00,373.00 176.00,375.00 176.00,375.00
             176.00,375.00 169.00,371.30 169.00,371.30
             165.60,370.13 158.33,370.17 157.00,374.00
             157.00,374.00 154.00,373.00 154.00,373.00
             154.00,373.00 154.00,371.00 154.00,371.00
             154.00,371.00 168.00,369.00 168.00,369.00
             162.61,362.02 161.98,357.17 152.00,360.00
             152.00,360.00 156.00,363.00 156.00,363.00
             144.39,357.17 147.46,358.90 135.00,359.00
             135.00,359.00 139.00,362.00 139.00,362.00
             139.00,362.00 141.00,366.00 141.00,366.00
             132.24,361.73 130.90,357.94 122.00,365.00
             122.00,365.00 121.00,361.00 121.00,361.00
             121.00,361.00 130.00,358.00 130.00,358.00
             130.00,358.00 120.00,356.00 120.00,356.00
             120.00,356.00 124.00,355.00 124.00,355.00
             124.00,355.00 120.00,352.00 120.00,352.00
             120.00,352.00 123.00,353.00 123.00,353.00
             118.49,348.49 115.53,344.06 109.00,343.00
             109.00,343.00 119.00,352.00 119.00,352.00
             119.00,352.00 106.00,344.60 106.00,344.60
             106.00,344.60 95.00,346.00 95.00,346.00
             104.75,355.95 112.11,353.24 119.00,356.00
             119.00,356.00 100.00,354.00 100.00,354.00
             100.00,354.00 93.00,347.00 93.00,347.00
             93.00,347.00 91.00,350.00 91.00,350.00
             91.00,350.00 91.00,345.00 91.00,345.00
             86.51,342.80 81.07,340.20 80.00,335.00
             75.40,335.10 68.51,333.00 65.00,330.00
             65.00,330.00 76.00,333.00 76.00,333.00
             76.00,333.00 68.00,326.00 68.00,326.00
             68.00,326.00 72.00,331.00 72.00,331.00
             67.31,328.17 67.36,327.76 62.00,329.00
             62.00,329.00 65.00,325.00 65.00,325.00
             65.00,325.00 49.83,309.51 49.83,309.51
             44.75,305.51 41.58,308.03 38.00,301.00
             38.00,301.00 42.00,300.00 42.00,300.00
             42.00,300.00 29.37,279.43 29.37,279.43
             25.37,275.34 22.55,278.51 20.00,272.00
             20.00,272.00 25.00,270.00 25.00,270.00
             25.00,270.00 15.73,247.14 15.73,247.14
             15.73,247.14 7.00,239.00 7.00,239.00
             7.00,239.00 13.00,239.00 13.00,239.00
             13.00,239.00 8.00,209.00 8.00,209.00
             8.00,209.00 1.00,209.00 1.00,209.00
             1.00,209.00 1.00,205.00 1.00,205.00
             1.00,205.00 7.00,205.00 7.00,205.00
             7.00,205.00 7.00,173.00 7.00,173.00
             7.00,173.00 1.00,174.00 1.00,174.00
             1.00,174.00 1.00,170.00 1.00,170.00
             1.00,170.00 8.00,170.00 8.00,170.00
             8.08,160.98 10.48,148.70 13.00,140.00
             13.00,140.00 7.00,139.00 7.00,139.00
             7.00,139.00 14.92,131.85 14.92,131.85
             14.92,131.85 24.00,108.00 24.00,108.00
             24.00,108.00 19.00,107.00 19.00,107.00
             21.58,100.02 24.25,103.14 28.61,98.72
             28.61,98.72 41.00,79.00 41.00,79.00
             41.00,79.00 37.00,77.00 37.00,77.00
             41.28,69.65 43.50,73.20 48.91,68.70
             48.91,68.70 64.00,53.00 64.00,53.00
             64.00,53.00 61.00,49.00 61.00,49.00
             65.84,51.35 65.79,51.04 71.00,46.00
             71.00,46.00 63.00,47.00 63.00,47.00
             63.00,47.00 78.00,41.00 78.00,41.00
             78.00,41.00 77.00,43.00 77.00,43.00
             81.77,39.24 81.07,36.47 90.00,33.00
             90.00,33.00 89.00,28.00 89.00,28.00
             89.00,28.00 93.00,31.00 93.00,31.00
             93.00,31.00 100.00,26.00 100.00,26.00
             100.00,26.00 98.00,24.00 98.00,24.00
             100.91,23.76 104.84,24.01 106.00,21.00
             111.78,22.40 123.54,22.11 128.00,18.00
             123.42,17.57 122.23,17.40 119.00,14.00
             119.00,14.00 129.58,16.88 129.58,16.88
             129.58,16.88 141.00,12.00 141.00,12.00
             141.00,12.00 139.00,15.00 139.00,15.00
             139.00,15.00 133.00,18.00 133.00,18.00
             133.00,18.00 147.00,18.57 147.00,18.57
             147.00,18.57 156.00,15.00 156.00,15.00
             156.00,15.00 151.00,19.00 151.00,19.00
             161.19,18.99 160.51,18.73 167.00,9.00
             167.00,9.00 152.00,6.00 152.00,6.00
             152.00,6.00 152.00,4.00 152.00,4.00
             152.00,4.00 155.00,3.00 155.00,3.00
             157.82,5.78 164.05,7.70 168.00,6.44
             171.29,5.40 172.09,3.26 176.00,3.00
             176.00,3.00 173.00,4.00 173.00,4.00
             173.00,4.00 174.00,7.00 174.00,7.00
             168.54,9.49 167.17,13.16 164.00,18.00
             171.84,17.72 172.07,14.73 177.00,9.00
             177.00,9.00 172.00,8.00 172.00,8.00
             172.00,8.00 181.00,6.00 181.00,6.00
             181.00,6.00 172.00,18.00 172.00,18.00
             172.00,18.00 191.00,18.00 191.00,18.00
             191.00,18.00 190.00,5.00 190.00,5.00
             190.00,5.00 193.00,18.00 193.00,18.00
             193.00,18.00 200.00,18.00 200.00,18.00
             200.00,18.00 193.00,0.00 193.00,0.00 Z
           M 188.00,1.00
           C 188.00,1.00 189.00,1.00 189.00,1.00
             189.00,1.00 188.00,2.00 188.00,2.00
             188.00,2.00 188.00,1.00 188.00,1.00 Z
           M 176.00,6.00
           C 176.00,6.00 177.00,6.00 177.00,6.00
             177.00,6.00 176.00,7.00 176.00,7.00
             176.00,7.00 176.00,6.00 176.00,6.00 Z
           M 145.00,9.00
           C 146.89,6.89 147.39,7.04 150.00,8.00
             150.00,8.00 145.00,9.00 145.00,9.00 Z
           M 229.00,7.00
           C 229.00,7.00 230.00,7.00 230.00,7.00
             230.00,7.00 229.00,8.00 229.00,8.00
             229.00,8.00 229.00,7.00 229.00,7.00 Z
           M 212.00,18.00
           C 208.52,13.15 206.11,9.99 200.00,9.00
             201.42,18.98 202.80,18.00 212.00,18.00 Z
           M 236.00,8.00
           C 236.00,8.00 241.00,9.00 241.00,9.00
             241.00,9.00 236.00,8.00 236.00,8.00 Z
           M 162.00,10.00
           C 162.00,10.00 163.00,10.00 163.00,10.00
             163.00,10.00 162.00,11.00 162.00,11.00
             162.00,11.00 162.00,10.00 162.00,10.00 Z
           M 160.00,11.00
           C 160.00,11.00 161.00,11.00 161.00,11.00
             161.00,11.00 160.00,12.00 160.00,12.00
             160.00,12.00 160.00,11.00 160.00,11.00 Z
           M 247.00,11.00
           C 247.00,11.00 248.00,11.00 248.00,11.00
             248.00,11.00 247.00,12.00 247.00,12.00
             247.00,12.00 247.00,11.00 247.00,11.00 Z
           M 249.00,12.00
           C 249.00,12.00 250.00,12.00 250.00,12.00
             250.00,12.00 249.00,13.00 249.00,13.00
             249.00,13.00 249.00,12.00 249.00,12.00 Z
           M 225.00,13.00
           C 225.00,13.00 226.00,13.00 226.00,13.00
             226.00,13.00 225.00,14.00 225.00,14.00
             225.00,14.00 225.00,13.00 225.00,13.00 Z
           M 227.00,14.00
           C 227.00,14.00 228.00,14.00 228.00,14.00
             228.00,14.00 227.00,15.00 227.00,15.00
             227.00,15.00 227.00,14.00 227.00,14.00 Z
           M 233.00,16.00
           C 233.00,16.00 232.00,16.00 232.00,16.00
             232.00,16.00 233.00,17.00 233.00,17.00
             233.00,17.00 233.00,16.00 233.00,16.00 Z
           M 169.00,19.00
           C 169.00,19.00 163.00,21.00 163.00,21.00
             163.00,21.00 169.00,19.00 169.00,19.00 Z
           M 192.00,19.00
           C 186.13,19.00 174.57,17.64 170.00,21.00
             170.00,21.00 192.00,21.00 192.00,21.00
             192.00,21.00 192.00,19.00 192.00,19.00 Z
           M 200.00,19.00
           C 200.00,19.00 193.00,19.00 193.00,19.00
             193.00,19.00 193.00,21.00 193.00,21.00
             193.00,21.00 200.00,21.00 200.00,21.00
             200.00,21.00 200.00,19.00 200.00,19.00 Z
           M 215.00,20.00
           C 215.00,20.00 203.00,19.00 203.00,19.00
             203.00,19.00 203.00,21.00 203.00,21.00
             203.00,21.00 215.00,20.00 215.00,20.00 Z
           M 221.00,20.00
           C 221.00,20.00 216.00,21.00 216.00,21.00
             216.00,21.00 221.00,20.00 221.00,20.00 Z
           M 254.00,19.00
           C 254.00,19.00 255.00,19.00 255.00,19.00
             255.00,19.00 254.00,20.00 254.00,20.00
             254.00,20.00 254.00,19.00 254.00,19.00 Z
           M 145.00,21.00
           C 141.66,21.00 131.57,20.65 129.00,21.60
             124.11,23.40 117.45,31.44 115.00,36.00
             115.00,36.00 127.96,36.65 127.96,36.65
             127.96,36.65 135.09,31.01 135.09,31.01
             135.09,31.01 145.00,21.00 145.00,21.00 Z
           M 159.00,22.00
           C 156.16,21.77 151.53,20.83 149.00,21.29
             142.87,22.40 134.84,31.71 132.00,37.00
             136.01,37.53 149.24,39.23 152.35,37.00
             154.78,35.28 158.16,25.13 159.00,22.00 Z
           M 249.00,37.21
           C 247.20,32.29 241.81,23.42 236.99,21.80
             232.70,19.98 222.74,21.62 218.00,21.80
             219.69,25.30 226.23,36.07 229.32,37.21
             232.77,38.94 244.44,37.04 249.00,37.21 Z
           M 278.00,33.00
           C 275.39,29.43 272.12,26.01 268.00,24.14
             264.02,22.33 245.08,21.00 240.00,21.00
             242.70,24.26 254.33,34.85 258.00,35.67
             260.74,36.29 271.25,34.30 275.00,34.00
             275.00,34.00 268.00,27.00 268.00,27.00
             268.00,27.00 278.00,33.00 278.00,33.00 Z
           M 123.00,22.00
           C 113.86,22.08 99.02,23.30 94.00,32.00
             94.00,32.00 106.00,33.40 106.00,33.40
             106.00,33.40 119.00,26.00 119.00,26.00
             114.70,28.21 110.45,30.74 108.00,35.00
             115.45,34.76 118.84,29.81 123.00,24.00
             123.00,24.00 120.00,24.00 120.00,24.00
             120.00,24.00 123.00,22.00 123.00,22.00 Z
           M 125.00,22.00
           C 125.00,22.00 124.00,22.00 124.00,22.00
             124.00,22.00 125.00,23.00 125.00,23.00
             125.00,23.00 125.00,22.00 125.00,22.00 Z
           M 167.00,22.00
           C 165.41,22.13 163.89,22.06 162.50,23.02
             159.28,25.24 157.34,34.23 157.00,38.00
             162.53,36.17 165.48,27.33 167.00,22.00 Z
           M 192.00,22.79
           C 187.63,23.00 173.03,21.34 170.39,22.79
             166.58,24.35 163.62,34.04 163.00,38.00
             163.00,38.00 175.00,37.00 175.00,37.00
             175.00,37.00 193.00,37.00 193.00,37.00
             193.00,37.00 192.00,22.79 192.00,22.79 Z
           M 203.00,37.00
           C 202.78,34.33 201.86,26.37 200.57,24.37
             198.93,21.71 195.69,22.09 194.79,24.37
             193.89,25.91 194.98,34.43 194.79,37.00
             194.79,37.00 203.00,37.00 203.00,37.00 Z
           M 226.00,38.00
           C 224.05,33.62 219.44,24.40 214.91,22.60
             212.77,21.75 206.58,22.00 204.00,22.00
             204.00,22.00 206.00,37.00 206.00,37.00
             206.00,37.00 226.00,38.00 226.00,38.00 Z
           M 124.00,23.00
           C 124.00,23.00 123.00,23.00 123.00,23.00
             123.00,23.00 124.00,24.00 124.00,24.00
             124.00,24.00 124.00,23.00 124.00,23.00 Z
           M 263.00,24.00
           C 263.00,24.00 264.00,24.00 264.00,24.00
             264.00,24.00 263.00,25.00 263.00,25.00
             263.00,25.00 263.00,24.00 263.00,24.00 Z
           M 248.00,29.00
           C 248.00,29.00 247.00,29.00 247.00,29.00
             247.00,29.00 248.00,30.00 248.00,30.00
             248.00,30.00 248.00,29.00 248.00,29.00 Z
           M 249.00,30.00
           C 249.00,30.00 248.00,30.00 248.00,30.00
             248.00,30.00 249.00,31.00 249.00,31.00
             249.00,31.00 249.00,30.00 249.00,30.00 Z
           M 250.00,31.00
           C 249.82,34.24 250.74,34.81 253.00,37.00
             253.00,37.00 254.00,36.00 254.00,36.00
             254.00,36.00 250.00,31.00 250.00,31.00 Z
           M 103.00,35.00
           C 103.00,35.00 92.00,33.47 92.00,33.47
             87.22,34.04 82.64,39.35 80.00,43.00
             84.22,42.66 96.82,41.46 99.86,39.26
             101.76,37.89 102.03,36.94 103.00,35.00 Z
           M 285.00,41.00
           C 277.23,31.17 272.48,36.88 259.00,37.00
             261.65,40.81 264.78,39.91 269.00,40.01
             269.00,40.01 285.00,41.00 285.00,41.00 Z
           M 111.00,37.00
           C 105.87,35.67 103.58,36.17 101.00,41.00
             105.79,39.83 108.08,40.89 111.00,37.00 Z
           M 283.00,36.00
           C 283.00,36.00 282.00,36.00 282.00,36.00
             282.00,36.00 283.00,37.00 283.00,37.00
             283.00,37.00 283.00,36.00 283.00,36.00 Z
           M 124.00,38.00
           C 119.18,37.61 115.04,35.47 112.00,40.00
             112.00,40.00 124.00,38.00 124.00,38.00 Z
           M 284.00,37.00
           C 284.00,37.00 283.00,37.00 283.00,37.00
             283.00,37.00 284.00,38.00 284.00,38.00
             284.00,38.00 284.00,37.00 284.00,37.00 Z
           M 82.00,39.00
           C 82.00,39.00 81.00,39.00 81.00,39.00
             81.00,39.00 82.00,40.00 82.00,40.00
             82.00,40.00 82.00,39.00 82.00,39.00 Z
           M 81.00,40.00
           C 81.00,40.00 80.00,40.00 80.00,40.00
             80.00,40.00 81.00,41.00 81.00,41.00
             81.00,41.00 81.00,40.00 81.00,40.00 Z
           M 126.00,40.00
           C 126.00,40.00 111.18,41.60 111.18,41.60
             106.75,43.45 101.92,53.45 101.00,58.00
             103.70,58.00 110.72,58.28 112.91,57.40
             116.51,55.96 124.31,43.76 126.00,40.00 Z
           M 152.00,40.00
           C 148.02,40.00 132.73,39.57 130.01,40.60
             124.87,42.54 118.28,53.77 117.00,59.00
             117.00,59.00 147.00,60.00 147.00,60.00
             147.00,60.00 152.00,40.00 152.00,40.00 Z
           M 159.00,40.00
           C 159.00,40.00 155.00,40.00 155.00,40.00
             154.09,45.89 149.98,54.47 152.00,60.00
             152.00,60.00 159.00,40.00 159.00,40.00 Z
           M 195.00,60.00
           C 195.00,60.00 192.98,41.60 192.98,41.60
             192.98,41.60 187.00,40.00 187.00,40.00
             187.00,40.00 161.00,40.00 161.00,40.00
             161.00,40.00 155.00,60.00 155.00,60.00
             165.55,60.48 185.26,62.77 195.00,60.00 Z
           M 196.00,40.00
           C 196.01,44.13 196.03,44.89 196.82,49.00
             196.82,49.00 196.82,55.98 196.82,55.98
             197.38,59.43 199.01,61.64 202.86,60.67
             206.69,59.69 205.24,54.87 205.00,52.00
             204.06,40.91 204.01,40.10 196.00,40.00 Z
           M 236.00,60.04
           C 235.05,55.94 230.24,42.26 226.61,40.57
             224.48,39.58 210.34,40.00 207.00,40.00
             207.00,40.00 210.00,61.00 210.00,61.00
             210.00,61.00 220.00,60.04 220.00,60.04
             220.00,60.04 236.00,60.04 236.00,60.04 Z
           M 261.00,59.20
           C 259.38,54.35 255.04,43.43 250.82,41.02
             247.87,39.34 234.15,40.00 230.00,40.00
             231.27,43.46 237.56,58.15 240.39,59.20
             242.61,60.43 246.58,59.40 249.00,59.20
             249.00,59.20 261.00,59.20 261.00,59.20 Z
           M 273.00,58.00
           C 269.03,51.10 263.60,41.69 255.00,41.00
             255.00,41.00 264.39,56.98 264.39,56.98
             264.39,56.98 273.00,58.00 273.00,58.00 Z
           M 299.00,55.00
           C 296.63,51.27 293.00,46.05 289.00,44.02
             286.03,42.51 266.24,41.04 262.00,41.00
             264.11,44.04 272.41,55.20 275.30,56.43
             279.30,58.13 293.88,55.41 299.00,55.00 Z
           M 286.00,41.00
           C 286.00,41.00 285.00,41.00 285.00,41.00
             285.00,41.00 286.00,42.00 286.00,42.00
             286.00,42.00 286.00,41.00 286.00,41.00 Z
           M 107.00,42.00
           C 104.73,42.00 101.07,41.84 99.00,42.60
             94.27,44.34 88.12,51.52 86.00,56.00
             88.55,56.21 93.78,57.19 95.91,56.67
             100.31,55.59 105.45,46.05 107.00,42.00 Z
           M 77.00,43.00
           C 77.00,43.00 76.00,43.00 76.00,43.00
             76.00,43.00 77.00,44.00 77.00,44.00
             77.00,44.00 77.00,43.00 77.00,43.00 Z
           M 95.00,43.00
           C 83.66,43.03 77.10,43.12 70.00,53.00
             83.32,56.53 86.79,54.47 95.00,43.00 Z
           M 75.00,45.00
           C 75.00,45.00 67.00,52.00 67.00,52.00
             67.00,52.00 68.00,53.00 68.00,53.00
             68.00,53.00 75.00,45.00 75.00,45.00 Z
           M 67.00,54.00
           C 59.76,56.13 54.07,63.92 50.00,70.00
             58.20,68.63 63.04,60.81 67.00,54.00 Z
           M 82.00,57.00
           C 79.08,56.61 71.43,54.94 69.04,55.69
             65.01,56.95 59.91,65.29 58.00,69.00
             58.00,69.00 74.54,66.02 74.54,66.02
             74.54,66.02 82.00,57.00 82.00,57.00 Z
           M 307.00,67.00
           C 305.72,63.67 303.42,58.76 299.91,57.31
             297.24,56.20 281.30,58.80 277.00,59.00
             277.00,59.00 281.19,64.83 281.19,64.83
             281.19,64.83 291.00,66.01 291.00,66.01
             291.00,66.01 307.00,67.00 307.00,67.00 Z
           M 96.00,59.00
           C 86.22,56.62 81.31,56.90 77.00,67.00
             77.00,67.00 85.00,66.04 85.00,66.04
             91.91,65.72 93.76,66.51 96.00,59.00 Z
           M 112.00,60.00
           C 101.81,59.78 100.00,56.52 96.00,65.00
             102.50,65.00 109.39,67.04 112.00,60.00 Z
           M 277.00,65.00
           C 274.47,57.86 271.48,59.86 265.00,60.00
             267.79,66.33 270.60,65.00 277.00,65.00 Z
           M 146.00,62.00
           C 146.00,62.00 127.00,61.00 127.00,61.00
             117.45,60.95 116.53,58.51 113.00,64.00
             113.00,64.00 136.00,64.00 136.00,64.00
             140.27,63.99 142.29,64.40 146.00,62.00 Z
           M 263.00,64.00
           C 263.00,64.00 260.58,60.86 260.58,60.86
             260.58,60.86 254.00,60.86 254.00,60.86
             254.00,60.86 240.00,60.86 240.00,60.86
             240.00,60.86 242.29,63.41 242.29,63.41
             242.29,63.41 263.00,64.00 263.00,64.00 Z
           M 177.00,62.00
           C 177.00,62.00 155.00,63.00 155.00,63.00
             155.00,63.00 177.00,62.00 177.00,62.00 Z
           M 206.00,62.00
           C 206.00,62.00 200.00,63.00 200.00,63.00
             200.00,63.00 206.00,62.00 206.00,62.00 Z
           M 237.00,62.00
           C 237.00,62.00 210.00,63.00 210.00,63.00
             210.00,63.00 237.00,64.00 237.00,64.00
             237.00,64.00 237.00,62.00 237.00,62.00 Z
           M 309.00,64.00
           C 309.00,64.00 308.00,64.00 308.00,64.00
             308.00,64.00 309.00,65.00 309.00,65.00
             309.00,65.00 309.00,64.00 309.00,64.00 Z
           M 144.00,65.00
           C 136.45,66.35 130.57,66.00 123.00,66.00
             120.26,66.00 114.61,65.60 112.39,67.02
             109.00,69.19 104.94,79.99 104.00,84.04
             104.00,84.04 117.00,84.04 117.00,84.04
             117.00,84.04 127.00,85.00 127.00,85.00
             129.78,85.03 138.45,85.48 140.42,83.98
             143.33,81.75 144.70,68.48 144.00,65.00 Z
           M 195.04,65.00
           C 195.04,65.00 160.00,65.00 160.00,65.00
             158.33,65.04 155.98,64.96 154.58,66.02
             151.95,68.03 150.16,81.44 150.00,85.00
             150.00,85.00 165.00,86.00 165.00,86.00
             165.00,86.00 183.00,86.00 183.00,86.00
             185.71,86.00 193.29,86.68 195.04,84.40
             196.10,82.80 195.33,79.85 195.04,78.00
             195.04,78.00 195.04,65.00 195.04,65.00 Z
           M 199.00,86.00
           C 201.27,85.99 205.45,86.38 207.07,84.40
             208.52,82.41 207.39,78.35 207.07,76.00
             206.29,66.80 208.68,65.04 198.00,65.00
             198.00,65.00 199.00,86.00 199.00,86.00 Z
           M 239.00,66.00
           C 239.00,66.00 211.00,65.00 211.00,65.00
             211.00,68.14 211.47,82.48 213.02,84.40
             214.85,86.67 219.43,85.26 222.00,85.04
             222.00,85.04 244.00,85.04 244.00,85.04
             244.00,85.04 239.00,66.00 239.00,66.00 Z
           M 151.00,66.00
           C 151.00,66.00 149.00,66.00 149.00,66.00
             149.00,66.00 149.00,74.00 149.00,74.00
             149.00,74.00 151.00,66.00 151.00,66.00 Z
           M 270.00,84.00
           C 269.44,80.41 266.34,69.02 263.49,67.02
             261.08,65.33 245.83,66.00 242.00,66.00
             242.00,66.00 247.84,83.40 247.84,83.40
             247.84,83.40 251.05,84.84 251.05,84.84
             251.05,84.84 270.00,84.00 270.00,84.00 Z
           M 109.00,67.00
           C 106.34,67.00 98.25,66.70 96.22,67.60
             92.40,69.29 89.62,79.08 89.00,82.85
             91.23,83.00 98.18,83.42 99.79,82.85
             102.73,81.37 107.39,70.37 109.00,67.00 Z
           M 287.00,83.17
           C 285.81,78.83 281.94,69.33 277.82,67.60
             275.84,66.77 270.36,67.00 268.00,67.00
             269.09,70.25 272.49,82.18 275.42,83.17
             275.42,83.17 287.00,83.17 287.00,83.17 Z
           M 283.00,67.00
           C 283.00,67.00 290.00,83.00 290.00,83.00
             290.00,83.00 315.00,81.00 315.00,81.00
             314.00,77.51 311.92,71.99 308.67,70.02
             306.60,68.77 303.40,69.07 301.00,68.83
             295.11,68.26 288.71,68.39 283.00,67.00 Z
           M 311.00,67.00
           C 311.00,67.00 310.00,67.00 310.00,67.00
             310.00,67.00 311.00,68.00 311.00,68.00
             311.00,68.00 311.00,67.00 311.00,67.00 Z
           M 92.00,68.00
           C 87.57,68.00 78.09,67.49 74.52,69.95
             71.78,71.84 68.49,77.96 67.00,81.00
             67.00,81.00 85.00,83.00 85.00,83.00
             85.00,83.00 92.00,68.00 92.00,68.00 Z
           M 72.00,69.00
           C 62.70,69.43 55.27,68.77 52.00,79.00
             54.46,79.44 61.70,80.89 63.82,80.23
             67.37,79.13 70.74,72.29 72.00,69.00 Z
           M 313.00,70.00
           C 313.00,70.00 312.00,70.00 312.00,70.00
             312.00,70.00 313.00,71.00 313.00,71.00
             313.00,71.00 313.00,70.00 313.00,70.00 Z
           M 336.00,77.00
           C 335.48,75.70 335.47,74.94 334.28,73.90
             331.87,71.79 318.68,70.30 315.00,70.00
             322.19,82.49 324.03,78.69 336.00,77.00 Z
           M 54.00,71.00
           C 48.69,71.89 46.63,72.61 45.00,78.00
             50.71,77.53 51.90,76.30 54.00,71.00 Z
           M 314.00,71.00
           C 313.51,75.28 316.03,78.62 320.00,80.00
             320.00,80.00 314.00,71.00 314.00,71.00 Z
           M 46.00,73.00
           C 46.00,73.00 39.00,74.00 39.00,74.00
             39.00,74.00 44.00,77.00 44.00,77.00
             44.00,77.00 46.00,73.00 46.00,73.00 Z
           M 351.00,101.00
           C 351.00,101.00 342.80,85.00 342.80,85.00
             342.80,85.00 336.91,79.06 336.91,79.06
             336.91,79.06 323.00,81.00 323.00,81.00
             323.00,81.00 333.39,97.99 333.39,97.99
             333.39,97.99 351.00,101.00 351.00,101.00 Z
           M 48.00,80.15
           C 46.40,79.92 44.71,79.65 43.18,80.15
             39.34,81.97 31.87,95.81 30.00,100.00
             32.28,99.99 35.65,100.23 37.61,98.98
             40.50,97.14 46.96,83.64 48.00,80.15 Z
           M 63.00,81.82
           C 60.43,81.98 52.77,81.05 51.18,81.82
             47.05,83.17 42.19,94.81 41.00,99.00
             43.82,98.97 53.30,98.47 55.37,97.01
             58.16,95.04 62.30,85.43 63.00,81.82 Z
           M 323.00,98.00
           C 322.35,94.53 318.90,84.78 315.73,83.08
             314.09,82.37 310.86,82.86 309.00,83.08
             309.00,83.08 292.00,84.00 292.00,84.00
             292.57,87.65 294.08,93.86 297.39,95.98
             299.65,97.42 305.22,96.97 308.00,97.00
             308.00,97.00 323.00,98.00 323.00,98.00 Z
           M 322.00,82.00
           C 322.00,82.00 319.00,82.00 319.00,82.00
             320.78,88.23 323.79,96.25 330.00,99.00
             330.00,99.00 322.00,82.00 322.00,82.00 Z
           M 84.00,83.79
           C 84.00,83.79 66.39,83.79 66.39,83.79
             63.34,84.97 59.41,94.73 58.00,98.00
             58.00,98.00 73.00,97.00 73.00,97.00
             74.99,96.99 77.81,97.14 79.50,95.98
             82.51,93.91 83.69,87.41 84.00,83.79 Z
           M 100.00,85.00
           C 88.63,85.00 86.00,83.04 84.00,96.00
             95.45,96.00 96.71,97.19 100.00,85.00 Z
           M 293.00,96.00
           C 289.89,82.77 286.71,85.00 275.00,85.00
             275.36,87.58 276.02,92.50 277.85,94.40
             280.17,96.81 289.55,96.00 293.00,96.00 Z
           M 141.00,86.96
           C 141.00,86.96 129.00,86.96 129.00,86.96
             129.00,86.96 117.00,86.00 117.00,86.00
             113.97,86.00 105.69,85.51 103.42,87.02
             100.62,88.88 100.27,92.98 100.00,96.00
             100.00,96.00 110.00,95.02 110.00,95.02
             110.00,95.02 127.00,95.02 127.00,95.02
             127.00,95.02 138.44,93.98 138.44,93.98
             138.44,93.98 141.00,86.96 141.00,86.96 Z
           M 273.00,96.00
           C 272.87,93.27 272.70,88.81 270.30,87.00
             267.26,84.69 252.11,86.46 248.00,87.00
             248.00,87.00 250.00,95.00 250.00,95.00
             250.00,95.00 273.00,96.00 273.00,96.00 Z
           M 196.00,87.96
           C 196.00,87.96 181.00,87.96 181.00,87.96
             181.00,87.96 170.00,87.00 170.00,87.00
             170.00,87.00 149.00,87.00 149.00,87.00
             149.00,87.00 149.00,95.00 149.00,95.00
             149.00,95.00 196.00,94.00 196.00,94.00
             196.00,94.00 196.00,87.96 196.00,87.96 Z
           M 208.00,94.00
           C 207.95,92.58 208.04,90.61 207.40,89.31
             206.15,86.76 201.80,86.36 200.02,88.60
             198.91,90.00 199.06,92.32 199.00,94.00
             199.00,94.00 208.00,94.00 208.00,94.00 Z
           M 247.00,95.00
           C 247.00,95.00 244.28,87.99 244.28,87.99
             244.28,87.99 238.00,87.00 238.00,87.00
             238.00,87.00 213.00,87.00 213.00,87.00
             213.00,87.00 213.00,94.00 213.00,94.00
             213.00,94.00 232.00,95.00 232.00,95.00
             232.00,95.00 247.00,95.00 247.00,95.00 Z
           M 139.00,97.00
           C 139.00,97.00 122.00,97.00 122.00,97.00
             122.00,97.00 107.00,98.00 107.00,98.00
             107.00,98.00 98.72,98.99 98.72,98.99
             98.72,98.99 94.00,111.00 94.00,111.00
             102.01,113.28 114.88,111.22 124.00,112.20
             126.83,112.80 134.11,113.79 136.40,112.20
             138.64,110.21 138.97,99.97 139.00,97.00 Z
           M 196.00,97.00
           C 196.00,97.00 147.00,97.00 147.00,97.00
             147.00,97.00 145.00,113.00 145.00,113.00
             145.00,113.00 196.00,113.00 196.00,113.00
             196.00,113.00 196.00,97.00 196.00,97.00 Z
           M 209.00,97.00
           C 209.00,97.00 200.00,97.00 200.00,97.00
             200.00,97.00 200.00,113.00 200.00,113.00
             200.00,113.00 209.00,113.00 209.00,113.00
             209.00,113.00 209.00,97.00 209.00,97.00 Z
           M 251.00,112.00
           C 251.00,112.00 247.15,98.60 247.15,98.60
             247.15,98.60 241.00,97.00 241.00,97.00
             241.00,97.00 214.00,97.00 214.00,97.00
             214.00,97.00 215.02,111.40 215.02,111.40
             215.02,111.40 221.00,113.00 221.00,113.00
             221.00,113.00 251.00,112.00 251.00,112.00 Z
           M 277.00,112.00
           C 277.00,112.00 274.07,99.60 274.07,99.60
             274.07,99.60 267.00,97.96 267.00,97.96
             267.00,97.96 251.00,97.00 251.00,97.00
             251.00,97.00 254.00,112.00 254.00,112.00
             254.00,112.00 277.00,112.00 277.00,112.00 Z
           M 95.00,98.00
           C 95.00,98.00 82.00,99.00 82.00,99.00
             82.00,99.00 79.00,111.00 79.00,111.00
             79.00,111.00 90.44,109.98 90.44,109.98
             90.44,109.98 95.00,98.00 95.00,98.00 Z
           M 299.00,111.00
           C 298.09,108.26 296.29,101.60 294.30,99.82
             291.44,97.27 281.94,98.00 278.00,98.00
             278.00,98.00 281.93,110.36 281.93,110.36
             281.93,110.36 299.00,111.00 299.00,111.00 Z
           M 79.00,99.00
           C 74.35,99.00 59.87,98.68 56.65,101.60
             54.84,103.23 53.79,106.73 53.00,109.00
             59.84,110.66 61.77,109.59 68.00,110.07
             70.21,110.37 73.50,111.32 75.44,110.07
             77.89,108.25 78.75,101.82 79.00,99.00 Z
           M 328.00,109.00
           C 328.00,109.00 323.61,101.02 323.61,101.02
             323.61,101.02 316.00,99.91 316.00,99.91
             316.00,99.91 298.00,99.00 298.00,99.00
             298.50,101.79 300.03,108.36 302.51,109.98
             304.39,111.15 307.82,110.23 310.00,109.98
             310.00,109.98 319.00,109.98 319.00,109.98
             319.00,109.98 328.00,109.00 328.00,109.00 Z
           M 54.00,100.00
           C 54.00,100.00 47.00,100.83 47.00,100.83
             40.03,101.55 39.60,100.86 37.00,108.00
             47.77,108.49 51.10,112.34 54.00,100.00 Z
           M 335.00,108.00
           C 333.58,103.26 333.03,101.86 328.00,101.00
             328.00,101.00 330.00,109.00 330.00,109.00
             330.00,109.00 335.00,108.00 335.00,108.00 Z
           M 353.00,106.00
           C 349.95,101.42 339.30,101.43 334.00,101.00
             338.12,110.38 338.42,107.93 353.00,106.00 Z
           M 37.00,102.00
           C 32.08,102.11 29.99,101.76 27.00,106.00
             27.00,106.00 35.00,108.00 35.00,108.00
             35.00,108.00 37.00,102.00 37.00,102.00 Z
           M 27.00,103.00
           C 27.00,103.00 22.00,105.00 22.00,105.00
             22.00,105.00 26.00,106.00 26.00,106.00
             26.00,106.00 27.00,103.00 27.00,103.00 Z
           M 34.00,109.79
           C 34.00,109.79 26.41,109.79 26.41,109.79
             26.41,109.79 22.28,116.00 22.28,116.00
             22.28,116.00 16.00,134.00 16.00,134.00
             16.00,134.00 25.52,132.83 25.52,132.83
             25.52,132.83 28.72,126.00 28.72,126.00
             28.72,126.00 34.00,109.79 34.00,109.79 Z
           M 357.00,109.00
           C 357.00,109.00 356.00,109.00 356.00,109.00
             356.00,109.00 357.00,110.00 357.00,110.00
             357.00,110.00 357.00,109.00 357.00,109.00 Z
           M 49.00,110.79
           C 49.00,110.79 37.41,110.79 37.41,110.79
             37.41,110.79 33.81,116.00 33.81,116.00
             33.81,116.00 29.00,133.00 29.00,133.00
             31.84,133.00 39.36,133.47 41.49,131.98
             44.24,130.05 48.42,114.76 49.00,110.79 Z
           M 336.00,110.00
           C 336.00,110.00 331.00,111.00 331.00,111.00
             331.00,111.00 335.71,126.00 335.71,126.00
             335.71,126.00 338.56,131.98 338.56,131.98
             338.56,131.98 344.00,133.00 344.00,133.00
             344.00,133.00 336.00,110.00 336.00,110.00 Z
           M 75.00,113.00
           C 75.00,113.00 52.00,111.00 52.00,111.00
             52.00,111.00 45.00,132.00 45.00,132.00
             45.00,132.00 71.00,132.00 71.00,132.00
             71.00,132.00 75.00,113.00 75.00,113.00 Z
           M 329.00,111.00
           C 329.00,111.00 319.00,111.91 319.00,111.91
             319.00,111.91 303.00,113.00 303.00,113.00
             303.50,116.26 306.21,129.12 308.53,130.83
             310.47,132.25 314.64,132.00 317.00,132.00
             317.00,132.00 334.00,132.00 334.00,132.00
             334.00,132.00 329.00,111.00 329.00,111.00 Z
           M 358.00,111.00
           C 358.00,111.00 357.00,111.00 357.00,111.00
             357.00,111.00 358.00,112.00 358.00,112.00
             358.00,112.00 358.00,111.00 358.00,111.00 Z
           M 90.00,113.00
           C 87.49,113.00 81.49,112.60 79.56,114.02
             76.81,116.05 75.29,127.48 75.00,131.00
             77.47,131.00 83.54,131.40 85.42,129.98
             87.70,128.24 89.74,116.15 90.00,113.00 Z
           M 300.00,113.00
           C 300.00,113.00 282.00,114.00 282.00,114.00
             282.00,114.00 285.00,131.00 285.00,131.00
             285.00,131.00 304.00,131.00 304.00,131.00
             304.00,131.00 300.00,113.00 300.00,113.00 Z
           M 137.00,115.00
           C 137.00,115.00 119.00,114.00 119.00,114.00
             119.00,114.00 93.00,114.00 93.00,114.00
             93.00,114.00 90.00,131.00 90.00,131.00
             90.00,131.00 136.00,130.00 136.00,130.00
             136.00,130.00 137.00,115.00 137.00,115.00 Z
           M 278.00,114.00
           C 278.00,114.00 255.00,114.00 255.00,114.00
             255.00,114.00 257.00,130.00 257.00,130.00
             265.24,130.07 272.79,132.33 281.00,130.00
             281.00,130.00 278.00,114.00 278.00,114.00 Z
           M 197.00,130.00
           C 197.00,130.00 197.00,122.00 197.00,122.00
             196.87,115.16 195.43,115.04 189.00,115.00
             189.00,115.00 145.00,115.00 145.00,115.00
             145.00,115.00 143.00,130.00 143.00,130.00
             143.00,130.00 197.00,130.00 197.00,130.00 Z
           M 210.00,130.00
           C 210.00,126.92 210.82,117.93 208.40,116.02
             206.73,114.70 202.14,115.00 200.00,115.00
             200.00,115.00 201.00,130.00 201.00,130.00
             201.00,130.00 210.00,130.00 210.00,130.00 Z
           M 253.00,130.00
           C 252.97,126.91 252.71,117.95 250.26,115.99
             248.71,114.74 244.95,115.00 243.00,115.00
             243.00,115.00 215.00,115.00 215.00,115.00
             215.00,115.00 215.00,130.00 215.00,130.00
             215.00,130.00 253.00,130.00 253.00,130.00 Z
           M 197.00,142.00
           C 197.00,139.55 197.48,134.67 195.40,133.02
             193.42,131.46 183.90,132.00 181.00,132.04
             181.00,132.04 170.00,132.04 170.00,132.04
             170.00,132.04 160.00,133.00 160.00,133.00
             160.00,133.00 143.00,133.00 143.00,133.00
             143.00,133.00 142.00,142.00 142.00,142.00
             142.00,142.00 197.00,142.00 197.00,142.00 Z
           M 211.00,142.00
           C 210.81,139.74 210.53,135.35 209.02,133.60
             207.16,131.44 202.89,131.68 201.60,134.31
             200.83,135.88 201.00,140.13 201.00,142.00
             201.00,142.00 211.00,142.00 211.00,142.00 Z
           M 135.00,133.00
           C 135.00,133.00 96.00,133.00 96.00,133.00
             89.41,133.13 88.60,134.59 88.00,141.00
             88.00,141.00 135.00,142.00 135.00,142.00
             135.00,142.00 135.00,133.00 135.00,133.00 Z
           M 254.00,133.00
           C 254.00,133.00 216.00,133.00 216.00,133.00
             216.00,133.00 216.00,142.00 216.00,142.00
             216.00,142.00 255.00,142.00 255.00,142.00
             255.00,142.00 254.00,133.00 254.00,133.00 Z
           M 281.00,133.00
           C 281.00,133.00 258.00,133.00 258.00,133.00
             258.00,133.00 259.17,140.43 259.17,140.43
             259.17,140.43 267.00,142.00 267.00,142.00
             267.00,142.00 282.00,142.00 282.00,142.00
             282.00,142.00 281.00,133.00 281.00,133.00 Z
           M 306.00,141.00
           C 305.50,132.65 303.04,134.27 296.00,133.96
             296.00,133.96 286.00,133.00 286.00,133.00
             286.00,133.00 286.00,141.00 286.00,141.00
             286.00,141.00 306.00,141.00 306.00,141.00 Z
           M 71.00,134.04
           C 71.00,134.04 55.00,134.04 55.00,134.04
             55.00,134.04 44.00,135.00 44.00,135.00
             44.00,135.00 44.00,140.00 44.00,140.00
             44.00,140.00 70.00,141.00 70.00,141.00
             70.00,141.00 71.00,134.04 71.00,134.04 Z
           M 85.00,134.00
           C 85.00,134.00 74.00,134.00 74.00,134.00
             74.00,134.00 73.00,141.00 73.00,141.00
             83.00,141.00 84.72,141.87 85.00,134.00 Z
           M 336.00,140.00
           C 334.93,133.90 332.30,135.35 327.00,134.72
             327.00,134.72 308.00,134.00 308.00,134.00
             308.00,134.00 310.58,139.98 310.58,139.98
             310.58,139.98 319.00,140.72 319.00,140.72
             319.00,140.72 336.00,140.00 336.00,140.00 Z
           M 42.00,135.00
           C 37.09,135.00 30.11,133.59 28.00,139.00
             28.00,139.00 41.00,140.00 41.00,140.00
             41.00,140.00 42.00,135.00 42.00,135.00 Z
           M 345.00,135.00
           C 345.00,135.00 338.00,135.00 338.00,135.00
             338.00,135.00 339.00,140.00 339.00,140.00
             339.00,140.00 346.00,139.00 346.00,139.00
             346.00,139.00 345.00,135.00 345.00,135.00 Z
           M 26.00,136.00
           C 21.45,136.00 18.95,135.45 15.00,138.00
             19.67,138.38 23.11,140.31 26.00,136.00 Z
           M 364.00,137.00
           C 364.00,137.00 347.00,136.00 347.00,136.00
             350.61,140.81 359.02,139.04 364.00,137.00 Z
           M 24.00,141.00
           C 24.00,141.00 14.00,140.00 14.00,140.00
             14.00,140.00 9.00,170.00 9.00,170.00
             9.00,170.00 19.26,169.01 19.26,169.01
             19.26,169.01 21.28,161.00 21.28,161.00
             21.28,161.00 24.00,141.00 24.00,141.00 Z
           M 366.00,140.00
           C 366.00,140.00 349.00,141.00 349.00,141.00
             349.00,141.00 352.13,161.00 352.13,161.00
             352.13,161.00 354.59,168.98 354.59,168.98
             354.59,168.98 371.00,170.00 371.00,170.00
             371.00,170.00 366.00,140.00 366.00,140.00 Z
           M 40.00,142.02
           C 40.00,142.02 27.73,142.02 27.73,142.02
             27.73,142.02 25.08,150.00 25.08,150.00
             25.08,150.00 23.00,170.00 23.00,170.00
             23.00,170.00 36.00,169.00 36.00,169.00
             36.00,169.00 40.00,142.02 40.00,142.02 Z
           M 69.00,143.00
           C 69.00,143.00 52.00,142.28 52.00,142.28
             52.00,142.28 43.73,142.99 43.73,142.99
             43.73,142.99 41.20,150.00 41.20,150.00
             41.20,150.00 39.00,169.00 39.00,169.00
             39.00,169.00 67.00,169.00 67.00,169.00
             67.00,169.00 69.00,143.00 69.00,143.00 Z
           M 337.00,142.00
           C 337.00,142.00 310.00,143.00 310.00,143.00
             310.00,143.00 313.00,169.00 313.00,169.00
             313.00,169.00 340.00,169.00 340.00,169.00
             340.00,169.00 337.00,142.00 337.00,142.00 Z
           M 347.00,142.00
           C 347.00,142.00 340.00,142.00 340.00,142.00
             340.00,142.00 343.00,169.00 343.00,169.00
             343.00,169.00 351.00,169.00 351.00,169.00
             351.00,169.00 347.00,142.00 347.00,142.00 Z
           M 84.00,144.00
           C 81.41,143.26 76.07,142.11 73.74,144.00
             71.97,145.42 72.00,148.89 71.72,151.00
             71.72,151.00 70.00,169.00 70.00,169.00
             70.00,169.00 81.00,169.00 81.00,169.00
             81.00,169.00 84.00,144.00 84.00,144.00 Z
           M 307.00,143.00
           C 307.00,143.00 287.00,144.00 287.00,144.00
             287.00,144.00 289.00,169.00 289.00,169.00
             289.00,169.00 310.00,169.00 310.00,169.00
             310.00,169.00 307.00,143.00 307.00,143.00 Z
           M 135.00,145.00
           C 135.00,145.00 117.00,144.00 117.00,144.00
             117.00,144.00 87.00,144.00 87.00,144.00
             87.00,144.00 85.00,169.00 85.00,169.00
             85.00,169.00 112.00,169.00 112.00,169.00
             112.00,169.00 134.00,168.00 134.00,168.00
             134.00,168.00 135.00,145.00 135.00,145.00 Z
           M 197.00,145.00
           C 197.00,145.00 182.00,145.00 182.00,145.00
             182.00,145.00 166.00,144.00 166.00,144.00
             166.00,144.00 142.00,144.00 142.00,144.00
             142.00,144.00 141.04,156.00 141.04,156.00
             141.04,156.00 141.04,168.00 141.04,168.00
             141.04,168.00 197.00,168.00 197.00,168.00
             197.00,168.00 197.00,145.00 197.00,145.00 Z
           M 211.00,168.00
           C 211.00,168.00 211.00,151.00 211.00,151.00
             210.96,149.07 211.10,146.35 209.40,145.02
             206.91,143.07 202.21,144.15 201.15,147.23
             201.15,147.23 201.15,168.00 201.15,168.00
             201.15,168.00 211.00,168.00 211.00,168.00 Z
           M 255.00,144.00
           C 255.00,144.00 224.00,144.00 224.00,144.00
             224.00,144.00 217.02,145.60 217.02,145.60
             217.02,145.60 216.00,153.00 216.00,153.00
             216.00,153.00 216.00,168.00 216.00,168.00
             216.00,168.00 257.00,168.00 257.00,168.00
             257.00,168.00 255.00,144.00 255.00,144.00 Z
           M 283.00,144.00
           C 283.00,144.00 259.00,144.00 259.00,144.00
             259.00,144.00 260.29,162.00 260.29,162.00
             260.29,162.00 262.58,167.98 262.58,167.98
             262.58,167.98 270.00,169.00 270.00,169.00
             270.00,169.00 284.00,169.00 284.00,169.00
             284.00,169.00 283.00,144.00 283.00,144.00 Z
           M 372.00,157.00
           C 372.00,157.00 372.00,162.00 372.00,162.00
             372.00,162.00 372.00,157.00 372.00,157.00 Z
           M 80.00,171.00
           C 80.00,171.00 71.00,172.00 71.00,172.00
             71.00,172.00 80.00,171.00 80.00,171.00 Z
           M 133.00,171.00
           C 133.00,171.00 101.00,171.00 101.00,171.00
             101.00,171.00 85.00,172.00 85.00,172.00
             85.00,172.00 103.00,173.00 103.00,173.00
             103.00,173.00 133.00,173.00 133.00,173.00
             133.00,173.00 133.00,171.00 133.00,171.00 Z
           M 197.00,171.00
           C 197.00,171.00 141.00,171.00 141.00,171.00
             141.00,171.00 141.00,173.00 141.00,173.00
             141.00,173.00 197.00,173.00 197.00,173.00
             197.00,173.00 197.00,171.00 197.00,171.00 Z
           M 211.00,171.00
           C 211.00,171.00 202.00,171.00 202.00,171.00
             202.00,171.00 202.00,173.00 202.00,173.00
             202.00,173.00 211.00,173.00 211.00,173.00
             211.00,173.00 211.00,171.00 211.00,171.00 Z
           M 257.00,171.00
           C 257.00,171.00 217.00,171.00 217.00,171.00
             217.00,171.00 217.00,173.00 217.00,173.00
             217.00,173.00 257.00,173.00 257.00,173.00
             257.00,173.00 257.00,171.00 257.00,171.00 Z
           M 284.00,171.00
           C 284.00,171.00 261.00,171.00 261.00,171.00
             261.00,171.00 261.00,173.00 261.00,173.00
             267.52,173.00 278.49,174.20 284.00,171.00 Z
           M 307.00,171.00
           C 307.00,171.00 290.00,172.00 290.00,172.00
             290.00,172.00 307.00,171.00 307.00,171.00 Z
           M 371.00,173.00
           C 371.00,173.00 354.00,174.00 354.00,174.00
             354.00,174.00 354.00,205.00 354.00,205.00
             354.00,205.00 371.00,205.00 371.00,205.00
             371.00,205.00 372.00,193.00 372.00,193.00
             372.00,193.00 371.00,173.00 371.00,173.00 Z
           M 20.00,174.00
           C 20.00,174.00 9.60,175.02 9.60,175.02
             9.60,175.02 8.00,183.00 8.00,183.00
             8.00,183.00 9.00,205.00 9.00,205.00
             9.00,205.00 20.00,205.00 20.00,205.00
             20.00,205.00 20.00,174.00 20.00,174.00 Z
           M 36.00,174.00
           C 36.00,174.00 22.00,174.00 22.00,174.00
             22.00,174.00 22.00,198.00 22.00,198.00
             22.00,198.00 23.60,203.99 23.60,203.99
             23.60,203.99 36.00,203.99 36.00,203.99
             35.01,191.76 34.35,186.52 36.00,174.00 Z
           M 66.00,174.00
           C 66.00,174.00 38.00,174.00 38.00,174.00
             38.00,174.00 38.00,204.00 38.00,204.00
             38.00,204.00 67.00,203.00 67.00,203.00
             67.00,203.00 66.00,174.00 66.00,174.00 Z
           M 81.00,175.03
           C 81.00,175.03 71.60,175.03 71.60,175.03
             71.60,175.03 70.00,183.00 70.00,183.00
             70.00,183.00 70.00,204.00 70.00,204.00
             70.00,204.00 81.00,204.00 81.00,204.00
             81.00,204.00 80.09,187.00 80.09,187.00
             80.09,187.00 81.00,175.03 81.00,175.03 Z
           M 289.00,204.00
           C 289.00,204.00 304.00,204.00 304.00,204.00
             304.00,204.00 309.83,202.43 309.83,202.43
             309.83,202.43 311.00,196.00 311.00,196.00
             311.00,196.00 309.98,175.60 309.98,175.60
             309.98,175.60 304.00,174.17 304.00,174.17
             304.00,174.17 289.00,175.00 289.00,175.00
             289.00,175.00 289.00,204.00 289.00,204.00 Z
           M 341.00,174.00
           C 341.00,174.00 314.00,174.00 314.00,174.00
             314.00,174.00 314.00,204.00 314.00,204.00
             314.00,204.00 341.00,204.00 341.00,204.00
             341.00,204.00 341.00,174.00 341.00,174.00 Z
           M 351.00,205.00
           C 351.00,205.00 352.00,182.00 352.00,182.00
             352.00,182.00 350.98,175.60 350.98,175.60
             350.98,175.60 344.00,174.00 344.00,174.00
             344.00,174.00 344.00,204.00 344.00,204.00
             344.00,204.00 351.00,205.00 351.00,205.00 Z
           M 133.00,175.00
           C 133.00,175.00 84.00,175.00 84.00,175.00
             84.00,175.00 84.00,196.00 84.00,196.00
             84.02,198.52 83.63,202.08 86.31,203.40
             88.18,204.32 97.38,204.00 100.00,204.00
             100.00,204.00 133.00,204.00 133.00,204.00
             133.00,204.00 133.00,175.00 133.00,175.00 Z
           M 197.00,175.00
           C 197.00,175.00 141.00,175.00 141.00,175.00
             141.00,175.00 141.00,204.00 141.00,204.00
             141.00,204.00 169.00,204.00 169.00,204.00
             169.00,204.00 181.00,203.04 181.00,203.04
             181.00,203.04 197.00,203.04 197.00,203.04
             197.00,203.04 197.00,175.00 197.00,175.00 Z
           M 211.00,175.00
           C 208.55,175.00 203.67,174.52 202.02,176.60
             200.36,178.70 200.95,193.53 201.00,197.00
             201.03,198.59 200.93,200.95 201.99,202.26
             203.85,204.56 209.03,204.48 210.40,201.69
             211.13,200.21 211.00,196.71 211.00,195.00
             211.00,195.00 211.00,187.00 211.00,187.00
             211.00,187.00 211.00,175.00 211.00,175.00 Z
           M 257.00,175.00
           C 257.00,175.00 217.00,175.00 217.00,175.00
             217.00,175.00 217.00,197.00 217.00,197.00
             217.05,199.35 216.85,202.19 219.31,203.40
             221.11,204.28 228.61,204.00 231.00,204.00
             231.00,204.00 257.00,204.00 257.00,204.00
             257.00,204.00 257.00,175.00 257.00,175.00 Z
           M 285.00,175.00
           C 285.00,175.00 261.00,175.00 261.00,175.00
             261.00,175.00 261.00,204.00 261.00,204.00
             261.00,204.00 278.00,204.00 278.00,204.00
             278.00,204.00 283.40,202.98 283.40,202.98
             283.40,202.98 285.00,195.00 285.00,195.00
             285.00,195.00 285.00,175.00 285.00,175.00 Z
           M 374.00,179.00
           C 375.57,182.96 375.57,194.04 374.00,198.00
             374.00,198.00 374.00,179.00 374.00,179.00 Z
           M 67.00,208.00
           C 64.22,204.90 56.66,205.55 53.00,207.00
             53.00,207.00 67.00,208.00 67.00,208.00 Z
           M 81.00,206.00
           C 81.00,206.00 70.00,207.00 70.00,207.00
             70.00,207.00 81.00,206.00 81.00,206.00 Z
           M 133.00,206.00
           C 133.00,206.00 101.00,206.00 101.00,206.00
             101.00,206.00 85.00,207.00 85.00,207.00
             85.00,207.00 106.00,208.00 106.00,208.00
             106.00,208.00 133.00,208.00 133.00,208.00
             133.00,208.00 133.00,206.00 133.00,206.00 Z
           M 197.00,206.00
           C 197.00,206.00 141.00,206.00 141.00,206.00
             141.00,206.00 141.00,208.00 141.00,208.00
             141.00,208.00 197.00,208.00 197.00,208.00
             197.00,208.00 197.00,206.00 197.00,206.00 Z
           M 211.00,206.00
           C 211.00,206.00 201.00,207.00 201.00,207.00
             201.00,207.00 211.00,208.00 211.00,208.00
             211.00,208.00 211.00,206.00 211.00,206.00 Z
           M 257.00,206.00
           C 257.00,206.00 230.00,206.00 230.00,206.00
             230.00,206.00 216.00,207.00 216.00,207.00
             222.50,208.85 240.30,208.01 248.00,208.00
             251.97,207.99 253.69,208.44 257.00,206.00 Z
           M 284.00,206.00
           C 284.00,206.00 261.00,206.00 261.00,206.00
             261.00,206.00 261.00,208.00 261.00,208.00
             267.99,208.00 277.61,208.73 284.00,206.00 Z
           M 310.00,206.00
           C 310.00,206.00 289.00,207.00 289.00,207.00
             289.00,207.00 310.00,206.00 310.00,206.00 Z
           M 324.00,206.00
           C 324.00,206.00 314.00,207.00 314.00,207.00
             314.00,207.00 324.00,206.00 324.00,206.00 Z
           M 25.00,236.99
           C 25.00,236.99 21.43,217.00 21.43,217.00
             21.43,217.00 19.40,210.02 19.40,210.02
             19.40,210.02 9.00,209.00 9.00,209.00
             9.00,209.00 12.35,229.00 12.35,229.00
             12.90,231.43 13.37,235.46 15.51,236.99
             17.97,238.73 22.32,237.65 25.00,236.99 Z
           M 36.00,209.00
           C 36.00,209.00 23.00,209.00 23.00,209.00
             23.00,209.00 27.00,237.00 27.00,237.00
             27.00,237.00 40.00,237.00 40.00,237.00
             40.00,237.00 36.00,209.00 36.00,209.00 Z
           M 67.00,210.00
           C 67.00,210.00 40.00,209.00 40.00,209.00
             37.94,216.49 41.54,228.25 43.00,236.00
             43.00,236.00 70.00,235.00 70.00,235.00
             70.00,235.00 67.00,210.00 67.00,210.00 Z
           M 340.00,209.00
           C 340.00,209.00 313.00,210.00 313.00,210.00
             313.00,210.00 311.06,227.00 311.06,227.00
             311.06,227.00 311.06,234.26 311.06,234.26
             311.06,234.26 319.00,236.00 319.00,236.00
             319.00,236.00 337.00,236.00 337.00,236.00
             337.00,236.00 340.00,209.00 340.00,209.00 Z
           M 351.00,209.00
           C 351.00,209.00 344.59,210.02 344.59,210.02
             344.59,210.02 342.15,218.00 342.15,218.00
             342.15,218.00 339.00,236.00 339.00,236.00
             339.00,236.00 345.28,236.00 345.28,236.00
             345.28,236.00 348.00,229.00 348.00,229.00
             348.00,229.00 351.00,209.00 351.00,209.00 Z
           M 371.00,209.00
           C 371.00,209.00 353.00,209.00 353.00,209.00
             353.00,209.00 348.00,237.00 348.00,237.00
             348.00,237.00 365.00,239.00 365.00,239.00
             365.00,239.00 371.00,209.00 371.00,209.00 Z
           M 81.00,210.00
           C 81.00,210.00 70.00,210.00 70.00,210.00
             70.00,210.00 73.00,235.00 73.00,235.00
             73.00,235.00 84.00,235.00 84.00,235.00
             84.00,235.00 81.00,210.00 81.00,210.00 Z
           M 135.00,234.00
           C 133.93,225.86 134.05,226.08 134.00,218.00
             133.98,215.48 134.37,211.92 131.69,210.60
             129.82,209.68 120.62,210.00 118.00,210.00
             118.00,210.00 85.00,210.00 85.00,210.00
             85.00,210.00 86.58,228.00 86.58,228.00
             86.58,228.00 88.60,233.98 88.60,233.98
             88.60,233.98 94.00,235.00 94.00,235.00
             94.00,235.00 115.00,234.00 115.00,234.00
             115.00,234.00 135.00,234.00 135.00,234.00 Z
           M 197.00,210.00
           C 197.00,210.00 141.00,210.00 141.00,210.00
             141.00,210.00 142.00,234.00 142.00,234.00
             142.00,234.00 197.00,234.00 197.00,234.00
             197.00,234.00 197.00,210.00 197.00,210.00 Z
           M 201.00,234.00
           C 203.14,234.00 207.73,234.30 209.40,232.98
             211.10,231.63 210.96,228.95 211.00,227.00
             211.05,224.08 211.52,213.54 209.98,211.60
             208.99,210.35 201.20,206.66 201.00,217.00
             201.00,217.00 201.00,234.00 201.00,234.00 Z
           M 255.00,234.00
           C 255.00,234.00 256.07,219.00 256.07,219.00
             256.07,219.00 256.07,211.60 256.07,211.60
             256.07,211.60 250.00,210.00 250.00,210.00
             250.00,210.00 224.00,210.00 224.00,210.00
             224.00,210.00 217.02,211.60 217.02,211.60
             217.02,211.60 216.00,219.00 216.00,219.00
             216.00,219.00 216.00,234.00 216.00,234.00
             216.00,234.00 255.00,234.00 255.00,234.00 Z
           M 284.00,210.00
           C 284.00,210.00 261.00,210.00 261.00,210.00
             261.00,210.00 259.00,234.00 259.00,234.00
             259.00,234.00 275.00,234.98 275.00,234.98
             275.00,234.98 281.26,234.01 281.26,234.01
             281.26,234.01 283.08,227.00 283.08,227.00
             283.08,227.00 284.00,210.00 284.00,210.00 Z
           M 310.00,210.00
           C 310.00,210.00 289.00,210.00 289.00,210.00
             289.00,210.00 287.00,235.00 287.00,235.00
             287.00,235.00 307.00,235.00 307.00,235.00
             307.00,235.00 310.00,210.00 310.00,210.00 Z
           M 372.00,215.00
           C 372.00,215.00 372.00,220.00 372.00,220.00
             372.00,220.00 372.00,215.00 372.00,215.00 Z
           M 135.00,236.00
           C 135.00,236.00 88.00,237.00 88.00,237.00
             88.00,237.00 89.00,245.00 89.00,245.00
             89.00,245.00 109.00,246.00 109.00,246.00
             109.00,246.00 135.00,246.00 135.00,246.00
             135.00,246.00 135.00,236.00 135.00,236.00 Z
           M 197.00,236.00
           C 197.00,236.00 142.00,236.00 142.00,236.00
             142.00,236.00 143.00,246.00 143.00,246.00
             143.00,246.00 197.00,246.00 197.00,246.00
             197.00,246.00 197.00,236.00 197.00,236.00 Z
           M 211.00,237.00
           C 211.00,237.00 201.00,236.00 201.00,236.00
             201.00,236.00 201.00,246.00 201.00,246.00
             201.00,246.00 210.00,246.00 210.00,246.00
             210.00,246.00 211.00,237.00 211.00,237.00 Z
           M 255.00,237.00
           C 248.23,235.08 224.53,236.00 216.00,236.00
             216.00,236.00 215.00,246.00 215.00,246.00
             215.00,246.00 242.00,246.00 242.00,246.00
             242.00,246.00 252.41,244.98 252.41,244.98
             252.41,244.98 255.00,237.00 255.00,237.00 Z
           M 282.00,237.00
           C 282.00,237.00 266.00,236.42 266.00,236.42
             263.81,236.15 260.60,235.60 259.02,237.60
             257.70,239.27 258.00,243.86 258.00,245.96
             258.00,245.96 272.00,245.96 272.00,245.96
             272.00,245.96 281.00,245.00 281.00,245.00
             281.00,245.00 282.00,237.00 282.00,237.00 Z
           M 70.00,237.00
           C 70.00,237.00 44.00,238.00 44.00,238.00
             44.00,238.00 45.74,243.01 45.74,243.01
             45.74,243.01 55.00,244.00 55.00,244.00
             55.00,244.00 71.00,245.00 71.00,245.00
             71.00,245.00 70.00,237.00 70.00,237.00 Z
           M 86.00,245.00
           C 84.72,236.20 81.29,235.65 73.00,238.00
             75.14,245.59 74.90,245.00 86.00,245.00 Z
           M 306.00,237.00
           C 306.00,237.00 286.00,237.00 286.00,237.00
             286.00,237.00 285.00,245.00 285.00,245.00
             285.00,245.00 305.00,245.00 305.00,245.00
             305.00,245.00 306.00,237.00 306.00,237.00 Z
           M 336.00,239.00
           C 336.00,239.00 309.00,238.00 309.00,238.00
             309.00,238.00 308.00,245.00 308.00,245.00
             308.00,245.00 319.00,244.04 319.00,244.04
             319.00,244.04 335.00,244.04 335.00,244.04
             335.00,244.04 336.00,239.00 336.00,239.00 Z
           M 42.00,244.00
           C 40.76,236.95 33.93,239.00 28.00,239.00
             28.00,239.00 29.59,241.98 29.59,241.98
             29.59,241.98 42.00,244.00 42.00,244.00 Z
           M 345.00,239.00
           C 340.21,239.17 338.88,238.97 338.00,244.00
             338.00,244.00 345.00,243.00 345.00,243.00
             345.00,243.00 345.00,239.00 345.00,239.00 Z
           M 364.00,241.00
           C 364.00,241.00 348.59,240.11 348.59,240.11
             348.59,240.11 347.00,243.00 347.00,243.00
             347.00,243.00 364.00,241.00 364.00,241.00 Z
           M 26.00,240.00
           C 26.00,240.00 16.00,240.00 16.00,240.00
             16.00,240.00 16.00,242.00 16.00,242.00
             16.00,242.00 26.00,243.00 26.00,243.00
             26.00,243.00 26.00,240.00 26.00,240.00 Z
           M 14.00,241.00
           C 14.00,241.00 13.00,241.00 13.00,241.00
             13.00,241.00 14.00,242.00 14.00,242.00
             14.00,242.00 14.00,241.00 14.00,241.00 Z
           M 18.00,244.00
           C 16.10,249.78 23.61,264.03 26.00,270.00
             26.00,270.00 34.00,269.00 34.00,269.00
             34.00,269.00 29.34,253.00 29.34,253.00
             29.34,253.00 26.28,245.99 26.28,245.99
             26.28,245.99 18.00,244.00 18.00,244.00 Z
           M 31.00,245.00
           C 28.75,251.17 34.50,261.60 36.00,268.00
             36.00,268.00 50.00,267.00 50.00,267.00
             50.00,267.00 42.30,246.99 42.30,246.99
             42.30,246.99 31.00,245.00 31.00,245.00 Z
           M 76.00,266.04
           C 76.00,266.04 71.15,248.60 71.15,248.60
             71.15,248.60 63.00,247.00 63.00,247.00
             63.00,247.00 46.00,246.00 46.00,246.00
             46.00,246.00 52.00,267.00 52.00,267.00
             52.00,267.00 63.00,266.04 63.00,266.04
             63.00,266.04 76.00,266.04 76.00,266.04 Z
           M 334.00,246.00
           C 334.00,246.00 322.00,246.96 322.00,246.96
             322.00,246.96 307.00,246.96 307.00,246.96
             307.00,246.96 302.00,265.00 302.00,265.00
             306.17,266.18 315.00,266.36 320.00,266.83
             322.12,267.03 325.69,267.24 327.49,265.98
             330.64,263.77 333.43,250.06 334.00,246.00 Z
           M 343.00,246.00
           C 343.00,246.00 337.00,246.00 337.00,246.00
             337.00,246.00 331.00,268.00 331.00,268.00
             332.54,267.88 334.01,267.97 335.35,267.01
             338.55,264.72 342.63,250.15 343.00,246.00 Z
           M 87.00,248.00
           C 87.00,248.00 75.00,248.00 75.00,248.00
             75.67,251.58 77.19,262.83 80.43,264.43
             82.12,265.27 88.78,265.00 91.00,265.00
             91.00,265.00 87.00,248.00 87.00,248.00 Z
           M 304.00,247.00
           C 301.43,247.02 287.10,247.91 285.73,248.99
             283.37,250.87 282.26,261.79 282.00,265.00
             285.30,265.00 296.20,265.60 298.49,263.98
             301.18,262.07 303.51,250.48 304.00,247.00 Z
           M 137.00,264.00
           C 136.99,260.86 136.87,250.96 134.40,249.02
             132.49,247.52 124.67,248.00 122.00,248.00
             122.00,248.00 90.00,248.00 90.00,248.00
             90.44,251.13 92.44,262.25 94.72,264.00
             96.79,265.59 105.75,264.02 109.00,264.00
             109.00,264.00 137.00,264.00 137.00,264.00 Z
           M 253.00,248.00
           C 253.00,248.00 235.00,249.00 235.00,249.00
             235.00,249.00 215.00,249.00 215.00,249.00
             215.00,249.00 215.00,263.00 215.00,263.00
             215.00,263.00 251.00,264.00 251.00,264.00
             251.00,264.00 253.00,248.00 253.00,248.00 Z
           M 280.00,248.00
           C 280.00,248.00 257.00,248.00 257.00,248.00
             257.00,248.00 255.00,264.00 255.00,264.00
             255.00,264.00 277.00,265.00 277.00,265.00
             277.00,265.00 280.00,248.00 280.00,248.00 Z
           M 197.00,249.00
           C 197.00,249.00 143.00,249.00 143.00,249.00
             143.00,249.00 145.00,263.00 145.00,263.00
             145.00,263.00 190.00,263.00 190.00,263.00
             197.96,262.85 197.00,261.14 197.00,249.00 Z
           M 210.00,249.00
           C 210.00,249.00 201.00,249.00 201.00,249.00
             201.00,249.00 200.00,263.00 200.00,263.00
             200.00,263.00 210.00,263.00 210.00,263.00
             210.00,263.00 210.00,249.00 210.00,249.00 Z
           M 196.00,265.00
           C 196.00,265.00 164.00,265.00 164.00,265.00
             164.00,265.00 145.00,266.00 145.00,266.00
             145.00,266.00 148.60,280.98 148.60,280.98
             148.60,280.98 162.00,282.00 162.00,282.00
             162.00,282.00 196.00,282.00 196.00,282.00
             196.00,282.00 196.00,265.00 196.00,265.00 Z
           M 209.00,265.00
           C 209.00,265.00 200.00,265.00 200.00,265.00
             200.00,265.00 200.00,282.00 200.00,282.00
             201.99,281.99 205.81,282.24 207.40,280.98
             209.88,279.02 209.00,268.29 209.00,265.00 Z
           M 250.00,266.00
           C 250.00,266.00 222.00,265.00 222.00,265.00
             222.00,265.00 215.02,266.60 215.02,266.60
             215.02,266.60 213.00,281.00 213.00,281.00
             218.76,282.64 228.73,282.07 235.00,282.00
             237.98,281.96 245.02,281.71 247.07,279.41
             249.07,277.15 249.86,269.09 250.00,266.00 Z
           M 358.00,265.00
           C 358.00,265.00 357.00,265.00 357.00,265.00
             357.00,265.00 358.00,266.00 358.00,266.00
             358.00,266.00 358.00,265.00 358.00,265.00 Z
           M 138.00,266.00
           C 138.00,266.00 109.00,266.00 109.00,266.00
             109.00,266.00 95.00,267.00 95.00,267.00
             95.48,270.15 97.06,278.13 99.65,280.01
             101.37,281.25 104.92,281.00 107.00,281.00
             117.74,281.02 128.34,280.59 139.00,282.00
             139.00,282.00 138.00,266.00 138.00,266.00 Z
           M 277.00,267.00
           C 277.00,267.00 260.00,266.00 260.00,266.00
             260.00,266.00 254.16,267.57 254.16,267.57
             254.16,267.57 251.00,281.00 251.00,281.00
             251.00,281.00 274.00,281.00 274.00,281.00
             274.00,281.00 277.00,267.00 277.00,267.00 Z
           M 92.00,267.00
           C 92.00,267.00 80.00,267.00 80.00,267.00
             80.28,270.13 81.37,277.92 84.43,279.43
             86.12,280.27 92.78,280.00 95.00,280.00
             95.00,280.00 92.00,267.00 92.00,267.00 Z
           M 298.00,267.00
           C 298.00,267.00 281.00,267.00 281.00,267.00
             281.00,267.00 278.00,280.00 278.00,280.00
             281.13,280.00 291.15,280.58 293.35,279.01
             296.08,277.06 297.51,270.20 298.00,267.00 Z
           M 357.00,267.00
           C 357.00,267.00 356.00,267.00 356.00,267.00
             356.00,267.00 357.00,268.00 357.00,268.00
             357.00,268.00 357.00,267.00 357.00,267.00 Z
           M 77.00,268.04
           C 77.00,268.04 63.00,268.04 63.00,268.04
             63.00,268.04 54.00,269.00 54.00,269.00
             54.58,272.11 55.51,276.14 58.39,277.98
             60.57,279.38 65.37,278.97 68.00,279.00
             68.00,279.00 80.00,280.00 80.00,280.00
             80.00,280.00 77.00,268.04 77.00,268.04 Z
           M 327.00,269.00
           C 327.00,269.00 308.00,268.00 308.00,268.00
             308.00,268.00 301.70,268.99 301.70,268.99
             301.70,268.99 297.00,280.00 297.00,280.00
             297.00,280.00 312.00,279.00 312.00,279.00
             312.00,279.00 323.50,277.02 323.50,277.02
             323.50,277.02 327.00,269.00 327.00,269.00 Z
           M 55.00,278.00
           C 55.00,278.00 50.59,270.03 50.59,270.03
             50.59,270.03 38.00,270.03 38.00,270.03
             39.84,279.55 46.87,278.00 55.00,278.00 Z
           M 356.00,269.00
           C 356.00,269.00 355.00,269.00 355.00,269.00
             355.00,269.00 356.00,270.00 356.00,270.00
             356.00,270.00 356.00,269.00 356.00,269.00 Z
           M 334.00,270.00
           C 328.56,270.93 328.21,272.93 327.00,278.00
             332.40,277.08 333.02,275.13 334.00,270.00 Z
           M 353.00,273.00
           C 353.00,273.00 337.00,270.00 337.00,270.00
             337.00,270.00 334.00,277.00 334.00,277.00
             340.00,276.98 348.29,277.00 353.00,273.00 Z
           M 38.00,277.00
           C 36.04,270.57 34.18,270.51 28.00,272.00
             29.97,276.90 33.15,276.36 38.00,277.00 Z
           M 27.00,275.00
           C 25.15,272.54 24.73,272.66 22.00,274.00
             22.00,274.00 27.00,275.00 27.00,275.00 Z
           M 350.00,277.00
           C 350.00,277.00 333.21,280.02 333.21,280.02
             333.21,280.02 322.00,297.00 322.00,297.00
             322.00,297.00 338.00,300.00 338.00,300.00
             341.85,293.12 348.46,284.58 350.00,277.00 Z
           M 49.00,298.00
           C 49.00,298.00 38.61,279.93 38.61,279.93
             38.61,279.93 31.00,278.00 31.00,278.00
             31.00,278.00 43.00,299.00 43.00,299.00
             43.00,299.00 49.00,298.00 49.00,298.00 Z
           M 64.00,296.00
           C 62.91,292.25 58.36,282.34 54.79,280.74
             54.79,280.74 42.00,279.00 42.00,279.00
             42.83,283.43 47.54,295.49 52.21,296.69
             52.21,296.69 64.00,296.00 64.00,296.00 Z
           M 330.00,280.00
           C 322.97,281.20 320.54,290.11 318.00,296.00
             324.42,293.93 327.49,285.79 330.00,280.00 Z
           M 85.00,293.99
           C 84.33,291.08 82.83,284.76 80.35,282.99
             78.75,281.85 75.93,282.03 74.00,281.83
             74.00,281.83 59.00,281.00 59.00,281.00
             59.00,281.00 66.39,293.99 66.39,293.99
             66.39,293.99 85.00,293.99 85.00,293.99 Z
           M 323.00,281.00
           C 323.00,281.00 303.00,281.83 303.00,281.83
             303.00,281.83 295.65,283.60 295.65,283.60
             295.65,283.60 291.00,294.00 291.00,294.00
             291.00,294.00 308.00,295.08 308.00,295.08
             308.00,295.08 315.45,295.08 315.45,295.08
             315.45,295.08 323.00,281.00 323.00,281.00 Z
           M 100.00,293.00
           C 97.96,281.74 94.37,282.03 84.00,282.00
             86.82,294.36 88.56,293.00 100.00,293.00 Z
           M 293.00,282.00
           C 289.75,282.01 279.17,282.19 277.14,284.57
             275.52,286.47 275.20,290.59 275.00,293.00
             275.00,293.00 287.61,291.98 287.61,291.98
             287.61,291.98 293.00,282.00 293.00,282.00 Z
           M 140.00,283.96
           C 140.00,283.96 127.00,283.96 127.00,283.96
             127.00,283.96 116.00,283.00 116.00,283.00
             116.00,283.00 100.00,283.00 100.00,283.00
             100.65,285.77 101.71,290.39 104.39,291.93
             105.99,292.78 113.56,292.00 116.00,291.93
             116.00,291.93 129.00,291.93 129.00,291.93
             129.00,291.93 141.00,291.00 141.00,291.00
             141.00,291.00 140.00,283.96 140.00,283.96 Z
           M 273.00,283.00
           C 268.32,283.00 253.90,282.15 250.70,284.90
             248.70,286.62 248.38,289.57 248.00,292.00
             248.00,292.00 271.00,292.00 271.00,292.00
             271.00,292.00 273.00,283.00 273.00,283.00 Z
           M 196.00,284.00
           C 196.00,284.00 148.00,284.00 148.00,284.00
             148.00,284.00 149.00,291.00 149.00,291.00
             149.00,291.00 189.00,291.00 189.00,291.00
             195.19,290.88 195.79,290.05 196.00,284.00 Z
           M 208.00,284.00
           C 201.09,284.03 199.26,283.50 199.00,291.00
             199.00,291.00 208.00,291.00 208.00,291.00
             208.00,291.00 208.00,284.00 208.00,284.00 Z
           M 246.00,284.00
           C 246.00,284.00 213.00,284.00 213.00,284.00
             213.00,284.00 213.00,291.00 213.00,291.00
             213.00,291.00 245.00,291.00 245.00,291.00
             245.00,291.00 246.00,284.00 246.00,284.00 Z
           M 194.99,313.00
           C 194.99,313.00 194.99,300.00 194.99,300.00
             195.20,298.25 195.89,295.07 194.99,293.60
             193.35,291.34 185.63,291.97 183.00,292.00
             183.00,292.00 170.00,293.00 170.00,293.00
             170.00,293.00 150.00,293.00 150.00,293.00
             150.28,296.42 152.35,310.12 154.73,312.01
             156.31,313.26 160.03,313.00 162.00,313.00
             162.00,313.00 194.99,313.00 194.99,313.00 Z
           M 145.00,312.96
           C 144.84,309.53 142.99,295.91 140.44,294.02
             138.69,292.73 134.18,292.96 132.00,293.01
             132.00,293.01 122.00,293.98 122.00,293.98
             122.00,293.98 105.00,293.98 105.00,293.98
             105.43,298.06 109.30,308.68 112.63,311.01
             114.76,312.49 121.26,311.97 124.00,312.00
             124.00,312.00 134.00,312.96 134.00,312.96
             134.00,312.96 145.00,312.96 145.00,312.96 Z
           M 208.00,293.00
           C 208.00,293.00 199.00,293.00 199.00,293.00
             199.00,293.00 198.00,313.00 198.00,313.00
             198.00,313.00 206.00,313.00 206.00,313.00
             206.00,313.00 208.00,293.00 208.00,293.00 Z
           M 244.00,293.00
           C 244.00,293.00 212.00,293.00 212.00,293.00
             212.00,293.00 210.00,313.00 210.00,313.00
             210.00,313.00 230.00,313.00 230.00,313.00
             232.06,313.00 235.62,313.26 237.30,312.01
             240.07,309.95 243.43,296.70 244.00,293.00 Z
           M 270.00,295.00
           C 270.00,295.00 248.00,293.00 248.00,293.00
             248.00,293.00 241.00,313.00 241.00,313.00
             241.00,313.00 257.00,312.00 257.00,312.00
             257.00,312.00 263.30,311.01 263.30,311.01
             263.30,311.01 270.00,295.00 270.00,295.00 Z
           M 109.00,312.00
           C 108.30,308.56 103.71,297.02 100.61,295.57
             98.77,294.71 91.42,295.00 89.00,295.00
             89.82,298.51 93.15,308.90 96.39,310.43
             96.39,310.43 109.00,312.00 109.00,312.00 Z
           M 287.00,295.00
           C 287.00,295.00 273.00,295.00 273.00,295.00
             273.00,295.00 268.00,312.00 268.00,312.00
             268.00,312.00 278.39,310.01 278.39,310.01
             278.39,310.01 287.00,295.00 287.00,295.00 Z
           M 93.00,311.00
           C 91.67,307.91 88.11,298.63 85.61,297.01
             82.28,294.88 72.31,296.91 68.00,297.01
             69.38,300.60 72.77,307.04 76.18,308.98
             77.68,309.83 90.31,310.78 93.00,311.00 Z
           M 314.00,298.00
           C 309.86,296.99 292.84,294.82 289.61,296.99
             287.24,298.58 282.41,308.07 281.00,311.00
             285.83,310.96 305.52,309.84 308.67,307.40
             311.55,305.18 313.02,301.35 314.00,298.00 Z
           M 73.00,309.00
           C 66.24,295.15 64.00,298.03 52.00,299.00
             57.09,309.35 62.39,308.97 73.00,309.00 Z
           M 319.00,298.00
           C 319.00,298.00 317.00,298.00 317.00,298.00
             317.00,298.00 313.00,306.00 313.00,306.00
             313.00,306.00 319.00,298.00 319.00,298.00 Z
           M 335.00,302.00
           C 325.27,297.93 319.33,296.88 315.00,308.00
             321.28,307.71 329.22,306.42 335.00,304.00
             335.00,304.00 335.00,302.00 335.00,302.00 Z
           M 55.00,307.00
           C 52.47,301.91 51.83,300.48 46.00,300.00
             47.61,305.36 49.61,306.38 55.00,307.00 Z
           M 47.00,306.00
           C 44.93,302.08 44.25,301.70 40.00,303.00
             40.00,303.00 47.00,306.00 47.00,306.00 Z
           M 149.00,303.00
           C 147.55,306.96 148.42,309.78 151.00,313.00
             151.00,313.00 149.00,303.00 149.00,303.00 Z
           M 337.00,303.00
           C 337.00,303.00 336.00,303.00 336.00,303.00
             336.00,303.00 337.00,304.00 337.00,304.00
             337.00,304.00 337.00,303.00 337.00,303.00 Z
           M 52.00,308.00
           C 52.00,308.00 51.00,308.00 51.00,308.00
             51.00,308.00 52.00,309.00 52.00,309.00
             52.00,309.00 52.00,308.00 52.00,308.00 Z
           M 68.00,324.00
           C 68.00,324.00 56.70,310.02 56.70,310.02
             56.70,310.02 52.00,309.00 52.00,309.00
             55.49,314.98 61.19,322.00 68.00,324.00 Z
           M 83.00,321.00
           C 75.38,310.02 71.80,310.04 59.00,310.00
             61.24,313.55 65.98,321.08 70.01,322.31
             72.46,323.06 80.04,321.39 83.00,321.00 Z
           M 307.00,311.00
           C 307.00,311.00 287.00,312.28 287.00,312.28
             287.00,312.28 279.53,313.99 279.53,313.99
             279.53,313.99 276.00,319.00 276.00,319.00
             280.97,319.23 296.47,322.24 299.91,320.23
             302.81,318.54 305.37,313.90 307.00,311.00 Z
           M 310.00,311.00
           C 310.00,311.00 309.00,311.00 309.00,311.00
             309.00,311.00 310.00,312.00 310.00,312.00
             310.00,312.00 310.00,311.00 310.00,311.00 Z
           M 97.00,319.00
           C 93.37,310.04 86.24,312.00 78.00,312.00
             83.35,321.15 87.23,321.38 97.00,319.00 Z
           M 309.00,312.00
           C 309.00,312.00 308.00,312.00 308.00,312.00
             308.00,312.00 309.00,313.00 309.00,313.00
             309.00,313.00 309.00,312.00 309.00,312.00 Z
           M 113.00,318.00
           C 109.52,311.66 103.35,313.00 97.00,313.00
             100.05,321.65 105.35,318.17 113.00,318.00 Z
           M 277.00,313.00
           C 271.47,313.02 267.31,312.12 265.00,318.00
             271.79,318.29 273.30,319.63 277.00,313.00 Z
           M 146.00,315.00
           C 146.00,315.00 128.00,314.00 128.00,314.00
             128.00,314.00 114.00,314.00 114.00,314.00
             115.14,316.02 115.49,317.09 118.06,317.60
             118.06,317.60 128.00,317.00 128.00,317.00
             134.04,316.93 140.48,317.82 146.00,315.00 Z
           M 263.00,314.00
           C 257.19,314.00 243.60,312.36 240.00,317.15
             240.00,317.15 252.00,317.15 252.00,317.15
             252.00,317.15 259.78,317.15 259.78,317.15
             259.78,317.15 263.00,314.00 263.00,314.00 Z
           M 237.00,315.00
           C 237.00,315.00 219.00,316.00 219.00,316.00
             223.72,316.00 233.17,317.11 237.00,315.00 Z
           M 195.00,318.00
           C 184.89,315.13 166.84,317.97 156.00,318.00
             156.37,322.11 159.48,335.65 163.27,337.22
             167.18,339.20 179.38,337.24 184.00,337.22
             186.21,336.94 190.68,337.34 192.40,335.98
             194.10,334.63 193.96,331.95 194.00,330.00
             194.10,324.61 193.66,323.51 195.00,318.00 Z
           M 206.00,318.00
           C 195.88,315.16 197.54,320.05 196.85,327.00
             196.42,329.45 195.31,334.19 196.85,336.26
             197.72,337.15 198.87,337.59 199.99,337.63
             203.64,337.75 203.77,334.72 204.15,332.00
             204.15,332.00 204.84,327.00 204.84,327.00
             204.84,327.00 206.00,318.00 206.00,318.00 Z
           M 236.00,318.00
           C 236.00,318.00 211.00,317.00 211.00,317.00
             208.46,322.47 207.50,331.85 207.00,338.00
             210.85,338.00 223.94,338.68 226.61,336.98
             229.86,334.90 234.59,322.03 236.00,318.00 Z
           M 147.00,318.00
           C 147.00,318.00 117.00,319.00 117.00,319.00
             118.68,323.39 125.94,335.66 130.17,337.40
             132.66,338.43 148.21,338.00 152.00,338.00
             152.00,338.00 147.00,318.00 147.00,318.00 Z
           M 152.00,318.00
           C 150.82,321.56 153.43,333.59 155.93,336.41
             157.01,337.63 157.66,337.53 159.00,338.00
             159.00,338.00 152.00,318.00 152.00,318.00 Z
           M 260.00,318.96
           C 260.00,318.96 247.00,318.96 247.00,318.96
             247.00,318.96 239.39,318.96 239.39,318.96
             239.39,318.96 229.00,338.00 229.00,338.00
             232.59,338.00 247.46,338.40 249.79,337.40
             254.27,335.48 259.13,323.66 260.00,318.96 Z
           M 127.00,338.00
           C 125.17,334.54 117.02,321.94 113.82,320.80
             110.63,319.27 104.25,320.08 101.00,320.80
             102.81,324.76 107.71,334.00 111.18,335.98
             111.18,335.98 127.00,338.00 127.00,338.00 Z
           M 272.00,320.00
           C 270.10,320.00 266.01,319.82 264.39,320.57
             261.49,321.92 256.04,333.72 255.00,337.00
             262.70,335.75 268.62,326.57 272.00,320.00 Z
           M 108.00,336.00
           C 106.19,332.28 100.86,322.32 96.82,321.31
             94.85,320.81 89.42,321.80 87.00,322.00
             89.12,326.48 95.27,333.66 100.00,335.40
             102.07,336.16 105.73,336.00 108.00,336.00 Z
           M 298.00,323.00
           C 292.35,322.74 279.59,319.85 275.04,321.60
             271.42,322.99 263.47,333.51 261.00,337.00
             265.38,336.99 284.86,335.56 288.00,333.98
             292.13,331.89 295.71,326.92 298.00,323.00 Z
           M 96.00,335.00
           C 87.79,323.53 84.32,321.47 71.00,325.00
             78.24,335.08 84.49,334.99 96.00,335.00 Z
           M 104.00,343.00
           C 103.03,341.06 102.76,340.11 100.86,338.74
             97.82,336.54 85.22,335.34 81.00,335.00
             83.54,338.46 88.52,343.93 93.00,344.52
             93.00,344.52 104.00,343.00 104.00,343.00 Z
           M 81.00,336.00
           C 81.00,336.00 80.00,336.00 80.00,336.00
             80.00,336.00 81.00,337.00 81.00,337.00
             81.00,337.00 81.00,336.00 81.00,336.00 Z
           M 109.00,336.00
           C 109.00,336.00 108.00,336.00 108.00,336.00
             108.00,336.00 109.00,337.00 109.00,337.00
             109.00,337.00 109.00,336.00 109.00,336.00 Z
           M 82.00,337.00
           C 82.00,337.00 81.00,337.00 81.00,337.00
             81.00,337.00 82.00,338.00 82.00,338.00
             82.00,338.00 82.00,337.00 82.00,337.00 Z
           M 103.00,337.00
           C 103.08,342.01 108.34,341.77 112.00,341.00
             112.00,341.00 103.00,337.00 103.00,337.00 Z
           M 284.00,337.00
           C 284.00,337.00 269.00,337.96 269.00,337.96
             264.60,338.16 260.96,337.20 258.00,341.00
             272.62,341.04 275.97,346.59 284.00,337.00 Z
           M 124.00,339.00
           C 124.00,339.00 113.00,338.00 113.00,338.00
             115.81,342.18 119.97,340.86 124.00,339.00 Z
           M 284.00,339.00
           C 284.00,339.00 283.00,339.00 283.00,339.00
             283.00,339.00 284.00,340.00 284.00,340.00
             284.00,340.00 284.00,339.00 284.00,339.00 Z
           M 160.00,356.14
           C 158.85,353.29 154.92,343.11 153.30,341.60
             150.28,338.76 137.00,340.03 133.00,341.00
             135.32,345.90 143.56,355.02 149.00,356.14
             149.00,356.14 160.00,356.14 160.00,356.14 Z
           M 168.00,356.00
           C 168.00,356.00 160.51,341.59 160.51,341.59
             160.51,341.59 157.00,340.00 157.00,340.00
             157.61,343.96 159.74,352.78 163.27,354.98
             164.78,355.92 166.32,355.86 168.00,356.00 Z
           M 193.00,341.00
           C 193.00,341.00 163.00,340.00 163.00,340.00
             163.82,343.50 166.70,351.96 169.63,354.01
             171.42,355.25 174.87,355.00 177.00,355.00
             177.00,355.00 192.00,355.00 192.00,355.00
             192.00,355.00 193.00,341.00 193.00,341.00 Z
           M 225.00,340.00
           C 225.00,340.00 206.00,341.00 206.00,341.00
             206.00,341.00 203.00,355.00 203.00,355.00
             205.65,355.21 210.72,356.20 212.99,355.67
             218.46,354.41 223.42,345.00 225.00,340.00 Z
           M 249.00,340.80
           C 244.11,340.89 233.19,338.96 229.09,340.80
             225.43,342.06 219.10,352.35 217.00,356.20
             221.85,356.01 232.33,357.77 236.00,356.20
             240.92,354.57 246.44,345.56 249.00,340.80 Z
           M 283.00,340.00
           C 283.00,340.00 282.00,340.00 282.00,340.00
             282.00,340.00 283.00,341.00 283.00,341.00
             283.00,341.00 283.00,340.00 283.00,340.00 Z
           M 146.00,356.79
           C 143.38,353.42 132.01,341.71 127.96,341.16
             127.96,341.16 116.00,342.00 116.00,342.00
             118.34,346.94 125.59,355.09 131.00,356.79
             133.42,357.23 142.89,357.00 146.00,356.79 Z
           M 203.00,341.00
           C 203.00,341.00 195.00,341.00 195.00,341.00
             195.00,341.00 194.00,355.00 194.00,355.00
             194.00,355.00 201.00,355.00 201.00,355.00
             201.00,355.00 203.00,341.00 203.00,341.00 Z
           M 254.00,341.00
           C 254.00,341.00 249.00,346.00 249.00,346.00
             249.00,346.00 254.00,341.00 254.00,341.00 Z
           M 282.00,341.00
           C 282.00,341.00 280.00,341.00 280.00,341.00
             280.00,341.00 279.00,344.00 279.00,344.00
             279.00,344.00 282.00,341.00 282.00,341.00 Z
           M 274.00,344.00
           C 270.63,343.56 260.68,341.81 258.00,342.16
             253.37,342.76 242.02,353.13 239.00,357.00
             246.08,356.98 255.96,356.67 262.00,353.00
             262.92,355.51 264.83,354.75 267.01,353.70
             271.02,351.76 274.37,348.51 277.00,345.00
             277.00,345.00 268.00,349.00 268.00,349.00
             268.00,349.00 274.00,344.00 274.00,344.00 Z
           M 249.00,346.00
           C 249.00,346.00 248.00,346.00 248.00,346.00
             248.00,346.00 249.00,347.00 249.00,347.00
             249.00,347.00 249.00,346.00 249.00,346.00 Z
           M 248.00,347.00
           C 248.00,347.00 247.00,347.00 247.00,347.00
             247.00,347.00 248.00,348.00 248.00,348.00
             248.00,348.00 248.00,347.00 248.00,347.00 Z
           M 124.00,353.00
           C 124.00,353.00 123.00,353.00 123.00,353.00
             123.00,353.00 124.00,354.00 124.00,354.00
             124.00,354.00 124.00,353.00 124.00,353.00 Z
           M 263.00,352.00
           C 263.00,352.00 264.00,352.00 264.00,352.00
             264.00,352.00 263.00,353.00 263.00,353.00
             263.00,353.00 263.00,352.00 263.00,352.00 Z
           M 273.00,353.00
           C 273.00,353.00 281.00,353.00 281.00,353.00
             281.00,353.00 273.00,353.00 273.00,353.00 Z
           M 125.00,354.00
           C 125.00,354.00 124.00,354.00 124.00,354.00
             124.00,354.00 125.00,355.00 125.00,355.00
             125.00,355.00 125.00,354.00 125.00,354.00 Z
           M 192.00,356.00
           C 192.00,356.00 171.00,356.00 171.00,356.00
             171.00,356.00 171.00,358.20 171.00,358.20
             171.00,358.20 189.71,358.20 189.71,358.20
             189.71,358.20 192.00,356.00 192.00,356.00 Z
           M 200.00,356.00
           C 200.00,356.00 193.00,358.00 193.00,358.00
             193.00,358.00 200.00,358.00 200.00,358.00
             200.00,358.00 200.00,356.00 200.00,356.00 Z
           M 214.00,357.00
           C 214.00,357.00 203.00,356.00 203.00,356.00
             203.00,356.00 203.00,358.00 203.00,358.00
             203.00,358.00 214.00,357.00 214.00,357.00 Z
           M 161.00,357.00
           C 161.00,357.00 155.00,358.00 155.00,358.00
             155.00,358.00 161.00,357.00 161.00,357.00 Z
           M 169.00,357.00
           C 169.00,357.00 163.00,358.00 163.00,358.00
             163.00,358.00 169.00,357.00 169.00,357.00 Z
           M 222.00,357.00
           C 222.00,357.00 215.00,358.00 215.00,358.00
             215.00,358.00 222.00,357.00 222.00,357.00 Z
           M 133.00,358.00
           C 133.00,358.00 132.00,358.00 132.00,358.00
             132.00,358.00 133.00,359.00 133.00,359.00
             133.00,359.00 133.00,358.00 133.00,358.00 Z
           M 233.00,358.00
           C 233.00,358.00 232.00,358.00 232.00,358.00
             232.00,358.00 233.00,359.00 233.00,359.00
             233.00,359.00 233.00,358.00 233.00,358.00 Z
           M 191.00,360.00
           C 191.00,360.00 173.00,359.00 173.00,359.00
             175.64,368.72 180.84,370.99 190.00,371.00
             190.00,371.00 191.00,360.00 191.00,360.00 Z
           M 212.00,359.00
           C 202.13,359.01 202.53,358.91 199.00,368.00
             205.77,367.45 208.18,364.33 212.00,359.00 Z
           M 234.00,359.00
           C 234.00,359.00 233.00,359.00 233.00,359.00
             233.00,359.00 234.00,360.00 234.00,360.00
             234.00,360.00 234.00,359.00 234.00,359.00 Z
           M 252.00,358.00
           C 252.00,358.00 253.00,358.00 253.00,358.00
             253.00,358.00 252.00,359.00 252.00,359.00
             252.00,359.00 252.00,358.00 252.00,358.00 Z
           M 199.00,360.00
           C 192.76,360.20 192.12,360.56 191.00,371.00
             191.00,371.00 197.00,370.00 197.00,370.00
             197.00,370.00 199.00,360.00 199.00,360.00 Z
           M 233.00,360.00
           C 233.00,360.00 232.00,360.00 232.00,360.00
             232.00,360.00 233.00,361.00 233.00,361.00
             233.00,361.00 233.00,360.00 233.00,360.00 Z
           M 227.00,362.00
           C 227.00,362.00 228.00,362.00 228.00,362.00
             228.00,362.00 227.00,363.00 227.00,363.00
             227.00,363.00 227.00,362.00 227.00,362.00 Z
           M 225.00,363.00
           C 225.00,363.00 226.00,363.00 226.00,363.00
             226.00,363.00 225.00,364.00 225.00,364.00
             225.00,364.00 225.00,363.00 225.00,363.00 Z
           M 249.00,364.00
           C 249.00,364.00 250.00,364.00 250.00,364.00
             250.00,364.00 249.00,365.00 249.00,365.00
             249.00,365.00 249.00,364.00 249.00,364.00 Z
           M 160.00,365.00
           C 160.00,365.00 161.00,365.00 161.00,365.00
             161.00,365.00 160.00,366.00 160.00,366.00
             160.00,366.00 160.00,365.00 160.00,365.00 Z
           M 247.00,365.00
           C 247.00,365.00 248.00,365.00 248.00,365.00
             248.00,365.00 247.00,366.00 247.00,366.00
             247.00,366.00 247.00,365.00 247.00,365.00 Z
           M 162.00,366.00
           C 162.00,366.00 163.00,366.00 163.00,366.00
             163.00,366.00 162.00,367.00 162.00,367.00
             162.00,367.00 162.00,366.00 162.00,366.00 Z
           M 146.00,369.00
           C 146.00,369.00 151.00,371.00 151.00,371.00
             151.00,371.00 146.00,369.00 146.00,369.00 Z
           M 229.00,369.00
           C 229.00,369.00 230.00,369.00 230.00,369.00
             230.00,369.00 229.00,370.00 229.00,370.00
             229.00,370.00 229.00,369.00 229.00,369.00 Z" />
</svg>
