<?xml version="1.0" encoding="UTF-8" standalone="no"?>
<!DOCTYPE svg PUBLIC "-//W3C//DTD SVG 20010904//EN"
              "http://www.w3.org/TR/2001/REC-SVG-20010904/DTD/svg10.dtd">

<svg xmlns="http://www.w3.org/2000/svg"
     width="1.25667in" height="1.25667in"
     viewBox="0 0 377 377">
  <path id="Auswahl #8"
        fill="none" stroke="black" stroke-width="1"
        d="M 190.00,0.00
           C 190.00,0.00 198.41,16.98 198.41,16.98
             198.41,16.98 217.00,19.00 217.00,19.00
             217.00,19.00 208.00,10.00 208.00,10.00
             218.88,16.35 215.38,18.99 229.00,19.00
             223.26,13.26 220.47,8.50 212.00,8.00
             212.00,8.00 213.00,4.00 213.00,4.00
             217.36,5.58 218.45,6.38 222.00,3.00
             222.00,3.00 225.00,4.00 225.00,4.00
             225.00,4.00 220.00,7.00 220.00,7.00
             221.65,8.85 229.34,16.35 231.00,17.20
             233.11,18.75 234.95,19.56 236.00,17.20
             240.25,18.25 248.31,19.31 250.00,14.00
             253.67,15.06 253.63,14.73 257.00,13.00
             257.00,13.00 258.00,14.00 258.00,14.00
             258.00,14.00 256.00,18.00 256.00,18.00
             256.00,18.00 268.00,23.00 268.00,23.00
             266.70,24.52 267.37,24.57 269.00,25.00
             269.00,25.00 268.00,27.00 268.00,27.00
             268.00,27.00 271.00,26.00 271.00,26.00
             273.36,34.23 280.98,33.54 286.00,28.00
             286.00,28.00 291.00,32.00 291.00,32.00
             291.00,32.00 283.00,33.00 283.00,33.00
             283.00,33.00 289.00,40.00 289.00,40.00
             284.70,37.29 283.20,35.15 278.00,35.00
             280.01,36.96 287.87,45.24 290.00,40.00
             295.81,43.22 298.46,43.47 305.00,44.00
             305.00,44.00 303.00,42.00 303.00,42.00
             303.00,42.00 303.00,41.00 303.00,41.00
             307.91,44.23 314.97,46.79 316.00,53.00
             316.00,53.00 307.00,55.00 307.00,55.00
             318.46,67.01 315.72,68.92 329.00,70.00
             329.00,70.00 316.00,54.00 316.00,54.00
             316.00,54.00 330.17,68.78 330.17,68.78
             330.17,68.78 340.00,77.00 340.00,77.00
             340.00,77.00 337.00,78.00 337.00,78.00
             337.00,78.00 348.95,98.72 348.95,98.72
             352.82,103.33 355.39,99.94 358.00,107.00
             358.00,107.00 353.00,108.00 353.00,108.00
             353.00,108.00 361.93,131.85 361.93,131.85
             361.93,131.85 370.00,139.00 370.00,139.00
             370.00,139.00 364.00,140.00 364.00,140.00
             364.00,140.00 367.41,160.00 367.41,160.00
             367.41,160.00 369.60,168.40 369.60,168.40
             369.60,168.40 376.00,170.00 376.00,170.00
             376.00,170.00 376.00,174.00 376.00,174.00
             376.00,174.00 369.00,173.00 369.00,173.00
             369.00,173.00 369.00,205.00 369.00,205.00
             369.00,205.00 376.00,205.00 376.00,205.00
             376.00,205.00 376.00,209.00 376.00,209.00
             376.00,209.00 368.00,209.00 368.00,209.00
             367.93,216.37 365.51,231.13 363.00,238.00
             363.00,238.00 370.00,239.00 370.00,239.00
             370.00,239.00 361.27,247.14 361.27,247.14
             361.27,247.14 352.00,270.00 352.00,270.00
             352.00,270.00 357.00,272.00 357.00,272.00
             357.00,272.00 347.90,280.14 347.90,280.14
             347.90,280.14 336.00,300.00 336.00,300.00
             336.00,300.00 339.00,301.00 339.00,301.00
             334.84,308.56 334.02,304.94 329.27,309.29
             324.24,313.91 324.17,317.13 316.00,323.00
             316.00,323.00 328.00,308.00 328.00,308.00
             328.00,308.00 319.00,310.02 319.00,310.02
             319.00,310.02 306.00,323.00 306.00,323.00
             306.00,323.00 315.00,325.00 315.00,325.00
             313.93,331.45 308.26,332.95 303.00,336.00
             301.87,333.61 299.32,334.52 297.00,334.89
             290.31,335.95 287.69,339.69 282.00,343.00
             282.00,343.00 289.00,336.00 289.00,336.00
             282.71,336.73 281.42,338.69 277.00,343.00
             277.00,343.00 288.00,347.00 288.00,347.00
             288.00,347.00 285.00,350.00 285.00,350.00
             281.72,346.41 280.76,346.12 276.00,347.00
             274.19,344.32 271.47,349.25 271.00,351.00
             271.00,351.00 268.00,350.00 268.00,350.00
             268.00,350.00 269.00,352.00 269.00,352.00
             269.00,352.00 266.00,354.00 266.00,354.00
             266.00,354.00 272.00,355.00 272.00,355.00
             261.27,355.49 262.67,356.72 254.00,360.00
             254.00,360.00 255.00,365.00 255.00,365.00
             255.00,365.00 253.00,362.00 253.00,362.00
             253.00,362.00 250.00,363.00 250.00,363.00
             248.83,360.30 244.72,360.06 242.00,359.53
             239.77,359.31 233.98,358.70 232.00,359.53
             230.04,360.12 221.66,367.89 219.00,370.00
             219.00,370.00 223.00,370.00 223.00,370.00
             223.00,370.00 220.00,374.00 220.00,374.00
             218.65,370.68 215.75,372.12 213.00,373.00
             213.00,373.00 207.00,368.89 207.00,368.89
             207.00,368.89 216.42,368.89 216.42,368.89
             216.42,368.89 228.00,359.00 228.00,359.00
             214.58,359.01 218.72,360.75 208.00,367.00
             208.00,367.00 216.00,359.00 216.00,359.00
             208.95,359.00 198.67,357.17 195.13,365.02
             194.00,367.93 193.98,369.10 195.13,372.00
             195.13,372.00 190.00,377.00 190.00,377.00
             190.00,377.00 191.00,372.00 191.00,372.00
             191.00,372.00 182.52,371.01 182.52,371.01
             182.52,371.01 172.96,360.02 172.96,360.02
             172.96,360.02 157.00,359.00 157.00,359.00
             157.00,359.00 164.00,365.00 164.00,365.00
             164.00,365.00 163.00,368.00 163.00,368.00
             167.53,368.84 169.28,367.95 173.00,371.00
             173.00,371.00 167.00,370.00 167.00,370.00
             167.00,370.00 172.00,375.00 172.00,375.00
             168.31,373.24 159.17,367.77 157.00,374.00
             157.00,374.00 153.00,370.00 153.00,370.00
             153.00,370.00 163.00,370.00 163.00,370.00
             157.46,362.24 155.54,359.33 146.00,358.80
             143.15,358.65 139.19,357.98 138.00,361.00
             138.00,361.00 130.00,360.00 130.00,360.00
             130.00,360.00 139.00,367.00 139.00,367.00
             130.35,364.25 128.89,358.73 123.00,365.00
             123.00,365.00 120.00,364.00 120.00,364.00
             120.00,364.00 126.00,359.00 126.00,359.00
             116.57,355.02 113.78,347.78 108.00,345.04
             104.66,343.45 99.21,344.27 98.00,348.00
             94.26,346.98 93.97,347.69 91.00,350.00
             91.00,350.00 90.00,346.00 90.00,346.00
             90.00,346.00 106.00,342.00 106.00,342.00
             106.00,342.00 101.00,338.02 101.00,338.02
             101.00,338.02 82.00,335.00 82.00,335.00
             82.00,335.00 85.00,339.00 85.00,339.00
             85.00,339.00 77.00,334.00 77.00,334.00
             77.00,334.00 78.00,337.00 78.00,337.00
             78.00,337.00 65.00,330.00 65.00,330.00
             65.00,330.00 72.00,332.00 72.00,332.00
             67.72,328.20 67.57,327.72 62.00,329.00
             62.00,329.00 65.00,325.00 65.00,325.00
             65.00,325.00 51.70,309.58 51.70,309.58
             46.51,305.60 42.04,308.93 38.00,301.00
             38.00,301.00 45.00,299.00 45.00,299.00
             42.77,295.29 35.19,281.58 32.67,279.58
             27.91,275.79 23.88,279.25 20.00,272.00
             20.00,272.00 28.00,270.00 28.00,270.00
             27.17,266.47 20.50,248.42 18.49,246.31
             14.49,242.10 11.37,246.19 7.00,240.00
             7.00,240.00 17.00,238.00 17.00,238.00
             17.00,238.00 12.00,209.00 12.00,209.00
             12.00,209.00 1.00,208.00 1.00,208.00
             1.00,208.00 1.00,205.00 1.00,205.00
             1.00,205.00 11.00,205.00 11.00,205.00
             11.00,205.00 11.00,174.00 11.00,174.00
             11.00,174.00 1.00,173.00 1.00,173.00
             1.00,173.00 1.00,170.00 1.00,170.00
             1.00,170.00 12.00,170.00 12.00,170.00
             12.07,162.05 14.28,148.43 17.00,141.00
             17.00,141.00 7.00,139.00 7.00,139.00
             7.00,139.00 7.00,136.00 7.00,136.00
             7.00,136.00 19.00,134.00 19.00,134.00
             20.12,126.77 24.82,115.75 28.00,109.00
             28.00,109.00 19.00,106.00 19.00,106.00
             23.47,99.37 26.96,102.64 31.62,99.15
             34.31,97.13 42.22,82.69 44.00,79.00
             44.00,79.00 37.00,77.00 37.00,77.00
             41.59,69.42 45.33,72.83 50.83,68.49
             50.83,68.49 64.00,53.00 64.00,53.00
             64.00,53.00 61.00,49.00 61.00,49.00
             65.84,51.35 65.79,51.04 71.00,46.00
             71.00,46.00 64.00,47.00 64.00,47.00
             64.00,47.00 78.00,40.00 78.00,40.00
             78.00,40.00 75.00,44.00 75.00,44.00
             75.00,44.00 85.00,38.00 85.00,38.00
             85.00,38.00 81.00,43.00 81.00,43.00
             81.00,43.00 100.00,39.98 100.00,39.98
             100.00,39.98 105.00,36.00 105.00,36.00
             99.60,34.64 95.47,33.46 90.00,35.00
             90.00,35.00 88.00,31.00 88.00,31.00
             88.00,31.00 89.00,28.00 89.00,28.00
             93.35,30.34 100.87,34.84 106.00,33.31
             109.49,32.27 116.17,24.83 119.00,22.00
             114.29,22.85 107.47,24.72 103.00,23.00
             109.61,22.64 119.38,21.35 125.00,18.00
             125.00,18.00 119.00,14.00 119.00,14.00
             119.00,14.00 121.00,12.00 121.00,12.00
             121.00,12.00 122.00,12.00 122.00,12.00
             124.91,21.17 132.98,10.32 139.00,11.00
             139.00,11.00 129.00,17.00 129.00,17.00
             129.00,17.00 138.00,16.00 138.00,16.00
             138.00,16.00 138.00,17.00 138.00,17.00
             138.00,17.00 136.00,19.00 136.00,19.00
             136.00,19.00 151.96,18.15 151.96,18.15
             151.96,18.15 163.00,8.00 163.00,8.00
             157.99,7.77 155.65,7.71 152.00,4.00
             152.00,4.00 156.00,3.00 156.00,3.00
             158.25,10.08 167.62,3.19 172.00,3.00
             172.00,3.00 163.00,9.00 163.00,9.00
             163.00,9.00 164.00,12.00 164.00,12.00
             164.00,12.00 157.00,19.00 157.00,19.00
             157.00,19.00 173.67,16.98 173.67,16.98
             173.67,16.98 184.00,5.00 184.00,5.00
             184.00,5.00 176.00,18.00 176.00,18.00
             176.00,18.00 192.00,18.00 192.00,18.00
             192.00,18.00 190.00,0.00 190.00,0.00 Z
           M 188.00,1.00
           C 188.00,1.00 189.00,1.00 189.00,1.00
             189.00,1.00 188.00,2.00 188.00,2.00
             188.00,2.00 188.00,1.00 188.00,1.00 Z
           M 211.00,3.00
           C 211.00,3.00 212.00,3.00 212.00,3.00
             212.00,3.00 211.00,4.00 211.00,4.00
             211.00,4.00 211.00,3.00 211.00,3.00 Z
           M 170.00,6.00
           C 170.00,6.00 175.00,7.00 175.00,7.00
             175.00,7.00 170.00,6.00 170.00,6.00 Z
           M 176.00,6.00
           C 176.00,6.00 177.00,6.00 177.00,6.00
             177.00,6.00 176.00,7.00 176.00,7.00
             176.00,7.00 176.00,6.00 176.00,6.00 Z
           M 200.00,6.00
           C 200.00,6.00 207.00,7.00 207.00,7.00
             207.00,7.00 200.00,6.00 200.00,6.00 Z
           M 147.00,7.00
           C 147.00,7.00 148.00,7.00 148.00,7.00
             148.00,7.00 147.00,8.00 147.00,8.00
             147.00,8.00 147.00,7.00 147.00,7.00 Z
           M 172.00,8.00
           C 172.00,8.00 178.00,9.00 178.00,9.00
             178.00,9.00 172.00,8.00 172.00,8.00 Z
           M 199.00,8.00
           C 199.00,8.00 210.00,9.00 210.00,9.00
             210.00,9.00 199.00,8.00 199.00,8.00 Z
           M 236.00,8.00
           C 236.00,8.00 241.00,10.00 241.00,10.00
             241.00,10.00 236.00,8.00 236.00,8.00 Z
           M 244.00,9.00
           C 244.00,9.00 245.00,9.00 245.00,9.00
             245.00,9.00 244.00,10.00 244.00,10.00
             244.00,10.00 244.00,9.00 244.00,9.00 Z
           M 163.00,11.00
           C 163.00,11.00 162.00,11.00 162.00,11.00
             162.00,11.00 163.00,12.00 163.00,12.00
             163.00,12.00 163.00,11.00 163.00,11.00 Z
           M 165.00,10.00
           C 165.00,10.00 166.00,10.00 166.00,10.00
             166.00,10.00 165.00,11.00 165.00,11.00
             165.00,11.00 165.00,10.00 165.00,10.00 Z
           M 246.00,12.00
           C 246.00,12.00 247.00,12.00 247.00,12.00
             247.00,12.00 246.00,13.00 246.00,13.00
             246.00,13.00 246.00,12.00 246.00,12.00 Z
           M 229.00,13.00
           C 229.00,13.00 230.00,13.00 230.00,13.00
             230.00,13.00 229.00,14.00 229.00,14.00
             229.00,14.00 229.00,13.00 229.00,13.00 Z
           M 248.00,13.00
           C 248.00,13.00 249.00,13.00 249.00,13.00
             249.00,13.00 248.00,14.00 248.00,14.00
             248.00,14.00 248.00,13.00 248.00,13.00 Z
           M 141.00,14.00
           C 141.00,14.00 142.00,14.00 142.00,14.00
             142.00,14.00 141.00,15.00 141.00,15.00
             141.00,15.00 141.00,14.00 141.00,14.00 Z
           M 231.00,14.00
           C 231.00,14.00 235.00,17.00 235.00,17.00
             235.00,17.00 231.00,14.00 231.00,14.00 Z
           M 139.00,15.00
           C 139.00,15.00 140.00,15.00 140.00,15.00
             140.00,15.00 139.00,16.00 139.00,16.00
             139.00,16.00 139.00,15.00 139.00,15.00 Z
           M 196.00,17.00
           C 196.00,17.00 195.00,17.00 195.00,17.00
             195.00,17.00 196.00,18.00 196.00,18.00
             196.00,18.00 196.00,17.00 196.00,17.00 Z
           M 132.00,19.00
           C 127.88,18.60 127.16,18.09 124.00,21.00
             124.00,21.00 132.00,19.00 132.00,19.00 Z
           M 259.00,20.00
           C 253.22,17.83 249.79,17.33 244.00,20.00
             244.00,20.00 259.00,20.00 259.00,20.00 Z
           M 173.00,19.00
           C 173.00,19.00 156.00,21.00 156.00,21.00
             156.00,21.00 173.00,21.00 173.00,21.00
             173.00,21.00 173.00,19.00 173.00,19.00 Z
           M 192.00,19.00
           C 186.72,19.00 179.34,17.80 175.00,21.00
             175.00,21.00 192.00,21.00 192.00,21.00
             192.00,21.00 192.00,19.00 192.00,19.00 Z
           M 219.00,20.00
           C 219.00,20.00 198.00,19.00 198.00,19.00
             198.00,19.00 198.00,21.00 198.00,21.00
             198.00,21.00 219.00,20.00 219.00,20.00 Z
           M 128.00,21.00
           C 119.22,22.69 116.22,25.71 111.00,33.00
             115.55,31.06 124.62,24.64 128.00,21.00 Z
           M 150.00,21.21
           C 150.00,21.21 131.00,21.21 131.00,21.21
             125.46,22.78 115.63,30.61 112.00,35.00
             115.91,35.95 131.36,37.82 134.72,36.43
             138.03,35.05 147.67,24.25 150.00,21.21 Z
           M 241.00,37.18
           C 239.15,32.85 234.12,23.28 229.91,21.60
             228.11,20.88 224.98,21.01 223.00,21.00
             224.43,25.20 231.79,35.99 236.04,37.18
             237.99,37.99 239.17,37.46 241.00,37.18 Z
           M 260.00,36.00
           C 256.56,31.59 247.29,23.48 242.00,21.70
             239.54,20.87 236.59,21.01 234.00,21.00
             235.71,25.04 241.81,35.54 246.09,36.69
             248.84,37.42 256.37,36.08 260.00,36.00 Z
           M 274.00,34.00
           C 266.97,24.19 264.10,23.04 253.00,21.86
             249.23,21.26 247.69,20.55 244.00,21.86
             244.00,21.86 262.00,34.86 262.00,34.86
             262.00,34.86 274.00,34.00 274.00,34.00 Z
           M 152.00,22.00
           C 146.13,24.78 140.09,31.85 138.00,38.00
             138.00,38.00 143.36,37.01 143.36,37.01
             143.36,37.01 152.00,22.00 152.00,22.00 Z
           M 172.00,22.00
           C 168.46,22.00 157.04,21.36 154.53,22.99
             151.13,25.20 148.06,34.09 147.00,38.00
             150.66,38.00 163.05,38.65 165.59,36.98
             168.57,35.00 171.36,25.54 172.00,22.00 Z
           M 192.00,23.00
           C 192.00,23.00 174.70,23.00 174.70,23.00
             174.70,23.00 169.00,37.00 169.00,37.00
             169.00,37.00 193.00,37.00 193.00,37.00
             193.00,37.00 192.00,23.00 192.00,23.00 Z
           M 232.00,38.00
           C 230.24,33.41 224.64,24.40 219.96,22.60
             217.33,21.59 202.82,22.00 199.00,22.00
             199.00,22.00 202.00,37.00 202.00,37.00
             202.00,37.00 215.00,38.00 215.00,38.00
             215.00,38.00 232.00,38.00 232.00,38.00 Z
           M 196.00,23.00
           C 196.00,23.00 196.00,37.00 196.00,37.00
             196.00,37.00 200.00,37.00 200.00,37.00
             200.00,37.00 196.00,23.00 196.00,23.00 Z
           M 101.00,23.00
           C 100.93,26.22 96.20,25.73 94.00,25.00
             94.00,25.00 101.00,23.00 101.00,23.00 Z
           M 269.00,23.00
           C 269.00,23.00 274.00,24.00 274.00,24.00
             274.00,24.00 269.00,23.00 269.00,23.00 Z
           M 275.00,24.00
           C 275.00,24.00 282.00,26.00 282.00,26.00
             282.00,26.00 275.00,24.00 275.00,24.00 Z
           M 104.00,25.00
           C 104.00,25.00 105.00,25.00 105.00,25.00
             105.00,25.00 104.00,26.00 104.00,26.00
             104.00,26.00 104.00,25.00 104.00,25.00 Z
           M 102.00,26.00
           C 102.00,26.00 103.00,26.00 103.00,26.00
             103.00,26.00 102.00,27.00 102.00,27.00
             102.00,27.00 102.00,26.00 102.00,26.00 Z
           M 283.00,26.00
           C 283.00,26.00 284.00,26.00 284.00,26.00
             284.00,26.00 283.00,27.00 283.00,27.00
             283.00,27.00 283.00,26.00 283.00,26.00 Z
           M 99.00,28.00
           C 99.00,28.00 100.00,28.00 100.00,28.00
             100.00,28.00 99.00,29.00 99.00,29.00
             99.00,29.00 99.00,28.00 99.00,28.00 Z
           M 273.00,28.00
           C 273.00,28.00 274.00,28.00 274.00,28.00
             274.00,28.00 273.00,29.00 273.00,29.00
             273.00,29.00 273.00,28.00 273.00,28.00 Z
           M 276.00,30.00
           C 276.00,30.00 277.00,30.00 277.00,30.00
             277.00,30.00 276.00,31.00 276.00,31.00
             276.00,31.00 276.00,30.00 276.00,30.00 Z
           M 87.00,32.00
           C 87.00,32.00 85.00,35.00 85.00,35.00
             85.00,35.00 85.00,34.00 85.00,34.00
             85.00,34.00 87.00,32.00 87.00,32.00 Z
           M 111.00,33.00
           C 111.00,33.00 110.00,33.00 110.00,33.00
             110.00,33.00 111.00,34.00 111.00,34.00
             111.00,34.00 111.00,33.00 111.00,33.00 Z
           M 110.00,34.00
           C 110.00,34.00 109.00,34.00 109.00,34.00
             109.00,34.00 110.00,35.00 110.00,35.00
             110.00,35.00 110.00,34.00 110.00,34.00 Z
           M 281.00,41.00
           C 275.32,33.34 272.49,35.45 264.00,37.00
             267.97,40.91 275.57,40.88 281.00,41.00 Z
           M 83.00,35.00
           C 83.00,35.00 79.00,40.00 79.00,40.00
             79.00,40.00 83.00,35.00 83.00,35.00 Z
           M 88.00,35.00
           C 88.00,35.00 86.00,38.00 86.00,38.00
             86.00,38.00 86.00,37.00 86.00,37.00
             86.00,37.00 88.00,35.00 88.00,35.00 Z
           M 108.00,36.00
           C 108.00,36.00 107.00,36.00 107.00,36.00
             107.00,36.00 108.00,37.00 108.00,37.00
             108.00,37.00 108.00,36.00 108.00,36.00 Z
           M 296.00,35.00
           C 296.00,35.00 299.00,38.00 299.00,38.00
             299.00,38.00 296.00,35.00 296.00,35.00 Z
           M 124.00,38.00
           C 117.57,37.48 111.09,34.98 106.00,40.00
             106.00,40.00 124.00,38.00 124.00,38.00 Z
           M 264.00,40.00
           C 260.29,36.39 257.50,36.92 253.00,39.00
             253.00,39.00 264.00,40.00 264.00,40.00 Z
           M 132.00,40.00
           C 132.00,40.00 118.00,40.99 118.00,40.99
             113.40,41.10 107.16,40.67 103.01,42.98
             98.39,45.56 94.57,52.08 93.00,57.00
             93.00,57.00 111.00,58.28 111.00,58.28
             113.62,58.42 117.32,59.43 119.79,58.28
             123.04,57.05 130.62,43.60 132.00,40.00 Z
           M 142.00,40.00
           C 139.75,40.03 137.20,39.87 135.18,41.02
             131.18,43.30 125.41,54.53 124.00,59.16
             124.00,59.16 133.73,59.16 133.73,59.16
             133.73,59.16 137.34,54.00 137.34,54.00
             137.34,54.00 142.00,40.00 142.00,40.00 Z
           M 166.00,40.00
           C 162.25,40.00 148.95,39.34 146.42,41.02
             143.43,43.01 139.88,56.16 139.00,60.00
             139.00,60.00 161.00,60.00 161.00,60.00
             161.00,60.00 166.00,40.00 166.00,40.00 Z
           M 194.00,61.00
           C 194.00,61.00 193.16,47.00 193.16,47.00
             193.16,47.00 191.40,41.02 191.40,41.02
             191.40,41.02 184.00,40.00 184.00,40.00
             184.00,40.00 168.00,40.00 168.00,40.00
             168.00,40.00 164.00,61.00 164.00,61.00
             164.00,61.00 194.00,61.00 194.00,61.00 Z
           M 203.00,61.00
           C 203.00,61.00 199.98,41.59 199.98,41.59
             199.98,41.59 197.00,40.00 197.00,40.00
             197.00,40.00 198.00,61.00 198.00,61.00
             198.00,61.00 203.00,61.00 203.00,61.00 Z
           M 244.00,60.00
           C 242.79,55.74 237.29,43.22 233.67,41.02
             231.78,39.87 229.15,40.02 227.00,40.00
             227.00,40.00 203.00,40.00 203.00,40.00
             203.00,40.00 206.00,61.00 206.00,61.00
             206.00,61.00 223.00,60.00 223.00,60.00
             223.00,60.00 244.00,60.00 244.00,60.00 Z
           M 251.00,59.00
           C 249.67,55.16 245.37,43.09 242.37,40.99
             240.81,39.91 238.79,40.06 237.00,40.00
             237.00,40.00 246.63,58.01 246.63,58.01
             246.63,58.01 251.00,59.00 251.00,59.00 Z
           M 279.00,57.00
           C 276.58,53.19 269.78,43.97 265.99,42.02
             264.02,41.02 249.02,40.03 246.00,40.00
             246.00,40.00 254.70,58.01 254.70,58.01
             254.70,58.01 263.00,58.58 263.00,58.58
             263.00,58.58 279.00,57.00 279.00,57.00 Z
           M 100.00,42.00
           C 87.39,43.02 77.34,42.31 69.00,53.00
             73.18,53.79 84.40,56.64 88.00,55.39
             92.39,53.86 97.51,45.93 100.00,42.00 Z
           M 293.00,56.18
           C 290.87,51.86 286.31,44.69 281.91,42.89
             278.95,41.68 272.40,42.00 269.00,42.00
             271.29,45.30 278.59,55.14 282.09,56.18
             283.95,57.01 290.36,56.06 293.00,56.18 Z
           M 304.00,54.00
           C 298.98,47.06 294.59,43.73 286.00,43.00
             288.18,46.75 292.50,53.76 297.01,54.60
             298.68,54.91 302.18,54.24 304.00,54.00 Z
           M 297.00,44.00
           C 297.71,46.68 298.95,48.02 301.02,49.93
             305.95,54.49 309.62,53.62 314.00,49.00
             314.00,49.00 297.00,44.00 297.00,44.00 Z
           M 306.00,44.00
           C 306.00,44.00 305.00,44.00 305.00,44.00
             305.00,44.00 306.00,45.00 306.00,45.00
             306.00,45.00 306.00,44.00 306.00,44.00 Z
           M 75.00,45.00
           C 75.00,45.00 67.00,52.00 67.00,52.00
             70.95,50.16 72.85,48.83 75.00,45.00 Z
           M 66.00,54.00
           C 66.00,54.00 65.00,54.00 65.00,54.00
             65.00,54.00 66.00,55.00 66.00,55.00
             66.00,55.00 66.00,54.00 66.00,54.00 Z
           M 65.00,55.00
           C 65.00,55.00 64.00,55.00 64.00,55.00
             64.00,55.00 65.00,56.00 65.00,56.00
             65.00,56.00 65.00,55.00 65.00,55.00 Z
           M 87.00,58.00
           C 83.41,57.12 70.00,54.56 67.01,55.61
             62.99,57.03 56.80,65.18 55.00,69.00
             55.00,69.00 72.00,67.17 72.00,67.17
             72.00,67.17 79.96,65.98 79.96,65.98
             79.96,65.98 87.00,58.00 87.00,58.00 Z
           M 64.00,56.00
           C 64.00,56.00 63.00,56.00 63.00,56.00
             63.00,56.00 64.00,57.00 64.00,57.00
             64.00,57.00 64.00,56.00 64.00,56.00 Z
           M 316.00,68.00
           C 311.29,59.22 307.18,54.53 297.00,57.00
             302.15,67.69 304.55,67.97 316.00,68.00 Z
           M 63.00,57.00
           C 63.00,57.00 62.00,57.00 62.00,57.00
             62.00,57.00 63.00,58.00 63.00,58.00
             63.00,58.00 63.00,57.00 63.00,57.00 Z
           M 300.00,67.00
           C 296.25,57.21 292.67,56.22 283.00,59.00
             287.89,67.27 291.40,65.87 300.00,67.00 Z
           M 62.00,58.00
           C 62.00,58.00 61.00,58.00 61.00,58.00
             61.00,58.00 62.00,59.00 62.00,59.00
             62.00,59.00 62.00,58.00 62.00,58.00 Z
           M 120.00,61.00
           C 120.00,61.00 91.00,58.00 91.00,58.00
             91.00,58.00 87.00,66.00 87.00,66.00
             87.00,66.00 102.00,65.00 102.00,65.00
             108.74,64.92 114.88,66.21 120.00,61.00 Z
           M 61.00,59.00
           C 61.00,59.00 60.00,59.00 60.00,59.00
             60.00,59.00 61.00,60.00 61.00,60.00
             61.00,60.00 61.00,59.00 61.00,59.00 Z
           M 285.00,66.00
           C 285.00,66.00 280.67,59.87 280.67,59.87
             280.67,59.87 270.00,59.87 270.00,59.87
             270.00,59.87 255.00,61.00 255.00,61.00
             255.00,61.00 257.41,63.44 257.41,63.44
             257.41,63.44 285.00,66.00 285.00,66.00 Z
           M 60.00,60.00
           C 60.00,60.00 59.00,60.00 59.00,60.00
             59.00,60.00 60.00,61.00 60.00,61.00
             60.00,61.00 60.00,60.00 60.00,60.00 Z
           M 135.00,62.00
           C 130.21,60.64 124.29,59.61 121.00,64.00
             125.74,64.00 131.04,64.91 135.00,62.00 Z
           M 160.00,62.00
           C 160.00,62.00 138.00,62.00 138.00,62.00
             138.00,62.00 141.11,63.62 141.11,63.62
             141.11,63.62 160.00,62.00 160.00,62.00 Z
           M 246.00,64.00
           C 243.96,60.96 242.63,60.89 239.00,61.17
             239.00,61.17 220.00,62.00 220.00,62.00
             215.72,62.00 211.03,61.40 207.00,63.00
             207.00,63.00 224.00,63.00 224.00,63.00
             224.00,63.00 246.00,64.00 246.00,64.00 Z
           M 252.00,64.00
           C 250.87,61.29 250.87,61.55 248.00,61.00
             248.00,61.00 252.00,64.00 252.00,64.00 Z
           M 177.00,62.00
           C 177.00,62.00 163.00,63.00 163.00,63.00
             163.00,63.00 177.00,62.00 177.00,62.00 Z
           M 159.00,65.00
           C 159.00,65.00 137.00,66.00 137.00,66.00
             137.00,66.00 133.00,85.00 133.00,85.00
             133.00,85.00 156.00,85.00 156.00,85.00
             156.00,85.00 159.00,65.00 159.00,65.00 Z
           M 194.00,65.00
           C 194.00,65.00 170.00,65.00 170.00,65.00
             170.00,65.00 162.98,66.60 162.98,66.60
             162.98,66.60 159.00,85.00 159.00,85.00
             159.00,85.00 194.00,86.00 194.00,86.00
             194.00,86.00 194.00,65.00 194.00,65.00 Z
           M 204.00,65.00
           C 204.00,65.00 198.00,65.00 198.00,65.00
             198.00,65.00 199.00,86.00 199.00,86.00
             199.00,86.00 206.00,85.00 206.00,85.00
             206.00,85.00 204.00,65.00 204.00,65.00 Z
           M 253.00,85.00
           C 252.64,80.96 249.83,69.32 246.50,67.02
             244.58,65.70 239.56,66.02 237.00,65.72
             237.00,65.72 207.00,65.00 207.00,65.00
             207.00,65.00 209.00,86.00 209.00,86.00
             209.00,86.00 226.00,85.00 226.00,85.00
             226.00,85.00 253.00,85.00 253.00,85.00 Z
           M 117.00,66.00
           C 117.00,66.00 107.00,67.12 107.00,67.12
             107.00,67.12 94.00,67.12 94.00,67.12
             94.00,67.12 85.39,69.60 85.39,69.60
             85.39,69.60 79.00,82.00 79.00,82.00
             79.00,82.00 87.00,83.10 87.00,83.10
             87.00,83.10 98.00,83.10 98.00,83.10
             100.95,83.81 105.99,84.67 108.61,83.10
             111.36,81.20 115.78,69.49 117.00,66.00 Z
           M 133.00,66.00
           C 130.43,66.00 123.23,65.72 121.21,66.60
             117.20,68.35 113.66,79.80 113.00,84.00
             113.00,84.00 129.00,85.00 129.00,85.00
             129.00,85.00 133.00,66.00 133.00,66.00 Z
           M 259.00,84.00
           C 259.00,84.00 253.28,67.59 253.28,67.59
             253.28,67.59 250.00,66.00 250.00,66.00
             251.47,71.18 254.42,81.28 259.00,84.00 Z
           M 295.00,82.00
           C 293.38,78.63 289.55,70.93 286.67,68.85
             283.31,66.43 277.06,67.02 273.00,67.00
             273.00,67.00 258.00,66.00 258.00,66.00
             258.31,69.41 260.86,81.10 263.51,82.98
             265.34,84.28 269.74,84.02 272.00,84.00
             272.00,84.00 295.00,82.00 295.00,82.00 Z
           M 308.00,81.21
           C 303.10,69.63 302.69,68.04 290.00,68.00
             291.08,71.40 295.09,79.94 298.38,81.21
             300.83,82.53 305.39,81.47 308.00,81.21 Z
           M 79.00,69.00
           C 73.85,69.00 56.28,69.51 52.47,71.98
             50.28,73.40 49.16,75.77 48.00,78.00
             52.25,79.30 67.85,82.38 71.39,80.01
             73.42,78.65 77.66,71.39 79.00,69.00 Z
           M 82.00,69.00
           C 78.03,72.69 75.52,76.80 74.00,82.00
             78.46,79.40 80.52,73.79 82.00,69.00 Z
           M 324.00,79.00
           C 320.26,69.46 314.12,69.42 305.00,69.00
             308.63,81.70 312.30,81.88 324.00,79.00 Z
           M 334.00,77.00
           C 330.65,71.25 327.24,71.29 321.00,71.00
             324.32,78.75 326.44,79.16 334.00,77.00 Z
           M 49.00,72.00
           C 49.00,72.00 39.00,74.00 39.00,74.00
             43.49,78.40 46.09,76.99 49.00,72.00 Z
           M 334.00,73.00
           C 334.24,75.44 334.76,75.25 337.00,76.00
             337.00,76.00 334.00,73.00 334.00,73.00 Z
           M 347.00,100.00
           C 345.74,95.58 339.17,81.05 334.82,79.77
             332.60,79.12 330.05,80.26 328.00,81.00
             329.32,84.46 336.36,97.30 339.21,98.98
             341.30,100.21 344.62,99.99 347.00,100.00 Z
           M 70.00,83.00
           C 70.00,83.00 47.09,80.88 47.09,80.88
             42.59,82.10 36.27,95.54 35.00,100.00
             35.00,100.00 53.00,98.04 53.00,98.04
             53.00,98.04 62.61,96.40 62.61,96.40
             62.61,96.40 70.00,83.00 70.00,83.00 Z
           M 336.00,99.00
           C 334.74,94.58 329.39,83.15 324.91,81.69
             322.63,80.94 314.55,82.38 312.00,83.00
             312.00,83.00 318.70,97.01 318.70,97.01
             318.70,97.01 336.00,99.00 336.00,99.00 Z
           M 315.00,97.00
           C 314.03,93.56 311.26,84.97 307.79,83.82
             305.92,82.92 301.24,83.82 299.00,83.82
             302.23,95.33 303.75,97.00 315.00,97.00 Z
           M 75.00,84.00
           C 69.52,85.80 67.48,91.81 66.00,97.00
             72.18,95.95 73.15,89.34 75.00,84.00 Z
           M 108.00,86.00
           C 108.00,86.00 99.00,84.97 99.00,84.97
             99.00,84.97 88.00,84.97 88.00,84.97
             85.30,84.57 80.99,83.33 78.65,84.97
             75.81,87.00 74.34,93.71 74.00,97.00
             74.00,97.00 84.00,96.04 84.00,96.04
             84.00,96.04 97.00,96.04 97.00,96.04
             99.14,96.00 102.71,96.23 104.49,94.98
             106.92,93.27 107.58,88.73 108.00,86.00 Z
           M 302.00,97.00
           C 300.91,93.89 298.46,86.72 295.61,85.03
             293.62,83.90 287.71,84.96 285.00,85.03
             285.00,85.03 264.00,86.00 264.00,86.00
             264.00,86.00 266.56,93.99 266.56,93.99
             266.56,93.99 280.00,96.04 280.00,96.04
             280.00,96.04 293.00,96.04 293.00,96.04
             293.00,96.04 302.00,97.00 302.00,97.00 Z
           M 128.00,87.00
           C 128.00,87.00 111.00,86.00 111.00,86.00
             111.00,86.00 109.00,95.00 109.00,95.00
             109.00,95.00 127.00,95.00 127.00,95.00
             127.00,95.00 128.00,87.00 128.00,87.00 Z
           M 254.00,86.00
           C 254.00,86.00 209.00,88.00 209.00,88.00
             209.00,88.00 210.00,94.04 210.00,94.04
             210.00,94.04 222.00,94.04 222.00,94.04
             222.00,94.04 233.00,95.00 233.00,95.00
             233.00,95.00 257.00,95.00 257.00,95.00
             257.00,95.00 254.00,86.00 254.00,86.00 Z
           M 259.00,86.00
           C 257.76,89.78 258.78,91.87 261.00,95.00
             261.00,95.00 259.00,86.00 259.00,86.00 Z
           M 155.00,87.00
           C 155.00,87.00 133.58,88.02 133.58,88.02
             133.58,88.02 131.00,95.00 131.00,95.00
             131.00,95.00 155.00,94.00 155.00,94.00
             155.00,94.00 155.00,87.00 155.00,87.00 Z
           M 195.00,88.00
           C 195.00,88.00 159.00,87.00 159.00,87.00
             159.00,87.00 158.00,94.00 158.00,94.00
             158.00,94.00 195.00,94.00 195.00,94.00
             195.00,94.00 195.00,88.00 195.00,88.00 Z
           M 206.00,94.00
           C 205.68,84.86 199.32,84.86 199.00,94.00
             199.00,94.00 206.00,94.00 206.00,94.00 Z
           M 126.00,97.00
           C 126.00,97.00 107.00,98.00 107.00,98.00
             107.00,98.00 104.00,112.00 104.00,112.00
             104.00,112.00 124.00,112.00 124.00,112.00
             124.00,112.00 126.00,97.00 126.00,97.00 Z
           M 154.00,97.00
           C 154.00,97.00 137.00,97.00 137.00,97.00
             137.00,97.00 131.02,98.60 131.02,98.60
             131.02,98.60 129.00,113.00 129.00,113.00
             129.00,113.00 146.00,113.00 146.00,113.00
             146.00,113.00 151.83,111.43 151.83,111.43
             151.83,111.43 154.00,97.00 154.00,97.00 Z
           M 195.00,97.00
           C 195.00,97.00 169.00,97.00 169.00,97.00
             166.64,97.00 160.49,96.58 158.74,97.99
             156.73,99.62 156.13,110.14 156.00,113.00
             156.00,113.00 195.00,113.00 195.00,113.00
             195.00,113.00 195.00,97.00 195.00,97.00 Z
           M 207.00,97.00
           C 207.00,97.00 200.00,97.00 200.00,97.00
             200.00,97.00 200.00,113.00 200.00,113.00
             200.00,113.00 207.00,113.00 207.00,113.00
             207.00,113.00 207.00,97.00 207.00,97.00 Z
           M 261.00,112.00
           C 260.37,108.89 258.91,99.75 256.49,98.02
             254.34,96.49 245.94,97.00 243.00,97.00
             243.00,97.00 210.00,97.00 210.00,97.00
             210.00,97.00 211.00,113.00 211.00,113.00
             211.00,113.00 244.00,113.00 244.00,113.00
             244.00,113.00 261.00,112.00 261.00,112.00 Z
           M 104.00,98.00
           C 104.00,98.00 92.00,98.00 92.00,98.00
             92.00,98.00 72.00,99.00 72.00,99.00
             72.00,99.00 69.00,110.00 69.00,110.00
             74.89,111.43 79.07,110.93 85.00,111.00
             85.00,111.00 96.95,111.84 96.95,111.84
             102.33,111.08 103.32,102.44 104.00,98.00 Z
           M 307.00,110.00
           C 307.00,110.00 302.49,100.02 302.49,100.02
             302.49,100.02 294.00,98.72 294.00,98.72
             294.00,98.72 266.00,98.00 266.00,98.00
             266.00,98.00 269.00,111.96 269.00,111.96
             269.00,111.96 282.00,111.96 282.00,111.96
             282.00,111.96 292.00,111.00 292.00,111.00
             292.00,111.00 307.00,110.00 307.00,110.00 Z
           M 69.00,99.00
           C 62.37,100.11 62.00,104.25 60.00,110.00
             60.00,110.00 66.00,110.00 66.00,110.00
             66.00,110.00 69.00,99.00 69.00,99.00 Z
           M 319.00,110.00
           C 318.12,100.30 315.17,99.20 306.00,99.00
             308.36,109.09 309.11,109.99 319.00,110.00 Z
           M 61.00,100.00
           C 61.00,100.00 45.00,100.97 45.00,100.97
             45.00,100.97 34.42,102.98 34.42,102.98
             34.42,102.98 32.00,107.00 32.00,107.00
             32.00,107.00 57.00,110.00 57.00,110.00
             57.00,110.00 61.00,100.00 61.00,100.00 Z
           M 340.00,108.00
           C 339.54,105.88 339.34,104.14 337.57,102.60
             335.15,100.50 322.61,100.01 319.00,100.00
             319.00,100.00 322.00,109.00 322.00,109.00
             322.00,109.00 340.00,108.00 340.00,108.00 Z
           M 350.00,104.00
           C 350.00,104.00 340.00,102.00 340.00,102.00
             340.00,102.00 342.00,108.00 342.00,108.00
             342.00,108.00 350.00,106.00 350.00,106.00
             350.00,106.00 350.00,104.00 350.00,104.00 Z
           M 31.00,103.00
           C 31.00,103.00 22.00,105.00 22.00,105.00
             22.00,105.00 29.00,107.00 29.00,107.00
             29.00,107.00 31.00,103.00 31.00,103.00 Z
           M 352.00,103.00
           C 352.04,105.46 352.82,105.05 355.00,105.00
             355.00,105.00 352.00,103.00 352.00,103.00 Z
           M 56.00,112.00
           C 56.00,112.00 31.00,109.00 31.00,109.00
             28.01,114.84 23.58,127.55 23.00,134.00
             23.00,134.00 43.00,132.42 43.00,132.42
             44.79,132.17 48.06,132.00 49.49,130.98
             51.98,129.20 55.47,115.44 56.00,112.00 Z
           M 360.00,134.00
           C 360.00,134.00 355.19,117.00 355.19,117.00
             355.19,117.00 351.35,109.99 351.35,109.99
             351.35,109.99 344.00,109.00 344.00,109.00
             344.00,109.00 349.33,126.00 349.33,126.00
             349.33,126.00 352.70,133.01 352.70,133.01
             352.70,133.01 360.00,134.00 360.00,134.00 Z
           M 350.00,133.00
           C 350.00,133.00 344.94,117.00 344.94,117.00
             344.94,117.00 340.61,110.79 340.61,110.79
             340.61,110.79 324.00,110.79 324.00,110.79
             324.18,114.58 327.05,128.97 329.58,130.99
             332.73,133.50 345.68,133.00 350.00,133.00 Z
           M 65.00,112.00
           C 63.27,112.06 61.17,111.89 59.70,112.99
             57.14,114.92 53.82,128.39 53.00,132.00
             53.00,132.00 59.27,131.01 59.27,131.01
             59.27,131.01 65.00,112.00 65.00,112.00 Z
           M 100.00,114.00
           C 100.00,114.00 89.00,113.09 89.00,113.09
             89.00,113.09 69.00,112.00 69.00,112.00
             66.09,118.00 64.54,125.36 64.00,132.00
             64.00,132.00 88.00,131.00 88.00,131.00
             88.00,131.00 95.27,130.01 95.27,130.01
             95.27,130.01 100.00,114.00 100.00,114.00 Z
           M 321.00,112.00
           C 321.00,112.00 311.00,112.00 311.00,112.00
             311.53,115.42 315.03,129.22 317.51,130.98
             319.28,132.23 322.87,131.99 325.00,132.00
             325.00,132.00 321.00,112.00 321.00,112.00 Z
           M 313.00,132.00
           C 312.68,128.15 310.59,116.20 307.49,114.02
             305.71,112.77 302.14,113.00 300.00,113.00
             300.00,113.00 270.00,114.00 270.00,114.00
             270.00,114.00 272.93,129.40 272.93,129.40
             272.93,129.40 280.00,131.00 280.00,131.00
             280.00,131.00 301.00,131.00 301.00,131.00
             301.00,131.00 313.00,132.00 313.00,132.00 Z
           M 123.00,114.00
           C 123.00,114.00 103.00,114.00 103.00,114.00
             103.00,114.00 100.00,131.00 100.00,131.00
             100.00,131.00 122.00,130.00 122.00,130.00
             122.00,130.00 123.00,114.00 123.00,114.00 Z
           M 264.00,130.00
           C 263.86,126.85 262.87,116.90 260.42,115.01
             257.77,113.00 246.93,114.98 243.00,115.01
             243.00,115.01 212.00,115.01 212.00,115.01
             212.00,115.01 212.00,130.00 212.00,130.00
             212.00,130.00 264.00,130.00 264.00,130.00 Z
           M 152.00,115.00
           C 152.00,115.00 128.00,115.00 128.00,115.00
             128.00,115.00 126.00,130.00 126.00,130.00
             126.00,130.00 151.00,130.00 151.00,130.00
             151.00,130.00 152.00,115.00 152.00,115.00 Z
           M 195.00,115.00
           C 195.00,115.00 156.00,115.00 156.00,115.00
             156.00,115.00 155.00,130.00 155.00,130.00
             155.00,130.00 195.00,130.00 195.00,130.00
             195.00,130.00 195.00,115.00 195.00,115.00 Z
           M 208.00,115.00
           C 208.00,115.00 200.00,115.00 200.00,115.00
             200.00,128.91 198.90,129.88 208.00,130.00
             208.00,130.00 208.00,115.00 208.00,115.00 Z
           M 195.00,142.00
           C 195.00,139.55 195.48,134.67 193.40,133.02
             191.92,131.85 188.82,132.01 187.00,132.00
             187.00,132.00 174.00,132.00 174.00,132.00
             174.00,132.00 154.00,133.00 154.00,133.00
             154.00,133.00 154.00,142.00 154.00,142.00
             154.00,142.00 195.00,142.00 195.00,142.00 Z
           M 208.93,141.85
           C 208.93,141.85 208.93,137.02 208.93,137.02
             208.70,136.06 208.53,135.15 207.98,134.31
             202.99,126.85 195.69,139.45 203.23,141.85
             204.42,142.06 207.64,142.00 208.93,141.85 Z
           M 96.00,133.97
           C 96.00,133.97 82.00,133.97 82.00,133.97
             82.00,133.97 63.00,133.97 63.00,133.97
             63.00,133.97 62.00,141.00 62.00,141.00
             62.00,141.00 94.00,142.00 94.00,142.00
             94.00,142.00 96.00,133.97 96.00,133.97 Z
           M 121.00,133.00
           C 121.00,133.00 99.00,133.00 99.00,133.00
             99.00,133.00 98.00,142.00 98.00,142.00
             98.00,142.00 114.00,142.00 114.00,142.00
             114.00,142.00 119.83,140.43 119.83,140.43
             119.83,140.43 121.00,133.00 121.00,133.00 Z
           M 150.00,133.00
           C 150.00,133.00 126.00,133.00 126.00,133.00
             126.00,133.00 125.00,142.00 125.00,142.00
             125.00,142.00 150.00,142.00 150.00,142.00
             150.00,142.00 150.00,133.00 150.00,133.00 Z
           M 265.00,133.00
           C 265.00,133.00 212.00,133.00 212.00,133.00
             212.00,133.00 213.00,142.00 213.00,142.00
             213.00,142.00 266.00,142.00 266.00,142.00
             266.00,142.00 265.00,133.00 265.00,133.00 Z
           M 315.00,141.09
           C 314.86,138.68 315.00,135.79 312.57,134.57
             310.72,133.64 300.72,134.03 298.00,134.00
             298.00,134.00 288.00,133.04 288.00,133.04
             288.00,133.04 273.00,133.04 273.00,133.04
             273.01,135.30 272.62,139.41 274.60,141.09
             277.03,142.90 284.05,141.63 287.00,141.09
             287.00,141.09 315.00,141.09 315.00,141.09 Z
           M 59.00,134.00
           C 53.45,134.20 52.49,134.48 51.00,140.00
             51.00,140.00 58.00,141.00 58.00,141.00
             58.00,141.00 59.00,134.00 59.00,134.00 Z
           M 327.00,140.00
           C 325.88,133.33 322.85,134.02 317.00,134.00
             317.00,134.00 319.00,141.00 319.00,141.00
             319.00,141.00 327.00,140.00 327.00,140.00 Z
           M 49.00,135.04
           C 49.00,135.04 34.00,135.04 34.00,135.04
             34.00,135.04 22.00,136.00 22.00,136.00
             22.00,136.00 22.00,139.00 22.00,139.00
             22.00,139.00 40.00,139.99 40.00,139.99
             40.00,139.99 47.40,138.98 47.40,138.98
             47.40,138.98 49.00,135.04 49.00,135.04 Z
           M 352.00,139.00
           C 347.75,133.27 336.52,135.00 330.00,135.00
             330.00,135.00 330.00,140.00 330.00,140.00
             330.00,140.00 352.00,139.00 352.00,139.00 Z
           M 361.00,137.00
           C 361.00,137.00 353.00,136.00 353.00,136.00
             353.00,136.00 353.00,139.00 353.00,139.00
             353.00,139.00 361.00,137.00 361.00,137.00 Z
           M 18.00,137.00
           C 18.00,137.00 13.00,138.00 13.00,138.00
             13.00,138.00 18.00,137.00 18.00,137.00 Z
           M 364.00,137.00
           C 364.00,137.00 363.00,137.00 363.00,137.00
             363.00,137.00 364.00,138.00 364.00,138.00
             364.00,138.00 364.00,137.00 364.00,137.00 Z
           M 362.00,140.00
           C 362.00,140.00 354.00,141.00 354.00,141.00
             354.00,141.00 359.00,170.00 359.00,170.00
             359.00,170.00 367.00,170.00 367.00,170.00
             366.61,161.40 364.40,148.28 362.00,140.00 Z
           M 48.00,142.00
           C 48.00,142.00 31.00,141.42 31.00,141.42
             31.00,141.42 21.58,142.02 21.58,142.02
             21.58,142.02 18.92,150.00 18.92,150.00
             18.92,150.00 16.00,169.00 16.00,169.00
             16.00,169.00 20.00,169.85 20.00,169.85
             20.00,169.85 29.00,169.02 29.00,169.02
             29.00,169.02 44.00,169.02 44.00,169.02
             44.00,169.02 48.00,142.00 48.00,142.00 Z
           M 357.00,170.00
           C 356.94,162.92 355.62,155.92 354.20,149.00
             353.69,146.53 353.30,142.77 350.70,141.81
             348.69,140.72 345.19,141.62 343.00,141.81
             343.00,141.81 331.00,141.81 331.00,141.81
             331.00,141.81 334.00,169.00 334.00,169.00
             334.00,169.00 357.00,170.00 357.00,170.00 Z
           M 58.00,143.00
           C 58.00,143.00 51.00,142.00 51.00,142.00
             48.87,148.46 47.06,162.12 47.00,169.00
             47.00,169.00 55.00,169.00 55.00,169.00
             55.00,169.00 58.00,143.00 58.00,143.00 Z
           M 331.00,169.00
           C 331.00,169.00 329.00,150.00 329.00,150.00
             329.00,150.00 326.44,143.06 326.44,143.06
             326.44,143.06 319.00,143.06 319.00,143.06
             319.00,143.06 321.72,161.00 321.72,161.00
             321.72,161.00 323.60,167.98 323.60,167.98
             323.60,167.98 331.00,169.00 331.00,169.00 Z
           M 94.00,144.00
           C 94.00,144.00 84.00,143.04 84.00,143.04
             84.00,143.04 69.00,143.04 69.00,143.04
             69.00,143.04 62.60,144.02 62.60,144.02
             62.60,144.02 60.42,151.00 60.42,151.00
             60.42,151.00 59.00,169.00 59.00,169.00
             59.00,169.00 84.00,169.00 84.00,169.00
             84.00,169.00 90.98,167.40 90.98,167.40
             90.98,167.40 92.17,160.00 92.17,160.00
             92.17,160.00 94.00,144.00 94.00,144.00 Z
           M 316.00,143.00
           C 316.00,143.00 298.00,143.00 298.00,143.00
             298.00,143.00 286.00,143.96 286.00,143.96
             286.00,143.96 274.00,143.96 274.00,143.96
             274.00,143.96 275.00,159.00 275.00,159.00
             275.00,159.00 276.17,167.43 276.17,167.43
             276.17,167.43 283.00,169.00 283.00,169.00
             283.00,169.00 319.00,169.00 319.00,169.00
             319.00,169.00 316.00,143.00 316.00,143.00 Z
           M 120.00,144.00
           C 120.00,144.00 106.00,144.00 106.00,144.00
             106.00,144.00 98.02,145.60 98.02,145.60
             98.02,145.60 95.97,162.00 95.97,162.00
             95.97,162.00 95.97,167.40 95.97,167.40
             95.97,167.40 102.00,169.00 102.00,169.00
             102.00,169.00 117.40,167.98 117.40,167.98
             117.40,167.98 119.00,161.00 119.00,161.00
             119.00,161.00 120.00,144.00 120.00,144.00 Z
           M 148.99,168.00
           C 148.99,168.00 148.99,152.00 148.99,152.00
             148.99,152.00 148.99,145.60 148.99,145.60
             148.99,145.60 141.00,144.00 141.00,144.00
             141.00,144.00 125.00,144.00 125.00,144.00
             125.00,144.00 124.04,155.00 124.04,155.00
             124.04,155.00 124.04,168.00 124.04,168.00
             124.04,168.00 148.99,168.00 148.99,168.00 Z
           M 195.00,145.00
           C 195.00,145.00 154.00,144.00 154.00,144.00
             154.00,144.00 153.00,168.00 153.00,168.00
             153.00,168.00 195.00,168.00 195.00,168.00
             195.00,168.00 195.00,145.00 195.00,145.00 Z
           M 209.00,168.00
           C 209.00,168.00 209.00,151.00 209.00,151.00
             208.95,148.80 209.14,145.66 206.69,144.64
             203.85,143.46 201.60,145.32 201.07,148.11
             201.07,148.11 201.07,168.00 201.07,168.00
             201.07,168.00 209.00,168.00 209.00,168.00 Z
           M 266.00,144.00
           C 266.00,144.00 220.00,144.00 220.00,144.00
             212.51,144.14 213.01,146.26 213.00,153.00
             212.98,165.32 211.91,167.86 220.00,168.00
             220.00,168.00 248.00,168.00 248.00,168.00
             248.00,168.00 268.00,169.00 268.00,169.00
             268.00,169.00 266.00,144.00 266.00,144.00 Z
           M 16.00,154.00
           C 16.00,154.00 16.00,160.00 16.00,160.00
             16.00,160.00 16.00,154.00 16.00,154.00 Z
           M 15.00,160.00
           C 13.75,163.17 13.75,164.83 15.00,168.00
             15.00,168.00 15.00,160.00 15.00,160.00 Z
           M 14.00,168.00
           C 14.00,168.00 13.00,168.00 13.00,168.00
             13.00,168.00 14.00,169.00 14.00,169.00
             14.00,169.00 14.00,168.00 14.00,168.00 Z
           M 91.00,171.00
           C 91.00,171.00 70.00,172.00 70.00,172.00
             70.00,172.00 91.00,171.00 91.00,171.00 Z
           M 118.00,171.00
           C 118.00,171.00 95.00,172.00 95.00,172.00
             95.00,172.00 118.00,173.00 118.00,173.00
             118.00,173.00 118.00,171.00 118.00,171.00 Z
           M 148.00,171.00
           C 148.00,171.00 124.00,171.00 124.00,171.00
             124.00,171.00 124.00,173.00 124.00,173.00
             124.00,173.00 148.00,173.00 148.00,173.00
             148.00,173.00 148.00,171.00 148.00,171.00 Z
           M 195.00,171.00
           C 195.00,171.00 153.00,171.00 153.00,171.00
             153.00,171.00 153.00,173.00 153.00,173.00
             153.00,173.00 195.00,173.00 195.00,173.00
             195.00,173.00 195.00,171.00 195.00,171.00 Z
           M 209.00,171.00
           C 209.00,171.00 201.00,171.00 201.00,171.00
             201.00,171.00 201.00,173.00 201.00,173.00
             201.00,173.00 209.00,173.00 209.00,173.00
             209.00,173.00 209.00,171.00 209.00,171.00 Z
           M 268.00,171.00
           C 268.00,171.00 214.00,171.00 214.00,171.00
             214.00,171.00 214.00,173.00 214.00,173.00
             214.00,173.00 268.00,173.00 268.00,173.00
             268.00,173.00 268.00,171.00 268.00,171.00 Z
           M 307.00,171.00
           C 307.00,171.00 276.00,172.00 276.00,172.00
             276.00,172.00 289.00,172.00 289.00,172.00
             289.00,172.00 307.00,171.00 307.00,171.00 Z
           M 14.00,174.00
           C 11.44,180.38 11.51,198.73 14.00,205.00
             14.00,205.00 14.00,174.00 14.00,174.00 Z
           M 43.00,174.00
           C 43.00,174.00 16.00,174.00 16.00,174.00
             16.00,174.00 15.18,190.00 15.18,190.00
             15.18,190.00 16.00,205.00 16.00,205.00
             16.00,205.00 44.00,204.00 44.00,204.00
             44.00,204.00 43.00,174.00 43.00,174.00 Z
           M 55.00,204.00
           C 55.00,204.00 54.16,187.00 54.16,187.00
             54.16,187.00 54.16,176.31 54.16,176.31
             53.52,174.32 51.03,173.86 49.14,174.33
             45.33,175.29 46.01,179.96 46.00,183.00
             46.00,183.00 46.00,204.00 46.00,204.00
             46.00,204.00 55.00,204.00 55.00,204.00 Z
           M 91.00,175.00
           C 91.00,175.00 66.00,174.00 66.00,174.00
             66.00,174.00 59.60,175.02 59.60,175.02
             59.60,175.02 58.00,182.00 58.00,182.00
             58.00,182.00 59.02,202.40 59.02,202.40
             59.02,202.40 65.00,204.00 65.00,204.00
             65.00,204.00 91.00,204.00 91.00,204.00
             91.00,204.00 91.00,175.00 91.00,175.00 Z
           M 320.00,174.04
           C 320.00,174.04 305.00,174.04 305.00,174.04
             305.00,174.04 294.00,175.00 294.00,175.00
             294.00,175.00 276.00,175.00 276.00,175.00
             276.00,175.00 276.00,204.00 276.00,204.00
             276.00,204.00 320.00,204.00 320.00,204.00
             320.00,204.00 320.00,174.04 320.00,174.04 Z
           M 331.00,204.00
           C 331.00,204.00 332.00,182.00 332.00,182.00
             332.00,182.00 330.26,174.99 330.26,174.99
             330.26,174.99 323.00,174.00 323.00,174.00
             323.00,174.00 323.00,204.00 323.00,204.00
             323.00,204.00 331.00,204.00 331.00,204.00 Z
           M 358.00,174.00
           C 358.00,174.00 335.00,174.00 335.00,174.00
             335.00,174.00 335.00,204.00 335.00,204.00
             335.00,204.00 350.00,204.83 350.00,204.83
             350.00,204.83 356.40,203.98 356.40,203.98
             356.40,203.98 358.00,196.00 358.00,196.00
             358.00,196.00 358.00,174.00 358.00,174.00 Z
           M 367.00,205.00
           C 367.00,205.00 368.00,182.00 368.00,182.00
             368.00,182.00 366.26,174.99 366.26,174.99
             366.26,174.99 359.00,174.00 359.00,174.00
             359.00,174.00 360.00,189.00 360.00,189.00
             360.00,189.00 359.00,205.00 359.00,205.00
             359.00,205.00 367.00,205.00 367.00,205.00 Z
           M 119.00,175.00
           C 119.00,175.00 95.00,175.00 95.00,175.00
             95.00,175.00 95.00,204.00 95.00,204.00
             95.00,204.00 112.00,204.00 112.00,204.00
             113.62,203.97 116.08,204.03 117.40,202.98
             119.63,201.20 118.56,197.40 118.28,195.00
             117.33,186.80 118.65,182.54 119.00,175.00 Z
           M 149.00,176.00
           C 149.00,176.00 124.00,175.00 124.00,175.00
             122.23,188.44 123.42,191.40 124.00,204.00
             124.00,204.00 142.00,204.00 142.00,204.00
             142.00,204.00 147.95,202.40 147.95,202.40
             147.95,202.40 147.95,193.00 147.95,193.00
             147.95,193.00 149.00,176.00 149.00,176.00 Z
           M 195.00,175.00
           C 195.00,175.00 153.00,175.00 153.00,175.00
             153.00,175.00 153.00,204.00 153.00,204.00
             153.00,204.00 169.00,204.00 169.00,204.00
             169.00,204.00 181.00,203.04 181.00,203.04
             181.00,203.04 195.00,203.04 195.00,203.04
             195.00,203.04 195.00,175.00 195.00,175.00 Z
           M 201.00,175.00
           C 201.00,175.00 201.00,187.00 201.00,187.00
             201.00,187.00 201.00,197.00 201.00,197.00
             201.06,199.95 201.00,203.71 205.00,203.71
             206.23,203.71 207.30,203.29 208.15,202.40
             210.80,199.60 210.05,187.13 210.00,183.00
             209.97,181.11 210.04,178.12 208.83,176.57
             207.26,174.58 203.30,175.01 201.00,175.00 Z
           M 269.00,175.00
           C 269.00,175.00 214.00,175.00 214.00,175.00
             214.00,175.00 214.00,197.00 214.00,197.00
             214.00,197.00 215.60,202.98 215.60,202.98
             215.60,202.98 223.00,204.00 223.00,204.00
             223.00,204.00 262.00,204.00 262.00,204.00
             262.00,204.00 267.83,202.43 267.83,202.43
             267.83,202.43 269.00,194.00 269.00,194.00
             269.00,194.00 269.00,175.00 269.00,175.00 Z
           M 54.00,206.00
           C 54.00,206.00 53.00,206.00 53.00,206.00
             53.00,206.00 54.00,207.00 54.00,207.00
             54.00,207.00 54.00,206.00 54.00,206.00 Z
           M 91.00,206.00
           C 84.55,206.00 63.73,205.12 59.00,207.00
             65.45,207.00 86.27,207.88 91.00,206.00 Z
           M 119.00,206.00
           C 119.00,206.00 95.00,207.00 95.00,207.00
             101.23,207.82 113.88,209.77 119.00,206.00 Z
           M 149.00,206.00
           C 149.00,206.00 124.00,206.00 124.00,206.00
             124.00,206.00 124.00,208.00 124.00,208.00
             130.24,208.00 144.29,209.47 149.00,206.00 Z
           M 195.00,206.00
           C 195.00,206.00 153.00,206.00 153.00,206.00
             153.00,206.00 153.00,208.00 153.00,208.00
             153.00,208.00 195.00,208.00 195.00,208.00
             195.00,208.00 195.00,206.00 195.00,206.00 Z
           M 209.00,206.00
           C 209.00,206.00 201.00,206.00 201.00,206.00
             201.00,206.00 201.00,208.00 201.00,208.00
             201.00,208.00 209.00,208.00 209.00,208.00
             209.00,208.00 209.00,206.00 209.00,206.00 Z
           M 268.00,206.00
           C 268.00,206.00 214.00,206.00 214.00,206.00
             214.00,206.00 214.00,208.00 214.00,208.00
             214.00,208.00 268.00,208.00 268.00,208.00
             268.00,208.00 268.00,206.00 268.00,206.00 Z
           M 319.00,206.00
           C 319.00,206.00 291.00,206.00 291.00,206.00
             291.00,206.00 276.00,207.00 276.00,207.00
             276.00,207.00 304.00,207.00 304.00,207.00
             304.00,207.00 319.00,206.00 319.00,206.00 Z
           M 15.00,209.00
           C 13.75,212.17 13.75,213.83 15.00,217.00
             15.00,217.00 15.00,209.00 15.00,209.00 Z
           M 44.00,210.00
           C 44.00,210.00 17.00,209.00 17.00,209.00
             17.00,209.00 21.00,238.00 21.00,238.00
             21.00,238.00 48.00,236.00 48.00,236.00
             48.00,236.00 44.00,210.00 44.00,210.00 Z
           M 357.00,209.00
           C 353.09,209.00 338.06,208.23 335.57,210.17
             333.90,211.48 333.71,214.99 333.42,217.00
             333.42,217.00 331.00,236.00 331.00,236.00
             331.00,236.00 346.00,237.00 346.00,237.00
             346.00,237.00 351.28,236.01 351.28,236.01
             351.28,236.01 354.00,229.00 354.00,229.00
             354.00,229.00 357.00,209.00 357.00,209.00 Z
           M 367.00,209.00
           C 367.00,209.00 359.60,210.02 359.60,210.02
             359.60,210.02 357.41,218.00 357.41,218.00
             357.41,218.00 354.00,238.00 354.00,238.00
             354.00,238.00 362.00,238.00 362.00,238.00
             362.00,238.00 367.00,209.00 367.00,209.00 Z
           M 55.00,210.00
           C 55.00,210.00 47.00,210.00 47.00,210.00
             47.00,210.00 49.25,228.00 49.25,228.00
             49.25,228.00 51.73,235.01 51.73,235.01
             51.73,235.01 58.00,236.00 58.00,236.00
             58.00,236.00 55.00,210.00 55.00,210.00 Z
           M 92.00,210.00
           C 92.00,210.00 59.00,210.00 59.00,210.00
             59.00,210.00 62.00,236.00 62.00,236.00
             62.00,236.00 94.00,235.00 94.00,235.00
             94.00,235.00 92.00,210.00 92.00,210.00 Z
           M 120.00,234.00
           C 120.00,234.00 119.09,219.00 119.09,219.00
             119.09,219.00 117.98,211.60 117.98,211.60
             117.98,211.60 111.00,210.00 111.00,210.00
             111.00,210.00 95.00,211.00 95.00,211.00
             95.00,211.00 98.00,235.00 98.00,235.00
             98.00,235.00 120.00,234.00 120.00,234.00 Z
           M 150.00,234.00
           C 150.00,234.00 149.00,217.00 149.00,217.00
             149.00,217.00 147.40,211.02 147.40,211.02
             147.40,211.02 140.00,210.00 140.00,210.00
             140.00,210.00 124.04,210.00 124.04,210.00
             124.04,210.00 124.04,222.00 124.04,222.00
             124.04,222.00 125.00,234.00 125.00,234.00
             125.00,234.00 150.00,234.00 150.00,234.00 Z
           M 195.00,210.00
           C 195.00,210.00 153.00,210.00 153.00,210.00
             153.00,210.00 154.00,234.00 154.00,234.00
             154.00,234.00 195.00,234.00 195.00,234.00
             195.00,234.00 195.00,210.00 195.00,210.00 Z
           M 209.00,210.00
           C 209.00,210.00 202.60,211.02 202.60,211.02
             202.60,211.02 201.00,219.00 201.00,219.00
             201.00,219.00 201.00,234.00 201.00,234.00
             201.00,234.00 209.00,234.00 209.00,234.00
             209.00,234.00 209.00,210.00 209.00,210.00 Z
           M 268.00,210.00
           C 268.00,210.00 220.00,210.00 220.00,210.00
             220.00,210.00 214.74,210.99 214.74,210.99
             214.74,210.99 213.00,219.00 213.00,219.00
             213.00,219.00 213.00,234.00 213.00,234.00
             213.00,234.00 266.00,234.00 266.00,234.00
             266.00,234.00 268.00,210.00 268.00,210.00 Z
           M 319.00,210.00
           C 319.00,210.00 284.00,210.00 284.00,210.00
             284.00,210.00 276.02,211.60 276.02,211.60
             276.02,211.60 274.99,219.00 274.99,219.00
             274.99,219.00 274.00,235.00 274.00,235.00
             274.00,235.00 305.00,235.00 305.00,235.00
             305.00,235.00 315.07,234.36 315.07,234.36
             315.07,234.36 317.25,227.00 317.25,227.00
             317.25,227.00 319.00,210.00 319.00,210.00 Z
           M 331.00,210.00
           C 331.00,210.00 322.00,210.00 322.00,210.00
             322.00,210.00 319.00,236.00 319.00,236.00
             319.00,236.00 328.00,236.00 328.00,236.00
             328.00,236.00 331.00,210.00 331.00,210.00 Z
           M 16.00,217.00
           C 16.00,217.00 16.00,223.00 16.00,223.00
             16.00,223.00 16.00,217.00 16.00,217.00 Z
           M 121.00,246.00
           C 121.00,246.00 119.98,237.60 119.98,237.60
             119.98,237.60 114.00,236.09 114.00,236.09
             114.00,236.09 98.00,237.00 98.00,237.00
             98.00,237.00 99.00,245.00 99.00,245.00
             99.00,245.00 121.00,246.00 121.00,246.00 Z
           M 150.00,236.00
           C 150.00,236.00 125.00,237.00 125.00,237.00
             125.00,237.00 126.00,246.00 126.00,246.00
             126.00,246.00 150.00,246.00 150.00,246.00
             150.00,246.00 150.00,236.00 150.00,236.00 Z
           M 195.00,236.00
           C 195.00,236.00 154.00,236.00 154.00,236.00
             154.00,238.45 153.52,243.33 155.60,244.98
             157.19,246.23 161.01,246.00 163.00,246.00
             163.00,246.00 195.00,246.00 195.00,246.00
             195.00,246.00 195.00,236.00 195.00,236.00 Z
           M 209.00,236.00
           C 199.65,236.04 200.01,236.79 200.00,246.00
             200.00,246.00 208.00,246.00 208.00,246.00
             208.00,246.00 209.00,236.00 209.00,236.00 Z
           M 266.00,237.00
           C 266.00,237.00 247.00,236.00 247.00,236.00
             247.00,236.00 213.00,236.00 213.00,236.00
             213.00,236.00 212.00,246.00 212.00,246.00
             212.00,246.00 258.00,246.00 258.00,246.00
             264.94,245.87 264.60,244.63 266.00,237.00 Z
           M 95.00,237.00
           C 95.00,237.00 76.00,237.00 76.00,237.00
             76.00,237.00 62.00,238.00 62.00,238.00
             62.00,238.00 64.58,243.98 64.58,243.98
             64.58,243.98 71.00,245.00 71.00,245.00
             71.00,245.00 96.00,245.00 96.00,245.00
             96.00,245.00 95.00,237.00 95.00,237.00 Z
           M 315.00,238.00
           C 315.00,238.00 301.00,237.00 301.00,237.00
             301.00,237.00 273.00,237.00 273.00,237.00
             273.00,237.00 272.00,245.00 272.00,245.00
             272.00,245.00 300.00,245.00 300.00,245.00
             302.47,245.00 309.82,245.28 311.72,244.40
             314.36,243.18 314.58,240.51 315.00,238.00 Z
           M 49.00,238.00
           C 49.00,238.00 39.00,238.91 39.00,238.91
             39.00,238.91 22.00,240.00 22.00,240.00
             24.68,244.01 27.55,242.90 32.00,243.01
             32.00,243.01 50.00,244.00 50.00,244.00
             50.00,244.00 49.00,238.00 49.00,238.00 Z
           M 59.00,238.00
           C 59.00,238.00 52.00,238.00 52.00,238.00
             52.52,244.26 54.24,243.93 60.00,244.00
             60.00,244.00 59.00,238.00 59.00,238.00 Z
           M 327.00,238.00
           C 327.00,238.00 318.00,238.00 318.00,238.00
             318.00,238.00 317.00,244.00 317.00,244.00
             317.00,244.00 326.00,244.00 326.00,244.00
             326.00,244.00 327.00,238.00 327.00,238.00 Z
           M 351.00,239.01
           C 351.00,239.01 338.00,239.01 338.00,239.01
             338.00,239.01 331.51,239.01 331.51,239.01
             331.51,239.01 329.00,244.00 329.00,244.00
             329.00,244.00 343.00,243.09 343.00,243.09
             343.00,243.09 349.41,241.98 349.41,241.98
             349.41,241.98 351.00,239.01 351.00,239.01 Z
           M 18.00,240.00
           C 18.00,240.00 13.00,242.00 13.00,242.00
             13.00,242.00 18.00,240.00 18.00,240.00 Z
           M 361.00,240.00
           C 356.85,240.02 354.50,239.27 352.00,243.00
             352.00,243.00 361.00,242.00 361.00,242.00
             361.00,242.00 361.00,240.00 361.00,240.00 Z
           M 364.00,241.00
           C 364.00,241.00 363.00,241.00 363.00,241.00
             363.00,241.00 364.00,242.00 364.00,242.00
             364.00,242.00 364.00,241.00 364.00,241.00 Z
           M 360.00,244.00
           C 360.00,244.00 351.00,245.00 351.00,245.00
             351.00,245.00 343.00,268.94 343.00,268.94
             343.00,268.94 350.50,268.94 350.50,268.94
             350.50,268.94 354.40,262.00 354.40,262.00
             354.40,262.00 360.00,244.00 360.00,244.00 Z
           M 57.00,267.00
           C 56.38,263.55 52.06,248.70 49.57,247.02
             47.54,245.65 42.51,246.00 40.00,246.00
             40.00,246.00 23.00,245.00 23.00,245.00
             23.00,245.00 28.34,262.00 28.34,262.00
             28.34,262.00 32.39,268.24 32.39,268.24
             32.39,268.24 40.00,268.24 40.00,268.24
             40.00,268.24 57.00,267.00 57.00,267.00 Z
           M 349.00,245.00
           C 349.00,245.00 329.56,247.02 329.56,247.02
             327.07,248.85 323.72,263.41 323.00,267.00
             323.00,267.00 342.00,268.00 342.00,268.00
             342.00,268.00 349.00,245.00 349.00,245.00 Z
           M 65.00,266.00
           C 64.50,262.75 61.73,249.72 59.44,248.02
             57.93,246.91 55.77,247.06 54.00,247.00
             54.00,247.00 59.00,266.00 59.00,266.00
             59.00,266.00 65.00,266.00 65.00,266.00 Z
           M 97.00,248.00
           C 97.00,248.00 64.00,247.00 64.00,247.00
             64.95,252.04 66.00,264.99 72.05,265.84
             72.05,265.84 82.00,265.02 82.00,265.02
             82.00,265.02 100.00,265.02 100.00,265.02
             100.00,265.02 97.00,248.00 97.00,248.00 Z
           M 313.00,247.04
           C 313.00,247.04 300.00,247.04 300.00,247.04
             300.00,247.04 289.00,248.00 289.00,248.00
             289.00,248.00 272.00,248.00 272.00,248.00
             272.00,248.00 270.00,264.00 270.00,264.00
             270.00,264.00 279.00,264.96 279.00,264.96
             279.00,264.96 293.00,264.96 293.00,264.96
             293.00,264.96 308.00,266.00 308.00,266.00
             308.00,266.00 313.00,247.04 313.00,247.04 Z
           M 325.00,247.00
           C 322.85,247.00 318.42,246.68 316.72,247.99
             314.30,249.87 311.30,262.67 311.00,266.00
             311.00,266.00 320.00,267.00 320.00,267.00
             320.00,267.00 325.00,247.00 325.00,247.00 Z
           M 123.00,264.00
           C 123.00,260.77 123.00,252.02 120.99,249.60
             119.45,247.74 116.19,248.02 114.00,248.00
             114.00,248.00 100.00,248.00 100.00,248.00
             100.00,248.00 103.00,264.00 103.00,264.00
             103.00,264.00 123.00,264.00 123.00,264.00 Z
           M 151.00,248.96
           C 151.00,248.96 139.00,248.96 139.00,248.96
             139.00,248.96 127.00,248.00 127.00,248.00
             127.00,251.44 126.74,259.80 128.98,262.40
             130.28,263.90 132.18,263.91 134.00,263.98
             134.00,263.98 152.00,263.00 152.00,263.00
             152.00,263.00 151.00,248.96 151.00,248.96 Z
           M 264.00,248.00
           C 264.00,248.00 249.00,248.00 249.00,248.00
             249.00,248.00 233.00,249.00 233.00,249.00
             233.00,249.00 212.00,249.00 212.00,249.00
             212.00,249.00 211.00,263.00 211.00,263.00
             211.00,263.00 226.00,263.00 226.00,263.00
             226.00,263.00 238.00,263.95 238.00,263.95
             238.00,263.95 255.00,263.95 255.00,263.95
             256.62,263.97 258.93,264.07 260.27,263.01
             262.56,261.19 263.75,251.06 264.00,248.00 Z
           M 195.00,249.00
           C 195.00,249.00 155.00,249.00 155.00,249.00
             155.00,249.00 156.00,263.00 156.00,263.00
             156.00,263.00 195.00,263.00 195.00,263.00
             195.00,263.00 195.00,249.00 195.00,249.00 Z
           M 208.00,249.00
           C 208.00,249.00 200.00,249.00 200.00,249.00
             200.00,249.00 200.00,263.00 200.00,263.00
             200.00,263.00 208.00,263.00 208.00,263.00
             208.00,263.00 208.00,249.00 208.00,249.00 Z
           M 154.00,282.00
           C 153.97,279.03 153.54,267.71 151.40,266.01
             148.90,264.05 133.30,266.00 129.00,266.01
             129.06,268.75 129.64,277.44 131.17,279.44
             133.88,282.97 149.39,282.00 154.00,282.00 Z
           M 195.00,265.00
           C 195.00,265.00 156.00,265.00 156.00,265.00
             156.00,265.00 158.00,282.00 158.00,282.00
             158.00,282.00 195.00,282.00 195.00,282.00
             195.00,282.00 195.00,265.00 195.00,265.00 Z
           M 207.00,265.00
           C 207.00,265.00 200.00,265.00 200.00,265.00
             200.00,265.00 199.00,281.00 199.00,281.00
             208.83,283.71 207.00,277.01 207.00,265.00 Z
           M 261.00,266.00
           C 261.00,266.00 211.00,265.00 211.00,265.00
             211.00,265.00 210.00,282.00 210.00,282.00
             210.00,282.00 244.00,281.17 244.00,281.17
             244.00,281.17 256.30,280.01 256.30,280.01
             256.30,280.01 261.00,266.00 261.00,266.00 Z
           M 124.00,266.00
           C 124.00,266.00 104.00,267.00 104.00,267.00
             104.00,267.00 108.72,280.01 108.72,280.01
             108.72,280.01 126.00,281.00 126.00,281.00
             126.00,281.00 124.00,266.00 124.00,266.00 Z
           M 307.00,268.00
           C 307.00,268.00 297.00,267.04 297.00,267.04
             297.00,267.04 283.00,267.04 283.00,267.04
             283.00,267.04 269.00,266.00 269.00,266.00
             269.00,266.00 266.00,281.00 266.00,281.00
             266.00,281.00 287.00,280.00 287.00,280.00
             287.00,280.00 301.58,278.98 301.58,278.98
             301.58,278.98 307.00,268.00 307.00,268.00 Z
           M 105.00,281.00
           C 105.00,281.00 100.28,267.99 100.28,267.99
             100.28,267.99 94.00,267.04 94.00,267.04
             94.00,267.04 80.00,267.04 80.00,267.04
             80.00,267.04 69.00,268.00 69.00,268.00
             69.00,268.00 73.51,278.26 73.51,278.26
             73.51,278.26 83.00,280.00 83.00,280.00
             83.00,280.00 105.00,281.00 105.00,281.00 Z
           M 69.00,279.00
           C 68.07,273.01 67.79,268.54 61.00,268.00
             62.02,273.62 62.80,277.94 69.00,279.00 Z
           M 319.00,269.00
           C 319.00,269.00 309.00,268.00 309.00,268.00
             309.00,268.00 305.00,279.00 305.00,279.00
             314.65,279.00 316.55,279.44 319.00,269.00 Z
           M 62.00,279.00
           C 61.31,276.06 60.32,271.77 57.61,270.02
             53.96,267.67 38.04,270.59 33.00,271.00
             33.00,271.00 35.43,275.98 35.43,275.98
             35.43,275.98 43.00,277.28 43.00,277.28
             43.00,277.28 62.00,279.00 62.00,279.00 Z
           M 340.00,271.00
           C 336.81,270.09 325.26,268.13 322.65,269.99
             320.42,271.58 319.59,275.49 319.00,278.00
             323.67,278.00 333.89,278.66 337.35,275.42
             338.65,274.21 339.26,272.56 340.00,271.00 Z
           M 350.00,272.00
           C 343.48,270.84 341.18,269.83 339.00,277.00
             344.26,276.30 346.98,276.71 350.00,272.00 Z
           M 32.00,276.00
           C 29.08,271.44 26.58,271.34 22.00,274.00
             22.00,274.00 32.00,276.00 32.00,276.00 Z
           M 355.00,273.00
           C 355.00,273.00 351.00,272.00 351.00,272.00
             351.00,272.00 350.00,275.00 350.00,275.00
             350.00,275.00 355.00,273.00 355.00,273.00 Z
           M 347.00,278.00
           C 344.57,278.11 340.52,278.31 338.39,279.48
             335.26,281.21 328.17,294.34 327.00,297.97
             329.42,298.31 332.58,299.11 334.82,297.97
             338.82,295.85 345.07,282.48 347.00,278.00 Z
           M 70.00,295.00
           C 69.11,291.88 65.96,283.81 63.37,281.99
             61.81,280.91 58.00,280.84 56.00,280.58
             56.00,280.58 36.00,279.00 36.00,279.00
             37.18,283.06 43.47,295.90 47.32,297.15
             49.22,298.12 52.95,297.25 55.00,297.15
             55.00,297.15 70.00,295.00 70.00,295.00 Z
           M 335.00,279.00
           C 335.00,279.00 317.00,281.00 317.00,281.00
             317.00,281.00 312.00,296.21 312.00,296.21
             314.80,296.03 322.96,297.12 324.68,296.21
             328.97,294.66 334.16,283.44 335.00,279.00 Z
           M 75.00,295.00
           C 74.06,289.03 72.70,282.15 66.00,281.00
             68.15,285.99 70.14,292.17 75.00,295.00 Z
           M 314.00,281.00
           C 304.23,281.03 303.50,281.24 298.00,294.21
             300.57,294.46 305.20,295.54 307.61,294.21
             311.10,292.82 313.36,284.55 314.00,281.00 Z
           M 109.00,292.00
           C 109.00,292.00 105.30,283.99 105.30,283.99
             105.30,283.99 96.00,282.91 96.00,282.91
             96.00,282.91 74.00,282.00 74.00,282.00
             74.00,282.00 78.00,294.00 78.00,294.00
             78.00,294.00 109.00,292.00 109.00,292.00 Z
           M 301.00,282.00
           C 301.00,282.00 265.00,283.00 265.00,283.00
             265.00,283.00 263.00,292.00 263.00,292.00
             263.00,292.00 274.00,293.05 274.00,293.05
             274.00,293.05 285.00,293.05 285.00,293.05
             285.00,293.05 295.37,293.05 295.37,293.05
             295.37,293.05 301.00,282.00 301.00,282.00 Z
           M 128.00,292.00
           C 127.96,290.27 128.03,287.85 127.26,286.28
             125.09,281.84 113.35,283.00 109.00,283.00
             109.51,285.22 110.21,288.74 111.84,290.40
             114.32,292.93 124.35,292.00 128.00,292.00 Z
           M 256.00,283.00
           C 256.00,283.00 210.00,284.00 210.00,284.00
             210.00,284.00 209.00,291.14 209.00,291.14
             209.00,291.14 236.00,291.14 236.00,291.14
             239.58,291.01 250.37,292.50 252.58,291.14
             255.48,290.02 255.75,285.79 256.00,283.00 Z
           M 261.00,283.00
           C 261.00,283.00 257.00,292.00 257.00,292.00
             260.43,289.64 260.44,286.92 261.00,283.00 Z
           M 155.00,284.00
           C 155.00,284.00 132.00,284.00 132.00,284.00
             132.00,284.00 133.60,289.98 133.60,289.98
             133.60,289.98 141.00,291.00 141.00,291.00
             141.00,291.00 156.00,291.00 156.00,291.00
             156.00,291.00 155.00,284.00 155.00,284.00 Z
           M 159.00,291.00
           C 159.00,291.00 188.00,291.00 188.00,291.00
             190.66,290.95 196.05,290.58 194.34,286.30
             193.38,283.87 190.14,284.04 188.00,284.00
             188.00,284.00 158.00,284.00 158.00,284.00
             158.00,284.00 159.00,291.00 159.00,291.00 Z
           M 205.84,284.16
           C 204.85,284.04 203.25,283.99 202.15,284.16
             194.94,286.45 203.55,295.06 205.84,287.85
             206.01,286.75 205.96,285.15 205.84,284.16 Z
           M 194.00,292.00
           C 194.00,292.00 159.00,293.00 159.00,293.00
             159.00,293.00 163.01,311.40 163.01,311.40
             163.01,311.40 171.00,313.00 171.00,313.00
             171.00,313.00 194.00,313.00 194.00,313.00
             194.00,313.00 194.00,292.00 194.00,292.00 Z
           M 134.00,312.00
           C 134.00,312.00 128.42,294.77 128.42,294.77
             128.42,294.77 113.00,294.00 113.00,294.00
             113.83,297.55 117.84,309.05 120.64,311.01
             122.79,312.52 131.33,312.41 134.00,312.00 Z
           M 156.00,293.00
           C 156.00,293.00 134.00,293.00 134.00,293.00
             134.08,296.77 135.85,309.77 138.72,312.01
             140.33,313.26 144.00,313.00 146.00,313.00
             146.00,313.00 160.00,313.00 160.00,313.00
             160.00,313.00 156.00,293.00 156.00,293.00 Z
           M 205.00,293.00
           C 205.00,293.00 199.00,293.00 199.00,293.00
             199.00,293.00 198.00,313.00 198.00,313.00
             198.00,313.00 204.00,313.00 204.00,313.00
             204.00,313.00 205.00,293.00 205.00,293.00 Z
           M 253.00,294.00
           C 253.00,294.00 209.00,293.00 209.00,293.00
             209.00,293.00 207.00,313.00 207.00,313.00
             207.00,313.00 234.00,313.00 234.00,313.00
             236.81,313.00 243.38,313.44 245.59,311.98
             248.73,309.90 252.11,297.89 253.00,294.00 Z
           M 117.00,312.00
           C 116.22,308.68 111.89,296.77 109.35,295.00
             107.11,293.43 102.67,294.73 100.00,295.00
             100.00,295.00 90.00,295.00 90.00,295.00
             90.00,295.00 80.00,296.00 80.00,296.00
             81.00,299.70 83.32,306.81 86.39,309.15
             89.50,311.51 95.22,310.96 99.00,311.00
             99.00,311.00 117.00,312.00 117.00,312.00 Z
           M 258.00,294.00
           C 258.00,294.00 256.00,294.00 256.00,294.00
             256.00,294.00 250.00,312.00 250.00,312.00
             251.36,311.54 252.04,311.61 253.15,310.41
             255.27,308.12 257.70,297.33 258.00,294.00 Z
           M 294.00,296.00
           C 294.00,296.00 280.00,295.00 280.00,295.00
             280.00,295.00 262.00,294.00 262.00,294.00
             262.00,294.00 257.00,312.00 257.00,312.00
             257.00,312.00 276.00,311.04 276.00,311.04
             278.68,310.92 283.24,311.43 285.48,310.01
             288.68,307.98 292.67,299.62 294.00,296.00 Z
           M 76.00,296.00
           C 74.88,300.67 78.76,304.99 82.00,308.00
             82.00,308.00 76.00,296.00 76.00,296.00 Z
           M 307.00,296.82
           C 304.71,296.81 300.12,295.92 298.18,296.82
             294.68,297.94 290.32,306.55 289.00,310.00
             300.71,310.00 303.45,309.45 307.00,296.82 Z
           M 80.00,310.00
           C 78.46,306.84 74.62,299.77 71.68,298.02
             68.19,295.95 53.28,298.92 49.00,300.00
             50.09,302.52 50.91,304.45 53.30,306.07
             56.56,308.27 75.03,309.60 80.00,310.00 Z
           M 323.00,299.00
           C 323.00,299.00 310.00,297.00 310.00,297.00
             310.00,297.00 304.00,309.00 304.00,309.00
             313.39,308.97 319.62,309.18 323.00,299.00 Z
           M 333.00,301.00
           C 325.38,299.15 323.65,299.99 320.00,307.00
             326.06,306.87 329.98,306.89 333.00,301.00 Z
           M 50.00,306.00
           C 46.76,300.90 45.49,300.52 40.00,303.00
             40.00,303.00 50.00,306.00 50.00,306.00 Z
           M 337.00,303.00
           C 337.00,303.00 332.00,305.00 332.00,305.00
             332.00,305.00 337.00,303.00 337.00,303.00 Z
           M 88.00,320.00
           C 88.00,320.00 81.83,312.93 81.83,312.93
             81.83,312.93 56.00,309.00 56.00,309.00
             57.89,313.01 63.75,320.91 68.00,322.39
             71.02,323.44 84.38,320.89 88.00,320.00 Z
           M 315.00,310.00
           C 303.23,310.54 301.86,310.52 296.00,321.00
             303.73,322.94 304.82,323.02 310.15,316.99
             312.55,314.29 313.45,313.28 315.00,310.00 Z
           M 120.00,318.00
           C 118.22,312.91 115.74,314.29 111.00,313.83
             111.00,313.83 88.00,312.00 88.00,312.00
             88.00,312.00 92.33,318.96 92.33,318.96
             92.33,318.96 100.00,318.96 100.00,318.96
             100.00,318.96 120.00,318.00 120.00,318.00 Z
           M 299.00,312.00
           C 289.42,312.00 286.73,310.41 282.00,320.00
             282.00,320.00 294.00,321.00 294.00,321.00
             294.00,321.00 299.00,312.00 299.00,312.00 Z
           M 284.00,313.00
           C 284.00,313.00 255.00,315.00 255.00,315.00
             255.00,315.00 255.00,317.00 255.00,317.00
             260.36,318.52 261.88,317.74 267.00,318.09
             275.40,318.66 278.82,321.57 284.00,313.00 Z
           M 135.00,317.00
           C 132.13,312.71 126.71,314.00 122.00,314.00
             124.87,318.29 130.29,317.00 135.00,317.00 Z
           M 245.00,314.00
           C 245.00,314.00 219.00,316.00 219.00,316.00
             219.00,316.00 238.00,316.91 238.00,316.91
             241.64,317.14 243.55,317.50 245.00,314.00 Z
           M 252.00,314.00
           C 252.00,314.00 247.00,317.00 247.00,317.00
             247.00,317.00 252.00,314.00 252.00,314.00 Z
           M 158.00,315.00
           C 153.28,315.00 142.11,313.54 139.00,317.00
             139.00,317.00 158.00,315.00 158.00,315.00 Z
           M 60.00,316.00
           C 60.00,316.00 59.00,316.00 59.00,316.00
             59.00,316.00 60.00,317.00 60.00,317.00
             60.00,317.00 60.00,316.00 60.00,316.00 Z
           M 61.00,317.00
           C 61.00,317.00 60.00,317.00 60.00,317.00
             60.00,317.00 61.00,318.00 61.00,318.00
             61.00,318.00 61.00,317.00 61.00,317.00 Z
           M 192.99,337.00
           C 193.00,333.25 194.73,320.81 192.99,318.60
             191.51,316.75 188.13,317.02 186.00,317.00
             186.00,317.00 171.00,317.00 171.00,317.00
             162.14,317.17 164.05,320.75 166.13,329.00
             166.95,332.28 167.38,336.62 171.13,337.69
             171.13,337.69 192.99,337.00 192.99,337.00 Z
           M 203.00,317.00
           C 203.00,317.00 198.00,317.00 198.00,317.00
             197.83,324.75 195.76,330.12 198.00,338.00
             198.00,338.00 200.00,338.00 200.00,338.00
             200.00,338.00 203.00,317.00 203.00,317.00 Z
           M 243.00,318.00
           C 243.00,318.00 220.00,318.00 220.00,318.00
             220.00,318.00 206.00,317.00 206.00,317.00
             206.00,317.00 203.00,338.00 203.00,338.00
             203.00,338.00 228.00,338.00 228.00,338.00
             229.80,337.97 231.83,338.06 233.39,337.01
             237.03,334.56 242.18,322.40 243.00,318.00 Z
           M 62.00,318.00
           C 62.00,318.00 61.00,318.00 61.00,318.00
             61.00,318.00 62.00,319.00 62.00,319.00
             62.00,319.00 62.00,318.00 62.00,318.00 Z
           M 135.00,318.00
           C 135.00,318.00 124.00,319.00 124.00,319.00
             126.16,323.49 131.93,334.71 136.09,336.98
             138.20,338.12 140.69,337.97 143.00,338.00
             143.00,338.00 135.00,318.00 135.00,318.00 Z
           M 161.00,318.00
           C 161.00,318.00 140.00,318.00 140.00,318.00
             140.37,322.16 143.57,335.63 147.39,337.43
             149.48,338.41 162.79,338.00 166.00,338.00
             166.00,338.00 161.00,318.00 161.00,318.00 Z
           M 63.00,319.00
           C 63.00,319.00 62.00,319.00 62.00,319.00
             62.00,319.00 63.00,320.00 63.00,320.00
             63.00,320.00 63.00,319.00 63.00,319.00 Z
           M 133.00,338.00
           C 131.68,334.88 123.25,320.74 120.62,319.70
             118.35,318.57 114.46,319.60 112.00,319.70
             112.00,319.70 93.00,321.00 93.00,321.00
             95.39,325.90 99.19,332.29 104.00,335.07
             108.16,337.46 113.40,336.90 118.00,337.01
             118.00,337.01 133.00,338.00 133.00,338.00 Z
           M 250.00,319.00
           C 250.00,319.00 245.63,320.60 245.63,320.60
             245.63,320.60 236.00,338.00 236.00,338.00
             237.90,337.93 239.94,338.05 241.61,336.98
             245.29,334.63 249.22,323.32 250.00,319.00 Z
           M 278.00,321.00
           C 278.00,321.00 257.05,319.16 257.05,319.16
             251.72,319.91 247.13,333.21 246.00,338.00
             249.00,337.97 262.95,337.01 265.00,335.98
             269.13,333.89 275.60,325.11 278.00,321.00 Z
           M 64.00,320.00
           C 64.00,320.00 63.00,320.00 63.00,320.00
             63.00,320.00 64.00,321.00 64.00,321.00
             64.00,321.00 64.00,320.00 64.00,320.00 Z
           M 65.00,321.00
           C 65.00,321.00 64.00,321.00 64.00,321.00
             64.00,321.00 65.00,322.00 65.00,322.00
             65.00,322.00 65.00,321.00 65.00,321.00 Z
           M 292.00,321.82
           C 289.42,321.94 282.96,320.99 281.17,321.82
             277.46,322.97 269.72,333.35 268.00,337.00
             268.00,337.00 280.96,335.11 280.96,335.11
             285.53,333.29 290.13,326.39 292.00,321.82 Z
           M 100.00,336.00
           C 98.26,331.91 93.34,324.09 88.99,322.64
             85.87,321.60 74.52,324.07 71.00,325.00
             71.00,325.00 71.00,327.00 71.00,327.00
             71.00,327.00 80.00,333.27 80.00,333.27
             80.00,333.27 100.00,336.00 100.00,336.00 Z
           M 302.00,324.00
           C 292.02,322.25 290.16,326.87 285.00,335.00
             292.60,334.62 298.63,330.97 302.00,324.00 Z
           M 313.00,328.00
           C 304.00,322.53 300.17,326.93 294.00,334.00
             300.39,333.15 308.29,332.79 313.00,328.00 Z
           M 69.00,326.00
           C 70.12,330.22 73.01,331.83 77.00,333.00
             77.00,333.00 69.00,326.00 69.00,326.00 Z
           M 305.00,333.00
           C 305.00,333.00 304.00,333.00 304.00,333.00
             304.00,333.00 305.00,334.00 305.00,334.00
             305.00,334.00 305.00,333.00 305.00,333.00 Z
           M 280.00,337.00
           C 274.57,337.12 266.97,337.09 263.00,341.00
             271.73,342.16 274.30,344.66 280.00,337.00 Z
           M 79.00,337.00
           C 79.00,337.00 84.00,342.00 84.00,342.00
             84.00,342.00 79.00,337.00 79.00,337.00 Z
           M 124.00,339.00
           C 124.00,339.00 107.00,339.00 107.00,339.00
             112.70,341.64 118.27,341.64 124.00,339.00 Z
           M 262.00,338.00
           C 262.00,338.00 253.00,340.00 253.00,340.00
             257.19,340.32 259.44,341.71 262.00,338.00 Z
           M 86.00,339.00
           C 86.00,339.00 89.00,342.00 89.00,342.00
             89.00,342.00 86.00,339.00 86.00,339.00 Z
           M 108.00,340.00
           C 108.00,340.00 107.00,340.00 107.00,340.00
             107.00,340.00 108.00,341.00 108.00,341.00
             108.00,341.00 108.00,340.00 108.00,340.00 Z
           M 152.00,356.00
           C 152.00,356.00 143.59,341.02 143.59,341.02
             143.59,341.02 138.00,340.00 138.00,340.00
             141.23,346.05 146.43,352.00 152.00,356.00 Z
           M 172.00,354.99
           C 171.33,351.31 169.00,343.05 165.73,341.02
             163.10,339.39 150.74,340.00 147.00,340.00
             148.61,344.03 151.67,352.76 155.33,354.99
             158.76,357.06 168.07,355.70 172.00,354.99 Z
           M 232.00,340.21
           C 232.00,340.21 210.00,340.21 210.00,340.21
             208.24,340.66 204.01,340.98 202.72,341.99
             200.34,343.86 199.25,352.00 199.00,355.20
             204.03,355.02 215.14,356.85 218.99,355.20
             223.63,353.65 229.55,344.36 232.00,340.21 Z
           M 240.00,340.00
           C 240.00,340.00 234.17,341.02 234.17,341.02
             234.17,341.02 222.00,356.16 222.00,356.16
             223.98,356.25 227.10,356.90 228.96,356.16
             233.79,354.79 239.04,344.73 240.00,340.00 Z
           M 298.00,339.00
           C 298.00,339.00 296.00,342.00 296.00,342.00
             296.00,342.00 296.00,341.00 296.00,341.00
             296.00,341.00 298.00,339.00 298.00,339.00 Z
           M 109.00,341.00
           C 109.00,341.00 108.00,341.00 108.00,341.00
             108.00,341.00 109.00,342.00 109.00,342.00
             109.00,342.00 109.00,341.00 109.00,341.00 Z
           M 150.00,357.00
           C 148.05,352.88 146.19,351.19 143.00,348.00
             135.04,340.05 132.90,340.12 122.00,341.58
             118.07,342.10 116.33,341.55 113.00,344.00
             113.00,344.00 132.00,356.35 132.00,356.35
             132.00,356.35 150.00,357.00 150.00,357.00 Z
           M 193.00,341.00
           C 193.00,341.00 170.00,341.00 170.00,341.00
             170.47,344.05 172.24,352.17 174.70,354.01
             176.82,355.60 188.75,355.00 192.00,355.00
             192.00,355.00 193.00,341.00 193.00,341.00 Z
           M 200.00,341.00
           C 200.00,341.00 196.00,341.00 196.00,341.00
             196.00,341.00 195.00,355.00 195.00,355.00
             198.75,352.09 198.82,345.46 200.00,341.00 Z
           M 259.00,341.79
           C 255.36,341.70 247.50,340.18 244.32,341.79
             241.23,342.93 234.69,353.70 233.00,357.00
             235.19,356.99 237.91,357.10 240.00,356.49
             245.37,354.95 255.41,346.35 259.00,341.79 Z
           M 273.00,344.00
           C 273.00,344.00 261.00,342.91 261.00,342.91
             261.00,342.91 242.00,357.00 242.00,357.00
             242.00,357.00 258.00,357.00 258.00,357.00
             263.97,351.96 266.34,353.28 273.00,344.00 Z
           M 85.00,342.00
           C 85.00,342.00 88.00,345.00 88.00,345.00
             88.00,345.00 85.00,342.00 85.00,342.00 Z
           M 111.00,343.00
           C 111.00,343.00 110.00,343.00 110.00,343.00
             110.00,343.00 111.00,344.00 111.00,344.00
             111.00,344.00 111.00,343.00 111.00,343.00 Z
           M 112.00,344.00
           C 113.48,349.61 121.89,357.20 128.00,355.00
             128.00,355.00 112.00,344.00 112.00,344.00 Z
           M 99.00,348.00
           C 99.00,348.00 100.00,348.00 100.00,348.00
             100.00,348.00 99.00,349.00 99.00,349.00
             99.00,349.00 99.00,348.00 99.00,348.00 Z
           M 273.00,348.00
           C 273.00,348.00 274.00,348.00 274.00,348.00
             274.00,348.00 273.00,349.00 273.00,349.00
             273.00,349.00 273.00,348.00 273.00,348.00 Z
           M 102.00,350.00
           C 102.00,350.00 103.00,350.00 103.00,350.00
             103.00,350.00 102.00,351.00 102.00,351.00
             102.00,351.00 102.00,350.00 102.00,350.00 Z
           M 104.00,351.00
           C 104.00,351.00 105.00,351.00 105.00,351.00
             105.00,351.00 104.00,352.00 104.00,352.00
             104.00,352.00 104.00,351.00 104.00,351.00 Z
           M 96.00,352.00
           C 96.00,352.00 104.00,354.00 104.00,354.00
             104.00,354.00 96.00,352.00 96.00,352.00 Z
           M 273.00,353.00
           C 273.00,353.00 280.00,353.00 280.00,353.00
             280.00,353.00 273.00,353.00 273.00,353.00 Z
           M 105.00,354.00
           C 105.00,354.00 119.00,356.00 119.00,356.00
             119.00,356.00 105.00,354.00 105.00,354.00 Z
           M 174.00,357.00
           C 170.57,356.30 159.22,356.72 156.00,358.00
             156.00,358.00 174.00,357.00 174.00,357.00 Z
           M 192.00,356.00
           C 192.00,356.00 175.00,356.00 175.00,356.00
             175.00,356.00 175.00,358.20 175.00,358.20
             175.00,358.20 189.71,358.20 189.71,358.20
             189.71,358.20 192.00,356.00 192.00,356.00 Z
           M 218.00,357.00
           C 218.00,357.00 198.00,356.00 198.00,356.00
             198.00,356.00 198.00,358.00 198.00,358.00
             198.00,358.00 218.00,357.00 218.00,357.00 Z
           M 133.00,358.00
           C 133.00,358.00 125.00,358.00 125.00,358.00
             125.00,358.00 133.00,358.00 133.00,358.00 Z
           M 257.00,357.00
           C 252.05,357.00 248.43,356.43 244.00,359.00
             249.93,359.48 252.02,361.13 257.00,357.00 Z
           M 192.00,360.00
           C 192.00,360.00 177.00,360.00 177.00,360.00
             179.60,368.82 182.18,370.97 191.00,371.00
             191.00,371.00 192.00,360.00 192.00,360.00 Z
           M 234.00,360.00
           C 234.00,360.00 235.00,361.00 235.00,361.00
             235.00,361.00 231.00,362.00 231.00,362.00
             231.00,362.00 234.00,360.00 234.00,360.00 Z
           M 139.00,361.00
           C 139.00,361.00 140.00,361.00 140.00,361.00
             140.00,361.00 139.00,362.00 139.00,362.00
             139.00,362.00 139.00,361.00 139.00,361.00 Z
           M 141.00,362.00
           C 141.00,362.00 142.00,362.00 142.00,362.00
             142.00,362.00 141.00,363.00 141.00,363.00
             141.00,363.00 141.00,362.00 141.00,362.00 Z
           M 229.00,363.00
           C 229.00,363.00 230.00,363.00 230.00,363.00
             230.00,363.00 229.00,364.00 229.00,364.00
             229.00,364.00 229.00,363.00 229.00,363.00 Z
           M 248.00,363.00
           C 248.00,363.00 249.00,363.00 249.00,363.00
             249.00,363.00 248.00,364.00 248.00,364.00
             248.00,364.00 248.00,363.00 248.00,363.00 Z
           M 163.00,365.00
           C 163.00,365.00 162.00,365.00 162.00,365.00
             162.00,365.00 163.00,366.00 163.00,366.00
             163.00,366.00 163.00,365.00 163.00,365.00 Z
           M 246.00,364.00
           C 246.00,364.00 247.00,364.00 247.00,364.00
             247.00,364.00 246.00,365.00 246.00,365.00
             246.00,365.00 246.00,364.00 246.00,364.00 Z
           M 165.00,366.00
           C 165.00,366.00 166.00,366.00 166.00,366.00
             166.00,366.00 165.00,367.00 165.00,367.00
             165.00,367.00 165.00,366.00 165.00,366.00 Z
           M 140.00,367.00
           C 140.00,367.00 148.00,370.00 148.00,370.00
             143.90,369.76 143.08,369.84 140.00,367.00 Z
           M 135.00,368.00
           C 135.00,368.00 136.00,368.00 136.00,368.00
             136.00,368.00 135.00,369.00 135.00,369.00
             135.00,369.00 135.00,368.00 135.00,368.00 Z
           M 173.00,368.00
           C 173.00,368.00 179.00,369.00 179.00,369.00
             179.00,369.00 173.00,368.00 173.00,368.00 Z
           M 198.00,368.00
           C 198.00,368.00 204.00,370.00 204.00,370.00
             204.00,370.00 198.00,368.00 198.00,368.00 Z
           M 201.00,370.00
           C 201.00,370.00 202.00,370.00 202.00,370.00
             202.00,370.00 201.00,371.00 201.00,371.00
             201.00,371.00 201.00,370.00 201.00,370.00 Z
           M 211.00,373.00
           C 211.00,373.00 212.00,373.00 212.00,373.00
             212.00,373.00 211.00,374.00 211.00,374.00
             211.00,374.00 211.00,373.00 211.00,373.00 Z" />
</svg>
