<?xml version="1.0" encoding="UTF-8" standalone="no"?>
<!DOCTYPE svg PUBLIC "-//W3C//DTD SVG 20010904//EN"
              "http://www.w3.org/TR/2001/REC-SVG-20010904/DTD/svg10.dtd">

<svg xmlns="http://www.w3.org/2000/svg"
     width="1.25667in" height="1.25667in"
     viewBox="0 0 377 377">
  <path id="Auswahl #1"
        fill="none" stroke="black" stroke-width="1"
        d="M 191.00,0.00
           C 196.46,4.82 197.43,11.03 198.00,18.00
             198.00,18.00 214.00,18.00 214.00,18.00
             214.00,18.00 208.00,11.00 208.00,11.00
             208.00,11.00 219.00,18.44 219.00,18.44
             219.00,18.44 232.00,19.00 232.00,19.00
             232.00,19.00 219.99,8.59 219.99,8.59
             219.99,8.59 212.00,7.00 212.00,7.00
             212.00,7.00 216.00,5.00 216.00,5.00
             216.00,5.00 214.00,5.00 214.00,5.00
             214.00,5.00 214.00,4.00 214.00,4.00
             217.97,4.90 218.74,5.75 222.00,3.00
             222.00,3.00 225.00,4.00 225.00,4.00
             225.00,4.00 222.00,8.00 222.00,8.00
             225.99,10.32 232.94,14.40 234.00,19.00
             245.13,17.52 246.16,18.49 257.00,13.00
             257.00,13.00 258.00,14.00 258.00,14.00
             258.00,14.00 258.00,15.00 258.00,15.00
             258.00,15.00 256.00,17.00 256.00,17.00
             256.00,17.00 259.00,19.00 259.00,19.00
             252.97,17.02 249.90,18.05 244.00,20.00
             244.00,20.00 261.00,21.00 261.00,21.00
             261.00,21.00 260.00,19.00 260.00,19.00
             260.00,19.00 268.00,22.00 268.00,22.00
             269.18,25.86 276.70,32.28 280.98,31.55
             283.36,31.15 284.51,29.65 286.00,28.00
             286.00,28.00 288.00,28.00 288.00,28.00
             288.00,28.00 289.00,29.00 289.00,29.00
             289.00,29.00 289.00,31.00 289.00,31.00
             289.00,31.00 281.00,35.00 281.00,35.00
             281.00,35.00 293.00,42.13 293.00,42.13
             293.00,42.13 307.00,45.00 307.00,45.00
             307.00,45.00 305.00,43.00 305.00,43.00
             305.00,43.00 305.00,42.00 305.00,42.00
             311.95,46.27 314.73,47.96 319.00,55.00
             313.03,51.90 313.34,54.30 305.00,55.00
             305.00,55.00 317.17,67.83 317.17,67.83
             317.17,67.83 331.00,71.00 331.00,71.00
             331.00,71.00 327.00,65.00 327.00,65.00
             327.00,65.00 332.74,70.29 332.74,70.29
             337.02,73.83 340.11,72.73 339.00,82.00
             334.40,77.84 331.76,80.19 326.00,81.00
             328.11,85.33 334.02,96.61 338.04,98.69
             340.30,99.85 347.00,100.46 350.00,101.00
             350.00,101.00 341.00,83.00 341.00,83.00
             341.00,83.00 350.63,98.87 350.63,98.87
             350.63,98.87 358.00,106.00 358.00,106.00
             358.00,106.00 354.00,108.00 354.00,108.00
             357.78,114.82 362.26,127.36 364.00,135.00
             364.00,135.00 368.00,133.00 368.00,133.00
             369.54,136.64 370.46,138.16 369.00,142.00
             367.84,139.63 367.59,140.06 365.00,140.00
             367.76,147.53 369.98,161.93 370.00,170.00
             370.00,170.00 375.00,168.00 375.00,168.00
             375.00,168.00 376.00,174.00 376.00,174.00
             376.00,174.00 371.00,173.00 371.00,173.00
             371.00,173.00 371.00,205.00 371.00,205.00
             371.00,205.00 376.00,205.00 376.00,205.00
             376.00,205.00 375.00,209.00 375.00,209.00
             369.63,209.57 370.05,212.22 369.25,217.00
             369.25,217.00 365.00,239.00 365.00,239.00
             365.00,239.00 370.00,240.00 370.00,240.00
             370.00,240.00 368.00,244.00 368.00,244.00
             363.18,244.11 362.73,246.91 361.33,251.00
             361.33,251.00 354.00,271.00 354.00,271.00
             354.00,271.00 357.00,271.00 357.00,271.00
             355.08,277.33 353.33,275.28 349.95,279.30
             346.21,283.75 345.62,288.74 340.00,294.00
             340.00,294.00 349.00,278.00 349.00,278.00
             349.00,278.00 336.21,280.02 336.21,280.02
             336.21,280.02 325.00,297.00 325.00,297.00
             335.15,299.69 334.20,299.82 340.00,295.00
             340.00,295.00 337.00,301.00 337.00,301.00
             337.00,301.00 339.00,300.00 339.00,300.00
             337.07,305.51 331.57,308.60 327.00,312.00
             327.00,312.00 330.00,308.00 330.00,308.00
             330.00,308.00 317.00,310.31 317.00,310.31
             317.00,310.31 304.00,323.00 304.00,323.00
             314.32,323.93 311.11,326.92 319.00,322.00
             314.17,329.36 312.51,330.54 305.00,335.00
             305.00,335.00 306.00,333.00 306.00,333.00
             291.46,336.85 293.11,332.74 280.00,344.00
             280.00,344.00 288.00,347.00 288.00,347.00
             288.00,347.00 285.00,350.00 285.00,350.00
             278.05,342.30 273.11,348.71 267.00,354.00
             267.00,354.00 272.00,355.00 272.00,355.00
             272.00,355.00 260.00,358.00 260.00,358.00
             260.00,358.00 261.00,356.00 261.00,356.00
             261.00,356.00 244.00,359.00 244.00,359.00
             244.00,359.00 253.00,359.85 253.00,359.85
             253.00,359.85 259.00,359.00 259.00,359.00
             259.00,359.00 255.00,361.00 255.00,361.00
             255.00,361.00 255.00,365.00 255.00,365.00
             249.65,361.38 241.48,357.42 235.00,360.23
             229.55,362.59 227.91,366.29 221.00,369.00
             222.77,371.78 222.78,372.15 220.00,374.00
             219.22,371.00 217.12,372.59 214.00,372.00
             214.00,372.00 216.00,371.00 216.00,371.00
             216.00,371.00 207.00,369.03 207.00,369.03
             207.00,369.03 219.00,369.03 219.00,369.03
             219.00,369.03 231.00,359.00 231.00,359.00
             231.00,359.00 217.00,359.85 217.00,359.85
             217.00,359.85 208.00,366.00 208.00,366.00
             208.00,366.00 214.00,359.00 214.00,359.00
             210.17,359.00 202.46,358.38 199.51,360.85
             195.24,364.43 198.80,370.28 191.00,377.00
             191.00,377.00 193.00,372.00 193.00,372.00
             185.13,372.00 180.30,371.03 173.00,368.00
             173.00,368.00 178.00,368.00 178.00,368.00
             171.89,358.25 171.91,359.00 161.00,359.00
             164.71,365.59 165.02,365.80 171.00,370.00
             171.00,370.00 174.00,375.00 174.00,375.00
             174.00,375.00 167.42,371.36 167.42,371.36
             164.23,370.18 158.22,370.51 157.00,374.00
             157.00,374.00 154.00,373.00 154.00,373.00
             154.00,373.00 154.00,371.00 154.00,371.00
             154.00,371.00 165.00,369.00 165.00,369.00
             165.00,369.00 160.00,365.00 160.00,365.00
             159.46,360.89 157.76,360.12 154.00,359.00
             154.00,359.00 156.00,361.00 156.00,361.00
             156.00,361.00 156.00,362.00 156.00,362.00
             147.00,357.01 141.61,358.73 132.00,360.00
             132.00,360.00 137.00,365.00 137.00,365.00
             130.90,362.09 128.37,359.12 123.00,365.00
             123.00,365.00 120.00,364.00 120.00,364.00
             122.97,360.73 123.64,360.51 128.00,360.00
             128.00,360.00 120.00,356.00 120.00,356.00
             122.73,354.06 116.70,349.85 115.00,348.46
             106.93,341.89 105.29,344.13 96.00,346.00
             96.00,346.00 98.00,348.00 98.00,348.00
             98.00,348.00 98.00,349.00 98.00,349.00
             98.00,349.00 94.00,347.00 94.00,347.00
             94.00,347.00 95.00,349.00 95.00,349.00
             95.00,349.00 91.00,350.00 91.00,350.00
             91.00,350.00 90.00,343.00 90.00,343.00
             95.88,344.99 101.42,343.34 107.00,341.00
             107.00,341.00 100.00,337.58 100.00,337.58
             100.00,337.58 80.00,335.00 80.00,335.00
             80.00,335.00 86.00,342.00 86.00,342.00
             86.00,342.00 89.00,343.00 89.00,343.00
             89.00,343.00 88.00,344.00 88.00,344.00
             88.00,344.00 76.00,334.93 76.00,334.93
             76.00,334.93 65.00,330.00 65.00,330.00
             65.00,330.00 74.00,332.00 74.00,332.00
             68.66,327.04 68.69,326.77 62.00,329.00
             63.07,325.93 62.93,326.07 66.00,325.00
             62.06,321.02 54.80,312.15 51.00,309.56
             45.42,305.76 41.68,308.23 38.00,301.00
             38.00,301.00 44.00,299.00 44.00,299.00
             44.00,299.00 31.47,280.28 31.47,280.28
             26.58,275.25 22.75,279.01 20.00,272.00
             20.00,272.00 27.00,270.00 27.00,270.00
             27.00,270.00 16.92,246.31 16.92,246.31
             16.92,246.31 7.00,240.00 7.00,240.00
             7.00,240.00 15.00,238.00 15.00,238.00
             15.00,238.00 10.00,209.00 10.00,209.00
             10.00,209.00 1.00,208.00 1.00,208.00
             1.00,208.00 1.00,205.00 1.00,205.00
             1.00,205.00 9.00,205.00 9.00,205.00
             9.00,205.00 9.00,182.00 9.00,182.00
             8.99,180.00 9.12,177.02 7.98,175.31
             6.38,172.91 3.54,173.09 1.00,173.00
             1.00,173.00 1.00,170.00 1.00,170.00
             1.00,170.00 10.00,170.00 10.00,170.00
             10.03,160.66 12.40,149.00 15.00,140.00
             15.00,140.00 7.00,139.00 7.00,139.00
             7.00,139.00 7.00,136.00 7.00,136.00
             7.00,136.00 15.49,133.15 15.49,133.15
             15.49,133.15 19.42,125.00 19.42,125.00
             19.42,125.00 26.00,108.00 26.00,108.00
             26.00,108.00 19.00,106.00 19.00,106.00
             23.35,99.54 26.28,102.91 30.39,98.69
             30.39,98.69 43.00,79.00 43.00,79.00
             43.00,79.00 37.00,77.00 37.00,77.00
             41.40,69.73 44.37,72.82 49.83,69.15
             53.21,66.88 61.46,56.66 64.00,53.00
             64.00,53.00 61.00,49.00 61.00,49.00
             67.25,51.70 68.08,50.41 73.00,46.00
             73.00,46.00 64.00,47.00 64.00,47.00
             64.00,47.00 75.00,43.07 75.00,43.07
             75.00,43.07 88.00,33.00 88.00,33.00
             88.00,33.00 89.00,35.00 89.00,35.00
             89.00,35.00 88.00,36.00 88.00,36.00
             88.00,36.00 86.00,35.00 86.00,35.00
             86.00,35.00 79.00,43.00 79.00,43.00
             79.00,43.00 100.00,39.98 100.00,39.98
             100.00,39.98 105.00,36.00 105.00,36.00
             105.00,36.00 90.00,34.00 90.00,34.00
             90.00,34.00 89.00,28.00 89.00,28.00
             89.00,28.00 94.00,31.00 94.00,31.00
             94.00,31.00 95.00,28.00 95.00,28.00
             95.00,28.00 94.00,32.00 94.00,32.00
             96.89,32.39 103.68,33.95 106.00,33.64
             111.18,32.94 118.35,25.61 122.00,22.00
             115.93,22.28 109.93,23.34 104.00,24.79
             99.83,25.47 97.94,26.91 94.00,24.79
             94.00,24.79 98.00,26.00 98.00,26.00
             100.41,23.08 103.42,23.16 107.00,22.59
             114.09,21.47 120.15,21.57 127.00,19.00
             122.59,17.10 120.82,17.58 119.00,13.00
             119.00,13.00 122.00,12.00 122.00,12.00
             124.81,20.46 132.17,13.23 137.00,13.00
             137.00,13.00 131.00,18.00 131.00,18.00
             142.40,17.40 143.35,22.59 156.00,15.00
             156.00,15.00 153.00,19.00 153.00,19.00
             157.14,17.78 159.55,16.58 160.00,12.00
             160.00,12.00 165.00,8.00 165.00,8.00
             165.00,8.00 152.00,6.00 152.00,6.00
             152.00,6.00 152.00,4.00 152.00,4.00
             152.00,4.00 156.00,3.00 156.00,3.00
             157.56,7.90 160.09,4.43 165.00,8.00
             167.64,5.59 170.34,3.23 174.00,3.00
             174.00,3.00 170.00,6.00 170.00,6.00
             170.00,6.00 174.00,7.00 174.00,7.00
             174.00,7.00 168.00,8.00 168.00,8.00
             168.00,8.00 171.00,9.00 171.00,9.00
             164.91,10.01 163.09,13.53 161.00,19.00
             161.00,19.00 171.68,16.98 171.68,16.98
             171.68,16.98 178.00,9.00 178.00,9.00
             178.00,9.00 172.00,8.00 172.00,8.00
             178.46,8.09 177.44,8.49 183.00,5.00
             183.00,5.00 174.00,18.00 174.00,18.00
             174.00,18.00 194.00,18.00 194.00,18.00
             194.00,18.00 191.00,5.00 191.00,5.00
             191.00,5.00 195.00,16.00 195.00,16.00
             195.00,16.00 191.00,0.00 191.00,0.00 Z
           M 176.00,6.00
           C 176.00,6.00 177.00,6.00 177.00,6.00
             177.00,6.00 176.00,7.00 176.00,7.00
             176.00,7.00 176.00,6.00 176.00,6.00 Z
           M 140.00,8.00
           C 140.00,8.00 148.00,8.00 148.00,8.00
             148.00,8.00 140.00,11.00 140.00,11.00
             140.00,11.00 140.00,8.00 140.00,8.00 Z
           M 229.00,7.00
           C 229.00,7.00 230.00,7.00 230.00,7.00
             230.00,7.00 229.00,8.00 229.00,8.00
             229.00,8.00 229.00,7.00 229.00,7.00 Z
           M 199.00,8.00
           C 199.00,8.00 210.00,9.00 210.00,9.00
             210.00,9.00 207.00,11.00 207.00,11.00
             207.00,11.00 199.00,8.00 199.00,8.00 Z
           M 138.00,11.00
           C 138.00,11.00 139.00,11.00 139.00,11.00
             139.00,11.00 138.00,12.00 138.00,12.00
             138.00,12.00 138.00,11.00 138.00,11.00 Z
           M 251.00,14.00
           C 251.00,14.00 252.00,14.00 252.00,14.00
             252.00,14.00 251.00,15.00 251.00,15.00
             251.00,15.00 251.00,14.00 251.00,14.00 Z
           M 136.00,16.00
           C 136.00,16.00 137.00,16.00 137.00,16.00
             137.00,16.00 136.00,17.00 136.00,17.00
             136.00,17.00 136.00,16.00 136.00,16.00 Z
           M 171.00,19.00
           C 171.00,19.00 159.00,21.00 159.00,21.00
             159.00,21.00 171.00,21.00 171.00,21.00
             171.00,21.00 171.00,19.00 171.00,19.00 Z
           M 194.00,19.00
           C 194.00,19.00 173.00,19.00 173.00,19.00
             173.00,19.00 173.00,21.00 173.00,21.00
             173.00,21.00 194.00,21.00 194.00,21.00
             194.00,21.00 194.00,19.00 194.00,19.00 Z
           M 217.00,20.00
           C 217.00,20.00 199.00,19.00 199.00,19.00
             199.00,19.00 199.00,21.00 199.00,21.00
             199.00,21.00 217.00,20.00 217.00,20.00 Z
           M 256.00,19.00
           C 256.00,19.00 257.00,19.00 257.00,19.00
             257.00,19.00 256.00,20.00 256.00,20.00
             256.00,20.00 256.00,19.00 256.00,19.00 Z
           M 147.00,21.21
           C 147.00,21.21 129.00,21.21 129.00,21.21
             122.43,23.02 115.80,29.69 112.00,35.00
             115.43,35.83 128.92,37.58 131.83,36.40
             134.97,35.13 144.77,24.12 147.00,21.21 Z
           M 155.00,22.00
           C 145.84,19.71 138.69,30.43 134.00,36.99
             137.32,37.81 144.61,38.94 147.59,36.99
             150.00,35.38 154.13,25.04 155.00,22.00 Z
           M 245.00,37.21
           C 243.41,32.86 237.95,23.30 233.83,21.80
             230.50,20.22 223.54,21.37 220.00,21.80
             220.00,21.80 232.32,37.21 232.32,37.21
             232.32,37.21 245.00,37.21 245.00,37.21 Z
           M 257.00,36.18
           C 252.69,30.04 244.33,22.54 237.00,21.00
             239.00,24.16 246.13,35.24 249.18,36.18
             251.17,37.10 254.84,36.28 257.00,36.18 Z
           M 265.00,23.00
           C 265.00,23.00 242.00,21.00 242.00,21.00
             244.55,24.06 256.57,34.33 260.00,35.32
             263.20,36.24 272.68,34.10 276.00,33.00
             276.00,33.00 265.00,23.00 265.00,23.00 Z
           M 262.00,21.00
           C 262.00,21.00 261.00,21.00 261.00,21.00
             261.00,21.00 262.00,22.00 262.00,22.00
             262.00,22.00 262.00,21.00 262.00,21.00 Z
           M 125.00,22.00
           C 125.00,22.00 124.00,22.00 124.00,22.00
             124.00,22.00 125.00,23.00 125.00,23.00
             125.00,23.00 125.00,22.00 125.00,22.00 Z
           M 170.00,22.00
           C 167.62,22.00 161.16,21.74 159.27,22.60
             155.54,24.30 152.61,34.13 152.00,38.00
             154.29,38.00 159.90,38.23 161.78,37.40
             165.02,35.97 169.01,25.49 170.00,22.00 Z
           M 195.00,23.01
           C 190.78,23.00 174.66,21.56 172.39,23.01
             169.05,25.17 166.60,34.16 166.00,38.00
             166.00,38.00 196.00,37.00 196.00,37.00
             196.00,37.00 195.00,23.01 195.00,23.01 Z
           M 229.00,37.96
           C 227.39,33.80 222.42,25.28 218.56,23.00
             215.28,21.05 202.75,21.93 199.00,23.00
             199.00,23.00 201.00,37.00 201.00,37.00
             201.00,37.00 212.00,37.96 212.00,37.96
             212.00,37.96 229.00,37.96 229.00,37.96 Z
           M 269.00,23.00
           C 269.00,23.00 274.00,24.00 274.00,24.00
             274.00,24.00 269.00,23.00 269.00,23.00 Z
           M 101.00,26.00
           C 101.00,26.00 102.00,26.00 102.00,26.00
             102.00,26.00 101.00,27.00 101.00,27.00
             101.00,27.00 101.00,26.00 101.00,26.00 Z
           M 99.00,27.00
           C 99.00,27.00 100.00,27.00 100.00,27.00
             100.00,27.00 99.00,28.00 99.00,28.00
             99.00,28.00 99.00,27.00 99.00,27.00 Z
           M 91.00,32.00
           C 91.00,32.00 90.00,32.00 90.00,32.00
             90.00,32.00 91.00,33.00 91.00,33.00
             91.00,33.00 91.00,32.00 91.00,32.00 Z
           M 88.00,34.00
           C 88.00,34.00 87.00,34.00 87.00,34.00
             87.00,34.00 88.00,35.00 88.00,35.00
             88.00,35.00 88.00,34.00 88.00,34.00 Z
           M 284.00,41.00
           C 276.93,31.47 273.67,36.42 261.00,37.00
             261.00,37.00 264.11,39.41 264.11,39.41
             264.11,39.41 284.00,41.00 284.00,41.00 Z
           M 295.00,34.00
           C 295.00,34.00 298.00,37.00 298.00,37.00
             298.00,37.00 295.00,34.00 295.00,34.00 Z
           M 108.00,36.00
           C 108.00,36.00 107.00,36.00 107.00,36.00
             107.00,36.00 108.00,37.00 108.00,37.00
             108.00,37.00 108.00,36.00 108.00,36.00 Z
           M 107.00,37.00
           C 107.00,37.00 106.00,37.00 106.00,37.00
             106.00,37.00 107.00,38.00 107.00,38.00
             107.00,38.00 107.00,37.00 107.00,37.00 Z
           M 124.00,38.00
           C 117.77,37.50 112.92,35.14 108.00,40.00
             108.00,40.00 124.00,38.00 124.00,38.00 Z
           M 260.00,38.00
           C 260.00,38.00 253.00,39.00 253.00,39.00
             253.00,39.00 260.00,38.00 260.00,38.00 Z
           M 284.00,37.00
           C 284.00,37.00 283.00,37.00 283.00,37.00
             283.00,37.00 284.00,38.00 284.00,38.00
             284.00,38.00 284.00,37.00 284.00,37.00 Z
           M 285.00,38.00
           C 285.00,38.00 284.00,38.00 284.00,38.00
             284.00,38.00 285.00,39.00 285.00,39.00
             285.00,39.00 285.00,38.00 285.00,38.00 Z
           M 286.00,39.00
           C 286.00,39.00 285.00,39.00 285.00,39.00
             285.00,39.00 286.00,40.00 286.00,40.00
             286.00,40.00 286.00,39.00 286.00,39.00 Z
           M 129.00,40.00
           C 125.76,40.15 108.87,41.22 107.09,42.17
             102.90,44.43 98.27,52.76 96.00,57.00
             99.27,57.26 113.66,58.91 115.90,58.23
             119.37,57.19 127.46,43.63 129.00,40.00 Z
           M 147.00,40.00
           C 144.10,40.00 134.42,39.67 132.30,40.57
             127.94,42.43 121.34,54.42 120.00,59.21
             120.00,59.21 139.57,59.21 139.57,59.21
             139.57,59.21 142.72,54.00 142.72,54.00
             142.72,54.00 147.00,40.00 147.00,40.00 Z
           M 162.00,40.00
           C 162.00,40.00 150.00,40.00 150.00,40.00
             150.00,40.00 145.00,60.00 145.00,60.00
             145.00,60.00 157.00,60.00 157.00,60.00
             157.00,60.00 162.00,40.00 162.00,40.00 Z
           M 197.00,40.00
           C 197.00,40.00 172.00,40.00 172.00,40.00
             172.00,40.00 164.85,41.60 164.85,41.60
             164.85,41.60 159.00,60.00 159.00,60.00
             159.00,60.00 199.00,61.00 199.00,61.00
             199.00,61.00 197.00,40.00 197.00,40.00 Z
           M 240.00,60.00
           C 239.02,55.83 234.05,43.21 230.61,41.02
             228.98,39.98 226.86,40.04 225.00,40.00
             225.00,40.00 202.00,40.00 202.00,40.00
             202.00,40.00 204.00,61.00 204.00,61.00
             204.00,61.00 223.00,60.00 223.00,60.00
             223.00,60.00 240.00,60.00 240.00,60.00 Z
           M 256.00,59.00
           C 254.53,54.80 249.73,42.31 245.79,40.60
             243.71,39.70 235.70,40.00 233.00,40.00
             233.00,40.00 243.00,60.00 243.00,60.00
             243.00,60.00 256.00,59.00 256.00,59.00 Z
           M 252.00,40.00
           C 251.49,43.76 257.37,57.06 261.13,58.12
             261.13,58.12 276.00,58.12 276.00,58.12
             273.74,53.60 267.29,44.23 262.99,42.02
             262.99,42.02 252.00,40.00 252.00,40.00 Z
           M 287.00,40.00
           C 287.00,40.00 286.00,40.00 286.00,40.00
             286.00,40.00 287.00,41.00 287.00,41.00
             287.00,41.00 287.00,40.00 287.00,40.00 Z
           M 296.00,55.00
           C 296.00,55.00 286.83,44.01 286.83,44.01
             286.83,44.01 265.00,41.00 265.00,41.00
             268.11,45.39 275.67,56.14 281.00,56.84
             283.63,57.19 293.16,55.69 296.00,55.00 Z
           M 288.00,41.00
           C 288.00,41.00 287.00,41.00 287.00,41.00
             287.00,41.00 288.00,42.00 288.00,42.00
             288.00,42.00 288.00,41.00 288.00,41.00 Z
           M 98.00,42.00
           C 87.34,43.91 74.40,41.62 69.00,53.00
             71.97,53.56 81.62,55.70 84.00,55.40
             89.03,54.76 95.93,46.37 98.00,42.00 Z
           M 103.00,42.00
           C 96.58,44.19 91.85,50.60 88.00,55.90
             89.70,56.17 91.23,56.53 92.90,55.90
             96.11,54.40 101.38,45.30 103.00,42.00 Z
           M 290.00,43.00
           C 290.00,43.00 289.00,43.00 289.00,43.00
             289.00,43.00 290.00,44.00 290.00,44.00
             290.00,44.00 290.00,43.00 290.00,43.00 Z
           M 291.00,44.00
           C 291.36,48.59 296.08,52.98 300.00,55.00
             300.00,55.00 301.00,54.00 301.00,54.00
             298.68,49.49 295.08,46.89 291.00,44.00 Z
           M 313.00,51.00
           C 309.59,44.80 300.43,44.52 294.00,44.00
             300.21,52.67 302.91,55.29 313.00,51.00 Z
           M 84.00,57.00
           C 84.00,57.00 68.00,55.06 68.00,55.06
             63.20,56.00 57.68,64.69 56.00,69.00
             59.48,68.72 74.67,67.19 76.96,65.98
             80.43,64.15 82.52,60.46 84.00,57.00 Z
           M 314.00,68.00
           C 310.41,62.34 307.00,57.13 300.00,56.00
             302.95,63.71 305.48,67.78 314.00,68.00 Z
           M 304.00,67.00
           C 302.65,64.23 300.38,59.61 297.68,58.03
             294.84,56.36 283.58,58.36 280.00,59.00
             280.00,59.00 284.33,64.98 284.33,64.98
             284.33,64.98 304.00,67.00 304.00,67.00 Z
           M 320.00,56.00
           C 320.00,56.00 321.00,56.00 321.00,56.00
             321.00,56.00 320.00,57.00 320.00,57.00
             320.00,57.00 320.00,56.00 320.00,56.00 Z
           M 92.00,58.00
           C 84.83,58.25 83.77,60.09 80.00,66.00
             87.49,65.97 89.69,65.79 92.00,58.00 Z
           M 116.00,59.92
           C 116.00,59.92 108.00,59.92 108.00,59.92
             100.35,59.10 94.40,56.44 92.00,66.00
             92.00,66.00 113.58,63.83 113.58,63.83
             113.58,63.83 116.00,59.92 116.00,59.92 Z
           M 281.00,65.00
           C 277.28,57.67 276.19,59.15 269.00,59.92
             269.00,59.92 261.00,59.92 261.00,59.92
             261.00,59.92 262.57,63.83 262.57,63.83
             262.57,63.83 281.00,65.00 281.00,65.00 Z
           M 321.00,58.00
           C 321.00,58.00 327.00,64.00 327.00,64.00
             327.00,64.00 321.00,58.00 321.00,58.00 Z
           M 140.00,61.00
           C 140.00,61.00 119.29,61.59 119.29,61.59
             119.29,61.59 117.00,64.00 117.00,64.00
             117.00,64.00 137.71,63.41 137.71,63.41
             137.71,63.41 140.00,61.00 140.00,61.00 Z
           M 242.00,64.00
           C 238.79,59.78 238.05,61.96 229.00,62.00
             223.28,62.03 209.66,61.15 205.00,63.00
             205.00,63.00 225.00,63.00 225.00,63.00
             225.00,63.00 242.00,64.00 242.00,64.00 Z
           M 258.00,64.00
           C 254.71,59.61 249.07,61.00 244.00,61.00
             246.93,65.37 253.24,64.00 258.00,64.00 Z
           M 156.00,62.00
           C 156.00,62.00 144.00,63.00 144.00,63.00
             144.00,63.00 156.00,62.00 156.00,62.00 Z
           M 177.00,62.00
           C 177.00,62.00 159.00,63.00 159.00,63.00
             159.00,63.00 177.00,62.00 177.00,62.00 Z
           M 58.00,63.00
           C 58.00,63.00 57.00,63.00 57.00,63.00
             57.00,63.00 58.00,64.00 58.00,64.00
             58.00,64.00 58.00,63.00 58.00,63.00 Z
           M 57.00,64.00
           C 57.00,64.00 56.00,64.00 56.00,64.00
             56.00,64.00 57.00,65.00 57.00,65.00
             57.00,65.00 57.00,64.00 57.00,64.00 Z
           M 56.00,65.00
           C 56.00,65.00 55.00,65.00 55.00,65.00
             55.00,65.00 56.00,66.00 56.00,66.00
             56.00,66.00 56.00,65.00 56.00,65.00 Z
           M 155.00,65.00
           C 152.44,65.00 146.50,64.60 144.51,66.02
             141.73,68.00 140.03,81.10 139.00,85.00
             139.00,85.00 151.00,85.00 151.00,85.00
             151.00,85.00 155.00,65.00 155.00,65.00 Z
           M 199.00,65.00
           C 199.00,65.00 158.00,65.00 158.00,65.00
             158.00,65.00 154.00,85.00 154.00,85.00
             154.00,85.00 184.00,86.00 184.00,86.00
             184.00,86.00 201.00,85.00 201.00,85.00
             201.00,85.00 199.00,65.00 199.00,65.00 Z
           M 249.00,85.00
           C 248.22,81.15 245.34,69.15 242.35,66.99
             240.36,65.55 230.76,65.01 228.00,65.00
             228.00,65.00 204.00,65.00 204.00,65.00
             204.00,65.00 206.00,86.00 206.00,86.00
             206.00,86.00 226.00,85.00 226.00,85.00
             226.00,85.00 249.00,85.00 249.00,85.00 Z
           M 139.00,66.00
           C 139.00,66.00 122.00,66.00 122.00,66.00
             120.04,66.01 117.30,65.83 115.63,66.99
             112.57,69.13 108.71,80.22 108.00,84.00
             108.00,84.00 135.00,85.00 135.00,85.00
             135.00,85.00 139.00,66.00 139.00,66.00 Z
           M 264.00,83.94
           C 263.66,80.26 261.01,68.24 257.58,66.57
             255.80,65.71 248.37,66.00 246.00,66.00
             246.79,69.36 250.75,82.36 253.42,83.94
             255.03,84.81 261.64,84.02 264.00,83.94 Z
           M 291.00,83.00
           C 289.84,78.92 285.79,69.32 281.79,67.60
             281.79,67.60 263.00,66.00 263.00,66.00
             263.00,66.00 268.00,84.00 268.00,84.00
             268.00,84.00 291.00,83.00 291.00,83.00 Z
           M 112.00,67.00
           C 107.05,67.00 94.04,66.06 90.39,68.85
             87.35,71.19 84.70,79.25 84.00,83.19
             84.00,83.19 96.00,83.19 96.00,83.19
             98.25,83.38 101.64,84.28 103.73,83.19
             107.15,81.93 111.14,70.66 112.00,67.00 Z
           M 54.00,68.00
           C 54.00,68.00 53.00,68.00 53.00,68.00
             53.00,68.00 54.00,69.00 54.00,69.00
             54.00,69.00 54.00,68.00 54.00,68.00 Z
           M 87.00,68.00
           C 77.33,68.04 73.97,71.66 71.00,81.00
             82.52,84.27 83.13,76.99 87.00,68.00 Z
           M 312.00,81.00
           C 310.75,78.11 307.94,71.72 305.39,69.99
             302.46,68.00 289.93,68.00 286.00,68.00
             287.17,70.61 291.59,79.58 293.63,81.00
             296.75,83.18 307.80,81.09 312.00,81.00 Z
           M 53.00,69.00
           C 53.00,69.00 52.00,69.00 52.00,69.00
             52.00,69.00 53.00,70.00 53.00,70.00
             53.00,70.00 53.00,69.00 53.00,69.00 Z
           M 75.00,69.00
           C 70.92,69.01 56.46,69.88 53.53,71.95
             51.25,73.57 50.10,76.55 49.00,79.00
             52.91,79.18 64.26,81.39 66.90,80.39
             70.54,79.00 73.67,72.47 75.00,69.00 Z
           M 310.00,69.00
           C 309.12,72.69 311.56,77.83 315.21,79.40
             316.90,80.13 320.12,79.99 322.00,80.00
             318.99,72.14 317.48,71.39 310.00,69.00 Z
           M 335.00,77.00
           C 331.73,70.88 325.26,71.06 319.00,71.00
             322.91,80.93 326.52,78.71 335.00,77.00 Z
           M 48.00,72.00
           C 48.00,72.00 39.00,74.00 39.00,74.00
             43.14,78.02 45.52,76.82 48.00,72.00 Z
           M 51.00,72.00
           C 51.00,72.00 50.00,72.00 50.00,72.00
             50.00,72.00 51.00,73.00 51.00,73.00
             51.00,73.00 51.00,72.00 51.00,72.00 Z
           M 50.00,73.00
           C 50.00,73.00 46.00,78.00 46.00,78.00
             46.00,78.00 50.00,73.00 50.00,73.00 Z
           M 46.00,80.00
           C 39.70,83.27 34.79,93.56 32.00,100.00
             32.00,100.00 35.37,99.01 35.37,99.01
             35.37,99.01 46.00,80.00 46.00,80.00 Z
           M 66.00,83.00
           C 63.09,82.48 52.44,80.83 50.04,81.16
             44.29,81.95 40.11,94.09 38.00,99.00
             41.42,99.00 56.37,98.41 58.61,96.98
             61.57,95.09 65.02,86.43 66.00,83.00 Z
           M 324.00,81.00
           C 324.00,81.00 316.00,82.00 316.00,82.00
             316.61,85.25 320.16,95.09 322.70,97.01
             324.38,98.29 330.74,98.82 333.00,99.00
             333.00,99.00 324.00,81.00 324.00,81.00 Z
           M 79.00,83.84
           C 76.96,83.91 71.73,83.15 70.21,83.84
             66.83,84.88 63.42,93.70 62.00,97.00
             64.37,97.00 71.80,97.29 73.58,96.43
             76.55,94.99 78.44,87.10 79.00,83.84 Z
           M 319.00,98.00
           C 318.27,93.99 315.80,85.33 311.79,83.80
             309.20,82.48 298.89,83.99 295.00,83.80
             296.13,87.25 298.48,94.12 301.39,95.98
             302.74,96.84 316.31,97.78 319.00,98.00 Z
           M 104.00,86.00
           C 104.00,86.00 83.00,84.00 83.00,84.00
             83.00,84.00 79.00,97.00 79.00,97.00
             79.00,97.00 99.59,94.98 99.59,94.98
             99.59,94.98 104.00,86.00 104.00,86.00 Z
           M 343.00,83.00
           C 343.00,83.00 344.00,83.00 344.00,83.00
             344.00,83.00 343.00,84.00 343.00,84.00
             343.00,84.00 343.00,83.00 343.00,83.00 Z
           M 297.00,96.00
           C 296.43,92.95 295.05,87.87 292.37,86.00
             288.87,83.55 273.69,85.78 269.00,86.00
             269.00,86.00 271.90,94.26 271.90,94.26
             271.90,94.26 280.00,96.00 280.00,96.00
             280.00,96.00 297.00,96.00 297.00,96.00 Z
           M 134.00,87.00
           C 134.00,87.00 122.00,86.04 122.00,86.04
             122.00,86.04 106.00,86.04 106.00,86.04
             106.00,86.04 104.00,96.00 104.00,96.00
             104.00,96.00 126.00,95.00 126.00,95.00
             126.00,95.00 132.26,94.01 132.26,94.01
             132.26,94.01 134.00,87.00 134.00,87.00 Z
           M 267.00,95.00
           C 266.07,84.00 262.38,86.00 253.00,86.00
             253.00,86.00 255.00,95.00 255.00,95.00
             255.00,95.00 267.00,95.00 267.00,95.00 Z
           M 150.00,87.00
           C 150.00,87.00 139.00,87.00 139.00,87.00
             139.00,87.00 138.00,95.00 138.00,95.00
             148.68,95.00 149.89,95.79 150.00,87.00 Z
           M 201.00,88.00
           C 201.00,88.00 154.00,87.00 154.00,87.00
             154.00,87.00 153.00,94.00 153.00,94.00
             153.00,94.00 201.00,94.00 201.00,94.00
             201.00,94.00 201.00,88.00 201.00,88.00 Z
           M 252.00,95.00
           C 251.50,92.56 251.07,88.81 248.57,87.57
             246.88,86.73 240.22,87.00 238.00,87.00
             238.00,87.00 213.00,87.00 213.00,87.00
             206.81,87.12 206.21,87.95 206.00,94.04
             206.00,94.04 222.00,94.04 222.00,94.04
             222.00,94.04 233.00,95.00 233.00,95.00
             233.00,95.00 252.00,95.00 252.00,95.00 Z
           M 345.00,86.00
           C 345.00,86.00 346.00,86.00 346.00,86.00
             346.00,86.00 345.00,87.00 345.00,87.00
             345.00,87.00 345.00,86.00 345.00,86.00 Z
           M 348.00,91.00
           C 348.00,91.00 349.00,91.00 349.00,91.00
             349.00,91.00 348.00,92.00 348.00,92.00
             348.00,92.00 348.00,91.00 348.00,91.00 Z
           M 350.00,94.00
           C 350.00,94.00 351.00,94.00 351.00,94.00
             351.00,94.00 350.00,95.00 350.00,95.00
             350.00,95.00 350.00,94.00 350.00,94.00 Z
           M 133.00,97.00
           C 133.00,97.00 102.00,98.00 102.00,98.00
             102.00,98.00 98.00,112.00 98.00,112.00
             98.00,112.00 118.00,112.00 118.00,112.00
             121.05,112.04 128.07,113.67 129.99,111.40
             131.34,109.81 132.51,99.72 133.00,97.00 Z
           M 149.00,97.00
           C 149.00,97.00 137.00,97.00 137.00,97.00
             137.00,97.00 135.00,112.00 135.00,112.00
             135.00,112.00 147.00,113.00 147.00,113.00
             147.00,113.00 149.00,97.00 149.00,97.00 Z
           M 201.00,97.00
           C 201.00,97.00 152.00,97.00 152.00,97.00
             152.00,97.00 151.00,113.00 151.00,113.00
             151.00,113.00 202.00,113.00 202.00,113.00
             202.00,113.00 201.00,97.00 201.00,97.00 Z
           M 256.00,112.00
           C 255.37,108.89 253.91,99.75 251.49,98.02
             249.39,96.53 241.81,97.00 239.00,97.00
             239.00,97.00 207.00,97.00 207.00,97.00
             207.00,97.00 207.00,113.00 207.00,113.00
             207.00,113.00 256.00,112.00 256.00,112.00 Z
           M 271.00,112.00
           C 270.75,109.07 269.69,100.82 267.42,99.01
             265.35,97.36 258.69,97.06 256.00,97.00
             256.00,97.00 259.00,112.00 259.00,112.00
             259.00,112.00 271.00,112.00 271.00,112.00 Z
           M 351.00,96.00
           C 351.00,96.00 352.00,96.00 352.00,96.00
             352.00,96.00 351.00,97.00 351.00,97.00
             351.00,97.00 351.00,96.00 351.00,96.00 Z
           M 100.00,98.04
           C 100.00,98.04 88.00,98.04 88.00,98.04
             88.00,98.04 77.00,99.00 77.00,99.00
             77.00,99.00 74.00,111.04 74.00,111.04
             74.00,111.04 88.00,111.04 88.00,111.04
             88.00,111.04 95.28,110.36 95.28,110.36
             95.28,110.36 100.00,98.04 100.00,98.04 Z
           M 303.00,111.13
           C 302.33,108.04 300.84,101.81 298.35,99.99
             294.87,97.44 277.96,98.00 273.00,98.00
             273.15,101.16 273.90,109.02 276.56,111.13
             278.80,112.63 283.41,111.77 286.00,111.13
             286.00,111.13 303.00,111.13 303.00,111.13 Z
           M 74.00,99.00
           C 63.52,99.01 58.86,98.18 57.00,110.00
             57.00,110.00 71.00,110.00 71.00,110.00
             71.00,110.00 74.00,99.00 74.00,99.00 Z
           M 321.00,100.00
           C 321.00,100.00 302.00,99.00 302.00,99.00
             302.62,101.65 303.86,106.48 305.81,108.40
             308.71,111.24 320.20,109.92 324.00,109.00
             324.00,109.00 321.00,100.00 321.00,100.00 Z
           M 352.00,98.00
           C 352.00,98.00 353.00,98.00 353.00,98.00
             353.00,98.00 352.00,99.00 352.00,99.00
             352.00,99.00 352.00,98.00 352.00,98.00 Z
           M 58.00,100.00
           C 54.31,100.01 38.95,100.69 36.74,102.82
             35.23,104.27 35.23,106.09 35.00,108.00
             39.69,108.04 51.06,110.44 54.30,107.40
             55.82,105.99 57.20,102.01 58.00,100.00 Z
           M 338.00,108.00
           C 334.95,99.61 332.13,101.07 324.00,100.00
             324.00,100.00 326.00,109.00 326.00,109.00
             326.00,109.00 338.00,108.00 338.00,108.00 Z
           M 34.00,102.00
           C 30.40,103.19 30.31,103.46 29.00,107.00
             32.96,106.32 33.11,105.88 34.00,102.00 Z
           M 352.00,106.00
           C 348.99,101.45 342.97,102.01 338.00,102.00
             339.69,109.66 343.32,107.58 352.00,106.00 Z
           M 29.00,103.00
           C 29.00,103.00 22.00,105.00 22.00,105.00
             25.86,106.00 26.54,106.27 29.00,103.00 Z
           M 353.00,108.00
           C 353.00,108.00 341.00,110.00 341.00,110.00
             341.00,110.00 346.66,125.00 346.66,125.00
             346.66,125.00 350.51,132.69 350.51,132.69
             350.51,132.69 362.00,134.00 362.00,134.00
             360.93,126.40 356.55,114.84 353.00,108.00 Z
           M 31.00,109.00
           C 31.00,109.00 26.99,110.57 26.99,110.57
             26.99,110.57 18.00,134.00 18.00,134.00
             18.00,134.00 23.16,132.40 23.16,132.40
             23.16,132.40 26.42,124.00 26.42,124.00
             26.42,124.00 31.00,109.00 31.00,109.00 Z
           M 53.00,110.79
           C 53.00,110.79 34.39,110.79 34.39,110.79
             34.39,110.79 30.34,117.00 30.34,117.00
             30.34,117.00 26.00,133.00 26.00,133.00
             26.00,133.00 47.00,132.00 47.00,132.00
             47.00,132.00 53.00,110.79 53.00,110.79 Z
           M 347.00,133.00
           C 347.00,133.00 342.05,117.00 342.05,117.00
             342.05,117.00 338.58,111.03 338.58,111.03
             338.58,111.03 328.00,111.03 328.00,111.03
             328.32,114.60 331.87,129.98 334.48,131.83
             336.81,133.47 343.99,133.00 347.00,133.00 Z
           M 324.00,111.00
           C 324.00,111.00 307.00,112.00 307.00,112.00
             307.58,115.76 310.52,129.01 313.43,130.98
             315.84,132.61 326.60,132.00 330.00,132.00
             330.00,132.00 324.00,111.00 324.00,111.00 Z
           M 358.00,110.00
           C 358.00,110.00 359.00,110.00 359.00,110.00
             359.00,110.00 358.00,111.00 358.00,111.00
             358.00,111.00 358.00,110.00 358.00,110.00 Z
           M 70.00,113.00
           C 70.00,113.00 55.00,112.00 55.00,112.00
             55.00,112.00 49.00,132.00 49.00,132.00
             49.00,132.00 64.42,130.98 64.42,130.98
             64.42,130.98 70.00,113.00 70.00,113.00 Z
           M 95.00,114.00
           C 95.00,114.00 73.00,113.00 73.00,113.00
             73.00,113.00 69.00,131.00 69.00,131.00
             69.00,131.00 85.00,131.00 85.00,131.00
             85.00,131.00 90.27,130.01 90.27,130.01
             90.27,130.01 95.00,114.00 95.00,114.00 Z
           M 309.00,131.00
           C 308.33,127.69 305.69,115.79 303.30,113.99
             301.76,112.83 298.86,113.01 297.00,113.00
             297.00,113.00 276.00,114.00 276.00,114.00
             276.00,114.00 279.17,129.43 279.17,129.43
             279.17,129.43 287.00,131.00 287.00,131.00
             287.00,131.00 309.00,131.00 309.00,131.00 Z
           M 359.00,112.00
           C 359.00,112.00 360.00,112.00 360.00,112.00
             360.00,112.00 359.00,113.00 359.00,113.00
             359.00,113.00 359.00,112.00 359.00,112.00 Z
           M 130.00,115.00
           C 130.00,115.00 105.00,114.00 105.00,114.00
             105.00,114.00 97.93,115.60 97.93,115.60
             97.93,115.60 94.00,131.00 94.00,131.00
             94.00,131.00 129.00,130.00 129.00,130.00
             129.00,130.00 130.00,115.00 130.00,115.00 Z
           M 259.00,130.00
           C 258.60,126.96 257.53,116.72 255.27,115.00
             253.73,113.85 244.70,115.00 242.00,115.00
             242.00,115.00 215.00,115.00 215.00,115.00
             204.59,115.07 207.99,117.28 208.00,130.00
             208.00,130.00 259.00,130.00 259.00,130.00 Z
           M 272.00,114.00
           C 272.00,114.00 260.00,114.00 260.00,114.00
             260.29,117.60 261.29,127.82 264.31,129.83
             266.54,131.30 271.33,131.00 274.00,131.00
             274.00,131.00 272.00,114.00 272.00,114.00 Z
           M 146.00,115.00
           C 146.00,115.00 135.00,115.00 135.00,115.00
             135.00,115.00 134.00,130.00 134.00,130.00
             134.00,130.00 145.00,130.00 145.00,130.00
             145.00,130.00 146.00,115.00 146.00,115.00 Z
           M 202.00,115.00
           C 202.00,115.00 150.00,115.00 150.00,115.00
             150.00,115.00 149.00,130.00 149.00,130.00
             149.00,130.00 202.00,130.00 202.00,130.00
             202.00,130.00 202.00,115.00 202.00,115.00 Z
           M 360.00,114.00
           C 360.00,114.00 361.00,114.00 361.00,114.00
             361.00,114.00 360.00,115.00 360.00,115.00
             360.00,115.00 360.00,114.00 360.00,114.00 Z
           M 362.00,119.00
           C 362.00,119.00 363.00,119.00 363.00,119.00
             363.00,119.00 362.00,120.00 362.00,120.00
             362.00,120.00 362.00,119.00 362.00,119.00 Z
           M 363.00,122.00
           C 363.00,122.00 364.00,122.00 364.00,122.00
             364.00,122.00 363.00,123.00 363.00,123.00
             363.00,123.00 363.00,122.00 363.00,122.00 Z
           M 364.00,124.00
           C 364.00,124.00 365.00,124.00 365.00,124.00
             365.00,124.00 364.00,125.00 364.00,125.00
             364.00,125.00 364.00,124.00 364.00,124.00 Z
           M 365.00,127.00
           C 365.00,127.00 366.00,127.00 366.00,127.00
             366.00,127.00 365.00,128.00 365.00,128.00
             365.00,128.00 365.00,127.00 365.00,127.00 Z
           M 202.00,132.00
           C 202.00,132.00 175.00,132.00 175.00,132.00
             175.00,132.00 155.00,133.00 155.00,133.00
             147.71,133.13 148.07,135.37 148.00,142.00
             148.00,142.00 203.00,142.00 203.00,142.00
             203.00,142.00 202.00,132.00 202.00,132.00 Z
           M 260.00,142.00
           C 260.00,142.00 258.40,134.02 258.40,134.02
             258.40,134.02 244.00,133.00 244.00,133.00
             244.00,133.00 209.00,132.00 209.00,132.00
             209.00,132.00 208.00,142.00 208.00,142.00
             208.00,142.00 260.00,142.00 260.00,142.00 Z
           M 90.00,133.00
           C 90.00,133.00 75.00,134.00 75.00,134.00
             75.00,134.00 69.60,135.02 69.60,135.02
             69.60,135.02 68.00,141.00 68.00,141.00
             68.00,141.00 83.00,141.00 83.00,141.00
             83.00,141.00 88.98,139.40 88.98,139.40
             88.98,139.40 90.00,133.00 90.00,133.00 Z
           M 128.00,133.00
           C 128.00,133.00 102.00,133.00 102.00,133.00
             102.00,133.00 94.59,134.02 94.59,134.02
             94.59,134.02 92.00,142.00 92.00,142.00
             92.00,142.00 119.00,142.00 119.00,142.00
             119.00,142.00 126.40,140.98 126.40,140.98
             126.40,140.98 128.00,133.00 128.00,133.00 Z
           M 145.00,133.00
           C 145.00,133.00 133.00,133.00 133.00,133.00
             133.00,133.00 133.00,142.00 133.00,142.00
             133.00,142.00 144.00,142.00 144.00,142.00
             144.00,142.00 145.00,133.00 145.00,133.00 Z
           M 276.00,141.00
           C 273.82,132.53 274.98,133.00 263.00,133.00
             263.00,133.00 264.00,142.00 264.00,142.00
             264.00,142.00 276.00,141.00 276.00,141.00 Z
           M 310.00,134.00
           C 310.00,134.00 279.00,133.00 279.00,133.00
             279.00,133.00 281.58,140.98 281.58,140.98
             281.58,140.98 292.00,140.98 292.00,140.98
             292.00,140.98 311.00,140.98 311.00,140.98
             311.00,140.98 310.00,134.00 310.00,134.00 Z
           M 65.00,134.00
           C 65.00,134.00 48.00,135.00 48.00,135.00
             48.00,135.00 47.00,140.00 47.00,140.00
             60.68,140.01 62.86,143.88 65.00,134.00 Z
           M 331.00,135.00
           C 331.00,135.00 313.00,134.00 313.00,134.00
             313.00,134.00 314.00,141.00 314.00,141.00
             314.00,141.00 332.00,140.00 332.00,140.00
             332.00,140.00 331.00,135.00 331.00,135.00 Z
           M 46.00,135.00
           C 39.62,135.00 28.15,133.44 24.00,139.00
             24.00,139.00 45.00,140.00 45.00,140.00
             45.00,140.00 46.00,135.00 46.00,135.00 Z
           M 349.00,139.00
           C 345.73,133.55 339.68,135.00 334.00,135.00
             335.74,142.58 339.95,139.20 349.00,139.00 Z
           M 23.00,136.00
           C 23.00,136.00 17.00,137.00 17.00,137.00
             17.00,137.00 22.00,139.00 22.00,139.00
             22.00,139.00 23.00,136.00 23.00,136.00 Z
           M 363.00,137.00
           C 363.00,137.00 350.00,136.00 350.00,136.00
             353.25,140.33 358.53,138.91 363.00,137.00 Z
           M 369.00,170.00
           C 369.00,170.00 366.20,149.00 366.20,149.00
             366.20,149.00 363.28,141.02 363.28,141.02
             363.28,141.02 352.00,141.02 352.00,141.02
             352.00,141.02 355.13,161.00 355.13,161.00
             355.13,161.00 357.59,168.98 357.59,168.98
             357.59,168.98 369.00,170.00 369.00,170.00 Z
           M 22.00,141.00
           C 22.00,141.00 16.73,141.99 16.73,141.99
             16.73,141.99 14.00,150.00 14.00,150.00
             14.00,150.00 11.00,170.00 11.00,170.00
             11.00,170.00 17.00,170.00 17.00,170.00
             17.00,170.00 22.00,141.00 22.00,141.00 Z
           M 44.00,142.01
           C 44.00,142.01 24.58,142.01 24.58,142.01
             24.58,142.01 22.00,149.00 22.00,149.00
             22.00,149.00 19.00,169.00 19.00,169.00
             19.00,169.00 40.00,169.00 40.00,169.00
             40.00,169.00 44.00,142.01 44.00,142.01 Z
           M 354.00,170.00
           C 354.00,170.00 351.20,149.00 351.20,149.00
             351.20,149.00 348.44,142.06 348.44,142.06
             348.44,142.06 336.00,142.06 336.00,142.06
             336.00,142.06 339.00,169.00 339.00,169.00
             339.00,169.00 354.00,170.00 354.00,170.00 Z
           M 63.00,142.81
           C 63.00,142.81 48.31,142.81 48.31,142.81
             45.78,143.76 45.49,147.59 45.08,150.00
             44.00,156.32 43.02,162.58 43.00,169.00
             43.00,169.00 59.40,167.98 59.40,167.98
             59.40,167.98 61.09,161.00 61.09,161.00
             61.09,161.00 63.00,142.81 63.00,142.81 Z
           M 336.00,169.00
           C 336.00,169.00 333.58,149.00 333.58,149.00
             333.02,145.60 332.96,142.73 328.94,142.16
             328.94,142.16 315.00,143.00 315.00,143.00
             315.00,143.00 318.00,169.00 318.00,169.00
             318.00,169.00 336.00,169.00 336.00,169.00 Z
           M 89.00,144.00
           C 89.00,144.00 67.00,143.00 67.00,143.00
             67.00,143.00 64.00,168.00 64.00,168.00
             64.00,168.00 86.00,169.00 86.00,169.00
             86.00,169.00 89.00,144.00 89.00,144.00 Z
           M 312.00,143.00
           C 312.00,143.00 297.00,143.00 297.00,143.00
             297.00,143.00 280.00,144.00 280.00,144.00
             280.00,144.00 281.91,160.00 281.91,160.00
             281.91,160.00 283.02,167.40 283.02,167.40
             283.02,167.40 289.00,169.00 289.00,169.00
             289.00,169.00 315.00,169.00 315.00,169.00
             315.00,169.00 312.00,143.00 312.00,143.00 Z
           M 127.00,144.00
           C 127.00,144.00 99.00,144.00 99.00,144.00
             99.00,144.00 92.17,145.57 92.17,145.57
             92.17,145.57 90.84,152.00 90.84,152.00
             90.84,152.00 89.00,168.00 89.00,168.00
             98.47,170.69 115.88,168.46 126.00,168.00
             126.00,168.00 127.00,144.00 127.00,144.00 Z
           M 143.04,168.00
           C 143.04,168.00 143.04,153.00 143.04,153.00
             143.37,150.89 144.33,147.41 143.04,145.60
             141.10,143.12 134.02,143.42 132.60,146.31
             131.81,147.92 132.05,152.04 131.91,154.00
             131.91,154.00 131.00,168.00 131.00,168.00
             131.00,168.00 143.04,168.00 143.04,168.00 Z
           M 203.00,145.00
           C 203.00,145.00 148.00,144.00 148.00,144.00
             148.00,144.00 147.04,153.00 147.04,153.00
             147.04,153.00 147.04,168.00 147.04,168.00
             147.04,168.00 203.00,168.00 203.00,168.00
             203.00,168.00 203.00,145.00 203.00,145.00 Z
           M 261.00,144.00
           C 261.00,144.00 217.00,144.00 217.00,144.00
             211.29,144.01 208.30,143.29 208.02,150.00
             208.02,150.00 209.00,168.00 209.00,168.00
             209.00,168.00 250.00,168.00 250.00,168.00
             250.00,168.00 263.00,168.00 263.00,168.00
             263.00,168.00 261.00,144.00 261.00,144.00 Z
           M 276.00,144.00
           C 276.00,144.00 265.00,144.00 265.00,144.00
             265.00,144.00 265.91,159.00 265.91,159.00
             266.05,160.96 265.81,165.08 266.60,166.69
             268.00,169.54 275.13,169.91 277.01,167.40
             278.15,165.73 277.22,162.02 277.01,160.00
             277.01,160.00 276.00,144.00 276.00,144.00 Z
           M 370.00,145.00
           C 370.00,145.00 371.00,145.00 371.00,145.00
             371.00,145.00 370.00,146.00 370.00,146.00
             370.00,146.00 370.00,145.00 370.00,145.00 Z
           M 372.00,153.00
           C 372.00,153.00 373.00,153.00 373.00,153.00
             373.00,153.00 372.00,154.00 372.00,154.00
             372.00,154.00 372.00,153.00 372.00,153.00 Z
           M 373.00,158.00
           C 373.00,158.00 374.00,158.00 374.00,158.00
             374.00,158.00 373.00,159.00 373.00,159.00
             373.00,159.00 373.00,158.00 373.00,158.00 Z
           M 374.00,165.00
           C 374.00,165.00 375.00,165.00 375.00,165.00
             375.00,165.00 374.00,166.00 374.00,166.00
             374.00,166.00 374.00,165.00 374.00,165.00 Z
           M 86.00,171.00
           C 86.00,171.00 70.00,172.00 70.00,172.00
             70.00,172.00 86.00,171.00 86.00,171.00 Z
           M 126.00,171.00
           C 126.00,171.00 97.00,171.00 97.00,171.00
             93.68,171.01 91.33,170.40 89.00,173.00
             89.00,173.00 114.00,173.00 114.00,173.00
             118.58,173.00 122.20,173.80 126.00,171.00 Z
           M 142.00,171.00
           C 142.00,171.00 131.00,171.00 131.00,171.00
             131.00,171.00 131.00,173.00 131.00,173.00
             131.00,173.00 142.00,173.00 142.00,173.00
             142.00,173.00 142.00,171.00 142.00,171.00 Z
           M 203.00,171.00
           C 203.00,171.00 147.00,171.00 147.00,171.00
             147.00,171.00 147.00,173.00 147.00,173.00
             147.00,173.00 203.00,173.00 203.00,173.00
             203.00,173.00 203.00,171.00 203.00,171.00 Z
           M 262.00,171.00
           C 262.00,171.00 209.00,171.00 209.00,171.00
             209.00,171.00 209.00,173.00 209.00,173.00
             209.00,173.00 262.00,173.00 262.00,173.00
             262.00,173.00 262.00,171.00 262.00,171.00 Z
           M 277.00,171.00
           C 277.00,171.00 267.00,171.00 267.00,171.00
             267.00,171.00 267.00,173.00 267.00,173.00
             267.00,173.00 277.00,173.00 277.00,173.00
             277.00,173.00 277.00,171.00 277.00,171.00 Z
           M 307.00,171.00
           C 307.00,171.00 283.00,172.00 283.00,172.00
             283.00,172.00 307.00,171.00 307.00,171.00 Z
           M 17.00,174.00
           C 17.00,174.00 11.17,175.57 11.17,175.57
             11.17,175.57 10.00,184.00 10.00,184.00
             10.00,184.00 11.00,205.00 11.00,205.00
             11.00,205.00 17.00,205.00 17.00,205.00
             17.00,205.00 16.04,187.00 16.04,187.00
             16.04,187.00 17.00,174.00 17.00,174.00 Z
           M 39.00,174.00
           C 39.00,174.00 19.00,174.00 19.00,174.00
             19.00,174.00 19.00,205.00 19.00,205.00
             19.00,205.00 40.00,204.00 40.00,204.00
             40.00,204.00 39.00,174.00 39.00,174.00 Z
           M 60.00,174.00
           C 60.00,174.00 42.00,174.00 42.00,174.00
             42.00,174.00 42.00,204.00 42.00,204.00
             42.00,204.00 60.00,204.00 60.00,204.00
             60.00,204.00 60.00,174.00 60.00,174.00 Z
           M 86.00,175.01
           C 86.00,175.01 65.60,175.01 65.60,175.01
             65.60,175.01 64.00,183.00 64.00,183.00
             64.00,183.00 64.00,204.00 64.00,204.00
             64.00,204.00 86.00,204.00 86.00,204.00
             86.00,204.00 86.00,175.01 86.00,175.01 Z
           M 315.00,174.00
           C 315.00,174.00 283.00,175.00 283.00,175.00
             283.00,175.00 283.00,204.00 283.00,204.00
             283.00,204.00 315.00,204.00 315.00,204.00
             315.00,204.00 316.00,190.00 316.00,190.00
             316.00,190.00 315.00,174.00 315.00,174.00 Z
           M 336.00,174.00
           C 336.00,174.00 318.00,175.00 318.00,175.00
             319.97,183.09 319.10,195.69 318.00,204.00
             318.00,204.00 336.00,204.00 336.00,204.00
             336.00,204.00 336.99,187.00 336.99,187.00
             336.99,187.00 336.00,174.00 336.00,174.00 Z
           M 355.00,174.00
           C 355.00,174.00 339.00,174.00 339.00,174.00
             339.00,174.00 340.00,191.00 340.00,191.00
             340.00,191.00 339.00,203.99 339.00,203.99
             339.00,203.99 353.40,203.99 353.40,203.99
             353.40,203.99 355.00,196.00 355.00,196.00
             355.00,196.00 355.00,174.00 355.00,174.00 Z
           M 369.00,205.00
           C 369.00,205.00 370.00,181.00 370.00,181.00
             370.00,181.00 368.40,175.02 368.40,175.02
             368.40,175.02 357.00,174.00 357.00,174.00
             357.00,174.00 357.00,205.00 357.00,205.00
             357.00,205.00 369.00,205.00 369.00,205.00 Z
           M 126.00,175.00
           C 126.00,175.00 89.00,175.00 89.00,175.00
             89.00,175.00 89.00,204.00 89.00,204.00
             89.00,204.00 117.00,204.00 117.00,204.00
             117.00,204.00 124.98,202.40 124.98,202.40
             124.98,202.40 126.00,196.00 126.00,196.00
             126.00,196.00 126.00,175.00 126.00,175.00 Z
           M 143.00,176.00
           C 143.00,176.00 131.00,175.00 131.00,175.00
             131.00,175.00 131.00,197.00 131.00,197.00
             131.03,198.62 130.96,201.06 132.02,202.40
             133.66,204.48 140.36,204.64 141.95,202.40
             142.86,200.98 142.03,195.10 141.95,193.00
             141.94,187.30 141.65,181.57 143.00,176.00 Z
           M 203.00,175.00
           C 203.00,175.00 146.84,175.00 146.84,175.00
             146.84,175.00 146.84,190.00 146.84,190.00
             146.84,190.00 146.84,204.00 146.84,204.00
             146.84,204.00 169.00,204.00 169.00,204.00
             181.32,203.98 188.67,201.61 202.00,204.00
             202.00,204.00 203.00,175.00 203.00,175.00 Z
           M 263.00,175.00
           C 263.00,175.00 209.00,175.00 209.00,175.00
             209.00,175.00 209.00,197.00 209.00,197.00
             209.00,197.00 210.60,202.98 210.60,202.98
             210.60,202.98 218.00,204.00 218.00,204.00
             218.00,204.00 249.00,204.00 249.00,204.00
             249.00,204.00 261.40,202.98 261.40,202.98
             261.40,202.98 263.00,195.00 263.00,195.00
             263.00,195.00 263.00,175.00 263.00,175.00 Z
           M 278.00,175.00
           C 278.00,175.00 267.00,175.00 267.00,175.00
             267.00,175.00 267.00,204.00 267.00,204.00
             267.00,204.00 278.00,204.00 278.00,204.00
             278.00,204.00 278.00,175.00 278.00,175.00 Z
           M 375.00,176.00
           C 375.00,176.00 376.00,176.00 376.00,176.00
             376.00,176.00 375.00,177.00 375.00,177.00
             375.00,177.00 375.00,176.00 375.00,176.00 Z
           M 375.00,185.00
           C 375.00,185.00 375.00,192.00 375.00,192.00
             375.00,192.00 375.00,185.00 375.00,185.00 Z
           M 375.00,200.00
           C 375.00,200.00 376.00,200.00 376.00,200.00
             376.00,200.00 375.00,201.00 375.00,201.00
             375.00,201.00 375.00,200.00 375.00,200.00 Z
           M 60.00,206.00
           C 60.00,206.00 53.00,207.00 53.00,207.00
             53.00,207.00 60.00,206.00 60.00,206.00 Z
           M 86.00,206.00
           C 86.00,206.00 65.00,207.00 65.00,207.00
             65.00,207.00 86.00,206.00 86.00,206.00 Z
           M 126.00,206.00
           C 126.00,206.00 102.00,206.00 102.00,206.00
             102.00,206.00 89.00,207.00 89.00,207.00
             89.00,207.00 114.00,208.00 114.00,208.00
             118.58,208.00 122.20,208.80 126.00,206.00 Z
           M 143.00,206.00
           C 143.00,206.00 131.00,207.00 131.00,207.00
             135.44,208.26 139.12,208.86 143.00,206.00 Z
           M 203.00,206.00
           C 203.00,206.00 147.00,206.00 147.00,206.00
             147.00,206.00 147.00,208.00 147.00,208.00
             147.00,208.00 203.00,208.00 203.00,208.00
             203.00,208.00 203.00,206.00 203.00,206.00 Z
           M 263.00,206.00
           C 263.00,206.00 209.00,206.00 209.00,206.00
             209.00,206.00 209.00,208.00 209.00,208.00
             209.00,208.00 247.00,208.00 247.00,208.00
             252.17,208.00 258.67,209.19 263.00,206.00 Z
           M 278.00,206.00
           C 278.00,206.00 267.00,206.00 267.00,206.00
             267.00,206.00 267.00,208.00 267.00,208.00
             271.44,208.00 274.31,208.72 278.00,206.00 Z
           M 315.00,206.00
           C 308.55,206.00 287.73,205.12 283.00,207.00
             289.45,207.00 310.27,207.88 315.00,206.00 Z
           M 324.00,206.00
           C 324.00,206.00 319.00,207.00 319.00,207.00
             319.00,207.00 324.00,206.00 324.00,206.00 Z
           M 22.00,238.00
           C 22.00,238.00 18.59,219.00 18.59,219.00
             18.59,219.00 16.98,210.60 16.98,210.60
             16.98,210.60 11.00,209.00 11.00,209.00
             11.00,209.00 14.20,228.00 14.20,228.00
             14.20,228.00 16.85,236.40 16.85,236.40
             16.85,236.40 22.00,238.00 22.00,238.00 Z
           M 44.00,236.00
           C 44.00,236.00 41.13,218.00 41.13,218.00
             41.13,218.00 38.44,210.02 38.44,210.02
             38.44,210.02 20.00,209.00 20.00,209.00
             20.01,216.18 20.79,221.98 22.20,229.00
             22.60,231.01 23.07,234.68 24.73,236.00
             27.52,238.22 40.29,236.49 44.00,236.00 Z
           M 354.00,209.00
           C 354.00,209.00 339.00,209.00 339.00,209.00
             339.00,209.00 335.00,235.99 335.00,235.99
             338.05,236.74 345.79,237.98 348.42,235.99
             350.16,234.65 350.58,231.06 351.00,229.00
             352.32,222.49 353.70,215.64 354.00,209.00 Z
           M 369.00,209.00
           C 369.00,209.00 356.00,209.00 356.00,209.00
             356.00,209.00 351.00,237.00 351.00,237.00
             351.00,237.00 364.00,238.00 364.00,238.00
             364.00,238.00 369.00,209.00 369.00,209.00 Z
           M 61.00,210.00
           C 61.00,210.00 43.00,210.00 43.00,210.00
             43.00,210.00 45.25,228.00 45.25,228.00
             45.25,228.00 47.73,235.01 47.73,235.01
             47.73,235.01 63.00,236.00 63.00,236.00
             63.00,236.00 61.00,210.00 61.00,210.00 Z
           M 89.00,235.00
           C 89.00,235.00 87.09,218.00 87.09,218.00
             87.09,218.00 85.40,211.02 85.40,211.02
             85.40,211.02 65.00,210.00 65.00,210.00
             65.00,210.00 67.00,235.00 67.00,235.00
             67.00,235.00 89.00,235.00 89.00,235.00 Z
           M 126.00,210.00
           C 126.00,210.00 90.00,210.00 90.00,210.00
             90.00,210.00 92.00,235.00 92.00,235.00
             92.00,235.00 126.96,234.00 126.96,234.00
             126.96,234.00 126.96,222.00 126.96,222.00
             126.96,222.00 126.00,210.00 126.00,210.00 Z
           M 144.00,234.00
           C 144.00,234.00 143.01,221.00 143.01,221.00
             142.96,218.92 143.23,214.01 142.40,212.31
             140.99,209.44 132.00,208.14 131.16,214.06
             131.16,214.06 132.00,234.00 132.00,234.00
             132.00,234.00 144.00,234.00 144.00,234.00 Z
           M 203.00,234.00
           C 203.00,234.00 203.00,217.00 203.00,217.00
             203.00,217.00 201.98,211.60 201.98,211.60
             201.98,211.60 196.00,210.00 196.00,210.00
             196.00,210.00 147.04,210.00 147.04,210.00
             147.04,210.00 147.04,224.00 147.04,224.00
             147.04,224.00 148.00,234.00 148.00,234.00
             148.00,234.00 203.00,234.00 203.00,234.00 Z
           M 261.96,210.00
           C 261.96,210.00 209.00,210.00 209.00,210.00
             209.00,210.00 208.04,222.00 208.04,222.00
             208.04,222.00 208.04,234.00 208.04,234.00
             208.04,234.00 261.00,234.00 261.00,234.00
             261.00,234.00 261.96,222.00 261.96,222.00
             261.96,222.00 261.96,210.00 261.96,210.00 Z
           M 278.00,211.01
           C 275.34,210.24 270.00,209.12 267.60,211.01
             265.72,212.51 266.08,215.84 265.91,218.00
             265.91,218.00 264.00,234.18 264.00,234.18
             266.19,234.10 272.10,235.05 273.69,234.18
             276.02,233.36 276.09,230.18 276.42,228.00
             276.42,228.00 278.00,211.01 278.00,211.01 Z
           M 315.00,210.00
           C 315.00,210.00 282.00,210.00 282.00,210.00
             282.00,210.00 280.00,234.00 280.00,234.00
             280.00,234.00 305.00,235.00 305.00,235.00
             305.00,235.00 310.99,233.40 310.99,233.40
             310.99,233.40 312.87,226.00 312.87,226.00
             312.87,226.00 315.00,210.00 315.00,210.00 Z
           M 336.00,210.00
           C 336.00,210.00 318.00,210.00 318.00,210.00
             318.00,210.00 314.00,235.00 314.00,235.00
             317.18,235.90 328.68,237.08 331.26,235.00
             332.91,233.68 333.26,230.01 333.58,228.00
             333.58,228.00 336.00,210.00 336.00,210.00 Z
           M 374.00,211.00
           C 374.00,211.00 375.00,211.00 375.00,211.00
             375.00,211.00 374.00,212.00 374.00,212.00
             374.00,212.00 374.00,211.00 374.00,211.00 Z
           M 373.00,218.00
           C 373.00,218.00 374.00,218.00 374.00,218.00
             374.00,218.00 373.00,219.00 373.00,219.00
             373.00,219.00 373.00,218.00 373.00,218.00 Z
           M 372.00,223.00
           C 372.00,223.00 373.00,223.00 373.00,223.00
             373.00,223.00 372.00,224.00 372.00,224.00
             372.00,224.00 372.00,223.00 372.00,223.00 Z
           M 370.00,231.00
           C 370.00,231.00 371.00,231.00 371.00,231.00
             371.00,231.00 370.00,232.00 370.00,232.00
             370.00,232.00 370.00,231.00 370.00,231.00 Z
           M 128.00,245.86
           C 128.00,243.55 128.48,238.67 126.40,237.02
             124.69,235.66 119.25,235.98 117.00,236.00
             117.00,236.00 107.00,236.96 107.00,236.96
             107.00,236.96 93.00,236.96 93.00,236.96
             93.00,236.96 94.74,244.01 94.74,244.01
             94.74,244.01 103.00,245.86 103.00,245.86
             103.00,245.86 128.00,245.86 128.00,245.86 Z
           M 144.00,236.00
           C 144.00,236.00 133.00,236.00 133.00,236.00
             133.00,236.00 133.00,246.00 133.00,246.00
             133.00,246.00 145.00,246.00 145.00,246.00
             145.00,246.00 144.00,236.00 144.00,236.00 Z
           M 203.00,236.00
           C 203.00,236.00 148.00,236.00 148.00,236.00
             148.00,236.00 149.00,246.00 149.00,246.00
             149.00,246.00 202.00,246.00 202.00,246.00
             202.00,246.00 203.00,236.00 203.00,236.00 Z
           M 260.00,236.00
           C 260.00,236.00 208.00,236.00 208.00,236.00
             208.00,236.00 208.00,246.00 208.00,246.00
             208.00,246.00 259.00,246.00 259.00,246.00
             259.00,246.00 260.00,236.00 260.00,236.00 Z
           M 275.00,237.00
           C 275.00,237.00 265.00,236.00 265.00,236.00
             265.00,236.00 263.00,246.00 263.00,246.00
             274.50,246.00 274.97,246.27 275.00,237.00 Z
           M 90.00,237.07
           C 90.00,237.07 72.06,237.07 72.06,237.07
             68.72,237.71 67.06,240.67 69.18,243.43
             70.60,245.29 73.90,244.99 76.00,245.00
             76.00,245.00 91.00,245.00 91.00,245.00
             91.00,245.00 90.00,237.07 90.00,237.07 Z
           M 311.00,238.00
           C 311.00,238.00 280.00,237.00 280.00,237.00
             280.00,237.00 279.00,245.00 279.00,245.00
             279.00,245.00 302.00,245.00 302.00,245.00
             302.00,245.00 308.42,243.98 308.42,243.98
             308.42,243.98 311.00,238.00 311.00,238.00 Z
           M 44.00,238.00
           C 44.00,238.00 26.59,240.02 26.59,240.02
             26.59,240.02 25.00,243.00 25.00,243.00
             25.00,243.00 46.00,244.00 46.00,244.00
             46.00,244.00 44.00,238.00 44.00,238.00 Z
           M 64.00,238.00
           C 64.00,238.00 48.00,238.00 48.00,238.00
             48.69,246.28 51.48,242.76 64.00,245.00
             64.00,245.00 64.00,238.00 64.00,238.00 Z
           M 331.00,238.00
           C 314.44,238.00 313.29,236.75 313.00,245.00
             326.67,242.55 330.27,246.77 331.00,238.00 Z
           M 348.00,239.00
           C 348.00,239.00 334.00,239.00 334.00,239.00
             334.00,239.00 334.00,244.00 334.00,244.00
             334.00,244.00 348.00,243.00 348.00,243.00
             348.00,243.00 348.00,239.00 348.00,239.00 Z
           M 23.00,243.00
           C 21.73,239.94 21.21,240.28 18.00,240.00
             18.00,240.00 18.00,242.00 18.00,242.00
             18.00,242.00 23.00,243.00 23.00,243.00 Z
           M 363.00,241.00
           C 363.00,241.00 350.00,240.00 350.00,240.00
             350.00,240.00 350.00,243.00 350.00,243.00
             350.00,243.00 363.00,241.00 363.00,241.00 Z
           M 362.00,244.00
           C 362.00,244.00 349.70,245.99 349.70,245.99
             349.70,245.99 346.31,253.00 346.31,253.00
             346.31,253.00 341.00,269.19 341.00,269.19
             341.00,269.19 351.61,269.19 351.61,269.19
             351.61,269.19 355.80,263.00 355.80,263.00
             355.80,263.00 362.00,244.00 362.00,244.00 Z
           M 32.00,269.00
           C 32.00,269.00 27.03,255.00 27.03,255.00
             27.03,255.00 23.91,246.57 23.91,246.57
             23.91,246.57 19.00,245.00 19.00,245.00
             19.67,249.27 24.72,264.75 27.65,267.40
             29.13,268.75 30.19,268.69 32.00,269.00 Z
           M 47.00,246.00
           C 47.00,246.00 26.00,245.00 26.00,245.00
             26.00,245.00 34.00,269.00 34.00,269.00
             34.00,269.00 53.00,267.00 53.00,267.00
             53.00,267.00 47.00,246.00 47.00,246.00 Z
           M 51.00,246.00
           C 49.33,251.09 54.24,261.72 56.00,267.00
             56.00,267.00 70.00,266.00 70.00,266.00
             70.00,266.00 66.00,247.00 66.00,247.00
             66.00,247.00 51.00,246.00 51.00,246.00 Z
           M 330.00,247.00
           C 327.33,246.46 314.55,246.56 312.56,248.02
             309.92,249.96 307.31,262.52 307.00,266.19
             307.00,266.19 322.72,266.19 322.72,266.19
             326.33,264.83 328.83,251.03 330.00,247.00 Z
           M 347.00,246.00
           C 347.00,246.00 334.43,246.57 334.43,246.57
             334.43,246.57 331.12,253.00 331.12,253.00
             331.12,253.00 327.00,267.21 327.00,267.21
             327.00,267.21 337.61,267.21 337.61,267.21
             337.61,267.21 341.68,261.00 341.68,261.00
             341.68,261.00 347.00,246.00 347.00,246.00 Z
           M 92.00,248.00
           C 92.00,248.00 70.00,247.00 70.00,247.00
             70.08,250.53 71.61,263.01 74.56,264.99
             76.13,265.89 79.17,265.20 81.00,264.99
             81.00,264.99 95.00,264.99 95.00,264.99
             95.00,264.99 92.00,248.00 92.00,248.00 Z
           M 308.00,247.00
           C 308.00,247.00 293.00,247.96 293.00,247.96
             293.00,247.96 278.00,247.96 278.00,247.96
             278.00,247.96 276.00,264.96 276.00,264.96
             276.00,264.96 293.00,264.96 293.00,264.96
             295.24,265.03 300.88,265.87 302.49,264.96
             305.70,262.95 307.82,250.72 308.00,247.00 Z
           M 130.00,264.00
           C 130.00,264.00 127.98,249.60 127.98,249.60
             127.98,249.60 122.00,248.00 122.00,248.00
             122.00,248.00 95.00,248.00 95.00,248.00
             95.00,248.00 98.00,265.00 98.00,265.00
             98.00,265.00 130.00,264.00 130.00,264.00 Z
           M 259.00,249.00
           C 250.50,246.59 241.64,248.99 233.00,249.00
             233.00,249.00 208.00,249.00 208.00,249.00
             208.00,249.00 207.00,263.00 207.00,263.00
             207.00,263.00 226.00,263.00 226.00,263.00
             226.00,263.00 241.00,264.00 241.00,264.00
             241.00,264.00 256.00,264.00 256.00,264.00
             256.00,264.00 259.00,249.00 259.00,249.00 Z
           M 274.00,248.00
           C 271.53,248.00 265.46,247.60 263.58,249.02
             261.13,250.90 260.14,260.85 260.00,264.00
             262.47,264.00 268.54,264.40 270.42,262.98
             272.82,261.15 273.75,251.13 274.00,248.00 Z
           M 145.00,249.00
           C 145.00,249.00 134.00,249.00 134.00,249.00
             134.00,252.52 133.55,261.69 137.31,263.19
             139.25,264.27 144.61,263.19 147.00,263.19
             147.00,263.19 145.00,249.00 145.00,249.00 Z
           M 202.00,249.00
           C 202.00,249.00 149.00,249.00 149.00,249.00
             149.00,249.00 150.00,263.00 150.00,263.00
             150.00,263.00 202.00,263.00 202.00,263.00
             202.00,263.00 202.00,249.00 202.00,249.00 Z
           M 365.00,249.00
           C 365.00,249.00 366.00,249.00 366.00,249.00
             366.00,249.00 365.00,250.00 365.00,250.00
             365.00,250.00 365.00,249.00 365.00,249.00 Z
           M 364.00,252.00
           C 364.00,252.00 365.00,252.00 365.00,252.00
             365.00,252.00 364.00,253.00 364.00,253.00
             364.00,253.00 364.00,252.00 364.00,252.00 Z
           M 363.00,254.00
           C 363.00,254.00 364.00,254.00 364.00,254.00
             364.00,254.00 363.00,255.00 363.00,255.00
             363.00,255.00 363.00,254.00 363.00,254.00 Z
           M 362.00,257.00
           C 362.00,257.00 363.00,257.00 363.00,257.00
             363.00,257.00 362.00,258.00 362.00,258.00
             362.00,258.00 362.00,257.00 362.00,257.00 Z
           M 360.00,262.00
           C 360.00,262.00 361.00,262.00 361.00,262.00
             361.00,262.00 360.00,263.00 360.00,263.00
             360.00,263.00 360.00,262.00 360.00,262.00 Z
           M 147.00,265.00
           C 147.00,265.00 135.00,266.00 135.00,266.00
             135.00,266.00 138.60,280.98 138.60,280.98
             138.60,280.98 149.00,282.00 149.00,282.00
             149.00,282.00 147.00,265.00 147.00,265.00 Z
           M 202.00,265.00
           C 202.00,265.00 151.00,265.00 151.00,265.00
             151.03,268.11 151.46,279.16 153.74,281.01
             155.61,282.52 164.29,282.00 167.00,282.00
             167.00,282.00 201.00,282.00 201.00,282.00
             201.00,282.00 202.00,265.00 202.00,265.00 Z
           M 255.00,265.96
           C 255.00,265.96 241.00,265.96 241.00,265.96
             241.00,265.96 230.00,265.00 230.00,265.00
             230.00,265.00 207.00,265.00 207.00,265.00
             207.00,265.00 206.00,281.00 206.00,281.00
             211.83,282.66 234.49,282.43 241.00,281.58
             243.33,281.27 249.95,281.08 251.44,279.98
             254.09,278.02 254.85,269.22 255.00,265.96 Z
           M 359.00,264.00
           C 359.00,264.00 360.00,264.00 360.00,264.00
             360.00,264.00 359.00,265.00 359.00,265.00
             359.00,265.00 359.00,264.00 359.00,264.00 Z
           M 131.00,266.00
           C 131.00,266.00 99.00,267.00 99.00,267.00
             99.61,270.04 101.28,278.19 103.70,280.01
             105.11,281.07 107.32,280.97 109.00,281.00
             109.00,281.00 133.00,281.00 133.00,281.00
             133.00,281.00 131.00,266.00 131.00,266.00 Z
           M 271.00,266.00
           C 271.00,266.00 259.00,266.00 259.00,266.00
             259.00,266.00 256.00,281.00 256.00,281.00
             256.00,281.00 268.00,281.00 268.00,281.00
             268.00,281.00 271.00,266.00 271.00,266.00 Z
           M 100.00,281.00
           C 99.55,278.10 97.75,269.72 95.44,268.02
             93.43,266.54 85.72,266.97 83.00,267.00
             80.97,267.03 77.37,266.90 76.03,268.74
             74.31,271.10 76.90,278.21 79.42,279.43
             80.88,280.14 84.30,280.00 86.00,280.00
             92.61,280.01 93.32,279.80 100.00,281.00 Z
           M 302.00,268.00
           C 302.00,268.00 275.00,267.00 275.00,267.00
             275.00,267.00 272.00,281.00 272.00,281.00
             272.00,281.00 290.00,280.00 290.00,280.00
             292.17,280.00 295.68,280.23 297.50,278.98
             300.27,277.07 301.51,271.14 302.00,268.00 Z
           M 358.00,266.00
           C 358.00,266.00 359.00,266.00 359.00,266.00
             359.00,266.00 358.00,267.00 358.00,267.00
             358.00,267.00 358.00,266.00 358.00,266.00 Z
           M 74.00,279.00
           C 73.47,276.37 72.48,270.64 70.30,269.00
             67.67,267.01 60.11,268.44 57.00,269.00
             61.18,280.98 62.37,279.00 74.00,279.00 Z
           M 323.00,269.00
           C 323.00,269.00 305.00,268.00 305.00,268.00
             305.00,268.00 301.00,279.00 301.00,279.00
             312.13,279.00 320.55,282.46 323.00,269.00 Z
           M 58.00,278.00
           C 57.37,275.67 56.32,271.48 54.30,269.99
             51.74,268.09 38.54,270.37 35.00,271.00
             35.56,272.86 35.96,274.78 37.65,276.01
             40.48,278.07 54.05,278.00 58.00,278.00 Z
           M 337.00,270.00
           C 327.30,269.79 326.04,266.74 323.00,278.00
             330.86,277.99 335.26,279.01 337.00,270.00 Z
           M 35.00,276.00
           C 33.50,272.58 33.57,272.22 30.00,271.00
             30.89,274.88 31.04,275.32 35.00,276.00 Z
           M 351.00,272.00
           C 344.32,271.12 338.83,268.68 337.00,277.00
             341.79,276.78 349.13,277.17 351.00,272.00 Z
           M 29.00,276.00
           C 27.48,271.72 25.69,271.91 22.00,274.00
             22.00,274.00 29.00,276.00 29.00,276.00 Z
           M 34.00,278.00
           C 33.43,282.33 40.45,293.53 43.76,296.43
             45.09,297.60 45.49,297.49 47.00,298.00
             44.12,292.61 38.74,281.13 34.00,278.00 Z
           M 67.00,295.00
           C 67.00,295.00 59.61,281.98 59.61,281.98
             59.61,281.98 39.00,279.00 39.00,279.00
             39.00,279.00 48.00,298.00 48.00,298.00
             48.00,298.00 67.00,295.00 67.00,295.00 Z
           M 352.00,278.00
           C 352.00,278.00 353.00,278.00 353.00,278.00
             353.00,278.00 352.00,279.00 352.00,279.00
             352.00,279.00 352.00,278.00 352.00,278.00 Z
           M 333.00,280.00
           C 330.75,280.00 325.10,279.76 323.27,280.60
             320.12,282.04 315.98,292.58 315.00,295.94
             317.19,296.17 320.76,296.88 322.68,295.94
             325.85,294.25 331.31,283.52 333.00,280.00 Z
           M 76.00,282.00
           C 76.00,282.00 63.00,281.00 63.00,281.00
             63.93,284.26 67.27,293.02 70.39,294.21
             72.60,295.42 77.51,294.33 80.00,294.21
             80.00,294.21 76.00,282.00 76.00,282.00 Z
           M 319.00,281.00
           C 314.32,281.00 303.12,280.45 299.64,283.59
             297.17,285.82 295.74,290.83 295.00,294.00
             299.00,294.18 309.27,296.17 312.37,294.00
             314.91,292.23 317.76,284.09 319.00,281.00 Z
           M 351.00,280.00
           C 351.00,280.00 352.00,280.00 352.00,280.00
             352.00,280.00 351.00,281.00 351.00,281.00
             351.00,281.00 351.00,280.00 351.00,280.00 Z
           M 104.00,293.10
           C 103.71,290.25 103.26,286.65 101.18,284.60
             98.43,281.87 83.28,282.00 79.00,282.00
             79.66,284.87 81.19,291.29 83.65,293.10
             85.67,294.42 88.73,293.55 91.00,293.10
             91.00,293.10 104.00,293.10 104.00,293.10 Z
           M 297.00,282.00
           C 297.00,282.00 271.00,283.00 271.00,283.00
             271.00,283.00 269.00,292.00 269.00,292.00
             269.00,292.00 285.00,293.07 285.00,293.07
             285.00,293.07 291.37,293.07 291.37,293.07
             291.37,293.07 297.00,282.00 297.00,282.00 Z
           M 134.00,284.00
           C 134.00,284.00 120.00,283.04 120.00,283.04
             120.00,283.04 104.00,283.04 104.00,283.04
             104.00,283.04 107.00,293.00 107.00,293.00
             107.00,293.00 135.00,291.00 135.00,291.00
             135.00,291.00 134.00,284.00 134.00,284.00 Z
           M 267.00,283.00
           C 258.32,283.00 253.98,281.57 253.00,292.00
             262.78,292.00 265.44,294.01 267.00,283.00 Z
           M 350.00,282.00
           C 350.00,282.00 351.00,282.00 351.00,282.00
             351.00,282.00 350.00,283.00 350.00,283.00
             350.00,283.00 350.00,282.00 350.00,282.00 Z
           M 150.00,284.00
           C 150.00,284.00 138.00,284.00 138.00,284.00
             138.00,284.00 139.00,291.00 139.00,291.00
             139.00,291.00 151.00,291.00 151.00,291.00
             151.00,291.00 150.00,284.00 150.00,284.00 Z
           M 201.00,284.00
           C 201.00,284.00 153.00,284.00 153.00,284.00
             153.00,284.00 154.00,291.00 154.00,291.00
             154.00,291.00 194.00,291.00 194.00,291.00
             200.19,290.88 200.79,290.05 201.00,284.00 Z
           M 251.00,284.00
           C 251.00,284.00 213.00,284.00 213.00,284.00
             206.81,284.12 206.21,284.95 206.00,291.11
             206.00,291.11 238.00,291.11 238.00,291.11
             240.11,291.03 246.38,291.82 247.72,291.11
             250.61,290.22 250.76,286.59 251.00,284.00 Z
           M 348.00,285.00
           C 348.00,285.00 349.00,285.00 349.00,285.00
             349.00,285.00 348.00,286.00 348.00,286.00
             348.00,286.00 348.00,285.00 348.00,285.00 Z
           M 345.00,290.00
           C 345.00,290.00 346.00,290.00 346.00,290.00
             346.00,290.00 345.00,291.00 345.00,291.00
             345.00,291.00 345.00,290.00 345.00,290.00 Z
           M 200.00,292.00
           C 200.00,292.00 155.00,293.00 155.00,293.00
             155.00,293.00 158.00,313.00 158.00,313.00
             158.00,313.00 199.00,313.00 199.00,313.00
             199.00,313.00 200.00,292.00 200.00,292.00 Z
           M 139.00,313.00
           C 138.84,309.50 136.81,295.96 134.28,293.78
             132.28,292.44 128.32,293.27 126.00,293.78
             119.93,294.37 113.92,293.32 108.00,295.00
             108.00,295.00 115.63,310.40 115.63,310.40
             115.63,310.40 124.00,312.00 124.00,312.00
             124.00,312.00 139.00,313.00 139.00,313.00 Z
           M 155.00,313.00
           C 154.72,309.58 152.65,295.88 150.27,293.99
             148.48,292.57 142.39,293.00 140.00,293.00
             140.17,296.66 141.79,309.93 144.56,311.98
             146.49,313.40 152.49,313.00 155.00,313.00 Z
           M 248.00,293.00
           C 248.00,293.00 206.00,293.00 206.00,293.00
             206.00,293.00 204.00,313.00 204.00,313.00
             204.00,313.00 231.00,313.00 231.00,313.00
             233.62,313.00 239.43,313.41 241.50,311.98
             245.20,309.43 247.79,297.39 248.00,293.00 Z
           M 105.00,294.00
           C 105.00,294.00 84.00,296.00 84.00,296.00
             84.00,296.00 90.64,309.40 90.64,309.40
             90.64,309.40 99.00,311.00 99.00,311.00
             99.00,311.00 113.00,312.00 113.00,312.00
             113.00,312.00 105.00,294.00 105.00,294.00 Z
           M 264.00,294.00
           C 261.64,294.00 255.14,293.74 253.27,294.60
             249.91,296.15 246.58,308.30 246.00,312.00
             246.00,312.00 259.00,312.00 259.00,312.00
             259.00,312.00 264.00,294.00 264.00,294.00 Z
           M 290.00,294.95
           C 290.00,294.95 276.00,294.95 276.00,294.95
             276.00,294.95 268.70,294.95 268.70,294.95
             268.70,294.95 262.00,312.00 262.00,312.00
             265.31,312.00 279.55,311.29 281.79,309.98
             285.73,307.68 289.18,299.36 290.00,294.95 Z
           M 343.00,293.00
           C 343.00,293.00 344.00,293.00 344.00,293.00
             344.00,293.00 343.00,294.00 343.00,294.00
             343.00,294.00 343.00,293.00 343.00,293.00 Z
           M 87.00,310.00
           C 86.10,306.83 82.78,297.91 79.73,296.81
             77.64,295.72 73.32,296.69 71.00,296.81
             75.38,305.98 76.83,309.96 87.00,310.00 Z
           M 311.00,296.80
           C 307.10,296.99 296.80,295.48 294.21,296.80
             290.89,298.03 286.28,307.55 285.00,311.00
             289.52,310.40 301.68,310.16 304.62,308.07
             307.73,305.86 309.96,300.55 311.00,296.80 Z
           M 76.00,309.00
           C 74.69,306.32 71.10,299.47 68.62,298.06
             65.78,296.44 53.36,298.97 50.00,300.00
             51.13,302.28 52.19,304.60 54.33,306.15
             58.02,308.82 71.16,309.00 76.00,309.00 Z
           M 321.00,299.00
           C 312.46,296.59 310.22,301.41 308.00,309.00
             315.73,308.27 317.67,305.78 321.00,299.00 Z
           M 334.00,301.00
           C 323.56,299.03 322.85,297.60 317.00,308.00
             323.06,307.20 331.52,307.44 334.00,301.00 Z
           M 48.00,300.00
           C 48.00,300.00 50.00,304.00 50.00,304.00
             50.00,304.00 48.00,300.00 48.00,300.00 Z
           M 49.00,306.00
           C 46.21,301.23 45.08,300.82 40.00,303.00
             40.00,303.00 49.00,306.00 49.00,306.00 Z
           M 85.00,321.00
           C 80.22,310.40 77.11,311.68 69.00,310.72
             69.00,310.72 56.00,309.00 56.00,309.00
             56.00,309.00 67.00,324.00 67.00,324.00
             67.00,324.00 85.00,321.00 85.00,321.00 Z
           M 313.00,310.00
           C 304.83,311.18 302.19,314.47 299.00,322.00
             305.85,320.89 309.67,315.71 313.00,310.00 Z
           M 56.00,311.00
           C 56.00,311.00 55.00,311.00 55.00,311.00
             55.00,311.00 56.00,312.00 56.00,312.00
             56.00,312.00 56.00,311.00 56.00,311.00 Z
           M 303.00,311.00
           C 303.00,311.00 295.00,311.91 295.00,311.91
             286.68,312.48 283.95,310.80 279.00,319.00
             279.00,319.00 288.00,320.16 288.00,320.16
             297.16,321.14 299.30,320.67 303.00,311.00 Z
           M 57.00,312.00
           C 57.00,312.00 56.00,312.00 56.00,312.00
             56.00,312.00 57.00,313.00 57.00,313.00
             57.00,313.00 57.00,312.00 57.00,312.00 Z
           M 93.00,320.00
           C 89.65,312.31 89.20,312.03 81.00,312.00
             84.52,318.01 85.94,319.75 93.00,320.00 Z
           M 58.00,313.00
           C 58.00,313.00 57.00,313.00 57.00,313.00
             57.00,313.00 58.00,314.00 58.00,314.00
             58.00,314.00 58.00,313.00 58.00,313.00 Z
           M 117.00,318.00
           C 116.19,316.74 115.96,315.93 114.59,315.02
             110.91,312.58 96.83,313.00 92.00,313.00
             97.30,322.53 99.28,318.00 117.00,318.00 Z
           M 280.00,313.00
           C 276.52,313.00 264.17,313.10 261.72,314.99
             260.53,315.91 260.49,316.78 260.00,318.08
             260.00,318.08 268.00,318.08 268.00,318.08
             274.65,318.80 277.01,320.36 280.00,313.00 Z
           M 140.00,315.00
           C 140.00,315.00 131.00,314.04 131.00,314.04
             131.00,314.04 117.00,314.04 117.00,314.04
             117.00,314.04 119.00,318.00 119.00,318.00
             119.00,318.00 140.00,317.00 140.00,317.00
             140.00,317.00 140.00,315.00 140.00,315.00 Z
           M 257.00,314.00
           C 252.29,314.00 246.87,312.71 244.00,317.00
             244.00,317.00 257.00,317.00 257.00,317.00
             257.00,317.00 257.00,314.00 257.00,314.00 Z
           M 326.00,313.00
           C 326.00,313.00 321.00,319.00 321.00,319.00
             321.00,319.00 326.00,313.00 326.00,313.00 Z
           M 156.00,315.00
           C 156.00,315.00 144.00,316.00 144.00,316.00
             144.00,316.00 156.00,315.00 156.00,315.00 Z
           M 160.00,315.00
           C 160.00,315.00 159.00,315.00 159.00,315.00
             159.00,315.00 160.00,316.00 160.00,316.00
             160.00,316.00 160.00,315.00 160.00,315.00 Z
           M 241.00,315.00
           C 241.00,315.00 219.00,316.00 219.00,316.00
             219.00,316.00 237.89,316.62 237.89,316.62
             237.89,316.62 241.00,315.00 241.00,315.00 Z
           M 197.00,337.04
           C 197.00,337.04 197.89,318.60 197.89,318.60
             197.89,318.60 192.00,317.00 192.00,317.00
             192.00,317.00 160.00,318.00 160.00,318.00
             160.31,321.66 162.97,334.95 165.70,337.01
             167.41,338.29 171.86,338.04 174.00,337.99
             174.00,337.99 183.00,337.04 183.00,337.04
             183.00,337.04 197.00,337.04 197.00,337.04 Z
           M 239.00,318.00
           C 239.00,318.00 220.00,318.00 220.00,318.00
             220.00,318.00 204.00,317.00 204.00,317.00
             204.00,317.00 202.00,338.00 202.00,338.00
             202.00,338.00 222.00,338.00 222.00,338.00
             224.38,338.00 227.71,338.20 229.79,336.98
             233.96,334.52 238.50,322.75 239.00,318.00 Z
           M 148.00,338.00
           C 148.00,338.00 141.07,319.60 141.07,319.60
             141.07,319.60 137.94,318.16 137.94,318.16
             137.94,318.16 120.00,319.00 120.00,319.00
             121.99,323.45 128.83,335.61 133.17,337.40
             135.46,338.35 144.97,338.00 148.00,338.00 Z
           M 157.00,318.00
           C 157.00,318.00 145.00,318.00 145.00,318.00
             145.76,321.76 148.68,335.00 151.51,336.98
             153.60,338.45 160.28,338.00 163.00,338.00
             163.00,338.00 157.00,318.00 157.00,318.00 Z
           M 255.00,319.00
           C 255.00,319.00 243.00,318.00 243.00,318.00
             243.00,318.00 233.00,338.00 233.00,338.00
             235.54,338.00 243.72,338.31 245.61,337.43
             249.15,335.78 254.26,322.93 255.00,319.00 Z
           M 130.00,338.00
           C 130.00,338.00 121.69,325.00 121.69,325.00
             121.69,325.00 116.79,319.77 116.79,319.77
             116.79,319.77 97.00,321.00 97.00,321.00
             98.77,324.97 103.66,333.64 107.32,335.83
             109.86,337.34 114.08,336.97 117.00,337.00
             117.00,337.00 130.00,338.00 130.00,338.00 Z
           M 275.00,321.00
           C 275.00,321.00 259.49,320.11 259.49,320.11
             259.49,320.11 250.00,338.00 250.00,338.00
             252.59,337.66 260.11,336.94 262.00,335.98
             266.11,333.89 272.43,325.05 275.00,321.00 Z
           M 104.00,336.00
           C 104.00,336.00 93.79,322.10 93.79,322.10
             93.79,322.10 89.00,322.10 89.00,322.10
             93.05,327.72 97.33,333.39 104.00,336.00 Z
           M 295.00,323.00
           C 291.91,322.44 282.69,320.80 280.01,321.16
             275.06,321.82 266.95,332.86 264.00,337.00
             264.00,337.00 285.91,333.99 285.91,333.99
             285.91,333.99 295.00,323.00 295.00,323.00 Z
           M 320.00,320.00
           C 320.00,320.00 321.00,320.00 321.00,320.00
             321.00,320.00 320.00,321.00 320.00,321.00
             320.00,321.00 320.00,320.00 320.00,320.00 Z
           M 99.00,336.00
           C 97.01,331.80 90.64,324.03 86.00,322.88
             83.00,322.14 73.45,324.35 70.00,325.00
             75.48,336.55 87.97,334.02 99.00,336.00 Z
           M 299.00,323.00
           C 299.00,323.00 297.00,323.00 297.00,323.00
             297.00,323.00 289.00,334.00 289.00,334.00
             289.00,334.00 300.00,326.00 300.00,326.00
             300.00,326.00 300.00,324.00 300.00,324.00
             300.00,324.00 299.00,323.00 299.00,323.00 Z
           M 312.00,327.00
           C 301.19,322.41 299.46,326.11 292.00,334.00
             298.61,333.70 308.50,333.37 312.00,327.00 Z
           M 289.00,334.00
           C 289.00,334.00 288.00,334.00 288.00,334.00
             288.00,334.00 289.00,335.00 289.00,335.00
             289.00,335.00 289.00,334.00 289.00,334.00 Z
           M 287.00,336.00
           C 287.00,336.00 286.00,336.00 286.00,336.00
             286.00,336.00 287.00,337.00 287.00,337.00
             287.00,337.00 287.00,336.00 287.00,336.00 Z
           M 283.00,337.00
           C 283.00,337.00 263.11,338.59 263.11,338.59
             263.11,338.59 260.00,341.00 260.00,341.00
             273.11,341.29 275.94,346.52 283.00,337.00 Z
           M 286.00,337.00
           C 286.00,337.00 285.00,337.00 285.00,337.00
             285.00,337.00 286.00,338.00 286.00,338.00
             286.00,338.00 286.00,337.00 286.00,337.00 Z
           M 106.00,338.00
           C 106.00,338.00 105.00,338.00 105.00,338.00
             105.00,338.00 106.00,339.00 106.00,339.00
             106.00,339.00 106.00,338.00 106.00,338.00 Z
           M 124.00,339.00
           C 124.00,339.00 109.00,338.00 109.00,338.00
             112.48,342.64 119.29,341.17 124.00,339.00 Z
           M 285.00,338.00
           C 285.00,338.00 284.00,338.00 284.00,338.00
             284.00,338.00 285.00,339.00 285.00,339.00
             285.00,339.00 285.00,338.00 285.00,338.00 Z
           M 107.00,339.00
           C 107.00,339.00 106.00,339.00 106.00,339.00
             106.00,339.00 107.00,340.00 107.00,340.00
             107.00,340.00 107.00,339.00 107.00,339.00 Z
           M 259.00,339.00
           C 259.00,339.00 253.00,340.00 253.00,340.00
             253.00,340.00 259.00,339.00 259.00,339.00 Z
           M 284.00,339.00
           C 284.00,339.00 283.00,339.00 283.00,339.00
             283.00,339.00 284.00,340.00 284.00,340.00
             284.00,340.00 284.00,339.00 284.00,339.00 Z
           M 108.00,340.00
           C 108.00,340.00 107.00,340.00 107.00,340.00
             107.00,340.00 108.00,341.00 108.00,341.00
             108.00,341.00 108.00,340.00 108.00,340.00 Z
           M 156.00,355.87
           C 156.00,355.87 147.59,340.57 147.59,340.57
             147.59,340.57 135.00,340.00 135.00,340.00
             137.37,345.05 144.58,353.90 150.00,355.87
             151.89,356.37 154.04,356.09 156.00,355.87 Z
           M 170.00,355.00
           C 168.94,351.27 165.53,342.14 161.87,340.60
             159.90,339.77 154.36,340.00 152.00,340.00
             154.53,350.76 157.53,358.54 170.00,355.00 Z
           M 228.00,340.04
           C 228.00,340.04 213.00,340.04 213.00,340.04
             213.00,340.04 201.00,341.00 201.00,341.00
             201.00,341.00 199.00,355.00 199.00,355.00
             199.00,355.00 215.91,355.69 215.91,355.69
             221.05,354.32 226.47,344.81 228.00,340.04 Z
           M 245.00,340.80
           C 245.00,340.80 232.09,340.80 232.09,340.80
             232.09,340.80 219.00,356.00 219.00,356.00
             219.00,356.00 230.99,356.84 230.99,356.84
             236.84,356.06 242.28,345.84 245.00,340.80 Z
           M 148.00,357.00
           C 145.67,353.75 136.03,342.95 132.72,341.57
             129.37,340.19 116.67,341.95 113.00,343.00
             123.78,358.05 131.75,357.00 148.00,357.00 Z
           M 196.00,341.00
           C 196.00,341.00 166.00,341.00 166.00,341.00
             167.14,344.28 169.55,352.15 172.39,353.98
             174.79,355.52 183.80,355.02 187.00,355.00
             189.19,354.98 192.45,355.26 193.99,353.40
             195.77,351.26 195.97,343.83 196.00,341.00 Z
           M 256.00,341.79
           C 256.00,341.79 248.32,341.79 248.32,341.79
             248.32,341.79 236.00,357.00 236.00,357.00
             242.93,355.29 251.83,347.70 256.00,341.79 Z
           M 297.00,340.00
           C 297.00,340.00 295.00,343.00 295.00,343.00
             295.00,343.00 295.00,342.00 295.00,342.00
             295.00,342.00 297.00,340.00 297.00,340.00 Z
           M 88.00,342.00
           C 88.00,342.00 87.00,342.00 87.00,342.00
             87.00,342.00 88.00,343.00 88.00,343.00
             88.00,343.00 88.00,342.00 88.00,342.00 Z
           M 275.00,344.00
           C 275.00,344.00 260.00,342.40 260.00,342.40
             256.20,343.04 243.19,353.84 240.00,357.00
             240.00,357.00 257.00,355.67 257.00,355.67
             257.00,355.67 265.00,354.00 265.00,354.00
             265.00,354.00 275.00,344.00 275.00,344.00 Z
           M 91.00,344.00
           C 91.00,344.00 90.00,344.00 90.00,344.00
             90.00,344.00 91.00,345.00 91.00,345.00
             91.00,345.00 91.00,344.00 91.00,344.00 Z
           M 92.00,345.00
           C 92.00,345.00 91.00,345.00 91.00,345.00
             91.00,345.00 92.00,346.00 92.00,346.00
             92.00,346.00 92.00,345.00 92.00,345.00 Z
           M 99.00,349.00
           C 99.00,349.00 100.00,349.00 100.00,349.00
             100.00,349.00 99.00,350.00 99.00,350.00
             99.00,350.00 99.00,349.00 99.00,349.00 Z
           M 97.00,350.00
           C 97.00,350.00 98.00,350.00 98.00,350.00
             98.00,350.00 97.00,351.00 97.00,351.00
             97.00,351.00 97.00,350.00 97.00,350.00 Z
           M 101.00,350.00
           C 101.00,350.00 102.00,350.00 102.00,350.00
             102.00,350.00 101.00,351.00 101.00,351.00
             101.00,351.00 101.00,350.00 101.00,350.00 Z
           M 282.00,351.00
           C 282.00,351.00 283.00,351.00 283.00,351.00
             283.00,351.00 282.00,352.00 282.00,352.00
             282.00,352.00 282.00,351.00 282.00,351.00 Z
           M 96.00,352.00
           C 96.00,352.00 119.00,356.00 119.00,356.00
             111.86,355.99 102.38,355.33 96.00,352.00 Z
           M 105.00,353.00
           C 105.00,353.00 104.00,353.00 104.00,353.00
             104.00,353.00 105.00,354.00 105.00,354.00
             105.00,354.00 105.00,353.00 105.00,353.00 Z
           M 125.00,354.00
           C 125.00,354.00 124.00,354.00 124.00,354.00
             124.00,354.00 125.00,355.00 125.00,355.00
             125.00,355.00 125.00,354.00 125.00,354.00 Z
           M 264.00,354.00
           C 264.00,354.00 263.00,354.00 263.00,354.00
             263.00,354.00 264.00,355.00 264.00,355.00
             264.00,355.00 264.00,354.00 264.00,354.00 Z
           M 126.00,355.00
           C 126.00,355.00 125.00,355.00 125.00,355.00
             125.00,355.00 126.00,356.00 126.00,356.00
             126.00,356.00 126.00,355.00 126.00,355.00 Z
           M 194.00,356.00
           C 194.00,356.00 173.00,356.00 173.00,356.00
             173.00,356.00 173.00,358.04 173.00,358.04
             173.00,358.04 181.00,358.04 181.00,358.04
             185.89,358.42 190.72,360.70 194.00,356.00 Z
           M 216.00,357.00
           C 216.00,357.00 199.00,356.00 199.00,356.00
             199.00,356.00 199.00,358.00 199.00,358.00
             199.00,358.00 216.00,357.00 216.00,357.00 Z
           M 172.00,357.00
           C 172.00,357.00 160.00,358.00 160.00,358.00
             160.00,358.00 172.00,357.00 172.00,357.00 Z
           M 176.00,359.00
           C 174.21,367.85 188.41,375.23 194.00,369.00
             194.00,369.00 191.00,370.00 191.00,370.00
             191.00,370.00 193.00,360.00 193.00,360.00
             193.00,360.00 176.00,359.00 176.00,359.00 Z
           M 196.00,360.00
           C 196.00,360.00 195.00,360.00 195.00,360.00
             195.00,360.00 196.00,361.00 196.00,361.00
             196.00,361.00 196.00,360.00 196.00,360.00 Z
           M 136.00,360.00
           C 136.00,360.00 137.00,360.00 137.00,360.00
             137.00,360.00 136.00,361.00 136.00,361.00
             136.00,361.00 136.00,360.00 136.00,360.00 Z
           M 195.00,361.00
           C 195.00,361.00 194.00,368.00 194.00,368.00
             194.00,368.00 195.00,361.00 195.00,361.00 Z
           M 138.00,365.00
           C 138.00,365.00 139.00,365.00 139.00,365.00
             139.00,365.00 138.00,366.00 138.00,366.00
             138.00,366.00 138.00,365.00 138.00,365.00 Z
           M 140.00,366.00
           C 140.00,366.00 150.00,371.00 150.00,371.00
             145.25,370.00 143.45,369.58 140.00,366.00 Z
           M 206.00,366.00
           C 204.72,370.02 201.20,369.52 198.00,368.00
             198.00,368.00 206.00,366.00 206.00,366.00 Z
           M 135.00,368.00
           C 135.00,368.00 136.00,368.00 136.00,368.00
             136.00,368.00 135.00,369.00 135.00,369.00
             135.00,369.00 135.00,368.00 135.00,368.00 Z
           M 229.00,369.00
           C 229.00,369.00 230.00,369.00 230.00,369.00
             230.00,369.00 229.00,370.00 229.00,370.00
             229.00,370.00 229.00,369.00 229.00,369.00 Z" />
</svg>
