<?xml version="1.0" encoding="UTF-8" standalone="no"?>
<!DOCTYPE svg PUBLIC "-//W3C//DTD SVG 20010904//EN"
              "http://www.w3.org/TR/2001/REC-SVG-20010904/DTD/svg10.dtd">

<svg xmlns="http://www.w3.org/2000/svg"
     width="1.25667in" height="1.25667in"
     viewBox="0 0 377 377">
  <path id="Auswahl #5"
        fill="none" stroke="black" stroke-width="1"
        d="M 188.00,0.00
           C 191.05,4.13 190.62,12.77 191.00,18.00
             191.00,18.00 198.00,18.00 198.00,18.00
             198.00,18.00 193.00,5.00 193.00,5.00
             193.00,5.00 199.64,16.40 199.64,16.40
             199.64,16.40 219.00,19.00 219.00,19.00
             219.00,19.00 211.00,11.00 211.00,11.00
             211.00,11.00 225.00,19.00 225.00,19.00
             221.33,13.73 218.41,9.75 212.00,8.00
             212.00,8.00 211.00,4.00 211.00,4.00
             216.25,6.10 217.75,7.47 222.00,3.00
             222.00,3.00 225.00,4.00 225.00,4.00
             222.20,6.76 221.88,6.68 218.00,7.00
             220.76,10.85 226.31,17.52 231.00,18.69
             233.51,19.31 236.95,19.62 238.00,17.00
             238.00,17.00 250.00,17.00 250.00,17.00
             250.00,17.00 248.00,15.00 248.00,15.00
             248.00,15.00 248.00,14.00 248.00,14.00
             253.12,15.53 253.15,14.78 258.00,13.00
             258.00,13.00 255.00,19.00 255.00,19.00
             259.24,20.16 265.15,20.50 268.00,24.00
             268.00,24.00 274.00,24.00 274.00,24.00
             274.00,24.00 262.00,24.00 262.00,24.00
             271.44,28.46 269.00,33.17 280.00,33.00
             280.00,33.00 278.00,31.00 278.00,31.00
             278.00,31.00 278.00,30.00 278.00,30.00
             282.31,31.33 282.87,31.30 286.00,28.00
             286.00,28.00 288.00,28.00 288.00,28.00
             288.00,28.00 289.00,29.00 289.00,29.00
             289.00,29.00 289.00,31.00 289.00,31.00
             289.00,31.00 284.00,33.00 284.00,33.00
             291.47,39.46 294.05,42.65 304.00,44.00
             304.00,44.00 302.00,42.00 302.00,42.00
             302.00,42.00 302.00,41.00 302.00,41.00
             302.00,41.00 313.00,48.00 313.00,48.00
             313.00,48.00 309.00,47.00 309.00,47.00
             309.00,47.00 314.00,51.00 314.00,51.00
             314.00,51.00 315.00,48.00 315.00,48.00
             315.56,49.97 315.91,52.17 316.83,54.00
             317.91,56.17 327.39,67.82 329.30,69.30
             334.22,73.11 335.93,70.00 340.00,77.00
             340.00,77.00 336.00,79.00 336.00,79.00
             336.00,79.00 347.63,99.42 347.63,99.42
             351.77,103.21 355.19,99.38 358.00,107.00
             358.00,107.00 351.00,108.00 351.00,108.00
             351.00,108.00 359.93,131.72 359.93,131.72
             363.58,136.72 367.69,132.40 370.00,139.00
             370.00,139.00 362.00,140.00 362.00,140.00
             362.00,140.00 366.00,170.00 366.00,170.00
             366.00,170.00 376.00,170.00 376.00,170.00
             376.00,170.00 376.00,173.00 376.00,173.00
             376.00,173.00 368.60,174.74 368.60,174.74
             368.60,174.74 367.00,183.00 367.00,183.00
             367.00,183.00 367.00,205.00 367.00,205.00
             367.00,205.00 376.00,205.00 376.00,205.00
             376.00,205.00 376.00,208.00 376.00,208.00
             376.00,208.00 366.00,209.00 366.00,209.00
             366.00,209.00 361.00,238.00 361.00,238.00
             361.00,238.00 370.00,240.00 370.00,240.00
             370.00,240.00 359.84,246.31 359.84,246.31
             359.84,246.31 351.00,270.00 351.00,270.00
             351.00,270.00 357.00,272.00 357.00,272.00
             354.33,278.81 350.76,275.45 346.63,279.51
             344.97,281.14 336.02,297.33 335.00,300.00
             335.00,300.00 339.00,301.00 339.00,301.00
             335.87,307.14 333.81,305.36 329.04,308.70
             326.26,310.64 316.53,321.97 315.22,325.00
             314.92,326.47 315.04,327.52 315.22,329.00
             315.22,329.00 311.00,327.00 311.00,327.00
             311.00,327.00 308.00,331.00 308.00,331.00
             308.00,331.00 312.00,331.00 312.00,331.00
             312.00,331.00 302.00,336.00 302.00,336.00
             300.97,333.95 299.06,334.54 296.99,335.12
             292.63,336.34 288.24,340.54 284.00,343.00
             284.00,343.00 291.00,336.00 291.00,336.00
             282.62,336.18 280.51,336.52 275.00,343.00
             275.00,343.00 283.00,343.00 283.00,343.00
             283.00,343.00 288.00,347.00 288.00,347.00
             288.00,347.00 285.00,350.00 285.00,350.00
             282.25,347.06 282.03,346.88 278.00,347.00
             275.18,340.66 263.75,352.75 261.00,355.00
             265.58,354.13 267.50,353.00 272.00,355.00
             268.61,355.16 257.92,356.43 255.92,359.10
             255.06,360.24 255.19,363.43 255.00,365.00
             251.90,362.82 251.80,362.64 248.00,363.00
             246.74,359.74 243.11,359.89 240.00,359.53
             226.17,357.94 227.05,359.95 217.00,370.00
             217.00,370.00 224.00,370.00 224.00,370.00
             224.00,370.00 220.00,374.00 220.00,374.00
             218.41,369.93 214.12,371.86 211.00,373.00
             211.00,373.00 206.00,368.00 206.00,368.00
             216.41,370.52 218.26,366.00 225.00,359.00
             218.19,359.79 216.77,362.65 211.00,366.00
             211.00,366.00 218.00,359.00 218.00,359.00
             209.52,359.00 196.37,356.70 196.00,369.00
             196.00,369.00 193.00,370.00 193.00,370.00
             193.00,370.00 197.00,360.00 197.00,360.00
             197.00,360.00 191.00,360.00 191.00,360.00
             191.00,360.00 190.00,371.00 190.00,371.00
             190.00,371.00 195.00,372.00 195.00,372.00
             195.00,372.00 190.00,372.00 190.00,372.00
             190.00,372.00 189.00,376.00 189.00,376.00
             189.00,376.00 189.00,372.00 189.00,372.00
             189.00,372.00 182.00,372.00 182.00,372.00
             181.68,369.17 180.80,367.45 179.33,365.00
             174.33,356.67 166.74,359.00 158.00,359.00
             158.00,359.00 164.00,365.00 164.00,365.00
             164.00,365.00 154.00,359.00 154.00,359.00
             158.74,365.26 161.64,369.92 170.00,368.00
             170.00,368.00 166.00,370.00 166.00,370.00
             166.00,370.00 167.00,373.00 167.00,373.00
             163.70,371.77 158.56,369.52 157.00,374.00
             157.00,374.00 152.00,370.00 152.00,370.00
             152.00,370.00 160.00,370.00 160.00,370.00
             153.09,360.35 149.64,357.73 138.00,359.43
             133.20,360.13 132.60,359.84 128.00,362.00
             128.00,362.00 137.00,367.00 137.00,367.00
             131.87,364.79 127.67,360.76 123.00,365.00
             123.00,365.00 120.00,364.00 120.00,364.00
             120.00,364.00 124.00,359.00 124.00,359.00
             124.00,359.00 105.00,354.00 105.00,354.00
             105.00,354.00 117.00,355.00 117.00,355.00
             117.00,355.00 111.00,349.84 111.00,349.84
             106.36,345.73 103.79,342.40 98.00,347.00
             98.00,347.00 91.00,350.00 91.00,350.00
             91.00,350.00 90.00,346.00 90.00,346.00
             90.00,346.00 94.00,344.00 94.00,344.00
             85.37,339.56 85.01,336.11 75.00,334.00
             75.00,334.00 78.00,338.00 78.00,338.00
             78.00,338.00 72.00,333.91 72.00,333.91
             72.00,333.91 65.00,330.00 65.00,330.00
             65.00,330.00 79.00,332.00 79.00,332.00
             79.00,332.00 67.00,326.00 67.00,326.00
             67.00,326.00 69.00,330.00 69.00,330.00
             69.00,330.00 65.00,327.00 65.00,327.00
             65.00,327.00 62.00,329.00 62.00,329.00
             62.00,329.00 64.00,324.00 64.00,324.00
             56.10,318.33 54.55,313.24 49.83,309.51
             44.77,305.50 41.59,308.04 38.00,301.00
             38.00,301.00 43.00,299.00 43.00,299.00
             43.00,299.00 31.37,279.56 31.37,279.56
             27.10,275.53 22.78,279.10 20.00,272.00
             20.00,272.00 27.00,270.00 27.00,270.00
             27.00,270.00 21.69,255.00 21.69,255.00
             20.86,252.61 19.81,248.10 18.28,246.31
             14.68,242.11 11.38,246.21 7.00,240.00
             7.00,240.00 17.00,238.00 17.00,238.00
             17.00,238.00 12.00,209.00 12.00,209.00
             12.00,209.00 1.00,208.00 1.00,208.00
             1.00,208.00 1.00,205.00 1.00,205.00
             1.00,205.00 11.00,205.00 11.00,205.00
             11.00,205.00 11.00,174.00 11.00,174.00
             11.00,174.00 1.00,173.00 1.00,173.00
             1.00,173.00 1.00,170.00 1.00,170.00
             1.00,170.00 12.00,170.00 12.00,170.00
             12.00,170.00 16.00,140.00 16.00,140.00
             16.00,140.00 7.00,139.00 7.00,139.00
             7.00,139.00 7.00,136.00 7.00,136.00
             7.00,136.00 17.49,132.44 17.49,132.44
             17.49,132.44 21.03,124.00 21.03,124.00
             21.03,124.00 27.00,109.00 27.00,109.00
             27.00,109.00 19.00,106.00 19.00,106.00
             23.34,99.56 26.34,102.85 30.61,98.69
             32.40,96.95 40.30,82.21 42.00,79.00
             42.00,79.00 37.00,77.00 37.00,77.00
             41.28,69.64 43.51,73.20 48.91,68.70
             48.91,68.70 63.00,53.00 63.00,53.00
             63.00,53.00 61.00,49.00 61.00,49.00
             64.91,49.65 64.82,49.36 68.00,47.00
             68.00,47.00 64.00,47.00 64.00,47.00
             64.00,47.00 78.00,39.00 78.00,39.00
             78.00,39.00 74.00,44.00 74.00,44.00
             82.34,42.22 86.20,37.83 93.00,33.00
             93.00,33.00 88.00,31.00 88.00,31.00
             88.00,31.00 89.00,28.00 89.00,28.00
             92.99,30.27 93.40,30.98 98.00,30.00
             98.00,30.00 97.00,33.00 97.00,33.00
             107.68,33.35 107.25,30.18 116.00,23.00
             111.05,23.27 107.68,25.22 103.00,23.00
             103.00,23.00 123.00,19.00 123.00,19.00
             123.00,19.00 123.00,17.00 123.00,17.00
             123.00,17.00 119.00,13.00 119.00,13.00
             119.00,13.00 122.00,12.00 122.00,12.00
             124.34,19.18 130.94,11.01 137.00,11.00
             137.00,11.00 127.00,16.00 127.00,16.00
             131.79,17.99 132.94,18.18 138.00,17.00
             139.10,19.42 141.55,19.01 144.00,18.99
             151.75,18.95 154.74,13.27 160.00,8.00
             155.89,7.12 155.00,7.05 152.00,4.00
             152.00,4.00 156.00,3.00 156.00,3.00
             157.67,8.27 163.35,5.40 167.00,4.00
             167.00,4.00 153.00,19.00 153.00,19.00
             153.00,19.00 164.00,12.00 164.00,12.00
             164.00,12.00 157.00,19.00 157.00,19.00
             157.00,19.00 175.61,16.98 175.61,16.98
             175.61,16.98 185.00,5.00 185.00,5.00
             185.00,5.00 178.00,18.00 178.00,18.00
             178.00,18.00 189.00,18.00 189.00,18.00
             189.00,18.00 188.00,0.00 188.00,0.00 Z
           M 168.00,3.00
           C 168.00,3.00 169.00,3.00 169.00,3.00
             169.00,3.00 168.00,4.00 168.00,4.00
             168.00,4.00 168.00,3.00 168.00,3.00 Z
           M 209.00,3.00
           C 209.00,3.00 210.00,3.00 210.00,3.00
             210.00,3.00 209.00,4.00 209.00,4.00
             209.00,4.00 209.00,3.00 209.00,3.00 Z
           M 170.00,6.00
           C 170.00,6.00 175.00,7.00 175.00,7.00
             175.00,7.00 170.00,6.00 170.00,6.00 Z
           M 176.00,6.00
           C 176.00,6.00 177.00,6.00 177.00,6.00
             177.00,6.00 176.00,7.00 176.00,7.00
             176.00,7.00 176.00,6.00 176.00,6.00 Z
           M 200.00,6.00
           C 200.00,6.00 207.00,7.00 207.00,7.00
             207.00,7.00 200.00,6.00 200.00,6.00 Z
           M 143.00,7.00
           C 143.00,7.00 144.00,7.00 144.00,7.00
             144.00,7.00 143.00,8.00 143.00,8.00
             143.00,8.00 143.00,7.00 143.00,7.00 Z
           M 147.00,7.00
           C 147.00,7.00 148.00,7.00 148.00,7.00
             148.00,7.00 147.00,8.00 147.00,8.00
             147.00,8.00 147.00,7.00 147.00,7.00 Z
           M 229.00,7.00
           C 229.00,7.00 230.00,7.00 230.00,7.00
             230.00,7.00 229.00,8.00 229.00,8.00
             229.00,8.00 229.00,7.00 229.00,7.00 Z
           M 137.00,8.00
           C 137.00,8.00 138.00,8.00 138.00,8.00
             138.00,8.00 137.00,9.00 137.00,9.00
             137.00,9.00 137.00,8.00 137.00,8.00 Z
           M 167.00,8.00
           C 167.00,8.00 178.00,9.00 178.00,9.00
             178.00,9.00 167.00,8.00 167.00,8.00 Z
           M 199.00,8.00
           C 199.00,8.00 210.00,9.00 210.00,9.00
             210.00,9.00 199.00,8.00 199.00,8.00 Z
           M 235.00,8.00
           C 235.00,8.00 240.00,9.00 240.00,9.00
             240.00,9.00 235.00,8.00 235.00,8.00 Z
           M 209.00,10.00
           C 209.00,10.00 210.00,10.00 210.00,10.00
             210.00,10.00 209.00,11.00 209.00,11.00
             209.00,11.00 209.00,10.00 209.00,10.00 Z
           M 243.00,11.00
           C 243.00,11.00 247.00,14.00 247.00,14.00
             247.00,14.00 243.00,11.00 243.00,11.00 Z
           M 145.00,13.00
           C 145.00,13.00 146.00,13.00 146.00,13.00
             146.00,13.00 145.00,14.00 145.00,14.00
             145.00,14.00 145.00,13.00 145.00,13.00 Z
           M 230.00,13.00
           C 230.00,13.00 231.00,13.00 231.00,13.00
             231.00,13.00 230.00,14.00 230.00,14.00
             230.00,14.00 230.00,13.00 230.00,13.00 Z
           M 143.00,14.00
           C 143.00,14.00 144.00,14.00 144.00,14.00
             144.00,14.00 143.00,15.00 143.00,15.00
             143.00,15.00 143.00,14.00 143.00,14.00 Z
           M 232.00,14.00
           C 232.00,14.00 233.00,14.00 233.00,14.00
             233.00,14.00 232.00,15.00 232.00,15.00
             232.00,15.00 232.00,14.00 232.00,14.00 Z
           M 141.00,15.00
           C 141.00,15.00 142.00,15.00 142.00,15.00
             142.00,15.00 141.00,16.00 141.00,16.00
             141.00,16.00 141.00,15.00 141.00,15.00 Z
           M 234.00,15.00
           C 234.00,15.00 235.00,15.00 235.00,15.00
             235.00,15.00 234.00,16.00 234.00,16.00
             234.00,16.00 234.00,15.00 234.00,15.00 Z
           M 139.00,16.00
           C 139.00,16.00 140.00,16.00 140.00,16.00
             140.00,16.00 139.00,17.00 139.00,17.00
             139.00,17.00 139.00,16.00 139.00,16.00 Z
           M 236.00,16.00
           C 236.00,16.00 237.00,16.00 237.00,16.00
             237.00,16.00 236.00,17.00 236.00,17.00
             236.00,17.00 236.00,16.00 236.00,16.00 Z
           M 133.00,19.00
           C 127.38,18.55 125.67,17.14 121.00,21.00
             121.00,21.00 133.00,19.00 133.00,19.00 Z
           M 257.00,20.00
           C 251.84,17.84 249.19,17.61 244.00,20.00
             244.00,20.00 257.00,20.00 257.00,20.00 Z
           M 176.00,19.00
           C 176.00,19.00 156.00,21.00 156.00,21.00
             156.00,21.00 176.00,21.00 176.00,21.00
             176.00,21.00 176.00,19.00 176.00,19.00 Z
           M 189.00,20.00
           C 184.56,18.74 180.88,18.14 177.00,21.00
             177.00,21.00 189.00,20.00 189.00,20.00 Z
           M 199.00,20.00
           C 199.00,20.00 191.00,19.00 191.00,19.00
             191.00,19.00 191.00,21.00 191.00,21.00
             191.00,21.00 199.00,20.00 199.00,20.00 Z
           M 221.00,20.00
           C 221.00,20.00 200.00,19.00 200.00,19.00
             200.00,19.00 200.00,21.00 200.00,21.00
             200.00,21.00 221.00,20.00 221.00,20.00 Z
           M 130.00,21.00
           C 119.09,21.88 112.08,24.25 107.00,35.00
             107.00,35.00 112.00,34.42 112.00,34.42
             112.00,34.42 130.00,21.00 130.00,21.00 Z
           M 148.00,21.00
           C 134.65,21.00 133.31,19.33 122.00,27.90
             118.79,30.33 115.99,32.46 114.00,36.00
             114.00,36.00 138.00,38.00 138.00,38.00
             138.00,38.00 148.00,21.00 148.00,21.00 Z
           M 233.00,31.00
           C 231.38,25.91 229.63,21.94 224.00,21.00
             224.00,21.00 233.00,31.00 233.00,31.00 Z
           M 262.00,36.00
           C 258.35,31.02 249.09,22.92 243.00,21.21
             240.50,20.80 232.99,21.00 230.00,21.21
             231.41,23.52 237.87,34.79 239.63,36.00
             242.84,38.22 257.28,36.01 262.00,36.00 Z
           M 272.00,34.00
           C 266.72,26.96 261.73,22.83 253.00,21.86
             249.86,21.32 249.04,20.89 246.00,21.86
             246.00,21.86 265.00,34.68 265.00,34.68
             265.00,34.68 272.00,34.00 272.00,34.00 Z
           M 262.00,21.00
           C 262.00,21.00 261.00,21.00 261.00,21.00
             261.00,21.00 262.00,22.00 262.00,22.00
             262.00,22.00 262.00,21.00 262.00,21.00 Z
           M 175.00,23.00
           C 170.29,21.66 156.08,20.99 152.00,23.60
             146.98,26.82 144.27,32.73 142.00,38.00
             142.00,38.00 162.00,38.00 162.00,38.00
             162.00,38.00 169.44,36.26 169.44,36.26
             169.44,36.26 175.00,23.00 175.00,23.00 Z
           M 189.00,22.84
           C 189.00,22.84 178.27,22.84 178.27,22.84
             174.55,24.08 173.30,33.47 173.00,37.00
             173.00,37.00 188.00,38.00 188.00,38.00
             188.00,38.00 189.00,22.84 189.00,22.84 Z
           M 203.00,37.00
           C 202.55,33.78 201.02,23.93 197.70,22.88
             196.44,22.32 192.54,22.88 191.00,22.88
             191.00,22.88 191.00,37.00 191.00,37.00
             191.00,37.00 203.00,37.00 203.00,37.00 Z
           M 235.00,38.00
           C 232.99,32.83 227.36,24.57 222.00,22.60
             219.27,21.59 204.90,22.00 201.00,22.00
             201.00,22.00 205.00,37.00 205.00,37.00
             205.00,37.00 235.00,38.00 235.00,38.00 Z
           M 275.00,24.00
           C 279.40,23.76 280.57,24.30 284.00,27.00
             284.00,27.00 275.00,24.00 275.00,24.00 Z
           M 95.00,25.00
           C 95.00,25.00 102.00,25.00 102.00,25.00
             102.00,25.00 95.00,25.00 95.00,25.00 Z
           M 270.00,25.00
           C 270.00,25.00 271.00,25.00 271.00,25.00
             271.00,25.00 270.00,26.00 270.00,26.00
             270.00,26.00 270.00,25.00 270.00,25.00 Z
           M 102.00,27.00
           C 102.00,27.00 103.00,27.00 103.00,27.00
             103.00,27.00 102.00,28.00 102.00,28.00
             102.00,28.00 102.00,27.00 102.00,27.00 Z
           M 234.00,31.00
           C 234.00,31.00 233.00,31.00 233.00,31.00
             233.00,31.00 234.00,32.00 234.00,32.00
             234.00,32.00 234.00,31.00 234.00,31.00 Z
           M 86.00,32.00
           C 86.00,32.00 87.00,32.00 87.00,32.00
             87.00,32.00 86.00,33.00 86.00,33.00
             86.00,33.00 86.00,32.00 86.00,32.00 Z
           M 102.00,35.00
           C 100.10,34.75 96.77,34.12 95.00,34.31
             90.44,34.81 85.20,39.17 83.00,43.00
             90.85,41.08 97.98,43.21 102.00,35.00 Z
           M 293.00,41.00
           C 285.28,35.83 285.52,33.33 276.00,35.00
             279.46,41.22 286.34,43.64 293.00,41.00 Z
           M 293.00,34.00
           C 293.00,34.00 294.00,34.00 294.00,34.00
             294.00,34.00 293.00,35.00 293.00,35.00
             293.00,35.00 293.00,34.00 293.00,34.00 Z
           M 110.00,36.00
           C 104.92,36.18 103.44,36.26 101.00,41.00
             105.71,39.69 106.70,39.88 110.00,36.00 Z
           M 278.00,41.00
           C 274.26,35.55 272.30,35.21 266.00,37.00
             270.01,40.34 272.98,40.33 278.00,41.00 Z
           M 124.00,38.00
           C 117.92,37.51 113.81,35.26 109.00,40.00
             109.00,40.00 124.00,38.00 124.00,38.00 Z
           M 267.00,40.00
           C 262.81,35.87 258.03,36.68 253.00,39.00
             253.00,39.00 267.00,40.00 267.00,40.00 Z
           M 136.00,40.00
           C 136.00,40.00 119.00,40.96 119.00,40.96
             115.83,41.10 110.83,40.66 108.00,41.74
             102.86,43.70 96.28,52.08 94.00,57.00
             94.00,57.00 113.00,58.22 113.00,58.22
             116.01,58.82 121.84,59.71 124.47,58.22
             126.63,56.61 134.29,43.06 136.00,40.00 Z
           M 169.00,40.00
           C 169.00,40.00 149.00,40.00 149.00,40.00
             146.83,40.00 143.32,39.77 141.50,41.02
             138.37,43.18 134.61,56.04 134.00,60.00
             134.00,60.00 153.00,60.00 153.00,60.00
             153.00,60.00 164.15,59.36 164.15,59.36
             164.15,59.36 169.00,40.00 169.00,40.00 Z
           M 168.00,61.00
           C 168.00,61.00 181.00,61.00 181.00,61.00
             182.82,60.99 185.92,61.15 187.40,59.98
             189.64,58.20 189.73,43.81 187.98,41.60
             186.03,39.14 174.00,39.30 171.93,41.60
             170.53,43.15 169.81,47.86 169.42,50.00
             169.42,50.00 168.00,61.00 168.00,61.00 Z
           M 204.00,40.00
           C 204.00,40.00 191.00,41.00 191.00,41.00
             191.00,41.00 192.00,61.00 192.00,61.00
             192.00,61.00 207.00,61.00 207.00,61.00
             207.00,61.00 204.00,40.00 204.00,40.00 Z
           M 245.00,60.04
           C 244.60,55.57 241.01,43.54 237.37,40.99
             235.70,39.83 232.96,40.01 231.00,40.00
             231.00,40.00 206.00,40.00 206.00,40.00
             206.63,43.13 209.43,57.77 210.93,59.40
             213.02,61.66 217.25,60.27 220.00,60.04
             220.00,60.04 245.00,60.04 245.00,60.04 Z
           M 282.00,57.00
           C 279.64,52.95 273.05,44.26 268.99,42.17
             265.82,40.55 261.50,41.11 258.00,40.96
             258.00,40.96 242.00,40.00 242.00,40.00
             242.72,43.84 247.56,55.86 250.63,58.01
             251.94,58.92 253.49,58.92 255.02,58.98
             255.02,58.98 282.00,57.00 282.00,57.00 Z
           M 104.00,42.00
           C 96.21,42.63 92.33,49.53 89.00,56.00
             95.00,54.22 100.41,47.02 104.00,42.00 Z
           M 289.00,56.00
           C 287.43,51.89 283.03,44.31 278.83,42.60
             277.06,41.87 273.95,42.01 272.00,42.00
             272.00,42.00 284.00,57.00 284.00,57.00
             284.00,57.00 289.00,56.00 289.00,56.00 Z
           M 96.00,43.00
           C 84.69,43.01 78.32,43.25 71.00,53.00
             71.00,53.00 85.68,55.34 85.68,55.34
             85.68,55.34 96.00,43.00 96.00,43.00 Z
           M 305.00,54.00
           C 300.43,44.42 292.62,43.09 283.00,43.00
             283.00,43.00 292.00,56.00 292.00,56.00
             292.00,56.00 305.00,54.00 305.00,54.00 Z
           M 77.00,45.00
           C 71.36,45.60 68.62,46.77 66.00,52.00
             71.87,52.48 73.78,49.48 77.00,45.00 Z
           M 312.00,52.00
           C 307.90,46.45 305.80,45.34 299.00,45.00
             303.12,50.73 304.81,53.04 312.00,52.00 Z
           M 134.00,48.00
           C 130.67,51.34 129.28,54.51 128.00,59.00
             132.13,56.43 132.94,52.54 134.00,48.00 Z
           M 327.00,70.00
           C 325.19,65.76 318.24,55.96 313.99,54.15
             312.33,53.66 310.71,53.91 309.00,54.15
             312.22,60.82 319.34,68.72 327.00,70.00 Z
           M 67.00,54.00
           C 59.72,55.18 53.77,63.52 51.00,70.00
             57.29,67.85 64.20,59.93 67.00,54.00 Z
           M 85.00,57.00
           C 85.00,57.00 69.01,55.69 69.01,55.69
             64.98,56.92 58.99,65.29 57.00,69.00
             57.00,69.00 71.00,67.28 71.00,67.28
             79.62,66.25 81.38,66.45 85.00,57.00 Z
           M 319.00,69.00
           C 317.03,65.32 311.03,56.89 306.99,55.77
             304.86,55.17 296.94,56.76 294.00,57.00
             298.19,70.25 303.68,66.25 319.00,69.00 Z
           M 90.00,58.00
           C 90.00,58.00 87.00,58.00 87.00,58.00
             87.00,58.00 83.00,66.00 83.00,66.00
             83.00,66.00 90.00,58.00 90.00,58.00 Z
           M 123.00,61.00
           C 123.00,61.00 101.00,59.11 101.00,59.11
             101.00,59.11 92.18,59.11 92.18,59.11
             92.18,59.11 87.00,66.00 87.00,66.00
             87.00,66.00 114.00,64.58 114.00,64.58
             118.17,64.02 120.59,64.61 123.00,61.00 Z
           M 296.00,66.00
           C 293.12,60.05 292.77,58.22 286.00,58.00
             288.37,63.53 289.89,65.50 296.00,66.00 Z
           M 288.00,66.00
           C 287.03,63.55 286.26,61.44 283.81,59.90
             280.79,58.27 274.40,59.13 271.00,59.90
             271.00,59.90 261.00,59.90 261.00,59.90
             261.00,59.90 252.00,61.00 252.00,61.00
             254.57,64.84 256.81,63.78 261.00,64.28
             261.00,64.28 278.00,65.09 278.00,65.09
             278.00,65.09 288.00,66.00 288.00,66.00 Z
           M 129.00,61.00
           C 129.00,61.00 126.00,61.00 126.00,61.00
             126.00,61.00 125.00,64.00 125.00,64.00
             127.87,63.45 127.87,63.71 129.00,61.00 Z
           M 164.00,62.00
           C 164.00,62.00 148.00,62.00 148.00,62.00
             148.00,62.00 133.00,61.00 133.00,61.00
             133.00,61.00 133.00,64.00 133.00,64.00
             133.00,64.00 152.00,63.00 152.00,63.00
             152.00,63.00 164.00,62.00 164.00,62.00 Z
           M 247.00,64.00
           C 244.77,60.67 242.86,60.83 239.00,61.17
             239.00,61.17 230.00,62.00 230.00,62.00
             224.79,62.06 215.54,61.20 211.00,63.00
             211.00,63.00 225.00,63.00 225.00,63.00
             225.00,63.00 247.00,64.00 247.00,64.00 Z
           M 177.00,62.00
           C 177.00,62.00 168.00,63.00 168.00,63.00
             168.00,63.00 177.00,62.00 177.00,62.00 Z
           M 188.00,62.00
           C 188.00,62.00 187.00,62.00 187.00,62.00
             187.00,62.00 188.00,63.00 188.00,63.00
             188.00,63.00 188.00,62.00 188.00,62.00 Z
           M 207.00,62.00
           C 207.00,62.00 200.00,63.00 200.00,63.00
             200.00,63.00 207.00,62.00 207.00,62.00 Z
           M 164.00,65.00
           C 164.00,65.00 140.00,65.72 140.00,65.72
             140.00,65.72 131.85,67.60 131.85,67.60
             131.85,67.60 127.00,85.00 127.00,85.00
             127.00,85.00 160.00,86.00 160.00,86.00
             160.00,86.00 164.00,65.00 164.00,65.00 Z
           M 167.00,65.00
           C 167.00,65.00 164.87,79.00 164.87,79.00
             164.65,80.86 164.00,83.59 165.64,84.98
             166.88,86.04 169.45,85.97 171.00,86.00
             185.91,86.27 188.84,87.38 189.00,79.00
             189.05,76.10 189.69,67.83 187.40,66.02
             185.81,64.77 181.99,65.00 180.00,65.00
             180.00,65.00 167.00,65.00 167.00,65.00 Z
           M 208.00,65.00
           C 208.00,65.00 192.00,65.00 192.00,65.00
             192.00,68.68 191.05,82.96 193.60,84.98
             195.62,86.58 206.90,86.00 210.00,86.00
             210.00,86.00 208.00,65.00 208.00,65.00 Z
           M 253.00,84.00
           C 253.00,84.00 247.28,66.99 247.28,66.99
             247.28,66.99 238.00,65.83 238.00,65.83
             238.00,65.83 211.00,65.00 211.00,65.00
             211.00,65.00 214.85,84.36 214.85,84.36
             214.85,84.36 227.00,85.00 227.00,85.00
             227.00,85.00 253.00,84.00 253.00,84.00 Z
           M 121.00,66.00
           C 121.00,66.00 101.00,67.00 101.00,67.00
             97.68,67.01 87.94,67.44 85.32,69.02
             81.96,71.06 78.57,78.37 77.00,82.00
             77.00,82.00 105.00,84.00 105.00,84.00
             105.00,84.00 113.30,83.01 113.30,83.01
             113.30,83.01 121.00,66.00 121.00,66.00 Z
           M 128.00,66.00
           C 128.00,66.00 123.70,67.60 123.70,67.60
             123.70,67.60 117.00,84.00 117.00,84.00
             117.00,84.00 122.00,85.00 122.00,85.00
             122.00,85.00 128.00,66.00 128.00,66.00 Z
           M 298.00,82.00
           C 296.95,78.39 293.64,71.08 290.47,68.99
             287.87,67.27 279.27,67.01 276.00,67.00
             276.00,67.00 254.00,66.00 254.00,66.00
             254.00,66.00 261.70,83.01 261.70,83.01
             261.70,83.01 272.00,84.00 272.00,84.00
             272.00,84.00 298.00,82.00 298.00,82.00 Z
           M 304.00,82.00
           C 302.24,75.83 299.93,69.15 293.00,68.00
             295.48,73.14 298.26,80.12 304.00,82.00 Z
           M 78.00,69.00
           C 73.16,69.00 58.05,69.38 54.47,71.90
             51.89,73.72 50.94,76.16 50.00,79.00
             54.89,79.40 67.91,82.34 71.61,79.98
             74.19,78.33 76.76,71.89 78.00,69.00 Z
           M 326.00,79.00
           C 323.27,70.79 320.65,70.66 313.00,69.84
             313.00,69.84 301.00,69.00 301.00,69.00
             301.98,72.10 304.59,78.20 307.39,79.98
             310.66,82.05 321.85,79.55 326.00,79.00 Z
           M 53.00,71.00
           C 47.89,72.37 47.36,73.34 45.00,78.00
             49.80,76.56 50.51,75.21 53.00,71.00 Z
           M 332.00,78.00
           C 330.37,72.61 328.31,71.89 323.00,71.00
             325.72,75.60 326.58,77.11 332.00,78.00 Z
           M 47.00,72.00
           C 47.00,72.00 46.00,72.00 46.00,72.00
             46.00,72.00 47.00,73.00 47.00,73.00
             47.00,73.00 47.00,72.00 47.00,72.00 Z
           M 80.00,72.00
           C 80.00,72.00 79.00,72.00 79.00,72.00
             79.00,72.00 80.00,73.00 80.00,73.00
             80.00,73.00 80.00,72.00 80.00,72.00 Z
           M 46.00,73.00
           C 46.00,73.00 39.00,74.00 39.00,74.00
             42.32,77.13 43.71,77.00 46.00,73.00 Z
           M 338.00,74.00
           C 338.00,74.00 331.00,73.00 331.00,73.00
             333.81,76.17 334.62,76.97 338.00,74.00 Z
           M 334.00,79.00
           C 334.00,79.00 330.00,80.00 330.00,80.00
             330.00,80.00 340.63,98.40 340.63,98.40
             340.63,98.40 345.00,100.00 345.00,100.00
             342.87,92.54 338.22,85.46 334.00,79.00 Z
           M 46.00,80.00
           C 39.54,82.12 34.78,93.75 33.00,100.00
             37.28,97.43 44.13,84.89 46.00,80.00 Z
           M 257.00,80.00
           C 257.00,80.00 258.00,84.00 258.00,84.00
             258.00,84.00 257.00,80.00 257.00,80.00 Z
           M 71.00,83.00
           C 71.00,83.00 49.18,81.30 49.18,81.30
             44.46,82.55 38.31,95.41 37.00,100.00
             37.00,100.00 54.00,98.01 54.00,98.01
             54.00,98.01 64.59,96.15 64.59,96.15
             64.59,96.15 71.00,83.00 71.00,83.00 Z
           M 339.00,99.00
           C 337.27,95.01 331.48,83.19 327.68,81.58
             324.99,80.44 312.00,82.82 308.00,83.00
             308.00,83.00 314.41,96.40 314.41,96.40
             314.41,96.40 323.00,98.01 323.00,98.01
             323.00,98.01 339.00,99.00 339.00,99.00 Z
           M 113.00,86.00
           C 113.00,86.00 99.00,84.97 99.00,84.97
             99.00,84.97 88.00,84.97 88.00,84.97
             84.77,84.52 78.42,83.05 75.63,84.97
             72.78,86.99 70.62,93.67 70.00,97.00
             70.00,97.00 87.00,96.00 87.00,96.00
             87.00,96.00 99.00,96.00 99.00,96.00
             99.00,96.00 109.30,94.05 109.30,94.05
             109.30,94.05 113.00,86.00 113.00,86.00 Z
           M 306.00,97.00
           C 304.16,92.65 302.28,84.90 296.96,84.16
             296.96,84.16 285.00,85.00 285.00,85.00
             285.00,85.00 262.00,86.00 262.00,86.00
             262.00,86.00 265.51,93.98 265.51,93.98
             265.51,93.98 280.00,96.04 280.00,96.04
             280.00,96.04 293.00,96.04 293.00,96.04
             293.00,96.04 306.00,97.00 306.00,97.00 Z
           M 306.00,84.00
           C 306.00,84.00 303.00,84.00 303.00,84.00
             304.22,88.26 306.26,94.49 310.00,97.00
             310.00,97.00 306.00,84.00 306.00,84.00 Z
           M 122.00,86.00
           C 115.46,86.21 115.69,86.96 113.00,95.00
             120.67,94.90 121.34,93.81 122.00,86.00 Z
           M 253.00,86.00
           C 253.00,86.00 214.00,88.00 214.00,88.00
             214.00,88.00 215.00,94.00 215.00,94.00
             215.00,94.00 233.00,95.00 233.00,95.00
             233.00,95.00 255.00,95.00 255.00,95.00
             255.00,95.00 253.00,86.00 253.00,86.00 Z
           M 259.00,86.00
           C 259.00,86.00 259.00,95.00 259.00,95.00
             259.00,95.00 261.00,95.00 261.00,95.00
             261.00,95.00 259.00,86.00 259.00,86.00 Z
           M 160.00,87.00
           C 160.00,87.00 126.00,87.00 126.00,87.00
             126.00,87.00 125.00,95.00 125.00,95.00
             125.00,95.00 144.00,95.00 144.00,95.00
             144.00,95.00 160.00,94.00 160.00,94.00
             160.00,94.00 160.00,87.00 160.00,87.00 Z
           M 189.00,88.00
           C 189.00,88.00 164.00,87.00 164.00,87.00
             164.00,87.00 163.00,94.00 163.00,94.00
             163.00,94.00 188.00,95.00 188.00,95.00
             188.00,95.00 189.00,88.00 189.00,88.00 Z
           M 211.00,94.00
           C 210.62,83.31 204.69,87.89 192.00,88.00
             192.00,88.00 192.00,94.00 192.00,94.00
             192.00,94.00 211.00,94.00 211.00,94.00 Z
           M 120.00,98.00
           C 110.32,95.72 110.04,104.66 109.00,112.00
             109.00,112.00 116.26,111.01 116.26,111.01
             116.26,111.01 120.00,98.00 120.00,98.00 Z
           M 159.00,97.00
           C 159.00,97.00 124.00,97.00 124.00,97.00
             124.00,97.00 122.00,112.00 122.00,112.00
             122.00,112.00 158.00,113.00 158.00,113.00
             158.00,113.00 159.00,97.00 159.00,97.00 Z
           M 189.00,97.00
           C 189.00,97.00 163.00,97.00 163.00,97.00
             163.00,97.00 162.00,113.00 162.00,113.00
             162.00,113.00 189.00,113.00 189.00,113.00
             189.00,113.00 189.00,97.00 189.00,97.00 Z
           M 212.00,97.00
           C 212.00,97.00 193.00,97.00 193.00,97.00
             193.00,97.00 193.00,113.00 193.00,113.00
             193.00,113.00 213.00,113.00 213.00,113.00
             213.00,113.00 212.00,97.00 212.00,97.00 Z
           M 258.00,112.00
           C 257.85,108.78 257.09,99.98 254.44,98.02
             252.74,96.77 249.08,97.00 247.00,97.00
             247.00,97.00 215.00,97.00 215.00,97.00
             215.00,97.00 217.00,113.00 217.00,113.00
             217.00,113.00 244.00,113.00 244.00,113.00
             244.00,113.00 258.00,112.00 258.00,112.00 Z
           M 262.00,97.00
           C 259.34,101.27 261.00,110.19 266.00,112.00
             266.00,112.00 262.00,97.00 262.00,97.00 Z
           M 109.00,98.00
           C 109.00,98.00 92.00,98.00 92.00,98.00
             92.00,98.00 77.00,99.00 77.00,99.00
             77.00,99.00 68.70,99.99 68.70,99.99
             68.70,99.99 64.00,110.00 64.00,110.00
             64.00,110.00 74.00,110.96 74.00,110.96
             74.00,110.96 85.00,110.96 85.00,110.96
             85.00,110.96 100.00,111.98 100.00,111.98
             107.50,111.67 107.75,104.21 109.00,98.00 Z
           M 311.00,110.00
           C 311.00,110.00 306.50,100.02 306.50,100.02
             306.50,100.02 296.00,98.91 296.00,98.91
             296.00,98.91 286.00,98.00 286.00,98.00
             286.00,98.00 266.00,98.00 266.00,98.00
             266.00,98.00 269.00,112.00 269.00,112.00
             269.00,112.00 311.00,110.00 311.00,110.00 Z
           M 311.00,99.00
           C 310.27,103.12 312.33,106.97 315.00,110.00
             315.00,110.00 311.00,99.00 311.00,99.00 Z
           M 64.00,100.00
           C 64.00,100.00 46.00,100.91 46.00,100.91
             46.00,100.91 36.39,102.40 36.39,102.40
             36.39,102.40 33.00,107.00 33.00,107.00
             33.00,107.00 52.00,109.09 52.00,109.09
             52.00,109.09 60.30,109.09 60.30,109.09
             60.30,109.09 64.00,100.00 64.00,100.00 Z
           M 343.00,108.00
           C 343.00,108.00 339.61,102.29 339.61,102.29
             339.61,102.29 331.00,100.91 331.00,100.91
             331.00,100.91 315.00,100.00 315.00,100.00
             315.00,100.00 318.70,109.03 318.70,109.03
             318.70,109.03 326.00,109.03 326.00,109.03
             326.00,109.03 343.00,108.00 343.00,108.00 Z
           M 33.00,102.00
           C 30.97,104.06 30.48,104.09 31.00,107.00
             31.00,107.00 33.00,102.00 33.00,102.00 Z
           M 348.00,107.00
           C 346.84,103.35 346.65,103.16 343.00,102.00
             343.00,102.00 344.00,107.00 344.00,107.00
             344.00,107.00 348.00,107.00 348.00,107.00 Z
           M 29.00,103.00
           C 29.00,103.00 22.00,105.00 22.00,105.00
             25.70,105.93 26.76,106.33 29.00,103.00 Z
           M 355.00,105.00
           C 355.00,105.00 349.00,103.00 349.00,103.00
             351.04,106.00 351.55,105.73 355.00,105.00 Z
           M 30.00,109.00
           C 30.00,109.00 28.00,109.00 28.00,109.00
             26.02,114.71 20.17,126.43 22.00,132.00
             22.00,132.00 30.00,109.00 30.00,109.00 Z
           M 60.00,112.00
           C 60.00,112.00 32.00,109.00 32.00,109.00
             28.61,115.55 24.12,126.77 23.00,134.00
             23.00,134.00 45.00,132.17 45.00,132.17
             45.00,132.17 54.15,130.40 54.15,130.40
             54.15,130.40 60.00,112.00 60.00,112.00 Z
           M 358.00,134.00
           C 357.35,129.79 352.49,113.33 349.93,110.57
             348.62,109.16 347.70,109.29 346.00,109.00
             346.00,109.00 352.19,126.00 352.19,126.00
             353.81,130.32 353.44,132.42 358.00,134.00 Z
           M 345.00,110.00
           C 345.00,110.00 319.00,112.00 319.00,112.00
             319.00,112.00 324.00,132.00 324.00,132.00
             324.00,132.00 338.00,132.96 338.00,132.96
             338.00,132.96 353.00,132.96 353.00,132.96
             353.00,132.96 345.00,110.00 345.00,110.00 Z
           M 105.00,114.00
           C 105.00,114.00 78.00,113.00 78.00,113.00
             78.00,113.00 63.00,112.00 63.00,112.00
             63.00,112.00 59.00,132.00 59.00,132.00
             59.00,132.00 75.00,131.00 75.00,131.00
             75.00,131.00 95.00,131.00 95.00,131.00
             103.84,130.83 101.17,128.44 105.00,114.00 Z
           M 318.00,132.00
           C 317.20,128.48 313.83,114.81 311.30,113.00
             309.67,111.84 300.77,113.00 298.00,113.00
             298.00,113.00 270.00,114.00 270.00,114.00
             270.45,117.20 272.18,128.22 274.56,129.98
             276.60,131.48 284.24,131.00 287.00,131.00
             287.00,131.00 301.00,131.00 301.00,131.00
             301.00,131.00 318.00,132.00 318.00,132.00 Z
           M 117.00,115.00
           C 117.00,115.00 108.00,114.00 108.00,114.00
             107.42,117.07 104.23,127.97 106.64,129.99
             108.50,131.52 112.81,130.39 115.00,129.99
             115.00,129.99 117.00,115.00 117.00,115.00 Z
           M 157.00,115.00
           C 157.00,115.00 134.00,115.00 134.00,115.00
             131.08,114.99 123.78,113.61 121.98,115.61
             120.36,117.43 119.54,127.01 119.00,130.00
             119.00,130.00 148.00,130.00 148.00,130.00
             148.00,130.00 155.83,128.43 155.83,128.43
             155.83,128.43 157.00,115.00 157.00,115.00 Z
           M 261.00,130.00
           C 260.41,126.70 259.81,116.83 257.42,115.01
             255.25,113.39 246.33,114.98 243.00,115.01
             243.00,115.01 217.00,115.01 217.00,115.01
             217.00,115.01 218.00,130.00 218.00,130.00
             218.00,130.00 261.00,130.00 261.00,130.00 Z
           M 269.00,131.00
           C 268.95,125.37 269.21,116.15 263.00,114.00
             263.00,114.00 266.02,129.41 266.02,129.41
             266.02,129.41 269.00,131.00 269.00,131.00 Z
           M 189.00,130.00
           C 189.00,130.00 187.98,116.60 187.98,116.60
             187.98,116.60 180.00,115.00 180.00,115.00
             180.00,115.00 161.00,115.00 161.00,115.00
             161.00,115.00 160.00,130.00 160.00,130.00
             160.00,130.00 189.00,130.00 189.00,130.00 Z
           M 213.00,115.00
           C 213.00,115.00 193.00,115.00 193.00,115.00
             193.00,115.00 193.00,130.00 193.00,130.00
             193.00,130.00 214.00,130.00 214.00,130.00
             214.00,130.00 213.00,115.00 213.00,115.00 Z
           M 189.00,133.00
           C 176.83,130.82 171.30,132.75 160.00,133.00
             160.00,133.00 160.00,142.00 160.00,142.00
             160.00,142.00 189.00,142.00 189.00,142.00
             189.00,142.00 189.00,133.00 189.00,133.00 Z
           M 214.00,133.00
           C 210.18,132.50 196.48,130.49 194.02,133.60
             192.70,135.27 193.00,139.86 193.00,142.00
             193.00,142.00 215.00,142.00 215.00,142.00
             215.00,142.00 214.00,133.00 214.00,133.00 Z
           M 101.00,133.04
           C 101.00,133.04 89.00,133.04 89.00,133.04
             89.00,133.04 78.00,134.00 78.00,134.00
             78.00,134.00 58.00,134.00 58.00,134.00
             57.67,136.26 56.78,139.11 59.33,140.40
             60.64,141.07 63.50,140.99 65.00,140.99
             65.00,140.99 84.00,140.99 84.00,140.99
             87.33,141.02 96.25,142.61 98.42,140.99
             100.36,139.51 100.69,135.27 101.00,133.04 Z
           M 114.00,133.00
           C 104.17,133.01 105.07,132.94 103.00,141.00
             112.36,143.66 113.97,141.79 114.00,133.00 Z
           M 156.00,133.00
           C 156.00,133.00 119.00,133.00 119.00,133.00
             119.00,133.00 118.00,142.00 118.00,142.00
             118.00,142.00 156.00,142.00 156.00,142.00
             156.00,142.00 156.00,133.00 156.00,133.00 Z
           M 261.00,133.00
           C 261.00,133.00 218.00,133.00 218.00,133.00
             218.00,133.00 219.00,142.00 219.00,142.00
             219.00,142.00 262.00,142.00 262.00,142.00
             262.00,142.00 261.00,133.00 261.00,133.00 Z
           M 270.00,133.00
           C 270.00,133.00 266.00,133.00 266.00,133.00
             266.00,133.00 267.00,142.00 267.00,142.00
             267.00,142.00 271.00,142.00 271.00,142.00
             271.00,142.00 270.00,133.00 270.00,133.00 Z
           M 320.00,140.00
           C 317.98,133.98 317.26,134.04 311.00,134.00
             311.00,134.00 274.00,133.00 274.00,133.00
             274.00,133.00 275.00,142.00 275.00,142.00
             275.00,142.00 294.00,141.00 294.00,141.00
             294.00,141.00 320.00,140.00 320.00,140.00 Z
           M 53.00,134.00
           C 53.00,134.00 22.00,136.00 22.00,136.00
             22.00,136.00 22.00,139.00 22.00,139.00
             22.00,139.00 53.00,140.00 53.00,140.00
             53.00,140.00 53.00,134.00 53.00,134.00 Z
           M 354.00,136.00
           C 354.00,136.00 340.00,135.00 340.00,135.00
             340.00,135.00 325.00,135.00 325.00,135.00
             326.13,141.41 330.34,140.06 336.00,140.00
             336.00,140.00 354.00,139.00 354.00,139.00
             354.00,139.00 354.00,136.00 354.00,136.00 Z
           M 52.00,143.00
           C 52.00,143.00 31.00,141.42 31.00,141.42
             31.00,141.42 21.56,142.02 21.56,142.02
             21.56,142.02 18.61,150.00 18.61,150.00
             18.61,150.00 16.00,170.00 16.00,170.00
             16.00,170.00 31.00,169.00 31.00,169.00
             31.00,169.00 48.00,169.00 48.00,169.00
             48.00,169.00 52.00,143.00 52.00,143.00 Z
           M 360.00,170.00
           C 360.00,170.00 357.20,150.00 357.20,150.00
             357.20,150.00 354.28,141.99 354.28,141.99
             354.28,141.99 346.00,141.42 346.00,141.42
             346.00,141.42 326.00,143.00 326.00,143.00
             326.00,143.00 328.72,160.00 328.72,160.00
             328.72,160.00 330.02,167.40 330.02,167.40
             330.02,167.40 338.00,169.00 338.00,169.00
             338.00,169.00 360.00,170.00 360.00,170.00 Z
           M 360.00,141.00
           C 360.00,141.00 357.00,141.00 357.00,141.00
             357.00,141.00 359.58,154.00 359.58,154.00
             359.58,154.00 362.00,170.00 362.00,170.00
             365.19,167.59 364.20,164.72 363.72,161.00
             363.72,161.00 360.00,141.00 360.00,141.00 Z
           M 99.00,144.00
           C 99.00,144.00 80.00,143.00 80.00,143.00
             80.00,143.00 56.00,143.00 56.00,143.00
             56.00,143.00 53.00,169.00 53.00,169.00
             53.00,169.00 97.00,169.00 97.00,169.00
             97.00,169.00 99.00,144.00 99.00,144.00 Z
           M 324.00,169.00
           C 324.00,169.00 322.00,152.00 322.00,152.00
             322.00,152.00 320.02,144.60 320.02,144.60
             320.02,144.60 312.00,143.00 312.00,143.00
             312.00,143.00 297.00,143.00 297.00,143.00
             297.00,143.00 275.00,144.00 275.00,144.00
             275.00,144.00 276.96,160.00 276.96,160.00
             276.96,160.00 278.02,167.40 278.02,167.40
             278.02,167.40 286.00,169.00 286.00,169.00
             286.00,169.00 324.00,169.00 324.00,169.00 Z
           M 113.00,144.00
           C 113.00,144.00 103.00,144.00 103.00,144.00
             103.00,144.00 101.00,169.00 101.00,169.00
             101.00,169.00 110.40,167.98 110.40,167.98
             110.40,167.98 112.00,161.00 112.00,161.00
             112.00,161.00 113.00,144.00 113.00,144.00 Z
           M 155.00,144.00
           C 155.00,144.00 118.00,144.00 118.00,144.00
             117.62,152.27 115.68,160.84 118.00,169.00
             118.00,169.00 155.00,168.00 155.00,168.00
             155.00,168.00 155.00,144.00 155.00,144.00 Z
           M 189.00,144.96
           C 189.00,144.96 178.00,144.96 178.00,144.96
             178.00,144.96 169.00,144.01 169.00,144.01
             166.59,143.96 161.64,143.56 160.02,145.60
             158.77,147.19 159.00,151.01 159.00,153.00
             159.00,153.00 159.00,168.00 159.00,168.00
             159.00,168.00 188.00,169.00 188.00,169.00
             188.00,169.00 189.00,144.96 189.00,144.96 Z
           M 215.00,168.00
           C 215.00,168.00 215.00,151.00 215.00,151.00
             214.96,149.05 215.10,146.37 213.40,145.01
             210.92,143.06 197.11,145.00 193.00,145.01
             193.00,145.01 193.00,168.00 193.00,168.00
             193.00,168.00 215.00,168.00 215.00,168.00 Z
           M 262.00,144.00
           C 262.00,144.00 219.00,144.00 219.00,144.00
             219.00,144.00 220.00,168.00 220.00,168.00
             220.00,168.00 248.00,168.00 248.00,168.00
             251.34,168.01 261.16,169.73 263.13,167.40
             264.42,165.55 263.53,162.14 263.13,160.00
             263.13,160.00 262.00,144.00 262.00,144.00 Z
           M 272.00,144.00
           C 272.00,144.00 267.00,144.00 267.00,144.00
             267.00,144.00 269.00,169.00 269.00,169.00
             269.00,169.00 273.05,167.40 273.05,167.40
             273.05,167.40 273.05,161.00 273.05,161.00
             273.05,161.00 272.00,144.00 272.00,144.00 Z
           M 96.00,171.00
           C 96.00,171.00 70.00,172.00 70.00,172.00
             70.00,172.00 96.00,171.00 96.00,171.00 Z
           M 111.00,171.00
           C 111.00,171.00 101.00,171.00 101.00,171.00
             101.00,171.00 101.00,173.00 101.00,173.00
             101.00,173.00 111.00,173.00 111.00,173.00
             111.00,173.00 111.00,171.00 111.00,171.00 Z
           M 154.00,171.00
           C 154.00,171.00 117.00,171.00 117.00,171.00
             117.00,171.00 117.00,173.00 117.00,173.00
             117.00,173.00 154.00,173.00 154.00,173.00
             154.00,173.00 154.00,171.00 154.00,171.00 Z
           M 188.00,171.00
           C 188.00,171.00 159.00,171.00 159.00,171.00
             159.00,171.00 159.00,173.00 159.00,173.00
             159.00,173.00 188.00,173.00 188.00,173.00
             188.00,173.00 188.00,171.00 188.00,171.00 Z
           M 215.00,171.00
           C 215.00,171.00 193.00,171.00 193.00,171.00
             193.00,171.00 193.00,173.00 193.00,173.00
             193.00,173.00 215.00,173.00 215.00,173.00
             215.00,173.00 215.00,171.00 215.00,171.00 Z
           M 264.00,171.00
           C 264.00,171.00 220.00,171.00 220.00,171.00
             220.00,171.00 220.00,173.00 220.00,173.00
             220.00,173.00 250.00,173.00 250.00,173.00
             254.74,173.00 260.04,173.91 264.00,171.00 Z
           M 274.00,171.00
           C 274.00,171.00 269.00,171.00 269.00,171.00
             269.00,171.00 269.00,173.00 269.00,173.00
             269.00,173.00 274.00,171.00 274.00,171.00 Z
           M 307.00,171.00
           C 300.74,171.00 282.83,170.09 278.00,172.00
             278.00,172.00 294.00,172.00 294.00,172.00
             294.00,172.00 307.00,171.00 307.00,171.00 Z
           M 48.00,204.04
           C 48.00,204.04 46.94,187.00 46.94,187.00
             46.94,187.00 46.94,175.60 46.94,175.60
             46.94,175.60 39.00,174.00 39.00,174.00
             39.00,174.00 15.00,174.00 15.00,174.00
             15.00,174.00 15.00,196.00 15.00,196.00
             15.00,197.71 14.87,201.21 15.60,202.69
             16.68,204.89 18.86,204.89 21.00,204.98
             26.50,205.21 28.26,204.41 33.00,204.04
             33.00,204.04 48.00,204.04 48.00,204.04 Z
           M 97.00,175.00
           C 97.00,175.00 53.00,174.00 53.00,174.00
             53.00,174.00 53.00,204.00 53.00,204.00
             53.00,204.00 90.00,204.00 90.00,204.00
             90.00,204.00 96.07,202.40 96.07,202.40
             96.07,202.40 96.07,194.00 96.07,194.00
             96.07,194.00 97.00,175.00 97.00,175.00 Z
           M 324.00,174.00
           C 324.00,174.00 278.00,175.00 278.00,175.00
             278.00,175.00 278.00,204.00 278.00,204.00
             278.00,204.00 324.00,204.00 324.00,204.00
             325.30,194.13 325.76,183.84 324.00,174.00 Z
           M 360.00,205.00
           C 360.00,205.00 361.00,182.00 361.00,182.00
             361.00,182.00 359.26,174.99 359.26,174.99
             359.26,174.99 354.00,174.00 354.00,174.00
             354.00,174.00 330.00,174.00 330.00,174.00
             330.00,174.00 330.00,204.00 330.00,204.00
             330.00,204.00 360.00,205.00 360.00,205.00 Z
           M 365.00,174.00
           C 365.00,174.00 362.00,174.00 362.00,174.00
             362.00,174.00 363.00,190.00 363.00,190.00
             363.00,190.00 362.00,205.00 362.00,205.00
             362.00,205.00 365.00,205.00 365.00,205.00
             365.00,205.00 365.00,174.00 365.00,174.00 Z
           M 111.00,175.00
           C 111.00,175.00 100.00,175.00 100.00,175.00
             100.00,175.00 100.00,197.00 100.00,197.00
             100.00,197.00 101.60,202.98 101.60,202.98
             101.60,202.98 111.00,204.00 111.00,204.00
             111.00,204.00 111.00,175.00 111.00,175.00 Z
           M 116.00,175.00
           C 116.00,175.00 116.00,195.00 116.00,195.00
             116.00,195.00 117.02,202.40 117.02,202.40
             117.02,202.40 125.00,204.00 125.00,204.00
             125.00,204.00 146.00,204.00 146.00,204.00
             146.00,204.00 154.06,202.40 154.06,202.40
             154.06,202.40 154.06,196.00 154.06,196.00
             154.06,196.00 154.06,183.00 154.06,183.00
             154.06,183.00 154.06,176.60 154.06,176.60
             154.06,176.60 146.00,175.00 146.00,175.00
             146.00,175.00 116.00,175.00 116.00,175.00 Z
           M 189.00,175.00
           C 189.00,175.00 159.00,175.00 159.00,175.00
             159.00,175.00 159.00,197.00 159.00,197.00
             159.00,197.00 160.60,202.98 160.60,202.98
             160.60,202.98 170.00,204.00 170.00,204.00
             170.00,204.00 189.00,203.00 189.00,203.00
             189.00,203.00 189.00,175.00 189.00,175.00 Z
           M 216.00,175.00
           C 216.00,175.00 193.00,175.00 193.00,175.00
             193.00,175.00 193.00,202.99 193.00,202.99
             197.28,203.09 211.42,205.34 214.40,202.99
             216.38,201.41 216.00,197.30 216.00,195.00
             216.00,195.00 216.00,175.00 216.00,175.00 Z
           M 264.00,175.00
           C 264.00,175.00 220.00,175.00 220.00,175.00
             220.00,175.00 220.00,195.00 220.00,195.00
             220.00,195.00 221.02,202.40 221.02,202.40
             221.02,202.40 228.00,204.00 228.00,204.00
             228.00,204.00 255.00,204.00 255.00,204.00
             255.00,204.00 262.40,202.98 262.40,202.98
             262.40,202.98 264.00,195.00 264.00,195.00
             264.00,195.00 264.00,175.00 264.00,175.00 Z
           M 274.00,175.00
           C 274.00,175.00 269.00,175.00 269.00,175.00
             269.00,175.00 269.00,204.00 269.00,204.00
             269.00,204.00 274.00,204.00 274.00,204.00
             274.00,204.00 274.00,175.00 274.00,175.00 Z
           M 97.00,206.00
           C 97.00,206.00 69.00,206.00 69.00,206.00
             69.00,206.00 54.00,207.00 54.00,207.00
             54.00,207.00 82.00,207.00 82.00,207.00
             82.00,207.00 97.00,206.00 97.00,206.00 Z
           M 111.00,206.00
           C 111.00,206.00 101.00,207.00 101.00,207.00
             101.00,207.00 111.00,208.00 111.00,208.00
             111.00,208.00 111.00,206.00 111.00,206.00 Z
           M 155.00,206.00
           C 155.00,206.00 130.00,206.00 130.00,206.00
             130.00,206.00 116.00,207.00 116.00,207.00
             122.37,208.81 138.56,208.01 146.00,208.00
             149.97,207.99 151.69,208.44 155.00,206.00 Z
           M 189.00,206.00
           C 189.00,206.00 159.00,206.00 159.00,206.00
             159.00,206.00 159.00,208.00 159.00,208.00
             159.00,208.00 189.00,208.00 189.00,208.00
             189.00,208.00 189.00,206.00 189.00,206.00 Z
           M 215.00,206.00
           C 215.00,206.00 193.00,206.00 193.00,206.00
             193.00,206.00 193.00,208.00 193.00,208.00
             193.00,208.00 215.00,208.00 215.00,208.00
             215.00,208.00 215.00,206.00 215.00,206.00 Z
           M 264.00,206.00
           C 264.00,206.00 220.00,206.00 220.00,206.00
             220.00,206.00 220.00,208.00 220.00,208.00
             220.00,208.00 250.00,208.00 250.00,208.00
             254.74,208.00 260.04,208.91 264.00,206.00 Z
           M 274.00,206.00
           C 274.00,206.00 269.00,206.00 269.00,206.00
             269.00,206.00 269.00,208.00 269.00,208.00
             269.00,208.00 274.00,206.00 274.00,206.00 Z
           M 323.00,206.00
           C 323.00,206.00 293.00,206.00 293.00,206.00
             293.00,206.00 278.00,207.00 278.00,207.00
             278.00,207.00 308.00,207.00 308.00,207.00
             308.00,207.00 323.00,206.00 323.00,206.00 Z
           M 52.00,236.00
           C 52.00,236.00 49.28,218.00 49.28,218.00
             49.28,218.00 47.26,210.99 47.26,210.99
             47.26,210.99 39.00,209.08 39.00,209.08
             39.00,209.08 16.00,209.08 16.00,209.08
             16.00,209.08 21.00,238.00 21.00,238.00
             21.00,238.00 52.00,236.00 52.00,236.00 Z
           M 360.00,209.00
           C 360.00,209.00 343.00,209.00 343.00,209.00
             343.00,209.00 329.00,210.00 329.00,210.00
             329.00,210.00 326.00,236.00 326.00,236.00
             326.00,236.00 340.00,236.96 340.00,236.96
             340.00,236.96 355.00,236.96 355.00,236.96
             355.00,236.96 360.00,209.00 360.00,209.00 Z
           M 364.00,209.00
           C 364.00,209.00 362.00,209.00 362.00,209.00
             362.00,209.00 357.00,238.00 357.00,238.00
             357.00,238.00 360.00,238.00 360.00,238.00
             360.00,238.00 364.00,209.00 364.00,209.00 Z
           M 97.00,210.00
           C 97.00,210.00 54.00,210.00 54.00,210.00
             54.00,218.86 54.22,220.26 55.58,229.00
             56.11,232.42 55.95,235.25 60.06,235.84
             60.06,235.84 74.00,235.00 74.00,235.00
             74.00,235.00 99.00,235.00 99.00,235.00
             99.00,235.00 97.00,210.00 97.00,210.00 Z
           M 113.00,233.94
           C 113.00,233.94 112.01,218.00 112.01,218.00
             112.01,218.00 110.40,211.02 110.40,211.02
             110.40,211.02 101.00,210.00 101.00,210.00
             101.00,210.00 102.17,227.00 102.17,227.00
             102.17,227.00 104.58,233.94 104.58,233.94
             104.58,233.94 113.00,233.94 113.00,233.94 Z
           M 156.00,233.00
           C 156.00,233.00 155.00,217.00 155.00,217.00
             155.00,217.00 153.40,211.02 153.40,211.02
             153.40,211.02 146.00,210.00 146.00,210.00
             146.00,210.00 117.04,210.00 117.04,210.00
             117.04,210.00 117.04,224.00 117.04,224.00
             117.04,224.00 118.00,234.00 118.00,234.00
             126.40,234.00 149.28,234.91 156.00,233.00 Z
           M 189.00,211.00
           C 189.00,211.00 159.00,210.00 159.00,210.00
             159.00,210.00 159.00,226.00 159.00,226.00
             159.00,226.00 160.74,233.01 160.74,233.01
             160.74,233.01 168.00,234.00 168.00,234.00
             168.00,234.00 182.00,234.00 182.00,234.00
             182.00,234.00 187.98,232.40 187.98,232.40
             187.98,232.40 189.00,225.00 189.00,225.00
             189.00,225.00 189.00,211.00 189.00,211.00 Z
           M 215.00,210.00
           C 215.00,210.00 194.60,211.02 194.60,211.02
             194.60,211.02 193.00,219.00 193.00,219.00
             193.00,219.00 193.00,234.00 193.00,234.00
             193.00,234.00 215.00,234.00 215.00,234.00
             215.00,234.00 215.00,210.00 215.00,210.00 Z
           M 262.00,234.00
           C 262.00,234.00 263.05,218.00 263.05,218.00
             263.05,218.00 263.05,211.60 263.05,211.60
             263.05,211.60 256.00,210.00 256.00,210.00
             256.00,210.00 220.00,210.00 220.00,210.00
             220.00,210.00 219.00,234.00 219.00,234.00
             219.00,234.00 262.00,234.00 262.00,234.00 Z
           M 274.00,211.00
           C 274.00,211.00 269.02,211.61 269.02,211.61
             269.02,211.61 268.00,219.00 268.00,219.00
             268.00,219.00 267.00,234.00 267.00,234.00
             267.00,234.00 271.00,235.00 271.00,235.00
             271.00,235.00 274.00,211.00 274.00,211.00 Z
           M 324.00,210.00
           C 324.00,210.00 286.00,210.00 286.00,210.00
             283.70,210.00 279.59,209.62 278.02,211.60
             276.78,213.16 276.97,217.84 276.72,220.00
             275.20,232.74 273.71,234.84 282.00,235.00
             282.00,235.00 304.00,235.00 304.00,235.00
             304.00,235.00 320.00,236.00 320.00,236.00
             320.00,236.00 324.00,210.00 324.00,210.00 Z
           M 113.00,236.00
           C 113.00,236.00 104.00,237.00 104.00,237.00
             104.09,246.43 105.17,245.99 114.00,246.00
             114.00,246.00 113.00,236.00 113.00,236.00 Z
           M 156.00,236.00
           C 147.60,236.00 124.72,235.09 118.00,237.00
             118.00,237.00 119.00,246.00 119.00,246.00
             119.00,246.00 156.00,246.00 156.00,246.00
             156.00,246.00 156.00,236.00 156.00,236.00 Z
           M 189.00,236.00
           C 189.00,236.00 160.00,236.00 160.00,236.00
             160.00,236.00 160.00,246.00 160.00,246.00
             160.00,246.00 188.00,247.00 188.00,247.00
             188.00,247.00 189.00,236.00 189.00,236.00 Z
           M 215.00,236.00
           C 215.00,236.00 193.00,236.00 193.00,236.00
             193.00,236.00 193.00,246.00 193.00,246.00
             193.00,246.00 214.00,246.00 214.00,246.00
             214.00,246.00 215.00,236.00 215.00,236.00 Z
           M 261.00,246.00
           C 261.19,243.58 262.43,238.70 260.39,237.02
             258.86,235.77 254.94,236.00 253.00,236.00
             253.00,236.00 219.00,236.00 219.00,236.00
             219.00,236.00 218.00,246.00 218.00,246.00
             218.00,246.00 261.00,246.00 261.00,246.00 Z
           M 100.00,237.00
           C 100.00,237.00 77.00,237.00 77.00,237.00
             77.00,237.00 57.00,238.00 57.00,238.00
             57.00,238.00 58.00,244.00 58.00,244.00
             58.00,244.00 101.00,245.00 101.00,245.00
             101.00,245.00 100.00,237.00 100.00,237.00 Z
           M 271.00,237.00
           C 265.12,238.04 266.02,240.74 266.00,246.00
             270.78,244.34 270.61,241.64 271.00,237.00 Z
           M 319.00,238.00
           C 319.00,238.00 302.00,237.00 302.00,237.00
             302.00,237.00 288.00,237.00 288.00,237.00
             288.00,237.00 275.74,237.99 275.74,237.99
             275.74,237.99 274.00,245.00 274.00,245.00
             274.00,245.00 309.00,245.00 309.00,245.00
             315.28,244.92 318.42,244.95 319.00,238.00 Z
           M 53.00,238.00
           C 53.00,238.00 22.00,240.00 22.00,240.00
             24.82,244.22 28.38,242.84 33.00,243.04
             33.00,243.04 41.00,243.96 41.00,243.96
             41.00,243.96 54.00,243.96 54.00,243.96
             54.00,243.96 53.00,238.00 53.00,238.00 Z
           M 354.00,240.00
           C 345.02,238.39 345.52,239.43 338.00,238.91
             335.38,238.73 331.47,237.82 329.06,238.16
             325.25,238.70 325.27,240.77 325.00,244.00
             325.00,244.00 344.00,243.04 344.00,243.04
             348.48,242.84 351.28,244.06 354.00,240.00 Z
           M 18.00,241.00
           C 18.00,241.00 13.00,242.00 13.00,242.00
             13.00,242.00 18.00,241.00 18.00,241.00 Z
           M 359.00,240.00
           C 359.00,240.00 355.00,242.00 355.00,242.00
             355.00,242.00 359.00,240.00 359.00,240.00 Z
           M 364.00,241.00
           C 364.00,241.00 360.00,242.00 360.00,242.00
             360.00,242.00 364.00,241.00 364.00,241.00 Z
           M 22.00,245.00
           C 20.58,249.32 25.30,263.01 28.07,266.71
             29.19,268.20 29.56,268.15 31.00,269.00
             31.00,269.00 22.00,245.00 22.00,245.00 Z
           M 24.00,245.00
           C 24.57,251.33 26.83,256.18 29.20,262.00
             30.05,264.09 31.10,267.46 33.39,268.34
             34.66,268.83 44.09,267.83 46.00,267.58
             49.07,267.17 58.22,267.71 59.22,264.69
             59.80,262.94 58.38,258.83 57.86,257.00
             57.19,254.63 56.07,249.49 54.28,247.90
             51.89,245.80 46.06,246.00 43.00,246.00
             43.00,246.00 24.00,245.00 24.00,245.00 Z
           M 352.00,245.00
           C 352.00,245.00 332.00,246.00 332.00,246.00
             329.52,246.04 326.51,245.95 324.56,247.74
             322.23,249.87 319.32,263.48 319.00,267.00
             319.00,267.00 344.00,269.00 344.00,269.00
             344.00,269.00 352.00,245.00 352.00,245.00 Z
           M 358.00,245.00
           C 358.00,245.00 354.00,245.00 354.00,245.00
             354.00,245.00 345.00,269.00 345.00,269.00
             345.00,269.00 349.00,270.00 349.00,270.00
             349.00,270.00 358.00,245.00 358.00,245.00 Z
           M 102.00,248.00
           C 102.00,248.00 59.00,247.00 59.00,247.00
             59.51,250.63 61.73,263.01 64.51,264.98
             65.80,265.90 67.49,265.92 69.00,265.98
             74.64,266.22 76.23,265.41 81.00,265.09
             81.00,265.09 105.00,264.00 105.00,264.00
             105.00,264.00 102.00,248.00 102.00,248.00 Z
           M 317.00,247.00
           C 317.00,247.00 273.00,248.00 273.00,248.00
             273.00,248.00 270.00,264.00 270.00,264.00
             270.00,264.00 279.00,264.96 279.00,264.96
             279.00,264.96 292.00,264.96 292.00,264.96
             292.00,264.96 312.00,266.00 312.00,266.00
             312.00,266.00 317.00,247.00 317.00,247.00 Z
           M 115.00,248.00
           C 115.00,248.00 105.00,248.00 105.00,248.00
             105.00,248.00 108.00,264.00 108.00,264.00
             108.00,264.00 117.00,264.00 117.00,264.00
             117.00,264.00 115.00,248.00 115.00,248.00 Z
           M 157.00,249.00
           C 157.00,249.00 120.00,248.00 120.00,248.00
             120.00,251.23 120.00,259.98 122.01,262.40
             123.91,264.69 131.11,264.00 134.00,264.00
             134.00,264.00 146.00,263.04 146.00,263.04
             146.00,263.04 158.00,263.04 158.00,263.04
             158.00,263.04 157.00,249.00 157.00,249.00 Z
           M 260.00,248.00
           C 260.00,248.00 218.00,249.00 218.00,249.00
             218.00,249.00 217.00,263.00 217.00,263.00
             217.00,263.00 250.00,264.00 250.00,264.00
             252.36,264.00 256.35,264.38 257.99,262.40
             260.00,259.98 260.00,251.23 260.00,248.00 Z
           M 269.00,248.00
           C 269.00,248.00 265.00,248.00 265.00,248.00
             265.00,248.00 263.00,264.00 263.00,264.00
             268.73,262.00 268.76,253.31 269.00,248.00 Z
           M 189.00,263.00
           C 189.00,263.00 187.98,250.60 187.98,250.60
             187.98,250.60 180.00,249.00 180.00,249.00
             180.00,249.00 160.00,249.00 160.00,249.00
             160.00,249.00 161.00,263.00 161.00,263.00
             161.00,263.00 189.00,263.00 189.00,263.00 Z
           M 214.00,249.00
           C 214.00,249.00 193.00,249.00 193.00,249.00
             193.00,249.00 193.00,263.00 193.00,263.00
             193.00,263.00 213.00,263.00 213.00,263.00
             213.00,263.00 214.00,249.00 214.00,249.00 Z
           M 158.00,265.00
           C 158.00,265.00 122.00,266.00 122.00,266.00
             122.00,266.00 124.00,281.00 124.00,281.00
             124.00,281.00 142.00,282.00 142.00,282.00
             142.00,282.00 159.00,282.00 159.00,282.00
             159.00,282.00 158.00,265.00 158.00,265.00 Z
           M 189.00,282.00
           C 189.00,282.00 187.98,266.60 187.98,266.60
             187.98,266.60 180.00,265.00 180.00,265.00
             180.00,265.00 162.00,265.00 162.00,265.00
             162.00,265.00 163.00,282.00 163.00,282.00
             163.00,282.00 189.00,282.00 189.00,282.00 Z
           M 213.00,265.00
           C 213.00,265.00 193.00,265.00 193.00,265.00
             193.00,265.00 192.00,281.00 192.00,281.00
             195.38,281.96 208.71,283.27 210.98,280.40
             212.15,278.93 212.95,267.44 213.00,265.00 Z
           M 258.00,266.00
           C 258.00,266.00 217.00,265.00 217.00,265.00
             217.00,265.00 215.00,282.00 215.00,282.00
             215.00,282.00 244.00,281.17 244.00,281.17
             246.62,280.92 252.52,281.42 254.42,279.98
             256.76,278.19 257.75,269.00 258.00,266.00 Z
           M 109.00,281.00
           C 108.72,277.65 107.45,268.96 104.49,267.03
             102.89,266.03 94.62,267.00 92.00,267.03
             92.00,267.03 65.00,268.00 65.00,268.00
             65.56,271.11 66.66,276.08 69.41,277.99
             72.13,279.88 79.65,279.99 83.00,280.00
             83.00,280.00 109.00,281.00 109.00,281.00 Z
           M 120.00,281.00
           C 120.00,281.00 116.41,267.02 116.41,267.02
             116.41,267.02 109.00,266.00 109.00,266.00
             111.65,279.19 111.42,280.89 120.00,281.00 Z
           M 265.00,266.00
           C 265.00,266.00 263.00,266.00 263.00,266.00
             263.00,266.00 260.00,281.00 260.00,281.00
             264.33,278.02 264.77,270.91 265.00,266.00 Z
           M 311.00,268.00
           C 311.00,268.00 284.00,267.00 284.00,267.00
             284.00,267.00 269.00,266.00 269.00,266.00
             269.00,266.00 265.00,281.00 265.00,281.00
             265.00,281.00 296.00,280.00 296.00,280.00
             296.00,280.00 306.30,278.05 306.30,278.05
             306.30,278.05 311.00,268.00 311.00,268.00 Z
           M 61.00,268.00
           C 61.00,268.00 34.00,271.00 34.00,271.00
             34.00,271.00 36.65,276.01 36.65,276.01
             36.65,276.01 44.00,277.42 44.00,277.42
             44.00,277.42 65.00,279.00 65.00,279.00
             65.00,279.00 61.00,268.00 61.00,268.00 Z
           M 314.00,269.00
           C 314.00,269.00 309.00,279.00 309.00,279.00
             313.03,276.48 313.31,273.46 314.00,269.00 Z
           M 342.00,271.00
           C 342.00,271.00 317.00,269.00 317.00,269.00
             317.00,269.00 315.00,279.00 315.00,279.00
             315.00,279.00 333.00,277.42 333.00,277.42
             333.00,277.42 339.35,276.01 339.35,276.01
             339.35,276.01 342.00,271.00 342.00,271.00 Z
           M 32.00,271.00
           C 30.61,274.01 31.32,274.36 34.00,276.00
             34.00,276.00 32.00,271.00 32.00,271.00 Z
           M 348.00,272.00
           C 348.00,272.00 344.00,271.00 344.00,271.00
             344.00,271.00 342.00,276.00 342.00,276.00
             345.81,275.35 345.92,275.25 348.00,272.00 Z
           M 30.00,276.00
           C 28.14,271.39 26.01,271.68 22.00,274.00
             22.00,274.00 30.00,276.00 30.00,276.00 Z
           M 355.00,273.00
           C 355.00,273.00 349.00,272.00 349.00,272.00
             349.00,272.00 348.00,276.00 348.00,276.00
             348.00,276.00 355.00,273.00 355.00,273.00 Z
           M 34.00,278.00
           C 34.01,283.87 41.48,295.39 46.00,299.00
             45.82,293.60 38.13,281.64 34.00,278.00 Z
           M 345.00,278.00
           C 345.00,278.00 340.39,279.74 340.39,279.74
             340.39,279.74 329.00,297.90 329.00,297.90
             330.48,298.12 331.27,298.49 332.82,297.90
             336.79,296.02 343.14,282.33 345.00,278.00 Z
           M 71.00,295.00
           C 71.00,295.00 65.30,281.99 65.30,281.99
             65.30,281.99 58.00,280.83 58.00,280.83
             58.00,280.83 38.00,279.00 38.00,279.00
             39.31,283.48 45.47,295.88 50.09,297.12
             50.09,297.12 71.00,295.00 71.00,295.00 Z
           M 338.00,279.00
           C 338.00,279.00 320.00,280.72 320.00,280.72
             318.17,280.95 315.16,280.90 313.70,281.99
             311.22,283.83 308.57,291.94 308.00,295.00
             311.12,295.56 324.57,297.66 326.82,296.69
             330.81,294.98 336.77,283.23 338.00,279.00 Z
           M 310.00,281.00
           C 310.00,281.00 308.00,281.00 308.00,281.00
             308.00,281.00 302.00,295.00 302.00,295.00
             307.00,292.26 308.75,286.31 310.00,281.00 Z
           M 113.00,292.00
           C 113.00,292.00 109.50,284.02 109.50,284.02
             109.50,284.02 101.00,283.00 101.00,283.00
             101.00,283.00 86.00,282.00 86.00,282.00
             86.00,282.00 70.00,282.00 70.00,282.00
             71.24,284.89 73.81,291.33 76.39,293.13
             79.20,294.77 86.70,293.86 90.00,293.13
             90.00,293.13 101.00,293.13 101.00,293.13
             101.00,293.13 113.00,292.00 113.00,292.00 Z
           M 305.00,282.00
           C 305.00,282.00 291.00,282.00 291.00,282.00
             291.00,282.00 276.00,283.00 276.00,283.00
             273.33,283.00 267.55,282.60 265.42,284.02
             262.88,285.71 262.43,289.25 262.00,292.00
             262.00,292.00 286.00,293.13 286.00,293.13
             289.52,293.70 295.62,294.85 298.79,293.13
             301.89,291.14 303.68,285.30 305.00,282.00 Z
           M 122.00,292.00
           C 121.66,285.10 121.17,283.25 114.00,283.00
             114.00,283.00 116.00,292.00 116.00,292.00
             116.00,292.00 122.00,292.00 122.00,292.00 Z
           M 261.00,283.00
           C 261.00,283.00 257.00,292.00 257.00,292.00
             260.19,289.56 260.41,286.80 261.00,283.00 Z
           M 160.00,284.00
           C 160.00,284.00 125.00,284.00 125.00,284.00
             125.00,284.00 127.58,290.99 127.58,290.99
             127.58,290.99 139.00,290.99 139.00,290.99
             139.00,290.99 160.00,290.99 160.00,290.99
             160.00,290.99 160.00,284.00 160.00,284.00 Z
           M 164.00,291.00
           C 164.00,291.00 182.00,291.00 182.00,291.00
             183.89,290.96 186.68,291.09 187.96,289.42
             190.40,286.24 186.59,284.41 183.98,284.11
             179.17,283.55 167.52,283.72 163.00,285.00
             163.00,285.00 164.00,291.00 164.00,291.00 Z
           M 211.00,284.07
           C 211.00,284.07 196.06,284.07 196.06,284.07
             193.72,284.54 191.58,286.02 192.66,288.70
             194.04,292.19 207.45,291.00 211.00,291.00
             211.00,291.00 211.00,284.07 211.00,284.07 Z
           M 255.00,284.00
           C 255.00,284.00 215.00,284.00 215.00,284.00
             215.00,284.00 214.00,291.00 214.00,291.00
             214.00,291.00 237.00,291.00 237.00,291.00
             237.00,291.00 252.27,291.00 252.27,291.00
             252.27,291.00 255.00,284.00 255.00,284.00 Z
           M 188.00,314.00
           C 188.00,314.00 189.00,299.00 189.00,299.00
             189.00,299.00 187.40,293.02 187.40,293.02
             187.40,293.02 181.00,292.04 181.00,292.04
             181.00,292.04 164.00,293.00 164.00,293.00
             164.00,293.00 167.00,313.00 167.00,313.00
             167.00,313.00 188.00,314.00 188.00,314.00 Z
           M 210.00,293.01
           C 206.70,293.00 195.47,291.56 193.60,293.01
             191.06,295.02 192.00,309.34 192.00,313.00
             192.00,313.00 208.00,313.00 208.00,313.00
             208.00,313.00 210.00,293.01 210.00,293.01 Z
           M 161.00,293.00
           C 161.00,293.00 127.00,294.00 127.00,294.00
             127.00,294.00 132.70,311.40 132.70,311.40
             132.70,311.40 139.00,313.00 139.00,313.00
             139.00,313.00 164.00,313.00 164.00,313.00
             164.00,313.00 161.00,293.00 161.00,293.00 Z
           M 211.00,313.00
           C 211.00,313.00 240.00,313.00 240.00,313.00
             249.02,312.87 248.44,309.84 250.77,302.00
             251.10,300.08 252.27,296.51 250.77,294.74
             249.42,292.63 244.38,293.00 242.00,293.00
             242.00,293.00 222.00,293.00 222.00,293.00
             220.06,293.00 216.28,292.75 214.74,293.99
             213.08,295.33 213.10,298.06 212.85,300.00
             212.85,300.00 211.00,313.00 211.00,313.00 Z
           M 121.00,311.96
           C 120.37,308.64 116.13,296.83 113.50,294.87
             110.82,293.17 105.08,294.35 102.00,294.87
             102.00,294.87 78.00,296.00 78.00,296.00
             79.34,300.59 82.70,307.36 87.09,309.69
             90.12,311.29 94.63,310.98 98.00,311.00
             98.00,311.00 109.00,311.96 109.00,311.96
             109.00,311.96 121.00,311.96 121.00,311.96 Z
           M 128.00,312.00
           C 127.33,308.69 124.69,296.79 122.30,294.99
             120.84,293.90 118.72,294.06 117.00,294.00
             117.00,294.00 124.64,311.01 124.64,311.01
             124.64,311.01 128.00,312.00 128.00,312.00 Z
           M 298.00,296.00
           C 298.00,296.00 274.00,294.80 274.00,294.80
             270.93,294.17 264.10,293.23 261.50,294.80
             258.92,296.80 254.79,308.65 254.00,311.96
             254.00,311.96 268.00,311.96 268.00,311.96
             268.00,311.96 279.00,311.00 279.00,311.00
             281.97,310.99 286.21,311.31 288.82,309.83
             292.39,307.79 296.31,299.80 298.00,296.00 Z
           M 302.00,296.00
           C 302.00,296.00 292.00,310.00 292.00,310.00
             293.67,309.86 295.12,309.93 296.61,308.98
             300.23,306.67 302.39,300.01 302.00,296.00 Z
           M 79.00,310.00
           C 78.02,307.33 74.56,299.52 72.37,297.99
             69.43,295.95 55.37,298.80 51.00,299.00
             51.82,302.00 52.67,304.32 55.30,306.26
             58.48,308.60 74.06,309.35 79.00,310.00 Z
           M 325.00,299.00
           C 321.67,298.73 309.64,296.61 307.39,297.59
             304.25,298.95 300.93,306.81 300.00,310.00
             310.34,307.49 321.51,311.84 325.00,299.00 Z
           M 54.00,307.00
           C 51.41,302.97 50.70,301.45 46.00,300.00
             47.91,304.76 48.95,305.90 54.00,307.00 Z
           M 332.00,301.00
           C 326.14,299.80 324.98,302.37 322.00,307.00
             327.77,306.46 328.73,305.80 332.00,301.00 Z
           M 45.00,301.00
           C 45.00,301.00 40.00,303.00 40.00,303.00
             40.00,303.00 48.00,306.00 48.00,306.00
             48.00,306.00 45.00,301.00 45.00,301.00 Z
           M 337.00,303.00
           C 333.40,301.88 333.00,301.70 331.00,305.00
             331.00,305.00 337.00,303.00 337.00,303.00 Z
           M 80.00,304.00
           C 80.00,304.00 79.00,304.00 79.00,304.00
             79.00,304.00 80.00,305.00 80.00,305.00
             80.00,305.00 80.00,304.00 80.00,304.00 Z
           M 331.00,305.00
           C 331.00,305.00 330.00,305.00 330.00,305.00
             330.00,305.00 331.00,306.00 331.00,306.00
             331.00,306.00 331.00,305.00 331.00,305.00 Z
           M 326.00,308.00
           C 324.19,308.50 321.68,309.05 320.09,309.98
             316.49,312.10 309.80,320.20 308.00,323.90
             309.81,324.18 311.21,324.52 313.00,323.90
             317.41,322.03 324.26,312.43 326.00,308.00 Z
           M 68.00,324.00
           C 65.22,318.12 58.64,310.08 52.00,309.00
             55.40,314.85 60.64,323.63 68.00,324.00 Z
           M 59.00,309.00
           C 59.00,309.00 62.74,316.00 62.74,316.00
             62.74,316.00 69.01,321.94 69.01,321.94
             69.01,321.94 85.00,321.00 85.00,321.00
             82.68,311.53 79.34,311.52 71.00,310.91
             67.60,310.66 62.23,309.93 59.00,309.00 Z
           M 318.00,310.00
           C 318.00,310.00 307.00,310.83 307.00,310.83
             298.37,311.67 296.60,311.58 293.00,321.00
             295.96,321.24 303.84,322.83 306.00,322.23
             309.83,321.18 315.66,313.31 318.00,310.00 Z
           M 85.00,312.00
           C 84.50,316.47 86.99,318.71 91.00,320.00
             91.00,320.00 85.00,312.00 85.00,312.00 Z
           M 124.00,317.00
           C 120.81,312.75 117.90,314.18 113.00,313.96
             113.00,313.96 105.00,313.09 105.00,313.09
             105.00,313.09 88.00,312.00 88.00,312.00
             88.00,312.00 93.09,318.89 93.09,318.89
             93.09,318.89 102.00,318.89 102.00,318.89
             102.00,318.89 110.00,318.09 110.00,318.09
             110.00,318.09 124.00,317.00 124.00,317.00 Z
           M 287.00,312.00
           C 287.00,312.00 261.00,314.00 261.00,314.00
             256.35,314.02 253.97,313.04 251.00,317.00
             251.00,317.00 268.00,318.17 268.00,318.17
             276.58,318.99 283.75,322.08 287.00,312.00 Z
           M 295.00,312.00
           C 288.80,312.51 287.75,314.68 285.00,320.00
             291.67,319.77 292.69,318.21 295.00,312.00 Z
           M 130.00,317.00
           C 130.00,317.00 126.00,314.00 126.00,314.00
             126.00,314.00 130.00,317.00 130.00,317.00 Z
           M 246.00,314.00
           C 246.00,314.00 238.00,314.96 238.00,314.96
             238.00,314.96 219.00,316.04 219.00,316.04
             219.00,316.04 231.00,316.04 231.00,316.04
             231.00,316.04 239.00,316.96 239.00,316.96
             242.66,317.10 244.54,317.52 246.00,314.00 Z
           M 158.00,315.00
           C 158.00,315.00 133.00,316.00 133.00,316.00
             136.99,317.13 154.21,316.50 158.00,315.00 Z
           M 189.00,337.21
           C 189.00,333.64 189.67,320.73 187.98,318.60
             185.96,316.05 171.68,317.00 168.00,317.00
             168.32,320.99 169.86,335.72 173.43,337.21
             173.43,337.21 189.00,337.21 189.00,337.21 Z
           M 207.00,317.00
           C 207.00,317.00 192.00,317.00 192.00,317.00
             192.00,317.00 191.00,337.18 191.00,337.18
             193.34,337.05 200.19,338.00 201.70,337.18
             205.46,335.79 206.82,320.98 207.00,317.00 Z
           M 245.00,319.00
           C 245.00,319.00 211.00,317.00 211.00,317.00
             211.00,317.00 206.00,338.00 206.00,338.00
             206.00,338.00 229.00,338.00 229.00,338.00
             231.27,338.00 234.66,338.22 236.61,336.98
             240.13,334.73 244.02,323.18 245.00,319.00 Z
           M 169.00,338.00
           C 168.72,334.58 166.65,320.88 164.27,318.99
             162.93,317.93 160.62,318.03 159.00,318.00
             152.46,317.89 139.83,317.34 134.00,319.00
             134.00,319.00 141.70,337.01 141.70,337.01
             141.70,337.01 148.00,338.00 148.00,338.00
             148.00,338.00 169.00,338.00 169.00,338.00 Z
           M 136.00,338.00
           C 134.68,334.54 127.64,321.70 124.79,319.94
             121.67,318.19 116.41,319.31 113.00,319.94
             113.00,319.94 105.00,319.94 105.00,319.94
             105.00,319.94 95.00,321.00 95.00,321.00
             97.34,326.20 103.56,334.19 109.00,336.26
             111.73,337.30 116.01,336.91 119.00,337.04
             119.00,337.04 136.00,338.00 136.00,338.00 Z
           M 131.00,319.00
           C 131.00,319.00 128.00,319.00 128.00,319.00
             128.00,319.00 134.00,329.00 134.00,329.00
             134.00,329.00 131.00,319.00 131.00,319.00 Z
           M 281.00,321.00
           C 281.00,321.00 262.00,319.42 262.00,319.42
             259.07,319.04 252.91,318.42 250.39,320.02
             247.36,321.95 242.06,334.28 241.00,338.00
             241.00,338.00 258.00,337.04 258.00,337.04
             261.14,336.90 265.17,337.41 268.00,335.98
             272.07,333.92 278.80,325.11 281.00,321.00 Z
           M 289.00,322.15
           C 287.26,321.91 285.69,321.66 284.00,322.15
             279.92,323.86 273.58,332.29 271.00,336.00
             272.99,335.99 276.09,336.12 277.91,335.40
             281.98,333.79 286.86,325.82 289.00,322.15 Z
           M 96.00,335.00
           C 94.53,331.74 90.10,324.67 86.83,323.19
             83.72,321.78 75.25,323.93 72.00,325.00
             79.40,334.50 84.76,334.99 96.00,335.00 Z
           M 105.00,336.00
           C 101.52,331.14 95.78,323.73 90.00,322.00
             92.84,328.66 97.32,335.38 105.00,336.00 Z
           M 304.00,324.00
           C 301.28,323.78 296.34,322.85 294.00,323.16
             288.59,323.87 284.53,330.64 282.00,335.00
             291.51,334.97 299.44,333.44 304.00,324.00 Z
           M 310.00,326.00
           C 303.61,324.96 301.52,328.10 298.00,333.00
             304.23,332.69 307.12,331.90 310.00,326.00 Z
           M 85.00,335.00
           C 85.00,335.00 84.00,335.00 84.00,335.00
             84.00,335.00 85.00,336.00 85.00,336.00
             85.00,336.00 85.00,335.00 85.00,335.00 Z
           M 103.00,343.00
           C 99.35,335.55 92.38,336.02 85.00,336.00
             91.22,343.46 93.99,344.18 103.00,343.00 Z
           M 103.00,337.00
           C 103.06,341.40 106.32,341.70 110.00,342.00
             107.87,338.22 106.92,338.45 103.00,337.00 Z
           M 277.00,337.00
           C 277.00,337.00 265.00,340.00 265.00,340.00
             270.42,343.51 273.71,342.18 277.00,337.00 Z
           M 124.00,339.00
           C 124.00,339.00 110.00,338.00 110.00,338.00
             114.19,342.13 118.97,341.32 124.00,339.00 Z
           M 265.00,338.00
           C 265.00,338.00 253.00,340.00 253.00,340.00
             257.82,340.39 261.96,342.53 265.00,338.00 Z
           M 149.00,357.00
           C 147.34,353.55 141.55,342.73 138.53,340.97
             136.44,339.85 133.34,340.75 131.00,340.97
             131.00,340.97 115.00,342.00 115.00,342.00
             118.53,346.82 128.21,354.83 134.00,356.49
             136.72,357.28 145.65,357.00 149.00,357.00 Z
           M 171.00,341.00
           C 171.00,341.00 143.00,340.00 143.00,340.00
             143.76,342.65 144.45,344.64 145.97,347.00
             154.28,359.95 162.34,355.58 175.00,355.00
             175.00,355.00 171.00,341.00 171.00,341.00 Z
           M 235.00,340.00
           C 235.00,340.00 218.00,340.00 218.00,340.00
             214.92,340.00 208.11,339.94 205.72,341.95
             203.78,343.59 201.62,352.27 201.00,355.20
             206.17,355.11 216.51,357.05 221.00,355.20
             226.25,353.47 232.24,344.80 235.00,340.00 Z
           M 261.00,342.00
           C 257.03,341.91 242.86,339.94 240.21,341.19
             237.14,342.64 231.29,353.62 230.00,356.86
             230.00,356.86 241.00,356.86 241.00,356.86
             247.08,355.50 257.33,346.89 261.00,342.00 Z
           M 189.00,341.00
           C 189.00,341.00 173.00,341.00 173.00,341.00
             173.46,344.26 174.74,352.04 177.51,353.98
             179.60,355.45 186.28,355.00 189.00,355.00
             189.00,355.00 189.00,341.00 189.00,341.00 Z
           M 203.00,341.00
           C 203.00,341.00 191.00,341.00 191.00,341.00
             191.00,341.00 191.00,355.00 191.00,355.00
             199.87,354.97 200.28,354.47 203.00,341.00 Z
           M 130.00,355.00
           C 123.08,350.35 116.69,343.30 108.00,343.00
             111.81,351.07 120.69,358.70 130.00,355.00 Z
           M 271.00,344.00
           C 268.55,343.31 266.59,342.76 264.00,343.30
             259.61,344.23 248.03,353.42 245.00,357.00
             245.00,357.00 257.00,355.49 257.00,355.49
             261.41,354.17 268.16,347.64 271.00,344.00 Z
           M 293.00,342.00
           C 293.00,342.00 294.00,342.00 294.00,342.00
             294.00,342.00 293.00,343.00 293.00,343.00
             293.00,343.00 293.00,342.00 293.00,342.00 Z
           M 86.00,344.00
           C 86.00,344.00 87.00,344.00 87.00,344.00
             87.00,344.00 86.00,345.00 86.00,345.00
             86.00,345.00 86.00,344.00 86.00,344.00 Z
           M 234.00,345.00
           C 234.00,345.00 233.00,345.00 233.00,345.00
             233.00,345.00 234.00,346.00 234.00,346.00
             234.00,346.00 234.00,345.00 234.00,345.00 Z
           M 233.00,346.00
           C 233.00,346.00 224.00,356.00 224.00,356.00
             229.63,355.06 231.38,351.09 233.00,346.00 Z
           M 102.00,349.00
           C 102.00,349.00 103.00,349.00 103.00,349.00
             103.00,349.00 102.00,350.00 102.00,350.00
             102.00,350.00 102.00,349.00 102.00,349.00 Z
           M 94.00,351.00
           C 94.00,351.00 95.00,351.00 95.00,351.00
             95.00,351.00 94.00,352.00 94.00,352.00
             94.00,352.00 94.00,351.00 94.00,351.00 Z
           M 96.00,351.00
           C 96.00,351.00 104.00,354.00 104.00,354.00
             99.90,353.76 99.08,353.84 96.00,351.00 Z
           M 270.00,351.00
           C 270.00,351.00 271.00,351.00 271.00,351.00
             271.00,351.00 270.00,352.00 270.00,352.00
             270.00,352.00 270.00,351.00 270.00,351.00 Z
           M 281.00,351.00
           C 281.00,351.00 282.00,351.00 282.00,351.00
             282.00,351.00 281.00,352.00 281.00,352.00
             281.00,352.00 281.00,351.00 281.00,351.00 Z
           M 107.00,352.00
           C 107.00,352.00 108.00,352.00 108.00,352.00
             108.00,352.00 107.00,353.00 107.00,353.00
             107.00,353.00 107.00,352.00 107.00,352.00 Z
           M 268.00,352.00
           C 268.00,352.00 269.00,352.00 269.00,352.00
             269.00,352.00 268.00,353.00 268.00,353.00
             268.00,353.00 268.00,352.00 268.00,352.00 Z
           M 273.00,353.00
           C 273.00,353.00 280.00,353.00 280.00,353.00
             280.00,353.00 273.00,353.00 273.00,353.00 Z
           M 152.00,355.00
           C 152.00,355.00 151.00,355.00 151.00,355.00
             151.00,355.00 152.00,356.00 152.00,356.00
             152.00,356.00 152.00,355.00 152.00,355.00 Z
           M 131.00,356.00
           C 131.00,356.00 130.00,356.00 130.00,356.00
             130.00,356.00 131.00,357.00 131.00,357.00
             131.00,357.00 131.00,356.00 131.00,356.00 Z
           M 176.00,357.00
           C 172.36,356.05 159.50,356.61 156.00,358.00
             156.00,358.00 176.00,357.00 176.00,357.00 Z
           M 189.00,357.00
           C 189.00,357.00 178.00,356.00 178.00,356.00
             178.00,356.00 178.00,358.00 178.00,358.00
             182.34,358.09 185.39,359.43 189.00,357.00 Z
           M 198.00,356.00
           C 198.00,356.00 191.00,356.00 191.00,356.00
             191.00,356.00 191.00,358.00 191.00,358.00
             191.00,358.00 198.00,358.00 198.00,358.00
             198.00,358.00 198.00,356.00 198.00,356.00 Z
           M 220.00,357.00
           C 220.00,357.00 200.00,356.00 200.00,356.00
             200.00,356.00 200.00,358.00 200.00,358.00
             200.00,358.00 220.00,357.00 220.00,357.00 Z
           M 133.00,358.00
           C 133.00,358.00 123.00,357.00 123.00,357.00
             126.50,360.35 128.74,359.96 133.00,358.00 Z
           M 255.00,357.00
           C 250.49,357.01 248.03,356.66 244.00,359.00
             249.26,359.42 250.99,360.91 255.00,357.00 Z
           M 189.00,360.00
           C 189.00,360.00 179.00,360.00 179.00,360.00
             180.77,366.21 182.04,370.42 189.00,371.00
             189.00,371.00 189.00,360.00 189.00,360.00 Z
           M 139.00,360.00
           C 139.00,360.00 140.00,360.00 140.00,360.00
             140.00,360.00 139.00,361.00 139.00,361.00
             139.00,361.00 139.00,360.00 139.00,360.00 Z
           M 236.00,360.00
           C 236.00,360.00 237.00,360.00 237.00,360.00
             237.00,360.00 236.00,361.00 236.00,361.00
             236.00,361.00 236.00,360.00 236.00,360.00 Z
           M 141.00,361.00
           C 141.00,361.00 142.00,361.00 142.00,361.00
             142.00,361.00 141.00,362.00 141.00,362.00
             141.00,362.00 141.00,361.00 141.00,361.00 Z
           M 234.00,361.00
           C 234.00,361.00 235.00,361.00 235.00,361.00
             235.00,361.00 234.00,362.00 234.00,362.00
             234.00,362.00 234.00,361.00 234.00,361.00 Z
           M 143.00,362.00
           C 143.00,362.00 144.00,362.00 144.00,362.00
             144.00,362.00 143.00,363.00 143.00,363.00
             143.00,363.00 143.00,362.00 143.00,362.00 Z
           M 232.00,362.00
           C 232.00,362.00 233.00,362.00 233.00,362.00
             233.00,362.00 232.00,363.00 232.00,363.00
             232.00,363.00 232.00,362.00 232.00,362.00 Z
           M 145.00,363.00
           C 145.00,363.00 146.00,363.00 146.00,363.00
             146.00,363.00 145.00,364.00 145.00,364.00
             145.00,364.00 145.00,363.00 145.00,363.00 Z
           M 230.00,363.00
           C 230.00,363.00 231.00,363.00 231.00,363.00
             231.00,363.00 230.00,364.00 230.00,364.00
             230.00,364.00 230.00,363.00 230.00,363.00 Z
           M 243.00,366.00
           C 243.00,366.00 247.00,364.00 247.00,364.00
             247.00,364.00 243.00,366.00 243.00,366.00 Z
           M 209.00,366.00
           C 209.00,366.00 210.00,366.00 210.00,366.00
             210.00,366.00 209.00,367.00 209.00,367.00
             209.00,367.00 209.00,366.00 209.00,366.00 Z
           M 171.00,369.00
           C 171.00,369.00 179.00,369.00 179.00,369.00
             176.47,369.08 175.00,368.50 174.00,371.00
             174.00,371.00 171.00,369.00 171.00,369.00 Z
           M 198.00,368.00
           C 198.00,368.00 205.00,370.00 205.00,370.00
             205.00,370.00 198.00,368.00 198.00,368.00 Z
           M 239.00,368.00
           C 239.00,368.00 240.00,368.00 240.00,368.00
             240.00,368.00 239.00,369.00 239.00,369.00
             239.00,369.00 239.00,368.00 239.00,368.00 Z
           M 202.00,370.00
           C 202.00,370.00 203.00,370.00 203.00,370.00
             203.00,370.00 202.00,371.00 202.00,371.00
             202.00,371.00 202.00,370.00 202.00,370.00 Z
           M 168.00,373.00
           C 168.00,373.00 169.00,373.00 169.00,373.00
             169.00,373.00 168.00,374.00 168.00,374.00
             168.00,374.00 168.00,373.00 168.00,373.00 Z
           M 209.00,373.00
           C 209.00,373.00 210.00,373.00 210.00,373.00
             210.00,373.00 209.00,374.00 209.00,374.00
             209.00,374.00 209.00,373.00 209.00,373.00 Z" />
</svg>
