<?xml version="1.0" encoding="UTF-8" standalone="no"?>
<!DOCTYPE svg PUBLIC "-//W3C//DTD SVG 20010904//EN"
              "http://www.w3.org/TR/2001/REC-SVG-20010904/DTD/svg10.dtd">

<svg xmlns="http://www.w3.org/2000/svg"
     width="1.25667in" height="1.25667in"
     viewBox="0 0 377 377">
  <path id="Auswahl #3"
        fill="none" stroke="black" stroke-width="1"
        d="M 172.00,8.00
           C 172.00,8.00 183.00,1.00 183.00,1.00
             183.00,1.00 175.00,18.00 175.00,18.00
             175.00,18.00 184.26,16.40 184.26,16.40
             184.26,16.40 188.00,5.00 188.00,5.00
             188.00,5.00 187.00,18.00 187.00,18.00
             187.00,18.00 206.00,18.00 206.00,18.00
             206.00,18.00 198.00,8.00 198.00,8.00
             198.00,8.00 205.00,7.00 205.00,7.00
             205.00,7.00 199.00,1.00 199.00,1.00
             205.71,4.84 206.87,7.31 215.00,6.19
             218.83,5.65 219.23,5.74 222.00,3.00
             222.00,3.00 225.00,4.00 225.00,4.00
             225.00,4.00 223.00,8.00 223.00,8.00
             223.00,8.00 208.00,9.00 208.00,9.00
             208.00,9.00 215.21,17.98 215.21,17.98
             215.21,17.98 227.00,19.00 227.00,19.00
             227.00,19.00 222.00,14.00 222.00,14.00
             230.35,18.07 233.37,21.46 243.00,17.00
             243.00,17.00 231.00,9.72 231.00,9.72
             231.00,9.72 224.00,7.00 224.00,7.00
             224.00,7.00 232.00,7.00 232.00,7.00
             233.02,9.78 235.58,10.76 238.00,12.34
             244.62,16.67 248.45,19.89 255.00,13.00
             255.00,13.00 258.00,14.00 258.00,14.00
             258.00,14.00 249.00,19.00 249.00,19.00
             249.00,19.00 268.00,23.00 268.00,23.00
             268.00,23.00 251.00,22.00 251.00,22.00
             258.15,29.21 259.59,34.87 270.00,35.00
             270.00,35.00 256.00,23.00 256.00,23.00
             256.00,23.00 273.00,33.15 273.00,33.15
             273.00,33.15 283.00,32.00 283.00,32.00
             278.25,27.65 275.59,24.76 269.00,24.00
             269.00,24.00 269.00,21.00 269.00,21.00
             269.00,21.00 279.00,25.00 279.00,25.00
             278.43,28.89 285.50,28.71 288.00,28.00
             288.00,28.00 287.00,34.00 287.00,34.00
             287.00,34.00 291.00,34.00 291.00,34.00
             293.65,39.58 296.32,41.70 302.00,44.00
             302.00,44.00 301.00,42.00 301.00,42.00
             301.00,42.00 313.00,48.00 313.00,48.00
             313.00,48.00 308.00,47.00 308.00,47.00
             311.55,49.73 311.61,50.14 316.00,49.00
             316.00,49.00 314.00,54.00 314.00,54.00
             322.56,60.13 324.25,64.74 329.04,68.72
             334.32,73.12 336.02,70.16 340.00,77.00
             340.00,77.00 336.00,79.00 336.00,79.00
             336.00,79.00 348.95,98.72 348.95,98.72
             352.82,103.33 355.39,99.94 358.00,107.00
             358.00,107.00 353.00,108.00 353.00,108.00
             353.00,108.00 362.56,130.94 362.56,130.94
             365.82,136.90 368.74,132.83 370.00,140.00
             370.00,140.00 365.00,140.00 365.00,140.00
             365.00,140.00 370.00,170.00 370.00,170.00
             370.00,170.00 376.00,170.00 376.00,170.00
             376.00,170.00 375.00,175.00 375.00,175.00
             375.00,175.00 371.00,173.00 371.00,173.00
             371.00,173.00 371.00,205.00 371.00,205.00
             371.00,205.00 376.00,205.00 376.00,205.00
             376.00,205.00 375.00,210.00 375.00,210.00
             370.15,208.59 369.98,212.00 369.25,216.00
             369.25,216.00 365.00,239.00 365.00,239.00
             365.00,239.00 370.00,240.00 370.00,240.00
             370.00,240.00 368.00,244.00 368.00,244.00
             362.54,244.12 361.94,247.51 360.31,252.00
             360.31,252.00 353.00,271.00 353.00,271.00
             353.00,271.00 357.00,272.00 357.00,272.00
             357.00,272.00 347.90,280.14 347.90,280.14
             347.90,280.14 335.00,300.00 335.00,300.00
             335.00,300.00 339.00,301.00 339.00,301.00
             335.66,307.57 332.97,305.46 328.09,309.42
             328.09,309.42 313.00,325.00 313.00,325.00
             313.00,325.00 315.00,329.00 315.00,329.00
             315.00,329.00 307.00,330.00 307.00,330.00
             307.00,330.00 310.00,326.00 310.00,326.00
             304.32,326.65 302.93,329.10 299.00,333.00
             299.00,333.00 306.00,330.00 306.00,330.00
             306.00,330.00 305.00,332.00 305.00,332.00
             305.00,332.00 312.00,331.00 312.00,331.00
             312.00,331.00 297.00,338.00 297.00,338.00
             297.00,338.00 297.00,337.00 297.00,337.00
             297.00,337.00 299.00,335.00 299.00,335.00
             294.41,337.14 293.06,338.40 291.00,343.00
             291.00,343.00 288.00,342.00 288.00,342.00
             288.00,342.00 288.00,345.00 288.00,345.00
             288.00,345.00 286.00,350.00 286.00,350.00
             286.00,350.00 284.00,347.00 284.00,347.00
             284.00,347.00 276.00,352.00 276.00,352.00
             276.00,352.00 282.00,346.00 282.00,346.00
             282.00,346.00 271.00,344.94 271.00,344.94
             271.00,344.94 256.00,353.00 256.00,353.00
             256.00,353.00 269.00,343.00 269.00,343.00
             257.01,342.83 262.52,345.76 249.00,356.00
             249.00,356.00 255.00,354.00 255.00,354.00
             255.00,354.00 257.00,357.00 257.00,357.00
             257.00,357.00 248.00,359.00 248.00,359.00
             248.00,359.00 256.00,361.00 256.00,361.00
             256.00,361.00 255.00,365.00 255.00,365.00
             251.74,362.41 248.43,359.88 244.00,361.25
             239.04,362.79 233.09,370.25 228.00,369.00
             228.00,369.00 242.00,359.01 242.00,359.01
             242.00,359.01 231.00,359.01 231.00,359.01
             231.00,359.01 222.00,362.00 222.00,362.00
             222.00,362.00 226.00,359.00 226.00,359.00
             213.95,359.00 214.21,357.89 208.00,369.00
             208.00,369.00 223.00,371.00 223.00,371.00
             223.00,371.00 223.00,373.00 223.00,373.00
             223.00,373.00 222.00,374.00 222.00,374.00
             222.00,374.00 220.00,374.00 220.00,374.00
             212.92,367.01 205.78,372.12 199.00,376.00
             203.46,369.69 207.72,366.74 210.00,359.00
             210.00,359.00 201.00,368.00 201.00,368.00
             201.00,368.00 204.00,369.00 204.00,369.00
             204.00,369.00 198.00,368.00 198.00,368.00
             198.00,368.00 205.00,359.00 205.00,359.00
             205.00,359.00 187.00,360.00 187.00,360.00
             187.00,360.00 188.00,371.00 188.00,371.00
             188.00,371.00 196.00,372.00 196.00,372.00
             196.00,372.00 182.00,371.00 182.00,371.00
             182.00,371.00 187.00,371.00 187.00,371.00
             184.74,361.75 187.22,360.04 176.00,360.00
             176.00,360.00 183.00,376.00 183.00,376.00
             176.93,372.88 168.39,362.29 163.83,359.99
             160.15,358.13 149.97,358.87 146.00,359.99
             146.00,359.99 149.00,362.00 149.00,362.00
             149.00,362.00 141.00,359.00 141.00,359.00
             144.62,362.45 151.11,368.42 156.00,369.79
             161.32,370.84 164.29,367.76 170.00,369.79
             166.19,370.93 158.38,370.02 157.00,374.00
             151.75,371.01 142.24,360.94 137.00,360.12
             135.35,359.55 133.61,360.02 132.00,360.12
             128.97,360.99 126.09,360.86 125.00,364.00
             125.00,364.00 123.00,365.00 123.00,365.00
             123.00,365.00 120.00,361.00 120.00,361.00
             122.82,360.52 124.02,360.83 125.00,358.00
             125.00,358.00 133.00,358.00 133.00,358.00
             122.78,356.68 104.66,356.53 96.00,352.00
             96.00,352.00 107.00,354.00 107.00,354.00
             100.97,348.82 98.08,344.50 91.00,350.00
             91.00,350.00 90.00,346.00 90.00,346.00
             90.00,346.00 95.00,345.00 95.00,345.00
             92.41,342.03 87.62,337.16 84.00,335.73
             78.12,333.42 71.24,335.48 65.00,330.00
             65.00,330.00 84.00,334.00 84.00,334.00
             81.51,331.29 77.57,325.73 74.00,325.06
             70.52,324.41 65.29,327.68 62.00,329.00
             59.89,321.81 52.38,317.11 48.00,311.00
             48.00,311.00 64.00,324.08 64.00,324.08
             64.00,324.08 74.00,322.00 74.00,322.00
             64.68,310.98 68.43,310.86 56.00,309.13
             53.35,308.76 49.18,307.17 48.00,310.00
             38.72,305.22 38.18,300.26 32.95,292.00
             30.82,288.63 28.01,285.09 28.00,281.00
             30.54,285.23 36.64,297.02 41.04,298.52
             43.17,299.24 52.47,297.16 56.00,297.00
             56.00,297.00 44.79,280.31 44.79,280.31
             44.79,280.31 26.00,277.00 26.00,277.00
             26.00,277.00 26.00,280.00 26.00,280.00
             24.74,278.44 21.87,275.37 21.13,273.83
             21.13,273.83 12.65,250.00 12.65,250.00
             12.65,250.00 8.06,240.83 8.06,240.83
             8.06,240.83 8.06,235.00 8.06,235.00
             8.06,235.00 5.08,220.00 5.08,220.00
             4.23,214.97 4.71,211.75 1.00,208.00
             1.00,208.00 2.74,201.91 2.74,201.91
             2.74,201.91 2.04,187.00 2.04,187.00
             2.04,187.00 2.91,178.01 2.91,178.01
             2.91,178.01 1.70,171.12 1.70,171.12
             1.70,171.12 3.82,164.99 3.82,164.99
             3.82,164.99 9.00,139.00 9.00,139.00
             9.00,139.00 7.00,136.00 7.00,136.00
             7.00,136.00 10.73,131.96 10.73,131.96
             10.73,131.96 19.31,110.17 19.31,110.17
             19.31,110.17 20.39,104.33 20.39,104.33
             20.39,104.33 27.00,97.00 27.00,97.00
             27.00,97.00 25.00,101.00 25.00,101.00
             25.00,101.00 44.61,97.98 44.61,97.98
             44.61,97.98 55.00,81.00 55.00,81.00
             55.00,81.00 39.67,79.43 39.67,79.43
             39.67,79.43 27.00,96.00 27.00,96.00
             27.00,96.00 38.77,74.37 38.77,74.37
             38.77,74.37 48.00,67.00 48.00,67.00
             48.00,67.00 45.00,71.00 45.00,71.00
             45.00,71.00 63.83,67.02 63.83,67.02
             63.83,67.02 73.00,56.00 73.00,56.00
             73.00,56.00 63.00,54.06 63.00,54.06
             63.00,54.06 48.00,66.00 48.00,66.00
             48.00,66.00 57.86,55.00 57.86,55.00
             57.86,55.00 66.02,46.15 66.02,46.15
             66.02,46.15 83.00,42.27 83.00,42.27
             83.00,42.27 94.00,33.00 94.00,33.00
             94.00,33.00 88.00,31.00 88.00,31.00
             88.00,31.00 89.00,28.00 89.00,28.00
             95.78,31.98 95.59,32.31 106.00,24.00
             106.00,24.00 94.00,25.00 94.00,25.00
             94.00,25.00 113.00,20.00 113.00,20.00
             114.17,22.34 116.72,21.15 119.00,20.88
             124.35,20.25 127.53,20.60 133.00,19.00
             127.76,18.85 122.17,18.76 119.00,14.00
             119.00,14.00 130.00,16.00 130.00,16.00
             137.70,21.73 143.07,12.21 154.00,6.00
             154.00,6.00 152.00,4.00 152.00,4.00
             152.00,4.00 155.00,3.00 155.00,3.00
             160.27,8.03 161.32,4.97 167.00,7.00
             160.08,8.94 158.92,6.74 155.00,7.79
             150.45,9.01 143.39,15.68 140.00,19.00
             150.59,17.96 158.79,22.16 167.28,14.40
             169.83,12.06 171.10,11.38 172.00,8.00 Z
           M 168.00,6.00
           C 168.00,6.00 174.00,7.00 174.00,7.00
             174.00,7.00 168.00,6.00 168.00,6.00 Z
           M 200.00,6.00
           C 200.00,6.00 201.00,6.00 201.00,6.00
             201.00,6.00 200.00,7.00 200.00,7.00
             200.00,7.00 200.00,6.00 200.00,6.00 Z
           M 147.00,7.00
           C 147.00,7.00 148.00,7.00 148.00,7.00
             148.00,7.00 147.00,8.00 147.00,8.00
             147.00,8.00 147.00,7.00 147.00,7.00 Z
           M 140.00,8.00
           C 140.00,8.00 141.00,8.00 141.00,8.00
             141.00,8.00 140.00,9.00 140.00,9.00
             140.00,9.00 140.00,8.00 140.00,8.00 Z
           M 176.00,9.00
           C 171.19,11.28 169.06,13.73 166.00,18.00
             172.62,17.92 173.62,17.79 176.00,9.00 Z
           M 211.00,18.00
           C 208.44,12.11 207.84,9.56 201.00,9.00
             203.69,13.63 205.42,17.07 211.00,18.00 Z
           M 215.00,10.00
           C 215.00,10.00 216.00,10.00 216.00,10.00
             216.00,10.00 215.00,11.00 215.00,11.00
             215.00,11.00 215.00,10.00 215.00,10.00 Z
           M 248.00,10.00
           C 248.00,10.00 249.00,10.00 249.00,10.00
             249.00,10.00 248.00,11.00 248.00,11.00
             248.00,11.00 248.00,10.00 248.00,10.00 Z
           M 217.00,11.00
           C 217.00,11.00 218.00,11.00 218.00,11.00
             218.00,11.00 217.00,12.00 217.00,12.00
             217.00,12.00 217.00,11.00 217.00,11.00 Z
           M 124.00,13.00
           C 124.00,13.00 125.00,13.00 125.00,13.00
             125.00,13.00 124.00,14.00 124.00,14.00
             124.00,14.00 124.00,13.00 124.00,13.00 Z
           M 152.00,13.00
           C 152.00,13.00 153.00,13.00 153.00,13.00
             153.00,13.00 152.00,14.00 152.00,14.00
             152.00,14.00 152.00,13.00 152.00,13.00 Z
           M 150.00,14.00
           C 150.00,14.00 151.00,14.00 151.00,14.00
             151.00,14.00 150.00,15.00 150.00,15.00
             150.00,15.00 150.00,14.00 150.00,14.00 Z
           M 148.00,15.00
           C 148.00,15.00 149.00,16.00 149.00,16.00
             149.00,16.00 145.00,17.00 145.00,17.00
             145.00,17.00 148.00,15.00 148.00,15.00 Z
           M 117.00,17.00
           C 117.00,17.00 118.00,17.00 118.00,17.00
             118.00,17.00 117.00,18.00 117.00,18.00
             117.00,18.00 117.00,17.00 117.00,17.00 Z
           M 172.00,19.00
           C 172.00,19.00 164.00,21.00 164.00,21.00
             164.00,21.00 172.00,21.00 172.00,21.00
             172.00,21.00 172.00,19.00 172.00,19.00 Z
           M 185.00,19.00
           C 185.00,19.00 175.00,19.00 175.00,19.00
             175.00,19.00 175.00,21.00 175.00,21.00
             175.00,21.00 185.00,21.00 185.00,21.00
             185.00,21.00 185.00,19.00 185.00,19.00 Z
           M 208.00,20.00
           C 202.62,18.47 190.56,17.64 186.00,21.00
             186.00,21.00 208.00,20.00 208.00,20.00 Z
           M 245.00,19.00
           C 245.00,19.00 244.00,19.00 244.00,19.00
             244.00,19.00 245.00,20.00 245.00,20.00
             245.00,20.00 245.00,19.00 245.00,19.00 Z
           M 123.00,19.00
           C 123.00,19.00 124.00,19.00 124.00,19.00
             124.00,19.00 123.00,20.00 123.00,20.00
             123.00,20.00 123.00,19.00 123.00,19.00 Z
           M 162.00,20.00
           C 162.00,20.00 156.00,21.00 156.00,21.00
             156.00,21.00 162.00,20.00 162.00,20.00 Z
           M 221.00,20.00
           C 221.00,20.00 215.00,21.00 215.00,21.00
             215.00,21.00 221.00,20.00 221.00,20.00 Z
           M 135.00,21.00
           C 135.00,21.00 109.00,23.72 109.00,23.72
             104.92,25.17 100.11,29.27 98.00,33.00
             98.00,33.00 110.00,28.00 110.00,28.00
             110.00,28.00 102.00,34.00 102.00,34.00
             102.00,34.00 119.00,35.84 119.00,35.84
             125.07,35.05 131.66,25.81 135.00,21.00 Z
           M 160.00,22.00
           C 154.93,21.77 146.82,20.21 142.00,21.30
             135.56,22.75 128.05,30.93 126.00,37.20
             131.21,37.00 145.14,38.93 148.90,37.20
             152.41,35.97 158.47,25.61 160.00,22.00 Z
           M 247.00,36.99
           C 243.88,32.64 235.10,22.80 230.00,21.43
             226.70,20.55 220.00,21.91 216.00,22.00
             216.61,25.26 219.76,35.21 222.42,36.99
             226.21,39.49 242.00,37.23 247.00,36.99 Z
           M 260.00,36.16
           C 257.71,31.73 251.54,23.49 247.00,21.74
             244.21,20.66 236.35,21.00 233.00,21.00
             235.58,24.13 246.73,35.33 250.00,36.16
             251.70,36.82 257.61,36.05 260.00,36.16 Z
           M 267.00,20.00
           C 267.00,20.00 268.00,20.00 268.00,20.00
             268.00,20.00 267.00,21.00 267.00,21.00
             267.00,21.00 267.00,20.00 267.00,20.00 Z
           M 137.00,22.00
           C 137.00,22.00 136.00,22.00 136.00,22.00
             136.00,22.00 137.00,23.00 137.00,23.00
             137.00,23.00 137.00,22.00 137.00,22.00 Z
           M 171.00,22.00
           C 168.92,22.00 165.02,21.83 163.18,22.60
             159.14,24.29 154.30,33.89 153.00,38.00
             155.95,38.00 164.33,38.51 166.49,36.98
             169.30,34.99 170.71,25.41 171.00,22.00 Z
           M 185.00,23.00
           C 185.00,23.00 174.00,22.00 174.00,22.00
             174.00,22.00 171.00,37.00 171.00,37.00
             171.00,37.00 182.26,36.01 182.26,36.01
             182.26,36.01 185.00,23.00 185.00,23.00 Z
           M 216.00,38.00
           C 215.10,34.17 211.93,25.14 208.61,23.01
             205.26,20.88 190.95,23.00 186.00,23.01
             186.00,23.01 186.00,37.00 186.00,37.00
             186.00,37.00 201.00,37.00 201.00,37.00
             201.00,37.00 216.00,38.00 216.00,38.00 Z
           M 212.00,22.00
           C 212.00,22.00 214.00,27.00 214.00,27.00
             214.00,27.00 212.00,22.00 212.00,22.00 Z
           M 136.00,23.00
           C 136.00,23.00 135.00,23.00 135.00,23.00
             135.00,23.00 136.00,24.00 136.00,24.00
             136.00,24.00 136.00,23.00 136.00,23.00 Z
           M 114.00,24.00
           C 114.00,24.00 115.00,24.00 115.00,24.00
             115.00,24.00 114.00,25.00 114.00,25.00
             114.00,25.00 114.00,24.00 114.00,24.00 Z
           M 216.00,30.00
           C 216.00,30.00 215.00,30.00 215.00,30.00
             215.00,30.00 216.00,31.00 216.00,31.00
             216.00,31.00 216.00,30.00 216.00,30.00 Z
           M 287.00,32.00
           C 287.00,32.00 286.00,32.00 286.00,32.00
             286.00,32.00 287.00,33.00 287.00,33.00
             287.00,33.00 287.00,32.00 287.00,32.00 Z
           M 296.00,43.00
           C 293.38,39.37 288.80,34.00 284.00,33.60
             284.00,33.60 274.00,35.00 274.00,35.00
             280.31,42.54 287.01,41.81 296.00,43.00 Z
           M 98.00,34.00
           C 92.77,35.54 91.11,37.67 88.00,42.00
             92.45,40.26 95.61,38.22 98.00,34.00 Z
           M 119.00,37.00
           C 104.38,36.96 101.03,31.41 93.00,41.00
             93.00,41.00 108.00,40.01 108.00,40.01
             112.37,39.90 116.08,40.75 119.00,37.00 Z
           M 291.00,35.00
           C 291.00,35.00 290.00,35.00 290.00,35.00
             290.00,35.00 291.00,36.00 291.00,36.00
             291.00,36.00 291.00,35.00 291.00,35.00 Z
           M 278.00,41.00
           C 273.27,34.93 270.97,35.75 264.00,37.00
             267.81,40.76 272.80,40.31 278.00,41.00 Z
           M 263.00,40.00
           C 260.32,36.05 256.86,37.22 253.00,39.00
             253.00,39.00 263.00,40.00 263.00,40.00 Z
           M 125.00,38.00
           C 125.00,38.00 124.00,38.00 124.00,38.00
             124.00,38.00 125.00,39.00 125.00,39.00
             125.00,39.00 125.00,38.00 125.00,38.00 Z
           M 252.00,38.00
           C 252.00,38.00 251.00,38.00 251.00,38.00
             251.00,38.00 252.00,39.00 252.00,39.00
             252.00,39.00 252.00,38.00 252.00,38.00 Z
           M 149.00,40.00
           C 144.69,40.00 127.02,39.49 124.21,40.74
             119.60,42.79 114.90,54.21 114.00,59.09
             114.00,59.09 129.00,59.09 129.00,59.09
             129.00,59.09 139.51,59.09 139.51,59.09
             139.51,59.09 149.00,40.00 149.00,40.00 Z
           M 167.00,40.00
           C 164.22,40.00 154.37,39.65 152.39,40.57
             148.73,42.28 144.10,55.91 143.00,60.00
             143.00,60.00 163.00,61.00 163.00,61.00
             163.00,61.00 167.00,40.00 167.00,40.00 Z
           M 183.00,40.00
           C 183.00,40.00 171.60,41.02 171.60,41.02
             171.60,41.02 169.58,47.00 169.58,47.00
             169.58,47.00 168.00,61.00 168.00,61.00
             168.00,61.00 182.00,61.00 182.00,61.00
             182.00,61.00 183.00,40.00 183.00,40.00 Z
           M 218.00,40.00
           C 218.00,40.00 193.00,40.00 193.00,40.00
             193.00,40.00 186.02,41.60 186.02,41.60
             186.02,41.60 185.00,61.00 185.00,61.00
             185.00,61.00 209.00,61.00 209.00,61.00
             209.00,61.00 223.00,60.00 223.00,60.00
             223.00,60.00 218.00,40.00 218.00,40.00 Z
           M 262.00,59.00
           C 260.74,53.84 254.02,42.55 248.96,40.60
             246.23,39.55 226.42,40.00 222.00,40.00
             222.00,40.00 227.00,60.00 227.00,60.00
             227.00,60.00 262.00,59.00 262.00,59.00 Z
           M 297.00,39.00
           C 297.00,39.00 300.00,42.00 300.00,42.00
             300.00,42.00 297.00,39.00 297.00,39.00 Z
           M 75.00,40.00
           C 75.00,40.00 76.00,40.00 76.00,40.00
             76.00,40.00 75.00,41.00 75.00,41.00
             75.00,41.00 75.00,40.00 75.00,40.00 Z
           M 116.00,41.00
           C 116.00,41.00 104.00,41.91 104.00,41.91
             92.49,42.72 84.66,43.04 79.00,55.00
             79.00,55.00 104.00,58.00 104.00,58.00
             104.00,58.00 116.00,41.00 116.00,41.00 Z
           M 274.00,58.00
           C 272.77,53.71 267.81,43.39 263.68,41.57
             261.77,40.74 255.38,41.00 253.00,41.00
             253.00,41.00 265.18,56.98 265.18,56.98
             265.18,56.98 274.00,58.00 274.00,58.00 Z
           M 269.00,41.00
           C 269.00,41.00 271.35,48.00 271.35,48.00
             271.35,48.00 277.38,55.99 277.38,55.99
             277.38,55.99 293.00,55.99 293.00,55.99
             290.16,51.52 285.05,44.67 280.00,42.74
             280.00,42.74 269.00,41.00 269.00,41.00 Z
           M 118.00,43.00
           C 112.86,46.86 108.93,52.30 106.00,58.00
             106.00,58.00 110.37,57.01 110.37,57.01
             110.37,57.01 118.00,43.00 118.00,43.00 Z
           M 305.00,54.00
           C 301.42,43.50 292.63,43.09 283.00,43.00
             285.65,46.70 291.44,53.71 296.00,54.65
             297.92,55.04 302.69,54.19 305.00,54.00 Z
           M 72.00,44.00
           C 72.00,44.00 71.00,44.00 71.00,44.00
             71.00,44.00 72.00,45.00 72.00,45.00
             72.00,45.00 72.00,44.00 72.00,44.00 Z
           M 83.00,44.00
           C 83.00,44.00 65.00,47.00 65.00,47.00
             65.00,47.00 64.00,48.00 64.00,48.00
             64.00,48.00 64.00,51.00 64.00,51.00
             74.63,55.52 76.92,53.57 83.00,44.00 Z
           M 87.00,44.00
           C 87.00,44.00 81.00,49.00 81.00,49.00
             81.00,49.00 87.00,44.00 87.00,44.00 Z
           M 311.00,52.00
           C 307.52,47.41 305.66,46.08 300.00,45.00
             303.22,49.48 305.13,52.48 311.00,52.00 Z
           M 308.00,46.00
           C 308.00,46.00 307.00,46.00 307.00,46.00
             307.00,46.00 308.00,47.00 308.00,47.00
             308.00,47.00 308.00,46.00 308.00,46.00 Z
           M 64.00,49.00
           C 64.00,49.00 63.00,49.00 63.00,49.00
             63.00,49.00 64.00,50.00 64.00,50.00
             64.00,50.00 64.00,49.00 64.00,49.00 Z
           M 328.00,70.00
           C 323.52,63.31 317.61,54.69 309.00,54.00
             310.55,57.34 317.17,66.88 320.32,68.52
             322.40,69.59 325.69,69.81 328.00,70.00 Z
           M 317.00,68.00
           C 315.25,64.60 310.56,56.89 306.83,55.77
             304.57,55.09 299.35,56.41 297.00,57.00
             302.55,67.52 305.90,67.99 317.00,68.00 Z
           M 102.00,59.00
           C 102.00,59.00 77.00,57.31 77.00,57.31
             72.69,58.95 69.60,63.92 68.00,68.00
             68.00,68.00 86.00,66.01 86.00,66.01
             89.80,65.92 95.44,66.35 98.66,64.07
             100.69,62.62 101.12,61.16 102.00,59.00 Z
           M 302.00,67.00
           C 302.00,67.00 294.83,58.11 294.83,58.11
             294.83,58.11 279.00,59.00 279.00,59.00
             279.00,59.00 282.39,64.98 282.39,64.98
             282.39,64.98 302.00,67.00 302.00,67.00 Z
           M 278.00,65.00
           C 275.57,58.14 273.21,59.52 267.00,60.00
             269.24,66.05 272.26,65.00 278.00,65.00 Z
           M 109.00,60.00
           C 104.43,60.38 103.63,60.61 102.00,65.00
             106.57,64.62 107.37,64.39 109.00,60.00 Z
           M 139.00,60.84
           C 139.00,60.84 123.00,60.84 123.00,60.84
             123.00,60.84 114.22,60.84 114.22,60.84
             114.22,60.84 111.00,65.00 111.00,65.00
             120.74,63.71 122.70,64.17 132.00,64.00
             135.70,63.93 136.88,64.17 139.00,60.84 Z
           M 266.00,65.00
           C 265.12,62.62 264.71,61.00 261.89,60.35
             261.89,60.35 250.00,61.00 250.00,61.00
             244.33,61.03 233.04,61.00 228.00,63.00
             228.00,63.00 239.00,64.00 239.00,64.00
             239.00,64.00 266.00,65.00 266.00,65.00 Z
           M 163.00,62.00
           C 163.00,62.00 143.54,62.54 143.54,62.54
             143.54,62.54 142.00,64.00 142.00,64.00
             142.00,64.00 163.00,62.00 163.00,62.00 Z
           M 177.00,62.00
           C 177.00,62.00 168.00,63.00 168.00,63.00
             168.00,63.00 177.00,62.00 177.00,62.00 Z
           M 224.00,62.00
           C 224.00,62.00 200.00,63.00 200.00,63.00
             200.00,63.00 224.00,62.00 224.00,62.00 Z
           M 163.00,65.00
           C 159.01,65.00 145.02,64.30 142.27,66.02
             138.80,68.20 135.95,80.79 135.00,85.00
             135.00,85.00 160.00,86.00 160.00,86.00
             160.00,86.00 163.00,65.00 163.00,65.00 Z
           M 181.00,65.00
           C 181.00,65.00 167.00,65.00 167.00,65.00
             167.00,65.00 165.00,85.00 165.00,85.00
             168.11,85.88 177.74,87.23 179.98,84.40
             181.68,82.25 181.00,68.46 181.00,65.00 Z
           M 228.00,85.00
           C 228.00,85.00 224.02,66.60 224.02,66.60
             224.02,66.60 218.00,65.00 218.00,65.00
             218.00,65.00 185.00,65.00 185.00,65.00
             185.00,65.00 184.00,86.00 184.00,86.00
             184.00,86.00 210.00,86.00 210.00,86.00
             210.00,86.00 228.00,85.00 228.00,85.00 Z
           M 275.00,84.00
           C 274.23,79.91 270.15,69.47 266.61,67.29
             264.19,65.79 259.81,66.00 257.00,66.00
             257.00,66.00 242.00,66.00 242.00,66.00
             242.00,66.00 229.00,65.00 229.00,65.00
             229.00,65.00 233.00,85.00 233.00,85.00
             233.00,85.00 275.00,84.00 275.00,84.00 Z
           M 138.00,66.00
           C 138.00,66.00 118.00,66.00 118.00,66.00
             115.38,66.04 112.56,65.97 110.42,67.74
             107.49,70.14 104.60,80.17 104.00,84.00
             104.00,84.00 123.00,84.83 123.00,84.83
             123.00,84.83 131.28,84.01 131.28,84.01
             131.28,84.01 138.00,66.00 138.00,66.00 Z
           M 97.00,67.00
           C 97.00,67.00 76.00,68.83 76.00,68.83
             76.00,68.83 66.38,70.17 66.38,70.17
             66.38,70.17 60.00,80.00 60.00,80.00
             60.00,80.00 80.00,82.03 80.00,82.03
             80.00,82.03 88.61,82.03 88.61,82.03
             88.61,82.03 97.00,67.00 97.00,67.00 Z
           M 106.00,67.00
           C 104.05,67.07 102.07,66.96 100.33,68.02
             96.83,70.14 93.12,79.07 92.00,83.00
             94.18,82.99 97.68,83.24 99.50,81.98
             102.05,80.22 105.13,70.22 106.00,67.00 Z
           M 286.00,83.00
           C 284.91,78.98 281.75,69.32 277.79,67.60
             276.12,66.87 272.87,67.01 271.00,67.00
             271.99,70.46 276.21,80.94 279.39,82.43
             280.92,83.14 284.25,82.99 286.00,83.00 Z
           M 311.00,81.00
           C 306.11,65.63 296.42,68.00 283.00,68.00
             283.00,68.00 290.39,81.89 290.39,81.89
             290.39,81.89 311.00,81.00 311.00,81.00 Z
           M 324.00,79.00
           C 319.55,69.06 316.00,69.81 306.00,69.00
             311.48,78.76 312.45,81.84 324.00,79.00 Z
           M 63.00,70.00
           C 58.85,70.19 46.34,71.54 43.29,73.85
             41.83,74.97 41.80,75.55 41.00,77.00
             41.00,77.00 57.00,80.00 57.00,80.00
             57.00,80.00 63.00,70.00 63.00,70.00 Z
           M 333.00,77.00
           C 329.76,71.43 327.12,71.29 321.00,71.00
             321.00,71.00 326.00,79.00 326.00,79.00
             326.00,79.00 333.00,77.00 333.00,77.00 Z
           M 338.00,74.00
           C 338.00,74.00 332.00,73.00 332.00,73.00
             332.00,73.00 334.00,77.00 334.00,77.00
             334.00,77.00 338.00,74.00 338.00,74.00 Z
           M 40.00,74.00
           C 40.00,74.00 39.00,74.00 39.00,74.00
             39.00,74.00 40.00,75.00 40.00,75.00
             40.00,75.00 40.00,74.00 40.00,74.00 Z
           M 348.00,101.00
           C 346.69,96.51 338.88,82.00 334.82,80.19
             332.53,79.18 330.16,80.24 328.00,81.00
             328.88,84.03 335.12,97.25 337.41,98.71
             339.20,99.85 345.31,100.34 348.00,101.00 Z
           M 334.00,99.00
           C 332.95,95.10 328.35,83.07 324.61,81.83
             323.39,81.20 316.98,81.96 315.00,81.83
             315.00,81.83 323.63,97.02 323.63,97.02
             323.63,97.02 334.00,99.00 334.00,99.00 Z
           M 88.00,85.00
           C 88.00,85.00 67.00,82.99 67.00,82.99
             64.71,82.74 61.42,81.88 59.39,82.99
             56.13,84.96 52.69,94.33 52.00,98.00
             52.00,98.00 74.00,97.00 74.00,97.00
             74.00,97.00 82.51,95.15 82.51,95.15
             82.51,95.15 88.00,85.00 88.00,85.00 Z
           M 321.00,98.00
           C 319.45,94.40 315.92,85.99 312.67,84.02
             309.78,82.27 293.71,84.10 290.00,85.00
             290.00,85.00 294.70,95.18 294.70,95.18
             294.70,95.18 304.00,97.00 304.00,97.00
             304.00,97.00 321.00,98.00 321.00,98.00 Z
           M 99.00,85.00
           C 89.13,85.01 88.76,86.25 86.00,96.00
             96.45,96.00 97.31,95.98 99.00,85.00 Z
           M 276.00,85.00
           C 276.00,85.00 260.00,86.00 260.00,86.00
             260.00,86.00 248.00,86.96 248.00,86.96
             248.00,86.96 234.00,86.96 234.00,86.96
             234.38,89.60 234.59,93.11 237.30,94.40
             239.24,95.32 248.32,95.00 251.00,95.00
             251.00,95.00 265.00,95.00 265.00,95.00
             265.00,95.00 280.00,96.00 280.00,96.00
             280.00,96.00 276.00,85.00 276.00,85.00 Z
           M 290.00,96.00
           C 288.73,87.76 288.36,85.10 280.00,85.00
             280.00,85.00 283.00,96.00 283.00,96.00
             283.00,96.00 290.00,96.00 290.00,96.00 Z
           M 131.00,87.00
           C 131.00,87.00 111.00,86.00 111.00,86.00
             108.97,86.00 105.35,85.74 103.70,86.99
             101.30,88.81 101.13,93.27 101.00,96.00
             101.00,96.00 121.00,95.00 121.00,95.00
             121.00,95.00 128.44,93.98 128.44,93.98
             128.44,93.98 131.00,87.00 131.00,87.00 Z
           M 161.00,88.00
           C 161.00,88.00 134.00,87.00 134.00,87.00
             134.00,87.00 133.00,94.96 133.00,94.96
             133.00,94.96 148.00,94.96 148.00,94.96
             148.00,94.96 160.00,94.00 160.00,94.00
             160.00,94.00 161.00,88.00 161.00,88.00 Z
           M 181.00,88.00
           C 177.64,87.56 168.36,85.64 166.02,88.60
             164.91,90.00 165.06,92.31 165.00,94.00
             165.00,94.00 180.00,94.00 180.00,94.00
             180.00,94.00 181.00,88.00 181.00,88.00 Z
           M 228.00,87.00
           C 228.00,87.00 208.00,87.00 208.00,87.00
             208.00,87.00 196.00,87.96 196.00,87.96
             196.00,87.96 184.00,87.96 184.00,87.96
             184.00,87.96 184.00,94.00 184.00,94.00
             184.00,94.00 228.00,95.00 228.00,95.00
             228.00,95.00 228.00,87.00 228.00,87.00 Z
           M 49.00,97.00
           C 49.00,97.00 48.00,97.00 48.00,97.00
             48.00,97.00 49.00,98.00 49.00,98.00
             49.00,98.00 49.00,97.00 49.00,97.00 Z
           M 128.00,97.00
           C 128.00,97.00 109.00,97.99 109.00,97.99
             106.27,98.05 101.88,97.48 99.85,99.60
             97.48,102.07 97.07,108.69 97.00,112.00
             97.00,112.00 126.00,112.00 126.00,112.00
             126.00,112.00 128.00,97.00 128.00,97.00 Z
           M 160.00,97.00
           C 160.00,97.00 132.00,97.00 132.00,97.00
             132.00,97.00 129.00,112.00 129.00,112.00
             129.00,112.00 159.00,113.00 159.00,113.00
             159.00,113.00 160.00,97.00 160.00,97.00 Z
           M 180.00,97.00
           C 177.10,97.00 167.58,96.46 165.60,98.02
             163.15,99.96 164.00,109.82 164.00,113.00
             164.00,113.00 180.00,113.00 180.00,113.00
             180.00,113.00 180.00,97.00 180.00,97.00 Z
           M 231.00,113.00
           C 230.87,110.14 230.27,99.62 228.26,97.99
             226.42,96.50 218.61,97.00 216.00,97.00
             216.00,97.00 184.00,97.00 184.00,97.00
             184.00,97.00 184.00,113.00 184.00,113.00
             184.00,113.00 231.00,113.00 231.00,113.00 Z
           M 285.00,112.00
           C 284.70,108.66 283.36,101.03 280.49,99.02
             278.52,97.64 273.46,98.00 271.00,98.00
             271.00,98.00 256.00,97.00 256.00,97.00
             256.00,97.00 236.00,97.00 236.00,97.00
             236.40,99.98 237.45,110.32 239.59,111.98
             240.79,112.91 242.56,112.92 244.00,112.98
             244.00,112.98 260.00,112.00 260.00,112.00
             260.00,112.00 285.00,112.00 285.00,112.00 Z
           M 95.00,98.00
           C 84.29,98.01 82.72,99.85 81.00,111.00
             83.51,111.00 89.51,111.40 91.44,109.98
             93.90,108.16 94.75,100.95 95.00,98.00 Z
           M 295.00,111.00
           C 291.97,100.53 293.26,98.29 285.00,98.00
             285.00,98.00 288.00,111.00 288.00,111.00
             288.00,111.00 295.00,111.00 295.00,111.00 Z
           M 82.00,99.00
           C 82.00,99.00 61.00,99.91 61.00,99.91
             61.00,99.91 51.27,101.02 51.27,101.02
             51.27,101.02 47.00,109.00 47.00,109.00
             47.00,109.00 78.00,111.00 78.00,111.00
             78.00,111.00 82.00,99.00 82.00,99.00 Z
           M 326.00,109.00
           C 326.00,109.00 321.59,101.02 321.59,101.02
             321.59,101.02 314.00,99.72 314.00,99.72
             314.00,99.72 295.00,99.00 295.00,99.00
             295.00,99.00 299.51,110.13 299.51,110.13
             299.51,110.13 308.00,110.13 308.00,110.13
             308.00,110.13 326.00,109.00 326.00,109.00 Z
           M 338.00,108.00
           C 335.84,99.81 332.18,101.29 325.00,100.00
             326.90,110.09 329.39,109.13 338.00,108.00 Z
           M 44.00,101.00
           C 38.64,101.25 26.11,101.53 23.00,106.00
             23.00,106.00 42.00,108.00 42.00,108.00
             42.00,108.00 44.00,101.00 44.00,101.00 Z
           M 47.00,101.00
           C 47.00,101.00 46.00,106.00 46.00,106.00
             46.00,106.00 47.00,101.00 47.00,101.00 Z
           M 351.00,106.00
           C 347.60,101.33 343.31,102.02 338.00,102.00
             338.00,102.00 340.00,108.00 340.00,108.00
             340.00,108.00 351.00,106.00 351.00,106.00 Z
           M 352.00,103.00
           C 352.04,105.46 352.82,105.05 355.00,105.00
             355.00,105.00 352.00,103.00 352.00,103.00 Z
           M 40.00,110.00
           C 40.00,110.00 22.41,108.61 22.41,108.61
             22.41,108.61 18.40,115.00 18.40,115.00
             18.40,115.00 12.00,135.00 12.00,135.00
             12.00,135.00 31.49,131.98 31.49,131.98
             31.49,131.98 35.00,125.00 35.00,125.00
             35.00,125.00 40.00,110.00 40.00,110.00 Z
           M 352.00,108.00
           C 352.00,108.00 341.00,110.00 341.00,110.00
             341.00,110.00 348.00,133.00 348.00,133.00
             348.00,133.00 362.00,134.00 362.00,134.00
             362.00,134.00 352.00,108.00 352.00,108.00 Z
           M 346.00,133.00
           C 346.00,133.00 341.67,117.00 341.67,117.00
             341.67,117.00 338.49,111.03 338.49,111.03
             338.49,111.03 329.00,111.03 329.00,111.03
             329.00,111.03 333.98,125.00 333.98,125.00
             333.98,125.00 337.43,131.98 337.43,131.98
             337.43,131.98 346.00,133.00 346.00,133.00 Z
           M 44.00,111.00
           C 44.00,111.00 42.00,111.00 42.00,111.00
             42.00,111.00 35.00,133.00 35.00,133.00
             35.00,133.00 37.58,130.71 37.58,130.71
             37.58,130.71 44.00,111.00 44.00,111.00 Z
           M 77.00,113.00
           C 77.00,113.00 56.00,111.85 56.00,111.85
             53.42,111.41 48.93,110.31 46.70,111.85
             44.08,113.96 41.11,128.16 40.00,132.00
             40.00,132.00 41.00,133.00 41.00,133.00
             41.00,133.00 62.00,132.00 62.00,132.00
             62.00,132.00 71.28,130.10 71.28,130.10
             71.28,130.10 77.00,113.00 77.00,113.00 Z
           M 334.00,132.00
           C 334.00,132.00 326.30,112.01 326.30,112.01
             326.30,112.01 319.00,112.01 319.00,112.01
             319.00,112.01 310.00,112.01 310.00,112.01
             310.00,112.01 299.00,113.00 299.00,113.00
             299.00,113.00 303.00,131.00 303.00,131.00
             303.00,131.00 315.00,132.00 315.00,132.00
             315.00,132.00 334.00,132.00 334.00,132.00 Z
           M 92.00,114.01
           C 89.10,113.18 83.19,112.09 80.56,114.01
             78.00,115.90 75.69,127.56 75.00,131.00
             75.00,131.00 87.42,129.98 87.42,129.98
             87.42,129.98 92.00,114.01 92.00,114.01 Z
           M 299.00,131.00
           C 298.55,127.69 296.95,115.78 294.44,114.02
             292.66,112.81 290.84,113.54 289.00,114.02
             289.00,114.02 293.00,131.00 293.00,131.00
             293.00,131.00 299.00,131.00 299.00,131.00 Z
           M 123.00,130.00
           C 123.24,127.06 125.37,117.58 123.94,115.60
             122.52,113.63 118.19,114.00 116.00,114.00
             112.25,113.99 98.13,113.04 96.01,115.60
             94.40,117.53 93.13,128.16 93.00,131.00
             93.00,131.00 106.00,131.00 106.00,131.00
             106.00,131.00 123.00,130.00 123.00,130.00 Z
           M 290.00,131.00
           C 289.54,127.60 288.07,116.96 285.44,115.02
             283.40,113.51 275.77,114.00 273.00,114.00
             273.00,114.00 258.00,114.00 258.00,114.00
             258.00,114.00 239.00,115.00 239.00,115.00
             239.13,117.82 239.68,127.34 241.74,129.01
             243.71,130.60 254.93,129.97 258.00,130.00
             258.00,130.00 271.00,131.00 271.00,131.00
             271.00,131.00 290.00,131.00 290.00,131.00 Z
           M 158.00,115.00
           C 158.00,115.00 135.00,115.00 135.00,115.00
             135.00,115.00 129.02,116.60 129.02,116.60
             129.02,116.60 127.00,130.00 127.00,130.00
             127.00,130.00 151.00,130.00 151.00,130.00
             151.00,130.00 156.98,128.40 156.98,128.40
             156.98,128.40 158.00,115.00 158.00,115.00 Z
           M 180.00,115.00
           C 176.71,115.00 165.98,114.12 164.02,116.60
             162.50,118.52 163.00,127.23 163.00,130.00
             163.00,130.00 179.00,130.00 179.00,130.00
             179.00,130.00 180.00,115.00 180.00,115.00 Z
           M 231.00,115.00
           C 231.00,115.00 184.01,115.00 184.01,115.00
             183.59,118.12 182.02,125.87 184.01,128.40
             185.49,130.26 188.87,129.98 191.00,130.00
             191.00,130.00 232.00,130.00 232.00,130.00
             232.00,130.00 231.00,115.00 231.00,115.00 Z
           M 179.00,132.00
           C 175.17,132.00 165.59,131.26 163.17,134.53
             161.83,136.35 162.02,139.81 162.00,142.00
             162.00,142.00 179.00,142.00 179.00,142.00
             179.00,142.00 179.00,132.00 179.00,132.00 Z
           M 233.00,133.00
           C 233.00,133.00 219.00,133.00 219.00,133.00
             219.00,133.00 207.00,132.05 207.00,132.05
             207.00,132.05 190.00,132.05 190.00,132.05
             182.12,132.15 183.01,134.71 183.00,142.00
             183.00,142.00 233.00,142.00 233.00,142.00
             233.00,142.00 233.00,133.00 233.00,133.00 Z
           M 87.00,133.00
           C 87.00,133.00 74.00,134.00 74.00,134.00
             74.00,134.00 73.00,141.00 73.00,141.00
             73.00,141.00 87.00,141.00 87.00,141.00
             87.00,141.00 87.00,133.00 87.00,133.00 Z
           M 122.00,133.00
           C 122.00,133.00 100.00,133.00 100.00,133.00
             100.00,133.00 93.59,134.02 93.59,134.02
             93.59,134.02 91.00,141.00 91.00,141.00
             91.00,141.00 114.00,142.00 114.00,142.00
             114.00,142.00 120.26,141.01 120.26,141.01
             120.26,141.01 122.00,133.00 122.00,133.00 Z
           M 157.00,133.00
           C 157.00,133.00 126.00,133.00 126.00,133.00
             126.00,133.00 125.00,142.00 125.00,142.00
             125.00,142.00 157.00,142.00 157.00,142.00
             157.00,142.00 157.00,133.00 157.00,133.00 Z
           M 292.00,141.00
           C 291.62,138.40 291.41,134.89 288.70,133.60
             286.74,132.67 276.78,133.00 274.00,133.00
             274.00,133.00 241.00,133.00 241.00,133.00
             241.00,133.00 242.00,142.00 242.00,142.00
             242.00,142.00 277.00,142.00 277.00,142.00
             277.00,142.00 292.00,141.00 292.00,141.00 Z
           M 71.00,134.00
           C 71.00,134.00 59.00,134.00 59.00,134.00
             59.00,134.00 39.00,135.00 39.00,135.00
             39.00,135.00 39.00,140.00 39.00,140.00
             39.00,140.00 70.00,141.00 70.00,141.00
             70.00,141.00 71.00,134.00 71.00,134.00 Z
           M 300.00,134.00
           C 300.00,134.00 294.00,134.00 294.00,134.00
             294.00,134.00 295.00,141.00 295.00,141.00
             295.00,141.00 301.00,141.00 301.00,141.00
             301.00,141.00 300.00,134.00 300.00,134.00 Z
           M 335.00,135.00
           C 335.00,135.00 319.00,134.00 319.00,134.00
             319.00,134.00 304.00,134.00 304.00,134.00
             304.00,134.00 305.60,139.98 305.60,139.98
             305.60,139.98 314.00,141.00 314.00,141.00
             314.00,141.00 324.00,140.04 324.00,140.04
             324.00,140.04 335.00,140.04 335.00,140.04
             335.00,140.04 335.00,135.00 335.00,135.00 Z
           M 36.00,135.00
           C 36.00,135.00 34.00,135.00 34.00,135.00
             34.00,135.00 33.00,139.00 33.00,139.00
             35.71,137.87 35.45,137.87 36.00,135.00 Z
           M 348.00,139.00
           C 344.82,134.04 342.48,135.00 337.00,135.00
             337.00,135.00 338.00,140.00 338.00,140.00
             338.00,140.00 348.00,139.00 348.00,139.00 Z
           M 31.00,136.00
           C 25.01,136.00 18.49,135.20 13.00,138.00
             13.00,138.00 31.00,139.00 31.00,139.00
             31.00,139.00 31.00,136.00 31.00,136.00 Z
           M 363.00,137.00
           C 363.00,137.00 350.00,136.00 350.00,136.00
             350.00,136.00 350.00,139.00 350.00,139.00
             350.00,139.00 363.00,137.00 363.00,137.00 Z
           M 30.00,141.00
           C 30.00,141.00 10.00,140.00 10.00,140.00
             10.00,140.00 5.00,170.00 5.00,170.00
             5.00,170.00 24.43,168.83 24.43,168.83
             24.43,168.83 26.58,161.00 26.58,161.00
             26.58,161.00 30.00,141.00 30.00,141.00 Z
           M 364.00,140.00
           C 364.00,140.00 351.00,141.00 351.00,141.00
             351.00,141.00 355.00,170.00 355.00,170.00
             355.00,170.00 369.00,170.00 369.00,170.00
             369.00,170.00 364.00,140.00 364.00,140.00 Z
           M 348.00,141.00
           C 348.00,141.00 339.00,142.00 339.00,142.00
             339.00,142.00 343.00,169.00 343.00,169.00
             343.00,169.00 352.00,169.00 352.00,169.00
             351.98,161.13 350.29,148.49 348.00,141.00 Z
           M 35.00,142.00
           C 35.00,142.00 32.00,142.00 32.00,142.00
             32.00,142.00 28.00,169.00 28.00,169.00
             32.72,167.35 31.71,165.49 32.28,161.00
             32.28,161.00 35.00,142.00 35.00,142.00 Z
           M 69.00,142.96
           C 69.00,142.96 57.00,142.96 57.00,142.96
             57.00,142.96 47.00,142.00 47.00,142.00
             47.00,142.00 38.74,142.99 38.74,142.99
             38.74,142.99 36.42,150.00 36.42,150.00
             36.42,150.00 34.00,169.00 34.00,169.00
             34.00,169.00 66.00,169.00 66.00,169.00
             66.00,169.00 69.00,142.96 69.00,142.96 Z
           M 340.00,169.00
           C 340.00,169.00 337.92,150.00 337.92,150.00
             337.92,150.00 335.42,143.02 335.42,143.02
             335.42,143.02 326.00,142.17 326.00,142.17
             326.00,142.17 305.00,143.00 305.00,143.00
             305.00,143.00 306.91,159.00 306.91,159.00
             306.91,159.00 308.17,167.43 308.17,167.43
             308.17,167.43 314.00,169.00 314.00,169.00
             314.00,169.00 340.00,169.00 340.00,169.00 Z
           M 87.00,144.01
           C 84.03,143.16 76.18,142.00 73.60,144.01
             71.94,145.33 71.72,148.99 71.42,151.00
             70.11,159.74 70.00,160.18 70.00,169.00
             70.00,169.00 83.40,167.98 83.40,167.98
             83.40,167.98 85.04,160.00 85.04,160.00
             85.04,160.00 87.00,144.01 87.00,144.01 Z
           M 292.00,143.00
           C 281.37,144.91 254.30,144.00 242.00,144.00
             242.00,144.00 242.96,155.00 242.96,155.00
             242.96,155.00 242.96,168.00 242.96,168.00
             242.96,168.00 265.00,169.00 265.00,169.00
             265.00,169.00 295.00,169.00 295.00,169.00
             295.00,169.00 292.00,143.00 292.00,143.00 Z
           M 301.00,143.00
           C 301.00,143.00 296.00,143.00 296.00,143.00
             296.00,143.00 299.00,169.00 299.00,169.00
             299.00,169.00 303.00,169.00 303.00,169.00
             303.00,169.00 301.00,143.00 301.00,143.00 Z
           M 121.00,144.00
           C 121.00,144.00 91.00,144.00 91.00,144.00
             91.00,144.00 89.00,169.00 89.00,169.00
             89.00,169.00 112.00,169.00 112.00,169.00
             112.00,169.00 118.15,167.40 118.15,167.40
             118.15,167.40 119.99,160.00 119.99,160.00
             119.99,160.00 121.00,144.00 121.00,144.00 Z
           M 155.99,168.00
           C 156.10,163.62 158.38,148.63 155.99,145.60
             154.41,143.62 150.30,144.00 148.00,144.00
             148.00,144.00 125.00,144.00 125.00,144.00
             125.00,144.00 123.00,168.00 123.00,168.00
             123.00,168.00 155.99,168.00 155.99,168.00 Z
           M 179.00,145.01
           C 175.54,144.72 166.28,142.90 163.60,145.01
             161.62,146.59 162.00,150.70 162.00,153.00
             162.00,153.00 162.00,168.00 162.00,168.00
             162.00,168.00 179.00,168.00 179.00,168.00
             179.00,168.00 179.00,145.01 179.00,145.01 Z
           M 233.00,144.00
           C 233.00,144.00 211.00,144.00 211.00,144.00
             211.00,144.00 199.00,144.96 199.00,144.96
             199.00,144.96 183.00,144.96 183.00,144.96
             183.00,144.96 183.00,168.00 183.00,168.00
             183.00,168.00 234.00,168.00 234.00,168.00
             234.00,168.00 233.00,144.00 233.00,144.00 Z
           M 373.00,159.00
           C 373.00,159.00 374.00,159.00 374.00,159.00
             374.00,159.00 373.00,160.00 373.00,160.00
             373.00,160.00 373.00,159.00 373.00,159.00 Z
           M 374.00,164.00
           C 374.00,164.00 375.00,164.00 375.00,164.00
             375.00,164.00 374.00,165.00 374.00,165.00
             374.00,165.00 374.00,164.00 374.00,164.00 Z
           M 84.00,171.00
           C 84.00,171.00 70.00,172.00 70.00,172.00
             70.00,172.00 84.00,171.00 84.00,171.00 Z
           M 119.00,171.00
           C 112.62,171.00 93.87,170.07 89.00,172.00
             89.00,172.00 102.00,173.00 102.00,173.00
             102.00,173.00 119.00,173.00 119.00,173.00
             119.00,173.00 119.00,171.00 119.00,171.00 Z
           M 156.00,171.00
           C 149.44,171.00 127.76,170.11 123.00,172.00
             123.00,172.00 156.00,173.00 156.00,173.00
             156.00,173.00 156.00,171.00 156.00,171.00 Z
           M 179.00,171.00
           C 179.00,171.00 162.00,171.00 162.00,171.00
             162.00,171.00 162.00,173.00 162.00,173.00
             162.00,173.00 179.00,173.00 179.00,173.00
             179.00,173.00 179.00,171.00 179.00,171.00 Z
           M 234.00,171.00
           C 234.00,171.00 183.00,171.00 183.00,171.00
             183.00,171.00 183.00,173.00 183.00,173.00
             183.00,173.00 234.00,173.00 234.00,173.00
             234.00,173.00 234.00,171.00 234.00,171.00 Z
           M 295.00,171.00
           C 295.00,171.00 244.00,171.00 244.00,171.00
             244.00,171.00 244.00,173.00 244.00,173.00
             244.00,173.00 283.00,172.28 283.00,172.28
             283.00,172.28 295.00,171.00 295.00,171.00 Z
           M 25.00,174.00
           C 25.00,174.00 5.00,173.00 5.00,173.00
             5.00,173.00 4.00,191.00 4.00,191.00
             4.00,191.00 5.00,205.00 5.00,205.00
             5.00,205.00 25.00,205.00 25.00,205.00
             25.00,205.00 25.00,174.00 25.00,174.00 Z
           M 31.00,174.00
           C 31.00,174.00 27.00,174.00 27.00,174.00
             27.00,174.00 28.00,205.00 28.00,205.00
             31.15,202.64 30.93,201.86 31.00,198.00
             31.00,198.00 31.00,174.00 31.00,174.00 Z
           M 66.00,204.00
           C 66.00,204.00 65.15,187.00 65.15,187.00
             65.54,184.09 66.91,178.04 65.15,175.60
             63.41,173.62 59.30,174.00 57.00,174.00
             57.00,174.00 33.84,174.00 33.84,174.00
             33.84,174.00 33.84,190.00 33.84,190.00
             33.84,190.00 33.84,204.00 33.84,204.00
             33.84,204.00 66.00,204.00 66.00,204.00 Z
           M 84.00,175.02
           C 84.00,175.02 70.60,175.02 70.60,175.02
             70.60,175.02 69.00,183.00 69.00,183.00
             69.00,183.00 69.00,204.00 69.00,204.00
             69.00,204.00 84.00,204.00 84.00,204.00
             84.00,204.00 84.00,175.02 84.00,175.02 Z
           M 303.00,174.00
           C 303.00,174.00 299.00,175.00 299.00,175.00
             299.00,175.00 299.00,204.00 299.00,204.00
             299.00,204.00 304.00,204.00 304.00,204.00
             304.00,204.00 303.00,174.00 303.00,174.00 Z
           M 341.00,174.00
           C 341.00,174.00 316.00,174.00 316.00,174.00
             316.00,174.00 309.02,175.60 309.02,175.60
             309.02,175.60 308.00,181.00 308.00,181.00
             308.00,181.00 308.00,204.00 308.00,204.00
             308.00,204.00 341.00,204.00 341.00,204.00
             341.00,204.00 341.00,174.00 341.00,174.00 Z
           M 353.00,174.00
           C 353.00,174.00 343.00,175.00 343.00,175.00
             344.97,183.09 344.10,195.69 343.00,203.97
             343.00,203.97 351.40,203.97 351.40,203.97
             351.40,203.97 353.00,196.00 353.00,196.00
             353.00,196.00 353.00,174.00 353.00,174.00 Z
           M 369.00,205.00
           C 369.00,205.00 370.00,181.00 370.00,181.00
             370.00,181.00 368.40,175.02 368.40,175.02
             368.40,175.02 355.00,174.00 355.00,174.00
             355.00,174.00 355.96,190.00 355.96,190.00
             355.96,190.00 355.00,205.00 355.00,205.00
             355.00,205.00 369.00,205.00 369.00,205.00 Z
           M 119.00,175.00
           C 119.00,175.00 89.00,175.00 89.00,175.00
             89.00,175.00 88.00,190.00 88.00,190.00
             88.00,190.00 89.00,204.00 89.00,204.00
             89.00,204.00 119.00,204.00 119.00,204.00
             119.00,204.00 119.00,175.00 119.00,175.00 Z
           M 156.00,175.00
           C 156.00,175.00 123.00,175.00 123.00,175.00
             123.00,175.00 123.00,195.00 123.00,195.00
             123.00,195.00 124.02,202.40 124.02,202.40
             124.02,202.40 131.00,204.00 131.00,204.00
             131.00,204.00 148.00,204.00 148.00,204.00
             148.00,204.00 154.40,202.98 154.40,202.98
             154.40,202.98 156.00,195.00 156.00,195.00
             156.00,195.00 156.00,175.00 156.00,175.00 Z
           M 179.00,175.00
           C 179.00,175.00 161.92,175.00 161.92,175.00
             161.99,183.95 160.89,185.32 161.92,195.00
             162.03,197.02 161.78,200.84 163.02,202.40
             165.11,205.04 176.82,204.78 178.43,201.57
             179.14,200.15 179.00,196.66 179.00,195.00
             179.00,195.00 179.00,175.00 179.00,175.00 Z
           M 234.00,175.00
           C 234.00,175.00 183.00,175.00 183.00,175.00
             183.00,175.00 183.00,203.04 183.00,203.04
             183.00,203.04 196.00,203.04 196.00,203.04
             196.00,203.04 208.00,204.00 208.00,204.00
             208.00,204.00 234.00,204.00 234.00,204.00
             234.00,204.00 234.00,175.00 234.00,175.00 Z
           M 296.00,175.00
           C 296.00,175.00 244.00,175.00 244.00,175.00
             244.00,175.00 244.00,204.00 244.00,204.00
             244.00,204.00 288.00,204.00 288.00,204.00
             295.33,203.95 295.95,203.33 296.00,196.00
             296.00,196.00 296.00,175.00 296.00,175.00 Z
           M 375.00,180.00
           C 375.00,180.00 376.00,180.00 376.00,180.00
             376.00,180.00 375.00,181.00 375.00,181.00
             375.00,181.00 375.00,180.00 375.00,180.00 Z
           M 375.00,196.00
           C 375.00,196.00 376.00,196.00 376.00,196.00
             376.00,196.00 375.00,197.00 375.00,197.00
             375.00,197.00 375.00,196.00 375.00,196.00 Z
           M 66.00,206.00
           C 66.00,206.00 53.00,207.00 53.00,207.00
             53.00,207.00 66.00,206.00 66.00,206.00 Z
           M 84.00,206.00
           C 84.00,206.00 70.00,207.00 70.00,207.00
             70.00,207.00 84.00,206.00 84.00,206.00 Z
           M 119.00,206.00
           C 112.62,206.00 93.87,205.07 89.00,207.00
             89.00,207.00 105.00,208.00 105.00,208.00
             105.00,208.00 119.00,208.00 119.00,208.00
             119.00,208.00 119.00,206.00 119.00,206.00 Z
           M 156.00,206.00
           C 149.44,206.00 127.76,205.11 123.00,207.00
             123.00,207.00 156.00,208.00 156.00,208.00
             156.00,208.00 156.00,206.00 156.00,206.00 Z
           M 179.00,206.00
           C 179.00,206.00 162.00,206.00 162.00,206.00
             162.00,206.00 162.00,208.00 162.00,208.00
             162.00,208.00 179.00,208.00 179.00,208.00
             179.00,208.00 179.00,206.00 179.00,206.00 Z
           M 234.00,206.00
           C 234.00,206.00 183.00,206.00 183.00,206.00
             183.00,206.00 183.00,208.00 183.00,208.00
             183.00,208.00 234.00,208.00 234.00,208.00
             234.00,208.00 234.00,206.00 234.00,206.00 Z
           M 295.00,206.00
           C 295.00,206.00 244.00,206.00 244.00,206.00
             244.00,206.00 244.00,208.00 244.00,208.00
             244.00,208.00 270.00,208.00 270.00,208.00
             270.00,208.00 285.00,207.00 285.00,207.00
             285.00,207.00 295.00,206.00 295.00,206.00 Z
           M 324.00,206.00
           C 324.00,206.00 308.00,207.00 308.00,207.00
             308.00,207.00 324.00,206.00 324.00,206.00 Z
           M 26.00,209.00
           C 26.00,209.00 5.00,209.00 5.00,209.00
             5.00,209.00 7.08,222.00 7.08,222.00
             7.08,222.00 11.00,239.00 11.00,239.00
             11.00,239.00 30.00,237.00 30.00,237.00
             30.00,237.00 26.00,209.00 26.00,209.00 Z
           M 35.00,237.00
           C 35.00,237.00 32.42,217.00 32.42,217.00
             31.78,212.48 32.61,210.61 28.00,209.00
             28.00,209.00 32.43,234.71 32.43,234.71
             32.43,234.71 35.00,237.00 35.00,237.00 Z
           M 70.00,235.00
           C 70.00,235.00 67.28,219.00 67.28,219.00
             67.28,219.00 65.83,211.57 65.83,211.57
             65.83,211.57 58.00,209.96 58.00,209.96
             58.00,209.96 45.00,209.96 45.00,209.96
             45.00,209.96 35.00,209.00 35.00,209.00
             35.00,217.51 35.73,229.15 39.00,237.00
             39.00,237.00 58.00,236.00 58.00,236.00
             58.00,236.00 70.00,235.00 70.00,235.00 Z
           M 340.00,209.00
           C 340.00,209.00 316.00,210.00 316.00,210.00
             316.00,210.00 308.60,211.02 308.60,211.02
             308.60,211.02 306.91,218.00 306.91,218.00
             306.91,218.00 305.00,235.00 305.00,235.00
             305.00,235.00 315.00,235.96 315.00,235.96
             315.00,235.96 329.00,235.96 329.00,235.96
             329.00,235.96 335.27,235.01 335.27,235.01
             335.27,235.01 337.75,228.00 337.75,228.00
             337.75,228.00 340.00,209.00 340.00,209.00 Z
           M 352.00,209.00
           C 352.00,209.00 343.00,209.00 343.00,209.00
             343.00,209.00 339.00,237.00 339.00,237.00
             339.00,237.00 347.26,236.01 347.26,236.01
             347.26,236.01 349.61,229.00 349.61,229.00
             349.61,229.00 352.00,209.00 352.00,209.00 Z
           M 369.00,209.00
           C 369.00,209.00 355.74,209.99 355.74,209.99
             355.74,209.99 353.58,218.00 353.58,218.00
             353.58,218.00 350.00,237.00 350.00,237.00
             350.00,237.00 364.00,238.00 364.00,238.00
             364.00,238.00 369.00,209.00 369.00,209.00 Z
           M 87.00,235.00
           C 87.00,235.00 85.09,218.00 85.09,218.00
             85.09,218.00 83.40,211.02 83.40,211.02
             83.40,211.02 70.00,210.00 70.00,210.00
             70.00,210.00 71.58,227.00 71.58,227.00
             71.58,227.00 73.74,234.01 73.74,234.01
             73.74,234.01 87.00,235.00 87.00,235.00 Z
           M 121.00,234.00
           C 121.00,234.00 120.00,219.00 120.00,219.00
             120.00,219.00 118.83,211.57 118.83,211.57
             118.83,211.57 111.00,210.00 111.00,210.00
             111.00,210.00 89.00,210.00 89.00,210.00
             89.00,210.00 91.00,235.00 91.00,235.00
             91.00,235.00 121.00,234.00 121.00,234.00 Z
           M 156.00,210.00
           C 156.00,210.00 130.00,210.00 130.00,210.00
             130.00,210.00 124.01,211.60 124.01,211.60
             124.01,211.60 124.01,218.00 124.01,218.00
             124.01,218.00 125.00,234.00 125.00,234.00
             125.00,234.00 156.96,234.00 156.96,234.00
             156.96,234.00 156.96,219.00 156.96,219.00
             156.96,219.00 156.00,210.00 156.00,210.00 Z
           M 179.00,234.00
           C 179.00,234.00 179.00,217.00 179.00,217.00
             179.00,217.00 177.40,211.02 177.40,211.02
             177.40,211.02 162.00,210.00 162.00,210.00
             162.00,210.00 162.00,234.00 162.00,234.00
             162.00,234.00 179.00,234.00 179.00,234.00 Z
           M 234.00,210.00
           C 234.00,210.00 192.00,210.00 192.00,210.00
             185.26,210.01 183.14,209.51 183.00,217.00
             183.00,217.00 183.00,234.00 183.00,234.00
             183.00,234.00 233.00,234.00 233.00,234.00
             233.00,234.00 234.00,210.00 234.00,210.00 Z
           M 295.00,210.00
           C 295.00,210.00 250.00,210.00 250.00,210.00
             250.00,210.00 244.02,211.60 244.02,211.60
             244.02,211.60 243.00,219.00 243.00,219.00
             243.00,219.00 242.00,234.00 242.00,234.00
             242.00,234.00 261.00,234.00 261.00,234.00
             261.00,234.00 285.00,235.00 285.00,235.00
             285.00,235.00 291.26,234.01 291.26,234.01
             291.26,234.01 293.27,228.00 293.27,228.00
             293.27,228.00 295.00,210.00 295.00,210.00 Z
           M 303.00,210.00
           C 303.00,210.00 299.02,211.60 299.02,211.60
             299.02,211.60 297.83,218.00 297.83,218.00
             297.83,218.00 296.00,235.00 296.00,235.00
             296.00,235.00 301.00,235.00 301.00,235.00
             301.00,235.00 303.00,210.00 303.00,210.00 Z
           M 374.00,212.00
           C 374.00,212.00 375.00,212.00 375.00,212.00
             375.00,212.00 374.00,213.00 374.00,213.00
             374.00,213.00 374.00,212.00 374.00,212.00 Z
           M 373.00,217.00
           C 373.00,217.00 374.00,217.00 374.00,217.00
             374.00,217.00 373.00,218.00 373.00,218.00
             373.00,218.00 373.00,217.00 373.00,217.00 Z
           M 122.00,246.00
           C 122.00,243.86 122.30,239.27 120.98,237.60
             119.41,235.61 115.26,235.96 113.00,236.17
             113.00,236.17 92.00,237.00 92.00,237.00
             92.00,237.00 93.02,243.40 93.02,243.40
             93.02,243.40 100.00,245.28 100.00,245.28
             100.00,245.28 122.00,246.00 122.00,246.00 Z
           M 157.00,236.00
           C 157.00,236.00 125.00,237.00 125.00,237.00
             125.00,237.00 126.00,246.00 126.00,246.00
             126.00,246.00 157.00,246.00 157.00,246.00
             157.00,246.00 157.00,236.00 157.00,236.00 Z
           M 179.00,236.00
           C 179.00,236.00 162.00,236.00 162.00,236.00
             162.00,236.00 163.00,246.00 163.00,246.00
             163.00,246.00 179.00,246.00 179.00,246.00
             179.00,246.00 179.00,236.00 179.00,236.00 Z
           M 233.00,236.00
           C 233.00,236.00 183.00,236.00 183.00,236.00
             183.00,236.00 183.00,246.00 183.00,246.00
             183.00,246.00 226.00,246.00 226.00,246.00
             233.88,245.85 232.99,243.29 233.00,236.00 Z
           M 292.00,237.00
           C 292.00,237.00 242.00,236.00 242.00,236.00
             242.00,236.00 241.00,246.00 241.00,246.00
             241.00,246.00 278.00,245.17 278.00,245.17
             278.00,245.17 289.42,243.98 289.42,243.98
             289.42,243.98 292.00,237.00 292.00,237.00 Z
           M 88.00,245.00
           C 87.76,235.81 86.30,237.00 74.00,237.00
             74.24,246.19 75.70,245.00 88.00,245.00 Z
           M 300.00,237.00
           C 300.00,237.00 295.00,237.00 295.00,237.00
             295.00,237.00 294.00,245.00 294.00,245.00
             300.26,244.48 299.93,242.76 300.00,237.00 Z
           M 303.00,244.00
           C 310.67,246.18 314.52,244.09 322.00,244.00
             323.97,243.98 337.50,245.11 333.87,239.58
             332.67,237.75 328.92,238.01 327.00,238.01
             327.00,238.01 312.00,238.01 312.00,238.01
             310.21,237.80 307.11,237.11 305.58,238.01
             304.05,239.12 303.48,242.30 303.00,244.00 Z
           M 71.00,245.00
           C 71.00,245.00 69.40,239.02 69.40,239.02
             69.40,239.02 64.00,238.00 64.00,238.00
             64.00,238.00 39.00,239.00 39.00,239.00
             39.00,239.00 41.43,243.43 41.43,243.43
             41.43,243.43 54.00,244.00 54.00,244.00
             54.00,244.00 71.00,245.00 71.00,245.00 Z
           M 32.00,243.00
           C 31.40,241.52 31.27,240.34 29.58,239.61
             26.86,238.44 15.55,240.35 13.00,242.00
             13.00,242.00 32.00,243.00 32.00,243.00 Z
           M 34.00,239.00
           C 33.89,241.87 34.42,242.02 37.00,243.00
             37.00,243.00 34.00,239.00 34.00,239.00 Z
           M 347.00,239.00
           C 341.59,239.00 338.09,237.78 337.00,244.00
             337.00,244.00 347.00,243.00 347.00,243.00
             347.00,243.00 347.00,239.00 347.00,239.00 Z
           M 362.00,240.00
           C 362.00,240.00 350.00,239.00 350.00,239.00
             350.00,239.00 349.00,243.00 349.00,243.00
             349.00,243.00 362.00,242.00 362.00,242.00
             362.00,242.00 362.00,240.00 362.00,240.00 Z
           M 41.00,268.00
           C 41.00,268.00 35.33,253.00 35.33,253.00
             35.33,253.00 31.58,246.17 31.58,246.17
             31.58,246.17 12.00,244.00 12.00,244.00
             12.00,244.00 22.00,271.00 22.00,271.00
             22.00,271.00 41.00,268.00 41.00,268.00 Z
           M 361.00,244.00
           C 361.00,244.00 348.00,245.00 348.00,245.00
             348.00,245.00 341.00,268.98 341.00,268.98
             341.00,268.98 351.35,268.98 351.35,268.98
             351.35,268.98 355.28,262.00 355.28,262.00
             355.28,262.00 361.00,244.00 361.00,244.00 Z
           M 38.00,246.00
           C 38.00,246.00 35.00,246.00 35.00,246.00
             36.84,252.30 39.78,263.21 44.00,268.00
             44.00,268.00 38.00,246.00 38.00,246.00 Z
           M 77.00,266.00
           C 76.50,262.75 73.73,249.71 71.44,248.02
             69.45,246.55 62.65,247.00 60.00,247.00
             60.00,247.00 41.00,246.00 41.00,246.00
             41.00,246.00 46.00,267.00 46.00,267.00
             46.00,267.00 77.00,266.00 77.00,266.00 Z
           M 333.00,246.00
           C 333.00,246.00 311.00,247.00 311.00,247.00
             309.03,247.00 305.31,246.74 303.73,247.99
             301.87,249.48 298.77,262.42 300.11,264.40
             301.45,266.38 305.87,265.99 308.00,266.00
             308.00,266.00 322.96,266.84 322.96,266.84
             329.24,265.97 332.16,251.43 333.00,246.00 Z
           M 346.00,246.00
           C 346.00,246.00 336.56,247.02 336.56,247.02
             336.56,247.02 333.66,253.00 333.66,253.00
             333.66,253.00 329.00,267.21 329.00,267.21
             329.00,267.21 337.58,267.21 337.58,267.21
             337.58,267.21 341.33,261.00 341.33,261.00
             341.33,261.00 346.00,246.00 346.00,246.00 Z
           M 89.00,248.00
           C 89.00,248.00 76.00,247.00 76.00,247.00
             76.17,250.73 77.95,262.71 81.43,264.43
             83.12,265.27 89.78,265.00 92.00,265.00
             92.00,265.00 89.00,248.00 89.00,248.00 Z
           M 298.00,247.00
           C 298.00,247.00 293.73,248.90 293.73,248.90
             293.73,248.90 289.00,265.00 289.00,265.00
             297.81,264.72 295.37,261.71 299.00,248.00
             299.00,248.00 298.00,247.00 298.00,247.00 Z
           M 123.00,248.00
           C 123.00,248.00 93.00,248.00 93.00,248.00
             93.41,251.04 94.82,261.52 96.74,263.39
             98.81,265.40 102.40,264.26 105.00,264.04
             105.00,264.04 125.00,264.04 125.00,264.04
             125.00,264.04 123.00,248.00 123.00,248.00 Z
           M 158.00,249.00
           C 158.00,249.00 143.00,249.00 143.00,249.00
             143.00,249.00 127.00,248.00 127.00,248.00
             127.00,248.00 129.00,264.00 129.00,264.00
             129.00,264.00 158.00,263.00 158.00,263.00
             158.00,263.00 158.00,249.00 158.00,249.00 Z
           M 290.00,248.00
           C 290.00,248.00 255.00,248.00 255.00,248.00
             252.04,248.00 243.71,247.49 241.57,249.17
             239.33,250.94 239.03,261.04 239.00,264.00
             239.00,264.00 267.00,264.00 267.00,264.00
             267.00,264.00 286.00,265.00 286.00,265.00
             286.00,265.00 290.00,248.00 290.00,248.00 Z
           M 180.00,263.00
           C 180.00,260.17 180.47,252.66 178.83,250.57
             176.89,248.11 166.26,249.00 163.00,249.00
             163.00,249.00 163.00,263.00 163.00,263.00
             163.00,263.00 180.00,263.00 180.00,263.00 Z
           M 232.00,249.00
           C 232.00,249.00 183.00,249.00 183.00,249.00
             183.00,249.00 184.00,263.00 184.00,263.00
             184.00,263.00 231.00,263.00 231.00,263.00
             231.00,263.00 232.00,249.00 232.00,249.00 Z
           M 160.00,282.00
           C 159.95,279.56 159.15,268.07 157.98,266.60
             156.27,264.45 150.58,265.00 148.00,265.00
             148.00,265.00 130.00,266.00 130.00,266.00
             130.00,266.00 132.00,281.00 132.00,281.00
             132.00,281.00 160.00,282.00 160.00,282.00 Z
           M 180.00,265.00
           C 180.00,265.00 164.00,265.00 164.00,265.00
             164.00,268.39 163.18,278.94 165.74,281.01
             167.63,282.54 177.18,282.00 180.00,282.00
             180.00,282.00 180.00,265.00 180.00,265.00 Z
           M 229.00,282.00
           C 229.00,282.00 229.89,266.60 229.89,266.60
             229.89,266.60 222.00,265.00 222.00,265.00
             222.00,265.00 184.00,265.00 184.00,265.00
             184.00,265.00 184.00,282.00 184.00,282.00
             184.00,282.00 229.00,282.00 229.00,282.00 Z
           M 126.00,266.00
           C 126.00,266.00 97.00,267.00 97.00,267.00
             97.25,269.99 98.34,278.16 100.72,280.01
             102.09,281.07 104.36,280.97 106.00,281.00
             106.00,281.00 129.00,281.00 129.00,281.00
             129.00,281.00 126.00,266.00 126.00,266.00 Z
           M 285.00,267.00
           C 285.00,267.00 269.00,266.00 269.00,266.00
             269.00,266.00 238.00,266.00 238.00,266.00
             238.00,266.00 236.00,282.00 236.00,282.00
             236.00,282.00 248.00,281.00 248.00,281.00
             248.00,281.00 266.00,281.00 266.00,281.00
             269.25,281.00 277.05,281.51 279.58,279.83
             282.45,277.92 284.24,270.32 285.00,267.00 Z
           M 93.00,267.00
           C 93.00,267.00 81.00,267.00 81.00,267.00
             81.71,270.10 83.46,277.99 86.42,279.43
             88.09,280.24 93.88,280.00 96.00,280.00
             96.00,280.00 93.00,267.00 93.00,267.00 Z
           M 294.00,267.00
           C 292.58,267.05 290.72,266.94 289.42,267.57
             286.46,269.01 284.71,276.90 284.00,280.00
             293.14,279.89 293.29,275.48 294.00,267.00 Z
           M 325.00,269.00
           C 325.00,269.00 299.00,267.00 299.00,267.00
             299.00,267.00 295.00,280.00 295.00,280.00
             295.00,280.00 313.00,279.00 313.00,279.00
             313.00,279.00 321.35,277.18 321.35,277.18
             321.35,277.18 325.00,269.00 325.00,269.00 Z
           M 82.00,280.00
           C 81.48,277.11 79.97,270.76 77.49,269.02
             75.47,267.61 69.57,267.99 67.00,268.00
             67.00,268.00 48.00,269.00 48.00,269.00
             48.44,271.78 48.88,275.25 51.42,276.98
             52.94,278.02 58.03,278.64 60.00,278.96
             60.00,278.96 71.00,278.96 71.00,278.96
             71.00,278.96 82.00,280.00 82.00,280.00 Z
           M 337.00,270.00
           C 337.00,270.00 328.00,269.00 328.00,269.00
             328.00,269.00 324.00,278.00 324.00,278.00
             331.27,277.98 336.00,278.57 337.00,270.00 Z
           M 45.00,277.00
           C 44.20,275.19 43.08,272.13 41.36,271.03
             39.32,269.72 28.50,271.31 26.29,272.51
             24.73,273.35 24.85,273.72 24.00,275.00
             24.00,275.00 45.00,277.00 45.00,277.00 Z
           M 45.00,270.00
           C 45.00,270.00 44.00,270.00 44.00,270.00
             44.00,270.00 45.00,271.00 45.00,271.00
             45.00,271.00 45.00,270.00 45.00,270.00 Z
           M 46.00,271.00
           C 46.00,271.00 47.00,276.00 47.00,276.00
             47.00,276.00 46.00,271.00 46.00,271.00 Z
           M 350.00,272.00
           C 350.00,272.00 339.00,271.00 339.00,271.00
             339.00,271.00 337.00,277.00 337.00,277.00
             342.24,276.76 347.21,276.96 350.00,272.00 Z
           M 355.00,273.00
           C 355.00,273.00 350.00,275.00 350.00,275.00
             350.00,275.00 355.00,273.00 355.00,273.00 Z
           M 48.00,276.00
           C 48.00,276.00 47.00,276.00 47.00,276.00
             47.00,276.00 48.00,277.00 48.00,277.00
             48.00,277.00 48.00,276.00 48.00,276.00 Z
           M 347.00,278.00
           C 344.36,278.12 338.61,278.49 336.49,280.01
             334.11,281.72 327.92,294.77 327.00,298.17
             327.00,298.17 333.68,298.17 333.68,298.17
             333.68,298.17 338.67,293.00 338.67,293.00
             338.67,293.00 347.00,278.00 347.00,278.00 Z
           M 88.00,294.00
           C 87.35,290.56 85.74,285.02 82.61,283.02
             80.52,281.69 76.54,282.07 74.00,281.83
             74.00,281.83 52.00,280.00 52.00,280.00
             52.93,283.25 57.01,293.19 59.63,295.09
             62.02,296.66 66.27,295.44 69.00,295.09
             69.00,295.09 88.00,294.00 88.00,294.00 Z
           M 333.00,280.00
           C 330.81,280.00 326.08,279.79 324.21,280.60
             320.71,282.10 315.74,292.37 314.00,296.18
             316.37,296.11 321.99,297.05 323.79,296.18
             327.86,294.81 332.03,284.11 333.00,280.00 Z
           M 320.00,281.00
           C 320.00,281.00 302.00,281.91 302.00,281.91
             299.79,282.07 296.34,281.74 294.51,283.02
             292.03,284.76 290.52,291.11 290.00,294.00
             290.00,294.00 312.39,294.00 312.39,294.00
             312.39,294.00 320.00,281.00 320.00,281.00 Z
           M 97.00,283.00
           C 97.00,283.00 87.00,282.00 87.00,282.00
             88.84,292.16 90.40,292.99 100.00,293.00
             100.00,293.00 97.00,283.00 97.00,283.00 Z
           M 290.00,282.00
           C 281.94,282.48 280.98,285.67 279.00,293.00
             279.00,293.00 287.00,293.00 287.00,293.00
             287.00,293.00 290.00,282.00 290.00,282.00 Z
           M 130.00,284.00
           C 130.00,284.00 117.00,283.00 117.00,283.00
             117.00,283.00 101.00,283.00 101.00,283.00
             101.40,285.56 102.10,290.43 104.51,291.98
             106.20,292.91 109.96,292.12 112.00,291.98
             112.00,291.98 131.00,291.98 131.00,291.98
             131.00,291.98 130.00,284.00 130.00,284.00 Z
           M 279.00,283.00
           C 279.00,283.00 262.00,283.00 262.00,283.00
             262.00,283.00 250.00,283.96 250.00,283.96
             250.00,283.96 235.00,283.96 235.00,283.96
             235.00,283.96 234.00,291.00 234.00,291.00
             234.00,291.00 261.00,292.00 261.00,292.00
             264.14,292.00 273.43,293.35 275.35,292.00
             277.82,290.28 278.57,285.76 279.00,283.00 Z
           M 160.00,284.00
           C 160.00,284.00 133.00,284.00 133.00,284.00
             133.00,284.00 135.56,289.98 135.56,289.98
             135.56,289.98 143.00,291.00 143.00,291.00
             143.00,291.00 161.00,291.00 161.00,291.00
             161.00,291.00 160.00,284.00 160.00,284.00 Z
           M 179.94,284.00
           C 179.94,284.00 165.00,284.00 165.00,284.00
             165.07,285.98 164.86,288.60 166.60,289.98
             168.55,291.52 178.39,291.62 179.94,289.40
             180.84,287.99 180.23,285.56 179.94,284.00 Z
           M 229.00,284.00
           C 229.00,284.00 184.00,284.00 184.00,284.00
             184.00,284.00 184.00,291.00 184.00,291.00
             184.00,291.00 228.00,291.00 228.00,291.00
             228.00,291.00 229.00,284.00 229.00,284.00 Z
           M 182.00,313.00
           C 182.00,313.00 181.00,299.00 181.00,299.00
             181.00,299.00 179.40,293.06 179.40,293.06
             179.40,293.06 166.00,293.06 166.00,293.06
             166.00,293.06 167.00,313.00 167.00,313.00
             167.00,313.00 182.00,313.00 182.00,313.00 Z
           M 227.00,293.00
           C 227.00,293.00 208.00,293.00 208.00,293.00
             208.00,293.00 194.00,292.00 194.00,292.00
             191.57,291.98 186.65,291.54 185.01,293.60
             182.78,296.44 184.50,309.24 185.01,313.00
             185.01,313.00 218.00,313.00 218.00,313.00
             219.65,312.97 222.04,313.04 223.41,311.98
             226.01,309.96 226.97,296.53 227.00,293.00 Z
           M 138.00,313.00
           C 137.50,309.73 133.77,295.67 131.44,293.97
             129.42,292.63 125.40,293.75 123.00,293.97
             116.62,294.34 110.22,293.23 104.00,295.00
             104.00,295.00 110.65,310.40 110.65,310.40
             110.65,310.40 119.00,312.00 119.00,312.00
             119.00,312.00 138.00,313.00 138.00,313.00 Z
           M 161.00,293.00
           C 161.00,293.00 136.00,293.00 136.00,293.00
             136.00,293.00 141.00,313.00 141.00,313.00
             141.00,313.00 163.00,313.00 163.00,313.00
             163.00,313.00 161.00,293.00 161.00,293.00 Z
           M 275.00,295.00
           C 275.00,295.00 259.00,294.00 259.00,294.00
             259.00,294.00 247.00,293.04 247.00,293.04
             247.00,293.04 233.00,293.04 233.00,293.04
             233.00,293.04 229.00,312.96 229.00,312.96
             229.00,312.96 243.00,312.96 243.00,312.96
             243.00,312.96 255.00,312.00 255.00,312.00
             255.00,312.00 266.37,311.01 266.37,311.01
             266.37,311.01 275.00,295.00 275.00,295.00 Z
           M 98.00,311.00
           C 98.00,311.00 89.61,296.69 89.61,296.69
             89.61,296.69 82.00,295.96 82.00,295.96
             82.00,295.96 61.00,298.00 61.00,298.00
             62.06,301.34 64.04,306.12 67.21,307.98
             69.06,309.06 72.77,309.12 75.00,309.42
             75.00,309.42 98.00,311.00 98.00,311.00 Z
           M 101.00,295.00
           C 101.00,295.00 92.00,295.00 92.00,295.00
             93.58,298.66 97.88,308.83 101.38,310.43
             102.83,311.09 105.39,310.98 107.00,311.00
             107.00,311.00 101.00,295.00 101.00,295.00 Z
           M 285.00,295.00
           C 282.90,295.03 280.22,294.85 278.39,296.02
             275.39,297.94 271.02,308.41 270.00,312.00
             272.04,311.50 277.20,310.88 278.51,309.98
             281.65,307.80 284.41,298.74 285.00,295.00 Z
           M 310.00,297.01
           C 305.27,296.96 292.88,294.77 289.39,297.01
             286.89,298.63 283.33,307.91 282.00,311.00
             282.00,311.00 292.00,310.09 292.00,310.09
             294.33,309.93 297.90,310.15 300.00,309.57
             305.42,308.07 308.75,302.09 310.00,297.01 Z
           M 323.00,299.00
           C 312.53,297.12 309.97,298.63 306.00,309.00
             314.92,308.80 319.99,308.43 323.00,299.00 Z
           M 64.00,308.00
           C 57.87,297.11 53.18,297.31 42.00,302.00
             45.91,307.54 57.58,307.94 64.00,308.00 Z
           M 332.00,301.00
           C 325.56,299.25 323.41,300.94 321.00,307.00
             326.66,306.72 329.27,306.36 332.00,301.00 Z
           M 337.00,303.00
           C 333.43,302.55 333.61,302.52 331.00,305.00
             331.00,305.00 337.00,303.00 337.00,303.00 Z
           M 41.00,303.00
           C 41.00,303.00 40.00,303.00 40.00,303.00
             40.00,303.00 41.00,304.00 41.00,304.00
             41.00,304.00 41.00,303.00 41.00,303.00 Z
           M 47.00,307.00
           C 47.00,307.00 46.00,307.00 46.00,307.00
             46.00,307.00 47.00,308.00 47.00,308.00
             47.00,308.00 47.00,307.00 47.00,307.00 Z
           M 327.00,308.00
           C 327.00,308.00 319.17,310.01 319.17,310.01
             319.17,310.01 308.00,324.00 308.00,324.00
             316.00,324.14 323.03,314.25 327.00,308.00 Z
           M 316.00,310.00
           C 304.78,310.25 301.84,310.94 296.00,321.00
             303.22,322.82 305.92,324.11 311.00,317.98
             313.27,315.24 314.61,313.26 316.00,310.00 Z
           M 103.00,319.00
           C 103.00,319.00 99.47,313.99 99.47,313.99
             99.47,313.99 92.00,312.58 92.00,312.58
             92.00,312.58 69.00,311.00 69.00,311.00
             69.00,311.00 77.00,322.00 77.00,322.00
             77.00,322.00 103.00,319.00 103.00,319.00 Z
           M 301.00,311.00
           C 289.27,313.10 282.50,309.46 278.00,319.00
             289.41,320.51 295.30,323.64 301.00,311.00 Z
           M 110.00,318.00
           C 107.52,313.76 106.87,313.40 102.00,313.00
             104.48,317.24 105.13,317.60 110.00,318.00 Z
           M 278.00,313.00
           C 271.72,313.01 269.44,312.11 266.00,318.00
             273.16,318.57 274.54,320.32 278.00,313.00 Z
           M 139.00,315.00
           C 139.00,315.00 112.00,314.00 112.00,314.00
             114.41,319.99 118.73,317.67 124.00,317.08
             124.00,317.08 139.00,317.08 139.00,317.08
             139.00,317.08 139.00,315.00 139.00,315.00 Z
           M 265.00,314.04
           C 265.00,314.04 246.00,314.04 246.00,314.04
             246.00,314.04 239.00,314.91 239.00,314.91
             239.00,314.91 228.00,316.00 228.00,316.00
             228.00,316.00 238.00,316.96 238.00,316.96
             238.00,316.96 249.00,316.96 249.00,316.96
             255.37,317.08 261.43,320.34 265.00,314.04 Z
           M 158.00,315.00
           C 158.00,315.00 142.00,316.00 142.00,316.00
             142.00,316.00 158.00,315.00 158.00,315.00 Z
           M 224.00,315.00
           C 224.00,315.00 219.00,316.00 219.00,316.00
             219.00,316.00 224.00,315.00 224.00,315.00 Z
           M 182.00,317.00
           C 179.44,317.00 171.39,316.53 169.64,318.02
             168.16,319.28 168.59,321.32 168.74,323.00
             168.99,325.88 169.64,335.32 171.74,337.00
             173.98,338.81 180.24,337.36 183.00,337.00
             183.00,337.00 182.00,317.00 182.00,317.00 Z
           M 223.00,318.00
           C 223.00,318.00 206.00,317.00 206.00,317.00
             206.00,317.00 185.00,317.00 185.00,317.00
             185.00,317.00 185.00,337.00 185.00,337.00
             185.00,337.00 210.00,338.00 210.00,338.00
             211.96,337.99 214.83,338.14 216.49,336.98
             219.49,334.87 222.46,321.86 223.00,318.00 Z
           M 149.00,338.00
           C 147.99,334.46 142.37,320.77 139.61,318.87
             137.13,317.45 133.71,318.40 131.00,318.87
             124.81,319.45 120.17,318.25 114.00,320.00
             115.79,324.14 120.50,334.81 124.21,336.98
             127.31,338.79 144.39,338.00 149.00,338.00 Z
           M 164.00,318.00
           C 164.00,318.00 143.00,318.00 143.00,318.00
             144.79,322.48 148.98,335.57 153.21,337.40
             155.34,338.32 164.18,338.00 167.00,338.00
             167.00,338.00 164.00,318.00 164.00,318.00 Z
           M 262.00,320.00
           C 262.00,320.00 227.00,318.00 227.00,318.00
             227.00,318.00 222.00,338.00 222.00,338.00
             227.04,338.00 245.53,338.78 248.96,336.98
             253.14,334.79 259.57,324.34 262.00,320.00 Z
           M 117.00,337.00
           C 115.24,333.72 107.01,322.54 103.91,321.19
             100.46,319.69 84.72,322.62 80.00,323.00
             85.39,334.40 92.86,335.27 104.00,336.09
             104.00,336.09 117.00,337.00 117.00,337.00 Z
           M 118.00,334.00
           C 115.95,328.41 113.40,321.10 107.00,320.00
             109.34,325.50 113.23,330.41 118.00,334.00 Z
           M 273.00,320.00
           C 270.92,320.00 267.02,319.83 265.18,320.60
             261.99,321.94 253.55,334.56 252.00,338.00
             252.00,338.00 262.82,336.40 262.82,336.40
             267.41,334.48 272.11,324.70 273.00,320.00 Z
           M 292.00,322.00
           C 288.57,321.93 280.68,320.60 278.21,321.29
             274.41,322.36 268.42,333.30 267.00,337.00
             267.00,337.00 279.00,335.15 279.00,335.15
             284.25,333.02 289.21,326.77 292.00,322.00 Z
           M 304.00,324.00
           C 301.69,323.81 296.92,322.96 295.00,323.35
             290.44,324.29 284.65,331.30 282.00,335.00
             291.48,334.97 300.83,334.78 304.00,324.00 Z
           M 82.00,328.00
           C 82.96,331.58 84.79,332.47 88.00,334.00
             88.00,334.00 82.00,328.00 82.00,328.00 Z
           M 300.00,334.00
           C 300.00,334.00 299.00,334.00 299.00,334.00
             299.00,334.00 300.00,335.00 300.00,335.00
             300.00,335.00 300.00,334.00 300.00,334.00 Z
           M 295.00,335.00
           C 286.04,336.18 279.01,335.39 273.00,343.00
             273.00,343.00 283.00,344.39 283.00,344.39
             287.58,343.95 292.45,338.49 295.00,335.00 Z
           M 90.00,336.00
           C 91.17,340.43 94.78,342.76 99.00,344.00
             96.67,339.73 94.22,338.23 90.00,336.00 Z
           M 120.00,336.00
           C 120.00,336.00 119.00,336.00 119.00,336.00
             119.00,336.00 120.00,337.00 120.00,337.00
             120.00,337.00 120.00,336.00 120.00,336.00 Z
           M 75.00,336.00
           C 75.00,336.00 76.00,336.00 76.00,336.00
             76.00,336.00 75.00,337.00 75.00,337.00
             75.00,337.00 75.00,336.00 75.00,336.00 Z
           M 120.00,339.00
           C 114.61,338.29 98.37,336.27 94.00,338.00
             94.00,338.00 101.00,342.33 101.00,342.33
             101.00,342.33 117.78,340.46 117.78,340.46
             117.78,340.46 120.00,339.00 120.00,339.00 Z
           M 277.00,337.00
           C 272.59,337.58 266.65,337.04 264.00,341.00
             270.52,342.15 272.55,342.50 277.00,337.00 Z
           M 262.00,338.00
           C 262.00,338.00 253.00,340.00 253.00,340.00
             257.19,340.32 259.44,341.71 262.00,338.00 Z
           M 126.00,339.00
           C 126.00,339.00 125.00,339.00 125.00,339.00
             125.00,339.00 126.00,340.00 126.00,340.00
             126.00,340.00 126.00,339.00 126.00,339.00 Z
           M 251.00,339.00
           C 251.00,339.00 250.00,339.00 250.00,339.00
             250.00,339.00 251.00,340.00 251.00,340.00
             251.00,340.00 251.00,339.00 251.00,339.00 Z
           M 161.00,356.00
           C 159.55,353.17 152.93,342.46 150.62,341.01
             146.83,338.65 131.29,340.98 126.00,341.01
             129.14,346.94 137.12,355.59 144.00,356.77
             144.00,356.77 161.00,356.00 161.00,356.00 Z
           M 153.00,340.00
           C 155.11,344.38 162.60,360.33 169.64,354.82
             171.38,353.23 170.36,350.06 169.64,348.00
             167.61,338.62 165.93,340.00 153.00,340.00 Z
           M 215.00,340.00
           C 215.00,340.00 203.00,341.00 203.00,341.00
             203.00,341.00 186.00,341.00 186.00,341.00
             186.00,341.00 186.00,355.00 186.00,355.00
             190.15,355.00 205.88,355.72 208.61,353.98
             212.20,351.69 214.57,344.03 215.00,340.00 Z
           M 246.00,341.00
           C 246.00,341.00 228.00,340.00 228.00,340.00
             228.00,340.00 221.70,340.99 221.70,340.99
             221.70,340.99 215.00,356.20 215.00,356.20
             215.00,356.20 229.00,356.20 229.00,356.20
             234.07,355.23 242.94,345.27 246.00,341.00 Z
           M 185.00,355.00
           C 185.00,355.00 182.40,342.02 182.40,342.02
             182.40,342.02 172.00,341.00 172.00,341.00
             172.00,341.00 174.00,355.00 174.00,355.00
             174.00,355.00 185.00,355.00 185.00,355.00 Z
           M 259.00,341.81
           C 256.14,341.77 251.54,340.74 249.00,341.81
             245.79,342.72 234.42,353.89 232.00,357.00
             235.37,357.00 243.19,357.34 246.00,356.26
             250.71,354.46 256.89,346.49 259.00,341.81 Z
           M 291.00,341.00
           C 291.00,341.00 290.00,341.00 290.00,341.00
             290.00,341.00 291.00,342.00 291.00,342.00
             291.00,342.00 291.00,341.00 291.00,341.00 Z
           M 136.00,357.00
           C 133.45,353.39 126.74,344.90 123.00,343.02
             118.85,340.94 107.09,342.92 103.00,345.00
             103.00,345.00 110.00,350.00 110.00,350.00
             105.60,347.08 104.34,345.74 99.00,345.00
             101.83,348.77 105.52,352.25 110.00,354.00
             112.34,354.91 115.03,355.70 116.00,353.00
             121.43,356.58 129.53,356.86 136.00,357.00 Z
           M 216.00,346.00
           C 216.00,346.00 215.00,346.00 215.00,346.00
             215.00,346.00 216.00,347.00 216.00,347.00
             216.00,347.00 216.00,346.00 216.00,346.00 Z
           M 214.00,350.00
           C 211.85,352.34 211.23,352.81 212.00,356.00
             212.00,356.00 214.00,350.00 214.00,350.00 Z
           M 114.00,352.00
           C 114.00,352.00 115.00,352.00 115.00,352.00
             115.00,352.00 114.00,353.00 114.00,353.00
             114.00,353.00 114.00,352.00 114.00,352.00 Z
           M 136.00,353.00
           C 136.00,353.00 135.00,353.00 135.00,353.00
             135.00,353.00 136.00,354.00 136.00,354.00
             136.00,354.00 136.00,353.00 136.00,353.00 Z
           M 258.00,355.00
           C 258.00,355.00 277.00,354.00 277.00,354.00
             277.00,354.00 267.00,357.00 267.00,357.00
             267.00,357.00 268.00,355.00 268.00,355.00
             264.17,355.93 261.76,356.49 258.00,355.00 Z
           M 137.00,354.00
           C 137.00,354.00 136.00,354.00 136.00,354.00
             136.00,354.00 137.00,355.00 137.00,355.00
             137.00,355.00 137.00,354.00 137.00,354.00 Z
           M 172.00,357.00
           C 172.00,357.00 164.00,358.00 164.00,358.00
             164.00,358.00 172.00,357.00 172.00,357.00 Z
           M 185.00,356.00
           C 185.00,356.00 175.00,356.00 175.00,356.00
             175.00,356.00 175.00,358.00 175.00,358.00
             175.00,358.00 185.00,358.00 185.00,358.00
             185.00,358.00 185.00,356.00 185.00,356.00 Z
           M 207.00,356.00
           C 207.00,356.00 187.00,356.00 187.00,356.00
             187.00,356.00 187.00,359.00 187.00,359.00
             187.00,359.00 207.00,358.00 207.00,358.00
             207.00,358.00 207.00,356.00 207.00,356.00 Z
           M 163.00,357.00
           C 163.00,357.00 155.00,358.00 155.00,358.00
             155.00,358.00 163.00,357.00 163.00,357.00 Z
           M 222.00,357.00
           C 222.00,357.00 214.00,358.00 214.00,358.00
             214.00,358.00 222.00,357.00 222.00,357.00 Z
           M 247.00,358.00
           C 247.00,358.00 246.00,358.00 246.00,358.00
             246.00,358.00 247.00,359.00 247.00,359.00
             247.00,359.00 247.00,358.00 247.00,358.00 Z
           M 176.00,368.00
           C 174.14,361.19 173.25,359.25 166.00,359.00
             169.06,363.27 171.19,365.72 176.00,368.00 Z
           M 117.00,359.00
           C 117.00,359.00 118.00,359.00 118.00,359.00
             118.00,359.00 117.00,360.00 117.00,360.00
             117.00,360.00 117.00,359.00 117.00,359.00 Z
           M 150.00,362.00
           C 150.00,362.00 151.00,362.00 151.00,362.00
             151.00,362.00 150.00,363.00 150.00,363.00
             150.00,363.00 150.00,362.00 150.00,362.00 Z
           M 152.00,363.00
           C 152.00,363.00 153.00,363.00 153.00,363.00
             153.00,363.00 152.00,364.00 152.00,364.00
             152.00,364.00 152.00,363.00 152.00,363.00 Z
           M 217.00,365.00
           C 217.00,365.00 218.00,365.00 218.00,365.00
             218.00,365.00 217.00,366.00 217.00,366.00
             217.00,366.00 217.00,365.00 217.00,365.00 Z
           M 215.00,366.00
           C 215.00,366.00 216.00,366.00 216.00,366.00
             216.00,366.00 215.00,367.00 215.00,367.00
             215.00,367.00 215.00,366.00 215.00,366.00 Z
           M 246.00,367.00
           C 246.00,367.00 247.00,367.00 247.00,367.00
             247.00,367.00 246.00,368.00 246.00,368.00
             246.00,368.00 246.00,367.00 246.00,367.00 Z
           M 241.00,368.00
           C 241.00,368.00 242.00,368.00 242.00,368.00
             242.00,368.00 241.00,369.00 241.00,369.00
             241.00,369.00 241.00,368.00 241.00,368.00 Z
           M 147.00,369.00
           C 147.00,369.00 148.00,369.00 148.00,369.00
             148.00,369.00 147.00,370.00 147.00,370.00
             147.00,370.00 147.00,369.00 147.00,369.00 Z
           M 233.00,369.00
           C 233.00,369.00 234.00,369.00 234.00,369.00
             234.00,369.00 233.00,370.00 233.00,370.00
             233.00,370.00 233.00,369.00 233.00,369.00 Z
           M 170.00,371.00
           C 170.00,371.00 171.00,371.00 171.00,371.00
             171.00,371.00 170.00,372.00 170.00,372.00
             170.00,372.00 170.00,371.00 170.00,371.00 Z" />
</svg>
